# https://github.com/mikedh/trimesh
v -0.21588501 0.05331854 -0.02631449
v -0.26513136 0.04309662 -0.02265432
v -0.22307193 0.04309662 -0.02264735
v -0.21588501 0.04309662 -0.02264735
v -0.17991499 0.05328803 -0.02631449
v -0.17991499 0.05305409 -0.02807723
v -0.30942122 0.05309478 -0.02807723
v -0.31310318 0.05331854 -0.02652119
v -0.27334498 0.04309662 -0.02276115
v -0.27334498 -0.00302919 -0.02376909
v -0.22307193 -0.00302919 -0.02376677
v -0.11806497 0.05313546 -0.02631449
v -0.21588501 -0.00302919 -0.02376677
v -0.02148404 -0.04922619 -0.02625411
v 0.01869899 -0.04677496 -0.02650029
v 0.01009591 0.00934901 -0.02775905
v 0.00577668 0.01366154 -0.02784963
v -0.11806497 0.05291170 -0.02807723
v -0.11806497 0.05166066 -0.03239698
v -0.31310318 0.05309478 -0.02807723
v -0.31310318 -0.00268337 -0.02592432
v -0.31310318 -0.01291547 -0.02592432
v -0.02789209 -0.04949063 -0.02625411
v -0.02445795 -0.04966354 -0.02625411
v -0.02017411 0.03955708 -0.03202307
v -0.01911202 0.03955708 -0.03240162
v -0.01610271 0.03955708 -0.03376258
v -0.01443873 0.03955708 -0.03670744
v -0.01436794 0.03955708 -0.03798014
v -0.01479278 0.03955708 -0.04114331
v -0.01511141 0.03955708 -0.04191901
v -0.01681078 0.03955708 -0.04355633
v 0.01441515 -0.05038569 -0.02817709
v 0.01869899 -0.05001953 -0.02835127
v 0.02301823 -0.04685633 -0.02791698
v 0.02754988 -0.04267602 -0.02788911
v 0.02301823 -0.04245225 -0.02703909
v 0.01441515 0.00452792 -0.02785427
v 0.01441515 0.00071377 -0.02773118
v 0.01441515 0.00502630 -0.02787517
v 0.01459217 0.00947106 -0.02887150
v 0.01034375 0.01396667 -0.02885292
v -0.11806497 0.05063338 -0.03495631
v -0.11948111 0.05063338 -0.03495864
v -0.13672264 0.05063338 -0.03497257
v -0.14536111 0.05166066 -0.03239698
v -0.01918283 0.03955708 -0.04415088
v -0.01985548 0.03955708 -0.04428326
v -0.31310318 0.05150809 -0.03207416
v -0.02445795 -0.05056877 -0.02807723
v -0.31310318 -0.01191870 -0.02807723
v -0.02445795 -0.05023312 -0.03168399
v 0.01009591 -0.05043655 -0.02817477
v 0.00906922 0.01643824 -0.02956359
v 0.01193692 0.01556353 -0.03239466
v 0.03841878 -0.00554144 -0.03840979
v 0.04319824 -0.00945730 -0.04102022
v -0.01288099 0.03809245 -0.04102487
v -0.01330583 0.03769578 -0.04347505
v -0.01581948 0.03851963 -0.04397205
v 0.01441515 -0.05038569 -0.03180940
v 0.02156667 -0.04942961 -0.02909446
v 0.01869899 -0.05001953 -0.03150516
v 0.02620453 -0.04547306 -0.02889705
v 0.03080700 -0.04138429 -0.02903640
v 0.03494921 -0.03720398 -0.02966346
v 0.03201072 -0.03844485 -0.02867410
v 0.03530326 -0.03381702 -0.02967275
v 0.04634918 -0.02435792 -0.03467994
v 0.01767229 0.00502630 -0.02912697
v 0.01714122 0.00810813 -0.02959146
v 0.01328224 0.01271563 -0.02943818
v -0.11806497 0.04907721 -0.03711387
v -0.13240341 0.04908738 -0.03712548
v -0.02013872 0.03955708 -0.04430881
v -0.02445795 0.03955708 -0.04458053
v -0.14104188 0.05063338 -0.03496328
v -0.01581948 0.03525472 -0.04552809
v -0.31310318 0.04999260 -0.03423403
v -0.02017411 -0.05043655 -0.03181869
v 0.01009591 -0.05043655 -0.03181869
v -0.31310318 -0.01055578 -0.03013027
v -0.02445795 -0.04791412 -0.03384154
v -0.31310318 -0.01030150 -0.03050651
v 0.04298583 -0.00963021 -0.03808233
v 0.04295043 -0.00968107 -0.04359349
v 0.03838336 -0.00559230 -0.04337518
v 0.04535788 -0.01146100 -0.04102022
v 0.00797170 0.02019137 -0.04324048
v -0.00866796 0.03368838 -0.04375374
v -0.01171266 0.03517335 -0.04432274
v 0.01441515 -0.04799549 -0.03396927
v 0.01869899 -0.04784292 -0.03366271
v 0.02156667 -0.04942961 -0.03088042
v 0.03144428 -0.04177079 -0.03239698
v 0.03360389 -0.04005188 -0.03239698
v 0.02531946 -0.04467972 -0.03461491
v 0.04277341 -0.03193537 -0.03417829
v 0.04680941 -0.02735839 -0.03454756
v 0.04680941 -0.02723633 -0.03454756
v 0.04765911 -0.01655671 -0.03738559
v 0.04461439 -0.01655671 -0.03568324
v 0.04723425 -0.01384103 -0.03803588
v -0.11806497 0.04838557 -0.03796853
v -0.12811958 0.04693111 -0.03976378
v -0.13240341 0.04693111 -0.03973591
v -0.11948111 0.04692094 -0.03976842
v -0.02013872 0.03525472 -0.04586717
v -0.11512647 0.03525472 -0.04583698
v -0.07625336 0.03955708 -0.04455963
v -0.12380034 0.04212019 -0.04341699
v -0.11806497 0.04209985 -0.04340770
v -0.11806497 0.04426629 -0.04192830
v -0.11806497 0.04691077 -0.03977075
v -0.01150024 0.03093202 -0.04597865
v -0.01581948 0.03093202 -0.04632004
v -0.31310318 0.04783634 -0.03545796
v -0.12811958 0.04419509 -0.04192365
v -0.02017411 -0.04800566 -0.03397856
v -0.02006790 -0.04800566 -0.03397856
v 0.01009591 -0.04799549 -0.03398089
v -0.02445795 -0.04576802 -0.03519553
v -0.31310318 -0.00791130 -0.03235518
v -0.31310318 -0.00510409 -0.03424332
v 0.04716346 -0.01390206 -0.04362136
v 0.04447278 -0.01237640 -0.04432971
v 0.04001194 -0.00811472 -0.04416481
v 0.02170830 0.00787420 -0.04384200
v 0.04737588 -0.01360710 -0.04102022
v 0.01413192 0.01351914 -0.04428326
v 0.01862818 0.00931849 -0.04451318
v -0.00721643 0.03096253 -0.04459447
v 0.01441515 -0.04583922 -0.03519553
v 0.01869899 -0.04567648 -0.03519785
v 0.02301823 -0.04510691 -0.03492380
v 0.03077161 -0.04118087 -0.03545099
v 0.04277341 -0.03191503 -0.03915994
v 0.03824175 -0.03605465 -0.03488432
v 0.04295043 -0.03205742 -0.03670279
v 0.03824175 -0.03605465 -0.03412488
v 0.03448898 -0.03624790 -0.03909259
v 0.04507464 -0.02968756 -0.03670279
v 0.04691562 -0.02752112 -0.03670279
v 0.04730506 -0.02554794 -0.03634746
v 0.04783611 -0.02087941 -0.03702562
v 0.04840258 -0.01655671 -0.04102254
v -0.12380034 0.04427646 -0.04192597
v -0.04601871 0.03093202 -0.04631308
v -0.11080724 0.03093202 -0.04629682
v -0.11948111 0.03525472 -0.04572317
v -0.12380034 0.03956725 -0.04443886
v -0.11802956 0.03818399 -0.04495444
v -0.11802956 0.03955708 -0.04453873
v -0.11948111 0.03956725 -0.04453408
v -0.12811958 0.04202865 -0.04336125
v 0.00577668 0.01798424 -0.04548629
v 0.01009591 0.01366154 -0.04574408
v 0.01441515 0.00934901 -0.04593452
v 0.01873439 0.00502630 -0.04606225
v -0.00718101 0.02661948 -0.04610406
v 0.00145747 0.01798424 -0.04627127
v 0.00577668 0.01366154 -0.04633166
v -0.01150024 0.02661948 -0.04635953
v -0.10216877 0.02661948 -0.04637114
v -0.10648800 0.02661948 -0.04637114
v -0.31310318 0.04388996 -0.03637069
v -0.02017411 -0.04584939 -0.03519553
v -0.02006790 -0.04584939 -0.03519553
v -0.03313182 -0.03945179 -0.03837263
v -0.02877719 -0.03946196 -0.03844695
v -0.02445795 -0.04246242 -0.03693039
v -0.31310318 -0.00295799 -0.03514211
v -0.04601871 -0.02803985 -0.04353079
v -0.03738025 -0.03698022 -0.03945954
v 0.04755290 -0.01655671 -0.04399760
v 0.04461439 -0.01655671 -0.04552809
v 0.04029515 -0.01223400 -0.04585788
v 0.03601133 -0.00792147 -0.04563260
v 0.01869899 -0.04245225 -0.03693736
v 0.02301823 -0.03946196 -0.03844463
v 0.02737286 -0.03719381 -0.03950599
v 0.02737286 -0.03935008 -0.03824954
v 0.03169210 -0.03672594 -0.03935270
v 0.04029515 -0.03266768 -0.03978236
v 0.04295043 -0.02762283 -0.04337286
v 0.04581811 -0.02648367 -0.04214893
v 0.04695104 -0.02758215 -0.03927142
v 0.04857960 -0.02087941 -0.04102254
v -0.11512647 0.03093202 -0.04618302
v -0.11806497 0.03386129 -0.04587181
v 0.01923004 0.00452792 -0.04607386
v 0.02305362 0.00071377 -0.04615283
v 0.02737286 -0.00360894 -0.04622250
v 0.03169210 -0.00792147 -0.04628985
v 0.01009591 0.00934901 -0.04636417
v 0.03601133 -0.01223400 -0.04633398
v 0.01441515 0.00502630 -0.04637346
v 0.00145747 0.01366154 -0.04637346
v -0.10216877 0.02229678 -0.04636649
v -0.11080724 0.02661948 -0.04619463
v -0.00286177 0.01366154 -0.04637346
v -0.01150024 0.00502630 -0.04637346
v -0.01150024 -0.00360894 -0.04637346
v -0.00286177 -0.01223400 -0.04637346
v -0.05897642 -0.01223400 -0.04636649
v -0.31310318 0.03956725 -0.03637301
v 0.01009591 -0.04245225 -0.03693736
v -0.03313182 -0.03728535 -0.03950599
v -0.02877719 -0.03731586 -0.03950599
v -0.02003251 -0.03731586 -0.03950831
v 0.01441515 -0.03946196 -0.03844927
v -0.31310318 0.00073411 -0.03605483
v -0.05469259 -0.02086924 -0.04548397
v -0.04601871 -0.02518178 -0.04456660
v -0.04169948 -0.02816190 -0.04353079
v -0.04169948 -0.03031817 -0.04256697
v -0.03738025 -0.03381702 -0.04103880
v 0.04751748 -0.02087941 -0.04390006
v 0.04461439 -0.02087941 -0.04517508
v 0.04029515 -0.01655671 -0.04624805
v 0.04029515 -0.01588542 -0.04618999
v 0.03965789 -0.01588542 -0.04626198
v 0.01869899 -0.03946196 -0.03844927
v 0.02301823 -0.03731586 -0.03950831
v 0.02737286 -0.03381702 -0.04107596
v 0.03601133 -0.02815173 -0.04353311
v 0.04029515 -0.02793814 -0.04350292
v 0.04447278 -0.02510041 -0.04391399
v 0.04709264 -0.02359509 -0.04349131
v 0.04029515 -0.02519195 -0.04457356
v 0.04751748 -0.02510041 -0.04083210
v -0.31310318 0.00503647 -0.03637069
v -0.31310318 0.01965230 -0.03637301
v 0.01869899 0.00071377 -0.04636649
v 0.01491080 0.00452792 -0.04637346
v 0.01009591 -0.01223400 -0.04637114
v 0.01441515 0.00071377 -0.04637346
v -0.06761489 -0.00792147 -0.04632004
v -0.06333106 -0.01223400 -0.04629218
v -0.09353030 0.01366154 -0.04630611
v 0.00577668 -0.01223400 -0.04637346
v -0.00286177 -0.01588542 -0.04627359
v -0.05469259 -0.01655671 -0.04625502
v -0.03313182 -0.03381702 -0.04107596
v -0.02445795 -0.03381702 -0.04108525
v -0.02003251 -0.03389839 -0.04105041
v -0.05897642 -0.01655671 -0.04611335
v -0.05033795 -0.02086924 -0.04569066
v -0.03313182 -0.02086924 -0.04570460
v -0.02003251 -0.02087941 -0.04571157
v -0.01150024 -0.02519195 -0.04458518
v -0.02003251 -0.02526315 -0.04455499
v -0.03738025 -0.03031817 -0.04259949
v 0.01009591 -0.02519195 -0.04459679
v 0.03601133 -0.02519195 -0.04460608
v 0.01009591 -0.02817207 -0.04353311
v -0.02003251 -0.02821276 -0.04351221
v 0.04029515 -0.02087941 -0.04573014
v 0.00577668 -0.01655671 -0.04625502
v 0.02301823 -0.03381702 -0.04108525
v 0.03169210 -0.02817207 -0.04353311
v 0.01009591 -0.00792147 -0.04637346
v 0.03601133 -0.02087941 -0.04573014
v 0.01441515 -0.02087941 -0.04572550
v -0.00286177 -0.02087941 -0.04572085
v -0.02003251 -0.03031817 -0.04260181
f 1 2 3
f 1 3 4
f 1 4 5
f 1 5 6
f 1 6 7
f 1 7 8
f 1 8 2
f 2 8 9
f 2 9 10
f 2 10 3
f 3 10 11
f 3 11 13
f 3 13 4
f 4 12 5
f 4 13 14
f 4 14 15
f 4 15 16
f 4 16 17
f 4 17 12
f 5 12 18
f 5 18 6
f 6 18 19
f 6 19 7
f 7 20 8
f 7 19 46
f 7 46 20
f 8 20 49
f 8 49 79
f 8 79 117
f 8 117 166
f 8 166 206
f 8 206 233
f 8 233 232
f 8 232 212
f 8 212 172
f 8 172 124
f 8 124 123
f 8 123 84
f 8 84 82
f 8 82 51
f 8 51 22
f 8 22 21
f 8 21 9
f 9 21 22
f 9 22 10
f 10 22 23
f 10 23 24
f 10 24 11
f 11 24 13
f 12 17 25
f 12 25 26
f 12 26 27
f 12 27 28
f 12 28 29
f 12 29 30
f 12 30 31
f 12 31 32
f 12 32 18
f 13 24 14
f 14 24 15
f 15 33 34
f 15 34 35
f 15 35 36
f 15 36 37
f 15 37 38
f 15 38 39
f 15 39 16
f 15 24 33
f 16 39 38
f 16 38 40
f 16 40 41
f 16 41 42
f 16 42 17
f 17 42 25
f 18 32 19
f 19 43 44
f 19 44 45
f 19 45 46
f 19 32 47
f 19 47 48
f 19 48 43
f 20 46 49
f 22 50 23
f 22 51 52
f 22 52 50
f 23 50 24
f 24 50 53
f 24 53 33
f 25 42 54
f 25 54 26
f 26 54 27
f 27 54 55
f 27 55 28
f 28 55 56
f 28 56 57
f 28 57 29
f 29 58 30
f 29 57 58
f 30 58 59
f 30 59 31
f 31 59 32
f 32 60 47
f 32 59 60
f 33 53 81
f 33 81 61
f 33 61 63
f 33 63 34
f 34 62 35
f 34 63 94
f 34 94 62
f 35 62 64
f 35 64 36
f 36 65 66
f 36 66 67
f 36 67 37
f 36 64 65
f 37 67 40
f 37 40 38
f 40 67 68
f 40 68 69
f 40 69 70
f 40 70 41
f 41 70 71
f 41 71 72
f 41 72 42
f 42 72 54
f 43 73 74
f 43 74 44
f 43 48 75
f 43 75 76
f 43 76 73
f 44 74 45
f 45 74 77
f 45 77 46
f 46 77 49
f 47 60 78
f 47 78 48
f 48 78 75
f 49 77 79
f 50 52 80
f 50 80 81
f 50 81 53
f 51 82 52
f 52 83 80
f 52 82 84
f 52 84 83
f 54 72 55
f 55 72 85
f 55 85 56
f 56 85 57
f 57 86 87
f 57 87 58
f 57 85 88
f 57 88 86
f 58 87 89
f 58 89 59
f 59 89 90
f 59 90 91
f 59 91 60
f 60 91 78
f 61 92 93
f 61 93 63
f 61 81 92
f 62 94 95
f 62 95 96
f 62 96 64
f 63 93 97
f 63 97 94
f 64 96 65
f 65 96 98
f 65 98 66
f 66 68 67
f 66 98 99
f 66 99 68
f 68 99 100
f 68 100 69
f 69 100 101
f 69 101 102
f 69 102 70
f 70 102 71
f 71 102 103
f 71 103 72
f 72 103 85
f 73 76 104
f 73 104 74
f 74 105 106
f 74 106 79
f 74 79 77
f 74 104 107
f 74 107 105
f 75 78 108
f 75 108 76
f 76 109 110
f 76 110 111
f 76 111 112
f 76 112 113
f 76 113 114
f 76 114 104
f 76 108 109
f 78 91 115
f 78 115 116
f 78 116 108
f 79 106 118
f 79 118 111
f 79 111 117
f 80 83 119
f 80 119 120
f 80 120 81
f 81 120 121
f 81 121 92
f 83 122 119
f 83 84 123
f 83 123 124
f 83 124 122
f 85 103 88
f 86 88 125
f 86 125 126
f 86 126 127
f 86 127 128
f 86 128 90
f 86 90 87
f 87 90 89
f 88 103 129
f 88 129 125
f 90 130 131
f 90 131 132
f 90 132 91
f 90 128 127
f 90 127 130
f 91 132 115
f 92 121 133
f 92 133 134
f 92 134 93
f 93 134 135
f 93 135 97
f 94 97 136
f 94 136 137
f 94 137 95
f 95 138 96
f 95 137 138
f 96 139 140
f 96 140 98
f 96 138 139
f 97 135 141
f 97 141 136
f 98 140 139
f 98 139 142
f 98 142 99
f 99 142 143
f 99 143 144
f 99 144 145
f 99 145 100
f 100 145 101
f 101 145 146
f 101 146 103
f 101 103 102
f 103 146 129
f 104 114 107
f 105 107 147
f 105 147 106
f 106 147 118
f 107 114 113
f 107 113 147
f 108 116 148
f 108 148 149
f 108 149 109
f 109 149 150
f 109 150 151
f 109 151 152
f 109 152 110
f 110 152 153
f 110 153 154
f 110 154 111
f 111 154 155
f 111 155 117
f 111 118 147
f 111 147 113
f 111 113 112
f 115 132 156
f 115 156 157
f 115 157 158
f 115 158 159
f 115 159 160
f 115 160 116
f 116 160 161
f 116 161 162
f 116 162 163
f 116 163 164
f 116 164 165
f 116 165 148
f 117 155 151
f 117 151 150
f 117 150 166
f 119 167 168
f 119 168 120
f 119 122 167
f 120 168 121
f 121 168 133
f 122 124 169
f 122 169 170
f 122 170 171
f 122 171 167
f 124 172 173
f 124 173 174
f 124 174 169
f 125 129 146
f 125 146 175
f 125 175 176
f 125 176 126
f 126 177 178
f 126 178 127
f 126 176 177
f 127 178 131
f 127 131 130
f 131 156 132
f 131 178 156
f 133 168 179
f 133 179 134
f 134 179 180
f 134 180 181
f 134 181 182
f 134 182 135
f 135 182 183
f 135 183 141
f 136 141 137
f 137 184 185
f 137 185 186
f 137 186 187
f 137 187 139
f 137 139 138
f 137 141 184
f 139 187 142
f 141 183 185
f 141 185 184
f 142 187 143
f 143 187 188
f 143 188 144
f 144 188 145
f 145 188 146
f 146 188 175
f 148 165 149
f 149 165 189
f 149 189 190
f 149 190 150
f 150 190 189
f 150 189 166
f 151 155 154
f 151 154 152
f 152 154 153
f 156 178 157
f 157 178 177
f 157 177 158
f 158 177 159
f 159 177 191
f 159 191 160
f 160 191 192
f 160 192 161
f 161 192 193
f 161 193 194
f 161 194 162
f 162 195 163
f 162 194 196
f 162 196 195
f 163 195 197
f 163 197 198
f 163 198 164
f 164 198 201
f 164 201 165
f 165 199 200
f 165 200 189
f 165 201 202
f 165 202 203
f 165 203 204
f 165 204 205
f 165 205 199
f 166 189 206
f 167 207 179
f 167 179 168
f 167 171 207
f 169 174 208
f 169 208 170
f 170 208 209
f 170 209 210
f 170 210 211
f 170 211 171
f 171 211 207
f 172 212 213
f 172 213 214
f 172 214 173
f 173 214 215
f 173 215 216
f 173 216 217
f 173 217 208
f 173 208 174
f 175 188 218
f 175 218 176
f 176 218 219
f 176 219 220
f 176 220 221
f 176 221 177
f 177 221 222
f 177 222 196
f 177 196 194
f 177 194 193
f 177 193 192
f 177 192 191
f 179 207 211
f 179 211 223
f 179 223 180
f 180 223 224
f 180 224 181
f 181 183 182
f 181 224 225
f 181 225 226
f 181 226 227
f 181 227 183
f 183 227 185
f 185 228 229
f 185 229 186
f 185 227 230
f 185 230 228
f 186 229 187
f 187 229 231
f 187 231 188
f 188 231 229
f 188 229 218
f 189 200 232
f 189 232 233
f 189 233 206
f 195 196 197
f 196 234 235
f 196 235 197
f 196 222 236
f 196 236 237
f 196 237 234
f 197 235 237
f 197 237 262
f 197 262 241
f 197 241 204
f 197 204 203
f 197 203 202
f 197 202 201
f 197 201 198
f 199 205 238
f 199 238 239
f 199 239 240
f 199 240 232
f 199 232 200
f 204 241 242
f 204 242 243
f 204 243 205
f 205 243 239
f 205 239 238
f 208 244 209
f 208 217 244
f 209 244 245
f 209 245 246
f 209 246 210
f 210 246 224
f 210 224 223
f 210 223 211
f 212 232 239
f 212 239 247
f 212 247 213
f 213 247 248
f 213 248 214
f 214 248 249
f 214 249 250
f 214 250 251
f 214 251 252
f 214 252 215
f 215 253 244
f 215 244 216
f 215 252 251
f 215 251 254
f 215 254 255
f 215 255 256
f 215 256 257
f 215 257 253
f 216 244 217
f 218 229 219
f 219 228 230
f 219 230 258
f 219 258 220
f 219 229 228
f 220 222 221
f 220 258 259
f 220 259 241
f 220 241 236
f 220 236 222
f 224 246 260
f 224 260 225
f 225 260 226
f 226 260 261
f 226 261 255
f 226 255 230
f 226 230 227
f 230 255 258
f 232 240 239
f 234 237 235
f 236 241 262
f 236 262 237
f 239 243 247
f 241 259 242
f 242 259 243
f 243 249 248
f 243 248 247
f 243 259 258
f 243 258 263
f 243 263 264
f 243 264 265
f 243 265 250
f 243 250 249
f 244 253 245
f 245 253 266
f 245 266 246
f 246 266 256
f 246 256 261
f 246 261 260
f 250 265 251
f 251 265 254
f 253 257 266
f 254 265 255
f 255 265 264
f 255 264 263
f 255 263 258
f 255 261 256
f 256 266 257

