# https://github.com/mikedh/trimesh
v -0.02446809 0.03956831 -0.04457387
v -0.02875611 0.04218488 -0.04344887
v -0.02446809 0.04217303 -0.04344887
v -0.02154989 0.04202109 -0.04335142
v -0.02012054 0.03986430 -0.04419296
v -0.02012054 0.03956831 -0.04429926
v -0.09825752 0.03464893 0.02884368
v -0.11514154 0.03464893 0.02837419
v -0.07193393 0.03956831 -0.04455615
v -0.08056950 0.03958409 -0.04454730
v -0.02875611 0.04434364 -0.04189866
v -0.06761615 0.04216514 -0.04344001
v -0.11805976 0.04428247 -0.04191638
v -0.08920506 0.04430023 -0.04191638
v -0.02875611 0.04693850 -0.03973724
v -0.01866144 0.04149225 -0.04276678
v -0.01681521 0.03956831 -0.04354631
v -0.01916764 0.03956831 -0.04413981
v -0.02446809 0.04651820 -0.03933862
v -0.02223477 0.04609591 -0.03890456
v -0.01985255 0.03956831 -0.04427269
v -0.01583253 0.03464893 0.03458385
v -0.11746420 0.03464893 0.02980923
v -0.31310441 0.04126335 -0.02651181
v -0.11805976 0.03956831 -0.04452958
v -0.11805976 0.04693061 -0.03976381
v -0.09352284 0.04693061 -0.03976381
v -0.03310366 0.04695824 -0.03973724
v -0.11805976 0.04212370 -0.04340457
v -0.30035953 0.05000103 -0.03420966
v -0.02872632 0.04926697 -0.03643310
v -0.03310366 0.04911700 -0.03712404
v -0.03012589 0.05055552 -0.03482975
v -0.01741076 0.04228748 -0.03988783
v -0.01508809 0.03956831 -0.04190752
v -0.01056186 0.03464893 0.03685158
v -0.01121698 0.03464893 0.03630236
v -0.02726722 0.05022993 -0.03402364
v -0.02625478 0.05062853 -0.03114470
v -0.02187742 0.04644518 -0.03669885
v -0.11802998 0.03464893 0.03274133
v -0.30035953 0.04150409 0.03634666
v -0.31310441 0.04300971 0.02373244
v -0.31310441 0.05332600 -0.02651181
v -0.30035953 0.04214738 -0.03636223
v -0.11802998 0.03464893 0.04572759
v -0.30035953 0.04390755 -0.03634451
v -0.30035953 0.04745353 -0.03553841
v -0.30035953 0.04785016 -0.03544097
v -0.11805976 0.04908740 -0.03710633
v -0.30035953 0.05150664 -0.03204824
v -0.11805976 0.05064629 -0.03494490
v -0.03310366 0.05064037 -0.03497148
v -0.03310366 0.05179474 -0.03237600
v -0.02872632 0.05109225 -0.03250001
v -0.01970366 0.04472251 -0.03669885
v -0.01711299 0.04256374 -0.03669885
v -0.01482009 0.03956831 -0.04112799
v -0.00934097 0.03464893 0.03895099
v -0.02875611 0.05212230 -0.02806201
v -0.02601655 0.05082783 -0.02806201
v -0.02154989 0.04678459 -0.03237600
v -0.30035953 0.04390755 0.03634666
v -0.11514154 0.03464893 0.04589590
v -0.11802998 0.03526854 0.04575416
v -0.31310441 0.05373053 0.02373244
v -0.30035953 0.05308526 -0.02804429
v -0.31310441 0.05372855 -0.02373916
v -0.03742145 0.05310500 -0.02806201
v -0.11805976 0.05167437 -0.03237600
v -0.03742145 0.05179277 -0.03237600
v -0.03310366 0.05303198 -0.02806201
v -0.01714277 0.04255980 0.03669213
v -0.00889431 0.03464893 0.04101498
v -0.01434364 0.03956831 -0.03797444
v -0.02595698 0.05098175 -0.00647434
v -0.02595698 0.05097978 0.01079047
v -0.02875611 0.05241238 -0.02373916
v -0.03310366 0.05351544 -0.02373916
v -0.02595698 0.05092453 -0.02373916
v -0.02595698 0.05095018 -0.01942517
v -0.02595698 0.05097188 -0.01511118
v -0.02595698 0.05097978 -0.01079719
v -0.30035953 0.04785016 0.03543425
v -0.11514154 0.03526854 0.04584275
v -0.11079398 0.03464893 0.04591361
v -0.11802998 0.03958409 0.04455829
v -0.31310441 0.05408374 0.01941845
v -0.30035953 0.04806524 0.03531909
v -0.30035953 0.05000300 0.03421180
v -0.30035953 0.05151059 0.03204152
v -0.30035953 0.05308526 0.02804643
v -0.30035953 0.05315236 0.02762123
v -0.03742145 0.05309710 0.02805529
v -0.30035953 0.05373053 0.02373244
v -0.31310441 0.05409164 -0.01941631
v -0.27918749 0.05372855 -0.02373916
v -0.03742145 0.05364370 -0.02373916
v -0.24896302 0.05372066 -0.02373916
v -0.02157965 0.04678459 0.03237814
v -0.01970366 0.04472251 0.03669213
v -0.01741076 0.04228551 0.03988112
v -0.01062143 0.03464893 0.04409766
v -0.01291432 0.03810019 0.04101498
v -0.01330142 0.03771343 0.04345101
v -0.02875611 0.05279519 -0.00216035
v -0.02875611 0.05279519 0.00099320
v -0.02595698 0.05096991 0.01510446
v -0.02875611 0.05253867 -0.01942517
v -0.03310366 0.05401468 -0.01511118
v -0.03310366 0.05420214 -0.01079719
v -0.03742145 0.05422385 -0.01511118
v -0.03742145 0.05447840 -0.01079719
v -0.03515834 0.05471322 -0.00500387
v -0.02875611 0.05265114 -0.01511118
v -0.02875611 0.05272613 -0.01079719
v -0.12809488 0.04217501 0.04328270
v -0.02015033 0.03526854 0.04586046
v -0.02074588 0.03464893 0.04592247
v -0.12374732 0.04217501 0.04339786
v -0.02446809 0.03958409 0.04455829
v -0.02878589 0.04217896 0.04344215
v -0.31310441 0.05436592 0.01510446
v -0.27486972 0.05372855 0.02373244
v -0.30080620 0.05407980 0.01941845
v -0.12809488 0.04421933 0.04191852
v -0.13244244 0.04694640 0.03972167
v -0.13244244 0.04910122 0.03712618
v -0.14107801 0.05064629 0.03495590
v -0.14539579 0.05166648 0.03237814
v -0.14107801 0.05167437 0.03237814
v -0.05901036 0.05177106 0.03237814
v -0.05037479 0.05178093 0.03237814
v -0.03310366 0.05178093 0.03237814
v -0.03310366 0.05302607 0.02805529
v -0.03742145 0.05364370 0.02374130
v -0.31310441 0.05433040 -0.01578441
v -0.30509418 0.05408769 -0.01941631
v -0.02184767 0.04645308 0.03669213
v -0.02595698 0.05094820 0.01942731
v -0.02595698 0.05092255 0.02374130
v -0.02601655 0.05083178 0.02805529
v -0.02220498 0.04611170 0.03894213
v -0.01169343 0.03464893 0.04452286
v -0.01172319 0.03519355 0.04430140
v -0.01869120 0.04149028 0.04276892
v -0.01583253 0.03853036 0.04395593
v -0.03277610 0.05434619 -0.00216035
v -0.03277610 0.05434816 0.00099320
v -0.03277610 0.05434816 0.00215364
v -0.02878589 0.05272021 0.01079047
v -0.03492010 0.05475466 -0.00216035
v -0.31310441 0.05437184 -0.01510232
v -0.03742145 0.05462837 -0.00726273
v -0.31310441 0.05453562 -0.01146156
v -0.03742145 0.05471717 -0.00511017
v -0.03742145 0.05480794 -0.00216035
v -0.02015033 0.03464893 0.04592247
v -0.01583253 0.03464893 0.04562129
v -0.01583253 0.03526854 0.04550613
v -0.02015033 0.03986430 0.04418625
v -0.12380688 0.04430220 0.04191852
v -0.02157965 0.04201912 0.04335357
v -0.02446809 0.04217106 0.04344215
v -0.02878589 0.04433772 0.04190081
v -0.10647620 0.04429826 0.04192738
v -0.31310441 0.05457312 0.01078161
v -0.03742145 0.05421793 0.01510446
v -0.03742145 0.05447643 0.01079047
v -0.12809488 0.04694442 0.03975710
v -0.12380688 0.04694245 0.03976596
v -0.06332815 0.04910911 0.03714390
v -0.06761615 0.05065419 0.03498248
v -0.03310366 0.05063840 0.03497362
v -0.03015567 0.05055552 0.03482303
v -0.02875611 0.05109028 0.03248444
v -0.05901036 0.05065419 0.03498248
v -0.02878589 0.05212033 0.02805529
v -0.03310366 0.05351544 0.02374130
v -0.02625478 0.05063051 0.03111140
v -0.02878589 0.05265114 0.01510446
v -0.02878589 0.05253867 0.01942731
v -0.02878589 0.05241040 0.02374130
v -0.02729700 0.05022204 0.03399921
v -0.02446809 0.04652806 0.03936733
v -0.03492010 0.05475466 0.00215364
v -0.03346100 0.05437579 0.00644991
v -0.03310366 0.05420017 0.01079047
v -0.03673655 0.05479412 0.00100206
v -0.31310441 0.05456325 -0.01077947
v -0.03742145 0.05480794 0.00215364
v -0.31310441 0.05465205 -0.00759935
v -0.31310441 0.05478820 -0.00219579
v -0.31310441 0.05479412 0.00136525
v -0.02878589 0.04693850 0.03973938
v -0.03310366 0.04695824 0.03974824
v -0.31310441 0.05467573 0.00714971
v -0.03742145 0.05463232 0.00726487
v -0.03742145 0.05471914 0.00511231
v -0.03515834 0.05471125 0.00500601
v -0.05469258 0.04910911 0.03714390
v -0.03310366 0.04911700 0.03712618
v -0.02875611 0.04926105 0.03643524
v -0.03310366 0.05401468 0.01510446
v -0.31310441 0.05479412 0.00220679
f 1 2 3
f 1 3 4
f 1 4 5
f 1 5 6
f 1 6 7
f 1 7 8
f 1 8 9
f 1 9 10
f 1 10 2
f 2 11 3
f 2 10 12
f 2 12 13
f 2 13 14
f 2 14 11
f 3 11 15
f 3 15 4
f 4 16 17
f 4 17 18
f 4 18 5
f 4 15 19
f 4 19 20
f 4 20 16
f 5 18 21
f 5 21 6
f 6 21 22
f 6 22 7
f 7 22 37
f 7 37 36
f 7 36 59
f 7 59 74
f 7 74 103
f 7 103 144
f 7 144 159
f 7 159 158
f 7 158 119
f 7 119 86
f 7 86 64
f 7 64 46
f 7 46 41
f 7 41 23
f 7 23 8
f 8 23 24
f 8 24 25
f 8 25 9
f 9 25 10
f 10 25 12
f 11 14 26
f 11 26 27
f 11 27 28
f 11 28 15
f 12 25 29
f 12 29 13
f 13 29 30
f 13 30 26
f 13 26 14
f 15 31 19
f 15 28 32
f 15 32 33
f 15 33 31
f 16 34 35
f 16 35 17
f 16 20 34
f 17 35 36
f 17 36 37
f 17 37 22
f 17 22 18
f 18 22 21
f 19 31 33
f 19 33 38
f 19 38 20
f 20 38 39
f 20 39 40
f 20 40 34
f 23 41 24
f 24 42 43
f 24 43 66
f 24 66 88
f 24 88 123
f 24 123 167
f 24 167 197
f 24 197 205
f 24 205 194
f 24 194 193
f 24 193 192
f 24 192 190
f 24 190 155
f 24 155 153
f 24 153 137
f 24 137 96
f 24 96 68
f 24 68 44
f 24 44 45
f 24 45 25
f 24 41 46
f 24 46 42
f 25 45 47
f 25 47 48
f 25 48 49
f 25 49 29
f 26 30 50
f 26 50 32
f 26 32 28
f 26 28 27
f 29 49 30
f 30 49 44
f 30 44 51
f 30 51 52
f 30 52 50
f 32 53 33
f 32 50 52
f 32 52 53
f 33 53 54
f 33 54 55
f 33 55 38
f 34 40 56
f 34 56 57
f 34 57 58
f 34 58 35
f 35 58 59
f 35 59 36
f 38 55 39
f 39 55 60
f 39 60 61
f 39 61 62
f 39 62 40
f 40 62 56
f 42 63 66
f 42 66 43
f 42 46 64
f 42 64 65
f 42 65 63
f 44 67 51
f 44 49 48
f 44 48 47
f 44 47 45
f 44 68 69
f 44 69 67
f 51 67 70
f 51 70 52
f 52 70 71
f 52 71 54
f 52 54 53
f 54 72 55
f 54 71 67
f 54 67 69
f 54 69 72
f 55 72 60
f 56 62 57
f 57 73 74
f 57 74 75
f 57 75 58
f 57 62 76
f 57 76 77
f 57 77 73
f 58 75 74
f 58 74 59
f 60 78 61
f 60 72 79
f 60 79 78
f 61 78 80
f 61 80 62
f 62 80 81
f 62 81 82
f 62 82 83
f 62 83 76
f 63 84 66
f 63 65 84
f 64 85 65
f 64 86 85
f 65 85 87
f 65 87 84
f 66 84 89
f 66 89 90
f 66 90 91
f 66 91 92
f 66 92 93
f 66 93 94
f 66 94 95
f 66 95 88
f 67 71 70
f 68 96 97
f 68 97 69
f 69 98 72
f 69 97 99
f 69 99 98
f 72 98 79
f 73 77 100
f 73 100 101
f 73 101 102
f 73 102 74
f 74 102 104
f 74 104 105
f 74 105 103
f 76 83 106
f 76 106 107
f 76 107 77
f 77 107 108
f 77 108 100
f 78 109 80
f 78 79 110
f 78 110 111
f 78 111 109
f 79 98 112
f 79 112 113
f 79 113 114
f 79 114 110
f 80 109 115
f 80 115 116
f 80 116 106
f 80 106 81
f 81 106 82
f 82 106 83
f 84 87 117
f 84 117 89
f 85 86 118
f 85 118 87
f 86 119 118
f 87 120 117
f 87 118 121
f 87 121 122
f 87 122 120
f 88 95 124
f 88 124 125
f 88 125 123
f 89 117 90
f 90 117 120
f 90 120 126
f 90 126 127
f 90 127 128
f 90 128 129
f 90 129 91
f 91 129 130
f 91 130 92
f 92 130 131
f 92 131 132
f 92 132 133
f 92 133 94
f 92 94 93
f 94 133 134
f 94 134 135
f 94 135 136
f 94 136 124
f 94 124 95
f 96 137 138
f 96 138 98
f 96 98 99
f 96 99 97
f 98 138 112
f 100 139 101
f 100 108 140
f 100 140 141
f 100 141 142
f 100 142 139
f 101 139 102
f 102 105 104
f 102 139 143
f 102 143 105
f 103 105 145
f 103 145 144
f 105 143 146
f 105 146 147
f 105 147 145
f 106 116 148
f 106 148 149
f 106 149 150
f 106 150 107
f 107 141 140
f 107 140 108
f 107 150 151
f 107 151 141
f 109 111 148
f 109 148 115
f 110 114 111
f 111 114 152
f 111 152 148
f 112 138 137
f 112 137 153
f 112 153 113
f 113 154 114
f 113 153 155
f 113 155 154
f 114 154 156
f 114 156 157
f 114 157 152
f 115 148 116
f 118 119 158
f 118 158 159
f 118 159 160
f 118 160 161
f 118 161 121
f 120 162 126
f 120 122 162
f 121 161 163
f 121 163 164
f 121 164 122
f 122 164 165
f 122 165 166
f 122 166 162
f 123 125 168
f 123 168 169
f 123 169 167
f 124 136 125
f 125 136 168
f 126 162 127
f 127 162 170
f 127 170 128
f 128 170 171
f 128 171 172
f 128 172 173
f 128 173 129
f 129 131 130
f 129 173 133
f 129 133 132
f 129 132 131
f 133 173 177
f 133 177 134
f 134 174 175
f 134 175 176
f 134 176 135
f 134 177 174
f 135 178 179
f 135 179 136
f 135 176 178
f 136 179 168
f 139 142 180
f 139 180 143
f 141 151 181
f 141 181 182
f 141 182 142
f 142 182 183
f 142 183 178
f 142 178 180
f 143 180 184
f 143 184 185
f 143 185 163
f 143 163 146
f 144 145 160
f 144 160 159
f 145 147 160
f 146 163 147
f 147 163 161
f 147 161 160
f 148 152 149
f 149 152 186
f 149 186 150
f 150 186 187
f 150 187 188
f 150 188 182
f 150 182 181
f 150 181 151
f 152 157 189
f 152 189 186
f 154 155 156
f 155 190 156
f 156 190 157
f 157 191 189
f 157 190 192
f 157 192 193
f 157 193 194
f 157 194 205
f 157 205 191
f 162 171 170
f 162 166 171
f 163 185 195
f 163 195 164
f 164 195 165
f 165 195 196
f 165 196 171
f 165 171 166
f 167 169 198
f 167 198 199
f 167 199 191
f 167 191 197
f 168 179 169
f 169 179 200
f 169 200 198
f 171 196 172
f 172 196 201
f 172 201 177
f 172 177 173
f 174 202 175
f 174 177 202
f 175 202 195
f 175 195 203
f 175 203 185
f 175 185 184
f 175 184 176
f 176 184 180
f 176 180 178
f 177 201 202
f 178 183 179
f 179 183 204
f 179 204 200
f 182 188 183
f 183 188 204
f 185 203 195
f 186 189 191
f 186 191 200
f 186 200 188
f 186 188 187
f 188 200 204
f 191 199 200
f 191 205 197
f 195 202 196
f 196 202 201
f 198 200 199

