mtllib material.mtl
usemtl motor
v -0.32838000 0.05113400 -0.02608800
v -0.33136900 0.05147100 -0.02681500
v -0.33136900 0.05147100 -0.02681500
v -0.33136900 0.05147100 -0.02681500
v -0.33136900 0.05147100 -0.02681500
v -0.33424400 0.05244300 -0.02758300
v -0.33424400 0.05244300 -0.02758300
v -0.32880600 0.05141500 -0.02324800
v -0.32880600 0.05141500 -0.02324800
v -0.32880600 0.05141500 -0.02324800
v -0.33222700 0.05193800 -0.02099700
v -0.33222700 0.05193800 -0.02099700
v -0.33222700 0.05193800 -0.02099700
v -0.33222700 0.05193800 -0.02099700
v -0.33222700 0.05193800 -0.02099700
v -0.33222700 0.05193800 -0.02099700
v -0.33222700 0.05193800 -0.02099700
v -0.33222700 0.05193800 -0.02099700
v -0.33222700 0.05193800 -0.02099700
v -0.32919400 0.05166500 -0.02039900
v -0.32919400 0.05166500 -0.02039900
v -0.33470800 0.05265400 -0.02460800
v -0.33470800 0.05265400 -0.02460800
v -0.33470800 0.05265400 -0.02460800
v -0.33470800 0.05265400 -0.02460800
v -0.33470800 0.05265400 -0.02460800
v -0.33513000 0.05283900 -0.02162300
v -0.33513000 0.05283900 -0.02162300
v -0.33513000 0.05283900 -0.02162300
v -0.33513000 0.05283900 -0.02162300
v -0.33080500 0.05228900 -0.01022900
v -0.33080500 0.05228900 -0.01022900
v -0.33080500 0.05228900 -0.01022900
v -0.33010900 0.05202700 -0.01535200
v -0.33010900 0.05202700 -0.01535200
v -0.33080200 0.05228800 -0.01025700
v -0.33080200 0.05228800 -0.01025700
v -0.33080200 0.05228800 -0.01025700
v -0.33010900 0.05202700 0.01534700
v -0.33010900 0.05202700 0.01534700
v -0.33010900 0.05202700 0.01534700
v -0.32919400 0.05166500 0.02039800
v -0.32919400 0.05166500 0.02039800
v -0.33138400 0.05249900 -0.00000100
v -0.33138400 0.05249900 -0.00000100
v -0.33138400 0.05249900 -0.00000100
v -0.33080500 0.05228900 0.01022800
v -0.33080500 0.05228900 0.01022800
v -0.33080400 0.05228900 0.01024500
v -0.33080400 0.05228900 0.01024500
v -0.33358400 0.05254000 0.01053000
v -0.33358400 0.05254000 0.01053000
v -0.33358400 0.05254000 0.01053000
v -0.33358400 0.05254000 0.01053000
v -0.33358400 0.05254000 0.01053000
v -0.33358400 0.05254000 0.01053000
v -0.33358400 0.05254000 0.01053000
v -0.33358400 0.05254000 0.01053000
v -0.33626600 0.05330600 0.01083200
v -0.33626600 0.05330600 0.01083200
v -0.33626600 0.05330600 0.01083200
v -0.33626600 0.05330600 0.01083200
v -0.33626600 0.05330600 0.01083200
v -0.33513000 0.05283900 0.02162100
v -0.33513000 0.05283900 0.02162100
v -0.33513000 0.05283900 0.02162100
v -0.33513000 0.05283900 0.02162100
v -0.33513000 0.05283900 0.02162100
v -0.33222700 0.05193800 0.02099600
v -0.33222700 0.05193800 0.02099600
v -0.33222700 0.05193800 0.02099600
v -0.33222700 0.05193800 0.02099600
v -0.33222700 0.05193800 0.02099600
v -0.33222700 0.05193800 0.02099600
v -0.33222700 0.05193800 0.02099600
v -0.33222700 0.05193800 0.02099600
v -0.33667300 0.05346200 -0.00000100
v -0.33667300 0.05346200 -0.00000100
v -0.33667300 0.05346200 -0.00000100
v -0.33667300 0.05346200 -0.00000100
v -0.33667300 0.05346200 -0.00000100
v -0.33667300 0.05346200 -0.00000100
v -0.33407200 0.05274100 -0.00000100
v -0.33407200 0.05274100 -0.00000100
v -0.33407200 0.05274100 -0.00000100
v -0.33407200 0.05274100 -0.00000100
v -0.33407200 0.05274100 -0.00000100
v -0.33407200 0.05274100 -0.00000100
v -0.33800800 0.05393500 0.02817100
v -0.33800800 0.05393500 0.02817100
v -0.33800800 0.05393500 0.02817100
v -0.33800800 0.05393500 0.02817100
v -0.33800800 0.05393500 0.02817100
v -0.34397500 0.05536300 0.02817100
v -0.34397500 0.05536300 0.02817100
v -0.35009800 0.05574900 0.02817100
v -0.35009800 0.05574900 0.02817100
v -0.35619800 0.05508300 0.02817100
v -0.35619800 0.05508300 0.02817100
v -0.36209400 0.05338400 0.02817100
v -0.36209400 0.05338400 0.02817100
v -0.36761200 0.05070300 0.02817100
v -0.36761200 0.05070300 0.02817100
v -0.37259100 0.04711700 0.02817100
v -0.37259100 0.04711700 0.02817100
v -0.37688400 0.04273300 0.02817100
v -0.37688400 0.04273300 0.02817100
v -0.38036400 0.03768000 0.02817100
v -0.38036400 0.03768000 0.02817100
v -0.38292900 0.03210600 0.02817100
v -0.38292900 0.03210600 0.02817100
v -0.38292900 0.03210600 0.02817100
v -0.38450400 0.02617600 0.02817100
v -0.38450400 0.02617600 0.02817100
v -0.38501700 0.02130700 0.02817100
v -0.38501700 0.02130700 0.02817100
v -0.38504100 0.02006400 0.02817100
v -0.38504100 0.02006400 0.02817100
v -0.38504100 0.02006400 0.02817100
v -0.38504100 0.01999800 0.02817100
v -0.38504100 0.01999800 0.02817100
v -0.38504100 0.01999800 0.02817100
v -0.33626500 0.05330600 -0.01084300
v -0.33626500 0.05330600 -0.01084300
v -0.33626500 0.05330600 -0.01084300
v -0.33626500 0.05330600 -0.01084300
v -0.33626500 0.05330600 -0.01084300
v -0.33358400 0.05254000 -0.01053100
v -0.33358400 0.05254000 -0.01053100
v -0.33358400 0.05254000 -0.01053100
v -0.33358400 0.05254000 -0.01053100
v -0.33358400 0.05254000 -0.01053100
v -0.33358400 0.05254000 -0.01053100
v -0.33662300 -0.01344600 0.02026200
v -0.33662300 -0.01344600 0.02026200
v -0.33662300 -0.01344600 0.02026200
v -0.33662300 -0.01344600 0.02026200
v -0.33662300 -0.01344600 0.02026200
v -0.33667200 -0.01346500 0.01899900
v -0.33667200 -0.01346500 0.01899900
v -0.33667200 -0.01346500 0.01899900
v -0.33667200 -0.01346500 0.01899900
v -0.33407100 -0.01274400 0.01899900
v -0.33407100 -0.01274400 0.01899900
v -0.33407100 -0.01274400 0.01899900
v -0.33407100 -0.01274400 0.01899900
v -0.33407100 -0.01274400 0.01899900
v -0.33407100 -0.01274400 0.01899900
v -0.33247600 -0.01214200 0.02400500
v -0.33247600 -0.01214200 0.02400500
v -0.33247600 -0.01214200 0.02400500
v -0.33247600 -0.01214200 0.02400500
v -0.33247600 -0.01214200 0.02400500
v -0.33247600 -0.01214200 0.02400500
v -0.33247600 -0.01214200 0.02400500
v -0.33247600 -0.01214200 0.02400500
v -0.33247600 -0.01214200 0.02400500
v -0.33247600 -0.01214200 0.02400500
v -0.33247600 -0.01214200 0.02400500
v -0.32965000 -0.01090600 0.02758100
v -0.32965000 -0.01090600 0.02758100
v -0.32965000 -0.01090600 0.02758100
v -0.32965000 -0.01090600 0.02758100
v -0.33080000 -0.01116200 0.02791800
v -0.33080000 -0.01116200 0.02791800
v -0.33194300 -0.01151300 0.02812100
v -0.33195700 -0.01151800 0.02812300
v -0.33311000 -0.01195200 0.02820400
v -0.33311000 -0.01195200 0.02820400
v -0.32971900 -0.01217100 0.02213100
v -0.32971900 -0.01217100 0.02213100
v -0.32902200 -0.01202200 0.02276000
v -0.32902200 -0.01202200 0.02276000
v -0.32902200 -0.01202200 0.02276000
v -0.32743900 -0.01166200 0.02394800
v -0.32743900 -0.01166200 0.02394800
v -0.32743900 -0.01166200 0.02394800
v -0.32743900 -0.01166200 0.02394800
v -0.32743900 -0.01166200 0.02394800
v -0.32962300 -0.01090100 0.02757100
v -0.32962300 -0.01090100 0.02757100
v -0.32569800 -0.01122600 0.02505200
v -0.32746900 -0.01078400 0.02650200
v -0.32746900 -0.01078400 0.02650200
v -0.32854900 -0.01077400 0.02711600
v -0.32854900 -0.01077400 0.02711600
v -0.33425800 -0.01245300 0.02817100
v -0.33425800 -0.01245300 0.02817100
v -0.33425800 -0.01245300 0.02817100
v -0.33594800 -0.01318300 0.02388400
v -0.33594800 -0.01318300 0.02388400
v -0.33594800 -0.01318300 0.02388400
v -0.33594800 -0.01318300 0.02388400
v -0.33594800 -0.01318300 0.02388400
v -0.33362500 -0.01258300 0.02160600
v -0.33362500 -0.01258300 0.02160600
v -0.33362500 -0.01258300 0.02160600
v -0.33362500 -0.01258300 0.02160600
v -0.33362500 -0.01258300 0.02160600
v -0.33362500 -0.01258300 0.02160600
v -0.33362500 -0.01258300 0.02160600
v -0.33362500 -0.01258300 0.02160600
v -0.33362500 -0.01258300 0.02160600
v -0.33625100 -0.01330300 0.02270400
v -0.33625100 -0.01330300 0.02270400
v -0.33625100 -0.01330300 0.02270400
v -0.33625100 -0.01330300 0.02270400
v -0.33647900 -0.01339200 0.02149600
v -0.33647900 -0.01339200 0.02149600
v -0.33647900 -0.01339200 0.02149600
v -0.33647900 -0.01339200 0.02149600
v -0.33133100 -0.01249200 0.01954100
v -0.33133100 -0.01249200 0.01954100
v -0.33133100 -0.01249200 0.01954100
v -0.33138300 -0.01250100 0.01899900
v -0.33138300 -0.01250100 0.01899900
v -0.33118100 -0.01246300 0.02007200
v -0.33118100 -0.01246300 0.02007200
v -0.33082900 -0.01239500 0.02078200
v -0.33082900 -0.01239500 0.02078200
v -0.33082900 -0.01239500 0.02078200
v -0.33033000 -0.01229600 0.02147200
v -0.33033000 -0.01229600 0.02147200
v -0.33138300 -0.01250100 -0.01900100
v -0.33138300 -0.01250100 -0.01900100
v -0.32962300 -0.01090100 -0.02757300
v -0.32962300 -0.01090100 -0.02757300
v -0.32962300 -0.01090100 -0.02757300
v -0.32981700 -0.01093600 -0.02764000
v -0.32981700 -0.01093600 -0.02764000
v -0.32580200 -0.01118100 -0.02515800
v -0.32657300 -0.01092800 -0.02585000
v -0.32657300 -0.01092800 -0.02585000
v -0.32867600 -0.01078300 -0.02717900
v -0.32867600 -0.01078300 -0.02717900
v -0.33096900 -0.01120800 -0.02795800
v -0.33096900 -0.01120800 -0.02795800
v -0.33209300 -0.01156500 -0.02814000
v -0.33209300 -0.01156500 -0.02814000
v -0.33319100 -0.01198600 -0.02820700
v -0.33319100 -0.01198600 -0.02820700
v -0.33425800 -0.01245300 -0.02817200
v -0.33425800 -0.01245300 -0.02817200
v -0.33425800 -0.01245300 -0.02817200
v -0.33133100 -0.01249200 -0.01954400
v -0.33133100 -0.01249200 -0.01954400
v -0.33118000 -0.01246300 -0.02007500
v -0.33118000 -0.01246300 -0.02007500
v -0.33118000 -0.01246300 -0.02007500
v -0.33082800 -0.01239500 -0.02078500
v -0.33082800 -0.01239500 -0.02078500
v -0.33032800 -0.01229600 -0.02147500
v -0.33032800 -0.01229600 -0.02147500
v -0.33032800 -0.01229600 -0.02147500
v -0.32971700 -0.01217100 -0.02213300
v -0.32971700 -0.01217100 -0.02213300
v -0.32902100 -0.01202200 -0.02276200
v -0.32902100 -0.01202200 -0.02276200
v -0.32743800 -0.01166100 -0.02395000
v -0.32743800 -0.01166100 -0.02395000
v -0.32743800 -0.01166100 -0.02395000
v -0.32743800 -0.01166100 -0.02395000
v -0.32743800 -0.01166100 -0.02395000
v -0.33813200 -0.01397900 0.02817100
v -0.33813200 -0.01397900 0.02817100
v -0.33813200 -0.01397900 0.02817100
v -0.33813200 -0.01397900 0.02817100
v -0.33813200 -0.01397900 0.02817100
v -0.33813200 -0.01397900 0.02817100
v -0.33813200 -0.01397900 0.02817100
v -0.34410400 -0.01538500 0.02817100
v -0.34410400 -0.01538500 0.02817100
v -0.35022900 -0.01574900 0.02817100
v -0.35022900 -0.01574900 0.02817100
v -0.35632600 -0.01506100 0.02817100
v -0.35632600 -0.01506100 0.02817100
v -0.36221600 -0.01334000 0.02817100
v -0.36221600 -0.01334000 0.02817100
v -0.36772400 -0.01063900 0.02817100
v -0.36772400 -0.01063900 0.02817100
v -0.37269000 -0.00703500 0.02817100
v -0.37269000 -0.00703500 0.02817100
v -0.37269000 -0.00703500 0.02817100
v -0.37696700 -0.00263500 0.02817100
v -0.37696700 -0.00263500 0.02817100
v -0.38042800 0.00243100 0.02817100
v -0.38042800 0.00243100 0.02817100
v -0.38297300 0.00801400 0.02817100
v -0.38297300 0.00801400 0.02817100
v -0.38452600 0.01395000 0.02817100
v -0.38452600 0.01395000 0.02817100
v -0.33667200 -0.01346500 -0.01900100
v -0.33667200 -0.01346500 -0.01900100
v -0.33667200 -0.01346500 -0.01900100
v -0.33667200 -0.01346500 -0.01900100
v -0.33407100 -0.01274400 -0.01900100
v -0.33407100 -0.01274400 -0.01900100
v -0.33407100 -0.01274400 -0.01900100
v -0.33407100 -0.01274400 -0.01900100
v -0.33407100 -0.01274400 -0.01900100
v -0.33407100 -0.01274400 -0.01900100
v -0.33407100 -0.01274400 -0.01900100
v -0.33247500 -0.01214200 -0.02400700
v -0.33247500 -0.01214200 -0.02400700
v -0.33247500 -0.01214200 -0.02400700
v -0.33247500 -0.01214200 -0.02400700
v -0.33247500 -0.01214200 -0.02400700
v -0.33247500 -0.01214200 -0.02400700
v -0.33247500 -0.01214200 -0.02400700
v -0.33247500 -0.01214200 -0.02400700
v -0.33247500 -0.01214200 -0.02400700
v -0.33247500 -0.01214200 -0.02400700
v -0.33247500 -0.01214200 -0.02400700
v -0.33247500 -0.01214200 -0.02400700
v -0.33472200 -0.01266300 -0.02718300
v -0.33472200 -0.01266300 -0.02718300
v -0.33472200 -0.01266300 -0.02718300
v -0.33472200 -0.01266300 -0.02718300
v -0.33472200 -0.01266300 -0.02718300
v -0.33362500 -0.01258300 -0.02160800
v -0.33362500 -0.01258300 -0.02160800
v -0.33362500 -0.01258300 -0.02160800
v -0.33362500 -0.01258300 -0.02160800
v -0.33362500 -0.01258300 -0.02160800
v -0.33362500 -0.01258300 -0.02160800
v -0.33362500 -0.01258300 -0.02160800
v -0.33620700 -0.01328600 -0.02289400
v -0.33620700 -0.01328600 -0.02289400
v -0.33620700 -0.01328600 -0.02289400
v -0.33620700 -0.01328600 -0.02289400
v -0.33620700 -0.01328600 -0.02289400
v -0.38504100 0.01999800 -0.02817200
v -0.38504100 0.01999800 -0.02817200
v -0.38452600 0.01395000 -0.02817200
v -0.38452600 0.01395000 -0.02817200
v -0.38297300 0.00801400 -0.02817200
v -0.38297300 0.00801400 -0.02817200
v -0.38042800 0.00243100 -0.02817200
v -0.38042800 0.00243100 -0.02817200
v -0.37696700 -0.00263500 -0.02817200
v -0.37696700 -0.00263500 -0.02817200
v -0.37696700 -0.00263500 -0.02817200
v -0.37269000 -0.00703500 -0.02817200
v -0.37269000 -0.00703500 -0.02817200
v -0.36772400 -0.01063900 -0.02817200
v -0.36772400 -0.01063900 -0.02817200
v -0.36221500 -0.01334000 -0.02817200
v -0.36221500 -0.01334000 -0.02817200
v -0.35632600 -0.01506100 -0.02817200
v -0.35632600 -0.01506100 -0.02817200
v -0.35022900 -0.01574900 -0.02817200
v -0.35022900 -0.01574900 -0.02817200
v -0.34410400 -0.01538500 -0.02817200
v -0.34410400 -0.01538500 -0.02817200
v -0.33813200 -0.01397900 -0.02817200
v -0.33813200 -0.01397900 -0.02817200
v -0.33813200 -0.01397900 -0.02817200
v -0.33813200 -0.01397900 -0.02817200
v -0.33813200 -0.01397900 -0.02817200
v -0.33800700 0.05393500 -0.02817200
v -0.33800700 0.05393500 -0.02817200
v -0.33800700 0.05393500 -0.02817200
v -0.33800700 0.05393500 -0.02817200
v -0.33800700 0.05393500 -0.02817200
v -0.33800700 0.05393500 -0.02817200
v -0.34397500 0.05536300 -0.02817200
v -0.34397500 0.05536300 -0.02817200
v -0.35009800 0.05574900 -0.02817200
v -0.35009800 0.05574900 -0.02817200
v -0.35619800 0.05508300 -0.02817200
v -0.35619800 0.05508300 -0.02817200
v -0.36209400 0.05338400 -0.02817200
v -0.36209400 0.05338400 -0.02817200
v -0.36761200 0.05070300 -0.02817200
v -0.36761200 0.05070300 -0.02817200
v -0.37259100 0.04711700 -0.02817200
v -0.37259100 0.04711700 -0.02817200
v -0.37688400 0.04273300 -0.02817200
v -0.37688400 0.04273300 -0.02817200
v -0.38036400 0.03768000 -0.02817200
v -0.38036400 0.03768000 -0.02817200
v -0.38036400 0.03768000 -0.02817200
v -0.38292900 0.03210600 -0.02817200
v -0.38292900 0.03210600 -0.02817200
v -0.38450400 0.02617600 -0.02817200
v -0.38450400 0.02617600 -0.02817200
v -0.38501700 0.02130700 -0.02817200
v -0.38501700 0.02130700 -0.02817200
v -0.38501700 0.02130700 -0.02817200
v -0.38504100 0.02005500 -0.02817200
v -0.38504100 0.02005500 -0.02817200
v -0.38504100 0.02005500 -0.02817200
v -0.33424400 0.05244300 0.02758200
v -0.33424400 0.05244300 0.02758200
v -0.33424400 0.05244300 0.02758200
v -0.32838000 0.05113400 0.02608600
v -0.32838000 0.05113400 0.02608600
v -0.33136900 0.05147100 0.02681300
v -0.33136900 0.05147100 0.02681300
v -0.32880600 0.05141500 0.02324600
v -0.32880600 0.05141500 0.02324600
vn 0.13050000 0.98830000 -0.07840000
vn 0.10980000 0.99190000 -0.06350000
vn 0.13050000 0.98830000 -0.07840000
vn 0.32430000 0.94580000 -0.01650000
vn 0.31660000 0.94810000 -0.02950000
vn 0.36960000 0.92920000 -0.00830000
vn 0.32430000 0.94580000 -0.01650000
vn 0.13050000 0.98830000 -0.07840000
vn 0.10370000 0.99190000 -0.07280000
vn 0.10980000 0.99190000 -0.06350000
vn 0.09430000 0.99450000 -0.04490000
vn 0.29980000 0.95390000 -0.01680000
vn 0.31660000 0.94810000 -0.02950000
vn 0.10980000 0.99190000 -0.06350000
vn 0.10370000 0.99190000 -0.07280000
vn 0.06930000 0.99670000 -0.04170000
vn 0.27670000 0.96080000 -0.01930000
vn 0.09990000 0.99360000 -0.05310000
vn 0.29840000 0.95440000 -0.00980000
vn 0.10370000 0.99190000 -0.07280000
vn 0.09990000 0.99360000 -0.05310000
vn 0.29980000 0.95390000 -0.01680000
vn 0.36960000 0.92920000 -0.00830000
vn 0.31660000 0.94810000 -0.02950000
vn 0.32430000 0.94580000 -0.01650000
vn 0.36720000 0.93010000 -0.00580000
vn 0.36720000 0.93010000 -0.00580000
vn 0.36050000 0.93270000 -0.00240000
vn 0.29840000 0.95440000 -0.00980000
vn 0.29980000 0.95390000 -0.01680000
vn 0.09290000 0.99520000 -0.03050000
vn 0.09000000 0.99580000 -0.01530000
vn 0.09130000 0.99570000 -0.01490000
vn 0.06930000 0.99670000 -0.04170000
vn 0.09990000 0.99360000 -0.05310000
vn 0.09290000 0.99520000 -0.03050000
vn 0.06930000 0.99670000 -0.04170000
vn 0.09430000 0.99450000 -0.04490000
vn 0.08230000 0.99550000 0.04650000
vn 0.09370000 0.99490000 0.03820000
vn 0.09990000 0.99360000 0.05310000
vn 0.10370000 0.99190000 0.07280000
vn 0.09990000 0.99360000 0.05310000
vn 0.09000000 0.99580000 -0.01530000
vn 0.09000000 0.99580000 0.01490000
vn 0.09140000 0.99570000 0.01520000
vn 0.09140000 0.99570000 0.01520000
vn 0.09300000 0.99520000 0.03080000
vn 0.09300000 0.99520000 0.03080000
vn 0.09370000 0.99490000 0.03820000
vn 0.09300000 0.99520000 0.03080000
vn 0.27530000 0.96130000 0.00570000
vn 0.09000000 0.99580000 0.01490000
vn 0.09140000 0.99570000 0.01520000
vn 0.29960000 0.95390000 0.01600000
vn 0.08230000 0.99550000 0.04650000
vn 0.27600000 0.96110000 0.01250000
vn 0.09370000 0.99490000 0.03820000
vn 0.36050000 0.93270000 0.00240000
vn 0.26700000 0.96370000 0.00390000
vn 0.27530000 0.96130000 0.00570000
vn 0.34480000 0.93870000 0.00060000
vn 0.27600000 0.96110000 0.01250000
vn 0.27600000 0.96110000 0.01250000
vn 0.30010000 0.95370000 0.01880000
vn 0.29960000 0.95390000 0.01600000
vn 0.36050000 0.93270000 0.00240000
vn 0.36940000 0.92920000 0.00690000
vn 0.32690000 0.94470000 0.02770000
vn 0.10370000 0.99190000 0.07280000
vn 0.09640000 0.99180000 0.08390000
vn 0.30010000 0.95370000 0.01880000
vn 0.29960000 0.95390000 0.01600000
vn 0.09990000 0.99360000 0.05310000
vn 0.08230000 0.99550000 0.04650000
vn 0.12640000 0.99010000 0.06090000
vn 0.34480000 0.93870000 -0.00060000
vn 0.34480000 0.93870000 0.00060000
vn 0.26700000 0.96370000 0.00390000
vn 0.33400000 0.94260000 -0.00000000
vn 0.27510000 0.96140000 -0.00350000
vn 0.26700000 0.96370000 -0.00610000
vn 0.26700000 0.96370000 0.00390000
vn 0.09000000 0.99580000 -0.01530000
vn 0.09130000 0.99570000 -0.01490000
vn 0.09000000 0.99580000 0.01490000
vn 0.27530000 0.96130000 0.00570000
vn 0.26700000 0.96370000 -0.00610000
vn 0.33400000 0.94260000 -0.00000000
vn 0.36940000 0.92920000 0.00690000
vn 0.23270000 0.97260000 -0.00000000
vn 0.36050000 0.93270000 0.00240000
vn 0.34480000 0.93870000 0.00060000
vn 0.23270000 0.97260000 -0.00000000
vn 0.06300000 0.99800000 -0.00000000
vn 0.06300000 0.99800000 -0.00000000
vn -0.10850000 0.99410000 -0.00000000
vn -0.27690000 0.96090000 -0.00000000
vn -0.10850000 0.99410000 -0.00000000
vn -0.43710000 0.89940000 -0.00000000
vn -0.27690000 0.96090000 -0.00000000
vn -0.43710000 0.89940000 -0.00000000
vn -0.58440000 0.81150000 -0.00000000
vn -0.58440000 0.81150000 -0.00000000
vn -0.71450000 0.69960000 -0.00000000
vn -0.82360000 0.56720000 -0.00000000
vn -0.71450000 0.69960000 -0.00000000
vn -0.90840000 0.41810000 -0.00000000
vn -0.82360000 0.56720000 -0.00000000
vn -0.90840000 0.41800000 -0.00000000
vn -0.96650000 0.25660000 -0.00000000
vn -0.90840000 0.41810000 -0.00000000
vn -0.96650000 0.25660000 -0.00000000
vn -0.99450000 0.10490000 -0.00000000
vn -0.99450000 0.10490000 -0.00000000
vn -0.99980000 0.01920000 -0.00000000
vn -0.99980000 0.01920000 -0.00000000
vn -1.00000000 0.00100000 -0.00000000
vn -0.99980000 0.01910000 -0.00000000
vn -0.99640000 -0.08490000 -0.00000000
vn -1.00000000 0.00100000 -0.00000000
vn -1.00000000 0.00120000 -0.00000000
vn 0.34480000 0.93870000 -0.00060000
vn 0.36050000 0.93270000 -0.00240000
vn 0.27510000 0.96140000 -0.00350000
vn 0.27670000 0.96080000 -0.01930000
vn 0.29840000 0.95440000 -0.00980000
vn 0.09430000 0.99450000 -0.04490000
vn 0.09130000 0.99570000 -0.01490000
vn 0.27670000 0.96080000 -0.01930000
vn 0.27510000 0.96140000 -0.00350000
vn 0.09290000 0.99520000 -0.03050000
vn 0.26700000 0.96370000 -0.00610000
vn 0.27130000 -0.96240000 0.01320000
vn 0.27220000 -0.96220000 0.01090000
vn 0.26700000 -0.96370000 0.00370000
vn 0.34170000 -0.93980000 0.00190000
vn 0.33620000 -0.94180000 0.00070000
vn 0.26700000 -0.96370000 -0.00000000
vn 0.33230000 -0.94320000 -0.00000000
vn 0.26700000 -0.96370000 0.00370000
vn 0.33620000 -0.94180000 0.00070000
vn 0.09000000 -0.99590000 0.00930000
vn 0.09000000 -0.99590000 -0.00000000
vn 0.26700000 -0.96370000 -0.00000000
vn 0.26700000 -0.96370000 0.00370000
vn 0.27130000 -0.96240000 0.01320000
vn 0.08240000 -0.99550000 0.04760000
vn 0.35680000 -0.92920000 0.09590000
vn 0.08450000 -0.98660000 0.13950000
vn 0.10480000 -0.98580000 0.13090000
vn 0.28510000 -0.95720000 0.05060000
vn 0.25240000 -0.95860000 0.13200000
vn 0.30880000 -0.94540000 0.10450000
vn 0.11950000 -0.96370000 0.23880000
vn 0.07210000 -0.99000000 0.12140000
vn 0.39520000 -0.91300000 0.10100000
vn 0.28560000 -0.95750000 0.03910000
vn 0.05210000 -0.99310000 0.10460000
vn 0.11950000 -0.96370000 0.23880000
vn 0.04790000 -0.97170000 0.23130000
vn 0.28190000 -0.89070000 0.35670000
vn 0.25240000 -0.95860000 0.13200000
vn 0.25240000 -0.95860000 0.13200000
vn 0.30880000 -0.94540000 0.10450000
vn 0.30880000 -0.94540000 0.10450000
vn 0.35680000 -0.92920000 0.09590000
vn 0.35680000 -0.92920000 0.09590000
vn 0.39520000 -0.91300000 0.10100000
vn 0.08450000 -0.98660000 0.13950000
vn 0.07210000 -0.99000000 0.12140000
vn 0.11950000 -0.96370000 0.23880000
vn 0.04790000 -0.97170000 0.23130000
vn 0.08450000 -0.98660000 0.13950000
vn 0.17450000 -0.93060000 0.32190000
vn 0.03030000 -0.94520000 0.32520000
vn 0.28190000 -0.89070000 0.35670000
vn 0.04790000 -0.97170000 0.23130000
vn 0.25210000 -0.90530000 0.34190000
vn 0.28190000 -0.89070000 0.35670000
vn 0.25210000 -0.90530000 0.34190000
vn 0.03030000 -0.94520000 0.32520000
vn 0.17450000 -0.93060000 0.32190000
vn 0.03030000 -0.94520000 0.32520000
vn 0.25210000 -0.90530000 0.34190000
vn 0.17450000 -0.93060000 0.32190000
vn 0.36650000 -0.93030000 0.01390000
vn 0.39520000 -0.91300000 0.10100000
vn 0.28510000 -0.95720000 0.05060000
vn 0.27500000 -0.96110000 0.02730000
vn 0.28560000 -0.95750000 0.03910000
vn 0.28510000 -0.95720000 0.05060000
vn 0.36650000 -0.93030000 0.01390000
vn 0.35140000 -0.93620000 0.00510000
vn 0.27130000 -0.96240000 0.01320000
vn 0.10480000 -0.98580000 0.13090000
vn 0.27190000 -0.96210000 0.01920000
vn 0.08280000 -0.99510000 0.05420000
vn 0.27220000 -0.96220000 0.01090000
vn 0.08240000 -0.99550000 0.04760000
vn 0.07010000 -0.99700000 0.03390000
vn 0.27500000 -0.96110000 0.02730000
vn 0.28560000 -0.95750000 0.03910000
vn 0.34660000 -0.93800000 0.00330000
vn 0.27500000 -0.96110000 0.02730000
vn 0.35140000 -0.93620000 0.00510000
vn 0.27190000 -0.96210000 0.01920000
vn 0.27190000 -0.96210000 0.01920000
vn 0.34170000 -0.93980000 0.00190000
vn 0.34660000 -0.93800000 0.00330000
vn 0.27220000 -0.96220000 0.01090000
vn 0.08240000 -0.99550000 0.04760000
vn 0.09000000 -0.99590000 0.00930000
vn 0.07010000 -0.99700000 0.03390000
vn 0.09000000 -0.99590000 0.00930000
vn 0.09000000 -0.99590000 -0.00000000
vn 0.07010000 -0.99700000 0.03390000
vn 0.08280000 -0.99510000 0.05420000
vn 0.05210000 -0.99310000 0.10460000
vn 0.08280000 -0.99510000 0.05420000
vn 0.10480000 -0.98580000 0.13090000
vn 0.07210000 -0.99000000 0.12140000
vn 0.05210000 -0.99310000 0.10460000
vn 0.09000000 -0.99590000 -0.00930000
vn 0.09000000 -0.99590000 -0.00000000
vn 0.09460000 -0.96130000 -0.25880000
vn 0.25600000 -0.90340000 -0.34400000
vn 0.22700000 -0.96180000 -0.15320000
vn 0.22700000 -0.96180000 -0.15320000
vn 0.26110000 -0.95700000 -0.12660000
vn 0.01240000 -0.93470000 -0.35520000
vn 0.01240000 -0.93470000 -0.35520000
vn 0.12810000 -0.94340000 -0.30590000
vn 0.25600000 -0.90340000 -0.34400000
vn 0.12810000 -0.94340000 -0.30590000
vn 0.31600000 -0.94320000 -0.10240000
vn 0.26110000 -0.95700000 -0.12660000
vn 0.36100000 -0.92760000 -0.09610000
vn 0.31600000 -0.94320000 -0.10240000
vn 0.39620000 -0.91250000 -0.10150000
vn 0.36100000 -0.92760000 -0.09610000
vn 0.30480000 -0.95060000 -0.05950000
vn 0.39620000 -0.91250000 -0.10150000
vn 0.36640000 -0.93010000 -0.02630000
vn 0.08600000 -0.99590000 -0.02920000
vn 0.09000000 -0.99590000 -0.00930000
vn 0.07900000 -0.99570000 -0.04820000
vn 0.08280000 -0.99510000 -0.05440000
vn 0.08600000 -0.99590000 -0.02920000
vn 0.08950000 -0.99300000 -0.07760000
vn 0.08280000 -0.99510000 -0.05440000
vn 0.09140000 -0.98630000 -0.13750000
vn 0.08950000 -0.99300000 -0.07760000
vn 0.07210000 -0.99000000 -0.12140000
vn 0.08450000 -0.98660000 -0.13950000
vn 0.07210000 -0.99000000 -0.12140000
vn 0.09550000 -0.98070000 -0.17060000
vn 0.08450000 -0.98660000 -0.13950000
vn 0.25600000 -0.90340000 -0.34400000
vn 0.12810000 -0.94340000 -0.30590000
vn 0.09550000 -0.98070000 -0.17060000
vn 0.01240000 -0.93470000 -0.35520000
vn 0.09460000 -0.96130000 -0.25880000
vn 0.33230000 -0.94320000 -0.00000000
vn 0.33620000 -0.94180000 0.00070000
vn 0.34660000 -0.93800000 0.00330000
vn 0.36650000 -0.93030000 0.01390000
vn 0.22910000 -0.97340000 -0.00000000
vn 0.35140000 -0.93620000 0.00510000
vn 0.34170000 -0.93980000 0.00190000
vn 0.22910000 -0.97340000 -0.00000000
vn 0.05940000 -0.99820000 -0.00000000
vn -0.11220000 -0.99370000 -0.00000000
vn 0.05940000 -0.99820000 -0.00000000
vn -0.11220000 -0.99370000 -0.00000000
vn -0.28040000 -0.95990000 -0.00000000
vn -0.28040000 -0.95990000 -0.00000000
vn -0.44030000 -0.89780000 -0.00000000
vn -0.44030000 -0.89780000 -0.00000000
vn -0.58730000 -0.80930000 -0.00000000
vn -0.58730000 -0.80930000 -0.00000000
vn -0.71700000 -0.69700000 -0.00000000
vn -0.71710000 -0.69700000 -0.00000000
vn -0.71700000 -0.69700000 -0.00000000
vn -0.82570000 -0.56420000 -0.00000000
vn -0.82570000 -0.56420000 -0.00000000
vn -0.90990000 -0.41470000 -0.00000000
vn -0.96740000 -0.25310000 -0.00000000
vn -0.90990000 -0.41470000 -0.00000000
vn -0.99640000 -0.08490000 -0.00000000
vn -0.96740000 -0.25310000 -0.00000000
vn 0.26700000 -0.96360000 -0.01240000
vn 0.26700000 -0.96370000 -0.00000000
vn 0.33230000 -0.94320000 -0.00000000
vn 0.34390000 -0.93900000 -0.00210000
vn 0.08600000 -0.99590000 -0.02920000
vn 0.26900000 -0.96300000 -0.01360000
vn 0.07900000 -0.99570000 -0.04820000
vn 0.09000000 -0.99590000 -0.00000000
vn 0.26700000 -0.96370000 -0.00000000
vn 0.26700000 -0.96360000 -0.01240000
vn 0.09000000 -0.99590000 -0.00930000
vn 0.30480000 -0.95060000 -0.05950000
vn 0.31600000 -0.94320000 -0.10240000
vn 0.39620000 -0.91250000 -0.10150000
vn 0.09140000 -0.98630000 -0.13750000
vn 0.07210000 -0.99000000 -0.12140000
vn 0.09460000 -0.96130000 -0.25880000
vn 0.08450000 -0.98660000 -0.13950000
vn 0.09550000 -0.98070000 -0.17060000
vn 0.36100000 -0.92760000 -0.09610000
vn 0.26110000 -0.95700000 -0.12660000
vn 0.22700000 -0.96180000 -0.15320000
vn 0.28120000 -0.95880000 -0.04140000
vn 0.28120000 -0.95880000 -0.04140000
vn 0.36640000 -0.93010000 -0.02630000
vn 0.28170000 -0.95860000 -0.04160000
vn 0.36240000 -0.93200000 -0.00970000
vn 0.30480000 -0.95060000 -0.05950000
vn 0.08280000 -0.99510000 -0.05440000
vn 0.26900000 -0.96300000 -0.01360000
vn 0.28120000 -0.95880000 -0.04140000
vn 0.28170000 -0.95860000 -0.04160000
vn 0.09140000 -0.98630000 -0.13750000
vn 0.08950000 -0.99300000 -0.07760000
vn 0.07900000 -0.99570000 -0.04820000
vn 0.36240000 -0.93200000 -0.00970000
vn 0.28170000 -0.95860000 -0.04160000
vn 0.26700000 -0.96360000 -0.01240000
vn 0.34390000 -0.93900000 -0.00210000
vn 0.26900000 -0.96300000 -0.01360000
vn -0.99640000 -0.08490000 -0.00000000
vn -1.00000000 0.00120000 -0.00000000
vn -0.99640000 -0.08490000 -0.00000000
vn -0.96740000 -0.25310000 -0.00000000
vn -0.96740000 -0.25310000 -0.00000000
vn -0.90990000 -0.41470000 -0.00000000
vn -0.82570000 -0.56420000 -0.00000000
vn -0.90990000 -0.41470000 -0.00000000
vn -0.82570000 -0.56420000 -0.00000000
vn -0.71710000 -0.69700000 -0.00000000
vn -0.71700000 -0.69700000 -0.00000000
vn -0.71710000 -0.69700000 -0.00000000
vn -0.58730000 -0.80930000 -0.00000000
vn -0.44030000 -0.89780000 -0.00000000
vn -0.58730000 -0.80930000 -0.00000000
vn -0.44030000 -0.89780000 -0.00000000
vn -0.28040000 -0.95990000 -0.00000000
vn -0.11220000 -0.99370000 -0.00000000
vn -0.28040000 -0.95990000 -0.00000000
vn 0.05940000 -0.99820000 -0.00000000
vn -0.11220000 -0.99370000 -0.00000000
vn 0.05940000 -0.99820000 -0.00000000
vn 0.22910000 -0.97340000 -0.00000000
vn 0.36640000 -0.93010000 -0.02630000
vn 0.36240000 -0.93200000 -0.00970000
vn 0.34390000 -0.93900000 -0.00210000
vn 0.22910000 -0.97340000 -0.00000000
vn 0.33230000 -0.94320000 -0.00000000
vn 0.34480000 0.93870000 -0.00060000
vn 0.36050000 0.93270000 -0.00240000
vn 0.36720000 0.93010000 -0.00580000
vn 0.33400000 0.94260000 -0.00000000
vn 0.36960000 0.92920000 -0.00830000
vn 0.23270000 0.97260000 -0.00000000
vn 0.06300000 0.99800000 -0.00000000
vn 0.23270000 0.97260000 -0.00000000
vn 0.06300000 0.99800000 -0.00000000
vn -0.10850000 0.99410000 -0.00000000
vn -0.10850000 0.99410000 -0.00000000
vn -0.27690000 0.96090000 -0.00000000
vn -0.43710000 0.89940000 -0.00000000
vn -0.27690000 0.96090000 -0.00000000
vn -0.58440000 0.81150000 -0.00000000
vn -0.43710000 0.89940000 -0.00000000
vn -0.58440000 0.81150000 -0.00000000
vn -0.71450000 0.69960000 -0.00000000
vn -0.82360000 0.56720000 -0.00000000
vn -0.71450000 0.69960000 -0.00000000
vn -0.90840000 0.41810000 -0.00000000
vn -0.90840000 0.41800000 -0.00000000
vn -0.82360000 0.56720000 -0.00000000
vn -0.96650000 0.25660000 -0.00000000
vn -0.90840000 0.41800000 -0.00000000
vn -0.96650000 0.25660000 -0.00000000
vn -0.99450000 0.10490000 -0.00000000
vn -0.99980000 0.01920000 -0.00000000
vn -0.99450000 0.10490000 -0.00000000
vn -0.99980000 0.01910000 -0.00000000
vn -1.00000000 0.00100000 -0.00000000
vn -0.99980000 0.01910000 -0.00000000
vn -1.00000000 0.00120000 -0.00000000
vn 0.36940000 0.92920000 0.00690000
vn 0.32690000 0.94470000 0.02770000
vn 0.30010000 0.95370000 0.01880000
vn 0.09640000 0.99180000 0.08390000
vn 0.12640000 0.99010000 0.06090000
vn 0.32690000 0.94470000 0.02770000
vn 0.12640000 0.99010000 0.06090000
vn 0.09640000 0.99180000 0.08390000
vn 0.10370000 0.99190000 0.07280000
f 8//8 1//1 3//3
f 15//15 20//20 9//9
f 4//4 7//7 25//25
f 10//10 2//2 14//14
f 13//13 5//5 24//24
f 12//12 22//22 30//30
f 49//49 48//48 51//51
f 50//50 58//58 40//40
f 63//63 64//64 57//57
f 55//55 66//66 73//73
f 56//56 75//75 39//39
f 41//41 74//74 43//43
f 79//79 60//60 83//83
f 87//87 61//61 52//52
f 86//86 53//53 45//45
f 46//46 54//54 47//47
f 35//35 21//21 18//18
f 19//19 29//29 127//127
f 17//17 126//126 130//130
f 131//131 125//125 81//81
f 133//133 82//82 88//88
f 34//34 16//16 37//37
f 38//38 11//11 128//128
f 36//36 132//132 31//31
f 33//33 129//129 85//85
f 32//32 84//84 44//44
f 136//136 141//141 146//146
f 153//153 163//163 164//164
f 165//165 166//166 154//154
f 149//149 167//167 168//168
f 150//150 170//170 174//174
f 155//155 172//172 160//160
f 161//161 173//173 178//178
f 162//162 177//177 180//180
f 182//182 184//184 176//176
f 175//175 183//183 186//186
f 179//179 185//185 181//181
f 169//169 188//188 157//157
f 152//152 189//189 192//192
f 158//158 191//191 203//203
f 202//202 190//190 205//205
f 197//197 207//207 208//208
f 211//211 135//135 199//199
f 195//195 134//134 147//147
f 200//200 148//148 212//212
f 213//213 143//143 215//215
f 214//214 217//217 201//201
f 198//198 218//218 220//220
f 196//196 221//221 151//151
f 159//159 219//219 223//223
f 156//156 222//222 171//171
f 139//139 293//293 145//145
f 145//145 293//293 300//300
f 144//144 299//299 216//216
f 216//216 299//299 225//225
f 246//246 224//224 302//302
f 235//235 233//233 260//260
f 232//232 231//231 262//262
f 257//257 310//310 261//261
f 263//263 308//308 226//226
f 259//259 227//227 234//234
f 243//243 240//240 305//305
f 311//311 241//241 238//238
f 239//239 236//236 304//304
f 312//312 237//237 230//230
f 313//313 229//229 228//228
f 242//242 303//303 319//319
f 315//315 314//314 322//322
f 317//317 323//323 328//328
f 301//301 292//292 329//329
f 331//331 321//321 297//297
f 298//298 326//326 247//247
f 296//296 249//249 245//245
f 258//258 255//255 309//309
f 307//307 256//256 254//254
f 306//306 252//252 324//324
f 325//325 253//253 250//250
f 320//320 251//251 248//248
f 244//244 316//316 355//355
f 356//356 318//318 327//327
f 357//357 330//330 295//295
f 142//142 138//138 265//265
f 270//270 137//137 209//209
f 210//210 204//204 266//266
f 269//269 206//206 194//194
f 267//267 193//193 187//187
f 90//90 393//393 68//68
f 92//92 67//67 59//59
f 77//77 123//123 360//360
f 361//361 124//124 28//28
f 362//362 27//27 26//26
f 23//23 6//6 364//364
f 62//62 78//78 93//93
f 89//89 80//80 363//363
f 91//91 365//365 94//94
f 94//94 365//365 367//367
f 95//95 366//366 96//96
f 96//96 366//366 368//368
f 97//97 369//369 99//99
f 99//99 369//369 370//370
f 98//98 371//371 101//101
f 101//101 371//371 373//373
f 100//100 372//372 102//102
f 102//102 372//372 375//375
f 103//103 374//374 104//104
f 104//104 374//374 376//376
f 105//105 377//377 107//107
f 107//107 377//377 379//379
f 106//106 378//378 109//109
f 109//109 378//378 382//382
f 108//108 380//380 112//112
f 110//110 381//381 384//384
f 111//111 383//383 113//113
f 113//113 383//383 385//385
f 114//114 386//386 115//115
f 115//115 386//386 388//388
f 116//116 387//387 117//117
f 119//119 389//389 391//391
f 118//118 390//390 121//121
f 122//122 392//392 333//333
f 120//120 332//332 290//290
f 290//290 332//332 334//334
f 291//291 335//335 288//288
f 288//288 335//335 336//336
f 289//289 337//337 287//287
f 287//287 337//337 339//339
f 286//286 338//338 285//285
f 285//285 338//338 340//340
f 284//284 342//342 282//282
f 283//283 341//341 343//343
f 281//281 344//344 280//280
f 280//280 344//344 346//346
f 279//279 345//345 278//278
f 278//278 345//345 347//347
f 277//277 348//348 276//276
f 276//276 348//348 350//350
f 275//275 349//349 273//273
f 273//273 349//349 352//352
f 274//274 351//351 272//272
f 272//272 351//351 353//353
f 271//271 354//354 268//268
f 268//268 354//354 358//358
f 264//264 359//359 140//140
f 140//140 359//359 294//294
f 401//401 42//42 70//70
f 400//400 71//71 396//396
f 65//65 395//395 72//72
f 69//69 394//394 398//398
f 76//76 399//399 397//397

