# https://github.com/mikedh/trimesh
v -0.34833015 0.05798241 -0.02374961
v -0.34833015 0.05764242 -0.02805840
v -0.35263900 0.05784429 -0.02374961
v -0.35263900 0.05784429 0.02373610
v -0.34833015 0.05797179 0.02373610
v -0.11812627 0.04214114 0.04337670
v -0.11812627 0.04214114 0.02962423
v -0.00891167 0.03461892 0.04101982
v -0.00933829 0.03461892 0.03894643
v -0.01057548 0.03461892 0.03684873
v -0.34397864 0.05723869 -0.02805840
v -0.34397864 0.05579374 -0.03153296
v -0.34833015 0.05599562 -0.03172734
v -0.35263900 0.05592124 -0.03165444
v -0.35263900 0.05750431 -0.02805840
v -0.01125808 0.03461892 0.03630608
v -0.35694787 0.05716432 -0.02374961
v -0.35694787 0.05716432 0.02373610
v -0.35263900 0.05750431 0.02806918
v -0.34833015 0.05763180 0.02806918
v -0.34833015 0.05599562 0.03172193
v -0.34833015 0.05396631 0.03388441
v -0.11944878 0.04214114 0.04338479
v -0.11812627 0.04210926 0.04340099
v -0.02013177 0.03461892 0.04592795
v -0.01582290 0.03461892 0.04562018
v -0.01172736 0.03461892 0.04451869
v -0.01061815 0.03461892 0.04410563
v -0.00865570 0.03368396 0.04374926
v 0.00798246 0.02016946 0.04323901
v 0.04317858 -0.00944129 0.04101982
v 0.00798246 0.02022259 0.03865485
v -0.00857038 0.03377958 0.03784493
v 0.04296526 -0.00961129 0.03807981
v -0.31309139 0.05309510 -0.02805840
v -0.31309139 0.05151203 -0.03206750
v -0.34397864 0.05378570 -0.03369545
v -0.31309139 0.05127829 -0.03240767
v -0.31309139 0.04999271 -0.03422190
v -0.34833015 0.05396631 -0.03388983
v -0.35263900 0.05390256 -0.03380884
v -0.35694787 0.05559188 -0.03130618
v -0.35694787 0.05682433 -0.02805840
v 0.04002158 -0.00806009 0.03736708
v -0.02495256 -0.04148509 -0.02623607
v -0.06910768 -0.00503208 -0.02623607
v -0.01582290 0.03461892 0.03458905
v -0.36125673 0.05571937 -0.02805840
v -0.36125673 0.05601686 -0.02374961
v -0.36125673 0.05601686 0.02373610
v -0.36125673 0.05571937 0.02806918
v -0.35694787 0.05682433 0.02806918
v -0.35694787 0.05559188 0.03130887
v -0.35263900 0.05592124 0.03164903
v -0.35263900 0.05389194 0.03380343
v -0.35263900 0.05173515 0.03543947
v -0.34833015 0.05180952 0.03544756
v -0.12384297 0.04210926 0.04340909
v -0.12384297 0.04214114 0.04338479
v -0.11812627 0.03954873 0.04455108
v -0.01582290 0.03093219 0.04631671
v -0.11953411 0.03954873 0.04455108
v -0.11812627 0.03524577 0.04574977
v -0.11087373 0.03461892 0.04589555
v -0.11087373 0.03092156 0.04628432
v -0.01151405 0.03093219 0.04597655
v -0.00720519 0.03096406 0.04459158
v 0.03997893 -0.00809197 0.04415422
v 0.04292261 -0.00967503 0.04358728
v 0.03835777 -0.00558456 0.04336860
v 0.04535434 -0.01142809 0.04101982
v 0.03840044 -0.00554206 0.03840378
v 0.04718879 -0.01381863 0.03803122
v 0.04450110 -0.01232056 0.03715650
v -0.34397864 0.05162890 -0.03539628
v -0.31309139 0.04965273 -0.03441628
v -0.07200869 -0.00405462 -0.02623607
v -0.34833015 0.05180952 -0.03545298
v -0.35263900 0.05173515 -0.03544488
v -0.35694787 0.05136329 -0.03525860
v -0.35694787 0.05353070 -0.03346867
v -0.36125673 0.05505002 -0.03066634
v -0.36347514 0.05471004 -0.03024518
v -0.02034507 -0.04651052 -0.02623607
v -0.21586480 -0.00302403 -0.03514521
v -0.31309139 0.04388357 -0.03636819
v -0.31309139 0.04783592 -0.03545298
v -0.36377378 0.05486941 -0.02805840
v -0.36411507 0.05500752 -0.02374961
v -0.36411507 0.05500752 0.02373610
v -0.36377378 0.05486941 0.02806918
v -0.36347514 0.05471004 0.03024787
v -0.36125673 0.05505002 0.03066903
v -0.35694787 0.05354133 0.03345516
v -0.35694787 0.05138453 0.03526938
v -0.36556558 0.04749593 0.03527748
v -0.34397864 0.04821841 0.03622509
v -0.01151405 0.02660797 0.04635721
v 0.01007290 0.00933237 0.04634911
v 0.00576404 0.01364596 0.04630861
v 0.00145519 0.01798080 0.04625192
v -0.00285367 0.02228376 0.04618713
v -0.00720519 0.02660797 0.04609803
v -0.10656488 0.02659735 0.04635721
v -0.11953411 0.03524577 0.04570117
v -0.11522525 0.03092156 0.04617093
v -0.11522525 0.03461892 0.04588746
v 0.01869061 0.00500816 0.04605754
v 0.01438175 0.00933237 0.04592795
v 0.01007290 0.01364596 0.04573357
v 0.00576404 0.01798080 0.04547440
v 0.03596870 -0.00792197 0.04562828
v 0.01860529 0.00931113 0.04450249
v 0.04445843 -0.01236306 0.04432431
v 0.04714613 -0.01388238 0.04361158
v 0.04735945 -0.01359551 0.04101982
v 0.04838332 -0.01653853 0.04101982
v 0.04765808 -0.01653853 0.03737518
v -0.34397864 0.04821841 -0.03623050
v -0.36556558 0.04744281 -0.03528290
v -0.36023284 0.05084268 -0.03489413
v -0.36151270 0.05238325 -0.03310420
v -0.36309119 0.05019458 -0.03442437
v -0.36518162 0.05253199 -0.03150056
v -0.36889322 0.05108705 -0.03099841
v -0.37175156 0.05013084 -0.02885211
v -0.36594954 0.05378570 -0.02805840
v -0.02034507 -0.04655302 -0.02623607
v 0.04633556 -0.02435823 0.03467004
v 0.04676218 -0.02722687 0.03453235
v -0.33966978 -0.00791135 -0.03601992
v -0.33536093 -0.00359776 -0.03636819
v -0.31309139 0.00504004 -0.03636819
v -0.02158227 -0.04921979 -0.02623607
v -0.02448328 -0.04966602 -0.02623607
v -0.32712716 0.04389420 -0.03636819
v -0.36624818 0.05396631 -0.02374961
v -0.36624818 0.05396631 0.02373610
v -0.36594954 0.05378570 0.02806918
v -0.37175156 0.05013084 0.02885480
v -0.36889322 0.05108705 0.03099300
v -0.36518162 0.05253199 0.03152755
v -0.36321917 0.05026895 0.03447566
v -0.36159802 0.05239388 0.03312309
v -0.36036082 0.05085331 0.03491302
v -0.36846659 0.04663534 0.03491302
v -0.36991710 0.04395794 0.03531798
v -0.37422596 0.03525640 0.03556096
v 0.01438175 0.00500816 0.04635721
v 0.03596870 -0.01221431 0.04633291
v 0.03165984 -0.00792197 0.04628432
v 0.02735099 -0.00359776 0.04621952
v 0.02299946 0.00071582 0.04614663
v -0.10225602 0.02228376 0.04635721
v -0.37422596 0.00502941 0.03556905
v -0.36125673 0.02229439 0.03636278
v -0.36125673 0.01799142 0.03636278
v 0.04027755 -0.01221431 0.04584696
v 0.04462908 -0.01653853 0.04553919
v 0.04753009 -0.01653853 0.04400034
v 0.04859664 -0.02085211 0.04101982
v 0.04774339 -0.01790910 0.03726989
v -0.33966978 0.04389420 -0.03636819
v -0.37422596 0.03525640 -0.03560686
v -0.36556558 0.04389420 -0.03560686
v -0.36987444 0.04392607 -0.03529099
v -0.36842394 0.04663534 -0.03491843
v -0.36556558 0.04958898 -0.03395462
v -0.37008775 0.04838840 -0.03253726
v -0.37341539 0.04725157 -0.03119279
v -0.37631640 0.04597661 -0.02988072
v -0.37209287 0.05037520 -0.02597689
v -0.37013041 0.05138453 -0.02767773
v 0.04676218 -0.02734374 0.03453235
v 0.04782872 -0.02085211 0.03701881
v -0.34833015 -0.01159809 -0.03545298
v -0.35263900 -0.01156621 -0.03545298
v -0.36125673 -0.00791135 -0.03559876
v -0.37422596 0.00502941 -0.03560686
v 0.03494481 -0.03720337 0.02965662
v 0.03080660 -0.04137884 0.02902488
v 0.02619911 -0.04545868 0.02888720
v 0.02154896 -0.04943228 0.02908968
v 0.01869061 -0.05001663 0.02834455
v -0.02448328 -0.05055849 0.02806918
v -0.02789624 -0.04949603 -0.02623607
v 0.01442442 -0.05038850 0.02816637
v 0.01007290 -0.05043099 0.02816637
v -0.36991710 0.05182014 -0.02374961
v -0.36991710 0.05182014 0.02373610
v -0.37209287 0.05037520 0.02596338
v -0.37013041 0.05138453 0.02767232
v -0.37631640 0.04597661 0.02987530
v -0.37341539 0.04725157 0.03122787
v -0.37008775 0.04838840 0.03254805
v -0.36556558 0.04965273 0.03398161
v -0.37132495 0.04542414 0.03411929
v -0.37290344 0.04254487 0.03499401
v -0.37431128 0.03953811 0.03525318
v -0.37755359 0.03525640 0.03521269
v -0.37879078 0.03097468 0.03528558
v -0.37853482 0.02661860 0.03551236
v -0.05037909 -0.01222494 0.04635721
v 0.03165984 -0.01221431 0.04634101
v 0.04027755 -0.01653853 0.04624382
v -0.06334832 -0.01222494 0.04629241
v -0.06765718 -0.00791135 0.04631671
v -0.05903946 -0.01222494 0.04635721
v -0.36125673 -0.00791135 0.03550426
v -0.37853482 0.01366721 0.03539897
v -0.37883345 0.00923675 0.03527748
v -0.37763892 0.00502941 0.03522888
v -0.37435394 0.00073707 0.03531798
v -0.36995976 -0.00373588 0.03533417
v 0.04462908 -0.02085211 0.04517472
v 0.04748744 -0.02085211 0.04390314
v 0.04753009 -0.01790910 0.04396794
v 0.04710348 -0.02359326 0.04348199
v 0.04748744 -0.02508070 0.04083355
v 0.04693282 -0.02758811 0.03927040
v 0.04689016 -0.02752436 0.03669484
v 0.04731677 -0.02553756 0.03634658
v -0.37853482 0.02661860 -0.03550967
v -0.37879078 0.03092156 -0.03531529
v -0.37751093 0.03525640 -0.03520190
v -0.37431128 0.03951686 -0.03529909
v -0.37290344 0.04250237 -0.03500752
v -0.37128228 0.04537101 -0.03407611
v -0.37460992 0.04424481 -0.03266684
v -0.37746826 0.04309735 -0.03125758
v -0.38126518 0.03838003 -0.03082022
v -0.38036927 0.04128054 -0.02805840
v -0.37793754 0.04427668 -0.02829327
v -0.37657237 0.04623160 -0.02699740
v -0.37422596 0.04849464 -0.02374961
v -0.37209287 0.05038582 -0.02374961
v -0.37665769 0.04632723 -0.02374961
v 0.04505570 -0.02968115 0.03669484
v 0.04275195 -0.03193357 0.03416789
v -0.35263900 -0.01372300 -0.03397082
v -0.35694787 -0.01122623 -0.03531529
v -0.36526695 -0.00785823 -0.03519380
v -0.37000243 -0.00376776 -0.03537199
v -0.37431128 0.00071582 -0.03532339
v -0.37763892 0.00502941 -0.03526669
v -0.37853482 0.01366721 -0.03546917
v 0.03357963 -0.04004014 0.03238606
v 0.02154896 -0.04943228 0.03087151
v 0.03140387 -0.04177195 0.03238606
v 0.01869061 -0.05001663 0.03148705
v 0.01007290 -0.05043099 0.03181102
v -0.01582290 -0.05043099 0.03181102
v -0.02013177 -0.05042037 0.03181102
v -0.02448328 -0.05021851 0.03167333
v -0.35263900 -0.01752661 0.02806918
v -0.35263900 -0.01784535 0.02373610
v -0.35263900 -0.01784535 -0.02374961
v -0.35263900 -0.01752661 -0.02805840
v -0.35263900 -0.01579480 -0.03180833
v 0.01442442 -0.05038850 0.03180291
v -0.37209287 0.05038582 0.02373610
v -0.37422596 0.04849464 0.02373610
v -0.37665769 0.04632723 0.02373610
v -0.37657237 0.04623160 0.02700008
v -0.37793754 0.04427668 0.02828786
v -0.38036927 0.04128054 0.02806918
v -0.38126518 0.03838003 0.03083911
v -0.37746826 0.04309735 0.03126027
v -0.37460992 0.04426606 0.03267764
v -0.37580445 0.04095118 0.03413549
v -0.37678568 0.03807192 0.03483202
v -0.38041194 0.03245150 0.03432987
v -0.38096655 0.02957224 0.03475913
v -0.38126518 0.02661860 0.03499401
v -0.38156382 0.02229439 0.03520459
v -0.38160647 0.01799142 0.03522888
v 0.04027755 -0.01791972 0.04608184
v -0.05468795 -0.01653853 0.04624382
v -0.05903946 -0.01653853 0.04611423
v -0.36522429 -0.00785823 0.03518029
v -0.35694787 -0.01120498 0.03530178
v -0.35263900 -0.01155559 0.03544756
v -0.38126518 0.01366721 0.03499401
v -0.37682834 0.00218202 0.03484822
v -0.37298876 -0.00239718 0.03508310
v -0.38092389 0.01060733 0.03474293
v -0.38049726 0.00771744 0.03440276
v -0.36855192 -0.00639203 0.03492921
v 0.04027755 -0.02085211 0.04571737
v 0.04027755 -0.02517632 0.04456728
v 0.04441576 -0.02508070 0.04390314
v 0.04582362 -0.02647253 0.04214561
v 0.04292261 -0.02760936 0.04336050
v 0.04275195 -0.03190169 0.03915700
v 0.04292261 -0.03205044 0.03669484
v -0.38164914 0.01799142 -0.03529099
v -0.38160647 0.02229439 -0.03523430
v -0.38122251 0.02661860 -0.03498322
v -0.38092389 0.02946599 -0.03474025
v -0.37674301 0.03805067 -0.03482124
v -0.38036927 0.03235588 -0.03430289
v -0.37580445 0.04091931 -0.03413281
v -0.37857747 0.03964436 -0.03248057
v -0.37964402 0.03525640 -0.03372784
v -0.38203310 0.03525640 -0.03156535
v -0.38523272 0.02958286 -0.03048816
v -0.38480612 0.03245150 -0.02890071
v -0.38395288 0.03484204 -0.02770202
v -0.38169180 0.03911312 -0.02805840
v -0.38186244 0.03936811 -0.02374961
v -0.38053993 0.04152491 -0.02374961
v -0.37866279 0.04389420 -0.02374961
v 0.03822978 -0.03605592 0.03411120
v -0.35694787 -0.01338302 -0.03362255
v -0.36125673 -0.01057812 -0.03493463
v -0.36863724 -0.00639203 -0.03495893
v -0.36360313 -0.01018501 -0.03463496
v -0.37294609 -0.00243968 -0.03507231
v -0.37691366 0.00215015 -0.03489413
v -0.38041194 0.00781306 -0.03435148
v -0.38096655 0.01069232 -0.03477264
v -0.38135050 0.01366721 -0.03506422
v 0.03822978 -0.03605592 0.03487252
v 0.03076395 -0.04117697 0.03544756
v 0.02538854 -0.04470434 0.03462955
v 0.01869061 -0.04782797 0.03364954
v 0.01442442 -0.04799796 0.03395731
v 0.01007290 -0.04799796 0.03396541
v -0.02013177 -0.04799796 0.03396541
v -0.02448328 -0.04791297 0.03382772
v -0.35263900 -0.01371238 0.03396541
v -0.35263900 -0.01579480 0.03180291
v -0.35694787 -0.01544419 0.03146275
v -0.35694787 -0.01682539 0.02806918
v -0.35694787 -0.01716538 0.02373610
v -0.35694787 -0.01716538 -0.02374961
v -0.35694787 -0.01682539 -0.02805840
v -0.35694787 -0.01544419 -0.03146816
v -0.37866279 0.04389420 0.02373610
v -0.38053993 0.04152491 0.02373610
v -0.38186244 0.03936811 0.02373610
v -0.38169180 0.03911312 0.02806918
v -0.37968669 0.03525640 0.03376293
v -0.37857747 0.03966561 0.03248325
v -0.38395288 0.03484204 0.02769661
v -0.38480612 0.03245150 0.02889530
v -0.38523272 0.02958286 0.03048274
v -0.38203310 0.03525640 0.03160044
v -0.38288634 0.03100655 0.03241036
v -0.38344094 0.02661860 0.03300160
v -0.38373958 0.02229439 0.03333367
v -0.38378223 0.01799142 0.03335797
v -0.05037909 -0.02085211 0.04570927
v -0.36356047 -0.01015314 0.03460525
v -0.36125673 -0.01053563 0.03488062
v -0.35694787 -0.01336177 0.03362524
v -0.02448328 -0.04575617 0.03518839
v -0.03305834 -0.03943453 0.03837138
v -0.03740986 -0.03698025 0.03945667
v -0.04607024 -0.02803434 0.04352249
v -0.04607024 -0.02517632 0.04459968
v -0.38344094 0.01366721 0.03305020
v -0.37981467 0.00502941 0.03385202
v -0.37588977 -0.00069725 0.03416789
v -0.37145293 -0.00527645 0.03420029
v -0.37435394 -0.00373588 0.03326078
v -0.38288634 0.00915176 0.03245896
v -0.38211842 0.00502941 0.03169763
v -0.36646148 -0.00927130 0.03393301
v 0.03596870 -0.02517632 0.04459158
v 0.04027755 -0.02793872 0.04349008
v 0.03596870 -0.02814058 0.04352249
v 0.03165984 -0.03672526 0.03935139
v 0.03443287 -0.03623653 0.03907602
v 0.04027755 -0.03265604 0.03977255
v -0.38382490 0.01799142 -0.03335528
v -0.38373958 0.02229439 -0.03333098
v -0.38339828 0.02661860 -0.03300701
v -0.38288634 0.03096406 -0.03239957
v -0.38553137 0.02661860 -0.03083643
v -0.38634195 0.02661860 -0.02805840
v -0.38540339 0.03098530 -0.02770202
v -0.38501943 0.03312085 -0.02602549
v -0.38403820 0.03529890 -0.02374961
v -0.36125673 -0.01489171 -0.03082832
v -0.36125673 -0.01273492 -0.03298272
v -0.36650414 -0.00927130 -0.03392222
v -0.37153825 -0.00531895 -0.03424619
v -0.36368846 -0.01450923 -0.03037477
v -0.36509630 -0.01196995 -0.03214849
v -0.37584712 -0.00072912 -0.03414900
v -0.37866279 0.00054583 -0.03252916
v -0.38130785 0.00182078 -0.03090931
v -0.37981467 0.00502941 -0.03383313
v -0.38211842 0.00502941 -0.03167064
v -0.38292899 0.00919425 -0.03243197
v -0.38523272 0.01058608 -0.03052055
v -0.38348360 0.01366721 -0.03304751
v 0.02299946 -0.04511870 0.03493732
v 0.01869061 -0.04567117 0.03518839
v 0.01442442 -0.04584117 0.03518839
v -0.02013177 -0.04584117 0.03518839
v -0.36125673 -0.01489171 0.03080671
v -0.36368846 -0.01449860 0.03036935
v -0.36125673 -0.01570981 0.02806918
v -0.36125673 -0.01602854 0.02373610
v -0.36125673 -0.01602854 -0.02374961
v -0.36125673 -0.01570981 -0.02805840
v -0.38403820 0.03529890 0.02373610
v -0.38501943 0.03312085 0.02601198
v -0.38540339 0.03098530 0.02769661
v -0.38634195 0.02661860 0.02806918
v -0.38553137 0.02661860 0.03085531
v -0.38578735 0.02229439 0.03117928
v -0.38578735 0.01799142 0.03119547
v -0.38553137 0.01366721 0.03088771
v -0.36125673 -0.01269242 0.03296920
v -0.36505363 -0.01195932 0.03215118
v -0.02448328 -0.04245192 0.03692972
v -0.02879214 -0.03945578 0.03844428
v -0.03305834 -0.03726712 0.03950527
v -0.03740986 -0.03382475 0.04102793
v -0.04176137 -0.03031863 0.04256678
v -0.04176137 -0.02816183 0.04352249
v 0.03165984 -0.02816183 0.04352249
v -0.38523272 0.01058608 0.03051514
v -0.38130785 0.00182078 0.03088771
v -0.37862014 0.00055646 0.03252375
v -0.37729762 -0.00359776 0.03104159
v -0.37640172 -0.00577581 0.03024787
v -0.37422596 -0.00676389 0.03105779
v -0.37021573 -0.00816634 0.03262094
v -0.36902120 -0.01087561 0.03105779
v 0.02735099 -0.03719274 0.03950527
v 0.02735099 -0.03382475 0.04107652
v 0.02735099 -0.03933892 0.03824179
v -0.38553137 0.01366721 -0.03088502
v -0.38578735 0.01799142 -0.03119279
v -0.38578735 0.02229439 -0.03117659
v -0.38689655 0.02229439 -0.02805840
v -0.38723785 0.02229439 -0.02374961
v -0.38664057 0.02661860 -0.02374961
v -0.38565936 0.03093219 -0.02374961
v -0.38501943 0.03314210 -0.02374961
v -0.36902120 -0.01087561 -0.03104700
v -0.37025840 -0.00817697 -0.03265065
v -0.37422596 -0.00676389 -0.03110370
v -0.37640172 -0.00577581 -0.03024518
v -0.37431128 -0.00376776 -0.03328239
v -0.36411507 -0.01472172 -0.02805840
v -0.36629083 -0.01362738 -0.02805840
v -0.37187955 -0.00995127 -0.02955675
v -0.37729762 -0.00359776 -0.03102270
v -0.38049726 -0.00113286 -0.02805840
v -0.38177712 0.00103456 -0.02805840
v -0.38408087 0.00540127 -0.02790451
v -0.38484879 0.00769619 -0.02923278
v -0.38544604 0.00922613 -0.02790451
v -0.38638460 0.01366721 -0.02805840
v 0.01869061 -0.04245192 0.03692972
v 0.02299946 -0.03945578 0.03844428
v -0.37187955 -0.00995127 0.02955134
v -0.36624818 -0.01362738 0.02806918
v -0.36411507 -0.01471109 0.02806918
v -0.36441371 -0.01487046 0.02373610
v -0.36441371 -0.01487046 -0.02374961
v -0.38501943 0.03314210 0.02373610
v -0.38565936 0.03093219 0.02373610
v -0.38664057 0.02661860 0.02373610
v -0.38723785 0.02229439 0.02373610
v -0.38689655 0.02229439 0.02806918
v -0.38689655 0.01799142 0.02806918
v -0.38638460 0.01366721 0.02806918
v -0.02879214 -0.03729899 0.03950527
v -0.03668460 -0.03382475 0.04103602
v -0.03305834 -0.03382475 0.04106842
v -0.03740986 -0.03031863 0.04259917
v 0.02299946 -0.03031863 0.04259917
v 0.02299946 -0.03382475 0.04108462
v -0.38544604 0.00922613 0.02789909
v -0.38484879 0.00769619 0.02923547
v -0.38049726 -0.00113286 0.02806918
v -0.38408087 0.00540127 0.02789909
v -0.38177712 0.00103456 0.02806918
v -0.37853482 -0.00359776 0.02806918
v -0.37661502 -0.00598830 0.02806918
v -0.37388466 -0.00845320 0.02808538
v 0.02299946 -0.03729899 0.03950527
v -0.38689655 0.01799142 -0.02805840
v -0.38723785 0.01799142 -0.02374961
v -0.37661502 -0.00598830 -0.02805840
v -0.37853482 -0.00359776 -0.02805840
v -0.37388466 -0.00846383 -0.02809079
v -0.36658947 -0.01381863 -0.02374961
v -0.36991710 -0.01182120 -0.02374961
v -0.37222084 -0.01018501 -0.02667343
v -0.37021573 -0.01125810 -0.02809079
v -0.38066791 -0.00138785 -0.02374961
v -0.38194776 0.00076895 -0.02374961
v -0.37891877 -0.00359776 -0.02374961
v -0.38412354 0.00484879 -0.02374961
v -0.38506211 0.00706933 -0.02634946
v -0.38574469 0.00935362 -0.02374961
v -0.38668325 0.01366721 -0.02374961
v -0.37222084 -0.01018501 0.02666801
v -0.37021573 -0.01125810 0.02808538
v -0.36658947 -0.01381863 0.02373610
v -0.38723785 0.01799142 0.02373610
v -0.38668325 0.01366721 0.02373610
v -0.02448328 -0.03382475 0.04108462
v -0.38506211 0.00706933 0.02634404
v -0.38574469 0.00935362 0.02373610
v -0.38194776 0.00076895 0.02373610
v -0.38066791 -0.00138785 0.02373610
v -0.37891877 -0.00359776 0.02373610
v -0.38412354 0.00484879 0.02373610
v -0.37678568 -0.00617954 0.02373610
v -0.37678568 -0.00617954 -0.02374961
v -0.36991710 -0.01182120 0.02373610
v -0.37226351 -0.01023814 -0.02374961
v -0.37443926 -0.00834696 -0.02374961
v -0.38510476 0.00700559 -0.02374961
v -0.37443926 -0.00834696 0.02373610
v -0.37226351 -0.01023814 0.02373610
v -0.38510476 0.00700559 0.02373610
f 1 2 15
f 1 15 3
f 1 3 4
f 1 4 5
f 1 5 6
f 1 6 7
f 1 7 8
f 1 8 9
f 1 9 10
f 1 10 2
f 2 11 12
f 2 12 13
f 2 13 14
f 2 14 15
f 2 10 16
f 2 16 11
f 3 15 43
f 3 43 17
f 3 17 18
f 3 18 4
f 4 18 52
f 4 52 19
f 4 19 20
f 4 20 5
f 5 20 6
f 6 20 21
f 6 21 22
f 6 22 23
f 6 23 24
f 6 24 25
f 6 25 26
f 6 26 27
f 6 27 28
f 6 28 8
f 6 8 7
f 8 29 30
f 8 30 31
f 8 31 32
f 8 32 9
f 8 28 29
f 9 32 33
f 9 33 10
f 10 33 34
f 10 34 16
f 11 35 36
f 11 36 12
f 11 16 35
f 12 37 13
f 12 36 38
f 12 38 39
f 12 39 37
f 13 40 41
f 13 41 14
f 13 37 40
f 14 41 42
f 14 42 15
f 15 42 43
f 16 34 44
f 16 44 45
f 16 45 46
f 16 46 47
f 16 47 35
f 17 43 48
f 17 48 49
f 17 49 50
f 17 50 18
f 18 50 51
f 18 51 52
f 19 52 53
f 19 53 54
f 19 54 20
f 20 54 21
f 21 54 22
f 22 54 55
f 22 55 56
f 22 56 57
f 22 57 58
f 22 58 59
f 22 59 23
f 23 59 58
f 23 58 24
f 24 58 60
f 24 60 25
f 25 61 26
f 25 60 62
f 25 62 63
f 25 63 64
f 25 64 65
f 25 65 61
f 26 61 66
f 26 66 27
f 27 66 67
f 27 67 28
f 28 67 29
f 29 67 68
f 29 68 69
f 29 69 70
f 29 70 30
f 30 70 31
f 31 69 71
f 31 71 34
f 31 34 72
f 31 72 32
f 31 70 69
f 32 72 33
f 33 72 34
f 34 71 73
f 34 73 74
f 34 74 45
f 34 45 44
f 35 47 36
f 36 47 38
f 37 75 40
f 37 39 75
f 38 47 39
f 39 76 75
f 39 47 77
f 39 77 76
f 40 78 79
f 40 79 41
f 40 75 78
f 41 79 80
f 41 80 81
f 41 81 42
f 42 81 82
f 42 82 43
f 43 82 83
f 43 83 48
f 45 84 85
f 45 85 46
f 45 74 84
f 46 85 86
f 46 86 87
f 46 87 77
f 46 77 47
f 48 83 88
f 48 88 49
f 49 88 89
f 49 89 90
f 49 90 50
f 50 90 91
f 50 91 51
f 51 91 92
f 51 92 52
f 52 92 93
f 52 93 53
f 53 93 94
f 53 94 55
f 53 55 54
f 55 94 95
f 55 95 56
f 56 95 96
f 56 96 97
f 56 97 63
f 56 63 62
f 56 62 58
f 56 58 57
f 58 62 60
f 61 98 99
f 61 99 100
f 61 100 101
f 61 101 102
f 61 102 103
f 61 103 66
f 61 65 104
f 61 104 98
f 63 97 105
f 63 105 106
f 63 106 107
f 63 107 64
f 64 107 65
f 65 107 106
f 65 106 104
f 66 103 108
f 66 108 109
f 66 109 110
f 66 110 111
f 66 111 67
f 67 111 112
f 67 112 113
f 67 113 68
f 68 113 112
f 68 112 114
f 68 114 69
f 69 114 115
f 69 115 71
f 71 115 116
f 71 116 73
f 73 116 117
f 73 117 118
f 73 118 84
f 73 84 74
f 75 119 78
f 75 76 87
f 75 87 119
f 76 77 87
f 78 119 79
f 79 120 80
f 79 119 120
f 80 121 81
f 80 120 121
f 81 121 122
f 81 122 82
f 82 122 83
f 83 122 123
f 83 123 124
f 83 124 125
f 83 125 126
f 83 126 127
f 83 127 88
f 84 128 85
f 84 118 129
f 84 129 130
f 84 130 174
f 84 174 128
f 85 131 132
f 85 132 133
f 85 133 86
f 85 128 134
f 85 134 135
f 85 135 131
f 86 133 132
f 86 132 163
f 86 163 136
f 86 136 119
f 86 119 87
f 88 127 137
f 88 137 89
f 89 137 138
f 89 138 90
f 90 138 91
f 91 138 139
f 91 139 92
f 92 139 140
f 92 140 141
f 92 141 142
f 92 142 143
f 92 143 144
f 92 144 93
f 93 144 94
f 94 144 145
f 94 145 95
f 95 145 96
f 96 146 147
f 96 147 97
f 96 145 143
f 96 143 146
f 97 106 105
f 97 147 148
f 97 148 106
f 98 149 99
f 98 104 154
f 98 154 208
f 98 208 203
f 98 203 149
f 99 149 150
f 99 150 100
f 100 150 151
f 100 151 101
f 101 151 152
f 101 152 102
f 102 152 153
f 102 153 108
f 102 108 103
f 104 106 155
f 104 155 154
f 106 148 156
f 106 156 157
f 106 157 155
f 108 153 158
f 108 158 109
f 109 158 110
f 110 158 112
f 110 112 111
f 112 158 114
f 114 158 159
f 114 159 115
f 115 160 117
f 115 117 116
f 115 159 160
f 117 161 162
f 117 162 118
f 117 160 161
f 118 162 130
f 118 130 129
f 119 136 163
f 119 163 164
f 119 164 165
f 119 165 120
f 120 165 166
f 120 166 167
f 120 167 121
f 121 123 122
f 121 167 123
f 123 167 168
f 123 168 124
f 124 168 125
f 125 168 167
f 125 167 169
f 125 169 170
f 125 170 171
f 125 171 126
f 126 172 173
f 126 173 127
f 126 171 172
f 127 173 137
f 128 174 134
f 130 162 175
f 130 175 174
f 131 176 177
f 131 177 178
f 131 178 132
f 131 135 176
f 132 178 179
f 132 179 163
f 134 174 180
f 134 180 181
f 134 181 182
f 134 182 183
f 134 183 184
f 134 184 135
f 135 185 186
f 135 186 177
f 135 177 176
f 135 184 187
f 135 187 188
f 135 188 185
f 137 189 190
f 137 190 138
f 137 173 172
f 137 172 189
f 138 190 191
f 138 191 192
f 138 192 139
f 139 192 140
f 140 192 191
f 140 191 193
f 140 193 141
f 141 193 194
f 141 194 195
f 141 195 146
f 141 146 196
f 141 196 142
f 142 196 143
f 143 145 144
f 143 196 146
f 146 195 197
f 146 197 198
f 146 198 147
f 147 198 199
f 147 199 148
f 148 199 200
f 148 200 201
f 148 201 202
f 148 202 156
f 149 203 204
f 149 204 150
f 150 204 205
f 150 205 158
f 150 158 151
f 151 158 152
f 152 158 153
f 154 206 207
f 154 207 208
f 154 155 209
f 154 209 206
f 155 157 202
f 155 202 210
f 155 210 211
f 155 211 212
f 155 212 213
f 155 213 214
f 155 214 209
f 156 202 157
f 158 205 159
f 159 205 215
f 159 215 216
f 159 216 217
f 159 217 160
f 160 217 161
f 161 175 162
f 161 217 216
f 161 216 218
f 161 218 219
f 161 219 220
f 161 220 221
f 161 221 222
f 161 222 175
f 163 179 164
f 164 179 223
f 164 223 224
f 164 224 225
f 164 225 226
f 164 226 165
f 165 226 166
f 166 227 167
f 166 226 227
f 167 227 228
f 167 228 169
f 169 228 170
f 170 228 229
f 170 229 171
f 171 229 230
f 171 230 231
f 171 231 232
f 171 232 233
f 171 233 234
f 171 234 172
f 172 235 236
f 172 236 189
f 172 234 237
f 172 237 235
f 174 175 222
f 174 222 221
f 174 221 238
f 174 238 239
f 174 239 180
f 177 240 241
f 177 241 178
f 177 186 240
f 178 241 242
f 178 242 243
f 178 243 179
f 179 243 244
f 179 244 245
f 179 245 246
f 179 246 223
f 180 239 181
f 181 239 247
f 181 247 182
f 182 247 183
f 183 248 250
f 183 250 184
f 183 247 249
f 183 249 248
f 184 250 260
f 184 260 187
f 185 188 251
f 185 251 252
f 185 252 253
f 185 253 254
f 185 254 255
f 185 255 256
f 185 256 257
f 185 257 186
f 186 257 258
f 186 258 259
f 186 259 240
f 187 260 251
f 187 251 188
f 189 236 261
f 189 261 190
f 190 261 191
f 191 261 262
f 191 262 263
f 191 263 264
f 191 264 193
f 193 264 265
f 193 265 266
f 193 266 267
f 193 267 268
f 193 268 269
f 193 269 194
f 194 197 195
f 194 269 197
f 197 269 270
f 197 270 198
f 198 270 271
f 198 271 199
f 199 271 200
f 200 271 272
f 200 272 273
f 200 273 274
f 200 274 201
f 201 274 275
f 201 275 202
f 202 275 276
f 202 276 210
f 203 208 278
f 203 278 205
f 203 205 204
f 205 277 215
f 205 278 277
f 206 279 278
f 206 278 208
f 206 208 207
f 206 209 279
f 209 214 280
f 209 280 281
f 209 281 282
f 209 282 279
f 210 276 211
f 211 276 283
f 211 283 212
f 212 284 285
f 212 285 213
f 212 283 286
f 212 286 287
f 212 287 284
f 213 285 214
f 214 285 288
f 214 288 280
f 215 277 289
f 215 289 290
f 215 290 291
f 215 291 218
f 215 218 216
f 218 292 220
f 218 220 219
f 218 291 293
f 218 293 292
f 220 292 294
f 220 294 295
f 220 295 238
f 220 238 221
f 223 246 296
f 223 296 297
f 223 297 224
f 224 297 298
f 224 298 299
f 224 299 225
f 225 300 226
f 225 299 301
f 225 301 300
f 226 300 227
f 227 300 302
f 227 302 229
f 227 229 228
f 229 302 230
f 230 302 303
f 230 303 231
f 231 303 300
f 231 300 304
f 231 304 305
f 231 305 306
f 231 306 307
f 231 307 308
f 231 308 309
f 231 309 232
f 232 309 310
f 232 310 311
f 232 311 234
f 232 234 233
f 234 311 312
f 234 312 237
f 235 262 261
f 235 261 236
f 235 237 263
f 235 263 262
f 237 312 339
f 237 339 263
f 238 295 239
f 239 295 313
f 239 313 247
f 240 259 314
f 240 314 241
f 241 314 315
f 241 315 242
f 242 316 243
f 242 315 317
f 242 317 316
f 243 318 244
f 243 316 318
f 244 318 245
f 245 318 319
f 245 319 320
f 245 320 321
f 245 321 322
f 245 322 296
f 245 296 246
f 247 323 249
f 247 313 295
f 247 295 323
f 248 324 325
f 248 325 250
f 248 249 294
f 248 294 324
f 249 323 294
f 250 325 326
f 250 326 260
f 251 260 327
f 251 327 328
f 251 328 329
f 251 329 252
f 252 329 253
f 253 329 330
f 253 330 254
f 254 330 331
f 254 331 332
f 254 332 255
f 255 332 333
f 255 333 334
f 255 334 335
f 255 335 256
f 256 335 336
f 256 336 257
f 257 336 258
f 258 336 337
f 258 337 338
f 258 338 259
f 259 338 314
f 260 326 327
f 263 339 264
f 264 339 340
f 264 340 266
f 264 266 265
f 266 340 341
f 266 341 342
f 266 342 267
f 267 343 271
f 267 271 344
f 267 344 268
f 267 342 345
f 267 345 346
f 267 346 347
f 267 347 348
f 267 348 343
f 268 270 269
f 268 344 270
f 270 344 271
f 271 343 272
f 272 343 348
f 272 348 349
f 272 349 273
f 273 349 347
f 273 347 350
f 273 350 274
f 274 350 351
f 274 351 275
f 275 351 352
f 275 352 276
f 276 352 283
f 277 278 353
f 277 353 289
f 278 279 353
f 279 282 353
f 280 288 354
f 280 354 355
f 280 355 281
f 281 331 282
f 281 355 356
f 281 356 331
f 282 331 330
f 282 330 357
f 282 357 358
f 282 358 359
f 282 359 360
f 282 360 361
f 282 361 353
f 283 352 362
f 283 362 286
f 284 287 363
f 284 363 364
f 284 364 285
f 285 365 288
f 285 364 366
f 285 366 365
f 286 362 367
f 286 367 287
f 287 367 368
f 287 368 363
f 288 369 354
f 288 365 369
f 289 370 290
f 289 353 361
f 289 361 370
f 290 371 293
f 290 293 291
f 290 370 372
f 290 372 371
f 292 293 294
f 293 371 373
f 293 373 374
f 293 374 375
f 293 375 294
f 294 375 325
f 294 325 324
f 294 323 295
f 296 322 376
f 296 376 297
f 297 376 377
f 297 377 298
f 298 377 378
f 298 378 299
f 299 378 306
f 299 306 379
f 299 379 301
f 300 301 304
f 300 303 302
f 301 379 305
f 301 305 304
f 305 379 306
f 306 380 381
f 306 381 382
f 306 382 307
f 306 378 380
f 307 382 383
f 307 383 308
f 308 383 309
f 309 383 384
f 309 384 310
f 310 341 340
f 310 340 311
f 310 384 409
f 310 409 341
f 311 340 339
f 311 339 312
f 314 338 385
f 314 385 386
f 314 386 317
f 314 317 315
f 316 317 387
f 316 387 388
f 316 388 318
f 317 386 389
f 317 389 390
f 317 390 387
f 318 388 391
f 318 391 319
f 319 391 392
f 319 392 393
f 319 393 394
f 319 394 320
f 320 394 395
f 320 395 396
f 320 396 321
f 321 396 397
f 321 397 398
f 321 398 322
f 322 398 376
f 325 399 326
f 325 375 374
f 325 374 399
f 326 400 327
f 326 399 400
f 327 400 401
f 327 401 328
f 328 401 402
f 328 402 329
f 329 402 357
f 329 357 330
f 331 356 333
f 331 333 332
f 333 356 403
f 333 403 334
f 334 403 404
f 334 404 405
f 334 405 335
f 335 405 406
f 335 406 407
f 335 407 336
f 336 407 408
f 336 408 337
f 337 408 389
f 337 389 385
f 337 385 338
f 341 409 342
f 342 409 410
f 342 410 345
f 345 410 346
f 346 410 411
f 346 411 347
f 347 411 412
f 347 412 413
f 347 413 350
f 347 349 348
f 350 413 351
f 351 413 414
f 351 414 352
f 352 414 415
f 352 415 416
f 352 416 362
f 354 404 417
f 354 417 356
f 354 356 355
f 354 369 418
f 354 418 404
f 356 417 403
f 357 402 419
f 357 419 420
f 357 420 358
f 358 420 421
f 358 421 359
f 359 421 422
f 359 422 360
f 360 422 423
f 360 423 424
f 360 424 361
f 361 424 425
f 361 425 370
f 362 416 426
f 362 426 367
f 363 368 427
f 363 427 428
f 363 428 364
f 364 428 429
f 364 429 430
f 364 430 366
f 365 366 430
f 365 430 431
f 365 431 432
f 365 432 369
f 367 426 368
f 368 426 427
f 369 432 433
f 369 433 418
f 370 425 372
f 371 372 434
f 371 434 373
f 372 425 435
f 372 435 434
f 373 434 436
f 373 436 399
f 373 399 374
f 376 398 437
f 376 437 438
f 376 438 439
f 376 439 377
f 377 439 380
f 377 380 378
f 380 439 440
f 380 440 381
f 381 440 441
f 381 441 442
f 381 442 382
f 382 443 383
f 382 442 443
f 383 443 444
f 383 444 384
f 384 444 467
f 384 467 409
f 385 389 386
f 387 390 445
f 387 445 446
f 387 446 388
f 388 446 447
f 388 447 448
f 388 448 449
f 388 449 391
f 389 408 450
f 389 450 451
f 389 451 452
f 389 452 445
f 389 445 390
f 391 449 448
f 391 448 453
f 391 453 392
f 392 453 393
f 393 453 448
f 393 448 454
f 393 454 455
f 393 455 456
f 393 456 457
f 393 457 397
f 393 397 395
f 393 395 394
f 395 397 396
f 397 458 459
f 397 459 437
f 397 437 398
f 397 457 458
f 399 436 400
f 400 460 401
f 400 436 434
f 400 434 461
f 400 461 460
f 401 460 419
f 401 419 402
f 403 417 404
f 404 418 433
f 404 433 462
f 404 462 463
f 404 463 464
f 404 464 405
f 405 464 406
f 406 464 465
f 406 465 466
f 406 466 407
f 407 466 450
f 407 450 408
f 409 467 410
f 410 468 411
f 410 467 468
f 411 468 469
f 411 469 412
f 412 469 470
f 412 470 471
f 412 471 413
f 413 471 414
f 414 471 415
f 415 471 472
f 415 472 416
f 416 472 473
f 416 473 426
f 419 460 461
f 419 461 420
f 420 474 421
f 420 461 488
f 420 488 474
f 421 475 422
f 421 474 476
f 421 476 475
f 422 475 423
f 423 475 476
f 423 476 477
f 423 477 424
f 424 477 478
f 424 478 425
f 425 478 479
f 425 479 435
f 426 473 480
f 426 480 481
f 426 481 427
f 427 482 430
f 427 430 429
f 427 429 428
f 427 481 483
f 427 483 484
f 427 484 482
f 430 482 485
f 430 485 486
f 430 486 487
f 430 487 462
f 430 462 433
f 430 433 431
f 431 433 432
f 434 488 461
f 434 435 488
f 435 479 488
f 437 459 489
f 437 489 438
f 438 489 440
f 438 440 439
f 440 489 490
f 440 490 441
f 441 490 508
f 441 508 470
f 441 470 469
f 441 469 442
f 442 469 468
f 442 468 443
f 443 468 467
f 443 467 444
f 445 452 447
f 445 447 446
f 447 452 448
f 448 491 492
f 448 492 454
f 448 452 493
f 448 493 491
f 450 466 494
f 450 494 451
f 451 494 495
f 451 495 496
f 451 496 497
f 451 497 452
f 452 497 496
f 452 496 493
f 454 498 499
f 454 499 455
f 454 492 500
f 454 500 498
f 455 499 501
f 455 501 456
f 456 501 502
f 456 502 457
f 457 502 458
f 458 502 503
f 458 503 504
f 458 504 459
f 459 504 490
f 459 490 489
f 462 487 505
f 462 505 506
f 462 506 463
f 463 506 507
f 463 507 464
f 464 507 465
f 465 507 494
f 465 494 466
f 470 508 472
f 470 472 471
f 472 508 473
f 473 508 509
f 473 509 480
f 474 510 476
f 474 488 479
f 474 479 510
f 476 510 477
f 477 510 479
f 477 479 478
f 480 511 481
f 480 509 512
f 480 512 511
f 481 511 483
f 482 484 513
f 482 513 514
f 482 514 515
f 482 515 485
f 483 511 516
f 483 516 484
f 484 516 513
f 485 515 486
f 486 515 517
f 486 517 505
f 486 505 487
f 490 504 509
f 490 509 508
f 491 518 500
f 491 500 492
f 491 493 496
f 491 496 518
f 494 507 519
f 494 519 495
f 495 519 524
f 495 524 520
f 495 520 496
f 496 520 521
f 496 521 518
f 498 500 515
f 498 515 514
f 498 514 513
f 498 513 499
f 499 513 516
f 499 516 501
f 500 518 517
f 500 517 515
f 501 516 525
f 501 525 522
f 501 522 502
f 502 522 503
f 503 512 509
f 503 509 504
f 503 522 525
f 503 525 512
f 505 517 523
f 505 523 524
f 505 524 519
f 505 519 507
f 505 507 506
f 511 512 525
f 511 525 516
f 517 518 521
f 517 521 523
f 520 524 523
f 520 523 521

