# https://github.com/mikedh/trimesh
v -0.05178493 0.00007525 0.07853083
v -0.04425148 0.03824011 0.06521743
v -0.05375250 0.00007525 0.07853083
v -0.05178493 -0.01420064 0.07853083
v -0.04384733 -0.02544251 0.07852523
v -0.02530972 0.03794469 0.03934114
v -0.04425148 0.03826406 0.05625594
v -0.05848173 0.03563724 0.04010847
v -0.05848173 0.03548553 0.04139108
v -0.05960555 0.03498252 0.04139108
v -0.05932548 0.03472703 0.04267369
v -0.06060173 0.03350543 0.04230963
v -0.04631476 0.03580491 0.06521743
v -0.05676233 0.00007525 0.07551193
v -0.05677296 -0.00065132 0.07551753
v -0.05376667 -0.00065132 0.07853083
v -0.04680753 0.03517415 0.06521743
v -0.04744921 0.03431983 0.06521743
v -0.04911543 0.03195648 0.06521743
v -0.04952312 0.03134169 0.06521743
v -0.05005490 0.03051931 0.06521743
v -0.05143396 0.02813201 0.06521743
v -0.05180266 0.02749327 0.06521743
v -0.05201891 -0.01332237 0.07853083
v -0.05318527 -0.01471164 0.07704099
v -0.05431263 -0.01598912 0.07560715
v -0.05300447 -0.01598912 0.07686736
v -0.05178493 -0.01471164 0.07839081
v -0.05082774 -0.01732250 0.07852523
v -0.05047323 -0.01832851 0.07852523
v -0.05038460 -0.01856006 0.07852523
v -0.05014707 -0.01916686 0.07852523
v -0.04980674 -0.02001320 0.07852523
v -0.04940613 -0.02092341 0.07852523
v -0.04873256 -0.02239251 0.07852523
v -0.04817597 -0.02356620 0.07852523
v -0.04798098 -0.02395743 0.07852523
v -0.04720105 -0.02544251 0.07852523
v -0.04685008 -0.02607327 0.07852523
v -0.04631122 -0.02697549 0.07852523
v -0.04595670 -0.02755834 0.07852523
v -0.04540720 -0.02843661 0.07852523
v -0.04493215 -0.02915520 0.07852523
v -0.04430820 -0.03004944 0.07852523
v -0.04384733 -0.02976999 0.07852523
v -0.03736679 -0.03296370 0.06522863
v -0.02531326 0.02742141 0.03959318
v -0.02530972 0.02742940 0.03934114
v -0.02530972 0.03794469 0.02131175
v -0.03306652 0.03794469 0.02131175
v -0.05848173 0.03563724 0.02133416
v -0.05968354 0.03506237 0.04010847
v -0.06032521 0.03446355 0.04010847
v -0.06024722 0.03435975 0.04139108
v -0.06080735 0.03372899 0.04139108
v -0.06136394 0.03261120 0.04139108
v -0.06086407 0.03265910 0.04271290
v -0.05704240 0.00007525 0.07521508
v -0.05244433 0.02631160 0.06521743
v -0.05741109 -0.00065132 0.07483422
v -0.05674460 -0.00192082 0.07549513
v -0.05371704 -0.00192082 0.07853083
v -0.05740400 0.00007525 0.07482862
v -0.05232025 -0.01215667 0.07853083
v -0.05479477 -0.01215667 0.07611683
v -0.05523082 -0.01386530 0.07525989
v -0.05448280 -0.01471164 0.07577518
v -0.05495076 -0.01598912 0.07497424
v -0.05411055 -0.01731451 0.07541111
v -0.05512447 -0.01471164 0.07514787
v -0.05178493 -0.01598912 0.07803235
v -0.05325617 -0.01731451 0.07622325
v -0.05386239 -0.01877564 0.07517588
v -0.05139851 -0.01779357 0.07783071
v -0.05302574 -0.01983755 0.07559595
v -0.05169985 -0.01983755 0.07683375
v -0.05153323 -0.02066791 0.07667692
v -0.05021443 -0.02059605 0.07792033
v -0.05266413 -0.02161804 0.07525989
v -0.05184875 -0.02239251 0.07567996
v -0.05141624 -0.02425285 0.07528789
v -0.04877155 -0.02407720 0.07776910
v -0.04798098 -0.02495547 0.07807156
v -0.04879991 -0.02671201 0.07651450
v -0.04745275 -0.02660023 0.07774110
v -0.04904453 -0.02841266 0.07544472
v -0.04743148 -0.02913923 0.07644169
v -0.04607014 -0.02901947 0.07765709
v -0.04765837 -0.03077601 0.07535511
v -0.04521576 -0.02965821 0.07800435
v -0.04384733 -0.03072012 0.07851963
v -0.03736679 -0.03394577 0.06522863
v -0.02531326 -0.04330334 0.03959318
v -0.02530972 0.02742940 0.02131175
v -0.03382163 0.03734587 0.02131175
v -0.05557825 0.03091853 0.02131735
v -0.05557825 0.03569312 0.02132856
v -0.05968354 0.03506237 0.02133416
v -0.06032521 0.03446355 0.02133416
v -0.06050247 0.03427991 0.02133416
v -0.06091016 0.03382480 0.04010847
v -0.06147030 0.03261120 0.04010847
v -0.06151638 0.03134169 0.04139108
v -0.06138521 0.03134169 0.04267369
v -0.06086407 0.02881866 0.04654953
v -0.05276339 0.02566487 0.06521743
v -0.05796414 0.00007525 0.07418451
v -0.06085698 0.02753319 0.04783215
v -0.05797123 -0.00065132 0.07419571
v -0.05738628 -0.00192082 0.07480621
v -0.05363905 -0.00319830 0.07853083
v -0.05369932 -0.00224818 0.07853083
v -0.05661344 -0.00576126 0.07536631
v -0.05252233 -0.01130235 0.07853083
v -0.05262159 -0.01087120 0.07853083
v -0.05559597 -0.01087120 0.07561835
v -0.05545062 -0.01215667 0.07547273
v -0.05608875 -0.01215667 0.07480061
v -0.05553216 -0.01598912 0.07433014
v -0.05539745 -0.01697119 0.07417331
v -0.05488340 -0.01731451 0.07459898
v -0.05666307 -0.01215667 0.07416211
v -0.05425591 -0.01983755 0.07433574
v -0.05366741 -0.01983755 0.07497424
v -0.05284494 -0.02076372 0.07542232
v -0.05338734 -0.02117092 0.07470540
v -0.05310018 -0.02239251 0.07444216
v -0.05248687 -0.02239251 0.07508066
v -0.05125316 -0.02495547 0.07513107
v -0.05061149 -0.02495547 0.07571917
v -0.05036332 -0.02596947 0.07548953
v -0.05013289 -0.02681581 0.07528789
v -0.04930332 -0.02751044 0.07567436
v -0.04994145 -0.02751044 0.07510306
v -0.04878573 -0.02925900 0.07522068
v -0.04788881 -0.03007339 0.07555114
v -0.04852694 -0.03007339 0.07498544
v -0.04895945 -0.03081593 0.07411170
v -0.04815824 -0.03122313 0.07460458
v -0.04735704 -0.03163033 0.07509186
v -0.04646011 -0.03296370 0.07505266
v -0.04606305 -0.03296370 0.07539431
v -0.04482579 -0.03296370 0.07640808
v -0.04384733 -0.03205349 0.07774110
v -0.03739161 -0.04104379 0.06522863
v -0.04160325 -0.04104379 0.06522863
v -0.04161034 -0.04104379 0.05833949
v -0.04161034 -0.04104379 0.05626154
v -0.02531326 -0.04328737 0.03490521
v -0.02531326 -0.04323149 0.02131735
v -0.03984485 -0.03090376 0.02131175
v -0.03445976 0.03681093 0.02131175
v -0.06147030 0.03261120 0.02133416
v -0.06091016 0.03382480 0.02133416
v -0.03517943 0.03617218 0.02131175
v -0.03581756 0.03554941 0.02131175
v -0.03639542 0.03490268 0.02131175
v -0.03703354 0.03416813 0.02131175
v -0.04114238 0.02935361 0.02131175
v -0.04162806 0.02871487 0.02131175
v -0.04226619 0.02779667 0.02131175
v -0.04248954 0.02742940 0.02131175
v -0.04318084 0.02621579 0.02131175
v -0.04512713 0.02277456 0.02131175
v -0.04537529 0.02232744 0.02131175
v -0.04601697 0.02116972 0.02131175
v -0.04635375 0.02052299 0.02131175
v -0.04664446 0.01982836 0.02131175
v -0.04711242 0.01854289 0.02131175
v -0.04843831 0.01463858 0.02131175
v -0.05557825 0.00005130 0.02131735
v -0.06151638 -0.02838871 0.02132856
v -0.06150930 0.00006727 0.02132856
v -0.06152702 0.03134169 0.04010847
v -0.06152702 0.02877874 0.04267369
v -0.06151638 0.02621579 0.04650473
v -0.06138521 0.02750125 0.04650473
v -0.05368868 0.02366880 0.06521743
v -0.05399356 0.02300610 0.06521743
v -0.05427718 0.02235938 0.06521743
v -0.05477350 0.02110585 0.06521743
v -0.05836474 0.00007525 0.07339478
v -0.05837892 -0.00065132 0.07339478
v -0.06132849 0.02621579 0.04778734
v -0.05569878 0.01855088 0.06521743
v -0.05794641 -0.00192082 0.07416211
v -0.05790033 -0.00319830 0.07411170
v -0.05734374 -0.00319830 0.07475021
v -0.05353624 -0.00463548 0.07853083
v -0.05721966 -0.00576126 0.07467739
v -0.05658153 -0.00651178 0.07532710
v -0.05343698 -0.00576126 0.07853083
v -0.05275276 -0.01024842 0.07853083
v -0.05623410 -0.01087120 0.07496864
v -0.05288393 -0.00959371 0.07853083
v -0.05377731 -0.00959371 0.07765149
v -0.05635109 -0.00959371 0.07509746
v -0.05657798 -0.01284331 0.07405009
v -0.05525210 -0.01782551 0.07397168
v -0.05646808 -0.01369763 0.07383726
v -0.05607103 -0.01598912 0.07339478
v -0.05680133 -0.01087120 0.07433014
v -0.05731892 -0.01087120 0.07339478
v -0.05409283 -0.02070783 0.07414531
v -0.05287684 -0.02336660 0.07420692
v -0.05187002 -0.02495547 0.07448696
v -0.05162540 -0.02596149 0.07424052
v -0.05088801 -0.02639264 0.07476141
v -0.05057603 -0.02751044 0.07445896
v -0.05031369 -0.02840468 0.07420692
v -0.04955149 -0.02883583 0.07471660
v -0.04918279 -0.03007339 0.07434694
v -0.05141269 -0.02681581 0.07397728
v -0.05005490 -0.02925900 0.07384286
v -0.04981028 -0.03006541 0.07340598
v -0.04911189 -0.03129499 0.07327156
v -0.04866165 -0.03167025 0.07361882
v -0.04771864 -0.03296370 0.07370283
v -0.04781082 -0.03227706 0.07424052
v -0.04691389 -0.03296370 0.07462138
v -0.04384733 -0.03296370 0.07719221
v -0.04732158 -0.03296370 0.07419011
v -0.04799516 -0.03296370 0.07317635
v -0.05960555 -0.03498372 0.04139668
v -0.05848173 -0.03562247 0.04011407
v -0.05848173 -0.03562247 0.02132856
v -0.05521664 -0.03569433 0.02131735
v -0.03996893 -0.03076004 0.02131175
v -0.06152702 0.03134169 0.02133416
v -0.04843831 -0.01477551 0.02131175
v -0.06151638 -0.03133491 0.02132856
v -0.06152702 0.02750125 0.04394510
v -0.06148802 0.00063415 0.04778734
v -0.06142066 0.02493830 0.04778734
v -0.06151638 -0.02622497 0.04651033
v -0.05872635 0.00007525 0.07211217
v -0.05872989 -0.00065132 0.07211217
v -0.05868381 -0.00192082 0.07211217
v -0.05832929 -0.00192082 0.07339478
v -0.05786842 -0.00417239 0.07406689
v -0.05781170 -0.00576126 0.07397168
v -0.05700695 -0.00697487 0.07477821
v -0.05783651 -0.00501872 0.07402208
v -0.05652126 -0.00736610 0.07527109
v -0.05330935 -0.00683914 0.07853083
v -0.05401484 -0.00644791 0.07788112
v -0.05309664 -0.00831623 0.07853083
v -0.05581223 -0.00831623 0.07583679
v -0.05645036 -0.00831623 0.07519828
v -0.05701404 -0.00831623 0.07455977
v -0.05691123 -0.00959371 0.07445896
v -0.05705303 -0.01215667 0.07339478
v -0.05563852 -0.01731451 0.07348440
v -0.05541163 -0.01856006 0.07304192
v -0.05512447 -0.01856006 0.07368043
v -0.05392621 -0.02156215 0.07389326
v -0.05675524 -0.01333834 0.07340598
v -0.05666307 -0.01445614 0.07298591
v -0.05654962 -0.01531046 0.07264986
v -0.05774434 -0.00703874 0.07382605
v -0.05765216 -0.00831623 0.07360202
v -0.05792869 -0.00831623 0.07296351
v -0.05786488 -0.00908272 0.07281228
v -0.05267831 -0.02422091 0.07394927
v -0.05252942 -0.02503531 0.07347319
v -0.05189838 -0.02632078 0.07349000
v -0.05162540 -0.02718308 0.07312594
v -0.05027824 -0.02962627 0.07299151
v -0.04889209 -0.03199760 0.07276748
v -0.06060173 -0.03349865 0.04231523
v -0.06080381 -0.03372221 0.04139668
v -0.06024722 -0.03436893 0.04139668
v -0.06032521 -0.03446475 0.04011407
v -0.05968354 -0.03505558 0.04011407
v -0.05931484 -0.03523922 0.02132856
v -0.05968354 -0.03506357 0.03502843
v -0.04773991 -0.01694723 0.02131175
v -0.04766901 -0.01714684 0.02131175
v -0.04664800 -0.01982956 0.02131175
v -0.04635730 -0.02053218 0.02131175
v -0.04608432 -0.02103519 0.02131175
v -0.04537175 -0.02232864 0.02131175
v -0.04331556 -0.02596947 0.02131175
v -0.04264907 -0.02714316 0.02131175
v -0.04227328 -0.02778190 0.02131175
v -0.04163515 -0.02871607 0.02131175
v -0.04115301 -0.02935481 0.02131175
v -0.05968354 -0.03506357 0.02132856
v -0.05988207 -0.03488791 0.02132856
v -0.06032521 -0.03446475 0.02132856
v -0.06091016 -0.03382600 0.02132856
v -0.06146675 -0.03262836 0.02132856
v -0.06152702 0.02877874 0.02133416
v -0.06151638 -0.03133491 0.04139668
v -0.06152702 0.02750125 0.02221911
v -0.06151638 -0.03006541 0.04267369
v -0.06151638 -0.02751044 0.04522772
v -0.06148802 -0.00064333 0.04778734
v -0.06138521 -0.02751044 0.04651033
v -0.06132849 -0.02622497 0.04778734
v -0.06141712 -0.02493950 0.04778734
v -0.05859872 -0.00319830 0.07211217
v -0.05809531 -0.00576126 0.07332757
v -0.05824421 -0.00319830 0.07339478
v -0.05802441 -0.00703874 0.07319315
v -0.05529109 -0.01922276 0.07277308
v -0.05488694 -0.01972577 0.07327716
v -0.05430199 -0.02113100 0.07343399
v -0.05413183 -0.02204121 0.07303632
v -0.05375604 -0.02243244 0.07343399
v -0.05827966 -0.00703874 0.07211217
v -0.05288393 -0.02466005 0.07309793
v -0.06086407 -0.03266828 0.04271290
v -0.06136040 -0.03262836 0.04139668
v -0.06091016 -0.03382600 0.04011407
v -0.06146675 -0.03262836 0.04011407
v -0.06138521 -0.03133491 0.04267369
v -0.05842146 -0.00576126 0.07211217
f 1 2 3
f 1 3 16
f 1 16 62
f 1 62 112
f 1 112 111
f 1 111 189
f 1 189 192
f 1 192 245
f 1 245 247
f 1 247 195
f 1 195 193
f 1 193 115
f 1 115 114
f 1 114 64
f 1 64 24
f 1 24 4
f 1 4 45
f 1 45 5
f 1 5 2
f 2 6 7
f 2 7 8
f 2 8 9
f 2 9 10
f 2 10 11
f 2 11 12
f 2 12 13
f 2 13 3
f 2 5 6
f 3 14 15
f 3 15 16
f 3 13 17
f 3 17 18
f 3 18 19
f 3 19 20
f 3 20 21
f 3 21 22
f 3 22 23
f 3 23 14
f 4 24 25
f 4 25 26
f 4 26 27
f 4 27 28
f 4 28 29
f 4 29 30
f 4 30 31
f 4 31 32
f 4 32 33
f 4 33 34
f 4 34 35
f 4 35 36
f 4 36 37
f 4 37 38
f 4 38 39
f 4 39 40
f 4 40 41
f 4 41 42
f 4 42 43
f 4 43 44
f 4 44 45
f 5 45 92
f 5 92 46
f 5 46 47
f 5 47 6
f 6 47 93
f 6 93 48
f 6 48 94
f 6 94 49
f 6 49 7
f 7 49 50
f 7 50 51
f 7 51 8
f 8 51 98
f 8 98 52
f 8 52 10
f 8 10 9
f 10 52 53
f 10 53 54
f 10 54 11
f 11 54 12
f 12 55 56
f 12 56 57
f 12 57 23
f 12 23 22
f 12 22 21
f 12 21 20
f 12 20 19
f 12 19 18
f 12 18 17
f 12 17 13
f 12 54 55
f 14 58 15
f 14 23 59
f 14 59 58
f 15 60 61
f 15 61 62
f 15 62 16
f 15 58 63
f 15 63 60
f 23 57 59
f 24 64 65
f 24 65 66
f 24 66 25
f 25 66 67
f 25 67 26
f 26 68 69
f 26 69 27
f 26 67 70
f 26 70 68
f 27 69 71
f 27 71 28
f 28 71 29
f 29 72 73
f 29 73 74
f 29 74 30
f 29 71 72
f 30 74 73
f 30 73 75
f 30 75 31
f 31 75 76
f 31 76 32
f 32 76 33
f 33 76 77
f 33 77 78
f 33 78 34
f 34 78 79
f 34 79 35
f 35 80 81
f 35 81 82
f 35 82 36
f 35 79 80
f 36 82 37
f 37 82 83
f 37 83 38
f 38 83 84
f 38 84 39
f 39 84 85
f 39 85 40
f 40 85 86
f 40 86 41
f 41 86 87
f 41 87 88
f 41 88 42
f 42 88 43
f 43 88 89
f 43 89 90
f 43 90 91
f 43 91 44
f 44 91 45
f 45 91 92
f 46 92 93
f 46 93 47
f 48 93 94
f 49 94 151
f 49 151 228
f 49 228 287
f 49 287 286
f 49 286 285
f 49 285 284
f 49 284 283
f 49 283 282
f 49 282 281
f 49 281 280
f 49 280 279
f 49 279 278
f 49 278 277
f 49 277 230
f 49 230 170
f 49 170 169
f 49 169 168
f 49 168 167
f 49 167 166
f 49 166 165
f 49 165 164
f 49 164 163
f 49 163 162
f 49 162 161
f 49 161 160
f 49 160 159
f 49 159 158
f 49 158 157
f 49 157 156
f 49 156 155
f 49 155 152
f 49 152 95
f 49 95 50
f 50 95 96
f 50 96 97
f 50 97 51
f 51 97 98
f 52 98 99
f 52 99 53
f 53 99 100
f 53 100 101
f 53 101 54
f 54 101 55
f 55 101 56
f 56 101 102
f 56 102 103
f 56 103 104
f 56 104 57
f 57 104 105
f 57 105 59
f 58 59 63
f 59 106 107
f 59 107 63
f 59 105 108
f 59 108 106
f 60 109 110
f 60 110 61
f 60 63 109
f 61 111 112
f 61 112 62
f 61 110 113
f 61 113 111
f 63 107 109
f 64 114 65
f 65 114 115
f 65 115 116
f 65 116 117
f 65 117 66
f 66 70 67
f 66 117 118
f 66 118 70
f 68 119 120
f 68 120 121
f 68 121 69
f 68 70 119
f 69 121 73
f 69 73 72
f 69 72 71
f 70 118 122
f 70 122 119
f 73 123 124
f 73 124 75
f 73 121 120
f 73 120 123
f 75 124 125
f 75 125 76
f 76 125 77
f 77 125 79
f 77 79 78
f 79 125 124
f 79 124 126
f 79 126 127
f 79 127 128
f 79 128 129
f 79 129 81
f 79 81 80
f 81 129 130
f 81 130 82
f 82 130 131
f 82 131 83
f 83 131 84
f 84 132 133
f 84 133 86
f 84 86 85
f 84 131 132
f 86 133 132
f 86 132 134
f 86 134 135
f 86 135 87
f 87 135 136
f 87 136 88
f 88 136 89
f 89 136 135
f 89 135 137
f 89 137 138
f 89 138 139
f 89 139 140
f 89 140 141
f 89 141 142
f 89 142 91
f 89 91 90
f 91 142 143
f 91 143 144
f 91 144 145
f 91 145 92
f 92 145 93
f 93 145 146
f 93 146 147
f 93 147 148
f 93 148 149
f 93 149 94
f 94 149 150
f 94 150 151
f 95 152 96
f 96 153 154
f 96 154 100
f 96 100 99
f 96 99 98
f 96 98 97
f 96 152 155
f 96 155 156
f 96 156 157
f 96 157 158
f 96 158 159
f 96 159 160
f 96 160 161
f 96 161 162
f 96 162 163
f 96 163 164
f 96 164 165
f 96 165 166
f 96 166 167
f 96 167 168
f 96 168 169
f 96 169 170
f 96 170 230
f 96 230 171
f 96 171 231
f 96 231 172
f 96 172 173
f 96 173 153
f 100 154 101
f 101 154 153
f 101 153 102
f 102 153 229
f 102 229 174
f 102 174 103
f 103 174 175
f 103 175 176
f 103 176 104
f 104 176 177
f 104 177 105
f 105 177 108
f 106 178 107
f 106 108 178
f 107 178 179
f 107 179 180
f 107 180 181
f 107 181 182
f 107 182 183
f 107 183 109
f 108 177 184
f 108 184 182
f 108 182 185
f 108 185 181
f 108 181 180
f 108 180 179
f 108 179 178
f 109 183 186
f 109 186 110
f 110 186 187
f 110 187 188
f 110 188 113
f 111 113 189
f 113 190 191
f 113 191 192
f 113 192 189
f 113 188 190
f 115 193 116
f 116 194 117
f 116 193 195
f 116 195 196
f 116 196 197
f 116 197 194
f 117 194 118
f 118 194 122
f 119 122 198
f 119 198 120
f 120 199 123
f 120 198 200
f 120 200 201
f 120 201 199
f 122 194 202
f 122 202 203
f 122 203 198
f 123 199 204
f 123 204 124
f 124 204 126
f 126 204 127
f 127 205 128
f 127 204 205
f 128 205 129
f 129 206 207
f 129 207 208
f 129 208 132
f 129 132 131
f 129 131 130
f 129 205 206
f 132 208 134
f 134 209 210
f 134 210 211
f 134 211 135
f 134 208 209
f 135 211 212
f 135 212 137
f 137 212 138
f 138 212 210
f 138 210 213
f 138 213 214
f 138 214 215
f 138 215 216
f 138 216 217
f 138 217 218
f 138 218 219
f 138 219 139
f 139 219 140
f 140 219 141
f 141 219 220
f 141 220 146
f 141 146 142
f 142 146 143
f 143 221 144
f 143 146 221
f 144 221 145
f 145 221 146
f 146 220 222
f 146 222 218
f 146 218 223
f 146 223 224
f 146 224 225
f 146 225 147
f 147 225 226
f 147 226 148
f 148 150 149
f 148 226 150
f 150 226 227
f 150 227 151
f 151 227 228
f 153 173 229
f 171 230 227
f 171 227 231
f 172 231 293
f 172 293 229
f 172 229 173
f 174 229 293
f 174 293 295
f 174 295 232
f 174 232 175
f 175 232 176
f 176 233 234
f 176 234 184
f 176 184 177
f 176 232 235
f 176 235 233
f 181 185 182
f 182 236 183
f 182 184 236
f 183 236 237
f 183 237 238
f 183 238 239
f 183 239 186
f 184 234 236
f 186 239 240
f 186 240 187
f 187 240 188
f 188 240 190
f 190 241 242
f 190 242 191
f 190 240 243
f 190 243 241
f 191 242 244
f 191 244 245
f 191 245 246
f 191 246 192
f 192 246 245
f 194 197 202
f 195 247 196
f 196 247 248
f 196 248 197
f 197 248 249
f 197 249 250
f 197 250 251
f 197 251 202
f 198 203 252
f 198 252 200
f 199 253 254
f 199 254 255
f 199 255 256
f 199 256 204
f 199 201 253
f 200 252 257
f 200 257 258
f 200 258 201
f 201 258 259
f 201 259 253
f 202 251 260
f 202 260 261
f 202 261 203
f 203 261 262
f 203 262 263
f 203 263 252
f 204 256 205
f 205 256 264
f 205 264 207
f 205 207 206
f 207 213 209
f 207 209 208
f 207 264 213
f 209 213 210
f 210 212 211
f 213 264 265
f 213 265 266
f 213 266 267
f 213 267 268
f 213 268 215
f 213 215 214
f 215 268 216
f 216 269 218
f 216 218 217
f 216 268 269
f 218 222 219
f 218 269 223
f 219 222 220
f 223 270 271
f 223 271 272
f 223 272 224
f 223 269 270
f 224 272 273
f 224 273 274
f 224 274 225
f 225 275 226
f 225 274 276
f 225 276 275
f 226 275 227
f 227 277 278
f 227 278 279
f 227 279 280
f 227 280 281
f 227 281 282
f 227 282 283
f 227 283 284
f 227 284 285
f 227 285 286
f 227 286 287
f 227 287 228
f 227 275 288
f 227 288 289
f 227 289 290
f 227 290 291
f 227 291 292
f 227 292 231
f 227 230 277
f 231 292 316
f 231 316 294
f 231 294 232
f 231 232 295
f 231 295 293
f 232 294 296
f 232 296 297
f 232 297 235
f 233 298 237
f 233 237 234
f 233 235 298
f 234 237 236
f 235 297 299
f 235 299 300
f 235 300 301
f 235 301 298
f 237 298 301
f 237 301 238
f 238 302 303
f 238 303 239
f 238 301 302
f 239 303 304
f 239 304 241
f 239 241 243
f 239 243 240
f 241 304 303
f 241 303 305
f 241 305 260
f 241 260 250
f 241 250 242
f 242 250 244
f 244 250 249
f 244 249 248
f 244 248 247
f 244 247 245
f 250 260 251
f 252 263 300
f 252 300 258
f 252 258 257
f 253 259 254
f 254 306 307
f 254 307 255
f 254 259 299
f 254 299 306
f 255 307 308
f 255 308 256
f 256 308 309
f 256 309 310
f 256 310 264
f 258 300 259
f 259 300 299
f 260 305 261
f 261 305 262
f 262 305 311
f 262 311 300
f 262 300 263
f 264 310 309
f 264 309 265
f 265 309 312
f 265 312 266
f 266 312 267
f 267 312 313
f 267 313 270
f 267 270 268
f 268 270 269
f 270 313 314
f 270 314 271
f 271 314 315
f 271 315 272
f 272 315 273
f 273 315 291
f 273 291 290
f 273 290 289
f 273 289 276
f 273 276 274
f 275 276 288
f 276 289 288
f 291 315 316
f 291 316 292
f 294 316 314
f 294 314 317
f 294 317 296
f 296 317 299
f 296 299 297
f 299 317 306
f 300 311 318
f 300 318 302
f 300 302 301
f 302 318 303
f 303 318 305
f 305 318 311
f 306 309 308
f 306 308 307
f 306 317 314
f 306 314 309
f 309 314 313
f 309 313 312
f 314 316 315

