mtllib material.mtl
usemtl motor
v -0.04021700 -0.02952900 0.07719600
v -0.04021700 -0.02952900 0.07719600
v -0.03732600 -0.03301100 0.07719600
v -0.04497700 -0.02184100 0.07719600
v -0.04497700 -0.02184100 0.07719600
v -0.04277500 -0.02579500 0.07719600
v -0.04277500 -0.02579500 0.07719600
v -0.04125300 -0.02810500 0.07719600
v -0.04125300 -0.02810500 0.07719600
v -0.04885800 -0.01102300 0.07719700
v -0.04885800 -0.01102300 0.07719700
v -0.04824400 -0.01341000 0.07719700
v -0.04824400 -0.01341000 0.07719700
v -0.04680500 -0.01770100 0.07719700
v -0.04680500 -0.01770100 0.07719700
v -0.04587800 -0.01993000 0.07719700
v -0.04587800 -0.01993000 0.07719700
v -0.05011400 0.00000000 0.07719700
v -0.05011400 0.00000000 0.07719700
v -0.05011400 0.00000000 0.07719700
v -0.04990500 -0.00452100 0.07719700
v -0.04990500 -0.00452100 0.07719700
v -0.04990500 -0.00452100 0.07719700
v -0.04928000 -0.00900400 0.07719700
v -0.04928000 -0.00900400 0.07719700
v -0.03515300 -0.03524800 0.00300000
v -0.05011500 0.00000000 0.00300000
v -0.05011500 0.00000000 0.00300000
v -0.05011500 0.00000000 0.00300000
v -0.05008500 -0.00171000 0.00300000
v -0.05008500 -0.00171000 0.00300000
v -0.04885900 -0.01102300 0.00300000
v -0.04885900 -0.01102300 0.00300000
v -0.04885900 -0.01102300 0.00300000
v -0.04885900 -0.01102300 0.00300000
v -0.04587800 -0.01993000 0.00300000
v -0.04587800 -0.01993000 0.00300000
v -0.04587800 -0.01993000 0.00300000
v -0.04587800 -0.01993000 0.00300000
v -0.04125300 -0.02810500 0.00300000
v -0.04125300 -0.02810500 0.00300000
v -0.04125300 -0.02810500 0.00300000
v -0.04125300 -0.02810500 0.00300000
v -0.03515300 0.03524800 0.00300000
v -0.03515300 0.03524800 0.00300000
v -0.03515300 0.03524800 0.07719600
v -0.05008500 0.00171000 0.00300000
v -0.05008500 0.00171000 0.00300000
v -0.05008500 0.00171000 0.00300000
v -0.05008500 0.00171000 0.00300000
v -0.03617900 0.03422700 0.07719600
v -0.03617900 0.03422700 0.07719600
v -0.04125300 0.02810500 0.00300000
v -0.04125300 0.02810500 0.00300000
v -0.04125300 0.02810500 0.00300000
v -0.04125300 0.02810500 0.00300000
v -0.04040500 0.02927800 0.07719600
v -0.04040500 0.02927800 0.07719600
v -0.04587800 0.01993000 0.00300000
v -0.04587800 0.01993000 0.00300000
v -0.04587800 0.01993000 0.00300000
v -0.04587800 0.01993000 0.00300000
v -0.04393900 0.02381300 0.07719600
v -0.04393900 0.02381300 0.07719600
v -0.04393900 0.02381300 0.07719600
v -0.04125300 0.02810500 0.07719600
v -0.04125300 0.02810500 0.07719600
v -0.04885900 0.01102300 0.00300000
v -0.04885900 0.01102300 0.00300000
v -0.04885900 0.01102300 0.00300000
v -0.04885900 0.01102300 0.00300000
v -0.04671700 0.01792800 0.07719700
v -0.04671700 0.01792800 0.07719700
v -0.04671700 0.01792800 0.07719700
v -0.04587800 0.01993000 0.07719700
v -0.04587800 0.01993000 0.07719700
v -0.04982500 0.00531800 0.07719700
v -0.04982500 0.00531800 0.07719700
v -0.04885900 0.01102300 0.07719700
v -0.04885900 0.01102300 0.07719700
v -0.04885900 0.01102300 0.07719700
v -0.04869100 0.01172600 0.07719700
v -0.04869100 0.01172600 0.07719700
v -0.01115300 0.05458500 0.07050800
v -0.01606900 0.05344700 0.01200000
v -0.01606900 0.05344700 0.01200000
v -0.01606900 0.05344700 0.07050800
v -0.01606900 0.05344700 0.07050800
v -0.01606900 0.05344700 0.07050800
v -0.01663400 0.05328600 0.01200000
v -0.01663400 0.05328600 0.01200000
v -0.01663400 0.05328600 0.01200000
v -0.02086100 0.05186800 0.07050800
v -0.02086100 0.05186800 0.07050800
v -0.02235400 0.05127500 0.01200000
vn -0.80860000 -0.58830000 -0.00000000
vn -0.76940000 -0.63880000 -0.00150000
vn -0.76280000 -0.64660000 -0.00240000
vn -0.87370000 -0.48650000 -0.00190000
vn -0.90450000 -0.42650000 -0.00000000
vn -0.83500000 -0.55020000 -0.00000000
vn -0.87130000 -0.49080000 -0.00230000
vn -0.83500000 -0.55020000 -0.00000000
vn -0.80860000 -0.58830000 -0.00000000
vn -0.97890000 -0.20430000 -0.00000000
vn -0.96850000 -0.24910000 -0.00000000
vn -0.94810000 -0.31790000 -0.00240000
vn -0.96850000 -0.24910000 -0.00000000
vn -0.92330000 -0.38400000 -0.00000000
vn -0.94820000 -0.31760000 -0.00240000
vn -0.92330000 -0.38400000 -0.00000000
vn -0.90450000 -0.42650000 -0.00000000
vn -0.99890000 -0.04620000 -0.00000000
vn -0.99980000 0.01750000 -0.00000000
vn -0.99850000 0.05430000 0.00090000
vn -0.99040000 -0.13810000 -0.00280000
vn -0.99890000 -0.04620000 -0.00000000
vn -0.99980000 -0.01750000 0.00180000
vn -0.99120000 -0.13250000 -0.00230000
vn -0.97890000 -0.20430000 -0.00000000
vn -0.76040000 -0.64940000 -0.00270000
vn -0.99890000 -0.04620000 -0.00000000
vn -0.99980000 0.01750000 -0.00000000
vn -0.99980000 -0.01750000 0.00180000
vn -0.99980000 -0.01750000 0.00180000
vn -0.99070000 -0.13600000 -0.00260000
vn -0.99140000 -0.13050000 -0.00210000
vn -0.94830000 -0.31740000 -0.00230000
vn -0.96850000 -0.24910000 -0.00000000
vn -0.97890000 -0.20430000 -0.00000000
vn -0.90450000 -0.42650000 -0.00000000
vn -0.94830000 -0.31740000 -0.00230000
vn -0.87270000 -0.48820000 -0.00210000
vn -0.92330000 -0.38400000 -0.00000000
vn -0.80860000 -0.58830000 -0.00000000
vn -0.83500000 -0.55020000 -0.00000000
vn -0.76690000 -0.64180000 -0.00180000
vn -0.87040000 -0.49240000 -0.00250000
vn -0.70540000 0.70880000 -0.00000000
vn -0.76040000 0.64940000 -0.00160000
vn -0.70540000 0.70880000 -0.00000000
vn -0.99850000 0.05430000 0.00090000
vn -0.99980000 0.01750000 -0.00000000
vn -0.99140000 0.13050000 -0.00000000
vn -0.98600000 0.16690000 -0.00470000
vn -0.76050000 0.64940000 -0.00160000
vn -0.70540000 0.70880000 -0.00000000
vn -0.81040000 0.58590000 -0.00000000
vn -0.76040000 0.64940000 -0.00160000
vn -0.87040000 0.49240000 -0.00300000
vn -0.84770000 0.53050000 -0.00000000
vn -0.76050000 0.64940000 -0.00160000
vn -0.81040000 0.58590000 -0.00000000
vn -0.87040000 0.49240000 -0.00300000
vn -0.89470000 0.44680000 -0.00000000
vn -0.92230000 0.38650000 -0.00000000
vn -0.94830000 0.31740000 -0.00220000
vn -0.84770000 0.53050000 -0.00000000
vn -0.87040000 0.49240000 -0.00300000
vn -0.89470000 0.44680000 -0.00000000
vn -0.84770000 0.53050000 -0.00000000
vn -0.81040000 0.58590000 -0.00000000
vn -0.94830000 0.31740000 -0.00220000
vn -0.95290000 0.30330000 -0.00070000
vn -0.97260000 0.23240000 -0.00000000
vn -0.99140000 0.13050000 -0.00000000
vn -0.94830000 0.31740000 -0.00220000
vn -0.92230000 0.38650000 -0.00000000
vn -0.95290000 0.30330000 -0.00070000
vn -0.92230000 0.38650000 -0.00000000
vn -0.89470000 0.44680000 -0.00000000
vn -0.99850000 0.05430000 0.00090000
vn -0.98600000 0.16690000 -0.00470000
vn -0.98600000 0.16690000 -0.00470000
vn -0.99140000 0.13050000 -0.00000000
vn -0.97260000 0.23240000 -0.00000000
vn -0.97260000 0.23240000 -0.00000000
vn -0.95290000 0.30330000 -0.00070000
vn 0.22270000 -0.97490000 0.00020000
vn 0.22430000 -0.97450000 0.00010000
vn 0.27460000 -0.96160000 -0.00000000
vn 0.22550000 -0.97420000 -0.00000000
vn 0.27460000 -0.96160000 -0.00000000
vn 0.31300000 -0.94980000 -0.00040000
vn 0.27460000 -0.96160000 -0.00000000
vn 0.31300000 -0.94980000 -0.00040000
vn 0.33170000 -0.94340000 0.00110000
vn 0.31300000 -0.94980000 -0.00040000
vn 0.33170000 -0.94340000 0.00110000
vn 0.33170000 -0.94340000 0.00110000
f 18//18 27//27 22//22
f 23//23 29//29 30//30
f 21//21 31//31 24//24
f 24//24 31//31 32//32
f 25//25 35//35 10//10
f 39//39 16//16 14//14
f 37//37 15//15 33//33
f 33//33 15//15 12//12
f 34//34 13//13 11//11
f 1//1 9//9 40//40
f 41//41 8//8 6//6
f 43//43 7//7 38//38
f 38//38 7//7 4//4
f 36//36 5//5 17//17
f 2//2 42//42 3//3
f 3//3 42//42 26//26
f 48//48 28//28 19//19
f 46//46 44//44 52//52
f 51//51 45//45 54//54
f 51//51 54//54 57//57
f 59//59 64//64 55//55
f 56//56 63//63 66//66
f 53//53 67//67 58//58
f 68//68 72//72 62//62
f 61//61 73//73 75//75
f 60//60 76//76 65//65
f 20//20 77//77 47//47
f 50//50 78//78 79//79
f 49//49 80//80 71//71
f 70//70 81//81 82//82
f 69//69 83//83 74//74
f 85//85 84//84 87//87
f 86//86 88//88 90//90
f 91//91 89//89 93//93
f 92//92 94//94 95//95

