# https://github.com/mikedh/trimesh
v -0.02886977 -0.01134924 -0.01465083
v -0.02886977 -0.00340105 -0.01458642
v -0.02795405 -0.00399624 -0.01453275
v -0.02795405 -0.01134924 -0.01459000
v -0.02795405 -0.01226850 -0.01456137
v -0.02886977 -0.01226850 -0.01461862
v -0.02890107 -0.01226956 -0.01461504
v -0.02890107 -0.01135030 -0.01464367
v -0.02890107 -0.01041198 -0.01463651
v -0.02890107 -0.00765420 -0.01461504
v -0.02795405 -0.00340105 -0.01452559
v -0.02942546 -0.00340105 -0.01441825
v -0.02762532 -0.00340105 -0.01448623
v -0.02429898 -0.00340105 -0.01407117
v -0.02610694 -0.00910511 -0.01434311
v -0.02610694 -0.01134924 -0.01436100
v -0.02375893 -0.01191054 -0.01406043
v -0.02703049 -0.01226850 -0.01444687
v -0.02391547 -0.01252373 -0.01403896
v -0.02453378 -0.01277896 -0.01407832
v -0.02518339 -0.01285416 -0.01412126
v -0.02610694 -0.01294629 -0.01417851
v -0.02703049 -0.01302360 -0.01423576
v -0.02795405 -0.01308609 -0.01429301
v -0.02886977 -0.01311045 -0.01432164
v -0.02890107 -0.01310727 -0.01431806
v -0.02959765 -0.01298018 -0.01423218
v -0.02974636 -0.01226956 -0.01433595
v -0.02973070 -0.00340105 -0.01432164
v -0.02976984 -0.01135030 -0.01435026
v -0.02975418 -0.00767433 -0.01433953
v -0.02975418 -0.00700606 -0.01433595
v -0.01417123 -0.00340105 -0.01280093
v 0.03300811 -0.00981255 -0.00693995
v 0.03639707 -0.01134924 -0.00652489
v 0.03502740 -0.01162459 -0.00669664
v 0.03502740 -0.01183852 -0.00669664
v 0.03639707 -0.01226956 -0.00650342
v 0.01283088 -0.01248031 -0.00944107
v 0.03427603 -0.01277896 -0.00672169
v -0.01717668 -0.01277896 -0.01315874
v -0.01048485 -0.01285627 -0.01228210
v 0.03271852 -0.01296112 -0.00681830
v 0.03179497 -0.01304373 -0.00687912
v 0.03689798 -0.01365162 -0.00578064
v 0.02951740 -0.01365056 -0.00669664
v 0.00737567 -0.01364421 -0.00944464
v -0.02273363 -0.01365904 -0.01315159
v -0.02795405 -0.01354572 -0.01387437
v -0.02886977 -0.01357007 -0.01388511
v -0.02890107 -0.01355419 -0.01389584
v -0.02944112 -0.01370246 -0.01331618
v -0.02983245 -0.01321317 -0.01363106
v -0.03622686 -0.01318670 -0.00438517
v -0.03674343 -0.01283403 -0.00402377
v -0.03031771 -0.01283403 -0.01333049
v -0.03020813 -0.01226956 -0.01393878
v -0.03022378 -0.01135030 -0.01398171
v -0.03020813 -0.00700606 -0.01395667
v -0.03018465 -0.00340105 -0.01393520
v -0.01324768 -0.00340105 -0.01267927
v 0.03577876 -0.00981255 -0.00658929
v 0.03512914 -0.00981255 -0.00667159
v 0.03639707 -0.01043104 -0.00651773
v 0.03732062 -0.01134924 -0.00640681
v 0.03822852 -0.01226956 -0.00627084
v 0.03489434 -0.01245066 -0.00667875
v 0.03363424 -0.01285839 -0.00676105
v 0.03915206 -0.01226956 -0.00613845
v 0.03915206 -0.01304161 -0.00595239
v 0.03915206 -0.01350335 -0.00559815
v 0.03822852 -0.01357431 -0.00566256
v 0.03750846 -0.01361879 -0.00572339
v 0.03915206 -0.01377024 -0.00513657
v 0.03639707 -0.01367069 -0.00580926
v -0.01599485 -0.01368339 -0.01227137
v -0.02335195 -0.01368022 -0.01318379
v -0.02795405 -0.01374905 -0.01341637
v -0.02427549 -0.01370457 -0.01323031
v -0.02886977 -0.01374058 -0.01342710
v -0.02890107 -0.01373952 -0.01342353
v -0.02890107 -0.01356266 -0.01388153
v -0.02890107 -0.01383060 -0.01269359
v -0.03531897 -0.01392909 -0.00347632
v -0.03592945 -0.01373952 -0.00413112
v -0.03639905 -0.00583475 -0.00807422
v -0.03625035 -0.00675401 -0.00807422
v -0.03596075 -0.00675401 -0.00872902
v -0.03590597 -0.00700606 -0.00867177
v -0.03584335 -0.00728354 -0.00860736
v -0.03650080 -0.01342075 -0.00347632
v -0.03680604 -0.01296112 -0.00347632
v -0.03691561 -0.01226956 -0.00347632
v -0.03603119 -0.00583475 -0.00880774
v -0.03602337 -0.00399624 -0.00880416
v -0.03601554 -0.00340105 -0.00878627
v -0.01232413 -0.00340105 -0.01246101
v 0.03668666 -0.00981255 -0.00644259
v 0.03822852 -0.01134924 -0.00627084
v 0.03998952 -0.01226956 -0.00592018
v 0.03988778 -0.01291028 -0.00587367
v 0.04015388 -0.01320576 -0.00551586
v 0.04056087 -0.01366433 -0.00488610
v 0.04007561 -0.01371940 -0.00500418
v 0.04007561 -0.01383802 -0.00439590
v 0.03915206 -0.01391109 -0.00439590
v 0.03547352 -0.01384013 -0.00531548
v 0.03456562 -0.01372893 -0.00590945
v 0.03547352 -0.01370457 -0.00585936
v -0.00955348 -0.01371093 -0.01140188
v -0.02518339 -0.01371834 -0.01326967
v -0.02703049 -0.01374058 -0.01335912
v -0.02427549 -0.01381154 -0.01267570
v -0.02518339 -0.01382531 -0.01267570
v -0.02703049 -0.01384861 -0.01267570
v -0.02795405 -0.01385602 -0.01267570
v 0.03456562 -0.01386555 -0.00531548
v -0.02886977 -0.01383484 -0.01267570
v -0.03617207 -0.01422033 0.00946578
v -0.03634426 -0.01422033 0.00962680
v -0.03656341 -0.01422033 0.00989158
v -0.03682952 -0.01422033 0.01038894
v -0.03807397 -0.01422033 0.01294730
v -0.03809744 -0.01421716 0.01294015
v -0.03604685 -0.01378824 -0.00347632
v -0.03649297 -0.00399624 -0.00715822
v -0.03639122 -0.00399624 -0.00807422
v -0.03691561 -0.00859359 -0.00347632
v -0.03699388 -0.01226956 -0.00255674
v -0.03636774 -0.00340105 -0.00807422
v -0.01172930 -0.00340105 -0.01225348
v 0.03761021 -0.00981255 -0.00617781
v 0.03822852 -0.01043104 -0.00612772
v 0.03923033 -0.01128464 -0.00599890
v 0.03984081 -0.01154834 -0.00587009
v 0.04045130 -0.01226956 -0.00573054
v 0.04074088 -0.01318882 -0.00510079
v 0.04063914 -0.01371093 -0.00439590
v 0.04114004 -0.01313798 -0.00438517
v 0.04119484 -0.01335191 -0.00347632
v 0.04072523 -0.01375965 -0.00347632
v 0.04007561 -0.01390156 -0.00347632
v 0.04007561 -0.01392380 -0.00255674
v 0.03915206 -0.01393121 -0.00347632
v 0.03822852 -0.01392062 -0.00439590
v 0.03179497 -0.01390474 -0.00531548
v 0.03271852 -0.01389414 -0.00531548
v 0.03363424 -0.01388144 -0.00531548
v 0.03363424 -0.01374588 -0.00595239
v -0.00955348 -0.01382531 -0.01083654
v -0.00311993 -0.01384755 -0.00990980
v -0.01875767 -0.01384437 -0.01175612
v -0.02151267 -0.01386661 -0.01175612
v -0.03164042 -0.01422033 0.00890044
v -0.03255614 -0.01422033 0.00889328
v -0.03439542 -0.01422033 0.00889328
v -0.03531897 -0.01422033 0.00890044
v -0.03809744 -0.01422033 0.02157418
v -0.03809744 -0.01410807 0.01295088
v -0.03699388 -0.00859359 -0.00255674
v -0.03646949 -0.00340105 -0.00715822
v -0.01129100 -0.00340105 -0.01189566
v 0.03847115 -0.00981255 -0.00582357
v 0.03889379 -0.01043104 -0.00587367
v 0.03958253 -0.01093621 -0.00575201
v 0.04075654 -0.01154622 -0.00511510
v 0.04089742 -0.01226956 -0.00526896
v 0.04148442 -0.01279802 -0.00407387
v 0.04125745 -0.01346099 -0.00255674
v 0.04131223 -0.01353619 -0.00163716
v 0.04153138 -0.01289334 -0.00347632
v 0.04135920 -0.01357537 -0.00071758
v 0.04079567 -0.01377977 -0.00255674
v 0.04007561 -0.01393757 -0.00163716
v 0.04085829 -0.01378930 -0.00163716
v 0.03732062 -0.01392380 -0.00439590
v 0.04007561 -0.01394710 -0.00071758
v 0.04007561 -0.01395557 0.00019126
v 0.03915206 -0.01395345 -0.00071758
v -0.03106124 -0.01422033 0.00924394
v 0.03915206 -0.01398840 0.00386601
v -0.03809744 -0.01422033 0.02182822
v -0.03809744 -0.01409007 0.01295446
v -0.03809744 -0.01318882 0.01323355
v -0.03809744 -0.01267729 0.01347687
v -0.03647732 -0.00340105 -0.00380193
v -0.03809744 -0.01221660 0.01391698
v -0.03809744 -0.01175804 0.01437855
v -0.03809744 -0.01149009 0.01490454
v -0.03809744 -0.01117132 0.01582412
v -0.03809744 -0.01116920 0.01584201
v -0.03809744 -0.01106647 0.01674370
v -0.01081357 -0.00340105 -0.01144840
v 0.03863551 -0.00981255 -0.00566972
v 0.03869029 -0.00996506 -0.00578064
v 0.04097568 -0.01137148 -0.00432434
v 0.04145312 -0.01180993 -0.00394148
v 0.04135920 -0.01226956 -0.00449967
v 0.03987212 -0.01063226 -0.00513657
v 0.04049043 -0.01093303 -0.00471435
v 0.04146877 -0.01226956 -0.00404167
v 0.04156269 -0.01226956 -0.00347632
v 0.04169574 -0.01226956 -0.00255674
v 0.04178966 -0.01226956 -0.00163716
v 0.04159400 -0.01300136 -0.00255674
v 0.04164878 -0.01307656 -0.00163716
v 0.04135920 -0.01358384 0.00019126
v 0.04090524 -0.01379989 0.00019126
v 0.04088959 -0.01379565 -0.00071758
v 0.04167226 -0.01311468 -0.00071758
v 0.04168009 -0.01312315 0.00019126
v 0.04007561 -0.01396087 0.00111442
v -0.03081079 -0.01422033 0.00939422
v 0.04007561 -0.01396298 0.00203042
v 0.04007561 -0.01395875 0.00295358
v 0.04007561 -0.01393863 0.00386601
v 0.03915206 -0.01387085 0.00478916
v 0.03822852 -0.01390685 0.00478916
v -0.03107690 -0.01422033 0.02184612
v -0.03066991 -0.01422033 0.02159565
v -0.03061512 -0.01422033 0.02155986
v -0.03012204 -0.01422033 0.02109829
v -0.02998898 -0.01422033 0.02042202
v -0.02938633 -0.01422033 0.01214580
v -0.02943329 -0.01422033 0.01122622
v -0.02966809 -0.01422033 0.01032453
v -0.03074035 -0.01422033 0.00944073
v -0.03809744 -0.01388885 0.02176382
v -0.03542854 -0.01422033 0.02189263
v -0.03531897 -0.01318882 0.02190337
v -0.03531897 -0.01226956 0.02185685
v -0.03578074 -0.01180040 0.02180318
v -0.03647732 -0.00340105 0.00295358
v -0.03809744 -0.01106647 0.01676159
v -0.01063356 -0.00340105 -0.01083654
v 0.03943383 -0.00981255 -0.00432434
v 0.03937904 -0.00981255 -0.00450682
v 0.03897988 -0.00981255 -0.00522603
v 0.03891726 -0.00981255 -0.00531906
v 0.04058435 -0.01084619 -0.00409892
v 0.04108526 -0.01130370 -0.00347632
v 0.04153921 -0.01167861 -0.00255674
v 0.03956688 -0.01002013 -0.00465353
v 0.04184445 -0.01226956 -0.00071758
v 0.04159400 -0.01161824 -0.00163716
v 0.04135137 -0.01356478 0.00111442
v 0.04085829 -0.01379989 0.00203042
v 0.04088177 -0.01380201 0.00111442
v 0.04186010 -0.01226956 0.00019126
v 0.04165661 -0.01310515 0.00111442
v 0.04002083 -0.01377235 0.00479274
v 0.04080350 -0.01379142 0.00295358
v 0.04072523 -0.01376918 0.00386601
v 0.04064696 -0.01371834 0.00448502
v 0.03968428 -0.01366963 0.00527221
v 0.03915206 -0.01370034 0.00531515
v -0.03106907 -0.01318882 0.02185327
v -0.03113951 -0.01422033 0.02185327
v 0.04002083 -0.01320258 0.00544754
v 0.03915206 -0.01318882 0.00566223
v 0.03915206 -0.01226956 0.00594490
v -0.03809744 -0.01318776 0.02150261
v -0.03627382 -0.01043210 0.02113407
v -0.03164042 -0.01422033 0.02189263
v -0.03164042 -0.01318882 0.02190337
v -0.03531897 -0.01179510 0.02180318
v -0.03164042 -0.01226956 0.02185685
v -0.03531897 -0.01133547 0.02170657
v -0.03531897 -0.01043210 0.02141674
v -0.03599206 -0.00979879 0.02099810
v -0.03643818 -0.00340105 0.00386601
v -0.03809744 -0.01106859 0.01768117
v -0.03809744 -0.01113002 0.01858286
v -0.01061008 -0.00340105 -0.00991338
v 0.03980951 -0.00981255 -0.00071758
v 0.03977820 -0.00981255 -0.00163716
v 0.03970776 -0.00981255 -0.00248518
v 0.03959819 -0.00981255 -0.00330457
v 0.03951209 -0.00981255 -0.00388781
v 0.03963732 -0.00994706 -0.00404167
v 0.04063914 -0.01079641 -0.00347632
v 0.04114004 -0.01121686 -0.00255674
v 0.04161748 -0.01159282 -0.00071758
v 0.04118701 -0.01115967 -0.00163716
v 0.04132006 -0.01352030 0.00203042
v 0.04163313 -0.01306173 0.00203042
v 0.04161748 -0.01159070 0.00019126
v 0.04159400 -0.01161506 0.00111442
v 0.04156269 -0.01165848 0.00203042
v 0.04181314 -0.01226956 0.00111442
v 0.04126527 -0.01343663 0.00295358
v 0.04119484 -0.01329684 0.00386601
v 0.04145312 -0.01274613 0.00434547
v 0.04095221 -0.01313163 0.00472118
v 0.04064696 -0.01290499 0.00534377
v 0.04029477 -0.01351818 0.00509688
v -0.03111603 -0.01226956 0.02182822
v 0.04007561 -0.01226956 0.00566223
v 0.03915206 -0.01134924 0.00582324
v 0.03779022 -0.01086102 0.00617032
v -0.03809744 -0.01247819 0.02109471
v -0.03661037 -0.01012603 0.02079057
v -0.03164042 -0.01179510 0.02180318
v -0.03117864 -0.01180040 0.02180318
v -0.03164042 -0.01133547 0.02170657
v -0.03531897 -0.00971300 0.02105177
v -0.03164042 -0.01043210 0.02141674
v -0.03531897 -0.00925337 0.02072974
v -0.03607816 -0.00884670 0.02016797
v -0.03634426 -0.00942812 0.02047927
v -0.03809744 -0.01133124 0.01950244
v -0.03681387 -0.00797086 0.01766328
v -0.03675125 -0.00806194 0.01829303
v -0.03621904 -0.00340105 0.00444924
v -0.01043007 -0.00340105 0.01030664
v 0.03978603 -0.00981679 -0.00163716
v 0.03980951 -0.00981255 0.00019126
v 0.04121049 -0.01113108 0.00019126
v 0.04074088 -0.01068945 -0.00071758
v 0.03968428 -0.00990681 -0.00347632
v 0.04068610 -0.01074134 -0.00255674
v 0.04120266 -0.01113214 -0.00071758
v 0.04071741 -0.01070639 -0.00163716
v 0.04157051 -0.01297595 0.00295358
v 0.04174270 -0.01226956 0.00203042
v 0.04117918 -0.01115332 0.00111442
v 0.04114004 -0.01119886 0.00203042
v 0.04108526 -0.01127299 0.00295358
v 0.04150007 -0.01173368 0.00295358
v 0.04149225 -0.01283721 0.00386601
v 0.04066262 -0.01226956 0.00535809
v 0.04163313 -0.01226956 0.00295358
v 0.04145312 -0.01268047 0.00434547
v 0.04059218 -0.01173368 0.00530084
v 0.03746933 -0.00981255 0.00607371
v 0.03764152 -0.01024783 0.00612738
v 0.03706234 -0.00981255 0.00621326
v -0.03809744 -0.01246442 0.02108397
v -0.03669646 -0.00905745 0.01995686
v -0.03164042 -0.00971300 0.02105177
v -0.03096732 -0.00979879 0.02099452
v -0.03106124 -0.00978820 0.02100525
v -0.03531897 -0.00874397 0.02026816
v -0.03164042 -0.00925337 0.02072974
v -0.03531897 -0.00828434 0.01976722
v -0.03599989 -0.00801428 0.01921977
v -0.03809744 -0.01164366 0.02020375
v -0.03809744 -0.01164895 0.02021449
v -0.03661820 -0.00822080 0.01890489
v -0.03628165 -0.00786813 0.01859002
v -0.03616425 -0.00748476 0.01760603
v -0.03609381 -0.00340105 0.00476769
v -0.01046920 -0.00340105 0.01053206
v 0.03941035 -0.00981255 0.00400197
v 0.03958253 -0.00981255 0.00295358
v 0.03968428 -0.00981255 0.00212703
v 0.03976255 -0.00981255 0.00113231
v 0.04023998 -0.01024677 -0.00163716
v 0.03977820 -0.00982103 0.00111442
v 0.04071741 -0.01070957 0.00111442
v 0.04146094 -0.01178981 0.00349388
v 0.04068610 -0.01074346 0.00203042
v 0.04063131 -0.01079959 0.00295358
v 0.04057652 -0.01085255 0.00364058
v 0.04052174 -0.01090232 0.00425602
v 0.04116353 -0.01233204 0.00470329
v 0.04140615 -0.01206728 0.00410574
v 0.04036521 -0.01107177 0.00478916
v 0.03969994 -0.01079430 0.00531873
v 0.03912859 -0.01046493 0.00548332
v 0.04077219 -0.01153140 0.00478916
v -0.01161190 -0.00340105 0.01214938
v -0.01255110 -0.00340105 0.01251793
v 0.03871377 -0.00981255 0.00536524
v -0.03809744 -0.01201327 0.02067607
v -0.03164042 -0.00874397 0.02026816
v -0.02886977 -0.00340105 0.01454315
v -0.01291896 -0.00340105 0.01258591
v -0.03531897 -0.00795392 0.01931280
v -0.02944112 -0.00340105 0.01449663
v -0.02989506 -0.00340105 0.01412451
v -0.03005160 -0.00340105 0.01396349
v -0.03033336 -0.00340105 0.01366651
v -0.01063356 -0.00340105 0.01119760
v 0.03958253 -0.00999895 0.00414510
v -0.01068835 -0.00340105 0.01134430
v 0.03909728 -0.00981255 0.00478916
v 0.03973907 -0.00985280 0.00203042
v 0.03885465 -0.00981255 0.00517918
v 0.03879987 -0.00986021 0.00533662
v -0.01089967 -0.00340105 0.01170569
v -0.01079009 -0.00340105 0.01156614
v -0.02777403 -0.00340105 0.01445370
v -0.02807144 -0.00340105 0.01448590
v -0.02835321 -0.00340105 0.01450737
v -0.01307549 -0.00340105 0.01260738
v -0.01417123 -0.00340105 0.01274693
f 1 2 3
f 1 3 4
f 1 4 5
f 1 5 6
f 1 6 7
f 1 7 8
f 1 8 9
f 1 9 10
f 1 10 2
f 2 11 3
f 2 10 12
f 2 12 29
f 2 29 60
f 2 60 96
f 2 96 130
f 2 130 161
f 2 161 186
f 2 186 233
f 2 233 271
f 2 271 314
f 2 314 352
f 2 352 383
f 2 383 382
f 2 382 381
f 2 381 380
f 2 380 377
f 2 377 395
f 2 395 394
f 2 394 393
f 2 393 397
f 2 397 396
f 2 396 378
f 2 378 373
f 2 373 372
f 2 372 391
f 2 391 392
f 2 392 386
f 2 386 384
f 2 384 353
f 2 353 315
f 2 315 274
f 2 274 235
f 2 235 193
f 2 193 162
f 2 162 131
f 2 131 97
f 2 97 61
f 2 61 33
f 2 33 14
f 2 14 13
f 2 13 11
f 3 11 13
f 3 13 14
f 3 14 15
f 3 15 16
f 3 16 4
f 4 16 17
f 4 17 5
f 5 17 18
f 5 18 19
f 5 19 20
f 5 20 21
f 5 21 22
f 5 22 23
f 5 23 24
f 5 24 6
f 6 24 25
f 6 25 7
f 7 25 26
f 7 26 27
f 7 27 28
f 7 28 8
f 8 29 12
f 8 12 9
f 8 28 30
f 8 30 31
f 8 31 32
f 8 32 29
f 9 12 10
f 14 33 34
f 14 34 16
f 14 16 15
f 16 34 35
f 16 35 36
f 16 36 37
f 16 37 17
f 17 37 38
f 17 38 39
f 17 39 18
f 18 39 19
f 19 39 40
f 19 40 41
f 19 41 20
f 20 41 21
f 21 41 42
f 21 42 43
f 21 43 22
f 22 43 44
f 22 44 23
f 23 44 45
f 23 45 46
f 23 46 47
f 23 47 48
f 23 48 24
f 24 48 49
f 24 49 25
f 25 49 50
f 25 50 51
f 25 51 26
f 26 51 27
f 27 51 52
f 27 52 53
f 27 53 54
f 27 54 55
f 27 55 56
f 27 56 57
f 27 57 28
f 28 57 58
f 28 58 30
f 29 32 59
f 29 59 60
f 30 32 31
f 30 58 32
f 32 58 59
f 33 61 62
f 33 62 63
f 33 63 34
f 34 63 64
f 34 64 35
f 35 64 65
f 35 65 37
f 35 37 36
f 37 65 66
f 37 66 38
f 38 66 67
f 38 67 39
f 39 67 40
f 40 68 42
f 40 42 41
f 40 67 66
f 40 66 69
f 40 69 70
f 40 70 68
f 42 68 43
f 43 68 70
f 43 70 44
f 44 70 45
f 45 70 71
f 45 71 72
f 45 72 73
f 45 73 74
f 45 74 75
f 45 75 46
f 46 75 48
f 46 48 47
f 48 75 76
f 48 76 77
f 48 77 49
f 49 78 50
f 49 77 79
f 49 79 78
f 50 78 80
f 50 80 81
f 50 81 52
f 50 52 82
f 50 82 51
f 51 82 52
f 52 81 83
f 52 83 84
f 52 84 85
f 52 85 53
f 53 85 54
f 54 85 55
f 55 86 87
f 55 87 88
f 55 88 89
f 55 89 90
f 55 90 57
f 55 57 56
f 55 85 91
f 55 91 92
f 55 92 93
f 55 93 86
f 57 90 89
f 57 89 88
f 57 88 94
f 57 94 58
f 58 94 95
f 58 95 59
f 59 95 60
f 60 95 96
f 61 97 98
f 61 98 62
f 62 98 99
f 62 99 64
f 62 64 63
f 64 99 65
f 65 99 69
f 65 69 66
f 69 100 101
f 69 101 70
f 69 99 100
f 70 101 71
f 71 101 102
f 71 102 103
f 71 103 104
f 71 104 74
f 71 74 72
f 72 74 73
f 74 104 105
f 74 105 106
f 74 106 107
f 74 107 108
f 74 108 109
f 74 109 75
f 75 109 76
f 76 110 79
f 76 79 77
f 76 109 108
f 76 108 110
f 78 79 111
f 78 111 112
f 78 112 113
f 78 113 114
f 78 114 115
f 78 115 116
f 78 116 80
f 79 110 117
f 79 117 111
f 80 118 81
f 80 116 118
f 81 118 83
f 83 118 84
f 84 119 120
f 84 120 121
f 84 121 122
f 84 122 123
f 84 123 124
f 84 124 125
f 84 125 85
f 84 118 116
f 84 116 119
f 85 125 91
f 86 126 127
f 86 127 94
f 86 94 88
f 86 88 87
f 86 93 128
f 86 128 126
f 91 124 92
f 91 125 124
f 92 124 93
f 93 129 160
f 93 160 128
f 93 124 129
f 94 127 95
f 95 127 96
f 96 127 130
f 97 131 132
f 97 132 98
f 98 132 133
f 98 133 134
f 98 134 99
f 99 134 100
f 100 134 135
f 100 135 136
f 100 136 101
f 101 136 137
f 101 137 102
f 102 137 103
f 103 138 105
f 103 105 104
f 103 137 139
f 103 139 140
f 103 140 138
f 105 138 141
f 105 141 142
f 105 142 106
f 106 142 143
f 106 143 144
f 106 144 145
f 106 145 146
f 106 146 147
f 106 147 148
f 106 148 117
f 106 117 107
f 107 117 110
f 107 110 149
f 107 149 108
f 108 149 110
f 111 117 150
f 111 150 113
f 111 113 112
f 113 150 151
f 113 151 114
f 114 151 152
f 114 152 115
f 115 152 147
f 115 147 146
f 115 146 145
f 115 145 116
f 116 145 153
f 116 153 154
f 116 154 155
f 116 155 156
f 116 156 157
f 116 157 119
f 117 148 150
f 119 157 156
f 119 156 155
f 119 155 154
f 119 154 180
f 119 180 213
f 119 213 227
f 119 227 226
f 119 226 225
f 119 225 224
f 119 224 223
f 119 223 222
f 119 222 221
f 119 221 220
f 119 220 219
f 119 219 258
f 119 258 264
f 119 264 229
f 119 229 182
f 119 182 158
f 119 158 123
f 119 123 122
f 119 122 121
f 119 121 120
f 123 158 124
f 124 158 182
f 124 182 228
f 124 228 262
f 124 262 301
f 124 301 338
f 124 338 375
f 124 375 348
f 124 348 347
f 124 347 311
f 124 311 273
f 124 273 272
f 124 272 234
f 124 234 192
f 124 192 191
f 124 191 190
f 124 190 189
f 124 189 188
f 124 188 187
f 124 187 185
f 124 185 184
f 124 184 183
f 124 183 159
f 124 159 160
f 124 160 129
f 126 161 130
f 126 130 127
f 126 128 160
f 126 160 161
f 131 162 163
f 131 163 132
f 132 163 164
f 132 164 135
f 132 135 133
f 133 135 134
f 135 164 165
f 135 165 166
f 135 166 136
f 136 166 167
f 136 167 137
f 137 167 168
f 137 168 139
f 138 140 169
f 138 169 170
f 138 170 141
f 139 168 140
f 140 168 171
f 140 171 169
f 141 170 172
f 141 172 173
f 141 173 142
f 142 173 143
f 143 174 144
f 143 173 175
f 143 175 174
f 144 176 145
f 144 174 177
f 144 177 178
f 144 178 179
f 144 179 154
f 144 154 176
f 145 176 153
f 147 152 151
f 147 151 148
f 148 151 150
f 153 176 154
f 154 179 181
f 154 181 180
f 159 183 160
f 160 183 184
f 160 184 185
f 160 185 161
f 161 185 187
f 161 187 188
f 161 188 189
f 161 189 190
f 161 190 191
f 161 191 192
f 161 192 186
f 162 193 194
f 162 194 163
f 163 194 195
f 163 195 165
f 163 165 164
f 165 195 166
f 166 196 197
f 166 197 198
f 166 198 167
f 166 195 199
f 166 199 200
f 166 200 196
f 167 198 168
f 168 198 201
f 168 201 202
f 168 202 203
f 168 203 204
f 168 204 171
f 169 171 205
f 169 205 206
f 169 206 170
f 170 206 172
f 171 204 205
f 172 207 208
f 172 208 209
f 172 209 175
f 172 175 173
f 172 206 210
f 172 210 211
f 172 211 207
f 174 175 209
f 174 209 177
f 177 209 178
f 178 212 181
f 178 181 179
f 178 209 208
f 178 208 212
f 180 181 213
f 181 212 214
f 181 214 215
f 181 215 216
f 181 216 217
f 181 217 218
f 181 218 219
f 181 219 220
f 181 220 221
f 181 221 222
f 181 222 223
f 181 223 224
f 181 224 225
f 181 225 226
f 181 226 227
f 181 227 213
f 182 229 230
f 182 230 231
f 182 231 232
f 182 232 228
f 186 192 234
f 186 234 233
f 193 235 236
f 193 236 237
f 193 237 238
f 193 238 239
f 193 239 194
f 194 239 199
f 194 199 195
f 196 200 240
f 196 240 197
f 197 241 242
f 197 242 204
f 197 204 203
f 197 203 202
f 197 202 201
f 197 201 198
f 197 240 241
f 199 239 200
f 200 239 238
f 200 238 243
f 200 243 240
f 204 244 206
f 204 206 205
f 204 242 245
f 204 245 244
f 206 244 210
f 207 211 246
f 207 246 247
f 207 247 248
f 207 248 208
f 208 248 214
f 208 214 212
f 210 244 249
f 210 249 211
f 211 250 246
f 211 249 250
f 214 248 215
f 215 248 247
f 215 247 216
f 216 251 217
f 216 247 252
f 216 252 253
f 216 253 254
f 216 254 251
f 217 251 255
f 217 255 256
f 217 256 219
f 217 219 218
f 219 257 258
f 219 256 255
f 219 255 259
f 219 259 260
f 219 260 261
f 219 261 257
f 228 232 263
f 228 263 262
f 229 264 265
f 229 265 230
f 230 265 267
f 230 267 231
f 231 266 232
f 231 267 303
f 231 303 266
f 232 266 268
f 232 268 269
f 232 269 270
f 232 270 263
f 233 234 272
f 233 272 273
f 233 273 271
f 235 274 275
f 235 275 276
f 235 276 277
f 235 277 278
f 235 278 279
f 235 279 236
f 236 279 280
f 236 280 240
f 236 240 243
f 236 243 237
f 237 243 238
f 240 280 281
f 240 281 241
f 241 281 282
f 241 282 242
f 242 282 245
f 244 245 283
f 244 283 249
f 245 282 284
f 245 284 283
f 246 285 252
f 246 252 247
f 246 250 286
f 246 286 285
f 249 283 287
f 249 287 288
f 249 288 289
f 249 289 290
f 249 290 286
f 249 286 250
f 251 254 255
f 252 285 253
f 253 285 291
f 253 291 254
f 254 291 292
f 254 292 293
f 254 293 294
f 254 294 295
f 254 295 296
f 254 296 255
f 255 296 259
f 257 297 265
f 257 265 258
f 257 261 297
f 258 265 264
f 259 261 260
f 259 296 295
f 259 295 261
f 261 295 298
f 261 298 299
f 261 299 300
f 261 300 297
f 262 263 270
f 262 270 302
f 262 302 301
f 265 297 267
f 266 303 305
f 266 305 268
f 267 297 304
f 267 304 303
f 268 305 307
f 268 307 269
f 269 306 270
f 269 307 340
f 269 340 306
f 270 306 308
f 270 308 309
f 270 309 310
f 270 310 302
f 271 273 311
f 271 311 312
f 271 312 313
f 271 313 314
f 274 315 275
f 275 316 276
f 275 315 317
f 275 317 318
f 275 318 319
f 275 319 316
f 276 316 277
f 277 320 278
f 277 316 321
f 277 321 281
f 277 281 320
f 278 320 279
f 279 320 280
f 280 320 281
f 281 321 284
f 281 284 282
f 283 284 322
f 283 322 318
f 283 318 287
f 284 321 323
f 284 323 322
f 285 286 291
f 286 324 291
f 286 290 325
f 286 325 324
f 287 318 288
f 288 318 326
f 288 326 289
f 289 325 290
f 289 326 327
f 289 327 328
f 289 328 329
f 289 329 325
f 291 324 292
f 292 324 330
f 292 330 293
f 293 331 295
f 293 295 294
f 293 330 325
f 293 325 332
f 293 332 333
f 293 333 331
f 295 331 298
f 297 300 304
f 298 334 299
f 298 331 334
f 299 334 335
f 299 335 336
f 299 336 300
f 300 336 337
f 300 337 304
f 301 302 339
f 301 339 338
f 302 310 339
f 303 304 305
f 304 307 305
f 304 337 307
f 306 340 344
f 306 344 308
f 307 337 341
f 307 341 342
f 307 342 340
f 308 343 309
f 308 344 376
f 308 376 343
f 309 343 345
f 309 345 346
f 309 346 339
f 309 339 310
f 311 347 313
f 311 313 312
f 313 347 348
f 313 348 349
f 313 349 350
f 313 350 351
f 313 351 352
f 313 352 314
f 315 353 354
f 315 354 355
f 315 355 356
f 315 356 357
f 315 357 317
f 316 319 358
f 316 358 321
f 317 357 359
f 317 359 318
f 318 360 326
f 318 322 319
f 318 359 360
f 319 322 358
f 321 358 323
f 322 323 358
f 324 325 330
f 325 329 361
f 325 361 332
f 326 360 362
f 326 362 327
f 327 362 363
f 327 363 328
f 328 361 329
f 328 363 364
f 328 364 365
f 328 365 361
f 331 333 366
f 331 366 334
f 332 361 367
f 332 367 333
f 333 367 366
f 334 368 369
f 334 369 370
f 334 370 335
f 334 366 367
f 334 367 371
f 334 371 368
f 335 372 373
f 335 373 337
f 335 337 336
f 335 370 374
f 335 374 372
f 337 373 341
f 338 339 375
f 339 349 348
f 339 348 375
f 339 346 349
f 340 342 344
f 341 344 342
f 341 373 344
f 343 376 377
f 343 377 345
f 344 373 378
f 344 378 376
f 345 379 346
f 345 377 380
f 345 380 379
f 346 350 349
f 346 379 380
f 346 380 381
f 346 381 350
f 350 381 382
f 350 382 383
f 350 383 351
f 351 383 352
f 353 384 354
f 354 385 365
f 354 365 364
f 354 364 355
f 354 384 386
f 354 386 387
f 354 387 385
f 355 364 363
f 355 363 362
f 355 362 388
f 355 388 356
f 356 388 359
f 356 359 357
f 359 388 362
f 359 362 360
f 361 365 371
f 361 371 367
f 365 385 387
f 365 387 368
f 365 368 371
f 368 387 389
f 368 389 390
f 368 390 369
f 369 390 374
f 369 374 370
f 372 374 391
f 374 390 389
f 374 389 392
f 374 392 391
f 376 393 394
f 376 394 395
f 376 395 377
f 376 378 396
f 376 396 397
f 376 397 393
f 386 392 387
f 387 392 389

