# https://github.com/mikedh/trimesh
v -0.02888041 -0.00340018 -0.01459012
v -0.02973189 -0.00340018 -0.01431899
v -0.02971695 0.00060314 -0.01430186
v -0.02888041 0.00060314 -0.01455302
v -0.02796171 0.00060314 -0.01449308
v -0.02796171 -0.00340018 -0.01452448
v 0.03179891 -0.00981137 -0.00704116
v 0.03088768 -0.00981137 -0.00688990
v 0.02907267 -0.00981137 -0.00633621
v 0.02837804 -0.00981137 -0.00610218
v -0.03019498 -0.00340018 -0.01393369
v -0.03019498 -0.00307404 -0.01393369
v -0.02961986 0.00151986 -0.01423622
v -0.03018004 0.00060314 -0.01391086
v -0.02888041 0.00151986 -0.01445598
v -0.02796171 0.00151986 -0.01446454
v -0.02704300 0.00151986 -0.01437036
v -0.02704300 0.00060314 -0.01438178
v -0.02763306 -0.00340018 -0.01448452
v 0.03271761 -0.00981137 -0.00697267
v 0.02816144 -0.00981137 -0.00531446
v -0.03636449 -0.00340018 -0.00807718
v -0.03602091 -0.00340018 -0.00878784
v -0.02946300 0.00209722 -0.01412777
v -0.03008294 0.00151986 -0.01381667
v -0.03601344 -0.00307404 -0.00878499
v -0.02878331 0.00241895 -0.01417914
v -0.02796171 0.00244099 -0.01429330
v -0.02704300 0.00244099 -0.01429615
v -0.02612430 0.00244099 -0.01420483
v -0.02466781 0.00204139 -0.01406498
v -0.02415991 0.00151986 -0.01401360
v -0.02060460 0.00060901 -0.01357693
v -0.02059713 -0.00339872 -0.01360833
v 0.03497330 -0.00981137 -0.00669297
v 0.02816144 -0.00981137 -0.00439831
v -0.03648400 -0.00340018 -0.00564553
v -0.03647653 -0.00340018 -0.00715818
v -0.03643918 -0.00340018 -0.00748354
v -0.03634955 -0.00307404 -0.00807718
v -0.03029955 0.00204580 -0.01322018
v -0.02974683 0.00237782 -0.01352271
v -0.02941819 0.00295959 -0.01322018
v -0.02902979 0.00270690 -0.01383665
v -0.02842479 0.00290229 -0.01405356
v -0.03590140 -0.00215438 -0.00867368
v -0.03580431 -0.00165635 -0.00856522
v -0.02796171 0.00298015 -0.01409637
v -0.02704300 0.00306095 -0.01413918
v -0.02612430 0.00300219 -0.01410208
v -0.02558652 0.00292727 -0.01406498
v -0.02525041 0.00238369 -0.01409637
v -0.01732564 0.00108794 -0.01314312
v 0.00482036 -0.00253635 -0.01039467
v 0.03179891 -0.00767235 -0.00707256
v -0.01232132 -0.00031652 -0.01254377
v -0.01416620 -0.00031652 -0.01277780
v 0.03363632 -0.00859054 -0.00684994
v 0.03577249 -0.00981137 -0.00659022
v 0.02822119 -0.00981137 0.00478602
v -0.03647653 -0.00340018 0.00295372
v -0.03648400 -0.00340018 0.00111286
v -0.03648400 -0.00307404 -0.00164416
v -0.03647653 -0.00307404 -0.00531732
v -0.03646906 -0.00307404 -0.00623918
v -0.03646159 -0.00307404 -0.00715818
v -0.03627486 -0.00215438 -0.00715818
v -0.03614042 -0.00215438 -0.00807718
v -0.03551301 -0.00108487 -0.00807718
v -0.03493042 -0.00071024 -0.00859947
v -0.03504992 -0.00060741 -0.00807718
v -0.02952276 0.00304480 -0.01267506
v -0.02882066 0.00354723 -0.01268933
v -0.02835010 0.00378816 -0.01300612
v -0.02878331 0.00310062 -0.01355696
v -0.02773763 0.00390863 -0.01326299
v -0.03587153 -0.00154470 -0.00807718
v -0.02704300 0.00352079 -0.01380240
v -0.02612430 0.00346202 -0.01377957
v -0.02172497 0.00296546 -0.01319164
v -0.02111250 0.00288172 -0.01311458
v -0.01903608 0.00204433 -0.01317166
v 0.00378215 -0.00169014 -0.01037755
v -0.00340316 -0.00071759 -0.01132224
v -0.00279069 -0.00093943 -0.01127372
v 0.01206543 -0.00351918 -0.00946140
v 0.02695144 -0.00615623 -0.00764337
v 0.03271761 -0.00767235 -0.00694983
v 0.03444299 -0.00859054 -0.00674434
v 0.03547373 -0.00951020 -0.00662447
v 0.03490607 -0.00859054 -0.00668155
v 0.03669867 -0.00981137 -0.00644467
v 0.02828841 -0.00981137 0.00545672
v -0.03644665 -0.00340018 0.00387272
v -0.03647653 -0.00307257 0.00203471
v -0.03646906 -0.00307257 0.00295372
v -0.03648400 -0.00307404 -0.00013151
v -0.03635702 -0.00215438 -0.00164416
v -0.03633461 -0.00215438 -0.00439831
v -0.03631968 -0.00215438 -0.00531732
v -0.03629727 -0.00215438 -0.00623918
v -0.03598357 -0.00135518 -0.00531732
v -0.03596863 -0.00138897 -0.00623918
v -0.03594622 -0.00142864 -0.00715818
v -0.03561758 -0.00096881 -0.00715818
v -0.03515449 -0.00051632 -0.00715818
v -0.02962732 0.00313294 -0.01175320
v -0.02901486 0.00359130 -0.01175320
v -0.02848454 0.00386015 -0.01239251
v -0.03459431 -0.00005796 -0.00715818
v -0.02800652 0.00399531 -0.01268933
v -0.02704300 0.00423036 -0.01267506
v -0.02704300 0.00396592 -0.01334290
v -0.02612430 0.00395123 -0.01331722
v -0.02520559 0.00387190 -0.01320591
v -0.02474251 0.00382048 -0.01313741
v 0.02037112 -0.00351918 -0.00763766
v 0.03039471 -0.00538495 -0.00668441
v 0.00112314 -0.00074991 -0.01039752
v -0.00538995 0.00015212 -0.01130511
v 0.01031018 -0.00258189 -0.00947852
v 0.03241138 -0.00622675 -0.00673293
v 0.02590576 -0.00534234 -0.00762910
v 0.02652569 -0.00554361 -0.00757772
v 0.03179891 -0.00675122 -0.00698408
v 0.03409941 -0.00720958 -0.00669582
v 0.03363632 -0.00767235 -0.00681569
v 0.03547373 -0.00859054 -0.00657024
v 0.03639990 -0.00951020 -0.00647606
v 0.03424879 -0.00767235 -0.00671866
v 0.03761737 -0.00981137 -0.00617924
v 0.02831829 -0.00981137 0.00565365
v -0.03643918 -0.00307257 0.00387272
v -0.03622258 -0.00340018 0.00445495
v -0.03634208 -0.00215438 0.00203471
v -0.03635702 -0.00215438 0.00019385
v -0.03632715 -0.00215438 0.00295372
v -0.03601344 -0.00125969 -0.00072230
v -0.03601344 -0.00127144 -0.00164416
v -0.03600597 -0.00128908 -0.00256031
v -0.03599103 -0.00132874 -0.00439831
v -0.03575202 -0.00081015 -0.00164416
v -0.03573708 -0.00082924 -0.00256031
v -0.03572215 -0.00084981 -0.00348216
v -0.03570721 -0.00087038 -0.00439831
v -0.03567733 -0.00089535 -0.00531732
v -0.03564745 -0.00092914 -0.00623918
v -0.03519184 -0.00048400 -0.00623918
v -0.03472128 0.00003753 -0.00439831
v -0.03463912 -0.00002417 -0.00623918
v -0.02919411 0.00371618 -0.00991519
v -0.02910448 0.00365594 -0.01083419
v -0.02855924 0.00390863 -0.01175320
v -0.02796171 0.00430676 -0.01083419
v -0.02796171 0.00418629 -0.01175320
v -0.03417603 0.00032694 -0.00623918
v -0.03352622 0.00075152 -0.00715818
v -0.02936590 0.00384105 -0.00779749
v -0.03303325 0.00107325 -0.00765764
v -0.02704300 0.00440960 -0.01175320
v -0.02612430 0.00439637 -0.01175320
v -0.02612430 0.00421126 -0.01267506
v -0.02520559 0.00406729 -0.01267506
v -0.02355491 0.00386896 -0.01234969
v -0.01834892 0.00288760 -0.01217560
v 0.00390166 -0.00074844 -0.00950135
v 0.02672736 -0.00445647 -0.00669011
v 0.03179891 -0.00527770 -0.00593950
v 0.03234416 -0.00534528 -0.00581963
v 0.03088020 -0.00547897 -0.00659308
v 0.02393390 -0.00447557 -0.00760056
v 0.01682328 -0.00347951 -0.00857664
v 0.03268774 -0.00583449 -0.00623347
v 0.03363632 -0.00603723 -0.00605937
v 0.03302385 -0.00641039 -0.00664730
v 0.03271761 -0.00673065 -0.00681855
v 0.03363632 -0.00661018 -0.00651887
v 0.03449527 -0.00678648 -0.00624488
v 0.03537663 -0.00700538 -0.00596519
v 0.03547373 -0.00702888 -0.00593379
v 0.03547373 -0.00767235 -0.00630482
v 0.03639990 -0.00859054 -0.00628769
v 0.03834935 -0.00981137 -0.00587671
v 0.02857971 -0.00981137 0.00604751
v -0.03033689 -0.00340018 0.01366782
v -0.03609560 -0.00340018 0.00477460
v -0.03608813 -0.00307257 0.00477460
v -0.03601344 -0.00215438 0.00469469
v -0.03628980 -0.00215438 0.00387272
v -0.03600597 -0.00127585 0.00111286
v -0.03601344 -0.00126116 0.00019385
v -0.03601344 -0.00125969 -0.00013151
v -0.03599103 -0.00131405 0.00295372
v -0.03575202 -0.00080133 -0.00072230
v -0.03527400 -0.00039145 -0.00256031
v -0.03525906 -0.00039733 -0.00348216
v -0.03524412 -0.00042230 -0.00439831
v -0.03522171 -0.00045168 -0.00531732
v -0.03365319 0.00084554 -0.00439831
v -0.03210708 0.00198557 -0.00492346
v -0.03361585 0.00081616 -0.00531732
v -0.03474369 0.00006251 -0.00348216
v -0.02927627 0.00377200 -0.00899619
v -0.02873103 0.00402175 -0.00991519
v -0.02817831 0.00463878 -0.00715818
v -0.02806627 0.00459176 -0.00807718
v -0.02796171 0.00442429 -0.00991519
v -0.02752850 0.00475190 -0.00864799
v -0.02944807 0.00390128 -0.00623918
v -0.02940325 0.00386749 -0.00715818
v -0.02888041 0.00422743 -0.00715818
v -0.02895510 0.00408198 -0.00808860
v -0.02932109 0.00380726 -0.00840825
v -0.02704300 0.00453153 -0.01083419
v -0.02612430 0.00463437 -0.00991519
v -0.02562386 0.00474749 -0.00859091
v -0.02520559 0.00427003 -0.01175320
v -0.02704300 0.00465200 -0.00991519
v -0.02294244 0.00381314 -0.01216418
v -0.00634601 0.00106003 -0.01037755
v 0.01021309 -0.00169308 -0.00854525
v 0.02220106 -0.00352212 -0.00672722
v 0.02789255 -0.00441093 -0.00589384
v 0.03179891 -0.00508231 -0.00531446
v 0.03267280 -0.00529533 -0.00524311
v 0.03295663 -0.00544077 -0.00550283
v 0.03428613 -0.00619002 -0.00589954
v 0.02849755 -0.00446675 -0.00563982
v 0.03545879 -0.00700538 -0.00592238
v 0.03594428 -0.00720223 -0.00578538
v 0.03631027 -0.00774140 -0.00592238
v 0.03689286 -0.00809398 -0.00580821
v 0.03725138 -0.00866840 -0.00591381
v 0.03847632 -0.00981137 -0.00582248
v 0.02879632 -0.00981137 0.00631293
v -0.03005307 -0.00340018 0.01396464
v -0.02991862 -0.00031506 0.01413588
v -0.03033689 -0.00031506 0.01367352
v -0.03033689 0.00060461 0.01367067
v -0.03030702 0.00125101 0.01361930
v -0.03589394 -0.00149181 0.00452630
v -0.03596863 -0.00135812 0.00387272
v -0.03574455 -0.00081602 0.00111286
v -0.03575202 -0.00080133 -0.00013151
v -0.03571468 -0.00085569 0.00295372
v -0.03572961 -0.00083512 0.00203471
v -0.02950782 0.00395564 -0.00440117
v -0.02994850 0.00358690 -0.00532017
v -0.03525906 -0.00041202 0.00295372
v -0.03469140 0.00004781 0.00295372
v -0.02843973 0.00474896 -0.00388744
v -0.02881319 0.00407611 -0.00899619
v -0.02827541 0.00467697 -0.00623918
v -0.02772269 0.00482241 -0.00715818
v -0.02760319 0.00477981 -0.00807718
v -0.02788701 0.00456679 -0.00897050
v -0.02704300 0.00500899 -0.00623918
v -0.02704300 0.00493701 -0.00715818
v -0.02704300 0.00485180 -0.00807718
v -0.02704300 0.00477394 -0.00885063
v -0.02704300 0.00472545 -0.00930728
v -0.02948541 0.00393213 -0.00532017
v -0.02888041 0.00436112 -0.00532017
v -0.02888041 0.00429794 -0.00623918
v -0.02840238 0.00472986 -0.00469513
v -0.02835010 0.00470929 -0.00532017
v -0.02612430 0.00471664 -0.00926447
v -0.02060460 0.00384105 -0.00878784
v -0.02527281 0.00464318 -0.00893911
v -0.02520559 0.00450949 -0.00991519
v -0.02520559 0.00439050 -0.01083419
v -0.02612430 0.00477100 -0.00880496
v -0.02612430 0.00484298 -0.00807718
v -0.02612430 0.00492672 -0.00715818
v -0.02548942 0.00477100 -0.00807718
v -0.02502633 0.00469020 -0.00807718
v 0.02964780 -0.00442562 -0.00327096
v 0.03088020 -0.00466215 -0.00347931
v -0.02019380 0.00381020 -0.00843108
v -0.02329349 0.00392332 -0.01181313
v -0.01709410 0.00295224 -0.01083705
v -0.00220063 0.00055025 -0.00899619
v 0.00560462 -0.00077783 -0.00853668
v 0.03179891 -0.00493981 -0.00439831
v 0.03318817 -0.00536438 -0.00488636
v 0.03088020 -0.00488545 -0.00531446
v 0.03355416 -0.00560531 -0.00524311
v 0.03457743 -0.00609012 -0.00530019
v 0.03489861 -0.00636337 -0.00559416
v 0.02816144 -0.00437273 -0.00532873
v 0.03088020 -0.00475470 -0.00439831
v -0.00588292 0.00132153 -0.00807718
v 0.03609367 -0.00708911 -0.00531446
v 0.03655676 -0.00748283 -0.00531446
v 0.03705719 -0.00794267 -0.00531446
v 0.03542891 -0.00660431 -0.00530019
v 0.03752027 -0.00839074 -0.00531446
v 0.03798336 -0.00885204 -0.00531446
v 0.03892447 -0.00981137 -0.00532017
v 0.03779663 -0.00902540 -0.00579109
v 0.03864064 -0.00981137 -0.00567122
v 0.03179891 -0.00981137 0.00688660
v -0.02944060 -0.00340018 0.01449834
v -0.02960492 -0.00340018 0.01436706
v -0.02989621 -0.00340018 0.01412732
v -0.02946300 -0.00031506 0.01450976
v -0.02990368 0.00060461 0.01413017
v -0.03020245 0.00186510 0.01338241
v -0.02939578 0.00115258 0.01447266
v -0.02979911 0.00150811 0.01398462
v -0.03029955 0.00204286 0.01277164
v -0.03567733 -0.00089682 0.00387272
v -0.03522171 -0.00044875 0.00387272
v -0.02843973 0.00474896 -0.00408151
v -0.03468393 0.00001109 0.00387272
v -0.02946300 0.00391598 0.00479458
v -0.02835757 0.00470195 0.00387272
v -0.02789448 0.00490615 0.00387272
v -0.02801399 0.00490762 -0.00354210
v -0.02888041 0.00432732 0.00479458
v -0.02781232 0.00485767 -0.00623918
v -0.02704300 0.00513093 -0.00440117
v -0.02704300 0.00507070 -0.00532017
v -0.02612430 0.00506041 -0.00532017
v -0.02612430 0.00499724 -0.00623918
v -0.02803640 0.00488999 -0.00439546
v -0.02788701 0.00488999 -0.00532017
v -0.02038799 0.00377641 -0.00899619
v -0.02061207 0.00370442 -0.00985240
v -0.02520559 0.00487677 -0.00623918
v -0.02517572 0.00480185 -0.00711822
v -0.00264131 0.00106591 -0.00490063
v 0.01380574 -0.00170777 -0.00374474
v 0.03023786 -0.00448292 -0.00255745
v 0.03088020 -0.00459604 -0.00255745
v 0.03179891 -0.00477968 -0.00255745
v 0.03179891 -0.00485166 -0.00347931
v 0.02996150 -0.00459310 -0.00439831
v 0.03271761 -0.00507791 -0.00347931
v 0.03271761 -0.00517193 -0.00439831
v 0.03327780 -0.00533500 -0.00439831
v 0.03373342 -0.00551570 -0.00439831
v 0.03455502 -0.00588885 -0.00439831
v 0.03508533 -0.00625025 -0.00498339
v 0.03627293 -0.00695249 -0.00439831
v 0.03634015 -0.00700538 -0.00439831
v 0.03672855 -0.00731829 -0.00439831
v 0.03725138 -0.00777666 -0.00439831
v 0.03864064 -0.00910620 -0.00456670
v 0.03938009 -0.00981137 -0.00450962
v 0.03898422 -0.00981137 -0.00522884
v 0.03271761 -0.00981137 0.00682095
v -0.02807374 -0.00340018 0.01448693
v -0.02888041 -0.00340018 0.01454115
v -0.02945553 -0.00123619 0.01450691
v -0.02888041 -0.00031506 0.01456684
v -0.02888041 0.00060461 0.01456113
v -0.02944807 0.00050030 0.01450405
v -0.02944807 0.00060461 0.01449834
v -0.02958998 0.00222063 0.01373631
v -0.02923893 0.00283324 0.01336243
v -0.02980658 0.00243805 0.01306561
v -0.02888041 0.00132447 0.01449834
v -0.02888041 0.00178430 0.01436991
v -0.02940325 0.00294930 0.01274881
v -0.02947794 0.00301100 0.01214661
v -0.02956757 0.00308152 0.01122760
v -0.02964973 0.00315057 0.01030575
v -0.02922399 0.00374115 0.00846489
v -0.02929868 0.00379257 0.00754874
v -0.02933603 0.00381608 0.00705784
v -0.02941072 0.00387778 0.00571358
v -0.02830529 0.00469020 0.00479458
v -0.02784967 0.00487383 0.00479458
v -0.02704300 0.00510595 0.00387272
v -0.02704300 0.00511771 0.00295372
v -0.02704300 0.00517794 -0.00348216
v -0.02888041 0.00425093 0.00571358
v -0.02612430 0.00511330 -0.00440117
v -0.02520559 0.00493701 -0.00532017
v -0.02457818 0.00476953 -0.00623918
v -0.02469769 0.00474749 -0.00678430
v -0.00496421 0.00150076 -0.00439831
v 0.00836821 -0.00077783 -0.00394737
v -0.01911077 0.00383958 -0.00599943
v -0.02152330 0.00430676 -0.00532017
v 0.03088020 -0.00456078 -0.00163559
v 0.01391778 -0.00169014 -0.00313112
v 0.02719792 -0.00395697 -0.00255745
v 0.03179891 -0.00474001 -0.00163559
v 0.03271761 -0.00500298 -0.00255745
v 0.03340477 -0.00528358 -0.00347931
v 0.03386786 -0.00546428 -0.00347931
v 0.03455502 -0.00578602 -0.00347931
v 0.03516749 -0.00620324 -0.00439831
v 0.03562311 -0.00649412 -0.00439831
v 0.03634015 -0.00689372 -0.00347931
v 0.03684805 -0.00722133 -0.00290565
v 0.03680324 -0.00725659 -0.00347931
v 0.03571274 -0.00643536 -0.00347931
v 0.03740077 -0.00778253 -0.00349073
v 0.03775928 -0.00814834 -0.00381038
v 0.03770700 -0.00819241 -0.00439831
v 0.03947719 -0.00981137 -0.00412432
v 0.03425626 -0.00981137 0.00662973
v -0.02800652 -0.00123619 0.01449834
v -0.02704300 -0.00340018 0.01435850
v -0.02787208 0.00050030 0.01449549
v -0.02796171 0.00144494 0.01447837
v -0.02796171 0.00190477 0.01444126
v -0.02891029 0.00249241 0.01391041
v -0.02861899 0.00303157 0.01364784
v -0.02891029 0.00316967 0.01306276
v -0.02799905 0.00365888 0.01309701
v -0.02796171 0.00244099 0.01423292
v -0.02796171 0.00318730 0.01378198
v -0.02833516 0.00378082 0.01234354
v -0.02879078 0.00351785 0.01208096
v -0.02914183 0.00367945 0.00938960
v -0.02876837 0.00404673 0.00846489
v -0.02884306 0.00410402 0.00754874
v -0.02897004 0.00409961 0.00670679
v -0.02821566 0.00465347 0.00571358
v -0.02776004 0.00483564 0.00571358
v -0.02765547 0.00479891 0.00663259
v -0.02757331 0.00476512 0.00732612
v -0.02704300 0.00503837 0.00479458
v -0.02612430 0.00502221 0.00479458
v -0.02612430 0.00508098 0.00387272
v -0.02612430 0.00513827 0.00295372
v -0.02612430 0.00516031 0.00203471
v -0.02612430 0.00519557 -0.00256031
v -0.02612430 0.00515590 -0.00348216
v -0.02520559 0.00498695 -0.00440117
v -0.00750372 0.00194002 -0.00439831
v -0.01837879 0.00380579 -0.00457812
v -0.01507743 0.00324753 -0.00439831
v 0.03079804 -0.00451964 -0.00069947
v 0.03179891 -0.00471504 -0.00071659
v -0.00728712 0.00197675 -0.00283144
v -0.01282922 0.00289348 -0.00376186
v 0.03271761 -0.00493540 -0.00071659
v 0.03271761 -0.00496331 -0.00163559
v 0.03349441 -0.00524685 -0.00255745
v 0.03395002 -0.00542902 -0.00255745
v 0.03455502 -0.00571109 -0.00255745
v 0.03531688 -0.00611363 -0.00255745
v 0.03524965 -0.00615329 -0.00347931
v 0.03648206 -0.00691135 -0.00258314
v 0.03659410 -0.00700538 -0.00268018
v 0.03577249 -0.00638835 -0.00255745
v 0.03687793 -0.00719489 -0.00229488
v 0.03784145 -0.00807195 -0.00256031
v 0.03780410 -0.00810721 -0.00319676
v 0.03870040 -0.00904744 -0.00395594
v 0.03952200 -0.00981137 -0.00389029
v 0.03547373 -0.00981137 0.00647276
v 0.03455502 -0.00951020 0.00659548
v -0.02100793 -0.00340018 0.01360503
v -0.02715504 0.00050030 0.01440701
v -0.02612430 0.00152133 0.01428144
v -0.02712516 0.00158009 0.01440416
v -0.02748368 0.00131125 0.01444697
v -0.02704300 0.00244099 0.01428429
v -0.02704300 0.00374997 0.01340524
v -0.02772269 0.00390569 0.01280875
v -0.02704300 0.00329014 0.01385048
v -0.02799905 0.00395123 0.01208096
v -0.02796171 0.00409374 0.01122760
v -0.02796171 0.00422743 0.01030575
v -0.02843226 0.00382636 0.01173277
v -0.02867874 0.00398502 0.00938960
v -0.02811856 0.00461233 0.00663259
v -0.02737164 0.00473133 0.00793974
v -0.02704300 0.00488412 0.00663259
v -0.02704300 0.00496345 0.00571358
v -0.02790942 0.00459470 0.00759725
v -0.02796171 0.00446689 0.00846489
v -0.02796171 0.00434789 0.00938960
v -0.02612430 0.00495317 0.00571358
v -0.02520559 0.00489587 0.00479458
v -0.02513837 0.00481801 0.00574498
v -0.02520559 0.00494876 0.00387272
v -0.02520559 0.00499724 0.00295372
v -0.02520559 0.00504131 0.00203471
v -0.02520559 0.00506776 0.00111571
v -0.02520559 0.00508098 0.00008825
v -0.02520559 0.00508685 -0.00072230
v -0.02520559 0.00507804 -0.00164416
v -0.02520559 0.00505453 -0.00256031
v -0.02520559 0.00502368 -0.00348216
v -0.02428689 0.00487090 -0.00348216
v -0.02376405 0.00475190 -0.00415572
v -0.01828917 0.00382195 -0.00396450
v -0.01692231 0.00356486 -0.00439831
v 0.03043206 -0.00444913 -0.00038267
v 0.03079804 -0.00451817 0.00018244
v -0.01270225 0.00291551 -0.00255745
v -0.01507743 0.00332393 -0.00255745
v 0.03179891 -0.00471357 0.00019100
v -0.01600361 0.00345174 -0.00348216
v -0.01275453 0.00290523 -0.00314539
v 0.03271761 -0.00493393 0.00019100
v 0.03358404 -0.00521306 -0.00071659
v 0.03354669 -0.00522775 -0.00163559
v 0.03400977 -0.00540699 -0.00163559
v 0.03455502 -0.00566702 -0.00163559
v 0.03536169 -0.00609012 -0.00163559
v 0.03582478 -0.00636191 -0.00163559
v 0.03639990 -0.00678795 -0.00163559
v 0.03690033 -0.00717726 -0.00163845
v 0.03736342 -0.00757980 -0.00163845
v 0.03787879 -0.00804110 -0.00163845
v 0.03830453 -0.00849946 -0.00256031
v 0.03919336 -0.00944409 -0.00347931
v 0.03958176 -0.00981137 -0.00347931
v 0.03547373 -0.00951020 0.00647561
v 0.03645219 -0.00981137 0.00631579
v 0.03363632 -0.00859054 0.00671535
v 0.03179891 -0.00767235 0.00695224
v 0.03102959 -0.00767235 0.00704928
v -0.02059713 0.00058991 0.01358505
v -0.02059713 -0.00340018 0.01355365
v -0.02520559 0.00152133 0.01416727
v -0.02612430 0.00244099 0.01419296
v -0.02612430 0.00326516 0.01381908
v -0.02704300 0.00396739 0.01294574
v -0.02612430 0.00372499 0.01337670
v -0.02612430 0.00396005 0.01291435
v -0.02704300 0.00417748 0.01214661
v -0.02704300 0.00445514 0.01030575
v -0.02704300 0.00457707 0.00938960
v -0.02705794 0.00469313 0.00842778
v -0.02675917 0.00474896 0.00809957
v -0.02705794 0.00478716 0.00759725
v -0.02646788 0.00474896 0.00809957
v -0.02612430 0.00487090 0.00663259
v -0.02539979 0.00478569 0.00663259
v -0.02336071 0.00458295 0.00479458
v -0.02391343 0.00472399 0.00407536
v -0.02478732 0.00473133 0.00607605
v -0.02244201 0.00435524 0.00571358
v -0.01784102 0.00363244 0.00479172
v -0.02380886 0.00474161 0.00346174
v -0.01600361 0.00342823 0.00295372
v -0.01507743 0.00330776 0.00203186
v -0.01507743 0.00333421 0.00111286
v -0.01507743 0.00335184 0.00019100
v -0.01507743 0.00335331 -0.00071944
v -0.01507743 0.00334449 -0.00163845
v 0.03043206 -0.00444913 -0.00012295
v -0.00172261 0.00106591 -0.00043975
v 0.03039471 -0.00445647 0.00047640
v 0.03088020 -0.00456519 0.00111000
v 0.03179891 -0.00474589 0.00111000
v 0.03271761 -0.00496772 0.00111000
v 0.03353922 -0.00522775 0.00111000
v 0.03358404 -0.00521159 0.00019100
v 0.03403965 -0.00539229 0.00019100
v 0.03403218 -0.00539229 -0.00071659
v 0.03455502 -0.00563764 -0.00071659
v 0.03539157 -0.00607543 -0.00071659
v 0.03584719 -0.00634428 -0.00071659
v 0.03639990 -0.00675416 -0.00071659
v 0.03691527 -0.00716110 -0.00071659
v 0.03737836 -0.00756217 -0.00071659
v 0.03789373 -0.00802053 -0.00071659
v 0.03929046 -0.00935595 -0.00163845
v 0.03977595 -0.00981137 -0.00163845
v 0.03970126 -0.00981137 -0.00256031
v 0.03455502 -0.00859054 0.00658978
v 0.03707212 -0.00981137 0.00621304
v 0.03271761 -0.00767235 0.00682952
v 0.03053662 -0.00705973 0.00710065
v -0.02013404 0.00106884 0.01352797
v -0.02102287 0.00199585 0.01353368
v -0.02520559 0.00244099 0.01405311
v -0.02520559 0.00315791 0.01373060
v -0.02612430 0.00416572 0.01214661
v -0.02428689 0.00302863 0.01363357
v -0.02365948 0.00294343 0.01355936
v -0.02080627 0.00295959 0.01268602
v -0.02018633 0.00288760 0.01258042
v -0.02520559 0.00361775 0.01321688
v -0.02520559 0.00388953 0.01275737
v -0.02612430 0.00443604 0.01030575
v -0.02612430 0.00456532 0.00938960
v -0.02614670 0.00468285 0.00842778
v -0.02614670 0.00478128 0.00754017
v -0.02585541 0.00472105 0.00783985
v -0.02557905 0.00475337 0.00722908
v -0.02059713 0.00390716 0.00702074
v -0.02244201 0.00427003 0.00663259
v -0.01995478 0.00385280 0.00647561
v -0.01934231 0.00379992 0.00592478
v -0.01600361 0.00337828 0.00386987
v -0.02059713 0.00403644 0.00571073
v -0.00862409 0.00203992 0.00474321
v 0.00698642 -0.00059419 0.00386987
v 0.00287092 0.00014624 0.00347030
v 0.00055548 0.00057522 0.00295086
v 0.03088020 -0.00460485 0.00203186
v -0.01279934 0.00289935 0.00244570
v 0.03032002 -0.00446822 0.00111000
v -0.00172261 0.00106591 -0.00013722
v 0.03179891 -0.00478702 0.00203186
v 0.03271761 -0.00500886 0.00203186
v 0.03349441 -0.00524979 0.00203186
v 0.03400231 -0.00540845 0.00111000
v 0.03455502 -0.00566996 0.00111000
v 0.03455502 -0.00563617 0.00019100
v 0.03539157 -0.00607396 0.00019100
v 0.03585465 -0.00634428 0.00019100
v 0.03639990 -0.00675122 0.00019100
v 0.03692274 -0.00715963 0.00019100
v 0.03738583 -0.00756070 0.00019100
v 0.03790120 -0.00802053 0.00019100
v 0.03980583 -0.00981137 -0.00071659
v 0.03547373 -0.00859054 0.00642424
v 0.03363632 -0.00767235 0.00668396
v 0.03703478 -0.00970119 0.00621019
v 0.03747546 -0.00981137 0.00607319
v 0.03032749 -0.00644565 0.00707496
v 0.02308242 -0.00536144 0.00801109
v 0.01585229 -0.00437126 0.00894722
v 0.00105592 -0.00168280 0.01077381
v 0.00765117 -0.00254076 0.00988335
v 0.01478420 -0.00354269 0.00892724
v -0.01448737 0.00110851 0.01263465
v -0.02520559 0.00403203 0.01214661
v -0.02520559 0.00417601 0.01122760
v -0.02520559 0.00431263 0.01030575
v 0.00563450 -0.00168867 0.00985481
v -0.01654139 0.00194737 0.01257757
v -0.01715385 0.00203992 0.01265748
v -0.01073786 0.00111586 0.01174133
v -0.01438280 0.00203258 0.01176702
v -0.02466034 0.00383517 0.01264036
v -0.02520559 0.00444192 0.00938960
v -0.02520559 0.00455504 0.00846489
v -0.02059713 0.00393948 0.00671535
v -0.02028343 0.00379551 0.00754874
v 0.00789018 -0.00084100 0.00482026
v 0.00757648 -0.00075579 0.00453486
v -0.00829545 0.00196059 0.00501434
v 0.00832339 -0.00078370 0.00329049
v 0.02403100 -0.00352359 0.00349028
v 0.02962539 -0.00443003 0.00271968
v 0.03088020 -0.00467096 0.00295086
v 0.03179891 -0.00485166 0.00295086
v 0.03271761 -0.00507644 0.00295086
v 0.03395002 -0.00543196 0.00203186
v 0.03338984 -0.00528505 0.00295086
v 0.03455502 -0.00571550 0.00203186
v 0.03536169 -0.00609159 0.00111000
v 0.03582478 -0.00636337 0.00111000
v 0.03639990 -0.00679088 0.00111000
v 0.03690033 -0.00717873 0.00111000
v 0.03670614 -0.00700538 0.00057915
v 0.03736342 -0.00758127 0.00111000
v 0.03787879 -0.00804256 0.00111000
v 0.03976849 -0.00981137 0.00111000
v 0.03980583 -0.00981137 0.00021668
v 0.03455502 -0.00767235 0.00648418
v 0.03619077 -0.00859054 0.00624444
v 0.03271761 -0.00675122 0.00668110
v 0.03179891 -0.00675122 0.00686091
v 0.03683311 -0.00908857 0.00616167
v 0.03872281 -0.00981137 0.00536824
v 0.03733355 -0.00944116 0.00602467
v 0.02971502 -0.00621059 0.00711777
v 0.02778798 -0.00533647 0.00711492
v -0.02313664 0.00377935 0.01141312
v -0.01834892 0.00289201 0.01163288
v -0.01416620 0.00234844 0.01030860
v -0.02336071 0.00398502 0.01030575
v -0.02147849 0.00377494 0.00946380
v -0.02336071 0.00411871 0.00938960
v 0.01211025 -0.00259658 0.00894437
v 0.02491983 -0.00444619 0.00709494
v 0.03133582 -0.00537173 0.00616738
v 0.00849518 -0.00166957 0.00896720
v -0.01377033 0.00196353 0.01163859
v 0.01485889 -0.00260099 0.00802822
v -0.00172261 0.00014624 0.00985481
v -0.02114238 0.00380579 0.00880452
v -0.02244201 0.00407170 0.00846489
v -0.01536126 0.00293314 0.00754874
v 0.00116048 0.00016681 0.00638428
v 0.02996150 -0.00460632 0.00386987
v 0.02945360 -0.00445941 0.00333045
v 0.03088020 -0.00476939 0.00386987
v 0.03179891 -0.00495009 0.00386987
v 0.03271761 -0.00517633 0.00386987
v 0.03325539 -0.00533794 0.00386987
v 0.03385292 -0.00547163 0.00295086
v 0.03455502 -0.00579630 0.00295086
v 0.03524965 -0.00615476 0.00295086
v 0.03531688 -0.00611510 0.00203186
v 0.03577249 -0.00638835 0.00203186
v 0.03648206 -0.00691282 0.00206611
v 0.03687793 -0.00719783 0.00178070
v 0.03784145 -0.00807048 0.00203186
v 0.03723645 -0.00753572 0.00206611
v 0.03830453 -0.00850093 0.00203186
v 0.03968633 -0.00981137 0.00212604
v 0.03598910 -0.00808370 0.00619306
v 0.03540651 -0.00773552 0.00625871
v 0.03451768 -0.00700538 0.00628439
v 0.03366619 -0.00670274 0.00640712
v 0.03337490 -0.00619736 0.00625014
v 0.03271761 -0.00607249 0.00635004
v 0.03885725 -0.00981137 0.00517702
v 0.03790120 -0.00892991 0.00536253
v 0.02840045 -0.00546281 0.00703786
v 0.01028031 -0.00168280 0.00804819
v 0.01653945 -0.00263037 0.00697793
v -0.00641323 0.00104827 0.00976348
v -0.01207484 0.00194296 0.01051980
v -0.00014662 0.00009923 0.00863613
v -0.01634719 0.00292139 0.00906424
v -0.02175485 0.00386015 0.00920694
v 0.03179891 -0.00545400 0.00603324
v 0.03243379 -0.00531443 0.00537680
v 0.03179891 -0.00523804 0.00557373
v 0.02688421 -0.00442268 0.00622446
v 0.02117779 -0.00354415 0.00704928
v 0.00576148 -0.00075138 0.00726904
v 0.00095882 0.00013155 0.00699790
v -0.01551064 0.00290376 0.00804534
v 0.03088020 -0.00487517 0.00478887
v 0.03179891 -0.00505293 0.00478887
v 0.03273255 -0.00528211 0.00470896
v 0.03318070 -0.00536879 0.00434649
v 0.03371848 -0.00553039 0.00386987
v 0.03455502 -0.00591236 0.00386987
v 0.03514509 -0.00621206 0.00386987
v 0.03571274 -0.00643536 0.00295086
v 0.03634015 -0.00689372 0.00295086
v 0.03659410 -0.00700538 0.00216315
v 0.03684805 -0.00721693 0.00239432
v 0.03781157 -0.00810280 0.00267687
v 0.03958176 -0.00981137 0.00295086
v 0.03698997 -0.00801024 0.00538251
v 0.03566792 -0.00746961 0.00597045
v 0.03505546 -0.00718608 0.00618450
v 0.03273255 -0.00558915 0.00569360
v 0.03398737 -0.00636631 0.00609032
v 0.03366619 -0.00599316 0.00575639
v 0.03910373 -0.00981137 0.00478602
v 0.02749668 -0.00448585 0.00601040
v 0.02219359 -0.00352359 0.00620448
v 0.03436083 -0.00615329 0.00548240
v 0.03304626 -0.00541433 0.00496011
v 0.02783279 -0.00442268 0.00539678
v 0.02719792 -0.00436539 0.00570502
v 0.03355416 -0.00557300 0.00470896
v 0.03462225 -0.00607984 0.00480885
v 0.03507040 -0.00625760 0.00451488
v 0.03560070 -0.00650000 0.00386987
v 0.03625799 -0.00695836 0.00386987
v 0.03680324 -0.00725365 0.00295086
v 0.03740077 -0.00777959 0.00296799
v 0.03725138 -0.00778106 0.00386987
v 0.03770700 -0.00819241 0.00386987
v 0.03955188 -0.00981137 0.00315921
v 0.03713188 -0.00788390 0.00478602
v 0.03603391 -0.00713319 0.00535683
v 0.03852861 -0.00923107 0.00478602
v 0.03758749 -0.00832023 0.00478602
v 0.03540651 -0.00698040 0.00568219
v 0.03462225 -0.00651910 0.00575639
v 0.03940997 -0.00981137 0.00399830
v 0.03497330 -0.00631342 0.00512850
v 0.03542144 -0.00653967 0.00480885
v 0.03620570 -0.00700538 0.00435505
v 0.03672107 -0.00732123 0.00386987
v 0.03660904 -0.00742260 0.00478602
v 0.03864064 -0.00909592 0.00402684
v 0.03615342 -0.00704504 0.00478602
f 1 2 3
f 1 3 4
f 1 4 5
f 1 5 6
f 1 6 7
f 1 7 8
f 1 8 9
f 1 9 2
f 2 9 10
f 2 10 11
f 2 11 12
f 2 12 3
f 3 13 4
f 3 12 14
f 3 14 13
f 4 15 16
f 4 16 5
f 4 13 15
f 5 16 17
f 5 17 18
f 5 18 6
f 6 18 19
f 6 19 20
f 6 20 7
f 7 20 35
f 7 35 59
f 7 59 92
f 7 92 131
f 7 131 183
f 7 183 234
f 7 234 301
f 7 301 299
f 7 299 351
f 7 351 350
f 7 350 404
f 7 404 456
f 7 456 516
f 7 516 570
f 7 570 569
f 7 569 618
f 7 618 663
f 7 663 662
f 7 662 706
f 7 706 743
f 7 743 766
f 7 766 773
f 7 773 750
f 7 750 713
f 7 713 669
f 7 669 622
f 7 622 572
f 7 572 518
f 7 518 457
f 7 457 405
f 7 405 352
f 7 352 302
f 7 302 235
f 7 235 184
f 7 184 132
f 7 132 93
f 7 93 60
f 7 60 36
f 7 36 21
f 7 21 10
f 7 10 9
f 7 9 8
f 10 21 22
f 10 22 23
f 10 23 11
f 11 23 12
f 12 23 14
f 13 24 15
f 13 14 25
f 13 25 24
f 14 23 26
f 14 26 25
f 15 24 27
f 15 27 28
f 15 28 16
f 16 28 29
f 16 29 30
f 16 30 17
f 17 30 31
f 17 31 32
f 17 32 18
f 18 32 33
f 18 33 34
f 18 34 19
f 19 34 35
f 19 35 20
f 21 36 62
f 21 62 37
f 21 37 38
f 21 38 39
f 21 39 22
f 22 39 40
f 22 40 26
f 22 26 23
f 24 25 41
f 24 41 42
f 24 42 43
f 24 43 44
f 24 44 45
f 24 45 27
f 25 26 46
f 25 46 47
f 25 47 41
f 26 40 46
f 27 45 48
f 27 48 28
f 28 48 49
f 28 49 29
f 29 49 50
f 29 50 51
f 29 51 30
f 30 51 52
f 30 52 31
f 31 52 51
f 31 51 53
f 31 53 54
f 31 54 55
f 31 55 56
f 31 56 32
f 32 56 57
f 32 57 33
f 33 57 34
f 34 57 35
f 35 57 55
f 35 55 58
f 35 58 59
f 36 60 61
f 36 61 62
f 37 63 64
f 37 64 38
f 37 62 97
f 37 97 63
f 38 64 65
f 38 65 66
f 38 66 39
f 39 66 40
f 40 66 67
f 40 67 68
f 40 68 46
f 41 47 69
f 41 69 70
f 41 70 43
f 41 43 42
f 43 70 71
f 43 71 72
f 43 72 73
f 43 73 74
f 43 74 75
f 43 75 44
f 44 75 45
f 45 75 74
f 45 74 76
f 45 76 48
f 46 68 47
f 47 77 69
f 47 68 77
f 48 76 78
f 48 78 49
f 49 78 79
f 49 79 50
f 50 79 51
f 51 79 80
f 51 80 81
f 51 81 82
f 51 82 83
f 51 83 84
f 51 84 85
f 51 85 53
f 53 85 86
f 53 86 54
f 54 86 87
f 54 87 55
f 55 57 56
f 55 87 88
f 55 88 89
f 55 89 58
f 58 89 90
f 58 90 59
f 59 90 91
f 59 91 92
f 60 93 94
f 60 94 61
f 61 95 62
f 61 94 133
f 61 133 96
f 61 96 95
f 62 95 97
f 63 97 136
f 63 136 98
f 63 98 64
f 64 98 65
f 65 98 66
f 66 98 99
f 66 99 100
f 66 100 101
f 66 101 67
f 67 101 102
f 67 102 103
f 67 103 104
f 67 104 77
f 67 77 68
f 69 105 71
f 69 71 70
f 69 77 105
f 71 105 106
f 71 106 72
f 72 107 108
f 72 108 109
f 72 109 73
f 72 106 110
f 72 110 107
f 73 109 74
f 74 109 111
f 74 111 76
f 76 112 113
f 76 113 78
f 76 111 112
f 77 104 105
f 78 113 114
f 78 114 79
f 79 114 115
f 79 115 80
f 80 116 81
f 80 115 116
f 81 116 117
f 81 117 118
f 81 118 119
f 81 119 120
f 81 120 82
f 82 120 121
f 82 121 83
f 83 121 122
f 83 122 123
f 83 123 124
f 83 124 84
f 84 124 86
f 84 86 85
f 86 124 87
f 87 124 125
f 87 125 126
f 87 126 127
f 87 127 88
f 88 127 91
f 88 91 89
f 89 91 90
f 91 128 129
f 91 129 92
f 91 127 130
f 91 130 128
f 92 129 131
f 93 132 94
f 94 132 134
f 94 134 133
f 95 96 135
f 95 135 136
f 95 136 97
f 96 133 137
f 96 137 135
f 98 136 192
f 98 192 138
f 98 138 139
f 98 139 99
f 99 139 140
f 99 140 100
f 100 140 141
f 100 141 102
f 100 102 101
f 102 141 142
f 102 142 143
f 102 143 144
f 102 144 145
f 102 145 103
f 103 145 146
f 103 146 104
f 104 146 147
f 104 147 105
f 105 147 106
f 106 147 148
f 106 148 149
f 106 149 150
f 106 150 110
f 107 151 152
f 107 152 108
f 107 110 151
f 108 152 153
f 108 153 109
f 109 153 154
f 109 154 155
f 109 155 111
f 110 150 156
f 110 156 157
f 110 157 158
f 110 158 159
f 110 159 151
f 111 155 160
f 111 160 112
f 112 160 161
f 112 161 162
f 112 162 113
f 113 162 114
f 114 162 115
f 115 162 163
f 115 163 116
f 116 163 164
f 116 164 165
f 116 165 166
f 116 166 117
f 117 166 167
f 117 167 118
f 118 167 168
f 118 168 169
f 118 169 170
f 118 170 122
f 118 122 171
f 118 171 119
f 119 171 120
f 120 171 172
f 120 172 121
f 121 172 171
f 121 171 122
f 122 124 123
f 122 170 173
f 122 173 174
f 122 174 175
f 122 175 126
f 122 126 176
f 122 176 124
f 124 176 125
f 125 176 126
f 126 175 177
f 126 177 178
f 126 178 179
f 126 179 180
f 126 180 181
f 126 181 182
f 126 182 131
f 126 131 128
f 126 128 130
f 126 130 127
f 128 131 129
f 131 182 183
f 132 184 185
f 132 185 186
f 132 186 134
f 133 134 187
f 133 187 188
f 133 188 189
f 133 189 137
f 134 186 187
f 135 137 190
f 135 190 191
f 135 191 136
f 136 191 192
f 137 189 193
f 137 193 190
f 138 192 244
f 138 244 194
f 138 194 142
f 138 142 139
f 139 142 140
f 140 142 141
f 142 194 195
f 142 195 196
f 142 196 143
f 143 196 144
f 144 196 145
f 145 196 197
f 145 197 198
f 145 198 146
f 146 198 148
f 146 148 147
f 148 198 149
f 149 199 200
f 149 200 201
f 149 201 150
f 149 198 197
f 149 197 202
f 149 202 199
f 150 201 156
f 151 159 203
f 151 203 204
f 151 204 153
f 151 153 152
f 153 204 205
f 153 205 206
f 153 206 207
f 153 207 154
f 154 207 208
f 154 208 155
f 155 208 160
f 156 201 200
f 156 200 209
f 156 209 157
f 157 209 210
f 157 210 158
f 158 210 211
f 158 211 212
f 158 212 213
f 158 213 159
f 159 213 203
f 160 208 214
f 160 214 161
f 161 215 216
f 161 216 217
f 161 217 162
f 161 214 218
f 161 218 215
f 162 217 163
f 163 217 219
f 163 219 164
f 164 219 165
f 165 220 221
f 165 221 166
f 165 219 220
f 166 221 167
f 167 221 222
f 167 222 223
f 167 223 169
f 167 169 168
f 169 224 225
f 169 225 226
f 169 226 227
f 169 227 174
f 169 174 173
f 169 173 170
f 169 223 228
f 169 228 224
f 174 227 175
f 175 227 177
f 177 227 178
f 178 227 179
f 179 227 180
f 180 227 229
f 180 229 230
f 180 230 231
f 180 231 181
f 181 231 232
f 181 232 233
f 181 233 182
f 182 233 234
f 182 234 183
f 184 235 185
f 185 236 237
f 185 237 238
f 185 238 186
f 185 235 236
f 186 238 239
f 186 239 187
f 187 239 240
f 187 240 188
f 188 241 189
f 188 240 241
f 189 241 242
f 189 242 193
f 190 193 243
f 190 243 191
f 191 243 244
f 191 244 192
f 193 242 245
f 193 245 246
f 193 246 243
f 194 244 195
f 195 202 196
f 195 244 202
f 196 202 197
f 199 202 200
f 200 202 247
f 200 247 248
f 200 248 209
f 202 244 249
f 202 249 250
f 202 250 251
f 202 251 247
f 203 213 252
f 203 252 204
f 204 252 205
f 205 252 211
f 205 211 253
f 205 253 254
f 205 254 255
f 205 255 206
f 206 256 207
f 206 255 208
f 206 208 256
f 207 256 208
f 208 255 257
f 208 257 258
f 208 258 259
f 208 259 260
f 208 260 261
f 208 261 218
f 208 218 214
f 209 262 263
f 209 263 264
f 209 264 210
f 209 248 262
f 210 264 211
f 211 264 265
f 211 265 266
f 211 266 253
f 211 252 212
f 212 252 213
f 215 218 267
f 215 267 216
f 216 268 269
f 216 269 270
f 216 270 271
f 216 271 217
f 216 267 272
f 216 272 273
f 216 273 274
f 216 274 275
f 216 275 276
f 216 276 277
f 216 277 278
f 216 278 279
f 216 279 268
f 217 271 280
f 217 280 219
f 218 261 267
f 219 280 281
f 219 281 282
f 219 282 283
f 219 283 222
f 219 222 220
f 220 222 221
f 222 283 223
f 223 283 228
f 224 284 285
f 224 285 225
f 224 228 286
f 224 286 284
f 225 285 226
f 226 285 287
f 226 287 227
f 227 288 289
f 227 289 230
f 227 230 229
f 227 287 288
f 228 290 291
f 228 291 286
f 228 283 282
f 228 282 292
f 228 292 268
f 228 268 279
f 228 279 290
f 230 293 294
f 230 294 295
f 230 295 232
f 230 232 231
f 230 289 296
f 230 296 293
f 232 295 297
f 232 297 298
f 232 298 299
f 232 299 300
f 232 300 233
f 233 300 234
f 234 300 301
f 235 302 303
f 235 303 304
f 235 304 305
f 235 305 236
f 236 305 237
f 237 239 238
f 237 305 304
f 237 304 306
f 237 306 307
f 237 307 239
f 239 307 240
f 240 308 241
f 240 307 309
f 240 309 310
f 240 310 308
f 241 308 311
f 241 311 312
f 241 312 242
f 242 312 245
f 243 246 249
f 243 249 244
f 245 312 313
f 245 313 249
f 245 249 246
f 247 251 314
f 247 314 262
f 247 262 248
f 249 313 315
f 249 315 250
f 250 315 316
f 250 316 251
f 251 317 318
f 251 318 319
f 251 319 314
f 251 316 320
f 251 320 317
f 253 266 327
f 253 327 321
f 253 321 254
f 254 321 322
f 254 322 323
f 254 323 257
f 254 257 255
f 257 323 324
f 257 324 325
f 257 325 274
f 257 274 258
f 258 274 273
f 258 273 259
f 259 273 272
f 259 272 260
f 260 272 261
f 261 272 267
f 262 314 263
f 263 314 264
f 264 314 265
f 265 314 326
f 265 326 327
f 265 327 266
f 268 270 269
f 268 292 328
f 268 328 270
f 270 328 271
f 271 329 281
f 271 281 280
f 271 328 329
f 274 325 330
f 274 330 275
f 275 330 331
f 275 331 276
f 276 331 332
f 276 332 277
f 277 332 333
f 277 333 334
f 277 334 335
f 277 335 278
f 278 335 336
f 278 336 337
f 278 337 284
f 278 284 291
f 278 291 338
f 278 338 279
f 279 338 290
f 281 328 282
f 281 329 328
f 282 328 292
f 284 286 291
f 284 337 339
f 284 339 340
f 284 340 285
f 285 340 341
f 285 341 342
f 285 342 343
f 285 343 344
f 285 344 287
f 287 344 288
f 288 344 289
f 289 344 296
f 290 338 291
f 293 345 346
f 293 346 347
f 293 347 294
f 293 296 344
f 293 344 345
f 294 347 348
f 294 348 349
f 294 349 295
f 295 349 297
f 297 349 350
f 297 350 298
f 298 350 351
f 298 351 299
f 299 301 300
f 302 352 353
f 302 353 354
f 302 354 303
f 303 355 306
f 303 306 304
f 303 354 356
f 303 356 355
f 306 355 356
f 306 356 357
f 306 357 358
f 306 358 307
f 307 358 359
f 307 359 309
f 308 310 360
f 308 360 361
f 308 361 362
f 308 362 311
f 309 363 364
f 309 364 360
f 309 360 310
f 309 359 357
f 309 357 363
f 311 362 365
f 311 365 312
f 312 365 313
f 313 365 366
f 313 366 315
f 314 319 326
f 315 366 367
f 315 367 368
f 315 368 369
f 315 369 370
f 315 370 371
f 315 371 372
f 315 372 316
f 316 372 320
f 317 373 318
f 317 320 373
f 318 373 374
f 318 374 375
f 318 375 376
f 318 376 377
f 318 377 319
f 319 377 326
f 320 372 378
f 320 378 373
f 321 327 322
f 322 327 377
f 322 377 379
f 322 379 324
f 322 324 323
f 324 379 380
f 324 380 330
f 324 330 325
f 326 377 327
f 330 380 381
f 330 381 382
f 330 382 331
f 331 382 332
f 332 383 384
f 332 384 333
f 332 382 385
f 332 385 381
f 332 381 386
f 332 386 383
f 333 384 334
f 334 387 335
f 334 384 388
f 334 388 389
f 334 389 387
f 335 387 390
f 335 390 336
f 336 390 443
f 336 443 391
f 336 391 337
f 337 391 339
f 339 391 392
f 339 392 341
f 339 341 340
f 341 392 393
f 341 393 342
f 342 393 343
f 343 394 395
f 343 395 344
f 343 393 394
f 344 395 396
f 344 396 345
f 345 397 398
f 345 398 399
f 345 399 346
f 345 396 400
f 345 400 397
f 346 399 347
f 347 399 348
f 348 399 401
f 348 401 402
f 348 402 403
f 348 403 349
f 349 404 350
f 349 403 404
f 352 405 353
f 353 406 356
f 353 356 354
f 353 405 407
f 353 407 406
f 356 406 408
f 356 408 357
f 357 409 410
f 357 410 363
f 357 359 358
f 357 408 409
f 360 364 411
f 360 411 412
f 360 412 361
f 361 413 365
f 361 365 362
f 361 412 414
f 361 414 413
f 363 410 364
f 364 410 415
f 364 415 416
f 364 416 411
f 365 413 417
f 365 417 418
f 365 418 366
f 366 418 419
f 366 419 367
f 367 419 368
f 368 419 369
f 369 419 420
f 369 420 421
f 369 421 370
f 370 421 371
f 371 421 422
f 371 422 378
f 371 378 372
f 373 378 421
f 373 421 423
f 373 423 374
f 374 424 375
f 374 423 424
f 375 424 425
f 375 425 426
f 375 426 427
f 375 427 428
f 375 428 429
f 375 429 430
f 375 430 431
f 375 431 376
f 376 431 377
f 377 431 432
f 377 432 433
f 377 433 379
f 378 422 421
f 379 433 434
f 379 434 380
f 380 434 386
f 380 386 381
f 381 385 382
f 383 435 384
f 383 386 435
f 384 435 388
f 386 434 436
f 386 436 437
f 386 437 435
f 387 438 439
f 387 439 390
f 387 389 440
f 387 440 438
f 388 435 437
f 388 437 441
f 388 441 440
f 388 440 389
f 390 439 442
f 390 442 443
f 391 443 444
f 391 444 392
f 392 444 393
f 393 444 445
f 393 445 446
f 393 446 394
f 394 446 447
f 394 447 448
f 394 448 395
f 395 448 400
f 395 400 396
f 397 449 450
f 397 450 398
f 397 400 451
f 397 451 449
f 398 450 452
f 398 452 453
f 398 453 454
f 398 454 401
f 398 401 399
f 400 448 451
f 401 454 402
f 402 454 455
f 402 455 403
f 403 455 404
f 404 455 456
f 405 457 458
f 405 458 459
f 405 459 407
f 406 407 459
f 406 459 460
f 406 460 408
f 408 460 461
f 408 461 462
f 408 462 463
f 408 463 409
f 409 463 462
f 409 462 410
f 410 462 464
f 410 464 415
f 411 416 412
f 412 416 414
f 413 414 417
f 414 416 465
f 414 465 466
f 414 466 417
f 415 464 467
f 415 467 416
f 416 467 465
f 417 466 468
f 417 468 469
f 417 469 470
f 417 470 471
f 417 471 418
f 418 471 419
f 419 471 472
f 419 472 420
f 420 472 473
f 420 473 421
f 421 473 423
f 423 473 425
f 423 425 424
f 425 473 426
f 426 474 475
f 426 475 476
f 426 476 427
f 426 473 477
f 426 477 478
f 426 478 479
f 426 479 470
f 426 470 474
f 427 476 480
f 427 480 428
f 428 481 429
f 428 480 482
f 428 482 481
f 429 481 430
f 430 481 483
f 430 483 484
f 430 484 485
f 430 485 486
f 430 486 431
f 431 486 487
f 431 487 432
f 432 487 488
f 432 488 489
f 432 489 490
f 432 490 491
f 432 491 434
f 432 434 433
f 434 491 492
f 434 492 493
f 434 493 494
f 434 494 436
f 436 494 495
f 436 495 437
f 437 495 441
f 438 496 497
f 438 497 439
f 438 440 498
f 438 498 499
f 438 499 496
f 439 497 500
f 439 500 503
f 439 503 442
f 440 441 501
f 440 501 502
f 440 502 499
f 440 499 498
f 441 495 494
f 441 494 501
f 442 503 558
f 442 558 504
f 442 504 505
f 442 505 443
f 443 505 444
f 444 505 506
f 444 506 445
f 445 506 446
f 446 507 508
f 446 508 447
f 446 506 507
f 447 508 509
f 447 509 451
f 447 451 448
f 449 451 509
f 449 509 510
f 449 510 452
f 449 452 450
f 452 510 511
f 452 511 512
f 452 512 453
f 453 512 513
f 453 513 514
f 453 514 454
f 454 514 515
f 454 515 455
f 455 515 456
f 456 515 516
f 457 517 458
f 457 518 517
f 458 517 519
f 458 519 520
f 458 520 521
f 458 521 522
f 458 522 460
f 458 460 523
f 458 523 459
f 459 523 460
f 460 522 524
f 460 524 461
f 461 524 462
f 462 524 525
f 462 525 464
f 464 525 526
f 464 526 467
f 465 527 466
f 465 467 528
f 465 528 529
f 465 529 527
f 466 527 530
f 466 530 468
f 467 526 528
f 468 530 469
f 469 530 531
f 469 531 474
f 469 474 470
f 470 479 471
f 471 479 478
f 471 478 473
f 471 473 472
f 473 478 477
f 474 531 532
f 474 532 533
f 474 533 534
f 474 534 535
f 474 535 475
f 475 534 536
f 475 536 480
f 475 480 476
f 475 535 534
f 480 536 537
f 480 537 538
f 480 538 482
f 481 482 539
f 481 539 540
f 481 540 483
f 482 541 542
f 482 542 543
f 482 543 539
f 482 538 541
f 483 540 544
f 483 544 484
f 484 544 485
f 485 544 545
f 485 545 546
f 485 546 547
f 485 547 486
f 486 547 548
f 486 548 487
f 487 548 488
f 488 548 549
f 488 549 489
f 489 549 550
f 489 550 499
f 489 499 490
f 490 499 492
f 490 492 491
f 492 499 501
f 492 501 493
f 493 501 494
f 496 551 497
f 496 499 550
f 496 550 552
f 496 552 605
f 496 605 551
f 497 551 547
f 497 547 553
f 497 553 554
f 497 554 500
f 499 502 501
f 500 554 555
f 500 555 503
f 503 555 556
f 503 556 557
f 503 557 558
f 504 558 559
f 504 559 560
f 504 560 506
f 504 506 505
f 506 560 561
f 506 561 507
f 507 561 562
f 507 562 508
f 508 562 509
f 509 563 510
f 509 562 563
f 510 564 511
f 510 563 564
f 511 564 565
f 511 565 566
f 511 566 512
f 512 566 567
f 512 567 513
f 513 567 568
f 513 568 514
f 514 568 569
f 514 569 570
f 514 570 515
f 515 570 516
f 517 571 519
f 517 518 572
f 517 572 571
f 519 571 573
f 519 573 520
f 520 574 575
f 520 575 522
f 520 522 521
f 520 573 574
f 522 575 524
f 524 575 525
f 525 576 577
f 525 577 578
f 525 578 526
f 525 575 576
f 526 578 528
f 527 529 579
f 527 579 530
f 528 578 580
f 528 580 581
f 528 581 582
f 528 582 583
f 528 583 584
f 528 584 585
f 528 585 529
f 529 585 579
f 530 579 531
f 531 536 534
f 531 534 532
f 531 579 586
f 531 586 587
f 531 587 536
f 532 534 533
f 536 587 588
f 536 588 589
f 536 589 537
f 537 590 591
f 537 591 538
f 537 589 590
f 538 591 592
f 538 592 593
f 538 593 594
f 538 594 595
f 538 595 541
f 539 543 596
f 539 596 540
f 540 596 544
f 541 597 542
f 541 595 597
f 542 597 543
f 543 598 599
f 543 599 600
f 543 600 596
f 543 597 598
f 544 596 545
f 545 596 601
f 545 601 602
f 545 602 603
f 545 603 546
f 546 603 604
f 546 604 553
f 546 553 547
f 547 551 548
f 548 551 605
f 548 605 549
f 549 605 552
f 549 552 550
f 553 604 554
f 554 604 602
f 554 602 555
f 555 602 606
f 555 606 607
f 555 607 556
f 556 607 608
f 556 608 557
f 557 608 609
f 557 609 558
f 558 609 559
f 559 609 610
f 559 610 611
f 559 611 561
f 559 561 560
f 561 611 612
f 561 612 562
f 562 612 613
f 562 613 563
f 563 613 564
f 564 613 614
f 564 614 615
f 564 615 565
f 565 615 616
f 565 616 566
f 566 616 567
f 567 616 617
f 567 617 618
f 567 618 568
f 568 618 569
f 571 572 619
f 571 619 620
f 571 620 573
f 572 621 619
f 572 622 621
f 573 620 623
f 573 623 574
f 574 623 624
f 574 624 625
f 574 625 575
f 575 625 626
f 575 626 576
f 576 581 580
f 576 580 577
f 576 626 627
f 576 627 628
f 576 628 629
f 576 629 581
f 577 580 578
f 579 585 630
f 579 630 631
f 579 631 632
f 579 632 586
f 581 629 633
f 581 633 634
f 581 634 635
f 581 635 582
f 582 635 583
f 583 635 634
f 583 634 636
f 583 636 637
f 583 637 638
f 583 638 585
f 583 585 584
f 585 638 630
f 586 632 639
f 586 639 587
f 587 639 590
f 587 590 588
f 588 590 589
f 590 639 640
f 590 640 591
f 591 640 592
f 592 641 593
f 592 640 642
f 592 642 643
f 592 643 594
f 592 594 641
f 593 641 594
f 594 643 644
f 594 644 595
f 595 644 645
f 595 645 597
f 596 600 646
f 596 646 601
f 597 645 599
f 597 599 598
f 599 644 647
f 599 647 648
f 599 648 646
f 599 646 600
f 599 645 644
f 601 646 602
f 602 649 650
f 602 650 606
f 602 604 603
f 602 646 648
f 602 648 649
f 606 650 607
f 607 650 651
f 607 651 608
f 608 652 609
f 608 651 653
f 608 653 652
f 609 652 654
f 609 654 610
f 610 654 655
f 610 655 611
f 611 655 612
f 612 655 613
f 613 656 657
f 613 657 614
f 613 655 656
f 614 657 658
f 614 658 659
f 614 659 615
f 615 659 658
f 615 658 616
f 616 658 660
f 616 660 617
f 617 660 661
f 617 661 662
f 617 662 663
f 617 663 618
f 619 664 620
f 619 621 665
f 619 665 664
f 620 666 667
f 620 667 623
f 620 664 666
f 621 622 668
f 621 668 665
f 622 669 670
f 622 670 668
f 623 667 666
f 623 666 671
f 623 671 626
f 623 626 624
f 624 626 625
f 626 671 627
f 627 671 628
f 628 672 633
f 628 633 629
f 628 671 672
f 630 673 631
f 630 638 674
f 630 674 673
f 631 673 675
f 631 675 676
f 631 676 632
f 632 676 677
f 632 677 678
f 632 678 639
f 633 672 679
f 633 679 634
f 634 679 636
f 636 679 680
f 636 680 681
f 636 681 682
f 636 682 637
f 637 683 638
f 637 682 684
f 637 684 683
f 638 683 685
f 638 685 674
f 639 678 686
f 639 686 640
f 640 686 687
f 640 687 642
f 642 688 689
f 642 689 643
f 642 687 688
f 643 647 644
f 643 689 647
f 647 689 690
f 647 690 691
f 647 691 649
f 647 649 648
f 649 692 693
f 649 693 650
f 649 691 690
f 649 690 692
f 650 693 651
f 651 694 695
f 651 695 653
f 651 693 694
f 652 653 696
f 652 696 697
f 652 697 654
f 653 695 696
f 654 697 698
f 654 698 699
f 654 699 655
f 655 699 656
f 656 699 700
f 656 700 701
f 656 701 657
f 657 701 702
f 657 702 658
f 658 702 660
f 660 703 661
f 660 702 704
f 660 704 703
f 661 703 705
f 661 705 662
f 662 705 706
f 664 665 707
f 664 707 708
f 664 708 709
f 664 709 666
f 665 668 707
f 666 709 710
f 666 710 711
f 666 711 712
f 666 712 671
f 668 670 669
f 668 669 707
f 669 713 714
f 669 714 707
f 671 715 672
f 671 712 715
f 672 715 712
f 672 712 681
f 672 681 680
f 672 680 679
f 673 674 675
f 674 685 716
f 674 716 717
f 674 717 718
f 674 718 719
f 674 719 675
f 675 719 718
f 675 718 720
f 675 720 721
f 675 721 676
f 676 721 677
f 677 722 678
f 677 721 722
f 678 722 686
f 681 723 724
f 681 724 725
f 681 725 726
f 681 726 727
f 681 727 684
f 681 684 682
f 681 712 711
f 681 711 723
f 683 684 685
f 684 727 685
f 685 727 726
f 685 726 716
f 686 722 728
f 686 728 729
f 686 729 689
f 686 689 730
f 686 730 687
f 687 730 688
f 688 730 689
f 689 729 690
f 690 731 692
f 690 729 731
f 692 731 732
f 692 732 693
f 693 732 694
f 694 733 734
f 694 734 695
f 694 732 733
f 695 734 735
f 695 735 696
f 696 735 736
f 696 736 697
f 697 736 737
f 697 737 698
f 698 737 738
f 698 738 700
f 698 700 699
f 700 739 701
f 700 738 739
f 701 739 740
f 701 740 702
f 702 740 741
f 702 741 704
f 703 742 705
f 703 704 741
f 703 741 742
f 705 742 706
f 706 742 743
f 707 714 744
f 707 744 745
f 707 745 746
f 707 746 708
f 708 746 709
f 709 746 711
f 709 711 710
f 711 747 723
f 711 746 748
f 711 748 749
f 711 749 747
f 713 750 714
f 714 750 744
f 716 726 751
f 716 751 752
f 716 752 717
f 717 752 720
f 717 720 718
f 720 752 728
f 720 728 721
f 721 728 722
f 723 747 724
f 724 732 751
f 724 751 725
f 724 747 749
f 724 749 753
f 724 753 754
f 724 754 733
f 724 733 732
f 725 751 726
f 728 752 731
f 728 731 729
f 731 752 755
f 731 755 756
f 731 756 751
f 731 751 732
f 733 754 734
f 734 754 757
f 734 757 735
f 735 757 736
f 736 758 759
f 736 759 737
f 736 757 758
f 737 759 738
f 738 759 760
f 738 760 761
f 738 761 739
f 739 761 762
f 739 762 741
f 739 741 740
f 741 762 763
f 741 763 742
f 742 763 764
f 742 764 765
f 742 765 766
f 742 766 743
f 744 767 768
f 744 768 745
f 744 750 769
f 744 769 770
f 744 770 767
f 745 768 746
f 746 768 771
f 746 771 748
f 748 771 768
f 748 768 772
f 748 772 753
f 748 753 749
f 750 773 769
f 751 756 752
f 752 756 755
f 753 772 768
f 753 768 774
f 753 774 754
f 754 774 757
f 757 774 758
f 758 774 759
f 759 774 775
f 759 775 760
f 760 775 776
f 760 776 761
f 761 776 777
f 761 777 762
f 762 777 764
f 762 764 763
f 764 777 778
f 764 778 767
f 764 767 765
f 765 779 773
f 765 773 766
f 765 767 779
f 767 778 768
f 767 770 773
f 767 773 779
f 768 778 780
f 768 780 774
f 769 773 770
f 774 780 775
f 775 780 776
f 776 780 777
f 777 780 778

