# https://github.com/mikedh/trimesh
v -0.05100078 -0.06191826 0.02042280
v -0.05100078 -0.06191826 0.02134216
v -0.05100078 -0.05364270 0.01491372
v -0.05095636 -0.06283776 0.01491231
v -0.05096059 -0.06283776 0.01950344
v -0.05096059 -0.06283776 0.02134216
v -0.05072793 -0.06283776 0.02219069
v -0.05074485 -0.06191826 0.02225019
v -0.05077869 -0.05179834 0.02226152
v -0.05085695 -0.02997075 0.02226294
v -0.05086964 -0.02606819 0.02226294
v -0.05088445 -0.02147601 0.02226294
v -0.05089925 -0.01687847 0.02226152
v -0.05090137 -0.01595362 0.02226152
v -0.05100078 -0.02883206 0.02134358
v -0.05096482 -0.05272319 0.01399578
v -0.05096271 -0.05364270 0.01399578
v -0.05100078 -0.02698770 0.01491231
v -0.05087599 -0.06283776 0.01399294
v -0.05067505 -0.06370381 0.01399294
v -0.05066024 -0.06385350 0.01482164
v -0.05070466 -0.06375192 0.01583167
v -0.05071101 -0.06375192 0.01674678
v -0.05071947 -0.06375192 0.01950344
v -0.05072158 -0.06375192 0.02134216
v -0.05060737 -0.06375192 0.02198671
v -0.05032394 -0.06283776 0.02265250
v -0.05046988 -0.06191826 0.02271058
v -0.05048892 -0.06130882 0.02271908
v -0.05049315 -0.06069938 0.02272191
v -0.05049526 -0.06007390 0.02272474
v -0.05055449 -0.04444763 0.02277999
v -0.05060525 -0.02997075 0.02283807
v -0.05065179 -0.01503411 0.02289332
v -0.05090137 -0.01503411 0.02226152
v -0.05100078 -0.02147601 0.02134358
v -0.05071101 -0.05364270 0.01325774
v -0.05100078 -0.02331502 0.01491231
v -0.05096271 -0.05087883 0.01399578
v -0.05071101 -0.05272319 0.01325632
v -0.05064544 -0.06283776 0.01334415
v -0.05059468 -0.06352739 0.01340081
v -0.05043181 -0.06415287 0.01399294
v -0.05049103 -0.06421168 0.01445475
v -0.05050796 -0.06424375 0.02134216
v -0.05050161 -0.06422772 0.02181813
v -0.04986284 -0.06283776 0.02280549
v -0.05000667 -0.06370381 0.02241735
v -0.04968517 -0.06335098 0.02274741
v -0.05000878 -0.06191826 0.02285649
v -0.05012089 -0.06099340 0.02283949
v -0.05003205 -0.01595362 0.02321346
v -0.05064755 -0.01595362 0.02289190
v -0.05003205 -0.01503411 0.02321630
v -0.05062217 -0.01422153 0.02286073
v -0.05086118 -0.01411461 0.02226294
v -0.05099867 -0.01503411 0.02134358
v -0.05097751 -0.01411461 0.02134358
v -0.05100078 -0.02239017 0.01674678
v -0.05007224 -0.05272319 0.01279594
v -0.05007012 -0.05364270 0.01279735
v -0.05097963 -0.01411461 0.01583167
v -0.05093944 -0.01411461 0.01491089
v -0.05089080 -0.02331502 0.01399294
v -0.05089925 -0.02606819 0.01399294
v -0.05092887 -0.03710762 0.01399294
v -0.05070889 -0.05087883 0.01326199
v -0.05003205 -0.06283776 0.01294326
v -0.05007647 -0.06379469 0.01322799
v -0.04979939 -0.06432929 0.01342631
v -0.04963441 -0.06517930 0.01438392
v -0.04971689 -0.06526483 0.01491231
v -0.04976977 -0.06532898 0.01583167
v -0.05022876 -0.06467677 0.01583167
v -0.05023933 -0.06469816 0.01950344
v -0.05020972 -0.06470351 0.02042280
v -0.04977612 -0.06534502 0.01950344
v -0.04974862 -0.06529691 0.02042280
v -0.04967248 -0.06521137 0.02100927
v -0.05003205 -0.06436136 0.02193996
v -0.04911197 -0.06283776 0.02289048
v -0.04911197 -0.06191826 0.02299389
v -0.04911197 -0.06448967 0.02205470
v -0.04911197 -0.06384281 0.02251367
v -0.04911197 -0.06337771 0.02276299
v -0.04911197 -0.06099340 0.02301089
v -0.05003205 -0.06007390 0.02287348
v -0.04911197 -0.01595362 0.02336504
v -0.04911197 -0.01503411 0.02336929
v -0.04911197 -0.02883206 0.02326588
v -0.05003205 -0.01411461 0.02314122
v -0.05061794 -0.01411461 0.02285649
v -0.05055449 -0.01351586 0.02278707
v -0.05064332 -0.01319510 0.02224027
v -0.05077869 -0.01319510 0.02134358
v -0.05097963 -0.01411461 0.01766614
v -0.05079773 -0.01319510 0.01491089
v -0.04959210 -0.05087883 0.01260611
v -0.04961114 -0.05272319 0.01260045
v -0.05064332 -0.02515403 0.01336257
v -0.05063698 -0.02331502 0.01337107
v -0.05003205 -0.02331502 0.01301125
v -0.04960902 -0.05364270 0.01260186
v -0.05063275 -0.01324856 0.01401419
v -0.05052065 -0.01358001 0.01350281
v -0.05067505 -0.01409857 0.01394336
v -0.05067505 -0.03710762 0.01331724
v -0.04267773 -0.06191826 0.01023901
v -0.04267773 -0.06284311 0.01035517
v -0.04223567 -0.06422772 0.01076598
v -0.04259735 -0.06370381 0.01063990
v -0.04175976 -0.06510445 0.01176608
v -0.04175976 -0.06529691 0.01222789
v -0.04911197 -0.06540383 0.01491231
v -0.04911197 -0.06556421 0.01583167
v -0.04911197 -0.06560697 0.01674678
v -0.04977189 -0.06534502 0.01674678
v -0.04977612 -0.06535571 0.01858408
v -0.04911197 -0.06561232 0.01858408
v -0.04911197 -0.06559094 0.01950344
v -0.04911197 -0.06546263 0.02042280
v -0.04911197 -0.06525414 0.02107301
v -0.04911197 -0.06494408 0.02153340
v -0.04543586 -0.06284311 0.02288765
v -0.04598157 -0.06283776 0.02288907
v -0.04175976 -0.06191826 0.02299389
v -0.04598157 -0.06154939 0.02300098
v -0.04727603 -0.06448967 0.02205470
v -0.04598157 -0.06476231 0.02174305
v -0.04819400 -0.06384281 0.02251367
v -0.04598157 -0.06365570 0.02261425
v -0.04451366 -0.06337771 0.02275591
v -0.04267773 -0.06284311 0.02288482
v -0.04175976 -0.06099340 0.02301089
v -0.04598157 -0.06062453 0.02301656
v -0.04911197 -0.05832042 0.02303356
v -0.04634537 -0.01687847 0.02335795
v -0.04175976 -0.01595362 0.02336504
v -0.04175976 -0.01503411 0.02336929
v -0.04911197 -0.01422153 0.02330129
v -0.04598157 -0.05179834 0.02308597
v -0.04175976 -0.02883206 0.02326588
v -0.04911197 -0.01411461 0.02328996
v -0.04998975 -0.01319510 0.02287207
v -0.04965344 -0.01270327 0.02274316
v -0.05026472 -0.01289573 0.02253067
v -0.05052699 -0.01267120 0.02191871
v -0.05054603 -0.01263912 0.02134358
v -0.05055026 -0.01262843 0.01950202
v -0.05056084 -0.01261239 0.01491089
v -0.05053757 -0.01265516 0.01433576
v -0.04267773 -0.06099340 0.01022343
v -0.04266081 -0.01503411 0.01056907
v -0.04240699 -0.01347309 0.01069656
v -0.04257832 -0.01411461 0.01061440
v -0.04259101 -0.01422153 0.01060732
v -0.05028587 -0.01297057 0.01372238
v -0.04967248 -0.01268724 0.01349573
v -0.05000032 -0.01324856 0.01339515
v -0.04175976 -0.06099340 0.01000527
v -0.04175976 -0.06191826 0.01002227
v -0.04175976 -0.06284311 0.01013418
v -0.04175976 -0.06422772 0.01076314
v -0.04175976 -0.06465539 0.01123486
v -0.04175976 -0.06375192 0.01048974
v -0.04083968 -0.06508842 0.01177600
v -0.04083968 -0.06529691 0.01223639
v -0.04083968 -0.06464470 0.01123486
v -0.04175976 -0.06555352 0.01307358
v -0.04819400 -0.06561232 0.01583167
v -0.04819400 -0.06565509 0.01674678
v -0.04819400 -0.06567113 0.01858408
v -0.04819400 -0.06562836 0.01950344
v -0.04819400 -0.06547867 0.02042280
v -0.04598157 -0.06525414 0.02107443
v -0.04598157 -0.06547867 0.02042422
v -0.04175976 -0.06494408 0.02153340
v -0.04083968 -0.06191826 0.02298256
v -0.04083968 -0.06099340 0.02300098
v -0.04175976 -0.06284311 0.02288198
v -0.04083968 -0.06284311 0.02287207
v -0.04598157 -0.06448967 0.02205328
v -0.04543586 -0.06384281 0.02251084
v -0.04175976 -0.06336167 0.02275449
v -0.04175976 -0.06007390 0.02302081
v -0.04175976 -0.05179834 0.02308597
v -0.04175976 -0.01687847 0.02335795
v -0.04083968 -0.05548171 0.02304489
v -0.04083968 -0.01687847 0.02333387
v -0.04083968 -0.01595362 0.02333954
v -0.04083968 -0.01503411 0.02334379
v -0.04095178 -0.01422153 0.02327438
v -0.04175976 -0.01411461 0.02328429
v -0.04359781 -0.01422153 0.02329704
v -0.04634537 -0.01422153 0.02329988
v -0.04819188 -0.01422153 0.02330129
v -0.04819188 -0.01411461 0.02328996
v -0.04911197 -0.01319510 0.02300098
v -0.04911197 -0.01268724 0.02275449
v -0.04911197 -0.01222748 0.02233093
v -0.04963017 -0.01177842 0.02184788
v -0.04974228 -0.01167150 0.02134358
v -0.04982477 -0.01154320 0.02042422
v -0.05028587 -0.01217937 0.02042422
v -0.05029644 -0.01215264 0.01583167
v -0.04983323 -0.01153785 0.01583167
v -0.04974439 -0.01167150 0.01491089
v -0.04962383 -0.01178377 0.01441225
v -0.04995591 -0.01236113 0.01406802
v -0.03532129 -0.01422153 0.00890884
v -0.04175976 -0.01503411 0.01036367
v -0.04175976 -0.02997075 0.01024609
v -0.04175976 -0.01291177 0.01085947
v -0.04175976 -0.01185326 0.01173633
v -0.04267984 -0.01246270 0.01145018
v -0.03483692 -0.01422153 0.00890176
v -0.03440121 -0.01422153 0.00890034
v -0.03256527 -0.01422153 0.00890034
v -0.03164519 -0.01422153 0.00890884
v -0.04083968 -0.06191826 0.01004210
v -0.04083968 -0.06284311 0.01015685
v -0.04083968 -0.06375192 0.01050532
v -0.04083968 -0.06422772 0.01076598
v -0.04024321 -0.06523810 0.01236671
v -0.04037858 -0.06421168 0.01077164
v -0.04083968 -0.06553213 0.01307358
v -0.04083968 -0.06561232 0.01399294
v -0.04175976 -0.06562836 0.01399294
v -0.04598157 -0.06568182 0.01858550
v -0.04598157 -0.06562836 0.01950344
v -0.04543586 -0.06525414 0.02107443
v -0.04175976 -0.06547867 0.02042422
v -0.04083968 -0.06493873 0.02152348
v -0.04175976 -0.06447898 0.02204337
v -0.04175976 -0.06525414 0.02107160
v -0.04083968 -0.06524879 0.02106310
v -0.04020514 -0.06191826 0.02284657
v -0.03118409 -0.02560844 0.02180397
v -0.04028128 -0.06284311 0.02279274
v -0.04083968 -0.06336167 0.02275024
v -0.04035531 -0.06333494 0.02273749
v -0.04267773 -0.06447898 0.02204762
v -0.04175976 -0.06382677 0.02250234
v -0.03114390 -0.02147066 0.02182097
v -0.03108256 -0.01422153 0.02184930
v -0.04083968 -0.01411461 0.02326163
v -0.04083968 -0.01319510 0.02296556
v -0.04175976 -0.01319510 0.02298256
v -0.04267984 -0.01319510 0.02298681
v -0.04451578 -0.01319510 0.02299389
v -0.04727180 -0.01319510 0.02299956
v -0.04635383 -0.01268724 0.02275449
v -0.04819188 -0.01222748 0.02233093
v -0.04911197 -0.01176238 0.02187196
v -0.04911197 -0.01151112 0.02134358
v -0.04911197 -0.01123313 0.02042422
v -0.04982688 -0.01152182 0.01950202
v -0.04911197 -0.01116898 0.01950202
v -0.04983111 -0.01151112 0.01766614
v -0.04983323 -0.01151112 0.01674678
v -0.04911197 -0.01114225 0.01674678
v -0.04911197 -0.01121709 0.01583167
v -0.04911197 -0.01151112 0.01491089
v -0.04175976 -0.01156993 0.01219530
v -0.04175976 -0.01231302 0.01132128
v -0.04083968 -0.01185326 0.01174625
v -0.04083968 -0.01157527 0.01220522
v -0.04083968 -0.01125452 0.01307217
v -0.03081605 -0.01422153 0.00939898
v -0.04003170 -0.06284311 0.01047558
v -0.04022417 -0.06375192 0.01064698
v -0.03869281 -0.06507772 0.01460916
v -0.03849822 -0.06517930 0.01522395
v -0.03900374 -0.06546263 0.01583025
v -0.04013111 -0.06532898 0.01307358
v -0.04018822 -0.06443086 0.01123486
v -0.03837978 -0.06446294 0.01415160
v -0.03980961 -0.06375192 0.01123486
v -0.03992171 -0.06561232 0.01583025
v -0.03992171 -0.06564439 0.01674536
v -0.04083968 -0.06566578 0.01766330
v -0.04175976 -0.06567113 0.01858550
v -0.04175976 -0.06562836 0.01950202
v -0.04083968 -0.06547333 0.02042422
v -0.04028974 -0.06520603 0.02100077
v -0.04021571 -0.06437740 0.02194988
v -0.04083968 -0.06446828 0.02203345
v -0.04083968 -0.06382142 0.02249243
v -0.03081605 -0.02597731 0.02156032
v -0.03071876 -0.02514869 0.02153623
v -0.03848976 -0.06340444 0.02093560
v -0.03841996 -0.06284311 0.02100785
v -0.03018998 -0.02674713 0.02098943
v -0.03062146 -0.01422153 0.02156173
v -0.03810058 -0.01133471 0.01950202
v -0.03810058 -0.01165547 0.02020748
v -0.04036166 -0.01180515 0.02182238
v -0.04037012 -0.01273000 0.02273183
v -0.03068492 -0.02147066 0.02154615
v -0.03066800 -0.01946058 0.02155182
v -0.04083968 -0.01271396 0.02273749
v -0.04175976 -0.01270327 0.02274316
v -0.04359781 -0.01269793 0.02274883
v -0.04727180 -0.01222748 0.02232952
v -0.04819188 -0.01176238 0.02187196
v -0.04819188 -0.01149508 0.02134358
v -0.04819188 -0.01119571 0.02042422
v -0.04819188 -0.01111017 0.01950202
v -0.04911197 -0.01115294 0.01858550
v -0.04911197 -0.01114225 0.01766614
v -0.04819188 -0.01109414 0.01674678
v -0.04819188 -0.01117967 0.01583167
v -0.04175976 -0.01110483 0.01399153
v -0.04175976 -0.01122779 0.01307217
v -0.04083968 -0.01112087 0.01399153
v -0.03810058 -0.01117967 0.01583167
v -0.02967600 -0.01422153 0.01033534
v -0.03074414 -0.01422153 0.00944856
v -0.03830151 -0.06284311 0.01321808
v -0.03840093 -0.06360224 0.01335832
v -0.03023016 -0.02662417 0.01348723
v -0.03830575 -0.06473558 0.01491514
v -0.03844323 -0.06522741 0.01583025
v -0.03900374 -0.06552144 0.01674536
v -0.03854899 -0.06421168 0.01353964
v -0.03824864 -0.06384281 0.01390512
v -0.03800751 -0.06375192 0.01491231
v -0.03992171 -0.06565509 0.01766330
v -0.04083968 -0.06566578 0.01858550
v -0.04083968 -0.06562301 0.01950202
v -0.03992171 -0.06561232 0.01858550
v -0.03900374 -0.06543056 0.01858550
v -0.03851303 -0.06516326 0.01910396
v -0.03841996 -0.06437740 0.02013524
v -0.03014344 -0.02606819 0.02105743
v -0.03013287 -0.02514869 0.02107584
v -0.03832478 -0.06373054 0.02043130
v -0.03010960 -0.02703047 0.02047522
v -0.03000596 -0.02606819 0.02042564
v -0.03803501 -0.06375192 0.01950202
v -0.03013075 -0.02055115 0.02108859
v -0.03012864 -0.01595362 0.02109993
v -0.03012864 -0.01422153 0.02110134
v -0.03810058 -0.01113690 0.01858550
v -0.04083968 -0.01122779 0.02042422
v -0.04083968 -0.01154320 0.02134358
v -0.04083968 -0.01179446 0.02183797
v -0.04083968 -0.01225421 0.02229694
v -0.04175976 -0.01224352 0.02230402
v -0.04727180 -0.01176773 0.02187055
v -0.04175976 -0.01178377 0.02184221
v -0.04727180 -0.01149508 0.02134358
v -0.04451578 -0.01119571 0.02042422
v -0.04175976 -0.01111017 0.01950202
v -0.03810058 -0.01107810 0.01768314
v -0.04819188 -0.01109414 0.01858550
v -0.03810058 -0.01106741 0.01674678
v -0.04175976 -0.01107810 0.01491089
v -0.04083968 -0.01108345 0.01491089
v -0.02943699 -0.01422153 0.01123203
v -0.03014133 -0.02695562 0.01398303
v -0.03816826 -0.06467143 0.01583025
v -0.03841362 -0.06526483 0.01674536
v -0.03900374 -0.06552144 0.01766330
v -0.03018363 -0.02757041 0.01428476
v -0.03013498 -0.02767198 0.01491089
v -0.03846015 -0.06521137 0.01858550
v -0.03818307 -0.06467143 0.01858550
v -0.03834170 -0.06467677 0.01944678
v -0.02999750 -0.02514869 0.02042564
v -0.02999538 -0.02422384 0.02042564
v -0.02999327 -0.02239017 0.02042564
v -0.03012864 -0.01779264 0.02109426
v -0.02999115 -0.02698770 0.01950486
v -0.03017517 -0.02759714 0.02020182
v -0.02939257 -0.01422153 0.01215139
v -0.03012864 -0.02769337 0.01950486
v -0.02999115 -0.01963165 0.02042564
v -0.02999115 -0.01422153 0.02042422
v -0.04083968 -0.01112087 0.01950202
v -0.04175976 -0.01121175 0.02042422
v -0.04175976 -0.01152716 0.02134358
v -0.03810058 -0.01106741 0.01676519
v -0.02999961 -0.02698770 0.01491089
v -0.03005884 -0.02606819 0.01399153
v -0.03813865 -0.06467143 0.01674536
v -0.03841362 -0.06526483 0.01766330
v -0.03012864 -0.02770406 0.01582883
v -0.03813865 -0.06467143 0.01766330
v -0.03012864 -0.02771475 0.01858550
v -0.02999115 -0.02698770 0.01582883
f 1 2 15
f 1 15 36
f 1 36 59
f 1 59 38
f 1 38 18
f 1 18 3
f 1 3 4
f 1 4 5
f 1 5 6
f 1 6 2
f 2 6 7
f 2 7 8
f 2 8 9
f 2 9 10
f 2 10 11
f 2 11 12
f 2 12 13
f 2 13 14
f 2 14 15
f 3 16 17
f 3 17 4
f 3 18 16
f 4 17 19
f 4 19 20
f 4 20 21
f 4 21 22
f 4 22 23
f 4 23 24
f 4 24 25
f 4 25 5
f 5 25 6
f 6 25 26
f 6 26 7
f 7 26 27
f 7 27 28
f 7 28 8
f 8 28 29
f 8 29 30
f 8 30 31
f 8 31 32
f 8 32 33
f 8 33 34
f 8 34 9
f 9 34 10
f 10 34 11
f 11 34 12
f 12 34 13
f 13 34 14
f 14 34 35
f 14 35 36
f 14 36 15
f 16 37 17
f 16 18 38
f 16 38 39
f 16 39 40
f 16 40 37
f 17 37 19
f 19 41 42
f 19 42 20
f 19 37 41
f 20 42 43
f 20 43 44
f 20 44 21
f 21 44 45
f 21 45 23
f 21 23 22
f 23 45 24
f 24 45 25
f 25 45 46
f 25 46 26
f 26 46 27
f 27 47 28
f 27 46 48
f 27 48 49
f 27 49 47
f 28 50 29
f 28 47 50
f 29 50 51
f 29 51 52
f 29 52 30
f 30 52 31
f 31 33 32
f 31 52 33
f 33 52 53
f 33 53 34
f 34 53 52
f 34 52 54
f 34 54 55
f 34 55 56
f 34 56 35
f 35 57 36
f 35 56 58
f 35 58 57
f 36 57 59
f 37 40 60
f 37 60 61
f 37 61 41
f 38 59 57
f 38 57 62
f 38 62 63
f 38 63 64
f 38 64 65
f 38 65 66
f 38 66 39
f 39 66 67
f 39 67 40
f 40 67 60
f 41 68 42
f 41 61 68
f 42 69 70
f 42 70 43
f 42 68 69
f 43 70 71
f 43 71 72
f 43 72 44
f 44 72 73
f 44 73 74
f 44 74 75
f 44 75 45
f 45 75 76
f 45 76 46
f 46 76 77
f 46 77 78
f 46 78 79
f 46 79 80
f 46 80 48
f 47 81 82
f 47 82 50
f 47 49 81
f 48 80 49
f 49 80 83
f 49 83 84
f 49 84 85
f 49 85 81
f 50 82 86
f 50 86 87
f 50 87 51
f 51 87 52
f 52 88 89
f 52 89 54
f 52 87 90
f 52 90 88
f 54 89 91
f 54 91 92
f 54 92 55
f 55 92 56
f 56 92 93
f 56 93 94
f 56 94 95
f 56 95 58
f 57 58 96
f 57 96 62
f 58 95 97
f 58 97 96
f 60 98 99
f 60 99 103
f 60 103 61
f 60 67 100
f 60 100 101
f 60 101 102
f 60 102 98
f 61 103 68
f 62 96 97
f 62 97 63
f 63 97 104
f 63 104 105
f 63 105 106
f 63 106 64
f 64 101 100
f 64 100 107
f 64 107 67
f 64 67 65
f 64 106 105
f 64 105 101
f 65 67 66
f 67 107 100
f 68 103 108
f 68 108 109
f 68 109 69
f 69 110 70
f 69 109 111
f 69 111 110
f 70 110 71
f 71 112 113
f 71 113 114
f 71 114 72
f 71 110 112
f 72 114 115
f 72 115 73
f 73 115 116
f 73 116 117
f 73 117 74
f 74 117 75
f 75 117 118
f 75 118 77
f 75 77 76
f 77 118 119
f 77 119 120
f 77 120 78
f 78 120 121
f 78 121 79
f 79 121 122
f 79 122 123
f 79 123 80
f 80 123 83
f 81 85 124
f 81 124 125
f 81 125 126
f 81 126 82
f 82 126 127
f 82 127 86
f 83 128 130
f 83 130 84
f 83 123 129
f 83 129 128
f 84 130 131
f 84 131 85
f 85 131 132
f 85 132 133
f 85 133 124
f 86 127 134
f 86 134 135
f 86 135 136
f 86 136 87
f 87 136 90
f 88 137 187
f 88 187 138
f 88 138 139
f 88 139 89
f 88 90 137
f 89 139 196
f 89 196 140
f 89 140 91
f 90 136 135
f 90 135 141
f 90 141 186
f 90 186 142
f 90 142 187
f 90 187 137
f 91 143 144
f 91 144 93
f 91 93 92
f 91 140 143
f 93 144 145
f 93 145 146
f 93 146 147
f 93 147 94
f 94 147 95
f 95 147 148
f 95 148 149
f 95 149 150
f 95 150 97
f 97 150 151
f 97 151 104
f 98 152 99
f 98 102 153
f 98 153 152
f 99 152 103
f 101 105 102
f 102 105 153
f 103 152 108
f 104 151 105
f 105 154 155
f 105 155 156
f 105 156 153
f 105 151 157
f 105 157 158
f 105 158 159
f 105 159 154
f 108 152 160
f 108 160 161
f 108 161 162
f 108 162 109
f 109 162 111
f 110 163 164
f 110 164 112
f 110 111 162
f 110 162 165
f 110 165 163
f 112 166 167
f 112 167 113
f 112 164 168
f 112 168 166
f 113 167 169
f 113 169 114
f 114 169 115
f 115 169 170
f 115 170 171
f 115 171 116
f 116 118 117
f 116 171 172
f 116 172 119
f 116 119 118
f 119 172 120
f 120 172 173
f 120 173 121
f 121 173 174
f 121 174 122
f 122 175 123
f 122 174 176
f 122 176 175
f 123 175 231
f 123 231 177
f 123 177 129
f 124 133 125
f 125 133 126
f 126 178 179
f 126 179 134
f 126 134 127
f 126 133 180
f 126 180 181
f 126 181 178
f 128 182 183
f 128 183 130
f 128 129 177
f 128 177 182
f 130 183 131
f 131 184 132
f 131 183 184
f 132 184 133
f 133 184 180
f 134 179 185
f 134 185 135
f 135 185 186
f 135 186 141
f 138 187 188
f 138 188 189
f 138 189 190
f 138 190 191
f 138 191 139
f 139 191 192
f 139 192 193
f 139 193 194
f 139 194 195
f 139 195 196
f 140 196 197
f 140 197 143
f 142 186 188
f 142 188 187
f 143 197 198
f 143 198 144
f 144 198 145
f 145 198 199
f 145 199 200
f 145 200 201
f 145 201 146
f 146 201 147
f 147 201 202
f 147 202 203
f 147 203 204
f 147 204 148
f 148 204 205
f 148 205 149
f 149 205 150
f 150 205 206
f 150 206 151
f 151 206 207
f 151 207 208
f 151 208 209
f 151 209 157
f 152 153 160
f 153 156 210
f 153 210 211
f 153 211 212
f 153 212 160
f 154 159 158
f 154 158 213
f 154 213 210
f 154 210 155
f 155 210 156
f 157 209 158
f 158 209 208
f 158 208 214
f 158 214 215
f 158 215 213
f 160 212 210
f 160 210 161
f 161 210 216
f 161 216 217
f 161 217 218
f 161 218 219
f 161 219 220
f 161 220 162
f 162 221 222
f 162 222 165
f 162 220 221
f 163 165 223
f 163 223 164
f 164 223 168
f 165 222 223
f 166 224 167
f 166 168 225
f 166 225 224
f 167 224 226
f 167 226 169
f 168 223 225
f 169 226 227
f 169 227 228
f 169 228 170
f 170 228 171
f 171 228 229
f 171 229 172
f 172 229 173
f 173 229 230
f 173 230 232
f 173 232 176
f 173 176 174
f 175 176 232
f 175 232 231
f 177 233 234
f 177 234 182
f 177 231 235
f 177 235 236
f 177 236 233
f 178 237 238
f 178 238 179
f 178 181 239
f 178 239 237
f 179 188 185
f 179 238 188
f 180 184 240
f 180 240 181
f 181 240 241
f 181 241 239
f 182 234 242
f 182 242 183
f 183 243 240
f 183 240 184
f 183 242 234
f 183 234 243
f 185 188 186
f 188 238 189
f 189 238 190
f 190 238 244
f 190 244 245
f 190 245 191
f 191 245 246
f 191 246 192
f 192 246 193
f 193 246 247
f 193 247 248
f 193 248 249
f 193 249 250
f 193 250 251
f 193 251 197
f 193 197 195
f 193 195 194
f 195 197 196
f 197 251 198
f 198 251 252
f 198 252 199
f 199 252 253
f 199 253 200
f 200 253 305
f 200 305 254
f 200 254 201
f 201 254 255
f 201 255 256
f 201 256 202
f 202 256 203
f 203 257 204
f 203 256 258
f 203 258 257
f 204 257 259
f 204 259 205
f 205 259 260
f 205 260 206
f 206 260 261
f 206 261 262
f 206 262 207
f 207 262 208
f 208 262 263
f 208 263 264
f 208 264 214
f 210 213 265
f 210 265 214
f 210 214 216
f 210 212 211
f 213 215 265
f 214 266 219
f 214 219 218
f 214 218 217
f 214 217 216
f 214 265 215
f 214 264 266
f 219 266 267
f 219 267 268
f 219 268 269
f 219 269 270
f 219 270 220
f 220 270 221
f 221 270 271
f 221 271 225
f 221 225 222
f 222 225 223
f 224 272 273
f 224 273 274
f 224 274 275
f 224 275 226
f 224 225 276
f 224 276 277
f 224 277 272
f 225 271 278
f 225 278 276
f 226 274 227
f 226 275 274
f 227 279 280
f 227 280 228
f 227 274 279
f 228 280 281
f 228 281 229
f 229 281 282
f 229 282 283
f 229 283 230
f 230 283 232
f 231 232 235
f 232 284 235
f 232 283 330
f 232 330 284
f 233 236 285
f 233 285 286
f 233 286 287
f 233 287 234
f 234 287 288
f 234 288 243
f 235 284 236
f 236 284 285
f 237 239 238
f 238 289 290
f 238 290 244
f 238 239 289
f 239 241 291
f 239 291 292
f 239 292 293
f 239 293 289
f 240 243 288
f 240 288 241
f 241 288 287
f 241 287 286
f 241 286 291
f 244 290 245
f 245 294 295
f 245 295 296
f 245 296 297
f 245 297 298
f 245 298 247
f 245 247 246
f 245 290 299
f 245 299 300
f 245 300 294
f 247 298 301
f 247 301 248
f 248 301 302
f 248 302 249
f 249 302 303
f 249 303 252
f 249 252 250
f 250 252 251
f 252 303 304
f 252 304 253
f 253 304 305
f 254 305 352
f 254 352 306
f 254 306 255
f 255 306 307
f 255 307 256
f 256 307 308
f 256 308 258
f 257 258 309
f 257 309 310
f 257 310 259
f 258 308 356
f 258 356 309
f 259 310 260
f 260 310 261
f 261 310 356
f 261 356 311
f 261 311 262
f 262 311 312
f 262 312 313
f 262 313 314
f 262 314 263
f 263 314 264
f 264 267 266
f 264 314 267
f 267 314 268
f 268 314 315
f 268 315 316
f 268 316 317
f 268 317 318
f 268 318 269
f 269 318 270
f 270 319 320
f 270 320 278
f 270 278 271
f 270 318 317
f 270 317 321
f 270 321 319
f 272 277 273
f 273 277 322
f 273 322 323
f 273 323 274
f 274 324 279
f 274 323 324
f 276 278 325
f 276 325 277
f 277 325 326
f 277 326 327
f 277 327 322
f 278 320 325
f 279 324 280
f 280 328 281
f 280 324 328
f 281 328 329
f 281 329 282
f 282 329 330
f 282 330 283
f 284 330 331
f 284 331 332
f 284 332 285
f 285 332 333
f 285 333 334
f 285 334 286
f 286 334 291
f 289 293 335
f 289 335 290
f 290 335 336
f 290 336 299
f 291 334 337
f 291 337 293
f 291 293 292
f 293 338 339
f 293 339 335
f 293 337 340
f 293 340 338
f 294 300 336
f 294 336 341
f 294 341 342
f 294 342 343
f 294 343 295
f 295 344 345
f 295 345 346
f 295 346 297
f 295 297 296
f 295 343 344
f 297 346 347
f 297 347 348
f 297 348 298
f 298 348 301
f 299 336 300
f 301 348 349
f 301 349 302
f 302 349 304
f 302 304 303
f 304 349 350
f 304 350 305
f 305 350 351
f 305 351 352
f 306 352 353
f 306 353 307
f 307 353 354
f 307 354 308
f 308 354 355
f 308 355 356
f 309 356 310
f 311 313 312
f 311 356 383
f 311 383 357
f 311 357 358
f 311 358 313
f 313 358 359
f 313 359 315
f 313 315 314
f 315 359 357
f 315 357 316
f 316 357 317
f 317 360 321
f 317 357 360
f 319 321 320
f 320 326 325
f 320 321 326
f 321 360 361
f 321 361 326
f 322 362 323
f 322 327 362
f 323 362 363
f 323 363 324
f 324 363 387
f 324 387 364
f 324 364 328
f 326 361 365
f 326 365 327
f 327 365 366
f 327 366 362
f 328 364 331
f 328 331 329
f 329 331 330
f 331 364 332
f 332 364 367
f 332 367 333
f 333 368 369
f 333 369 334
f 333 367 368
f 334 340 337
f 334 369 340
f 335 339 336
f 336 370 371
f 336 371 372
f 336 372 373
f 336 373 341
f 336 339 370
f 338 374 339
f 338 340 375
f 338 375 374
f 339 374 376
f 339 376 370
f 340 369 368
f 340 368 377
f 340 377 375
f 341 373 342
f 342 373 378
f 342 378 343
f 343 378 379
f 343 379 344
f 344 355 380
f 344 380 345
f 344 379 355
f 345 380 381
f 345 381 382
f 345 382 346
f 346 382 347
f 347 349 348
f 347 382 351
f 347 351 349
f 349 351 350
f 351 382 352
f 352 382 381
f 352 381 353
f 353 381 354
f 354 381 380
f 354 380 355
f 355 383 356
f 355 379 376
f 355 376 383
f 357 359 358
f 357 383 376
f 357 376 360
f 360 376 384
f 360 384 385
f 360 385 361
f 361 385 384
f 361 384 365
f 362 386 363
f 362 366 386
f 363 386 389
f 363 389 387
f 364 387 367
f 365 384 366
f 366 388 386
f 366 384 388
f 367 387 368
f 368 387 389
f 368 389 377
f 370 376 371
f 371 376 372
f 372 378 373
f 372 376 378
f 374 375 377
f 374 377 390
f 374 390 391
f 374 391 376
f 376 379 378
f 376 391 384
f 377 389 390
f 384 391 388
f 386 388 390
f 386 390 389
f 388 391 390

