# https://github.com/mikedh/trimesh
v -0.01825554 -0.00061576 0.03933110
v -0.01818048 -0.00146781 0.03933110
v -0.01808756 -0.00061576 0.04109478
v -0.01825554 0.00061576 0.03933110
v -0.01806255 -0.00264564 0.03933110
v -0.01793389 -0.00383778 0.03933110
v -0.01781594 -0.00308240 0.04109478
v -0.01808756 0.00061576 0.04109478
v -0.01813045 0.00184729 0.03933110
v -0.01786955 -0.00431750 0.03933110
v -0.01767656 -0.00431750 0.04109478
v -0.01769801 0.00418862 0.04109478
v -0.01786955 0.00431392 0.03933110
v -0.01800179 0.00308240 0.03933110
v -0.01772302 -0.00506573 0.03933110
v -0.01765869 -0.00440701 0.04109478
v -0.01767656 0.00431392 0.04109478
v -0.01764440 0.00540225 0.03933110
v -0.01764440 -0.00539867 0.03933110
v -0.01743354 -0.00524473 0.04109478
v -0.01743354 0.00524473 0.04109478
v -0.01741209 0.00530917 0.04109478
v -0.01631133 0.00776506 0.04109478
v -0.01647930 0.00797271 0.03933110
v -0.01754790 -0.00563495 0.03933110
v -0.01626129 -0.00786888 0.04109478
v -0.01623270 0.00793333 0.04109478
v -0.01596823 0.00848465 0.04109478
v -0.01557510 0.00925077 0.04109478
v -0.01523915 0.01034626 0.03933110
v -0.01647930 -0.00797271 0.03933110
v -0.01596823 -0.00848823 0.04109478
v -0.01503186 0.01014578 0.04109478
v -0.01497825 0.01021022 0.04109478
v -0.01450292 0.01076154 0.04109478
v -0.01219060 0.01342866 0.04109478
v -0.01408478 0.01164581 0.03933110
v -0.01637566 -0.00819109 0.03933110
v -0.01544644 -0.00999900 0.03933110
v -0.01557510 -0.00925077 0.04109478
v -0.01290538 0.01294177 0.03933110
v -0.01157588 0.01392628 0.04109478
v -0.01170097 0.01411602 0.03933110
v -0.01534637 -0.01016726 0.03933110
v -0.01552506 -0.00934385 0.04109478
v -0.01148654 0.01399072 0.04109478
v -0.01028927 0.01519003 0.03933110
v -0.01523915 -0.01034626 0.03933110
v -0.01503186 -0.01014578 0.04109478
v -0.01070385 0.01454562 0.04109478
v -0.01015347 0.01493227 0.04109478
v -0.01008913 0.01497523 0.04109478
v -0.00924926 0.01552297 0.04109478
v -0.00917064 0.01557309 0.04109478
v -0.00852376 0.01597405 0.04109478
v -0.00800554 0.01653254 0.03933110
v -0.01504258 -0.01058612 0.03933110
v -0.01450292 -0.01076154 0.04109478
v -0.00790547 0.01632131 0.04109478
v -0.00779825 0.01636785 0.04109478
v -0.00530008 0.01760296 0.03933110
v -0.01389893 -0.01185703 0.03933110
v -0.01225136 -0.01336780 0.04109478
v -0.00678326 0.01676882 0.04109478
v -0.00516428 0.01735236 0.04109478
v -0.00509995 0.01737384 0.04109478
v -0.00431726 0.01761370 0.04109478
v -0.00419217 0.01764950 0.04109478
v -0.00431726 0.01782492 0.03933110
v -0.01273383 -0.01313151 0.03933110
v -0.01219060 -0.01342866 0.04109478
v -0.00308068 0.01787862 0.04109478
v -0.00308068 0.01806836 0.03933110
v -0.01189754 -0.01394776 0.03933110
v -0.01212984 -0.01348236 0.04109478
v -0.00295559 0.01790010 0.04109478
v -0.00185125 0.01805404 0.04109478
v -0.00185125 0.01822230 0.03933110
v -0.01170097 -0.01411602 0.03933110
v -0.01157588 -0.01392628 0.04109478
v -0.00172259 0.01806478 0.04109478
v -0.00061825 0.01814354 0.04109478
v -0.00061825 0.01828674 0.03933110
v -0.01053587 -0.01503251 0.03933110
v -0.01070385 -0.01454562 0.04109478
v 0.00061118 0.01814354 0.04109478
v 0.00061118 0.01828674 0.03933110
v -0.01028927 -0.01519003 0.03933110
v -0.00933504 -0.01546927 0.04109478
v -0.01008913 -0.01497523 0.04109478
v 0.00153325 0.01824736 0.03933110
v 0.00184775 0.01805404 0.04109478
v -0.00996405 -0.01539409 0.03933110
v -0.00924926 -0.01552297 0.04109478
v 0.00184775 0.01822230 0.03933110
v 0.00308433 0.01787862 0.04109478
v 0.00268047 0.01813996 0.03933110
v -0.00800554 -0.01653254 0.03933110
v -0.00846300 -0.01600985 0.04109478
v -0.00852376 -0.01597405 0.04109478
v 0.00383842 0.01795022 0.03933110
v 0.00431733 0.01761370 0.04109478
v -0.00764457 -0.01668648 0.03933110
v -0.00790547 -0.01632131 0.04109478
v 0.00502496 0.01767814 0.03933110
v 0.00438881 0.01759222 0.04109478
v 0.00530016 0.01760296 0.03933110
v -0.00678326 -0.01676882 0.04109478
v -0.00553954 -0.01752420 0.03933110
v 0.00510002 0.01737384 0.04109478
v 0.00553961 0.01752420 0.03933110
v -0.00509995 -0.01737384 0.04109478
v -0.00530008 -0.01760296 0.03933110
v 0.00678333 0.01676882 0.04109478
v 0.00764465 0.01668648 0.03933110
v 0.00790912 0.01632131 0.04109478
v -0.00438874 -0.01759222 0.04109478
v -0.00502489 -0.01767814 0.03933110
v -0.00431726 -0.01761370 0.04109478
v 0.00800561 0.01653254 0.03933110
v 0.00846307 0.01600985 0.04109478
v -0.00384193 -0.01795022 0.03933110
v -0.00308068 -0.01787862 0.04109478
v 0.00996769 0.01539409 0.03933110
v 0.00852383 0.01597405 0.04109478
v -0.00268040 -0.01813996 0.03933110
v -0.00185125 -0.01805404 0.04109478
v 0.01029292 0.01519003 0.03933110
v 0.00924934 0.01552297 0.04109478
v 0.00933511 0.01546927 0.04109478
v -0.00185125 -0.01822230 0.03933110
v -0.00153675 -0.01824736 0.03933110
v -0.00061825 -0.01814354 0.04109478
v 0.01053595 0.01503251 0.03933110
v 0.01008921 0.01497523 0.04109478
v -0.00061825 -0.01828674 0.03933110
v 0.00061118 -0.01814354 0.04109478
v 0.01170462 0.01411602 0.03933110
v 0.01070749 0.01454562 0.04109478
v 0.01157953 0.01392628 0.04109478
v 0.00061118 -0.01828674 0.03933110
v 0.00184775 -0.01822230 0.03933110
v 0.00172266 -0.01806478 0.04109478
v 0.01212991 0.01348236 0.04109478
v 0.01219424 0.01342866 0.04109478
v 0.01190118 0.01394776 0.03933110
v 0.00308433 -0.01806836 0.03933110
v 0.00184775 -0.01805404 0.04109478
v 0.01225143 0.01336780 0.04109478
v 0.01273748 0.01313151 0.03933110
v 0.00295924 -0.01790010 0.04109478
v 0.00431733 -0.01782492 0.03933110
v 0.00308433 -0.01787862 0.04109478
v 0.01389900 0.01185703 0.03933110
v 0.01456018 0.01070068 0.04109478
v 0.01504266 0.01058612 0.03933110
v 0.00530016 -0.01760296 0.03933110
v 0.00419224 -0.01764950 0.04109478
v 0.01502836 0.01014578 0.04109478
v 0.01524280 0.01034626 0.03933110
v 0.00516077 -0.01735236 0.04109478
v 0.00510002 -0.01737384 0.04109478
v 0.00431733 -0.01761370 0.04109478
v 0.00800561 -0.01653254 0.03933110
v 0.00779833 -0.01636785 0.04109478
v 0.00678333 -0.01676882 0.04109478
v 0.01534644 0.00963742 0.04109478
v 0.01534644 0.01017800 0.03933110
v 0.01029292 -0.01519003 0.03933110
v 0.00852740 -0.01597405 0.04109478
v 0.00790912 -0.01632131 0.04109478
v 0.01552513 0.00934385 0.04109478
v 0.01544651 0.00999900 0.03933110
v 0.01557875 0.00925435 0.04109478
v 0.01170462 -0.01411602 0.03933110
v 0.01157953 -0.01392628 0.04109478
v 0.01149018 -0.01399072 0.04109478
v 0.01070749 -0.01454562 0.04109478
v 0.01009278 -0.01497523 0.04109478
v 0.00924934 -0.01552297 0.04109478
v 0.00917071 -0.01557309 0.04109478
v 0.01637930 0.00819109 0.03933110
v 0.01592899 0.00857057 0.04109478
v 0.01290545 -0.01294177 0.03933110
v 0.01219782 -0.01343224 0.04109478
v 0.01647937 0.00797271 0.03933110
v 0.01626494 0.00786888 0.04109478
v 0.01408842 -0.01164581 0.03933110
v 0.01524280 -0.01034626 0.03933110
v 0.01450657 -0.01076154 0.04109478
v 0.01754797 0.00563853 0.03933110
v 0.01744076 0.00524831 0.04109478
v 0.01557875 -0.00925435 0.04109478
v 0.01534644 -0.00963384 0.04109478
v 0.01502836 -0.01014578 0.04109478
v 0.01497475 -0.01021022 0.04109478
v 0.01647937 -0.00797271 0.03933110
v 0.01764804 0.00540225 0.03933110
v 0.01766234 0.00440342 0.04109478
v 0.01596830 -0.00848823 0.04109478
v 0.01764804 -0.00540225 0.03933110
v 0.01631497 -0.00776506 0.04109478
v 0.01623635 -0.00793333 0.04109478
v 0.01772667 0.00506573 0.03933110
v 0.01768021 0.00431750 0.04109478
v 0.01744076 -0.00524831 0.04109478
v 0.01786963 -0.00431750 0.03933110
v 0.01768021 -0.00431750 0.04109478
v 0.01786963 0.00431750 0.03933110
v 0.01781959 0.00308240 0.04109478
v 0.01793753 0.00383778 0.03933110
v 0.01800543 -0.00308240 0.03933110
v 0.01783746 -0.00295710 0.04109478
v 0.01770165 -0.00418862 0.04109478
v 0.01809121 0.00061576 0.04109478
v 0.01806619 0.00264206 0.03933110
v 0.01813409 -0.00184729 0.03933110
v 0.01809121 -0.00061576 0.04109478
v 0.01825561 -0.00061576 0.03933110
v 0.01825204 0.00061576 0.03933110
v 0.01818413 0.00147139 0.03933110
f 1 2 3
f 1 3 8
f 1 8 4
f 1 4 9
f 1 9 14
f 1 14 13
f 1 13 18
f 1 18 24
f 1 24 30
f 1 30 37
f 1 37 41
f 1 41 43
f 1 43 47
f 1 47 56
f 1 56 61
f 1 61 69
f 1 69 73
f 1 73 78
f 1 78 83
f 1 83 87
f 1 87 91
f 1 91 95
f 1 95 97
f 1 97 101
f 1 101 105
f 1 105 107
f 1 107 111
f 1 111 115
f 1 115 120
f 1 120 124
f 1 124 128
f 1 128 134
f 1 134 138
f 1 138 146
f 1 146 150
f 1 150 154
f 1 154 156
f 1 156 160
f 1 160 168
f 1 168 173
f 1 173 182
f 1 182 186
f 1 186 191
f 1 191 198
f 1 198 204
f 1 204 209
f 1 209 211
f 1 211 216
f 1 216 221
f 1 221 220
f 1 220 219
f 1 219 217
f 1 217 212
f 1 212 207
f 1 207 201
f 1 201 197
f 1 197 189
f 1 189 188
f 1 188 184
f 1 184 175
f 1 175 169
f 1 169 164
f 1 164 157
f 1 157 152
f 1 152 147
f 1 147 142
f 1 142 141
f 1 141 136
f 1 136 132
f 1 132 131
f 1 131 126
f 1 126 122
f 1 122 118
f 1 118 113
f 1 113 109
f 1 109 103
f 1 103 98
f 1 98 93
f 1 93 88
f 1 88 84
f 1 84 79
f 1 79 74
f 1 74 70
f 1 70 62
f 1 62 57
f 1 57 48
f 1 48 44
f 1 44 39
f 1 39 38
f 1 38 31
f 1 31 25
f 1 25 19
f 1 19 15
f 1 15 10
f 1 10 6
f 1 6 5
f 1 5 2
f 2 5 3
f 3 5 6
f 3 6 7
f 3 7 11
f 3 11 16
f 3 16 20
f 3 20 26
f 3 26 32
f 3 32 40
f 3 40 45
f 3 45 49
f 3 49 58
f 3 58 63
f 3 63 71
f 3 71 75
f 3 75 80
f 3 80 85
f 3 85 90
f 3 90 89
f 3 89 94
f 3 94 100
f 3 100 99
f 3 99 104
f 3 104 108
f 3 108 112
f 3 112 117
f 3 117 119
f 3 119 123
f 3 123 127
f 3 127 133
f 3 133 137
f 3 137 143
f 3 143 148
f 3 148 151
f 3 151 153
f 3 153 158
f 3 158 163
f 3 163 162
f 3 162 161
f 3 161 166
f 3 166 165
f 3 165 171
f 3 171 170
f 3 170 181
f 3 181 180
f 3 180 179
f 3 179 178
f 3 178 177
f 3 177 176
f 3 176 185
f 3 185 190
f 3 190 196
f 3 196 195
f 3 195 194
f 3 194 193
f 3 193 200
f 3 200 203
f 3 203 202
f 3 202 206
f 3 206 208
f 3 208 214
f 3 214 213
f 3 213 218
f 3 218 215
f 3 215 210
f 3 210 205
f 3 205 199
f 3 199 192
f 3 192 187
f 3 187 183
f 3 183 174
f 3 174 172
f 3 172 167
f 3 167 159
f 3 159 155
f 3 155 149
f 3 149 145
f 3 145 144
f 3 144 140
f 3 140 139
f 3 139 135
f 3 135 130
f 3 130 129
f 3 129 125
f 3 125 121
f 3 121 116
f 3 116 114
f 3 114 110
f 3 110 106
f 3 106 102
f 3 102 96
f 3 96 92
f 3 92 86
f 3 86 82
f 3 82 81
f 3 81 77
f 3 77 76
f 3 76 72
f 3 72 68
f 3 68 67
f 3 67 66
f 3 66 65
f 3 65 64
f 3 64 60
f 3 60 59
f 3 59 55
f 3 55 54
f 3 54 53
f 3 53 52
f 3 52 51
f 3 51 50
f 3 50 46
f 3 46 42
f 3 42 36
f 3 36 35
f 3 35 34
f 3 34 33
f 3 33 29
f 3 29 28
f 3 28 27
f 3 27 23
f 3 23 22
f 3 22 21
f 3 21 17
f 3 17 12
f 3 12 8
f 4 8 9
f 6 10 11
f 6 11 7
f 8 12 13
f 8 13 14
f 8 14 9
f 10 15 11
f 11 15 16
f 12 17 13
f 13 17 18
f 15 19 16
f 16 19 20
f 17 21 18
f 18 21 22
f 18 22 23
f 18 23 24
f 19 25 20
f 20 25 26
f 23 27 24
f 24 27 28
f 24 28 29
f 24 29 30
f 25 31 26
f 26 31 32
f 29 33 30
f 30 33 34
f 30 34 35
f 30 35 36
f 30 36 37
f 31 38 32
f 32 39 40
f 32 38 39
f 36 41 37
f 36 42 43
f 36 43 41
f 39 44 45
f 39 45 40
f 42 46 47
f 42 47 43
f 44 48 45
f 45 48 49
f 46 50 47
f 47 50 51
f 47 51 52
f 47 52 53
f 47 53 54
f 47 54 55
f 47 55 56
f 48 57 49
f 49 57 58
f 55 59 56
f 56 59 60
f 56 60 61
f 57 62 63
f 57 63 58
f 60 64 61
f 61 65 66
f 61 66 67
f 61 67 68
f 61 68 69
f 61 64 65
f 62 70 63
f 63 70 71
f 68 72 69
f 69 72 73
f 70 74 71
f 71 74 75
f 72 76 73
f 73 76 77
f 73 77 78
f 74 79 75
f 75 79 80
f 77 81 78
f 78 82 83
f 78 81 82
f 79 84 80
f 80 84 85
f 82 86 87
f 82 87 83
f 84 88 89
f 84 89 90
f 84 90 85
f 86 91 87
f 86 92 91
f 88 93 89
f 89 93 94
f 91 92 95
f 92 96 97
f 92 97 95
f 93 98 99
f 93 99 100
f 93 100 94
f 96 101 97
f 96 102 101
f 98 103 104
f 98 104 99
f 101 102 105
f 102 106 107
f 102 107 105
f 103 108 104
f 103 109 108
f 106 110 107
f 107 110 111
f 108 109 112
f 109 113 112
f 110 114 111
f 111 114 116
f 111 116 115
f 112 113 117
f 113 118 119
f 113 119 117
f 115 116 120
f 116 121 120
f 118 122 119
f 119 122 123
f 120 121 124
f 121 125 124
f 122 126 123
f 123 126 127
f 124 125 129
f 124 129 130
f 124 130 128
f 126 131 127
f 127 131 132
f 127 132 133
f 128 130 134
f 130 135 134
f 132 136 133
f 133 136 141
f 133 141 137
f 134 135 139
f 134 139 140
f 134 140 138
f 137 141 142
f 137 142 143
f 138 140 144
f 138 144 145
f 138 145 146
f 142 147 148
f 142 148 143
f 145 149 150
f 145 150 146
f 147 151 148
f 147 152 153
f 147 153 151
f 149 154 150
f 149 155 156
f 149 156 154
f 152 157 158
f 152 158 153
f 155 159 156
f 156 159 160
f 157 161 162
f 157 162 163
f 157 163 158
f 157 164 165
f 157 165 166
f 157 166 161
f 159 167 160
f 160 167 168
f 164 169 170
f 164 170 171
f 164 171 165
f 167 172 168
f 168 172 174
f 168 174 173
f 169 175 176
f 169 176 177
f 169 177 178
f 169 178 179
f 169 179 180
f 169 180 181
f 169 181 170
f 173 174 182
f 174 183 182
f 175 184 185
f 175 185 176
f 182 183 187
f 182 187 186
f 184 188 185
f 185 188 189
f 185 189 190
f 186 187 191
f 187 192 191
f 189 193 194
f 189 194 195
f 189 195 196
f 189 196 190
f 189 197 193
f 191 192 198
f 192 199 198
f 193 197 200
f 197 201 202
f 197 202 203
f 197 203 200
f 198 199 204
f 199 205 204
f 201 206 202
f 201 207 208
f 201 208 206
f 204 205 209
f 205 210 211
f 205 211 209
f 207 212 213
f 207 213 214
f 207 214 208
f 210 215 211
f 211 215 216
f 212 217 218
f 212 218 213
f 215 218 219
f 215 219 220
f 215 220 221
f 215 221 216
f 217 219 218

