# https://github.com/mikedh/trimesh
v 0.00355359 0.03126094 0.06308630
v 0.00252132 0.03208797 0.06405493
v 0.00430853 0.03126094 0.06311999
v -0.00310996 0.03126094 0.06309472
v -0.00253219 0.03208797 0.06405072
v -0.00237812 0.03208797 0.06405072
v 0.00305286 0.03296448 0.06534363
v 0.00334559 0.03206677 0.06408020
v 0.00061084 0.03315592 0.06552472
v 0.00185111 0.03314532 0.06553735
v 0.00185111 0.03357415 0.06615222
v 0.00454734 0.03126094 0.06320001
v 0.00555650 0.03596747 0.06996357
v 0.00678907 0.03588913 0.07009412
v 0.00759794 0.03582433 0.07018256
v 0.00925419 0.03612592 0.07101642
v 0.01048675 0.03600576 0.07119752
v 0.01149592 0.03588618 0.07134913
v 0.01232019 0.03577426 0.07146705
v -0.00431941 0.03126094 0.06312421
v -0.00306374 0.03296448 0.06534363
v -0.00308685 0.03507152 0.06837165
v -0.00185428 0.03314532 0.06553735
v -0.00061402 0.03315592 0.06552472
v -0.00335647 0.03206677 0.06408020
v 0.00308367 0.03459733 0.06769361
v 0.00385403 0.03457201 0.06772730
v 0.00431624 0.03560226 0.06925605
v -0.00000544 0.03358122 0.06613959
v 0.00185111 0.03565881 0.06917182
v 0.00185111 0.03461677 0.06765991
v 0.00308367 0.03606997 0.06981196
v 0.01497020 0.03584259 0.07263361
v 0.01742763 0.03585260 0.07385072
v 0.01976950 0.03579841 0.07514784
v 0.03496854 0.03126094 0.08085854
v 0.00555650 0.03654710 0.07084376
v 0.00678907 0.03639689 0.07084376
v 0.00431624 0.03602873 0.06987092
v 0.00443949 0.03671910 0.07091956
v 0.00925419 0.03674325 0.07189240
v 0.00801392 0.03615479 0.07075532
v 0.01048675 0.03667197 0.07215772
v 0.01183487 0.03622135 0.07195557
v 0.01295188 0.03611120 0.07222090
v 0.01381468 0.03600281 0.07239777
v 0.01419215 0.03595510 0.07247779
v -0.01496567 0.03584259 0.07262940
v -0.01419532 0.03595804 0.07247358
v -0.01226944 0.03573951 0.07148811
v -0.01144516 0.03587675 0.07136176
v -0.01048993 0.03599574 0.07121436
v -0.00925736 0.03612416 0.07101642
v -0.00761651 0.03582433 0.07018256
v -0.00678454 0.03588913 0.07008991
v -0.00555197 0.03596806 0.06996778
v -0.03458654 0.03126094 0.08070693
v -0.01975726 0.03579782 0.07514784
v -0.01742310 0.03584907 0.07385072
v -0.00384949 0.03457201 0.06772730
v -0.00431941 0.03560226 0.06925605
v -0.00431941 0.03602873 0.06987092
v -0.00308685 0.03606997 0.06981617
v -0.00185428 0.03510745 0.06837165
v -0.00061402 0.03358122 0.06613959
v -0.00000544 0.03419796 0.06703662
v 0.00185111 0.03670084 0.07068793
v 0.00308367 0.03668729 0.07071320
v 0.01409971 0.03661012 0.07342536
v 0.01540160 0.03613888 0.07326533
v 0.01665727 0.03599162 0.07365699
v 0.01660335 0.03662721 0.07462983
v 0.01786673 0.03610825 0.07452034
v 0.01913010 0.03640514 0.07578376
v 0.02037037 0.03669554 0.07705983
v 0.02159523 0.03615479 0.07698402
v 0.02117924 0.03588677 0.07625966
v 0.02591690 0.03578958 0.08009206
v 0.03434455 0.03199431 0.08156185
v 0.03556171 0.03126094 0.08148183
v 0.02253506 0.03595333 0.07737569
v 0.02381384 0.03597513 0.07853383
v 0.00410824 0.03706252 0.07138703
v 0.00492481 0.03701893 0.07146284
v 0.00925419 0.03711494 0.07250727
v 0.01007077 0.03706311 0.07261677
v 0.01381468 0.03663840 0.07335798
v -0.01539707 0.03614124 0.07326112
v -0.01665274 0.03598926 0.07365699
v -0.01409517 0.03661366 0.07342536
v -0.01296276 0.03610825 0.07223774
v -0.01048222 0.03666137 0.07215772
v -0.01180723 0.03621016 0.07197242
v -0.00925736 0.03674030 0.07189240
v -0.00802480 0.03615479 0.07074689
v -0.00678454 0.03639748 0.07083955
v -0.00555197 0.03654710 0.07083955
v -0.00411141 0.03706252 0.07138703
v -0.03509497 0.03126094 0.08102700
v -0.02118241 0.03589443 0.07625123
v -0.02024258 0.03601695 0.07581745
v -0.01911787 0.03642870 0.07577955
v -0.01911787 0.03592741 0.07495832
v -0.01785449 0.03611886 0.07451612
v -0.01660652 0.03663015 0.07462562
v -0.00308685 0.03668729 0.07071320
v -0.00185428 0.03608351 0.06979090
v -0.00061402 0.03419796 0.06703662
v 0.00185111 0.03710905 0.07130701
v 0.00308367 0.03709668 0.07133228
v -0.00000544 0.03670084 0.07068793
v -0.00000544 0.03690701 0.07099958
v 0.01362209 0.03703012 0.07390547
v 0.01542471 0.03680098 0.07432661
v 0.01615655 0.03705368 0.07509309
v 0.01996979 0.03708785 0.07749360
v 0.02078636 0.03695177 0.07778841
v 0.02165686 0.03681099 0.07821797
v 0.02640223 0.03593036 0.08083327
v 0.02529292 0.03594685 0.07981410
v 0.02517737 0.03654710 0.08082906
v 0.03466810 0.03215866 0.08238308
v 0.02714947 0.03579134 0.08132601
v 0.02835892 0.03577073 0.08258522
v 0.02950674 0.03572832 0.08394552
v 0.03312740 0.03321954 0.08282106
v 0.03703308 0.03210388 0.08623654
v 0.03919007 0.03126094 0.08776528
v 0.03450633 0.03329730 0.08509524
v 0.03515342 0.03306226 0.08556271
v 0.02289712 0.03622430 0.07817586
v 0.02416050 0.03626435 0.07938033
v 0.00802163 0.03714793 0.07240620
v 0.00925419 0.03724512 0.07331165
v 0.01171932 0.03714557 0.07359382
v 0.01295188 0.03708961 0.07379176
v -0.01542788 0.03680451 0.07431819
v -0.01444183 0.03693587 0.07411182
v -0.01361756 0.03702894 0.07391389
v -0.01006623 0.03706252 0.07261677
v -0.00925736 0.03711494 0.07251148
v -0.00801710 0.03683514 0.07179133
v -0.00492799 0.03701893 0.07146284
v -0.00308685 0.03709668 0.07132807
v -0.03566503 0.03126094 0.08194509
v -0.03511037 0.03169507 0.08195351
v -0.03434002 0.03199431 0.08154921
v -0.02467211 0.03578015 0.07886232
v -0.02337021 0.03570122 0.07768312
v -0.02255364 0.03594332 0.07737990
v -0.02159070 0.03615302 0.07698402
v -0.02036584 0.03671085 0.07704719
v -0.01911787 0.03690288 0.07661763
v -0.01799316 0.03681511 0.07577534
v -0.01615972 0.03705663 0.07508888
v -0.00185428 0.03670084 0.07069214
v -0.00185428 0.03710905 0.07130701
v -0.00000544 0.03717562 0.07169446
v 0.00185111 0.03723864 0.07207770
v 0.00308367 0.03722627 0.07207770
v 0.01660335 0.03714440 0.07578798
v 0.01764332 0.03710434 0.07619648
v 0.01542471 0.03711082 0.07494569
v 0.01913010 0.03713556 0.07724934
v 0.02037037 0.03716501 0.07821797
v 0.02127939 0.03710434 0.07861385
v 0.02210366 0.03698182 0.07896761
v 0.02469204 0.03702658 0.08131758
v 0.02640993 0.03654710 0.08205880
v 0.02551632 0.03683868 0.08172188
v 0.03382842 0.03296448 0.08319167
v 0.03389005 0.03296448 0.08328432
v 0.03429063 0.03316947 0.08442141
v 0.02593231 0.03702953 0.08254311
v 0.02787360 0.03623372 0.08307375
v 0.02868247 0.03594803 0.08341067
v 0.02905224 0.03614595 0.08437929
v 0.02895979 0.03670791 0.08565115
v 0.02980718 0.03589384 0.08475832
v 0.03062375 0.03566352 0.08533950
v 0.03721797 0.03221992 0.08688088
v 0.03808846 0.03199137 0.08780740
v 0.03828105 0.03211389 0.08862442
v 0.03935184 0.03126094 0.08813168
v 0.03474514 0.03344044 0.08591647
v 0.03090878 0.03582551 0.08616073
v 0.02963770 0.03703896 0.08743679
v 0.03324295 0.03451074 0.08639236
v 0.03556171 0.03318891 0.08666610
v 0.00802163 0.03727693 0.07331165
v 0.01171932 0.03727516 0.07454139
v 0.01295188 0.03721921 0.07454139
v -0.01296276 0.03708843 0.07379597
v -0.01172249 0.03714557 0.07360224
v -0.00925736 0.03724453 0.07330744
v -0.00801710 0.03714793 0.07241041
v -0.00308685 0.03722627 0.07207770
v -0.03934731 0.03126094 0.08813168
v -0.03491009 0.03231593 0.08317482
v -0.03466357 0.03215866 0.08237044
v -0.03703625 0.03210388 0.08622811
v -0.03313057 0.03321895 0.08281264
v -0.02950221 0.03572832 0.08393288
v -0.02835439 0.03577073 0.08258101
v -0.02744537 0.03594096 0.08194088
v -0.02714494 0.03578958 0.08132180
v -0.02641310 0.03593448 0.08082906
v -0.02592778 0.03579900 0.08007100
v -0.02528839 0.03595804 0.07977620
v -0.02517283 0.03655534 0.08082485
v -0.02417908 0.03626317 0.07935506
v -0.02290800 0.03621428 0.07815901
v -0.02078953 0.03695354 0.07778841
v -0.01996526 0.03708843 0.07748097
v -0.01542788 0.03711141 0.07493727
v -0.01765420 0.03710493 0.07618385
v -0.01660652 0.03714557 0.07577534
v -0.00185428 0.03723864 0.07207770
v 0.00678907 0.03727870 0.07331165
v -0.00000544 0.03727870 0.07330744
v 0.01542471 0.03724041 0.07578376
v 0.02406035 0.03721979 0.08195351
v 0.02165686 0.03717326 0.07942244
v 0.01913010 0.03726515 0.07825166
v 0.02406035 0.03709020 0.08104384
v 0.02517737 0.03708137 0.08205880
v 0.02615571 0.03709079 0.08318746
v 0.02736517 0.03710434 0.08473305
v 0.02852840 0.03709020 0.08605966
v 0.02935267 0.03688344 0.08661978
v 0.03021547 0.03603992 0.08570589
v 0.03667872 0.03296448 0.08811483
v 0.03765707 0.03237248 0.08816958
v 0.03577741 0.03332145 0.08748733
v 0.03398249 0.03609470 0.09310117
v 0.03456796 0.03581137 0.09354758
v 0.03362042 0.03598573 0.09180826
v 0.03685590 0.03541553 0.10538591
v 0.03685590 0.03542260 0.10608080
v 0.03707930 0.03480586 0.10608080
v 0.03800372 0.03126094 0.10611028
v 0.03466810 0.03589325 0.09427616
v 0.03526898 0.03619013 0.09791062
v 0.03583133 0.03584141 0.09828123
v 0.03591607 0.03591681 0.09921195
v 0.03601622 0.03599221 0.10044590
v 0.03609325 0.03604699 0.10167985
v 0.03616259 0.03609353 0.10291380
v 0.03620881 0.03612887 0.10414354
v 0.02895979 0.03712496 0.08696932
v 0.02979177 0.03709786 0.08811062
v 0.03089338 0.03704661 0.08985836
v 0.03196417 0.03571594 0.08771054
v 0.01048675 0.03727870 0.07454139
v 0.01419215 0.03727870 0.07578376
v -0.01296276 0.03721744 0.07454560
v -0.00801710 0.03727693 0.07330744
v -0.01172249 0.03727516 0.07454560
v -0.03932420 0.03126094 0.08867495
v -0.03467128 0.03589384 0.09428879
v -0.03467128 0.03589325 0.09427616
v -0.03457113 0.03581137 0.09355600
v -0.03828423 0.03211389 0.08862442
v -0.03876184 0.03166091 0.08817379
v -0.03808393 0.03198901 0.08780740
v -0.03525674 0.03253978 0.08432876
v -0.03450950 0.03329553 0.08509103
v -0.03428610 0.03316888 0.08440877
v -0.03383159 0.03296448 0.08318746
v -0.03722114 0.03221874 0.08687246
v -0.03517200 0.03296448 0.08533529
v -0.03062693 0.03566234 0.08533108
v -0.03021864 0.03550506 0.08437087
v -0.02980265 0.03589443 0.08474990
v -0.02896297 0.03670614 0.08564272
v -0.02867794 0.03594685 0.08340224
v -0.02592778 0.03702894 0.08253890
v -0.02641310 0.03654179 0.08205458
v -0.02551179 0.03683927 0.08171346
v -0.02468751 0.03702600 0.08130916
v -0.02164462 0.03680392 0.07821797
v -0.02126715 0.03710493 0.07860963
v -0.02036584 0.03716501 0.07821797
v -0.01911787 0.03713615 0.07723671
v -0.01542788 0.03724100 0.07577955
v -0.00678454 0.03727870 0.07330744
v 0.01665727 0.03727870 0.07701350
v 0.02035496 0.03727870 0.07948561
v 0.02529292 0.03722038 0.08318746
v 0.02777345 0.03716501 0.08565115
v 0.03593918 0.03341805 0.08811062
v 0.03342784 0.03585614 0.09097018
v 0.03275763 0.03613594 0.09056167
v 0.03392856 0.03639218 0.09427616
v 0.03214135 0.03705604 0.09229678
v 0.03288859 0.03676976 0.09304221
v 0.03659398 0.03574245 0.10608080
v 0.03623962 0.03614949 0.10538591
v 0.03724878 0.03296448 0.10611028
v 0.01759710 0.03126094 0.10611028
v 0.03384383 0.03668847 0.09550589
v 0.03502246 0.03613240 0.09674405
v 0.03410574 0.03674973 0.09674405
v 0.03424441 0.03686577 0.09797800
v 0.03516113 0.03647288 0.09921195
v 0.03504558 0.03668140 0.10046696
v 0.03523046 0.03666373 0.10167985
v 0.03529979 0.03670909 0.10291380
v 0.03536142 0.03674620 0.10414354
v 0.02899061 0.03722745 0.08811062
v 0.03023087 0.03713850 0.08940353
v 0.03104745 0.03710434 0.09057431
v -0.01419532 0.03727870 0.07577955
v -0.03925487 0.03126094 0.08922665
v -0.03504875 0.03516754 0.09428879
v 0.01847530 0.03705604 0.10608080
v -0.03393174 0.03639276 0.09428879
v -0.03392403 0.03639512 0.09427616
v -0.03398566 0.03609470 0.09310117
v -0.03361589 0.03598337 0.09180826
v -0.03214452 0.03705604 0.09230099
v -0.03261443 0.03663015 0.09185458
v -0.03662026 0.03296448 0.08802218
v -0.03639686 0.03309231 0.08798849
v -0.03601939 0.03296448 0.08687246
v -0.03323842 0.03450603 0.08639657
v -0.02964088 0.03703837 0.08743679
v -0.03090425 0.03582492 0.08615652
v -0.03514889 0.03305873 0.08555849
v -0.03473290 0.03343337 0.08591225
v -0.03021864 0.03604051 0.08570168
v -0.02934814 0.03688403 0.08661556
v -0.02853157 0.03709020 0.08605966
v -0.02736064 0.03710493 0.08472463
v -0.02614348 0.03709079 0.08317482
v -0.02517283 0.03708078 0.08205458
v -0.02405582 0.03708843 0.08104805
v -0.02164462 0.03717385 0.07942244
v -0.01911787 0.03726515 0.07824745
v -0.02405582 0.03721803 0.08194088
v -0.01665274 0.03727870 0.07701350
v 0.02529292 0.03727870 0.08442141
v 0.02652548 0.03727811 0.08564693
v 0.02775804 0.03726515 0.08688088
v 0.03337391 0.03705604 0.09592283
v 0.03227231 0.03711141 0.09304221
v 0.03623962 0.03615184 0.10608080
v 0.03539223 0.03676681 0.10538591
v 0.03539223 0.03676740 0.10608080
v 0.03477595 0.03714557 0.10608080
v 0.03392856 0.03727516 0.10608080
v 0.03268830 0.03727870 0.10608080
v 0.01826731 0.03296448 0.10611028
v -0.03537229 0.03296978 0.09428879
v -0.03601939 0.03126094 0.09377921
v 0.01835205 0.03640160 0.10608080
v -0.03530296 0.03393583 0.09428879
v 0.03438307 0.03695767 0.09921195
v 0.03348176 0.03711141 0.09674405
v 0.03448322 0.03700185 0.10006266
v 0.03456025 0.03703248 0.10088389
v 0.03461418 0.03705898 0.10167985
v 0.03468351 0.03709786 0.10291380
v 0.03474514 0.03712908 0.10414354
v 0.02899061 0.03727870 0.08933615
v 0.03022317 0.03723452 0.09057431
v 0.03146344 0.03714498 0.09185458
v -0.03867711 0.03126094 0.09006473
v 0.01913010 0.03718563 0.10608080
v -0.03245266 0.03714852 0.09428879
v -0.03306894 0.03690230 0.09428879
v -0.03288406 0.03676976 0.09304221
v -0.03226778 0.03711141 0.09304221
v -0.03104292 0.03710493 0.09057431
v -0.02978724 0.03709786 0.08810641
v -0.03449409 0.03452076 0.08882235
v -0.02896297 0.03712496 0.08696511
v -0.02776892 0.03716501 0.08564272
v -0.02528839 0.03722038 0.08317482
v -0.02035043 0.03727870 0.07947719
v 0.03145573 0.03724100 0.09304221
v 0.03268830 0.03724041 0.09674405
v 0.03477595 0.03714557 0.10538591
v 0.03392856 0.03727458 0.10538591
v 0.03268830 0.03727870 0.09921195
v 0.02035496 0.03727870 0.10608080
v 0.03362813 0.03714852 0.09797800
v 0.03392856 0.03722745 0.10291380
v 0.03392856 0.03725808 0.10414354
v 0.03145573 0.03727870 0.09427616
v -0.03145890 0.03727870 0.09428879
v -0.03145890 0.03727870 0.09427616
v -0.03145890 0.03724100 0.09304221
v -0.03146661 0.03714498 0.09185458
v -0.03022634 0.03713909 0.08940774
v -0.02898608 0.03722745 0.08810641
v -0.02775351 0.03726574 0.08687246
v -0.02652095 0.03727811 0.08563851
v -0.02528839 0.03727870 0.08440877
v -0.02282326 0.03727870 0.08194088
v 0.03268830 0.03727752 0.09797800
v -0.02898608 0.03727870 0.08934036
v -0.03022634 0.03723452 0.09057431
f 1 2 3
f 1 3 12
f 1 12 36
f 1 36 80
f 1 80 128
f 1 128 184
f 1 184 241
f 1 241 300
f 1 300 355
f 1 355 368
f 1 368 314
f 1 314 259
f 1 259 198
f 1 198 145
f 1 145 99
f 1 99 57
f 1 57 20
f 1 20 4
f 1 4 5
f 1 5 6
f 1 6 2
f 2 7 8
f 2 8 3
f 2 6 9
f 2 9 10
f 2 10 11
f 2 11 7
f 3 8 13
f 3 13 14
f 3 14 15
f 3 15 16
f 3 16 17
f 3 17 18
f 3 18 19
f 3 19 12
f 4 20 5
f 5 21 22
f 5 22 23
f 5 23 24
f 5 24 9
f 5 9 6
f 5 20 25
f 5 25 21
f 7 26 27
f 7 27 8
f 7 11 26
f 8 27 28
f 8 28 13
f 9 24 65
f 9 65 29
f 9 29 30
f 9 30 31
f 9 31 11
f 9 11 10
f 11 31 32
f 11 32 26
f 12 19 33
f 12 33 34
f 12 34 35
f 12 35 36
f 13 37 38
f 13 38 14
f 13 28 39
f 13 39 40
f 13 40 37
f 14 38 41
f 14 41 42
f 14 42 15
f 15 42 41
f 15 41 16
f 16 41 17
f 17 41 43
f 17 43 18
f 18 43 44
f 18 44 19
f 19 44 45
f 19 45 46
f 19 46 47
f 19 47 33
f 20 48 49
f 20 49 50
f 20 50 51
f 20 51 52
f 20 52 53
f 20 53 54
f 20 54 55
f 20 55 56
f 20 56 25
f 20 57 58
f 20 58 59
f 20 59 48
f 21 25 22
f 22 25 60
f 22 60 61
f 22 61 62
f 22 62 63
f 22 63 64
f 22 64 23
f 23 64 24
f 24 64 65
f 25 56 61
f 25 61 60
f 26 32 27
f 27 32 28
f 28 32 39
f 29 65 108
f 29 108 66
f 29 66 30
f 30 66 67
f 30 67 32
f 30 32 31
f 32 67 68
f 32 68 39
f 33 47 69
f 33 69 70
f 33 70 71
f 33 71 34
f 34 71 72
f 34 72 73
f 34 73 35
f 35 73 72
f 35 72 74
f 35 74 75
f 35 75 76
f 35 76 77
f 35 77 36
f 36 78 79
f 36 79 80
f 36 77 81
f 36 81 82
f 36 82 78
f 37 40 83
f 37 83 84
f 37 84 38
f 38 84 41
f 39 68 83
f 39 83 40
f 41 85 86
f 41 86 43
f 41 84 85
f 43 86 44
f 44 87 69
f 44 69 45
f 44 86 87
f 45 69 46
f 46 69 47
f 48 88 49
f 48 59 89
f 48 89 88
f 49 88 90
f 49 90 91
f 49 91 51
f 49 51 50
f 51 92 52
f 51 91 93
f 51 93 92
f 52 92 53
f 53 92 94
f 53 94 95
f 53 95 54
f 54 95 55
f 55 95 96
f 55 96 56
f 56 97 98
f 56 98 62
f 56 62 61
f 56 96 97
f 57 99 58
f 58 100 101
f 58 101 102
f 58 102 103
f 58 103 59
f 58 99 100
f 59 103 104
f 59 104 105
f 59 105 89
f 62 98 106
f 62 106 63
f 63 106 64
f 64 107 65
f 64 106 107
f 65 107 108
f 66 108 111
f 66 111 67
f 67 109 110
f 67 110 68
f 67 111 112
f 67 112 109
f 68 110 83
f 69 87 113
f 69 113 114
f 69 114 70
f 70 114 72
f 70 72 71
f 72 114 115
f 72 115 74
f 74 116 75
f 74 115 116
f 75 116 117
f 75 117 76
f 76 117 118
f 76 118 81
f 76 81 77
f 78 119 79
f 78 82 120
f 78 120 121
f 78 121 119
f 79 122 80
f 79 119 123
f 79 123 124
f 79 124 125
f 79 125 126
f 79 126 122
f 80 127 128
f 80 122 129
f 80 129 130
f 80 130 127
f 81 118 131
f 81 131 82
f 82 131 132
f 82 132 120
f 83 110 133
f 83 133 85
f 83 85 84
f 85 133 134
f 85 134 135
f 85 135 136
f 85 136 86
f 86 136 113
f 86 113 87
f 88 89 105
f 88 105 137
f 88 137 90
f 90 137 138
f 90 138 139
f 90 139 140
f 90 140 92
f 90 92 91
f 91 92 93
f 92 140 94
f 94 141 142
f 94 142 96
f 94 96 95
f 94 140 141
f 96 142 143
f 96 143 97
f 97 143 98
f 98 143 141
f 98 141 144
f 98 144 106
f 99 145 146
f 99 146 147
f 99 147 148
f 99 148 149
f 99 149 100
f 100 149 150
f 100 150 151
f 100 151 152
f 100 152 101
f 101 152 102
f 102 153 154
f 102 154 155
f 102 155 105
f 102 105 104
f 102 104 103
f 102 152 153
f 105 155 137
f 106 144 156
f 106 156 107
f 107 156 111
f 107 111 108
f 109 112 157
f 109 157 158
f 109 158 159
f 109 159 160
f 109 160 110
f 110 160 133
f 111 156 157
f 111 157 112
f 113 136 115
f 113 115 114
f 115 161 162
f 115 162 116
f 115 136 163
f 115 163 161
f 116 162 161
f 116 161 164
f 116 164 165
f 116 165 166
f 116 166 117
f 117 166 167
f 117 167 118
f 118 167 168
f 118 168 131
f 119 169 123
f 119 121 170
f 119 170 169
f 120 132 121
f 121 132 131
f 121 131 168
f 121 168 170
f 122 126 171
f 122 171 172
f 122 172 173
f 122 173 129
f 123 169 124
f 124 169 174
f 124 174 175
f 124 175 176
f 124 176 125
f 125 176 177
f 125 177 178
f 125 178 179
f 125 179 126
f 126 179 180
f 126 180 171
f 127 181 128
f 127 130 181
f 128 181 182
f 128 182 183
f 128 183 184
f 129 185 130
f 129 173 186
f 129 186 187
f 129 187 188
f 129 188 185
f 130 185 189
f 130 189 181
f 133 190 134
f 133 160 190
f 134 190 191
f 134 191 192
f 134 192 135
f 135 192 163
f 135 163 136
f 137 155 138
f 138 155 139
f 139 155 193
f 139 193 140
f 140 193 141
f 141 193 194
f 141 194 195
f 141 195 196
f 141 196 144
f 141 143 142
f 144 197 157
f 144 157 156
f 144 196 197
f 145 198 146
f 146 199 200
f 146 200 147
f 146 198 201
f 146 201 199
f 147 200 202
f 147 202 203
f 147 203 204
f 147 204 205
f 147 205 206
f 147 206 207
f 147 207 208
f 147 208 148
f 148 208 209
f 148 209 210
f 148 210 211
f 148 211 212
f 148 212 150
f 148 150 149
f 150 212 213
f 150 213 151
f 151 213 152
f 152 213 214
f 152 214 153
f 153 214 155
f 153 155 154
f 155 215 193
f 155 214 216
f 155 216 217
f 155 217 215
f 157 197 218
f 157 218 158
f 158 218 159
f 159 219 190
f 159 190 160
f 159 218 286
f 159 286 220
f 159 220 219
f 161 163 221
f 161 221 164
f 163 192 221
f 164 221 165
f 165 222 223
f 165 223 166
f 165 221 224
f 165 224 222
f 166 223 225
f 166 225 168
f 166 168 167
f 168 225 226
f 168 226 174
f 168 174 170
f 169 170 174
f 171 180 186
f 171 186 172
f 172 186 173
f 174 226 227
f 174 227 228
f 174 228 229
f 174 229 178
f 174 178 175
f 175 178 176
f 176 178 177
f 178 229 230
f 178 230 179
f 179 230 231
f 179 231 180
f 180 231 186
f 181 189 182
f 182 232 233
f 182 233 183
f 182 189 234
f 182 234 232
f 183 235 236
f 183 236 184
f 183 233 237
f 183 237 235
f 184 238 239
f 184 239 240
f 184 240 241
f 184 236 242
f 184 242 243
f 184 243 244
f 184 244 245
f 184 245 246
f 184 246 247
f 184 247 248
f 184 248 249
f 184 249 238
f 185 188 189
f 186 231 230
f 186 230 187
f 187 230 229
f 187 229 250
f 187 250 251
f 187 251 252
f 187 252 253
f 187 253 188
f 188 253 189
f 189 253 234
f 190 254 255
f 190 255 191
f 190 219 254
f 191 255 221
f 191 221 192
f 193 215 194
f 194 215 256
f 194 256 195
f 195 257 196
f 195 256 258
f 195 258 257
f 196 257 197
f 197 257 218
f 198 259 260
f 198 260 261
f 198 261 262
f 198 262 263
f 198 263 264
f 198 264 265
f 198 265 201
f 199 201 266
f 199 266 267
f 199 267 200
f 200 267 268
f 200 268 269
f 200 269 202
f 201 265 270
f 201 270 271
f 201 271 266
f 202 269 272
f 202 272 273
f 202 273 203
f 203 274 275
f 203 275 276
f 203 276 204
f 203 273 274
f 204 276 277
f 204 277 278
f 204 278 205
f 205 278 207
f 205 207 206
f 207 278 279
f 207 279 208
f 208 279 210
f 208 210 209
f 210 280 211
f 210 279 280
f 211 281 212
f 211 280 281
f 212 281 213
f 213 282 214
f 213 281 280
f 213 280 282
f 214 282 283
f 214 283 284
f 214 284 217
f 214 217 216
f 215 217 285
f 215 285 256
f 217 284 285
f 218 257 286
f 219 220 286
f 219 286 313
f 219 313 341
f 219 341 380
f 219 380 400
f 219 400 399
f 219 399 402
f 219 402 392
f 219 392 391
f 219 391 386
f 219 386 352
f 219 352 385
f 219 385 390
f 219 390 365
f 219 365 342
f 219 342 288
f 219 288 287
f 219 287 255
f 219 255 254
f 221 255 287
f 221 287 224
f 222 225 223
f 222 224 288
f 222 288 289
f 222 289 226
f 222 226 225
f 224 287 288
f 226 289 227
f 227 289 290
f 227 290 228
f 228 290 229
f 229 290 250
f 232 234 291
f 232 291 292
f 232 292 233
f 233 292 237
f 234 253 293
f 234 293 292
f 234 292 291
f 235 294 236
f 235 237 295
f 235 295 296
f 235 296 294
f 236 294 242
f 237 292 295
f 238 297 239
f 238 249 298
f 238 298 297
f 239 297 299
f 239 299 241
f 239 241 240
f 241 299 353
f 241 353 300
f 242 294 301
f 242 301 302
f 242 302 243
f 243 302 303
f 243 303 304
f 243 304 305
f 243 305 244
f 244 305 245
f 245 305 246
f 246 305 306
f 246 306 307
f 246 307 247
f 247 307 248
f 248 307 308
f 248 308 309
f 248 309 249
f 249 309 348
f 249 348 298
f 250 290 310
f 250 310 251
f 251 310 311
f 251 311 312
f 251 312 295
f 251 295 252
f 252 295 293
f 252 293 253
f 256 285 258
f 257 258 313
f 257 313 286
f 258 285 313
f 259 314 260
f 260 314 315
f 260 315 316
f 260 316 317
f 260 317 261
f 261 317 262
f 262 317 318
f 262 318 319
f 262 319 263
f 263 265 264
f 263 319 320
f 263 320 321
f 263 321 322
f 263 322 265
f 265 322 323
f 265 323 324
f 265 324 325
f 265 325 270
f 266 271 267
f 267 326 327
f 267 327 328
f 267 328 268
f 267 271 329
f 267 329 325
f 267 325 330
f 267 330 326
f 268 328 269
f 269 328 272
f 270 325 329
f 270 329 271
f 272 328 331
f 272 331 274
f 272 274 273
f 274 332 275
f 274 331 332
f 275 333 277
f 275 277 276
f 275 332 333
f 277 333 334
f 277 334 335
f 277 335 336
f 277 336 280
f 277 280 279
f 277 279 278
f 280 336 337
f 280 337 282
f 282 338 283
f 282 337 338
f 283 339 285
f 283 285 284
f 283 338 340
f 283 340 339
f 285 339 341
f 285 341 313
f 288 342 289
f 289 342 343
f 289 343 344
f 289 344 290
f 290 344 310
f 292 293 295
f 294 296 345
f 294 345 301
f 295 312 346
f 295 346 345
f 295 345 296
f 297 347 299
f 297 298 347
f 298 348 347
f 299 349 350
f 299 350 351
f 299 351 352
f 299 352 386
f 299 386 353
f 299 347 349
f 300 354 355
f 300 353 316
f 300 316 356
f 300 356 357
f 300 357 354
f 301 345 303
f 301 303 302
f 303 345 304
f 304 358 305
f 304 345 359
f 304 359 358
f 305 358 360
f 305 360 306
f 306 360 361
f 306 361 307
f 307 361 362
f 307 362 308
f 308 362 363
f 308 363 309
f 309 363 364
f 309 364 348
f 310 344 365
f 310 365 366
f 310 366 367
f 310 367 311
f 311 367 312
f 312 367 346
f 314 368 357
f 314 357 315
f 315 357 316
f 316 353 369
f 316 369 370
f 316 370 371
f 316 371 317
f 316 357 356
f 317 371 318
f 318 371 372
f 318 372 319
f 319 372 321
f 319 321 320
f 321 372 371
f 321 371 373
f 321 373 374
f 321 374 375
f 321 375 327
f 321 327 322
f 322 376 324
f 322 324 323
f 322 327 376
f 324 376 327
f 324 327 325
f 325 326 330
f 325 327 326
f 327 375 377
f 327 377 333
f 327 333 332
f 327 332 331
f 327 331 328
f 333 377 378
f 333 378 334
f 334 378 335
f 335 378 379
f 335 379 336
f 336 379 340
f 336 340 337
f 337 340 338
f 339 340 380
f 339 380 341
f 340 379 380
f 342 365 343
f 343 365 344
f 345 346 359
f 346 367 381
f 346 381 382
f 346 382 359
f 347 348 349
f 348 364 383
f 348 383 349
f 349 383 350
f 350 383 351
f 351 383 384
f 351 384 385
f 351 385 352
f 353 386 369
f 354 357 355
f 355 357 368
f 358 359 360
f 359 382 387
f 359 387 360
f 360 387 361
f 361 387 362
f 362 387 363
f 363 387 364
f 364 387 388
f 364 388 389
f 364 389 383
f 365 390 381
f 365 381 366
f 366 381 367
f 369 386 391
f 369 391 370
f 370 391 392
f 370 392 393
f 370 393 373
f 370 373 371
f 373 393 394
f 373 394 374
f 374 394 395
f 374 395 375
f 375 396 377
f 375 395 396
f 377 396 378
f 378 396 397
f 378 397 379
f 379 397 398
f 379 398 399
f 379 399 400
f 379 400 380
f 381 390 382
f 382 401 387
f 382 390 401
f 383 389 384
f 384 389 401
f 384 401 385
f 385 401 390
f 387 401 389
f 387 389 388
f 392 402 393
f 393 402 403
f 393 403 394
f 394 403 396
f 394 396 395
f 396 403 402
f 396 402 397
f 397 402 398
f 398 402 399

