# https://github.com/mikedh/trimesh
v 0.21625937 -0.02085140 0.00029662
v 0.21625937 -0.02085140 0.00034736
v 0.21584908 -0.02074493 -0.00034684
v 0.21625937 -0.02085059 -0.00034684
v 0.21584908 -0.02074493 0.00034736
v 0.21625937 -0.02083138 0.00099082
v 0.21625937 -0.02084900 -0.00040103
v 0.21572663 -0.02030547 -0.00034684
v 0.21587612 -0.02072412 -0.00104219
v 0.21625937 -0.02080097 -0.00173638
v 0.21625937 -0.02082898 -0.00104219
v 0.21625937 -0.02080417 0.00168271
v 0.21587612 -0.02072412 0.00104156
v 0.21572663 -0.02030547 0.00034736
v 0.21569927 -0.01961065 -0.00034684
v 0.21578558 -0.02030547 -0.00104219
v 0.21595563 -0.02056482 -0.00273156
v 0.21592805 -0.02067209 -0.00226914
v 0.21590518 -0.02069690 -0.00173638
v 0.21625937 -0.02075854 -0.00264968
v 0.21625937 -0.02075854 0.00264905
v 0.21590518 -0.02069690 0.00173691
v 0.21592805 -0.02067209 0.00226851
v 0.21595563 -0.02056562 0.00273208
v 0.21578558 -0.02030547 0.00104156
v 0.21569927 -0.01961065 0.00034736
v 0.21570042 -0.01267370 -0.00035952
v 0.21576304 -0.01961065 -0.00104219
v 0.21593759 -0.02010135 -0.00285033
v 0.21569927 -0.01267370 -0.00034684
v 0.21584689 -0.02030547 -0.00173638
v 0.21591374 -0.02032228 -0.00247325
v 0.21615058 -0.01961065 -0.00521199
v 0.21621934 -0.02030547 -0.00521199
v 0.21625937 -0.02030547 -0.00549912
v 0.21625937 -0.02037031 -0.00531116
v 0.21625937 -0.02072412 -0.00304291
v 0.21625937 -0.02038152 0.00521251
v 0.21625937 -0.02030547 0.00549965
v 0.21593759 -0.02010215 0.00284970
v 0.21591368 -0.02032228 0.00247262
v 0.21584689 -0.02030547 0.00173691
v 0.21621929 -0.02030547 0.00521251
v 0.21615047 -0.01961065 0.00521251
v 0.21576299 -0.01961065 0.00104156
v 0.21569927 -0.01267370 0.00034736
v 0.21576304 -0.01267370 -0.00104219
v 0.21589301 -0.01267370 -0.00244096
v 0.21602138 -0.01961065 -0.00382244
v 0.21608718 -0.01267370 -0.00453047
v 0.21615058 -0.01267370 -0.00521199
v 0.21625520 -0.01613577 -0.00590734
v 0.21625553 -0.01683059 -0.00590734
v 0.21625679 -0.01752541 -0.00590734
v 0.21625937 -0.01822022 -0.00590503
v 0.21625937 -0.01961065 -0.00585890
v 0.21625937 -0.02006613 -0.00566748
v 0.21625937 -0.01961065 0.00585366
v 0.21608587 -0.01961065 0.00451716
v 0.21615047 -0.01267370 0.00521251
v 0.21608466 -0.01267370 0.00450448
v 0.21582638 -0.01267370 0.00172423
v 0.21576299 -0.01267370 0.00104156
v 0.21602138 -0.01267370 -0.00382244
v 0.21625531 -0.01267370 -0.00590734
v 0.21625520 -0.01335571 -0.00590734
v 0.21625937 -0.01267370 -0.00592694
v 0.21625937 -0.01544096 -0.00592579
v 0.21625937 -0.01615338 -0.00592463
v 0.21625937 -0.01683059 -0.00592348
v 0.21625937 -0.01752541 -0.00591772
v 0.21625937 -0.01812897 -0.00590734
v 0.21625937 -0.01267370 0.00585366
f 1 2 5
f 1 5 3
f 1 3 4
f 1 4 7
f 1 7 11
f 1 11 10
f 1 10 20
f 1 20 37
f 1 37 36
f 1 36 35
f 1 35 57
f 1 57 56
f 1 56 55
f 1 55 72
f 1 72 71
f 1 71 70
f 1 70 69
f 1 69 68
f 1 68 67
f 1 67 73
f 1 73 58
f 1 58 39
f 1 39 38
f 1 38 21
f 1 21 12
f 1 12 6
f 1 6 2
f 2 6 5
f 3 7 4
f 3 5 14
f 3 14 8
f 3 8 9
f 3 9 10
f 3 10 11
f 3 11 7
f 5 6 12
f 5 12 13
f 5 13 14
f 8 14 26
f 8 26 15
f 8 15 16
f 8 16 17
f 8 17 18
f 8 18 19
f 8 19 9
f 9 19 20
f 9 20 10
f 12 21 13
f 13 21 22
f 13 22 14
f 14 22 23
f 14 23 24
f 14 24 25
f 14 25 26
f 15 27 28
f 15 28 29
f 15 29 16
f 15 26 46
f 15 46 30
f 15 30 27
f 16 29 31
f 16 31 17
f 17 31 32
f 17 32 29
f 17 29 33
f 17 33 34
f 17 34 35
f 17 35 18
f 18 35 36
f 18 36 37
f 18 37 20
f 18 20 19
f 21 23 22
f 21 38 23
f 23 38 39
f 23 39 24
f 24 40 41
f 24 41 42
f 24 42 25
f 24 39 43
f 24 43 44
f 24 44 40
f 25 42 40
f 25 40 26
f 26 40 45
f 26 45 63
f 26 63 46
f 27 47 28
f 27 30 46
f 27 46 63
f 27 63 62
f 27 62 61
f 27 61 60
f 27 60 73
f 27 73 67
f 27 67 65
f 27 65 51
f 27 51 50
f 27 50 64
f 27 64 48
f 27 48 47
f 28 47 48
f 28 48 49
f 28 49 29
f 29 32 31
f 29 49 33
f 33 49 50
f 33 50 51
f 33 51 66
f 33 66 52
f 33 52 53
f 33 53 54
f 33 54 55
f 33 55 56
f 33 56 57
f 33 57 35
f 33 35 34
f 39 44 43
f 39 58 44
f 40 42 41
f 40 44 59
f 40 59 45
f 44 58 73
f 44 73 60
f 44 60 61
f 44 61 59
f 45 62 63
f 45 59 61
f 45 61 62
f 48 64 49
f 49 64 50
f 51 65 66
f 52 67 68
f 52 68 69
f 52 69 70
f 52 70 53
f 52 66 67
f 53 70 54
f 54 70 71
f 54 71 72
f 54 72 55
f 65 67 66

