# https://github.com/mikedh/trimesh
v -0.00052554 0.02977044 -0.04366194
v 0.01872963 0.02822617 -0.03273529
v -0.00635888 0.02977044 -0.04350836
v -0.00328734 0.04838993 -0.04300926
v -0.00052554 0.04838993 -0.04306301
v 0.06820973 0.04838993 -0.04306301
v 0.06820973 0.04784576 -0.04307068
v 0.06823554 0.04783105 -0.04307068
v 0.06823554 0.04563230 -0.04308604
v 0.05995014 0.03463122 -0.04308604
v 0.05721415 0.02977044 -0.04305532
v 0.04621857 0.02819676 -0.03273529
v 0.04149512 0.02819676 -0.03273529
v 0.02422741 0.03139560 0.02779509
v 0.02038154 0.03140295 0.02779509
v 0.01872963 0.03141031 0.02779509
v 0.01679378 0.02825559 -0.03273529
v -0.01704472 0.02977044 -0.04295551
v -0.00948203 0.02977044 -0.04339318
v -0.00604914 0.04288203 -0.04309372
v -0.00328734 0.05114020 -0.04254854
v -0.00052554 0.05114020 -0.04283265
v -0.00878513 0.04012440 -0.04307068
v -0.00604914 0.04563230 -0.04297086
v -0.00602333 0.04838993 -0.04255621
v 0.07099734 0.05114020 -0.04283265
v 0.07099734 0.04838993 -0.04300157
v 0.06273775 0.03738149 -0.04307068
v 0.23520830 0.06761977 -0.03316529
v 0.05995014 0.02977044 -0.04277121
v 0.05995014 0.03188094 -0.04299390
v 0.23484694 0.06580342 -0.03305779
v 0.04621857 0.03138825 0.02779509
v 0.06266031 0.02977044 -0.04188050
v 0.06340884 0.02977044 -0.04155800
v 0.23327246 0.03656523 -0.00137590
v 0.23327246 0.03656523 0.00137304
v 0.08958141 0.06900226 0.03478261
v -0.01704472 0.03202802 0.02779509
v -0.01430873 0.02886594 -0.03273529
v -0.01980652 0.02977044 -0.04239496
v -0.01704472 0.03188094 -0.04274818
v -0.01430873 0.03463122 -0.04289407
v -0.01154693 0.03738149 -0.04298621
v -0.01430873 0.03188094 -0.04307836
v -0.00305504 0.05380223 -0.04165782
v -0.00052554 0.05389047 -0.04215693
v -0.00594590 0.05106666 -0.04176532
v 0.00221044 0.05389047 -0.04229514
v -0.00878513 0.04288203 -0.04284801
v -0.01154693 0.04012440 -0.04267907
v -0.01430873 0.03738149 -0.04246407
v -0.00878513 0.04563230 -0.04234122
v -0.00868189 0.04784576 -0.04174997
v 0.07373333 0.05389047 -0.04227211
v 0.23471788 0.07466459 -0.03301940
v 0.23500181 0.07293647 -0.03311922
v 0.23533735 0.07037740 -0.03320368
v 0.23657629 0.06761977 -0.03267386
v 0.23603425 0.06212658 -0.03197511
v 0.23556965 0.05717021 -0.03055457
v 0.23329826 0.05560388 -0.03011689
v 0.23603425 0.05389047 -0.02881153
v 0.23603425 0.05211088 -0.02774420
v 0.23603425 0.05073575 -0.02684581
v 0.23603425 0.04889733 -0.02547134
v 0.23329826 0.04718393 -0.02461133
v 0.23329826 0.04581614 -0.02323687
v 0.23329826 0.04443366 -0.02177025
v 0.23329826 0.04336002 -0.02041114
v 0.23329826 0.04196282 -0.01852989
v 0.23541479 0.04122746 -0.01694810
v 0.23327246 0.04000675 -0.01510523
v 0.23327246 0.03905077 -0.01305505
v 0.23520830 0.03858749 -0.01140415
v 0.23585357 0.06489156 -0.03255868
v 0.23327246 0.03678584 0.00411429
v 0.23327246 0.03719764 0.00687859
v 0.23327246 0.03780800 0.00960449
v 0.23327246 0.03846983 0.01170075
v 0.06271194 0.03257219 0.02779509
v 0.23329826 0.06212658 0.03227171
v 0.23329826 0.06456065 0.03281689
v 0.21677909 0.06422973 0.03289368
v 0.23327246 0.03782271 -0.00960736
v 0.23327246 0.03721971 -0.00686610
v 0.23327246 0.03679319 -0.00412484
v 0.23603425 0.03683731 -0.00137590
v 0.23603425 0.03683731 0.00006000
v 0.23603425 0.03684467 0.00137304
v 0.08958141 0.07242172 0.03466743
v 0.00997962 0.07500285 0.03255582
v 0.00773404 0.07318650 0.03255582
v 0.00510130 0.07037004 0.03255582
v 0.00365587 0.06765654 0.03255582
v -0.00034487 0.05937631 0.03255582
v -0.00070622 0.05821443 0.03255582
v 0.23482112 0.06584018 0.03303957
v 0.23329826 0.06761977 0.03320082
v 0.23329826 0.07037004 0.03326993
v -0.01864502 0.03285163 0.02779509
v -0.02274900 0.02977044 -0.03987639
v -0.02264576 0.02977044 -0.03934657
v -0.02210372 0.02977044 -0.03744227
v -0.02207791 0.02977044 -0.04158871
v -0.01704472 0.03463122 -0.04220300
v -0.00199678 0.05533915 -0.04129693
v -0.00052554 0.05575095 -0.04146585
v -0.00496507 0.05282419 -0.04141210
v -0.00382938 0.07970185 -0.03010153
v 0.00221044 0.05616276 -0.04159639
v 0.00221044 0.05539062 -0.04184211
v -0.00865607 0.04817667 -0.04165782
v -0.00764944 0.05009598 -0.04141978
v 0.07195235 0.05538327 -0.04182675
v -0.01688986 0.03710940 -0.04157336
v -0.01025637 0.04711775 -0.04131996
v -0.00917230 0.04783105 -0.04155032
v 0.07375914 0.05538327 -0.04181907
v 0.23324665 0.08138584 -0.03109207
v 0.23324665 0.07865028 -0.03190600
v 0.23523410 0.08320220 -0.03045475
v 0.23600845 0.07865028 -0.03167564
v 0.23577614 0.07570145 -0.03243583
v 0.23639561 0.07295854 -0.03261243
v 0.23670535 0.07037740 -0.03271225
v 0.23853794 0.06761977 -0.03129939
v 0.23835727 0.06488421 -0.03110743
v 0.23809915 0.06212658 -0.03086171
v 0.23773780 0.05985430 -0.03054689
v 0.23740225 0.05801588 -0.03023975
v 0.23629237 0.05911158 -0.03099225
v 0.23629237 0.05641278 -0.03000171
v 0.23740225 0.05251534 -0.02749849
v 0.23768617 0.04944150 -0.02504134
v 0.23603425 0.04752220 -0.02428116
v 0.23603425 0.04609558 -0.02291437
v 0.23603425 0.04472045 -0.02143240
v 0.23603425 0.04366152 -0.02006561
v 0.23616331 0.04263201 -0.01852989
v 0.23621494 0.04219079 -0.01786185
v 0.23724739 0.04160985 -0.01633381
v 0.23621494 0.04069799 -0.01529720
v 0.23427910 0.03774182 -0.00860914
v 0.23608588 0.03930815 -0.01233326
v 0.23701508 0.03892576 -0.01054415
v 0.23608588 0.03829334 -0.00962271
v 0.23603425 0.03760210 -0.00686610
v 0.23603425 0.03710205 0.00411429
v 0.23603425 0.03758004 0.00687859
v 0.23523410 0.03857278 0.01143200
v 0.23327246 0.03905077 0.01308290
v 0.06547374 0.03288104 0.02779509
v 0.23329826 0.05388312 0.02912348
v 0.23329826 0.05561858 0.03009867
v 0.23329826 0.05698637 0.03063617
v 0.23329826 0.05937631 0.03147313
v 0.23327246 0.03999204 0.01511004
v 0.23327246 0.04108774 0.01719095
v 0.23327246 0.04199959 0.01855774
v 0.23329826 0.04263201 0.01942542
v 0.23329826 0.04336737 0.02037756
v 0.23329826 0.04445572 0.02175971
v 0.23329826 0.04583085 0.02323400
v 0.23329826 0.04718393 0.02460847
v 0.23329826 0.04855906 0.02566044
v 0.23329826 0.05048572 0.02704258
v 0.23603425 0.05937631 0.03118903
v 0.23603425 0.06212658 0.03197992
v 0.23427910 0.03735207 -0.00686610
v 0.23427910 0.03717559 -0.00585252
v 0.23603425 0.03711675 -0.00412484
v 0.23807334 0.03818304 -0.00412484
v 0.23820239 0.03804332 -0.00137590
v 0.23820239 0.03805802 0.00137304
v 0.23807334 0.03818304 0.00411429
v 0.21672746 0.07864292 0.03219492
v 0.21122968 0.07864292 0.03223331
v 0.08958141 0.07519405 0.03389189
v 0.01860057 0.07873852 0.03255582
v 0.01547741 0.07824582 0.03255582
v 0.01410942 0.07775313 0.03255582
v 0.01072815 0.07555438 0.03255582
v 0.23469207 0.07462047 0.03301653
v -0.00328734 0.07588529 0.03090492
v -0.00328734 0.07315708 0.03128885
v -0.00328734 0.07039946 0.03154224
v -0.01864502 0.03372671 0.02779509
v 0.23585357 0.06490627 0.03256350
v 0.23515667 0.06761977 0.03314707
v 0.23531154 0.07037004 0.03319314
v 0.23495018 0.07314973 0.03309332
v -0.00486182 0.09411504 -0.01962793
v -0.00488764 0.09141624 -0.02243829
v -0.00501670 0.09981413 0.00686323
v -0.00501670 0.09998327 0.00411429
v -0.00501670 0.10013034 0.00137304
v -0.00501670 0.10013770 0.00108125
v -0.00501670 0.10013770 -0.00139126
v -0.00501670 0.09999062 -0.00413252
v -0.00501670 0.09982149 -0.00686610
v -0.00488764 0.09957882 -0.00962271
v -0.00475858 0.09935821 -0.01122754
v -0.00488764 0.09693885 -0.01512827
v -0.00473277 0.09660058 -0.01664095
v -0.02148425 0.03099115 -0.04145050
v -0.01843853 0.03601370 -0.04125853
v -0.00488764 0.08868068 -0.02504901
v -0.00488764 0.08347428 -0.02782099
v 0.00221044 0.05753789 -0.04104354
v -0.00197097 0.08001806 -0.03026278
v -0.00328734 0.08396698 -0.02808206
v 0.00499806 0.05756731 -0.04108960
v 0.00499806 0.05619953 -0.04159639
v 0.07128126 0.05608187 -0.04160407
v 0.07128126 0.05617746 -0.04157336
v 0.07375914 0.05617011 -0.04156568
v 0.21948926 0.08138584 -0.03130707
v 0.23497600 0.08843801 -0.02762135
v 0.23593101 0.08692315 -0.02816652
v 0.23608588 0.08412140 -0.02965617
v 0.23706670 0.08241535 -0.03010153
v 0.23608588 0.08145938 -0.03078493
v 0.23324665 0.08323161 -0.03047010
v 0.23324665 0.08460675 -0.02979439
v 0.23760874 0.08059900 -0.03044707
v 0.23794429 0.07865028 -0.03073886
v 0.23822821 0.07589265 -0.03103832
v 0.23846051 0.07293647 -0.03122261
v 0.23856376 0.07037740 -0.03133778
v 0.23990594 0.06761977 -0.02998635
v 0.23972526 0.06488421 -0.02981742
v 0.23946715 0.06212658 -0.02952564
v 0.24042216 0.05993519 -0.02780563
v 0.23892511 0.05897186 -0.02901885
v 0.24011243 0.05809677 -0.02745242
v 0.23846051 0.05664075 -0.02857349
v 0.23778942 0.05389047 -0.02790545
v 0.23931228 0.05375075 -0.02611634
v 0.23804753 0.05141964 -0.02602420
v 0.23773780 0.04661034 -0.02237686
v 0.23959621 0.05114020 -0.02399705
v 0.24021568 0.04968417 -0.02206972
v 0.23864119 0.04863995 -0.02313704
v 0.23758293 0.04406597 -0.01952810
v 0.23789266 0.04372035 -0.01852989
v 0.23809915 0.04350709 -0.01786185
v 0.23998337 0.04447778 -0.01615720
v 0.23887349 0.04276437 -0.01532791
v 0.23778942 0.04113921 -0.01450630
v 0.23758293 0.03861690 -0.00871664
v 0.23781523 0.03841835 0.00687859
v 0.23755712 0.03863896 0.00872145
v 0.23611169 0.03828599 0.00962753
v 0.23546641 0.04122746 0.01695291
v 0.23709251 0.03891105 0.01054896
v 0.23611169 0.03930815 0.01235343
v 0.23624074 0.04069799 0.01532505
v 0.23329826 0.05186086 0.02790259
v 0.23603425 0.05207412 0.02775669
v 0.23603425 0.05388312 0.02880866
v 0.23603425 0.05601568 0.02992974
v 0.23603425 0.05739082 0.03049027
v 0.23603425 0.04367623 0.02003203
v 0.23603425 0.04474986 0.02139882
v 0.23603425 0.04611765 0.02291150
v 0.23603425 0.04752220 0.02429365
v 0.23603425 0.04889733 0.02547615
v 0.23603425 0.05070634 0.02686598
v 0.23740225 0.05799382 0.03025224
v 0.23766037 0.05937631 0.03047492
v 0.23809915 0.06212658 0.03087421
v 0.23781523 0.03841100 -0.00686610
v 0.23944133 0.03949199 -0.00412484
v 0.23959621 0.03935227 -0.00137590
v 0.23957039 0.03935227 0.00137304
v 0.23944133 0.03949199 0.00411429
v 0.21672746 0.08138584 0.03131956
v 0.23324665 0.07864292 0.03191082
v 0.23324665 0.08138584 0.03108153
v 0.21122968 0.08138584 0.03135795
v 0.20849369 0.08138584 0.03136563
v 0.08958141 0.07704717 0.03323153
v 0.02149143 0.08137848 0.03147313
v 0.02149143 0.08345222 0.03059010
v 0.08958141 0.07875323 0.03254814
v 0.05997595 0.08137848 0.03147313
v -0.00197097 0.08001806 0.03025992
v -0.00302923 0.07871646 0.03043652
v 0.23634399 0.07295854 0.03261725
v 0.23629237 0.07314973 0.03260957
v 0.23575033 0.07567204 0.03244832
v 0.23600845 0.07864292 0.03167278
v 0.23520830 0.08319484 0.03045188
v -0.00478439 0.07786343 0.03035974
v -0.00488764 0.07588529 0.03051331
v -0.00499088 0.07315708 0.03066688
v -0.00488764 0.08346693 0.02781812
v -0.00486182 0.08860714 0.02503847
v -0.00486182 0.09135742 0.02234328
v -0.00486182 0.09410033 0.01958667
v -0.00496507 0.09506366 0.01767470
v -0.00473277 0.09660058 0.01663809
v -0.00486182 0.09693149 0.01511004
v -0.00499088 0.09789483 0.01223057
v -0.00488764 0.09957146 0.00961985
v -0.00527480 0.09788012 0.00961985
v 0.23652467 0.06761977 0.03267100
v 0.23667953 0.07037004 0.03271707
v -0.00328734 0.09440183 -0.01993507
v -0.00328734 0.09311494 -0.02131722
v -0.00328734 0.09173981 -0.02278383
v -0.00468115 0.09146036 -0.02248436
v -0.00328734 0.09037938 -0.02416598
v -0.00326153 0.10104955 0.00411429
v -0.00326153 0.10134370 0.00137304
v -0.00328734 0.10135105 0.00108125
v -0.00486182 0.10026271 0.00108125
v -0.00328734 0.10135105 -0.00139126
v -0.00328734 0.10106426 -0.00413252
v -0.00328734 0.10064510 -0.00686610
v -0.00328734 0.10005680 -0.00962271
v -0.00328734 0.09946116 -0.01148093
v -0.00328734 0.09877727 -0.01286308
v -0.00328734 0.09669618 -0.01681756
v -0.00328734 0.09577697 -0.01818435
v -0.00328734 0.08900424 -0.02529473
v -0.00328734 0.08688639 -0.02652331
v -0.00328734 0.08534212 -0.02735259
v 0.00603051 0.06367821 -0.03857102
v 0.00773404 0.06375174 -0.03860174
v 0.00499806 0.05939837 -0.04035246
v 0.02149143 0.08343751 -0.03059296
v 0.01452240 0.07731926 -0.03302708
v 0.00773404 0.05939837 -0.04036014
v 0.02698921 0.05756731 -0.04108960
v 0.07128126 0.05739082 -0.04115104
v 0.07375914 0.05754525 -0.04108193
v 0.21675328 0.08138584 -0.03133011
v 0.21948926 0.08342281 -0.03056225
v 0.23549222 0.09142360 -0.02510277
v 0.23732482 0.09097502 -0.02471884
v 0.23678278 0.08785707 -0.02721438
v 0.23324665 0.08688639 -0.02854278
v 0.22225106 0.08688639 -0.02873474
v 0.22225106 0.08857038 -0.02771349
v 0.23324665 0.08982785 -0.02666920
v 0.23324665 0.09162215 -0.02529473
v 0.23768617 0.08601865 -0.02781331
v 0.23817659 0.08413611 -0.02831242
v 0.21948926 0.08479794 -0.02989421
v 0.23995756 0.08229769 -0.02731420
v 0.24029311 0.08047398 -0.02767509
v 0.23931228 0.07865028 -0.02936439
v 0.23959621 0.07589265 -0.02972528
v 0.23982850 0.07293647 -0.02991725
v 0.23993175 0.07037740 -0.03000939
v 0.24091258 0.07037740 -0.02863492
v 0.24088676 0.06761977 -0.02859653
v 0.24086095 0.06488421 -0.02845063
v 0.24068027 0.06212658 -0.02815885
v 0.24078351 0.05664075 -0.02574777
v 0.24049960 0.05456701 -0.02520259
v 0.23982850 0.05664075 -0.02712224
v 0.24003499 0.05274330 -0.02458830
v 0.23969945 0.04766927 -0.02061847
v 0.23825402 0.04566907 -0.02051096
v 0.24055122 0.05114020 -0.02261490
v 0.24057704 0.04905176 -0.02061847
v 0.24011243 0.04705156 -0.01919792
v 0.23936390 0.04552200 -0.01852989
v 0.24060285 0.04630884 -0.01736274
v 0.24042216 0.04392625 -0.01431434
v 0.23980270 0.04608088 -0.01852989
v 0.23964782 0.04208048 -0.01235629
v 0.23825402 0.04066858 -0.01235629
v 0.24000919 0.04169074 -0.01044432
v 0.24026729 0.04140394 -0.00861682
v 0.23920903 0.03978614 -0.00686610
v 0.23918323 0.03977143 0.00687859
v 0.24026729 0.04139659 0.00865235
v 0.24000919 0.04167603 0.01047217
v 0.23830564 0.04065387 0.01236111
v 0.23729900 0.04158043 0.01637701
v 0.23624074 0.04217608 0.01785898
v 0.23608588 0.04324971 0.01942542
v 0.23781523 0.04113921 0.01454183
v 0.23742806 0.05250798 0.02750330
v 0.23758293 0.04406597 0.01950220
v 0.23773780 0.04662505 0.02238935
v 0.23768617 0.04944150 0.02503079
v 0.23781523 0.05388312 0.02790259
v 0.23825402 0.05689812 0.02890848
v 0.24013824 0.05808942 0.02746491
v 0.23926066 0.05915570 0.02878563
v 0.23946715 0.06212658 0.02953813
v 0.23975107 0.06488421 0.02983759
v 0.23838308 0.06488421 0.03112760
v 0.24047378 0.04116127 -0.00686610
v 0.24068027 0.04087448 -0.00412484
v 0.24078351 0.04072005 -0.00137590
v 0.24078351 0.04072741 0.00006000
v 0.24078351 0.04073476 0.00137304
v 0.24068027 0.04087448 0.00411429
v 0.24047378 0.04115392 0.00687859
v 0.21672746 0.08342281 0.03055938
v 0.21396566 0.08340810 0.03057474
v 0.02149143 0.08482736 0.02986063
v -0.00328734 0.08396698 0.02807920
v 0.03795898 0.08345222 0.03059010
v 0.02425323 0.08482736 0.02990670
v -0.00382938 0.07969450 0.03009099
v 0.23636980 0.07293647 0.03260957
v 0.23791847 0.07864292 0.03072831
v 0.23760874 0.08059900 0.03045188
v 0.23706670 0.08241535 0.03011402
v 0.23611169 0.08145202 0.03077438
v 0.23595682 0.08690844 0.02817134
v 0.23497600 0.08843801 0.02761848
v 0.23324665 0.08459204 0.02979920
v 0.21948926 0.08477588 0.02990670
v 0.23611169 0.08412140 0.02965331
v -0.00326153 0.08533476 0.02734973
v -0.00326153 0.08687903 0.02648972
v -0.00326153 0.08889394 0.02526883
v -0.00326153 0.09026172 0.02400186
v -0.00326153 0.09301199 0.02125292
v -0.00326153 0.09437977 0.01987845
v -0.00326153 0.09575491 0.01818148
v -0.00326153 0.09669618 0.01681469
v -0.00326153 0.09876991 0.01286022
v -0.00473277 0.09935085 0.01122468
v -0.00326153 0.10063774 0.00686323
v 0.23853794 0.06761977 0.03129652
v 0.23856376 0.07037004 0.03133492
v 0.23833145 0.07293647 0.03133492
v 0.02975101 0.09580639 -0.02113293
v 0.02698921 0.09430623 -0.02264561
v 0.02698921 0.09304876 -0.02402008
v 0.02698921 0.09167362 -0.02534080
v 0.02425323 0.08857773 -0.02772884
v -0.00049973 0.10138782 0.00411429
v -0.00049973 0.10168932 0.00137304
v -0.00300342 0.10138782 0.00108125
v -0.00052554 0.10169667 -0.00139126
v -0.00052554 0.10139517 -0.00413252
v -0.00052554 0.10092454 -0.00686610
v -0.00052554 0.10021858 -0.00962271
v 0.03251281 0.10176285 -0.00999897
v 0.03251281 0.10096866 -0.01237165
v -0.00052554 0.09893905 -0.01298594
v -0.00052554 0.09780658 -0.01512827
v 0.03251281 0.09912289 -0.01623399
v 0.02975101 0.09802719 -0.01786953
v 0.02975101 0.09688737 -0.01975078
v 0.02149143 0.08481265 -0.02986350
v 0.01596783 0.07738544 -0.03305779
v 0.01875544 0.07881206 -0.03252029
v 0.00773404 0.06215600 -0.03924674
v 0.02149143 0.08137113 -0.03147600
v 0.02425323 0.08482000 -0.02990957
v 0.03522299 0.08343751 -0.03059296
v 0.08289631 0.07501756 -0.03406369
v 0.07582404 0.06123679 -0.03962299
v 0.07128126 0.05939837 -0.04036014
v 0.09030413 0.07881941 -0.03252029
v 0.09030413 0.08139319 -0.03146064
v 0.23554384 0.09416652 -0.02242294
v 0.23644723 0.09259283 -0.02356705
v 0.23324665 0.09299728 -0.02398937
v 0.23737644 0.09376206 -0.02199293
v 0.23804753 0.09193100 -0.02288365
v 0.23988013 0.09064411 -0.02160900
v 0.23949296 0.08948223 -0.02316008
v 0.23907998 0.08948223 -0.02370526
v 0.23784104 0.08948223 -0.02525634
v 0.21948926 0.08688639 -0.02875010
v 0.21948926 0.08858508 -0.02772884
v 0.22225106 0.08995286 -0.02670759
v 0.22225106 0.09169569 -0.02533312
v 0.22498706 0.09305611 -0.02407383
v 0.23871862 0.08682755 -0.02608563
v 0.24029311 0.08579804 -0.02495687
v 0.23954458 0.08413611 -0.02682277
v 0.24060285 0.08413611 -0.02544830
v 0.24055122 0.07865028 -0.02798992
v 0.24078351 0.07589265 -0.02834313
v 0.24091258 0.07295854 -0.02854278
v 0.24093839 0.04840464 0.01785130
v 0.24086095 0.04289674 -0.00686610
v 0.24078351 0.05375075 -0.02355169
v 0.24073190 0.04828698 -0.01852989
v 0.24078351 0.04549258 -0.01518202
v 0.24073190 0.04345562 -0.01235629
v 0.24073190 0.04344091 0.01236111
v 0.23967364 0.04205842 0.01236111
v 0.23892511 0.04274966 0.01536344
v 0.24000919 0.04446307 0.01616969
v 0.23809915 0.04348503 0.01785130
v 0.23804753 0.05141229 0.02602133
v 0.24003499 0.05274330 0.02459311
v 0.23931228 0.05375075 0.02612115
v 0.23949296 0.04509549 0.01785130
v 0.23993175 0.04683095 0.01942542
v 0.23858957 0.04589704 0.02030078
v 0.23959621 0.04784576 0.02109167
v 0.24021568 0.04969153 0.02206685
v 0.23864119 0.04864731 0.02314954
v 0.23957039 0.05114020 0.02399418
v 0.23982850 0.05664075 0.02711937
v 0.24049960 0.05456701 0.02519972
v 0.24078351 0.05664075 0.02575258
v 0.24042216 0.05992048 0.02780276
v 0.24068027 0.06212658 0.02815598
v 0.24086095 0.06488421 0.02845545
v 0.23993175 0.06761977 0.02999885
v 0.24086095 0.04289674 0.00687859
v 0.21672746 0.08479794 0.02989902
v 0.02425323 0.08687903 0.02876259
v 0.02425323 0.08847478 0.02777973
v 0.21948926 0.08687903 0.02875491
v 0.23822821 0.07589265 0.03104313
v 0.23959621 0.07589265 0.02971474
v 0.23931228 0.07864292 0.02936920
v 0.23879605 0.08143731 0.02889313
v 0.23815078 0.08412876 0.02831723
v 0.23768617 0.08601130 0.02780276
v 0.23680859 0.08785707 0.02721919
v 0.23732482 0.09098238 0.02470829
v 0.23549222 0.09143095 0.02511526
v 0.23324665 0.09163685 0.02530722
v 0.23324665 0.08982785 0.02667401
v 0.21948926 0.08858508 0.02772598
v 0.23324665 0.08687903 0.02855527
v 0.02425323 0.08857038 0.02771830
v 0.02701503 0.09167362 0.02533794
v 0.02701503 0.09304140 0.02400954
v 0.02701503 0.09429888 0.02263507
v 0.02972520 0.09579168 0.02112239
v 0.02972520 0.09688737 0.01974792
v -0.00049973 0.09779923 0.01511004
v -0.00049973 0.09893170 0.01298307
v 0.02972520 0.09801249 0.01786666
v 0.03248700 0.09910083 0.01620809
v -0.00326153 0.09944645 0.01147807
v -0.00326153 0.10004945 0.00961985
v -0.00049973 0.10090983 0.00686323
v 0.23993175 0.07037004 0.03001420
v 0.23982850 0.07293647 0.02992206
v 0.23846051 0.07293647 0.03123510
v 0.02972520 0.09462244 -0.02248436
v 0.03524880 0.09688737 -0.01975078
v 0.22774886 0.09688002 -0.01972007
v 0.22498706 0.09579903 -0.02109454
v 0.22498706 0.09442389 -0.02269936
v 0.17511979 0.09442389 -0.02270704
v 0.02972520 0.09442389 -0.02270704
v 0.02972520 0.09304876 -0.02408919
v 0.02698921 0.08996757 -0.02671527
v 0.02425323 0.08688639 -0.02876546
v 0.02698921 0.08858508 -0.02772884
v 0.03248700 0.10248352 0.00686323
v 0.03522299 0.10304240 0.00411429
v -0.00052554 0.10169667 0.00108125
v 0.03522299 0.10329977 0.00137304
v 0.03524880 0.10332183 -0.00139126
v 0.03524880 0.10307916 -0.00413252
v 0.03251281 0.10249087 -0.00686610
v 0.03251281 0.10211583 -0.00863218
v 0.03524880 0.10214525 -0.00871664
v 0.03524880 0.10176285 -0.01008343
v 0.23051066 0.10096866 -0.01237933
v 0.22774886 0.09984355 -0.01489023
v 0.06552536 0.09984355 -0.01487487
v 0.03251281 0.09984355 -0.01485952
v 0.03251281 0.09812279 -0.01786953
v 0.06826135 0.09913024 -0.01624166
v 0.22774886 0.09813014 -0.01786953
v 0.07590147 0.07881941 -0.03252029
v 0.02425323 0.08137113 -0.03147600
v 0.23324665 0.09435771 -0.02262258
v 0.23324665 0.09573285 -0.02101007
v 0.23513086 0.09671088 -0.01949739
v 0.23698927 0.09631379 -0.01896757
v 0.23778942 0.09691679 -0.01713238
v 0.23799591 0.09447537 -0.02015775
v 0.23982850 0.09334291 -0.01873721
v 0.23895092 0.09263695 -0.02088722
v 0.24044797 0.09150449 -0.01978150
v 0.24024148 0.08948223 -0.02214651
v 0.24044797 0.08880569 -0.02246133
v 0.23975107 0.08764381 -0.02428883
v 0.21948926 0.08948223 -0.02706849
v 0.21948926 0.08997492 -0.02669991
v 0.22225106 0.09307082 -0.02407383
v 0.24068027 0.08679078 -0.02337508
v 0.24070609 0.08137848 -0.02628527
v 0.24070609 0.08968813 -0.02066454
v 0.24078351 0.09226927 -0.01504380
v 0.24083514 0.09763745 -0.00686610
v 0.24091258 0.07295854 -0.02663849
v 0.24091258 0.07037004 0.02863973
v 0.24088676 0.06761977 0.02861670
v 0.24078351 0.05375075 0.02354882
v 0.24055122 0.05114020 0.02261204
v 0.24049960 0.04862525 0.02036221
v 0.24049960 0.04647062 0.01785130
v 0.24078351 0.04548523 0.01519451
v 0.24042216 0.04392625 0.01434219
v 0.24016405 0.04701479 0.01924881
v 0.24021568 0.04725011 0.01942542
v 0.02683435 0.08848948 0.02777973
v 0.24075770 0.07589265 0.02834795
v 0.24052541 0.07864292 0.02799473
v 0.24026729 0.08047398 0.02767223
v 0.23995756 0.08229769 0.02731133
v 0.23954458 0.08412876 0.02681990
v 0.24029311 0.08579804 0.02496168
v 0.23871862 0.08682755 0.02609044
v 0.23791847 0.08913661 0.02539169
v 0.23735063 0.09374000 0.02196703
v 0.23639561 0.09258548 0.02356418
v 0.23892511 0.08989404 0.02357954
v 0.23985431 0.09064411 0.02160614
v 0.23802172 0.09190894 0.02288078
v 0.23551803 0.09415916 0.02241239
v 0.23324665 0.09301199 0.02399418
v 0.22498706 0.09307082 0.02409400
v 0.22498706 0.09169569 0.02532258
v 0.21948926 0.08996757 0.02669705
v 0.22222526 0.08993816 0.02669705
v 0.02701503 0.08995286 0.02671241
v 0.02701503 0.08858508 0.02771830
v 0.22222526 0.09170304 0.02533026
v 0.22222526 0.09307817 0.02409400
v 0.02972520 0.09303405 0.02407865
v 0.02972520 0.09441654 0.02269650
v 0.22498706 0.09443125 0.02271186
v 0.22498706 0.09581374 0.02109167
v 0.03248700 0.09688737 0.01974792
v 0.22774886 0.09813014 0.01786666
v 0.03248700 0.09810808 0.01786666
v 0.03248700 0.09982884 0.01482594
v 0.03248700 0.10094660 0.01237646
v 0.21672746 0.09914495 0.01626184
v 0.03248700 0.10174815 0.01005753
v -0.00049973 0.10021858 0.00961985
v 0.03248700 0.10213053 0.00867538
v 0.24083514 0.07293647 0.02863973
v 0.22774886 0.09576962 -0.02109454
v 0.23051066 0.09808602 -0.01786953
v 0.23324665 0.09681383 -0.01962025
v 0.03522299 0.10260118 0.00686323
v 0.07525619 0.10304974 0.00412197
v 0.05997595 0.10329977 0.00137304
v 0.11229528 0.10332183 -0.00139126
v 0.03524880 0.10260118 -0.00686610
v 0.11505708 0.10307916 -0.00413252
v 0.13694499 0.10260118 -0.00686610
v 0.23051066 0.10259382 -0.00686610
v 0.23051066 0.10213053 -0.00870128
v 0.23051066 0.10176285 -0.01006807
v 0.23051066 0.09984355 -0.01489023
v 0.23324665 0.10172609 -0.00998361
v 0.23324665 0.10089512 -0.01237933
v 0.23324665 0.09981413 -0.01479809
v 0.22774886 0.09914495 -0.01625702
v 0.23051066 0.09913760 -0.01624934
v 0.23600845 0.09876991 -0.01561202
v 0.23603425 0.09733595 -0.01797703
v 0.23324665 0.09800513 -0.01786953
v 0.23324665 0.09909347 -0.01618024
v 0.23737644 0.09926996 -0.01374612
v 0.23967364 0.09597552 -0.01512827
v 0.24037053 0.09407092 -0.01690202
v 0.23879605 0.09518868 -0.01793096
v 0.24068027 0.09241634 -0.01783881
v 0.24065446 0.08948223 -0.02108686
v 0.24065446 0.09460038 -0.01512827
v 0.24068027 0.09724035 -0.00962271
v 0.24006080 0.09920378 -0.00504627
v 0.24016405 0.09932144 -0.00322644
v 0.24026729 0.09940233 -0.00139126
v 0.24078351 0.09789483 -0.00139126
v 0.24083514 0.09763745 0.00687091
v 0.24088676 0.07314973 0.02853991
v 0.24073190 0.08137848 0.02628240
v 0.24060285 0.08412876 0.02544544
v 0.24044797 0.08879834 0.02245846
v 0.23972526 0.08763646 0.02430133
v 0.23892511 0.09262960 0.02086899
v 0.23980270 0.09334291 0.01873434
v 0.23799591 0.09446801 0.02013953
v 0.23778942 0.09691679 0.01712184
v 0.23696346 0.09629908 0.01894934
v 0.23513086 0.09671088 0.01950220
v 0.24042216 0.09150449 0.01977863
v 0.23324665 0.09435771 0.02261204
v 0.22774886 0.09577697 0.02109167
v 0.22774886 0.09687267 0.01971720
v 0.23051066 0.09809337 0.01786666
v 0.23051066 0.09914495 0.01625416
v 0.22774886 0.09914495 0.01626184
v 0.21672746 0.09982149 0.01489505
v 0.04895456 0.10094660 0.01237646
v 0.03522299 0.10174815 0.01014199
v 0.03522299 0.10215996 0.00876752
v 0.07525619 0.10260118 0.00687091
v 0.17514560 0.10304974 0.00412197
v 0.23051066 0.10329242 0.00137304
v 0.23051066 0.10329242 -0.00000911
v 0.22498706 0.10329242 -0.00139126
v 0.23051066 0.10305711 -0.00413252
v 0.23324665 0.10300563 -0.00413252
v 0.23324665 0.10253499 -0.00686610
v 0.23324665 0.10211583 -0.00860914
v 0.23479532 0.10206436 -0.00842485
v 0.23600845 0.10029948 -0.01237933
v 0.23600845 0.09951999 -0.01423755
v 0.23667953 0.10174079 -0.00686610
v 0.23763455 0.09951999 -0.01237933
v 0.23951877 0.09861548 -0.00962271
v 0.24042216 0.09683590 -0.01171129
v 0.24003499 0.09641674 -0.01353880
v 0.23582777 0.10135840 -0.00945379
v 0.23990594 0.09901258 -0.00686610
v 0.23851213 0.10036566 -0.00686610
v 0.23874443 0.10063774 -0.00409412
v 0.23742806 0.10205700 -0.00312662
v 0.23889930 0.10077746 -0.00139126
v 0.24026729 0.09940233 -0.00000911
v 0.24078351 0.09789483 -0.00000911
v 0.24024148 0.09940233 0.00137304
v 0.24006080 0.09919643 0.00502805
v 0.24068027 0.09724770 0.00961985
v 0.24065446 0.09460038 0.01511772
v 0.24068027 0.09240899 0.01783595
v 0.24070609 0.08968813 0.02066167
v 0.24083514 0.07864292 0.02612115
v 0.24070609 0.08948223 0.02086131
v 0.24065446 0.08678343 0.02337222
v 0.24065446 0.08948223 0.02109167
v 0.23879605 0.09518132 0.01792809
v 0.24034472 0.09406356 0.01689916
v 0.23737644 0.09926996 0.01375093
v 0.23964782 0.09597552 0.01511772
v 0.23603425 0.09733595 0.01796648
v 0.23324665 0.09909347 0.01617737
v 0.23324665 0.09800513 0.01786666
v 0.23324665 0.09679913 0.01963274
v 0.23324665 0.09572549 0.02100721
v 0.23600845 0.09876991 0.01560915
v 0.23051066 0.09982149 0.01489505
v 0.23324665 0.09979207 0.01480290
v 0.04621857 0.10174815 0.01014199
v 0.23051066 0.10091718 0.01237646
v 0.23051066 0.10174079 0.01005753
v 0.23051066 0.10214525 0.00868306
v 0.04621857 0.10215996 0.00875985
v 0.23051066 0.10258647 0.00687091
v 0.07930855 0.10260118 0.00687091
v 0.23051066 0.10304240 0.00412197
v 0.23324665 0.10323358 0.00137304
v 0.23051066 0.10328506 -0.00139126
v 0.23324665 0.10323358 -0.00139126
v 0.23600845 0.10269677 -0.00139126
v 0.23618912 0.10241733 -0.00407877
v 0.23531154 0.10225555 -0.00686610
v 0.23722157 0.10194670 -0.00493877
v 0.23812496 0.09998327 -0.00962271
v 0.23753131 0.10212319 -0.00139126
v 0.23889930 0.10077746 -0.00000911
v 0.23753131 0.10213053 -0.00000911
v 0.23753131 0.10213053 0.00137304
v 0.24013824 0.09931408 0.00320054
v 0.23851213 0.10036566 0.00687091
v 0.23988013 0.09901258 0.00687091
v 0.23740225 0.10206436 0.00310072
v 0.23949296 0.09862284 0.00961985
v 0.24042216 0.09685060 0.01172378
v 0.24003499 0.09641674 0.01355897
v 0.23667953 0.10174079 0.00687091
v 0.23582777 0.10135840 0.00946628
v 0.23600845 0.10028477 0.01237646
v 0.23600845 0.09951263 0.01423468
v 0.23763455 0.09951263 0.01237646
v 0.23324665 0.10086571 0.01237646
v 0.23324665 0.10171138 0.00998074
v 0.23324665 0.10212319 0.00860627
v 0.23324665 0.10252764 0.00687091
v 0.23324665 0.10298357 0.00412197
v 0.23600845 0.10270413 0.00137304
v 0.23600845 0.10270413 -0.00000911
v 0.23812496 0.09999062 0.00961985
v 0.23719576 0.10193934 0.00494358
v 0.23616331 0.10240998 0.00406054
v 0.23528573 0.10224820 0.00687091
v 0.23482112 0.10207171 0.00843734
f 1 2 3
f 1 3 4
f 1 4 5
f 1 5 6
f 1 6 7
f 1 7 8
f 1 8 9
f 1 9 10
f 1 10 11
f 1 11 12
f 1 12 13
f 1 13 2
f 2 14 15
f 2 15 16
f 2 16 17
f 2 17 18
f 2 18 19
f 2 19 3
f 2 13 14
f 3 19 20
f 3 20 4
f 4 21 22
f 4 22 5
f 4 20 23
f 4 23 24
f 4 24 25
f 4 25 21
f 5 22 26
f 5 26 6
f 6 26 27
f 6 27 8
f 6 8 7
f 8 27 9
f 9 28 10
f 9 27 29
f 9 29 28
f 10 28 11
f 11 30 12
f 11 28 31
f 11 31 29
f 11 29 32
f 11 32 30
f 12 33 13
f 12 30 34
f 12 34 35
f 12 35 36
f 12 36 37
f 12 37 33
f 13 33 14
f 14 33 38
f 14 38 15
f 15 38 16
f 16 39 17
f 16 38 39
f 17 39 40
f 17 40 41
f 17 41 18
f 18 41 42
f 18 42 43
f 18 43 44
f 18 44 45
f 18 45 19
f 19 45 23
f 19 23 20
f 21 46 47
f 21 47 22
f 21 25 48
f 21 48 46
f 22 47 49
f 22 49 26
f 23 45 44
f 23 44 24
f 24 44 43
f 24 43 50
f 24 50 25
f 25 50 51
f 25 51 52
f 25 52 53
f 25 53 54
f 25 54 48
f 26 49 55
f 26 55 56
f 26 56 57
f 26 57 27
f 27 57 58
f 27 58 29
f 28 29 31
f 29 58 126
f 29 126 59
f 29 59 32
f 30 32 60
f 30 60 61
f 30 61 62
f 30 62 63
f 30 63 64
f 30 64 65
f 30 65 66
f 30 66 67
f 30 67 68
f 30 68 69
f 30 69 70
f 30 70 71
f 30 71 72
f 30 72 73
f 30 73 74
f 30 74 75
f 30 75 34
f 32 59 76
f 32 76 60
f 33 37 77
f 33 77 78
f 33 78 79
f 33 79 80
f 33 80 81
f 33 81 82
f 33 82 83
f 33 83 84
f 33 84 38
f 34 75 85
f 34 85 86
f 34 86 35
f 35 86 87
f 35 87 36
f 36 87 88
f 36 88 89
f 36 89 37
f 37 89 90
f 37 90 77
f 38 91 92
f 38 92 93
f 38 93 94
f 38 94 95
f 38 95 96
f 38 96 97
f 38 97 39
f 38 84 98
f 38 98 99
f 38 99 100
f 38 100 91
f 39 101 102
f 39 102 103
f 39 103 104
f 39 104 40
f 39 97 101
f 40 104 103
f 40 103 102
f 40 102 105
f 40 105 41
f 41 105 106
f 41 106 52
f 41 52 42
f 42 52 51
f 42 51 50
f 42 50 43
f 46 107 108
f 46 108 47
f 46 48 109
f 46 109 110
f 46 110 107
f 47 108 111
f 47 111 112
f 47 112 49
f 48 54 113
f 48 113 114
f 48 114 110
f 48 110 109
f 49 112 115
f 49 115 55
f 52 106 53
f 53 106 116
f 53 116 54
f 54 116 117
f 54 117 118
f 54 118 113
f 55 115 119
f 55 119 120
f 55 120 121
f 55 121 56
f 56 122 123
f 56 123 124
f 56 124 125
f 56 125 57
f 56 121 122
f 57 125 126
f 57 126 58
f 59 60 76
f 59 126 127
f 59 127 128
f 59 128 129
f 59 129 60
f 60 129 130
f 60 130 131
f 60 131 132
f 60 132 61
f 61 132 131
f 61 131 133
f 61 133 63
f 61 63 62
f 63 133 134
f 63 134 64
f 64 134 65
f 65 134 66
f 66 134 135
f 66 135 136
f 66 136 67
f 67 136 137
f 67 137 68
f 68 137 69
f 69 137 138
f 69 138 70
f 70 138 139
f 70 139 71
f 71 139 72
f 72 75 73
f 72 139 140
f 72 140 141
f 72 141 142
f 72 142 143
f 72 143 75
f 73 75 74
f 75 144 85
f 75 143 145
f 75 145 146
f 75 146 147
f 75 147 148
f 75 148 144
f 77 90 149
f 77 149 78
f 78 149 150
f 78 150 79
f 79 150 151
f 79 151 80
f 80 151 152
f 80 152 81
f 81 153 154
f 81 154 155
f 81 155 156
f 81 156 157
f 81 157 82
f 81 152 158
f 81 158 159
f 81 159 160
f 81 160 161
f 81 161 162
f 81 162 163
f 81 163 164
f 81 164 165
f 81 165 166
f 81 166 167
f 81 167 153
f 82 157 168
f 82 168 169
f 82 169 98
f 82 98 83
f 83 98 84
f 85 144 170
f 85 170 86
f 86 170 171
f 86 171 87
f 87 171 172
f 87 172 88
f 88 172 173
f 88 173 174
f 88 174 89
f 89 174 175
f 89 175 90
f 90 175 176
f 90 176 149
f 91 177 178
f 91 178 179
f 91 179 180
f 91 180 181
f 91 181 182
f 91 182 183
f 91 183 92
f 91 100 184
f 91 184 177
f 92 183 185
f 92 185 93
f 93 185 186
f 93 186 94
f 94 186 187
f 94 187 95
f 95 187 96
f 96 187 97
f 97 187 188
f 97 188 101
f 98 169 189
f 98 189 190
f 98 190 99
f 99 190 100
f 100 190 191
f 100 191 192
f 100 192 184
f 101 188 102
f 102 193 194
f 102 194 105
f 102 188 195
f 102 195 196
f 102 196 197
f 102 197 198
f 102 198 199
f 102 199 200
f 102 200 201
f 102 201 202
f 102 202 203
f 102 203 204
f 102 204 205
f 102 205 193
f 105 206 207
f 105 207 116
f 105 116 106
f 105 194 208
f 105 208 209
f 105 209 206
f 107 110 108
f 108 210 111
f 108 110 211
f 108 211 210
f 110 212 211
f 110 114 209
f 110 209 212
f 111 210 213
f 111 213 214
f 111 214 112
f 112 214 115
f 113 118 114
f 114 118 117
f 114 117 209
f 115 215 216
f 115 216 217
f 115 217 119
f 115 214 215
f 116 207 117
f 117 207 209
f 119 217 218
f 119 218 120
f 120 218 122
f 120 122 121
f 122 219 220
f 122 220 221
f 122 221 222
f 122 222 223
f 122 223 123
f 122 218 224
f 122 224 225
f 122 225 219
f 123 223 226
f 123 226 227
f 123 227 124
f 124 227 125
f 125 227 228
f 125 228 126
f 126 228 229
f 126 229 230
f 126 230 127
f 127 230 231
f 127 231 232
f 127 232 128
f 128 232 129
f 129 232 233
f 129 233 130
f 130 233 234
f 130 234 235
f 130 235 131
f 131 235 236
f 131 236 237
f 131 237 238
f 131 238 134
f 131 134 133
f 134 238 239
f 134 239 240
f 134 240 135
f 135 241 136
f 135 240 242
f 135 242 243
f 135 243 244
f 135 244 241
f 136 241 137
f 137 241 138
f 138 241 245
f 138 245 139
f 139 245 142
f 139 142 140
f 140 142 141
f 142 245 246
f 142 246 247
f 142 247 248
f 142 248 249
f 142 249 250
f 142 250 146
f 142 146 145
f 142 145 143
f 144 148 170
f 146 250 251
f 146 251 147
f 147 251 148
f 148 251 172
f 148 172 170
f 149 176 252
f 149 252 150
f 150 252 253
f 150 253 254
f 150 254 151
f 151 255 158
f 151 158 152
f 151 254 256
f 151 256 257
f 151 257 258
f 151 258 255
f 153 167 259
f 153 259 154
f 154 259 260
f 154 260 261
f 154 261 155
f 155 261 262
f 155 262 263
f 155 263 156
f 156 263 168
f 156 168 157
f 158 255 159
f 159 255 160
f 160 255 161
f 161 255 264
f 161 264 162
f 162 264 265
f 162 265 163
f 163 265 266
f 163 266 164
f 164 266 165
f 165 266 267
f 165 267 268
f 165 268 269
f 165 269 166
f 166 269 167
f 167 269 260
f 167 260 259
f 168 263 270
f 168 270 169
f 169 270 271
f 169 271 272
f 169 272 189
f 170 172 171
f 172 251 273
f 172 273 173
f 173 274 275
f 173 275 174
f 173 273 274
f 174 275 175
f 175 275 276
f 175 276 176
f 176 276 277
f 176 277 252
f 177 278 281
f 177 281 178
f 177 184 279
f 177 279 280
f 177 280 278
f 178 281 179
f 179 281 282
f 179 282 283
f 179 283 180
f 180 284 285
f 180 285 181
f 180 283 286
f 180 286 287
f 180 287 284
f 181 285 288
f 181 288 182
f 182 288 289
f 182 289 185
f 182 185 183
f 184 192 290
f 184 290 291
f 184 291 292
f 184 292 293
f 184 293 294
f 184 294 279
f 185 289 295
f 185 295 186
f 186 295 296
f 186 296 187
f 187 296 297
f 187 297 188
f 188 297 296
f 188 296 295
f 188 295 298
f 188 298 299
f 188 299 300
f 188 300 301
f 188 301 302
f 188 302 303
f 188 303 304
f 188 304 305
f 188 305 306
f 188 306 307
f 188 307 195
f 189 272 308
f 189 308 190
f 190 308 309
f 190 309 191
f 191 309 192
f 192 309 290
f 193 205 310
f 193 310 311
f 193 311 312
f 193 312 313
f 193 313 194
f 194 313 314
f 194 314 208
f 195 307 306
f 195 306 315
f 195 315 316
f 195 316 317
f 195 317 196
f 196 317 318
f 196 318 197
f 197 318 198
f 198 318 199
f 199 318 319
f 199 319 200
f 200 319 201
f 201 319 320
f 201 320 202
f 202 320 321
f 202 321 203
f 203 321 322
f 203 322 323
f 203 323 324
f 203 324 205
f 203 205 204
f 205 324 325
f 205 325 326
f 205 326 310
f 206 209 207
f 208 314 327
f 208 327 328
f 208 328 329
f 208 329 209
f 209 329 212
f 210 330 331
f 210 331 332
f 210 332 213
f 210 211 330
f 211 212 333
f 211 333 334
f 211 334 330
f 212 329 456
f 212 456 333
f 213 332 335
f 213 335 465
f 213 465 336
f 213 336 214
f 214 336 337
f 214 337 216
f 214 216 215
f 216 337 217
f 217 337 338
f 217 338 218
f 218 339 340
f 218 340 224
f 218 338 339
f 219 341 342
f 219 342 343
f 219 343 220
f 219 225 344
f 219 344 345
f 219 345 346
f 219 346 347
f 219 347 348
f 219 348 341
f 220 343 349
f 220 349 221
f 221 349 222
f 222 349 350
f 222 350 226
f 222 226 223
f 224 340 351
f 224 351 225
f 225 351 345
f 225 345 344
f 226 350 352
f 226 352 353
f 226 353 354
f 226 354 227
f 227 354 355
f 227 355 228
f 228 355 356
f 228 356 229
f 229 356 230
f 230 356 357
f 230 357 231
f 231 357 358
f 231 358 359
f 231 359 360
f 231 360 232
f 232 360 361
f 232 361 233
f 233 361 234
f 234 236 235
f 234 361 362
f 234 362 236
f 236 362 363
f 236 363 364
f 236 364 237
f 237 364 238
f 238 364 239
f 239 364 363
f 239 363 365
f 239 365 240
f 240 365 242
f 241 244 243
f 241 243 366
f 241 366 367
f 241 367 245
f 242 365 243
f 243 365 363
f 243 363 368
f 243 368 369
f 243 369 370
f 243 370 366
f 245 367 371
f 245 371 248
f 245 248 246
f 246 248 247
f 248 372 373
f 248 373 249
f 248 371 374
f 248 374 372
f 249 373 250
f 250 373 375
f 250 375 376
f 250 376 251
f 251 376 377
f 251 377 378
f 251 378 379
f 251 379 273
f 252 277 380
f 252 380 253
f 253 256 254
f 253 380 381
f 253 381 382
f 253 382 383
f 253 383 256
f 255 258 384
f 255 384 385
f 255 385 386
f 255 386 264
f 256 383 387
f 256 387 384
f 256 384 257
f 257 384 258
f 260 269 388
f 260 388 261
f 261 388 262
f 262 388 270
f 262 270 263
f 264 386 384
f 264 384 389
f 264 389 265
f 265 389 390
f 265 390 266
f 266 390 267
f 267 390 391
f 267 391 268
f 268 391 269
f 269 391 388
f 270 388 392
f 270 392 393
f 270 393 394
f 270 394 395
f 270 395 271
f 271 395 396
f 271 396 272
f 272 396 397
f 272 397 398
f 272 398 308
f 273 379 274
f 274 379 399
f 274 399 400
f 274 400 275
f 275 400 401
f 275 401 402
f 275 402 403
f 275 403 276
f 276 403 404
f 276 404 277
f 277 404 405
f 277 405 380
f 278 406 281
f 278 280 294
f 278 294 406
f 279 294 280
f 281 406 407
f 281 407 282
f 282 407 283
f 283 407 286
f 284 287 410
f 284 410 285
f 285 408 409
f 285 409 288
f 285 410 411
f 285 411 408
f 286 407 287
f 287 407 410
f 288 409 412
f 288 412 289
f 289 412 295
f 290 413 292
f 290 292 291
f 290 309 413
f 292 413 414
f 292 414 293
f 293 415 416
f 293 416 417
f 293 417 294
f 293 414 415
f 294 418 419
f 294 419 420
f 294 420 421
f 294 421 406
f 294 417 416
f 294 416 422
f 294 422 418
f 295 412 298
f 298 412 409
f 298 409 423
f 298 423 299
f 299 423 424
f 299 424 425
f 299 425 426
f 299 426 300
f 300 426 427
f 300 427 428
f 300 428 301
f 301 428 303
f 301 303 302
f 303 428 429
f 303 429 430
f 303 430 431
f 303 431 432
f 303 432 304
f 304 432 305
f 305 432 306
f 306 432 433
f 306 433 315
f 308 398 434
f 308 434 309
f 309 434 435
f 309 435 436
f 309 436 413
f 310 326 437
f 310 437 438
f 310 438 439
f 310 439 311
f 311 439 312
f 312 314 313
f 312 439 314
f 314 439 440
f 314 440 441
f 314 441 327
f 315 433 442
f 315 442 443
f 315 443 316
f 316 443 444
f 316 444 317
f 317 444 319
f 317 319 318
f 319 444 445
f 319 445 320
f 320 445 446
f 320 446 321
f 321 446 447
f 321 447 322
f 322 447 448
f 322 448 323
f 323 448 449
f 323 449 450
f 323 450 451
f 323 451 324
f 324 451 325
f 325 451 452
f 325 452 453
f 325 453 454
f 325 454 455
f 325 455 326
f 326 455 437
f 327 441 456
f 327 456 328
f 328 456 329
f 330 334 457
f 330 457 331
f 331 457 458
f 331 458 459
f 331 459 332
f 332 459 335
f 333 460 458
f 333 458 457
f 333 457 334
f 333 456 461
f 333 461 462
f 333 462 580
f 333 580 460
f 335 459 463
f 335 463 464
f 335 464 465
f 336 465 337
f 337 465 340
f 337 340 338
f 338 340 339
f 340 463 466
f 340 466 467
f 340 467 462
f 340 462 351
f 340 465 464
f 340 464 463
f 341 468 469
f 341 469 342
f 341 348 470
f 341 470 468
f 342 469 471
f 342 471 472
f 342 472 473
f 342 473 474
f 342 474 475
f 342 475 476
f 342 476 349
f 342 349 343
f 345 351 477
f 345 477 478
f 345 478 346
f 346 478 479
f 346 479 347
f 347 479 348
f 348 479 480
f 348 480 481
f 348 481 470
f 349 476 482
f 349 482 483
f 349 483 484
f 349 484 350
f 350 484 352
f 351 462 461
f 351 461 477
f 352 484 483
f 352 483 485
f 352 485 353
f 353 485 486
f 353 486 354
f 354 486 355
f 355 486 487
f 355 487 356
f 356 487 488
f 356 488 357
f 357 488 358
f 358 488 489
f 358 489 490
f 358 490 359
f 359 490 360
f 360 490 491
f 360 491 362
f 360 362 361
f 362 491 368
f 362 368 363
f 366 374 367
f 366 370 374
f 367 374 371
f 368 491 369
f 369 372 370
f 369 491 492
f 369 492 493
f 369 493 372
f 370 372 374
f 372 493 494
f 372 494 373
f 373 377 375
f 373 494 377
f 375 377 376
f 377 494 378
f 378 399 379
f 378 494 399
f 380 405 381
f 381 405 495
f 381 495 382
f 382 495 496
f 382 496 383
f 383 496 387
f 384 387 497
f 384 497 498
f 384 498 499
f 384 499 389
f 384 386 385
f 387 496 497
f 388 391 500
f 388 500 501
f 388 501 502
f 388 502 392
f 389 499 498
f 389 498 503
f 389 503 504
f 389 504 505
f 389 505 390
f 390 505 504
f 390 504 506
f 390 506 507
f 390 507 508
f 390 508 391
f 391 508 507
f 391 507 509
f 391 509 500
f 392 502 510
f 392 510 393
f 393 510 394
f 394 511 512
f 394 512 513
f 394 513 395
f 394 510 511
f 395 513 396
f 396 513 514
f 396 514 397
f 397 514 515
f 397 515 516
f 397 516 398
f 398 516 434
f 399 494 400
f 400 494 401
f 401 494 490
f 401 490 517
f 401 517 402
f 402 517 403
f 403 517 495
f 403 495 404
f 404 495 405
f 406 421 407
f 407 421 518
f 407 518 410
f 408 411 519
f 408 519 520
f 408 520 425
f 408 425 424
f 408 424 423
f 408 423 409
f 410 518 411
f 411 518 521
f 411 521 519
f 413 436 522
f 413 522 414
f 414 522 523
f 414 523 524
f 414 524 415
f 415 524 525
f 415 525 526
f 415 526 416
f 416 526 527
f 416 527 422
f 418 422 528
f 418 528 419
f 419 528 529
f 419 529 530
f 419 530 531
f 419 531 532
f 419 532 533
f 419 533 521
f 419 521 534
f 419 534 420
f 420 534 421
f 421 521 518
f 421 534 521
f 422 527 528
f 425 520 535
f 425 535 536
f 425 536 426
f 426 536 537
f 426 537 427
f 427 537 428
f 428 537 538
f 428 538 539
f 428 539 429
f 429 539 540
f 429 540 430
f 430 541 542
f 430 542 431
f 430 540 543
f 430 543 544
f 430 544 541
f 431 545 432
f 431 542 545
f 432 545 546
f 432 546 433
f 433 546 547
f 433 547 442
f 434 516 435
f 435 516 548
f 435 548 549
f 435 549 550
f 435 550 436
f 436 550 522
f 437 551 438
f 437 455 552
f 437 552 553
f 437 553 554
f 437 554 555
f 437 555 556
f 437 556 551
f 438 551 557
f 438 557 439
f 439 557 558
f 439 558 440
f 440 558 480
f 440 480 559
f 440 559 441
f 441 560 456
f 441 559 561
f 441 561 560
f 442 547 562
f 442 562 563
f 442 563 443
f 443 564 444
f 443 563 565
f 443 565 564
f 444 564 445
f 445 564 566
f 445 566 567
f 445 567 446
f 446 567 568
f 446 568 447
f 447 568 569
f 447 569 448
f 448 569 449
f 449 569 570
f 449 570 571
f 449 571 450
f 450 571 572
f 450 572 573
f 450 573 574
f 450 574 575
f 450 575 451
f 451 575 453
f 451 453 452
f 453 576 455
f 453 455 454
f 453 575 577
f 453 577 576
f 455 576 578
f 455 578 552
f 456 560 461
f 458 460 579
f 458 579 463
f 458 463 459
f 460 580 466
f 460 466 579
f 461 560 477
f 462 467 580
f 463 579 466
f 466 580 467
f 468 470 581
f 468 581 582
f 468 582 583
f 468 583 471
f 468 471 469
f 470 481 581
f 471 583 584
f 471 584 585
f 471 585 586
f 471 586 587
f 471 587 588
f 471 588 473
f 471 473 472
f 473 588 589
f 473 589 590
f 473 590 474
f 474 590 591
f 474 591 475
f 475 591 592
f 475 592 476
f 476 592 483
f 476 483 482
f 477 560 478
f 478 593 479
f 478 560 561
f 478 561 559
f 478 559 593
f 479 593 594
f 479 594 480
f 480 595 481
f 480 594 559
f 480 558 595
f 481 595 555
f 481 555 581
f 483 591 485
f 483 592 591
f 485 591 596
f 485 596 597
f 485 597 486
f 486 597 487
f 487 597 488
f 488 597 596
f 488 596 598
f 488 598 599
f 488 599 600
f 488 600 685
f 488 685 601
f 488 601 489
f 489 601 602
f 489 602 603
f 489 603 515
f 489 515 512
f 489 512 604
f 489 604 605
f 489 605 606
f 489 606 607
f 489 607 608
f 489 608 495
f 489 495 517
f 489 517 490
f 490 494 493
f 490 493 491
f 491 493 492
f 495 608 607
f 495 607 609
f 495 609 496
f 496 609 497
f 497 609 498
f 498 609 607
f 498 607 610
f 498 610 504
f 498 504 503
f 500 509 501
f 501 507 605
f 501 605 511
f 501 511 502
f 501 509 507
f 502 511 510
f 504 610 611
f 504 611 506
f 506 611 507
f 507 611 606
f 507 606 605
f 511 605 512
f 512 515 514
f 512 514 513
f 512 605 604
f 515 603 516
f 516 603 602
f 516 602 548
f 519 521 533
f 519 533 612
f 519 612 520
f 520 612 535
f 522 550 549
f 522 549 523
f 523 549 613
f 523 613 614
f 523 614 524
f 524 614 615
f 524 615 525
f 525 615 616
f 525 616 526
f 526 616 617
f 526 617 527
f 527 529 528
f 527 617 618
f 527 618 619
f 527 619 620
f 527 620 529
f 529 621 622
f 529 622 530
f 529 620 623
f 529 623 624
f 529 624 625
f 529 625 621
f 530 626 627
f 530 627 531
f 530 622 626
f 531 627 628
f 531 628 629
f 531 629 630
f 531 630 631
f 531 631 532
f 532 631 533
f 533 631 630
f 533 630 632
f 533 632 633
f 533 633 612
f 535 612 633
f 535 633 632
f 535 632 536
f 536 632 634
f 536 634 635
f 536 635 636
f 536 636 537
f 537 636 637
f 537 637 538
f 538 637 539
f 539 637 638
f 539 638 639
f 539 639 640
f 539 640 540
f 540 640 641
f 540 641 642
f 540 642 544
f 540 544 543
f 541 544 542
f 542 544 643
f 542 643 644
f 542 644 545
f 544 642 645
f 544 645 643
f 545 644 646
f 545 646 647
f 545 647 546
f 546 647 547
f 547 647 648
f 547 648 562
f 548 602 649
f 548 649 549
f 549 649 613
f 551 556 557
f 552 578 553
f 553 650 554
f 553 578 651
f 553 651 652
f 553 652 582
f 553 582 650
f 554 650 555
f 555 650 581
f 555 595 556
f 556 595 557
f 557 595 558
f 559 594 593
f 562 648 653
f 562 653 563
f 563 653 654
f 563 654 565
f 564 565 566
f 565 654 709
f 565 709 655
f 565 655 656
f 565 656 566
f 566 656 658
f 566 658 567
f 567 657 568
f 567 658 659
f 567 659 657
f 568 657 569
f 569 657 570
f 570 657 659
f 570 659 660
f 570 660 661
f 570 661 662
f 570 662 571
f 571 662 572
f 572 663 573
f 572 662 664
f 572 664 665
f 572 665 666
f 572 666 663
f 573 663 667
f 573 667 574
f 574 577 575
f 574 667 577
f 576 577 667
f 576 667 578
f 578 667 668
f 578 668 651
f 581 650 582
f 582 652 583
f 583 669 670
f 583 670 584
f 583 652 671
f 583 671 672
f 583 672 669
f 584 673 585
f 584 670 669
f 584 669 673
f 585 673 674
f 585 674 675
f 585 675 676
f 585 676 586
f 586 676 587
f 587 676 675
f 587 675 589
f 587 589 588
f 589 591 590
f 589 675 677
f 589 677 598
f 589 598 678
f 589 678 591
f 591 678 596
f 596 678 598
f 598 677 600
f 598 600 599
f 600 677 679
f 600 679 680
f 600 680 681
f 600 681 682
f 600 682 683
f 600 683 684
f 600 684 732
f 600 732 685
f 601 685 602
f 602 685 686
f 602 686 649
f 606 611 607
f 607 611 610
f 613 649 686
f 613 686 687
f 613 687 614
f 614 687 688
f 614 688 615
f 615 688 616
f 616 688 618
f 616 618 617
f 618 688 689
f 618 689 690
f 618 690 620
f 618 620 619
f 620 690 623
f 621 625 624
f 621 624 691
f 621 691 692
f 621 692 693
f 621 693 694
f 621 694 695
f 621 695 696
f 621 696 626
f 621 626 622
f 623 690 689
f 623 689 624
f 624 692 691
f 624 689 697
f 624 697 692
f 626 696 698
f 626 698 627
f 627 698 638
f 627 638 628
f 628 638 635
f 628 635 634
f 628 634 629
f 629 634 630
f 630 634 632
f 635 638 637
f 635 637 636
f 638 698 699
f 638 699 639
f 639 699 700
f 639 700 640
f 640 700 641
f 641 700 701
f 641 701 702
f 641 702 703
f 641 703 645
f 641 645 642
f 643 645 704
f 643 704 644
f 644 704 753
f 644 753 705
f 644 705 755
f 644 755 706
f 644 706 646
f 645 703 753
f 645 753 704
f 646 706 707
f 646 707 648
f 646 648 647
f 648 707 653
f 651 668 671
f 651 671 652
f 653 707 708
f 653 708 654
f 654 708 761
f 654 761 709
f 655 709 710
f 655 710 656
f 656 710 711
f 656 711 712
f 656 712 713
f 656 713 658
f 658 713 660
f 658 660 659
f 660 713 714
f 660 714 715
f 660 715 716
f 660 716 661
f 661 716 662
f 662 716 664
f 663 668 667
f 663 666 668
f 664 716 717
f 664 717 665
f 665 717 718
f 665 718 719
f 665 719 666
f 666 672 668
f 666 719 672
f 668 672 671
f 669 672 719
f 669 719 673
f 673 720 721
f 673 721 722
f 673 722 723
f 673 723 724
f 673 724 674
f 673 719 718
f 673 718 725
f 673 725 720
f 674 724 675
f 675 724 723
f 675 723 679
f 675 679 677
f 679 723 680
f 680 723 722
f 680 722 726
f 680 726 681
f 681 726 727
f 681 727 728
f 681 728 682
f 682 728 729
f 682 729 730
f 682 730 683
f 683 731 732
f 683 732 684
f 683 730 772
f 683 772 731
f 685 732 731
f 685 731 733
f 685 733 734
f 685 734 735
f 685 735 736
f 685 736 737
f 685 737 738
f 685 738 739
f 685 739 686
f 686 739 687
f 687 740 741
f 687 741 688
f 687 739 740
f 688 741 689
f 689 741 742
f 689 742 697
f 692 743 693
f 692 697 744
f 692 744 743
f 693 743 694
f 694 745 695
f 694 743 744
f 694 744 746
f 694 746 745
f 695 745 747
f 695 747 696
f 696 748 749
f 696 749 750
f 696 750 751
f 696 751 698
f 696 747 752
f 696 752 748
f 697 742 737
f 697 737 744
f 698 751 699
f 699 751 700
f 700 751 750
f 700 750 701
f 701 750 749
f 701 749 702
f 702 753 703
f 702 749 748
f 702 748 754
f 702 754 753
f 705 753 756
f 705 756 755
f 706 755 707
f 707 755 757
f 707 757 758
f 707 758 759
f 707 759 760
f 707 760 761
f 707 761 708
f 709 760 762
f 709 762 710
f 709 761 760
f 710 762 791
f 710 791 763
f 710 763 765
f 710 765 711
f 711 764 712
f 711 765 764
f 712 764 713
f 713 764 765
f 713 765 714
f 714 765 766
f 714 766 767
f 714 767 768
f 714 768 717
f 714 717 715
f 715 717 716
f 717 768 720
f 717 720 725
f 717 725 718
f 720 769 721
f 720 768 769
f 721 769 770
f 721 770 722
f 722 770 726
f 726 770 727
f 727 770 769
f 727 769 728
f 728 769 729
f 729 769 767
f 729 767 766
f 729 766 771
f 729 771 730
f 730 771 773
f 730 773 774
f 730 774 772
f 731 772 774
f 731 774 733
f 733 775 734
f 733 774 775
f 734 776 777
f 734 777 735
f 734 775 774
f 734 774 778
f 734 778 776
f 735 777 779
f 735 779 780
f 735 780 736
f 736 780 781
f 736 781 744
f 736 744 737
f 737 742 738
f 738 742 740
f 738 740 739
f 740 742 741
f 744 781 746
f 745 782 783
f 745 783 784
f 745 784 785
f 745 785 752
f 745 752 747
f 745 746 781
f 745 781 780
f 745 780 779
f 745 779 786
f 745 786 782
f 748 752 785
f 748 785 754
f 753 754 787
f 753 787 756
f 754 785 787
f 755 756 757
f 756 787 757
f 757 787 788
f 757 788 789
f 757 789 758
f 758 760 759
f 758 789 760
f 760 789 790
f 760 790 791
f 760 791 762
f 763 791 792
f 763 792 793
f 763 793 765
f 765 793 766
f 766 793 773
f 766 773 771
f 767 769 768
f 773 793 792
f 773 792 774
f 774 792 778
f 776 794 777
f 776 778 795
f 776 795 794
f 777 794 779
f 778 792 796
f 778 796 795
f 779 794 786
f 782 786 794
f 782 794 795
f 782 795 797
f 782 797 798
f 782 798 783
f 783 798 784
f 784 798 787
f 784 787 785
f 787 798 788
f 788 798 789
f 789 798 790
f 790 798 791
f 791 798 797
f 791 797 796
f 791 796 792
f 795 796 797

