# https://github.com/mikedh/trimesh
v 0.08953453 0.07875723 0.03256360
v 0.01856400 0.07874598 0.03256360
v 0.03244661 0.07744013 0.03309441
v 0.05995428 0.06763508 0.03705046
v 0.08195551 0.06763508 0.03705046
v 0.08953453 0.07704613 0.03325065
v 0.08953453 0.06653187 0.03256360
v 0.08400356 0.05819025 0.02779832
v -0.00511737 0.05819025 0.02779832
v 0.01546126 0.07825066 0.03256360
v 0.01450468 0.07731631 0.03305435
v 0.01595181 0.07738385 0.03308239
v 0.01595181 0.07588664 0.03370735
v 0.01320472 0.07127117 0.03557821
v 0.01320472 0.06763508 0.03704846
v 0.07646133 0.06213029 0.03926385
v 0.00769828 0.06213029 0.03926184
v 0.08471486 0.06989778 0.03613306
v 0.07646133 0.05936101 0.04037154
v 0.07922068 0.06213029 0.03925783
v 0.08747421 0.07313987 0.03478700
v 0.08953453 0.07518869 0.03390966
v 0.08953453 0.06658816 0.03295220
v 0.08126874 0.05418267 0.03714661
v 0.08039801 0.05282055 0.03714661
v 0.08477618 0.05936101 0.03256360
v 0.07031718 0.03765704 0.03714661
v 0.06970399 0.03673395 0.03256360
v 0.06939739 0.03628366 0.02779832
v -0.01839906 0.03425736 0.02779832
v -0.02965721 0.01982557 0.03802795
v -0.02977985 0.02001694 0.03989281
v -0.02966947 0.01987060 0.04142715
v -0.02407718 0.02793079 0.04136706
v -0.01841131 0.03600223 0.04127292
v -0.00499474 0.05819025 0.02837920
v 0.00507383 0.07034807 0.03256360
v 0.00769828 0.07316239 0.03256360
v 0.00991803 0.07498606 0.03256360
v 0.01069065 0.07553766 0.03256360
v 0.01406319 0.07775534 0.03256360
v 0.00769828 0.06372881 0.03861285
v -0.00203916 0.05530840 0.04130897
v -0.00053072 0.05572492 0.04147322
v 0.00603041 0.06365001 0.03858080
v 0.00769828 0.05936101 0.04037354
v 0.01595181 0.05936101 0.04037354
v 0.01595181 0.05754859 0.04109865
v 0.00495119 0.05936101 0.04036353
v 0.00495119 0.05754859 0.04109865
v 0.08128100 0.06366127 0.03858080
v 0.07368972 0.05753733 0.04109665
v 0.07646133 0.05742476 0.04109665
v 0.08953453 0.07240815 0.03467883
v 0.08683649 0.06960510 0.03601287
v 0.08953453 0.06761256 0.03406990
v 0.08901945 0.06600278 0.03359117
v 0.08650537 0.06281698 0.03619916
v 0.08276492 0.05674933 0.03733489
v 0.07801883 0.04948840 0.03901947
v 0.07810468 0.04936458 0.03714661
v 0.06938513 0.03628366 0.03714661
v 0.07248787 0.04122559 0.03915167
v 0.06939739 0.03628366 0.03256160
v 0.03120796 -0.01922580 0.03989281
v 0.03112212 -0.01911323 0.03838650
v 0.02862030 -0.02218646 0.03794783
v 0.06807290 0.03461759 0.02779832
v -0.01864433 0.03371701 0.02779832
v -0.03208544 0.01372414 0.03597882
v -0.03245335 0.01460221 0.03781162
v -0.03196280 0.01633583 0.03989281
v -0.03090812 0.01812573 0.03989281
v -0.03244109 0.01466975 0.04145319
v -0.03018455 0.01812573 0.04163948
v -0.02254421 0.01262094 0.04581386
v -0.02807518 0.02082747 0.04177568
v -0.00880877 0.04562717 0.04235457
v -0.01690287 0.03710544 0.04158139
v -0.01025590 0.04711313 0.04133100
v -0.00221085 0.05834786 0.03882117
v 0.00352859 0.06631798 0.03582859
v 0.00068340 0.06086948 0.03860484
v 0.00221637 0.05751482 0.04105058
v -0.00497021 0.05279803 0.04141714
v -0.00308158 0.05377741 0.04165950
v -0.00053072 0.05386747 0.04216428
v 0.00221637 0.05614143 0.04161344
v 0.00495119 0.05617521 0.04160943
v 0.08312057 0.06319972 0.03849667
v 0.07922068 0.05936101 0.04016923
v 0.07368972 0.05616395 0.04159541
v 0.07646133 0.05604012 0.04151528
v 0.08721667 0.06763508 0.03625725
v 0.08857795 0.06763508 0.03545202
v 0.08953453 0.06898595 0.03479301
v 0.08953453 0.06763508 0.03408393
v 0.08695913 0.06487705 0.03639946
v 0.08328000 0.05838163 0.03837248
v 0.08102346 0.05454291 0.03900745
v 0.07524722 0.04674164 0.04138509
v 0.07218127 0.04169839 0.04098648
v 0.03118344 -0.01919203 0.04135905
v 0.02874294 -0.02241160 0.03989281
v 0.02806843 -0.02144348 0.03611303
v 0.02766373 -0.02377373 0.03989281
v 0.02608170 -0.02498951 0.03770746
v 0.02549303 -0.02443790 0.03587466
v 0.06689558 0.03319917 0.02779832
v -0.01864433 0.03283894 0.02779832
v -0.03079774 0.00162261 0.03310443
v -0.03079774 0.00438063 0.03314449
v -0.03344672 0.00162261 0.03444648
v -0.03331182 0.00438063 0.03448654
v -0.03304201 0.00711614 0.03464278
v -0.03269862 0.00987417 0.03503137
v -0.03239203 0.01190047 0.03545602
v -0.03381463 0.00987417 0.03714861
v -0.03283353 0.01273351 0.03699638
v -0.03491837 0.00835444 0.03895537
v -0.03347124 0.01262094 0.03989281
v -0.03258825 0.01496244 0.03989281
v -0.03497970 0.00861336 0.04129695
v -0.03280900 0.01262094 0.04163547
v -0.02531583 0.00711614 0.04567765
v -0.03098170 0.01550279 0.04187984
v -0.02254421 0.00987417 0.04602618
v -0.01980939 0.01537896 0.04600215
v -0.01980939 0.01812573 0.04545731
v -0.00603716 0.04837394 0.04255688
v -0.00866161 0.04817131 0.04166551
v -0.00766824 0.05007378 0.04142915
v -0.00595131 0.05105316 0.04175766
v -0.00330233 0.05112070 0.04254686
v -0.00053072 0.05112070 0.04283931
v 0.00221637 0.05386747 0.04230650
v 0.08340263 0.06136480 0.03856077
v 0.07804336 0.05570240 0.04137908
v 0.07368972 0.05386747 0.04228646
v 0.08340263 0.06021655 0.03856077
v 0.07792072 0.05222391 0.04132700
v 0.07758960 0.05038898 0.04085427
v 0.07571324 0.04837394 0.04163146
v 0.07368972 0.04575100 0.04180973
v 0.06820780 0.04012238 0.04248277
v 0.02967499 -0.01764979 0.04229848
v 0.02957688 -0.02021644 0.04166952
v 0.02859578 -0.02218646 0.04144918
v 0.07115111 0.04272280 0.04201205
v 0.02604490 -0.02496700 0.04148323
v 0.02630245 -0.02520340 0.03989281
v 0.02485532 -0.02657678 0.03989281
v 0.02327329 -0.02766874 0.03784768
v 0.02438930 -0.02604769 0.03686017
v 0.02259878 -0.02709461 0.03601688
v 0.02367799 -0.02527094 0.03511350
v 0.02626565 -0.02259172 0.03514555
v 0.06546071 0.03286146 0.02779832
v 0.02442609 -0.02337972 0.03446451
v 0.02145825 -0.02315458 0.03326868
v 0.01869890 -0.02589009 0.03340489
v 0.01320472 -0.02865937 0.03325065
v 0.00221637 -0.00388218 0.02809877
v -0.01766323 0.03232111 0.02779832
v -0.00055524 -0.00388218 0.02809076
v -0.00330233 -0.00113541 0.02809076
v -0.00330233 -0.00388218 0.02815686
v -0.00606168 -0.00113541 0.02840124
v -0.02807518 -0.01214500 0.03310242
v -0.03079774 -0.00662895 0.03325666
v -0.03079774 -0.00388218 0.03313047
v -0.03079774 -0.00113541 0.03310443
v -0.03348351 -0.00113541 0.03444648
v -0.03484479 0.00162261 0.03600486
v -0.03467309 0.00438063 0.03634538
v -0.03448914 0.00730752 0.03721271
v -0.03507780 0.00650825 0.03816817
v -0.03551930 0.00438063 0.03989281
v -0.03497970 0.00861336 0.04079017
v -0.03453820 0.00967154 0.03988079
v -0.03575231 0.00162261 0.03989281
v -0.03507780 0.00711614 0.04138909
v -0.03356936 0.00711614 0.04205611
v -0.03356936 0.00438063 0.04227044
v -0.02759689 0.00438063 0.04486441
v -0.02531583 0.00438063 0.04583789
v -0.01429068 0.00438063 0.04743033
v -0.01429068 0.00711614 0.04726007
v -0.01573781 0.01133761 0.04677733
v -0.01404541 0.01239579 0.04684744
v -0.01706230 0.01812573 0.04600815
v -0.00330233 0.04837394 0.04300757
v -0.00055524 0.01262094 0.04775883
v 0.00221637 0.05112070 0.04284131
v -0.00880877 0.02360800 0.04595407
v -0.00606168 0.01537896 0.04717794
v -0.00330233 0.01262094 0.04768472
v 0.07095489 0.05112070 0.04284131
v 0.07808015 0.05386747 0.04139510
v 0.07646133 0.05386747 0.04190588
v 0.07368972 0.05112070 0.04267906
v 0.07658397 0.05123328 0.04180172
v 0.07368972 0.04837394 0.04247074
v 0.02145825 -0.01488051 0.04571370
v 0.07095489 0.04562717 0.04276720
v 0.02692790 -0.02038530 0.04250279
v 0.02692790 -0.02312081 0.04178169
v 0.02418081 -0.02589009 0.04178971
v 0.02324876 -0.02762371 0.04146721
v 0.02346951 -0.02783759 0.03989281
v 0.02180164 -0.02921098 0.03989281
v 0.02025640 -0.03013407 0.03824429
v 0.02143372 -0.02865937 0.03713258
v 0.01958189 -0.02965001 0.03641950
v 0.01774232 -0.03026916 0.03549007
v 0.02078374 -0.02781508 0.03528576
v 0.02158089 -0.02605895 0.03454864
v 0.06271363 0.03255751 0.02779832
v 0.01595181 -0.02865937 0.03371136
v 0.01046990 -0.03140614 0.03393971
v 0.00769828 -0.03140614 0.03358717
v 0.00495119 -0.03140614 0.03332476
v 0.01046990 -0.02865937 0.03309642
v 0.00221637 -0.03140614 0.03320258
v -0.01706230 0.03201716 0.02779832
v 0.01872343 0.03139802 0.02779832
v 0.02145825 0.03138676 0.02779832
v 0.04620657 0.03137550 0.02779832
v -0.00055524 -0.03140614 0.03319457
v -0.00330233 -0.03140614 0.03325065
v -0.01155586 -0.02865937 0.03312646
v -0.01706230 -0.02589009 0.03315851
v -0.01980939 -0.02315458 0.03310443
v -0.02254421 -0.02038530 0.03310242
v -0.02531583 -0.01764979 0.03313848
v -0.02807518 -0.01488051 0.03336482
v -0.03079774 -0.00938697 0.03360119
v -0.03311560 -0.00662895 0.03459871
v -0.03337314 -0.00388218 0.03447252
v -0.03484479 -0.00113541 0.03598083
v -0.03535988 0.00162261 0.03738096
v -0.03523724 0.00438063 0.03772149
v -0.03572779 -0.00113541 0.03989281
v -0.03532308 0.00162261 0.04156136
v -0.03523724 0.00438063 0.04150928
v -0.03535988 -0.00113541 0.03735693
v -0.03356936 0.00162261 0.04236458
v -0.02771953 0.00162261 0.04496255
v -0.02531583 0.00162261 0.04589798
v -0.01429068 0.00162261 0.04750845
v -0.01155586 0.00162261 0.04784296
v -0.01155586 0.00438063 0.04771877
v -0.01429068 0.00987417 0.04704774
v -0.00606168 0.01262094 0.04747239
v -0.01155586 0.01455718 0.04685344
v -0.00889462 0.01553656 0.04697363
v -0.01429068 0.02088375 0.04591802
v -0.00055524 0.00987417 0.04808132
v -0.00330233 0.00987417 0.04792308
v 0.07095489 0.04837394 0.04300757
v 0.00221637 0.00987417 0.04801122
v 0.02145825 -0.01214500 0.04602217
v 0.01869890 -0.01764979 0.04576378
v 0.01595181 -0.02038530 0.04578581
v 0.02133561 -0.02859183 0.04171760
v 0.02035451 -0.03020161 0.04140111
v 0.02041583 -0.03025790 0.03989281
v 0.01869890 -0.03125980 0.03989281
v 0.01665084 -0.03240803 0.03989281
v 0.01499524 -0.03297089 0.03804398
v 0.01868663 -0.03065190 0.03726278
v 0.01868663 -0.02869314 0.03478099
v 0.01595181 -0.03209283 0.03713659
v 0.01409998 -0.03254312 0.03621518
v 0.01228494 -0.03293712 0.03556419
v 0.01595181 -0.03073071 0.03504339
v 0.01320472 -0.03155248 0.03470287
v 0.01046990 -0.03319604 0.03527575
v 0.00769828 -0.03351124 0.03492721
v 0.00495119 -0.03380393 0.03466481
v 0.00221637 -0.03396153 0.03454263
v -0.00055524 -0.03396153 0.03453261
v -0.00330233 -0.03382645 0.03459070
v -0.00606168 -0.03140614 0.03343694
v -0.00880877 -0.03140614 0.03375743
v -0.01429068 -0.02865937 0.03344895
v -0.01980939 -0.02589009 0.03367330
v -0.02254421 -0.02315458 0.03354710
v -0.02531583 -0.02038530 0.03364125
v -0.02830819 -0.01787493 0.03441042
v -0.03040530 -0.01488051 0.03470487
v -0.03107981 -0.01237014 0.03447452
v -0.03277221 -0.00938697 0.03494124
v -0.03473441 -0.00388218 0.03622520
v -0.03527402 -0.00388218 0.03760130
v -0.03558062 -0.00388218 0.03989281
v -0.03523724 -0.00388218 0.04152330
v -0.03528628 -0.00113541 0.04156136
v -0.03356936 -0.00113541 0.04236859
v -0.02771953 -0.00113541 0.04496456
v -0.02531583 -0.00113541 0.04591000
v -0.01429068 -0.00113541 0.04749643
v -0.01155586 -0.00113541 0.04783895
v -0.00880877 0.00162261 0.04808933
v -0.00055524 0.00711614 0.04825960
v 0.00769828 0.00162261 0.04811137
v 0.01046990 0.00162261 0.04794511
v 0.01046990 -0.00113541 0.04798117
v 0.01320472 -0.00388218 0.04760860
v 0.01554710 -0.00938697 0.04695160
v 0.01503203 -0.01148082 0.04685344
v 0.01869890 -0.02865937 0.04235657
v 0.01320472 -0.02038530 0.04604421
v 0.01046990 -0.02315458 0.04586193
v 0.01320472 -0.02315458 0.04555146
v 0.01869890 -0.03065190 0.04160342
v 0.01511787 -0.03299341 0.04143116
v 0.01527730 -0.03307221 0.03989281
v 0.01320472 -0.03388273 0.03989281
v 0.01046990 -0.03482834 0.03989281
v 0.00864259 -0.03541372 0.03989281
v 0.00680303 -0.03563886 0.03824228
v 0.01320472 -0.03334238 0.03713659
v 0.01046990 -0.03420919 0.03714861
v 0.00769828 -0.03495217 0.03726078
v 0.00495119 -0.03517731 0.03651765
v 0.00221637 -0.03533492 0.03619115
v -0.00055524 -0.03533492 0.03616110
v -0.00330233 -0.03522234 0.03640748
v -0.00606168 -0.03360130 0.03477698
v -0.00880877 -0.03329736 0.03509547
v -0.01170303 -0.03163128 0.03452860
v -0.01429068 -0.03095585 0.03478900
v -0.01723400 -0.02887326 0.03447653
v -0.01980939 -0.02804022 0.03500133
v -0.02242157 -0.02580003 0.03492321
v -0.02521772 -0.02301949 0.03491119
v -0.02749878 -0.02038530 0.03497128
v -0.02985343 -0.01710944 0.03522767
v -0.03214675 -0.01343958 0.03582058
v -0.03245335 -0.01161591 0.03537790
v -0.03448914 -0.00662895 0.03678205
v -0.03507780 -0.00662895 0.03815214
v -0.03523724 -0.00662895 0.03989281
v -0.03497970 -0.00829502 0.04132700
v -0.03510234 -0.00662895 0.04142715
v -0.03356936 -0.00388218 0.04229247
v -0.02762142 -0.00388218 0.04488844
v -0.02531583 -0.00388218 0.04586994
v -0.01429068 -0.00388218 0.04741831
v -0.01155586 -0.00388218 0.04769673
v -0.00880877 -0.00113541 0.04807932
v -0.00606168 0.00162261 0.04821953
v -0.00055524 0.00438063 0.04824958
v 0.00769828 -0.00113541 0.04813741
v -0.00330233 0.00162261 0.04824958
v 0.01046990 -0.00388218 0.04785498
v 0.01320472 -0.00662895 0.04742232
v 0.00495119 -0.01214500 0.04761060
v 0.00955012 -0.01649029 0.04681138
v 0.01598860 -0.03152997 0.04183578
v 0.00495119 -0.01488051 0.04729812
v 0.00221637 -0.02589009 0.04575977
v 0.00495119 -0.02589009 0.04562757
v 0.00769828 -0.02589009 0.04529306
v 0.01320472 -0.03140614 0.04240064
v 0.01320472 -0.03329736 0.04160542
v 0.00710962 -0.03563886 0.04138309
v 0.00726905 -0.03570640 0.03989281
v 0.00495119 -0.03601035 0.03989281
v 0.00495119 -0.03576269 0.03789375
v 0.00221637 -0.03587527 0.03756725
v -0.00055524 -0.03587527 0.03753720
v -0.00330233 -0.03579646 0.03778158
v -0.00539944 -0.03568389 0.03814013
v -0.00619659 -0.03505348 0.03719468
v -0.01093041 -0.03302718 0.03544200
v -0.01274545 -0.03270072 0.03590271
v -0.01642459 -0.03041550 0.03530980
v -0.02141595 -0.02746610 0.03555017
v -0.01827642 -0.02994269 0.03593876
v -0.02423661 -0.02482065 0.03545803
v -0.02688559 -0.02201760 0.03553414
v -0.02937514 -0.01893311 0.03585463
v -0.03184016 -0.01510565 0.03690223
v -0.03255146 -0.01431765 0.03765539
v -0.03298069 -0.01237014 0.03690223
v -0.03418254 -0.00911680 0.03741702
v -0.03491837 -0.00802484 0.03850869
v -0.03497970 -0.00822748 0.03989281
v -0.03455046 -0.00961212 0.03989281
v -0.03371652 -0.01214500 0.03989281
v -0.03220807 -0.01631018 0.04129094
v -0.03245335 -0.01488051 0.04144718
v -0.03293164 -0.01214500 0.04167754
v -0.03369199 -0.00927440 0.04175966
v -0.02531583 -0.00662895 0.04572772
v -0.03356936 -0.00662895 0.04211621
v -0.02254421 -0.00938697 0.04599013
v -0.01671891 -0.00662895 0.04695961
v -0.01617931 -0.00938697 0.04687148
v -0.00606168 -0.01214500 0.04755852
v -0.00330233 -0.00938697 0.04797116
v -0.01582366 -0.01101927 0.04679937
v -0.00055524 -0.00938697 0.04812139
v 0.00221637 -0.00938697 0.04800921
v 0.00221637 -0.01214500 0.04779689
v 0.00221637 -0.03414165 0.04231050
v 0.00495119 -0.03414165 0.04221035
v -0.00055524 -0.02589009 0.04578982
v 0.00790677 -0.03441182 0.04184379
v 0.01046990 -0.03380393 0.04176967
v 0.00495119 -0.03577395 0.04147923
v 0.00221637 -0.03621298 0.03989281
v -0.00055524 -0.03624675 0.03989281
v -0.00330233 -0.03608915 0.03989281
v -0.00619659 -0.03571766 0.04001299
v -0.00723901 -0.03549252 0.03917571
v -0.00880877 -0.03443434 0.03714861
v -0.01170303 -0.03351124 0.03695231
v -0.01370202 -0.03308347 0.03773751
v -0.01447464 -0.03238552 0.03695231
v -0.01983392 -0.02936858 0.03697434
v -0.02195555 -0.02790513 0.03714861
v -0.02332910 -0.02672313 0.03714861
v -0.01723400 -0.03096710 0.03697434
v -0.01893866 -0.03034796 0.03777357
v -0.02476396 -0.02533848 0.03714861
v -0.02614977 -0.02392007 0.03714861
v -0.02731482 -0.02254669 0.03714861
v -0.02882327 -0.02044158 0.03692227
v -0.02979211 -0.01955226 0.03768744
v -0.03042983 -0.01787493 0.03692227
v -0.03214675 -0.01618634 0.03907756
v -0.03261278 -0.01510565 0.03995490
v -0.03220807 -0.01631018 0.04091236
v -0.02993928 -0.01985621 0.03989281
v -0.02900723 -0.02122959 0.03989281
v -0.02974305 -0.01960855 0.04147522
v -0.03073642 -0.01740213 0.04162946
v -0.03079774 -0.01488051 0.04212822
v -0.02531583 -0.00938697 0.04535716
v -0.02254421 -0.01214500 0.04584591
v -0.00330233 -0.01214500 0.04775483
v -0.01706230 -0.01764979 0.04605222
v -0.01429068 -0.02038530 0.04601016
v -0.01980939 -0.01488051 0.04599013
v -0.00055524 -0.01214500 0.04782093
v 0.00221637 -0.03585275 0.04153331
v -0.00055524 -0.03414165 0.04232051
v -0.00055524 -0.03586401 0.04153932
v -0.00330233 -0.02589009 0.04572772
v -0.00330233 -0.03579646 0.04150527
v -0.00606168 -0.03563886 0.04138709
v -0.00750881 -0.03554880 0.04128493
v -0.00750881 -0.03554880 0.04101051
v -0.00858802 -0.03515480 0.04001299
v -0.01155586 -0.03417542 0.03989281
v -0.01551706 -0.03270072 0.03939004
v -0.02242157 -0.02820908 0.03989281
v -0.02377059 -0.02713964 0.03989281
v -0.02522998 -0.02575500 0.03989281
v -0.01919620 -0.03049430 0.03989281
v -0.02056974 -0.02959372 0.03989281
v -0.02660352 -0.02442665 0.03989281
v -0.02765821 -0.02304201 0.03989281
v -0.02732709 -0.02267052 0.04154733
v -0.02817329 -0.02046410 0.04185380
v -0.01980939 -0.01764979 0.04559152
v -0.00880877 -0.02315458 0.04600014
v -0.01706230 -0.02038530 0.04559753
v -0.01155586 -0.02315458 0.04580785
v -0.00330233 -0.03414165 0.04225441
v -0.00606168 -0.02589009 0.04555346
v -0.00606168 -0.03414165 0.04205411
v -0.00858802 -0.03424296 0.04171760
v -0.01155586 -0.03344370 0.04166551
v -0.01429068 -0.03299341 0.04142515
v -0.01568876 -0.03276827 0.04127091
v -0.01568876 -0.03276827 0.04122484
v -0.01447464 -0.03313975 0.04014119
v -0.01679250 -0.03201403 0.04014119
v -0.01895093 -0.03033670 0.04145720
v -0.02202914 -0.02787136 0.04155134
v -0.02484980 -0.02539477 0.04157538
v -0.02558563 -0.02341350 0.04194594
v -0.02278949 -0.02612649 0.04194394
v -0.01983392 -0.02874943 0.04183978
v -0.01679250 -0.03131608 0.04160743
v -0.01155586 -0.03140614 0.04251081
v -0.01429068 -0.03140614 0.04209016
f 1 2 3
f 1 3 4
f 1 4 5
f 1 5 6
f 1 6 22
f 1 22 54
f 1 54 96
f 1 96 97
f 1 97 56
f 1 56 23
f 1 23 7
f 1 7 8
f 1 8 9
f 1 9 2
f 2 10 11
f 2 11 12
f 2 12 13
f 2 13 14
f 2 14 15
f 2 15 3
f 2 9 10
f 3 15 4
f 4 16 5
f 4 15 17
f 4 17 16
f 5 18 6
f 5 16 19
f 5 19 20
f 5 20 18
f 6 18 21
f 6 21 22
f 7 23 24
f 7 24 25
f 7 25 26
f 7 26 8
f 8 26 27
f 8 27 28
f 8 28 29
f 8 29 68
f 8 68 109
f 8 109 158
f 8 158 218
f 8 218 228
f 8 228 227
f 8 227 226
f 8 226 225
f 8 225 164
f 8 164 110
f 8 110 69
f 8 69 30
f 8 30 9
f 9 30 31
f 9 31 32
f 9 32 33
f 9 33 34
f 9 34 35
f 9 35 36
f 9 36 37
f 9 37 38
f 9 38 39
f 9 39 40
f 9 40 41
f 9 41 10
f 10 41 11
f 11 42 12
f 11 41 43
f 11 43 44
f 11 44 45
f 11 45 42
f 12 42 14
f 12 14 13
f 14 42 17
f 14 17 15
f 16 17 46
f 16 46 47
f 16 47 48
f 16 48 19
f 17 42 49
f 17 49 50
f 17 50 46
f 18 20 51
f 18 51 21
f 19 52 53
f 19 53 20
f 19 48 52
f 20 53 51
f 21 51 22
f 22 51 55
f 22 55 54
f 23 56 57
f 23 57 58
f 23 58 59
f 23 59 24
f 24 59 60
f 24 60 25
f 25 60 61
f 25 61 26
f 26 61 27
f 27 62 28
f 27 61 60
f 27 60 63
f 27 63 62
f 28 62 64
f 28 64 29
f 29 64 65
f 29 65 66
f 29 66 67
f 29 67 68
f 30 69 70
f 30 70 71
f 30 71 31
f 31 71 72
f 31 72 73
f 31 73 32
f 32 73 33
f 33 73 72
f 33 72 74
f 33 74 75
f 33 75 76
f 33 76 77
f 33 77 34
f 34 77 78
f 34 78 79
f 34 79 80
f 34 80 35
f 35 80 36
f 36 80 37
f 37 81 38
f 37 80 81
f 38 81 82
f 38 82 39
f 39 82 83
f 39 83 40
f 40 83 41
f 41 83 43
f 42 45 84
f 42 84 49
f 43 83 81
f 43 81 85
f 43 85 86
f 43 86 44
f 44 86 87
f 44 87 88
f 44 88 84
f 44 84 45
f 46 50 48
f 46 48 47
f 48 50 89
f 48 89 52
f 49 84 88
f 49 88 50
f 50 88 89
f 51 90 55
f 51 53 91
f 51 91 90
f 52 92 53
f 52 89 92
f 53 92 93
f 53 93 91
f 54 55 90
f 54 90 94
f 54 94 95
f 54 95 96
f 56 97 58
f 56 58 57
f 58 97 96
f 58 96 98
f 58 98 99
f 58 99 100
f 58 100 59
f 59 100 60
f 60 101 102
f 60 102 63
f 60 100 101
f 62 63 103
f 62 103 65
f 62 65 64
f 63 102 103
f 65 103 104
f 65 104 66
f 66 104 67
f 67 105 68
f 67 104 106
f 67 106 107
f 67 107 108
f 67 108 105
f 68 105 108
f 68 108 109
f 69 110 172
f 69 172 111
f 69 111 112
f 69 112 113
f 69 113 114
f 69 114 115
f 69 115 116
f 69 116 117
f 69 117 70
f 70 117 118
f 70 118 119
f 70 119 71
f 71 119 120
f 71 120 121
f 71 121 122
f 71 122 72
f 72 122 74
f 74 122 123
f 74 123 124
f 74 124 125
f 74 125 76
f 74 76 126
f 74 126 75
f 75 126 76
f 76 127 128
f 76 128 129
f 76 129 77
f 76 125 127
f 77 129 78
f 78 130 131
f 78 131 80
f 78 80 79
f 78 129 130
f 80 131 132
f 80 132 81
f 81 83 82
f 81 132 85
f 85 132 133
f 85 133 86
f 86 133 134
f 86 134 87
f 87 134 135
f 87 135 136
f 87 136 88
f 88 136 89
f 89 136 92
f 90 137 94
f 90 91 138
f 90 138 137
f 91 93 138
f 92 139 93
f 92 136 139
f 93 139 138
f 94 137 95
f 95 137 140
f 95 140 98
f 95 98 96
f 98 140 99
f 99 140 141
f 99 141 142
f 99 142 100
f 100 142 101
f 101 142 141
f 101 141 143
f 101 143 144
f 101 144 103
f 101 103 102
f 103 145 146
f 103 146 147
f 103 147 148
f 103 148 106
f 103 106 104
f 103 144 149
f 103 149 145
f 106 148 150
f 106 150 151
f 106 151 107
f 107 151 152
f 107 152 153
f 107 153 154
f 107 154 108
f 108 154 155
f 108 155 156
f 108 156 157
f 108 157 109
f 109 157 159
f 109 159 160
f 109 160 161
f 109 161 162
f 109 162 163
f 109 163 158
f 110 164 165
f 110 165 166
f 110 166 167
f 110 167 168
f 110 168 169
f 110 169 170
f 110 170 171
f 110 171 172
f 111 172 173
f 111 173 113
f 111 113 112
f 113 173 174
f 113 174 114
f 114 174 115
f 115 174 175
f 115 175 116
f 116 175 176
f 116 176 118
f 116 118 117
f 118 176 177
f 118 177 120
f 118 120 119
f 120 177 178
f 120 178 179
f 120 179 180
f 120 180 121
f 121 180 179
f 121 179 123
f 121 123 122
f 123 179 178
f 123 178 181
f 123 181 182
f 123 182 183
f 123 183 125
f 123 125 124
f 125 183 184
f 125 184 185
f 125 185 186
f 125 186 127
f 127 187 188
f 127 188 128
f 127 186 187
f 128 188 189
f 128 189 190
f 128 190 191
f 128 191 130
f 128 130 129
f 130 134 133
f 130 133 131
f 130 191 134
f 131 133 132
f 134 191 192
f 134 192 135
f 135 193 194
f 135 194 136
f 135 192 195
f 135 195 196
f 135 196 197
f 135 197 193
f 136 194 198
f 136 198 139
f 137 138 199
f 137 199 140
f 138 139 200
f 138 200 199
f 139 198 201
f 139 201 200
f 140 199 141
f 141 199 202
f 141 202 143
f 143 203 144
f 143 202 203
f 144 203 145
f 144 145 149
f 145 204 146
f 145 203 205
f 145 205 204
f 146 204 206
f 146 206 147
f 147 206 207
f 147 207 148
f 148 207 150
f 150 207 208
f 150 208 209
f 150 209 152
f 150 152 151
f 152 209 210
f 152 210 153
f 153 210 211
f 153 211 212
f 153 212 213
f 153 213 155
f 153 155 154
f 155 213 214
f 155 214 215
f 155 215 216
f 155 216 156
f 156 159 157
f 156 216 217
f 156 217 159
f 158 163 165
f 158 165 218
f 159 217 161
f 159 161 160
f 161 219 162
f 161 217 219
f 162 219 220
f 162 220 221
f 162 221 222
f 162 222 223
f 162 223 163
f 163 223 222
f 163 222 224
f 163 224 229
f 163 229 165
f 164 225 165
f 165 226 227
f 165 227 228
f 165 228 218
f 165 229 230
f 165 230 167
f 165 167 166
f 165 225 226
f 167 230 231
f 167 231 232
f 167 232 233
f 167 233 234
f 167 234 235
f 167 235 169
f 167 169 168
f 169 235 236
f 169 236 170
f 170 236 237
f 170 237 238
f 170 238 239
f 170 239 171
f 171 239 173
f 171 173 172
f 173 239 240
f 173 240 174
f 174 240 246
f 174 246 241
f 174 241 242
f 174 242 175
f 175 242 177
f 175 177 176
f 177 242 178
f 178 242 181
f 181 243 244
f 181 244 245
f 181 245 182
f 181 242 241
f 181 241 246
f 181 246 243
f 182 245 184
f 182 184 183
f 184 245 247
f 184 247 248
f 184 248 185
f 185 248 186
f 186 248 249
f 186 249 250
f 186 250 187
f 187 250 251
f 187 251 252
f 187 252 188
f 188 253 189
f 188 252 253
f 189 253 190
f 190 253 254
f 190 254 255
f 190 255 191
f 191 255 256
f 191 256 257
f 191 257 192
f 192 257 195
f 193 258 198
f 193 198 194
f 193 197 258
f 195 256 196
f 195 257 256
f 196 256 197
f 197 256 254
f 197 254 259
f 197 259 258
f 198 260 201
f 198 258 261
f 198 261 260
f 199 200 202
f 200 201 202
f 201 260 203
f 201 203 202
f 203 260 205
f 204 207 206
f 204 205 262
f 204 262 263
f 204 263 207
f 205 260 262
f 207 263 264
f 207 264 208
f 208 264 265
f 208 265 209
f 209 265 266
f 209 266 210
f 210 266 211
f 211 266 267
f 211 267 212
f 212 267 268
f 212 268 269
f 212 269 270
f 212 270 271
f 212 271 214
f 212 214 213
f 214 271 215
f 215 272 216
f 215 271 273
f 215 273 274
f 215 274 275
f 215 275 276
f 215 276 272
f 216 272 217
f 217 272 219
f 219 272 276
f 219 276 277
f 219 277 220
f 220 277 278
f 220 278 279
f 220 279 280
f 220 280 221
f 221 280 222
f 222 280 281
f 222 281 224
f 224 281 282
f 224 282 229
f 229 282 230
f 230 283 284
f 230 284 231
f 230 282 283
f 231 284 285
f 231 285 286
f 231 286 232
f 232 286 287
f 232 287 288
f 232 288 233
f 233 288 234
f 234 288 235
f 235 288 289
f 235 289 236
f 236 290 291
f 236 291 292
f 236 292 237
f 236 289 290
f 237 292 293
f 237 293 238
f 238 293 294
f 238 294 239
f 239 294 240
f 240 294 295
f 240 295 246
f 243 246 295
f 243 295 296
f 243 296 297
f 243 297 298
f 243 298 244
f 244 298 299
f 244 299 247
f 244 247 245
f 247 299 248
f 248 300 301
f 248 301 249
f 248 299 300
f 249 301 250
f 250 302 303
f 250 303 251
f 250 301 302
f 251 303 304
f 251 304 252
f 252 304 259
f 252 259 253
f 253 259 254
f 254 256 255
f 258 305 261
f 258 259 305
f 259 304 305
f 260 261 306
f 260 306 307
f 260 307 308
f 260 308 309
f 260 309 262
f 261 305 306
f 262 309 310
f 262 310 311
f 262 311 263
f 263 311 264
f 264 312 265
f 264 311 313
f 264 313 314
f 264 314 315
f 264 315 312
f 265 312 266
f 266 312 316
f 266 316 317
f 266 317 269
f 266 269 268
f 266 268 267
f 269 317 318
f 269 318 270
f 270 273 271
f 270 318 319
f 270 319 320
f 270 320 321
f 270 321 322
f 270 322 323
f 270 323 274
f 270 274 273
f 274 323 275
f 275 277 276
f 275 323 324
f 275 324 325
f 275 325 326
f 275 326 278
f 275 278 277
f 278 326 279
f 279 326 280
f 280 326 327
f 280 327 281
f 281 327 328
f 281 328 282
f 282 328 283
f 283 328 329
f 283 329 330
f 283 330 285
f 283 285 284
f 285 331 332
f 285 332 286
f 285 330 331
f 286 333 334
f 286 334 287
f 286 332 333
f 287 334 335
f 287 335 336
f 287 336 288
f 288 337 289
f 288 336 337
f 289 338 290
f 289 337 338
f 290 339 291
f 290 338 339
f 291 339 340
f 291 340 341
f 291 341 292
f 292 341 293
f 293 341 342
f 293 342 294
f 294 342 343
f 294 343 295
f 295 343 296
f 296 344 345
f 296 345 346
f 296 346 297
f 296 343 344
f 297 346 347
f 297 347 299
f 297 299 298
f 299 347 300
f 300 348 349
f 300 349 301
f 300 347 348
f 301 349 302
f 302 350 303
f 302 349 350
f 303 351 352
f 303 352 304
f 303 350 351
f 304 352 353
f 304 353 305
f 305 354 355
f 305 355 306
f 305 353 356
f 305 356 354
f 306 355 308
f 306 308 307
f 308 357 309
f 308 355 357
f 309 357 358
f 309 358 310
f 310 358 311
f 311 358 359
f 311 359 360
f 311 360 313
f 312 315 361
f 312 361 316
f 313 360 314
f 314 360 362
f 314 362 363
f 314 363 364
f 314 364 315
f 315 364 365
f 315 365 366
f 315 366 361
f 316 361 317
f 317 320 319
f 317 319 318
f 317 361 366
f 317 366 367
f 317 367 368
f 317 368 320
f 320 368 321
f 321 368 369
f 321 369 322
f 322 325 324
f 322 324 323
f 322 369 370
f 322 370 371
f 322 371 326
f 322 326 325
f 326 371 327
f 327 371 372
f 327 372 373
f 327 373 328
f 328 373 374
f 328 374 329
f 329 374 375
f 329 375 376
f 329 376 331
f 329 331 330
f 331 377 332
f 331 376 377
f 332 377 333
f 333 377 378
f 333 378 379
f 333 379 334
f 334 379 335
f 335 380 336
f 335 379 381
f 335 381 380
f 336 380 382
f 336 382 337
f 337 382 383
f 337 383 338
f 338 383 384
f 338 384 339
f 339 384 340
f 340 384 385
f 340 385 386
f 340 386 387
f 340 387 388
f 340 388 341
f 341 388 342
f 342 388 389
f 342 389 343
f 343 389 344
f 344 389 390
f 344 390 345
f 345 390 391
f 345 391 392
f 345 392 393
f 345 393 394
f 345 394 395
f 345 395 396
f 345 396 397
f 345 397 398
f 345 398 346
f 346 398 347
f 347 398 397
f 347 397 348
f 348 397 349
f 349 397 399
f 349 399 400
f 349 400 350
f 350 400 401
f 350 401 351
f 351 402 403
f 351 403 352
f 351 401 404
f 351 404 402
f 352 403 405
f 352 405 353
f 353 405 356
f 354 356 355
f 355 356 405
f 355 405 406
f 355 406 357
f 357 406 359
f 357 359 358
f 359 406 407
f 359 407 360
f 360 407 362
f 362 407 363
f 363 408 409
f 363 409 364
f 363 407 410
f 363 410 408
f 364 409 411
f 364 411 365
f 365 411 366
f 366 411 412
f 366 412 367
f 367 412 368
f 368 409 413
f 368 413 414
f 368 414 370
f 368 370 369
f 368 412 411
f 368 411 409
f 370 414 371
f 371 414 372
f 372 414 415
f 372 415 373
f 373 415 374
f 374 415 416
f 374 416 375
f 375 416 417
f 375 417 418
f 375 418 419
f 375 419 376
f 376 419 377
f 377 419 420
f 377 420 378
f 378 420 421
f 378 421 422
f 378 422 381
f 378 381 379
f 380 381 423
f 380 423 424
f 380 424 425
f 380 425 382
f 381 426 427
f 381 427 423
f 381 422 426
f 382 425 428
f 382 428 429
f 382 429 383
f 383 429 430
f 383 430 431
f 383 431 384
f 384 431 432
f 384 432 433
f 384 433 385
f 385 433 386
f 386 392 389
f 386 389 387
f 386 433 434
f 386 434 392
f 387 389 388
f 389 392 391
f 389 391 390
f 392 434 435
f 392 435 436
f 392 436 393
f 393 437 438
f 393 438 439
f 393 439 440
f 393 440 441
f 393 441 394
f 393 436 437
f 394 441 442
f 394 442 395
f 395 442 396
f 396 442 397
f 397 442 443
f 397 443 399
f 399 443 400
f 400 443 401
f 401 443 404
f 402 444 403
f 402 404 445
f 402 445 446
f 402 446 444
f 403 444 405
f 404 443 447
f 404 447 445
f 405 448 407
f 405 407 406
f 405 444 448
f 407 448 410
f 408 449 413
f 408 413 409
f 408 410 450
f 408 450 451
f 408 451 449
f 410 448 452
f 410 452 450
f 413 449 414
f 414 449 415
f 415 449 451
f 415 451 453
f 415 453 416
f 416 453 454
f 416 454 455
f 416 455 417
f 417 455 456
f 417 456 418
f 418 456 457
f 418 457 458
f 418 458 421
f 418 421 420
f 418 420 419
f 421 459 426
f 421 426 422
f 421 458 459
f 423 427 424
f 424 427 460
f 424 460 461
f 424 461 425
f 425 461 462
f 425 462 428
f 426 459 427
f 427 459 463
f 427 463 464
f 427 464 460
f 428 462 465
f 428 465 429
f 429 465 430
f 430 465 432
f 430 432 431
f 432 465 466
f 432 466 438
f 432 438 437
f 432 437 434
f 432 434 433
f 434 437 436
f 434 436 435
f 438 466 439
f 439 466 465
f 439 465 467
f 439 467 468
f 439 468 440
f 440 468 469
f 440 469 443
f 440 443 441
f 441 443 442
f 443 469 447
f 444 446 470
f 444 470 448
f 445 447 469
f 445 469 471
f 445 471 446
f 446 471 472
f 446 472 470
f 448 470 452
f 450 452 473
f 450 473 453
f 450 453 451
f 452 470 474
f 452 474 473
f 453 473 454
f 454 473 475
f 454 475 455
f 455 475 476
f 455 476 477
f 455 477 478
f 455 478 479
f 455 479 458
f 455 458 456
f 456 458 457
f 458 479 480
f 458 480 481
f 458 481 459
f 459 481 480
f 459 480 482
f 459 482 463
f 460 464 483
f 460 483 484
f 460 484 461
f 461 484 485
f 461 485 462
f 462 485 465
f 463 479 464
f 463 482 480
f 463 480 479
f 464 479 483
f 465 485 467
f 467 485 486
f 467 486 469
f 467 469 468
f 469 486 485
f 469 485 471
f 470 472 474
f 471 485 487
f 471 487 484
f 471 484 488
f 471 488 489
f 471 489 472
f 472 490 474
f 472 489 491
f 472 491 490
f 473 474 475
f 474 490 477
f 474 477 476
f 474 476 475
f 477 490 491
f 477 491 478
f 478 491 479
f 479 491 489
f 479 489 483
f 483 488 484
f 483 489 488
f 484 487 485

