# https://github.com/mikedh/trimesh
v -0.00330196 0.02976480 -0.04359113
v 0.05162407 0.02975834 -0.03274761
v 0.05475184 0.02975834 -0.03276760
v 0.05719754 0.02975834 -0.03279870
v 0.05744114 0.02975834 -0.03282091
v 0.05870784 0.02975834 -0.03296528
v 0.06033506 0.02975834 -0.03366271
v 0.06092944 0.02975834 -0.03412693
v 0.06172843 0.02975834 -0.03512643
v 0.06184536 0.02975834 -0.03532189
v 0.06289769 0.02975834 -0.03711878
v 0.06320949 0.02975834 -0.03782732
v 0.06365771 0.02975834 -0.03919775
v 0.06377464 0.02975834 -0.03961532
v 0.06378438 0.02975834 -0.03998624
v 0.06338489 0.02975834 -0.04157657
v 0.06265409 0.02975834 -0.04189197
v 0.05995505 0.02975834 -0.04278041
v 0.05719754 0.02975834 -0.04306916
v -0.00055419 0.02975834 -0.04365998
v -0.00055419 0.02845998 -0.04464171
v -0.00636152 0.02975834 -0.04352005
v -0.00947955 0.02975834 -0.04341343
v -0.01706026 0.02975834 -0.04296699
v -0.01982751 0.02975834 -0.04240282
v -0.02208808 0.02975834 -0.04160766
v -0.02273118 0.02975834 -0.03989518
v -0.02264348 0.02975834 -0.03936655
v -0.02211732 0.02975834 -0.03745639
v -0.02199065 0.02975834 -0.03715432
v -0.02159115 0.02975834 -0.03649020
v -0.02118191 0.02975834 -0.03589050
v -0.01984699 0.02975834 -0.03450452
v -0.01935006 0.02975834 -0.03407140
v -0.01734283 0.02975834 -0.03274761
v -0.00029111 0.01833152 -0.02675281
v 0.00192074 0.01829276 -0.02675281
v 0.00494133 0.01536015 -0.02564891
v 0.01044660 0.01260196 -0.02571555
v 0.01319436 0.00985022 -0.02573776
v 0.02969069 -0.01490252 -0.03365827
v 0.01594213 0.00435320 -0.02573109
v 0.01594213 0.00159500 -0.02562670
v 0.01594213 -0.00114382 -0.02562448
v 0.01594213 -0.00389556 -0.02569333
v 0.01594213 -0.00664730 -0.02602872
v 0.01319436 -0.00939258 -0.02568001
v 0.01599084 -0.00926339 -0.02670617
v 0.02967120 -0.01750568 -0.03479105
v 0.03172715 -0.01490252 -0.03499317
v 0.03120098 -0.01648509 -0.03557066
v 0.03364668 -0.01325535 -0.03603487
v 0.03418259 -0.01408216 -0.03786730
v 0.03113277 -0.01912701 -0.03839148
v 0.05310513 0.01394553 -0.03847811
v 0.05858117 0.02222658 -0.03850698
v 0.05869810 0.02204572 -0.04136778
v 0.03121072 -0.01923037 -0.03989518
v 0.03118149 -0.01920453 -0.04136112
v 0.06264435 0.02927388 -0.04176314
v 0.05995505 0.02911239 -0.04270712
v 0.05719754 0.02361537 -0.04241393
v 0.02418541 -0.00939904 -0.04580336
v 0.02418541 -0.00664730 -0.04598771
v 0.01593239 -0.00389556 -0.04720045
v 0.01320411 -0.00389556 -0.04755582
v 0.01593239 -0.00115028 -0.04730484
v 0.01045634 -0.00115028 -0.04798228
v 0.01045634 0.00160146 -0.04795118
v 0.00769884 0.00160146 -0.04818218
v 0.00219357 0.00710494 -0.04822438
v 0.00219357 0.00985668 -0.04803559
v 0.00495108 0.01260842 -0.04760025
v 0.00219357 0.01260842 -0.04774018
v 0.00769884 0.02361537 -0.04599882
v 0.00219357 0.02636065 -0.04562345
v -0.00055419 0.02636065 -0.04565454
v -0.00330196 0.02636065 -0.04558125
v -0.00330196 0.02838893 -0.04455065
v -0.01155499 0.02361537 -0.04569897
v -0.01431250 0.02086363 -0.04593663
v -0.01706026 0.02086363 -0.04540134
v -0.00605947 0.02636065 -0.04534581
v -0.01980802 0.01811189 -0.04545687
v -0.02247783 0.02895736 -0.04169873
v -0.02407582 0.02793030 -0.04137000
v -0.02409531 0.02796906 -0.03989518
v -0.02401737 0.02785279 -0.03835150
v -0.02675538 0.02232993 -0.03567061
v -0.02420249 0.02535297 -0.03545294
v -0.02727181 0.02086363 -0.03507535
v -0.02531329 0.02086363 -0.03374934
v -0.02806106 0.01536015 -0.03336953
v -0.01431250 0.00985022 -0.02605094
v -0.01156473 0.01260196 -0.02597320
v -0.00605947 0.01536015 -0.02571555
v -0.00331170 0.01789227 -0.02656402
v 0.00219357 0.01536015 -0.02560893
v 0.00768909 0.01260196 -0.02560893
v 0.01319436 0.00710494 -0.02560893
v 0.02694292 -0.01765425 -0.03335398
v 0.02708908 -0.02050288 -0.03447564
v 0.01331129 -0.01226705 -0.02647961
v 0.01319436 -0.00664730 -0.02560893
v 0.01044660 -0.01215078 -0.02567334
v 0.02873579 -0.01965023 -0.03521972
v 0.02810244 -0.02148473 -0.03611261
v 0.03057737 -0.01831958 -0.03655905
v 0.03159073 -0.01750568 -0.03734311
v 0.02862860 -0.02218881 -0.03794282
v 0.02876502 -0.02239551 -0.03989518
v 0.03668676 -0.01095577 -0.04136112
v 0.03519595 -0.00939904 -0.04232509
v 0.02764448 -0.02377138 -0.03989518
v 0.02860912 -0.02219527 -0.04144996
v 0.02959325 -0.02023159 -0.04166986
v 0.02969069 -0.01765425 -0.04230065
v 0.02143765 -0.01490252 -0.04573673
v 0.02143765 -0.01215078 -0.04602769
v 0.01552314 -0.00939904 -0.04695168
v 0.01320411 -0.00664730 -0.04737147
v 0.01045634 -0.00389556 -0.04783124
v 0.00769884 -0.00115028 -0.04815553
v 0.00495108 0.00160146 -0.04827547
v 0.00219357 0.00435320 -0.04829768
v -0.00055419 0.00710494 -0.04819550
v -0.00055419 0.00985668 -0.04807779
v 0.00495108 0.02361537 -0.04605657
v -0.00055419 0.01260842 -0.04776461
v -0.00330196 0.02361537 -0.04606989
v -0.00605947 0.02361537 -0.04604102
v 0.00219357 0.02361537 -0.04607656
v -0.00880722 0.02361537 -0.04596106
v -0.01706026 0.01811189 -0.04602103
v -0.00605947 0.01536015 -0.04717379
v -0.00330196 0.01260842 -0.04769353
v -0.00605947 0.01260842 -0.04748475
v -0.01980802 0.01536015 -0.04599882
v -0.02256552 0.01260842 -0.04580780
v -0.02806106 0.02079904 -0.04177647
v -0.02256552 0.02636065 -0.04234285
v -0.02462148 0.02636065 -0.04158767
v -0.02965904 0.01984304 -0.04142553
v -0.02976623 0.01999806 -0.03989518
v -0.02646307 0.02469410 -0.03989518
v -0.02965904 0.01981074 -0.03802944
v -0.02711590 0.02282732 -0.03714543
v -0.02855799 0.02077966 -0.03712544
v -0.02922057 0.01914541 -0.03619701
v -0.02976623 0.01731092 -0.03523305
v -0.02820721 0.01817649 -0.03441567
v -0.03029239 0.01536015 -0.03471108
v -0.03081856 0.00985668 -0.03355166
v -0.01712846 0.00690469 -0.02673948
v -0.01707000 0.00435320 -0.02622196
v -0.01431250 0.00710494 -0.02565113
v -0.01156473 0.00985022 -0.02560893
v -0.00880722 0.01260196 -0.02560893
v -0.00331170 0.01536015 -0.02561115
v -0.00055419 0.01536015 -0.02560893
v 0.02418541 -0.02040599 -0.03322293
v 0.02441927 -0.02338381 -0.03433127
v 0.02627060 -0.02262159 -0.03505314
v 0.02143765 -0.02315127 -0.03316963
v 0.01047584 -0.01499941 -0.02657512
v 0.00768909 -0.01215078 -0.02560893
v 0.00494133 -0.01490252 -0.02561782
v 0.00768909 -0.01490252 -0.02580661
v 0.02549109 -0.02444963 -0.03587051
v 0.02707934 -0.02331922 -0.03690777
v 0.02605623 -0.02501160 -0.03770293
v 0.02627060 -0.02522477 -0.03989518
v 0.02601725 -0.02497285 -0.04148772
v 0.02693317 -0.02312543 -0.04178091
v 0.02694292 -0.02040599 -0.04250056
v 0.01868989 -0.01765425 -0.04576560
v 0.01501646 -0.01149837 -0.04685617
v 0.00495108 -0.01215078 -0.04762912
v 0.00219357 -0.00939904 -0.04800005
v -0.00055419 -0.00939904 -0.04811999
v -0.00880722 -0.00115028 -0.04808001
v -0.00880722 0.00160146 -0.04808667
v -0.00330196 0.00985668 -0.04792453
v -0.01572536 0.01129714 -0.04678065
v -0.01155499 0.00435320 -0.04769131
v -0.02256552 0.00985668 -0.04602103
v -0.02531329 0.00710494 -0.04568342
v -0.03244578 0.01465607 -0.04145663
v -0.03100370 0.01548934 -0.04188308
v -0.03017547 0.01811189 -0.04164098
v -0.03195859 0.01631616 -0.03989518
v -0.03090626 0.01811189 -0.03989518
v -0.03247501 0.01457856 -0.03780733
v -0.03021444 0.01817649 -0.03712544
v -0.03167602 0.01544413 -0.03699217
v -0.03208526 0.01370653 -0.03597712
v -0.03238732 0.01187204 -0.03538631
v -0.03270887 0.00985668 -0.03489099
v -0.03103292 0.01271823 -0.03448009
v -0.03081856 0.00710494 -0.03318518
v -0.03304990 0.00710494 -0.03452673
v -0.01707000 0.00159500 -0.02594210
v -0.01431250 0.00435320 -0.02560893
v 0.02158381 -0.02608387 -0.03441567
v 0.02365925 -0.02528290 -0.03498428
v 0.01868989 -0.02590301 -0.03333177
v 0.01593239 -0.02865475 -0.03360274
v 0.00219357 -0.01490252 -0.02560893
v -0.00055419 -0.01764779 -0.02628193
v 0.00219357 -0.01764779 -0.02637078
v 0.00473671 -0.01778990 -0.02673282
v 0.00768909 -0.01702768 -0.02676170
v 0.02259717 -0.02712385 -0.03601488
v 0.02325975 -0.02767937 -0.03784509
v 0.02483825 -0.02659418 -0.03989518
v 0.02324026 -0.02764707 -0.04146995
v 0.02416593 -0.02589655 -0.04179202
v 0.01593239 -0.02040599 -0.04579003
v 0.01320411 -0.02040599 -0.04604990
v 0.00955991 -0.01652384 -0.04681841
v 0.00495108 -0.01490252 -0.04730262
v 0.00219357 -0.01215078 -0.04779348
v -0.00055419 -0.01215078 -0.04782236
v -0.00330196 -0.01215078 -0.04777794
v -0.00330196 -0.00939904 -0.04799339
v -0.01155499 -0.00389556 -0.04774462
v -0.01155499 -0.00115028 -0.04786678
v -0.01155499 0.00160146 -0.04782902
v -0.01431250 0.00710494 -0.04722932
v -0.01431250 0.00435320 -0.04740257
v -0.02531329 0.00435320 -0.04586333
v -0.01730385 0.00452115 -0.04698278
v -0.02760310 0.00435320 -0.04487938
v -0.03356633 0.00435320 -0.04226956
v -0.03356633 0.00710494 -0.04205855
v -0.03496943 0.00859708 -0.04129893
v -0.03280631 0.01260842 -0.04164098
v -0.03259194 0.01494029 -0.03989518
v -0.03345914 0.01260842 -0.03989518
v -0.03491097 0.00832578 -0.03895787
v -0.03283554 0.01271823 -0.03699217
v -0.03381967 0.00985668 -0.03714543
v -0.03451147 0.00728580 -0.03722095
v -0.03466738 0.00435320 -0.03637692
v -0.03329350 0.00435320 -0.03445566
v -0.03342992 0.00160146 -0.03444233
v -0.03081856 0.00435320 -0.03311632
v -0.03480379 0.00160146 -0.03605930
v -0.01707000 -0.00114382 -0.02593544
v -0.01431250 -0.00389556 -0.02560893
v 0.01866066 -0.02870642 -0.03470220
v 0.02076532 -0.02782794 -0.03519307
v 0.01593239 -0.03073470 -0.03493764
v 0.01045634 -0.03140649 -0.03386040
v 0.01318462 -0.03154860 -0.03462668
v -0.00331170 -0.01490252 -0.02560893
v -0.00055419 -0.03140649 -0.03311188
v 0.00219357 -0.03140649 -0.03312298
v 0.00495108 -0.03140649 -0.03319184
v -0.00605947 -0.01490252 -0.02566002
v -0.00605947 -0.01733774 -0.02661510
v -0.00344811 -0.01789971 -0.02665286
v -0.00605947 -0.03140649 -0.03328735
v -0.00330196 -0.03140649 -0.03312521
v 0.00769884 -0.03140649 -0.03343394
v 0.02142791 -0.02866767 -0.03712544
v 0.01772525 -0.03028254 -0.03545294
v 0.01955709 -0.02966243 -0.03641024
v 0.02025864 -0.03015981 -0.03824044
v 0.02178843 -0.02922964 -0.03989518
v 0.02346437 -0.02785377 -0.03989518
v 0.02033660 -0.03021148 -0.04140110
v 0.02133047 -0.02860307 -0.04171872
v 0.01320411 -0.02315127 -0.04555682
v 0.01045634 -0.02315127 -0.04586999
v 0.01868989 -0.02865475 -0.04236062
v 0.00769884 -0.02315127 -0.04598549
v 0.00219357 -0.02590301 -0.04577671
v -0.00055419 -0.02590301 -0.04579892
v -0.00605947 -0.01215078 -0.04755804
v -0.00880722 -0.02315127 -0.04601215
v -0.01431250 -0.02040599 -0.04601436
v -0.01585202 -0.01103329 -0.04680287
v -0.01431250 -0.00389556 -0.04747142
v -0.01431250 -0.00115028 -0.04752251
v -0.01431250 0.00160146 -0.04749807
v -0.02531329 0.00160146 -0.04591442
v -0.02772002 0.00160146 -0.04497266
v -0.03356633 0.00160146 -0.04236729
v -0.03523252 0.00435320 -0.04151438
v -0.03507662 0.00710494 -0.04139444
v -0.03553458 0.00435320 -0.03989518
v -0.03496943 0.00859708 -0.04079029
v -0.03452122 0.00964997 -0.03988407
v -0.03512534 0.00728580 -0.03988407
v -0.03507662 0.00649129 -0.03818714
v -0.03524226 0.00435320 -0.03775180
v -0.03481353 -0.00115028 -0.03604376
v -0.03343966 -0.00115028 -0.03444233
v -0.03536893 0.00160146 -0.03743196
v -0.01707000 -0.00389556 -0.02618642
v -0.01431250 -0.00664730 -0.02562892
v -0.03081856 -0.00389556 -0.03311188
v -0.03081856 -0.00664730 -0.03317407
v -0.01156473 -0.00939258 -0.02560893
v 0.01225895 -0.03295676 -0.03554178
v 0.00769884 -0.03352520 -0.03477328
v 0.01045634 -0.03318931 -0.03519751
v -0.00880722 -0.01215078 -0.02560893
v -0.00055419 -0.03395152 -0.03445121
v 0.00219357 -0.03395152 -0.03446454
v 0.00495108 -0.03380295 -0.03453117
v -0.01156473 -0.01215078 -0.02581994
v -0.00880722 -0.01490252 -0.02605094
v -0.01431250 -0.02865475 -0.03334287
v -0.00880722 -0.03140649 -0.03366938
v -0.00605947 -0.03365439 -0.03462890
v -0.00330196 -0.03388047 -0.03446676
v 0.01866066 -0.03067657 -0.03725204
v 0.01407131 -0.03255627 -0.03623255
v 0.01591289 -0.03211057 -0.03714543
v 0.01498723 -0.03298260 -0.03806497
v 0.01666317 -0.03243355 -0.03989518
v 0.01868989 -0.03129022 -0.03989518
v 0.02041455 -0.03026316 -0.03989518
v 0.01509441 -0.03298906 -0.04142775
v 0.01868989 -0.03067011 -0.04160544
v 0.01598110 -0.03153568 -0.04183644
v 0.01320411 -0.03140649 -0.04240282
v 0.00769884 -0.02590301 -0.04532804
v 0.00495108 -0.02590301 -0.04567231
v 0.00219357 -0.03415823 -0.04230954
v -0.00055419 -0.03415823 -0.04232065
v -0.00330196 -0.02590301 -0.04573228
v -0.01706026 -0.01765425 -0.04606101
v -0.00605947 -0.02590301 -0.04555682
v -0.01155499 -0.02315127 -0.04581891
v -0.01706026 -0.02040599 -0.04560568
v -0.01980802 -0.01490252 -0.04603213
v -0.01622229 -0.00939904 -0.04687616
v -0.02256552 -0.01215078 -0.04581447
v -0.02531329 -0.00389556 -0.04587666
v -0.02531329 -0.00115028 -0.04591886
v -0.02772002 -0.00115028 -0.04496822
v -0.03356633 -0.00115028 -0.04237617
v -0.03532022 0.00160146 -0.04156546
v -0.03575869 0.00160146 -0.03989518
v -0.03537867 -0.00115028 -0.03741641
v -0.03527150 -0.00389556 -0.03766073
v -0.03469660 -0.00389556 -0.03628808
v -0.03309862 -0.00664730 -0.03451341
v -0.03332273 -0.00389556 -0.03445344
v -0.01718693 -0.00650519 -0.02669950
v -0.01431250 -0.00939258 -0.02592877
v -0.03081856 -0.00939904 -0.03344949
v 0.01318462 -0.03334433 -0.03714543
v 0.00769884 -0.03495921 -0.03725649
v 0.01045634 -0.03422282 -0.03714543
v 0.00495108 -0.03517882 -0.03656350
v -0.00055419 -0.03532739 -0.03620590
v 0.00219357 -0.03532739 -0.03624144
v -0.01980802 -0.02590301 -0.03361607
v -0.02531329 -0.02040599 -0.03360941
v -0.02256552 -0.02315127 -0.03350279
v -0.01431250 -0.03095432 -0.03468443
v -0.01722590 -0.02886145 -0.03438902
v -0.01172063 -0.03163903 -0.03449119
v -0.00880722 -0.03330558 -0.03500872
v -0.00620562 -0.03510777 -0.03718097
v -0.00330196 -0.03525634 -0.03643245
v 0.01045634 -0.03483647 -0.03989518
v 0.01320411 -0.03388693 -0.03989518
v 0.01527954 -0.03308595 -0.03989518
v 0.00709472 -0.03565683 -0.04138555
v 0.01320411 -0.03331203 -0.04160544
v 0.01045634 -0.03380942 -0.04177647
v 0.00788397 -0.03440369 -0.04184977
v 0.00495108 -0.03415823 -0.04220292
v 0.00495108 -0.03576663 -0.04147884
v 0.00219357 -0.03585707 -0.04153215
v -0.00055419 -0.03586353 -0.04153881
v -0.00330196 -0.03581186 -0.04150549
v -0.00330196 -0.03415823 -0.04225401
v -0.01980802 -0.01765425 -0.04561234
v -0.00605947 -0.03415823 -0.04206299
v -0.00858312 -0.03423574 -0.04171872
v -0.01155499 -0.03345415 -0.04166541
v -0.01155499 -0.03140649 -0.04251166
v -0.01431250 -0.03140649 -0.04209187
v -0.01678743 -0.03130314 -0.04160989
v -0.01986649 -0.02875810 -0.04184088
v -0.02201987 -0.02791191 -0.04154992
v -0.02278964 -0.02613555 -0.04194750
v -0.02482611 -0.02536041 -0.04157879
v -0.02280913 -0.01512214 -0.04509260
v -0.03073087 -0.01740233 -0.04162987
v -0.03081856 -0.01490252 -0.04212518
v -0.02531329 -0.00939904 -0.04529028
v -0.02531329 -0.00664730 -0.04570119
v -0.02762258 -0.00389556 -0.04489270
v -0.03356633 -0.00389556 -0.04229399
v -0.03525200 -0.00389556 -0.04152548
v -0.03532022 -0.00115028 -0.04156768
v -0.03575869 -0.00115028 -0.03989518
v -0.03558331 -0.00389556 -0.03989518
v -0.03510584 -0.00618222 -0.03808719
v -0.03456994 -0.00691860 -0.03715876
v -0.03277707 -0.00939904 -0.03479105
v -0.02806106 -0.01490252 -0.03329179
v -0.03041906 -0.01490252 -0.03463335
v 0.00677317 -0.03563745 -0.03824933
v 0.00495108 -0.03576018 -0.03793837
v -0.00055419 -0.03589583 -0.03758077
v 0.00219357 -0.03588291 -0.03761409
v -0.01980802 -0.02802818 -0.03494875
v -0.02241937 -0.02579966 -0.03487101
v -0.02829491 -0.01785450 -0.03433127
v -0.02744719 -0.02040599 -0.03494430
v -0.02520610 -0.02299624 -0.03488433
v -0.01274374 -0.03270484 -0.03591715
v -0.01091190 -0.03302782 -0.03541296
v -0.01641716 -0.03042465 -0.03520195
v -0.00880722 -0.03444244 -0.03714543
v -0.00539688 -0.03568913 -0.03812273
v -0.00330196 -0.03581186 -0.03780733
v 0.00861476 -0.03541783 -0.03989518
v 0.00724088 -0.03570850 -0.03989518
v 0.00495108 -0.03599918 -0.03989518
v 0.00219357 -0.03619942 -0.03989518
v -0.00055419 -0.03622526 -0.03989518
v -0.00330196 -0.03607670 -0.03989518
v -0.00605947 -0.03566328 -0.04138999
v -0.02557638 -0.02340965 -0.04194750
v -0.02732052 -0.02266035 -0.04154547
v -0.02816824 -0.02047059 -0.04185421
v -0.02975648 -0.01959856 -0.04147440
v -0.00751129 -0.03555348 -0.04128782
v -0.01431250 -0.03300844 -0.04142331
v -0.01568638 -0.03278236 -0.04127228
v -0.01897980 -0.03032775 -0.04146107
v -0.02239014 -0.02823488 -0.03989518
v -0.02376402 -0.02712385 -0.03989518
v -0.02520610 -0.02574798 -0.03989518
v -0.02658974 -0.02441087 -0.03989518
v -0.03221194 -0.01631714 -0.04129004
v -0.03244578 -0.01490252 -0.04144774
v -0.03292323 -0.01215078 -0.04168540
v -0.03369299 -0.00928277 -0.04176314
v -0.03499867 -0.00828155 -0.04132114
v -0.03356633 -0.00664730 -0.04210742
v -0.03510584 -0.00664730 -0.04141887
v -0.03499867 -0.00828155 -0.04037272
v -0.03517407 -0.00691860 -0.03963309
v -0.03494021 -0.00801025 -0.03854029
v -0.03398531 -0.00939904 -0.03714543
v -0.03246527 -0.01157588 -0.03526859
v -0.02987341 -0.01706644 -0.03513532
v -0.03214373 -0.01341683 -0.03585274
v -0.02140601 -0.02745974 -0.03551735
v -0.01824901 -0.02992727 -0.03597046
v -0.02422199 -0.02481136 -0.03540851
v -0.02935698 -0.01890093 -0.03591271
v -0.02686257 -0.02198210 -0.03553956
v -0.01449763 -0.03238187 -0.03695664
v -0.01369864 -0.03311179 -0.03774958
v -0.01172063 -0.03351874 -0.03695664
v -0.00722873 -0.03549534 -0.03918220
v -0.00620562 -0.03573434 -0.04001734
v -0.02902570 -0.02123281 -0.03989518
v -0.00751129 -0.03555348 -0.04101462
v -0.01155499 -0.03418406 -0.03989518
v -0.01568638 -0.03278236 -0.04123007
v -0.02060702 -0.02961075 -0.03989518
v -0.02193218 -0.02789899 -0.03714543
v -0.02330606 -0.02670399 -0.03714543
v -0.02475790 -0.02532812 -0.03714543
v -0.02613178 -0.02390057 -0.03714543
v -0.02730103 -0.02252470 -0.03714543
v -0.02978572 -0.01955980 -0.03774513
v -0.03221194 -0.01631714 -0.04095910
v -0.03371248 -0.01215078 -0.03989518
v -0.02993187 -0.01985694 -0.03989518
v -0.03465764 -0.00928277 -0.03963309
v -0.03254322 -0.01434700 -0.03768295
v -0.03298169 -0.01235748 -0.03692110
v -0.03184166 -0.01510922 -0.03692110
v -0.01983725 -0.02935883 -0.03698996
v -0.01722590 -0.03097370 -0.03698996
v -0.01894082 -0.03036005 -0.03780289
v -0.03042880 -0.01785450 -0.03695442
v -0.02878210 -0.02045121 -0.03695442
v -0.01554022 -0.03272422 -0.03939765
v -0.00858312 -0.03515945 -0.04001734
v -0.01449763 -0.03315701 -0.04014617
v -0.01922339 -0.03050216 -0.03989518
v -0.03214373 -0.01618149 -0.03912445
v -0.03146165 -0.01740233 -0.03998403
f 1 2 3
f 1 3 4
f 1 4 5
f 1 5 6
f 1 6 7
f 1 7 8
f 1 8 9
f 1 9 10
f 1 10 11
f 1 11 12
f 1 12 13
f 1 13 14
f 1 14 15
f 1 15 16
f 1 16 17
f 1 17 18
f 1 18 19
f 1 19 20
f 1 20 21
f 1 21 22
f 1 22 23
f 1 23 24
f 1 24 25
f 1 25 26
f 1 26 27
f 1 27 28
f 1 28 29
f 1 29 30
f 1 30 31
f 1 31 32
f 1 32 33
f 1 33 34
f 1 34 35
f 1 35 2
f 2 36 3
f 2 35 36
f 3 36 37
f 3 37 4
f 4 37 38
f 4 38 5
f 5 38 39
f 5 39 40
f 5 40 6
f 6 41 7
f 6 40 42
f 6 42 43
f 6 43 44
f 6 44 45
f 6 45 46
f 6 46 47
f 6 47 48
f 6 48 41
f 7 41 49
f 7 49 50
f 7 50 8
f 8 50 51
f 8 51 9
f 9 51 52
f 9 52 10
f 10 52 53
f 10 53 11
f 11 53 54
f 11 54 55
f 11 55 56
f 11 56 12
f 12 56 13
f 13 56 14
f 14 57 15
f 14 56 55
f 14 55 54
f 14 54 58
f 14 58 57
f 15 57 16
f 16 57 59
f 16 59 60
f 16 60 17
f 17 61 18
f 17 60 59
f 17 59 62
f 17 62 61
f 18 61 63
f 18 63 64
f 18 64 65
f 18 65 66
f 18 66 67
f 18 67 68
f 18 68 19
f 19 68 69
f 19 69 70
f 19 70 71
f 19 71 72
f 19 72 73
f 19 73 74
f 19 74 75
f 19 75 76
f 19 76 21
f 19 21 20
f 21 77 78
f 21 78 79
f 21 79 23
f 21 23 22
f 21 76 77
f 23 79 24
f 24 80 81
f 24 81 82
f 24 82 25
f 24 79 78
f 24 78 83
f 24 83 80
f 25 84 85
f 25 85 26
f 25 82 84
f 26 85 86
f 26 86 27
f 27 86 87
f 27 87 88
f 27 88 28
f 28 88 29
f 29 88 30
f 30 88 89
f 30 89 31
f 31 89 32
f 32 89 90
f 32 90 33
f 33 90 89
f 33 89 91
f 33 91 34
f 34 91 92
f 34 92 35
f 35 92 93
f 35 93 94
f 35 94 95
f 35 95 96
f 35 96 97
f 35 97 36
f 36 97 98
f 36 98 37
f 37 98 38
f 38 98 99
f 38 99 39
f 39 99 100
f 39 100 40
f 40 100 42
f 41 101 102
f 41 102 49
f 41 48 103
f 41 103 101
f 42 100 43
f 43 100 44
f 44 100 104
f 44 104 45
f 45 104 47
f 45 47 46
f 47 104 105
f 47 105 103
f 47 103 48
f 49 102 106
f 49 106 50
f 50 106 51
f 51 106 107
f 51 107 108
f 51 108 52
f 52 108 109
f 52 109 54
f 52 54 53
f 54 109 108
f 54 108 107
f 54 107 110
f 54 110 111
f 54 111 58
f 57 58 112
f 57 112 59
f 58 111 59
f 58 59 112
f 59 113 62
f 59 111 114
f 59 114 115
f 59 115 116
f 59 116 117
f 59 117 113
f 61 62 118
f 61 118 63
f 62 113 118
f 63 118 119
f 63 119 64
f 64 119 120
f 64 120 66
f 64 66 65
f 66 120 121
f 66 121 122
f 66 122 68
f 66 68 67
f 68 122 123
f 68 123 70
f 68 70 69
f 70 123 124
f 70 124 125
f 70 125 71
f 71 125 126
f 71 126 127
f 71 127 72
f 72 127 74
f 72 74 73
f 74 128 75
f 74 127 129
f 74 129 128
f 75 128 76
f 76 128 77
f 77 129 130
f 77 130 131
f 77 131 78
f 77 128 132
f 77 132 129
f 78 131 133
f 78 133 83
f 80 133 81
f 80 83 133
f 81 134 82
f 81 133 135
f 81 135 136
f 81 136 137
f 81 137 134
f 82 134 84
f 84 134 138
f 84 138 139
f 84 139 140
f 84 140 141
f 84 141 85
f 85 141 140
f 85 140 142
f 85 142 86
f 86 142 143
f 86 143 144
f 86 144 145
f 86 145 87
f 87 145 88
f 88 145 146
f 88 146 147
f 88 147 89
f 89 147 148
f 89 148 149
f 89 149 150
f 89 150 91
f 91 150 151
f 91 151 92
f 92 151 93
f 93 151 152
f 93 152 153
f 93 153 154
f 93 154 94
f 94 154 155
f 94 155 156
f 94 156 95
f 95 156 157
f 95 157 158
f 95 158 96
f 96 159 97
f 96 158 159
f 97 159 160
f 97 160 98
f 98 160 158
f 98 158 157
f 98 157 203
f 98 203 250
f 98 250 305
f 98 305 309
f 98 309 256
f 98 256 208
f 98 208 166
f 98 166 104
f 98 104 100
f 98 100 99
f 101 161 162
f 101 162 102
f 101 103 161
f 102 162 163
f 102 163 106
f 103 164 162
f 103 162 161
f 103 105 165
f 103 165 164
f 104 166 105
f 105 166 167
f 105 167 168
f 105 168 165
f 106 163 107
f 107 163 169
f 107 169 170
f 107 170 110
f 110 170 171
f 110 171 114
f 110 114 111
f 113 117 118
f 114 171 172
f 114 172 173
f 114 173 115
f 115 173 174
f 115 174 116
f 116 174 175
f 116 175 118
f 116 118 117
f 118 175 174
f 118 174 176
f 118 176 177
f 118 177 119
f 119 177 120
f 120 177 121
f 121 177 122
f 122 178 179
f 122 179 123
f 122 177 178
f 123 179 180
f 123 180 124
f 124 180 125
f 125 180 181
f 125 181 182
f 125 182 126
f 126 182 127
f 127 182 183
f 127 183 136
f 127 136 129
f 128 129 132
f 129 136 131
f 129 131 130
f 131 136 133
f 133 136 135
f 134 137 184
f 134 184 138
f 136 183 137
f 137 183 185
f 137 185 184
f 138 184 186
f 138 186 139
f 139 186 187
f 139 187 188
f 139 188 189
f 139 189 190
f 139 190 143
f 139 143 140
f 140 143 142
f 143 190 188
f 143 188 191
f 143 191 192
f 143 192 144
f 144 146 145
f 144 192 146
f 146 149 148
f 146 148 147
f 146 192 191
f 146 191 193
f 146 193 194
f 146 194 149
f 149 194 195
f 149 195 150
f 150 152 151
f 150 195 196
f 150 196 152
f 152 196 197
f 152 197 198
f 152 198 199
f 152 199 153
f 153 200 155
f 153 155 154
f 153 199 198
f 153 198 201
f 153 201 200
f 155 202 156
f 155 200 202
f 156 203 157
f 156 202 203
f 158 160 159
f 162 164 204
f 162 204 205
f 162 205 163
f 163 205 169
f 164 165 206
f 164 206 204
f 165 168 207
f 165 207 206
f 166 208 167
f 167 208 209
f 167 209 210
f 167 210 168
f 168 210 211
f 168 211 212
f 168 212 207
f 169 205 213
f 169 213 214
f 169 214 171
f 169 171 170
f 171 214 215
f 171 215 172
f 172 215 216
f 172 216 173
f 173 216 217
f 173 217 174
f 174 217 218
f 174 218 176
f 176 218 177
f 177 219 220
f 177 220 178
f 177 218 219
f 178 220 221
f 178 221 222
f 178 222 179
f 179 222 180
f 180 222 223
f 180 223 224
f 180 224 225
f 180 225 181
f 181 226 227
f 181 227 182
f 181 225 226
f 182 227 228
f 182 228 185
f 182 185 183
f 184 185 229
f 184 229 186
f 185 228 230
f 185 230 229
f 186 231 187
f 186 229 230
f 186 230 232
f 186 232 231
f 187 231 233
f 187 233 234
f 187 234 235
f 187 235 236
f 187 236 237
f 187 237 188
f 188 237 236
f 188 236 238
f 188 238 191
f 188 190 189
f 191 238 193
f 193 238 239
f 193 239 240
f 193 240 241
f 193 241 196
f 193 196 195
f 193 195 194
f 196 241 242
f 196 242 197
f 197 242 198
f 198 242 243
f 198 243 244
f 198 244 201
f 200 201 245
f 200 245 246
f 200 246 247
f 200 247 202
f 201 244 248
f 201 248 245
f 202 249 203
f 202 247 246
f 202 246 249
f 203 249 250
f 204 206 207
f 204 207 251
f 204 251 252
f 204 252 205
f 205 252 213
f 207 253 251
f 207 212 254
f 207 254 255
f 207 255 253
f 208 256 209
f 209 257 258
f 209 258 259
f 209 259 210
f 209 256 260
f 209 260 261
f 209 261 262
f 209 262 263
f 209 263 264
f 209 264 257
f 210 259 265
f 210 265 211
f 211 265 212
f 212 265 254
f 213 266 214
f 213 252 267
f 213 267 268
f 213 268 266
f 214 266 269
f 214 269 270
f 214 270 271
f 214 271 215
f 215 271 216
f 216 271 272
f 216 272 273
f 216 273 217
f 217 273 218
f 218 274 275
f 218 275 219
f 218 273 276
f 218 276 274
f 219 275 220
f 220 275 221
f 221 275 277
f 221 277 278
f 221 278 222
f 222 278 223
f 223 279 224
f 223 278 279
f 224 280 225
f 224 279 281
f 224 281 282
f 224 282 280
f 225 280 226
f 226 283 284
f 226 284 227
f 226 280 283
f 227 284 285
f 227 285 286
f 227 286 228
f 228 286 230
f 230 286 232
f 231 232 286
f 231 286 287
f 231 287 288
f 231 288 233
f 233 288 234
f 234 289 290
f 234 290 291
f 234 291 235
f 234 288 289
f 235 291 236
f 236 291 292
f 236 292 293
f 236 293 238
f 238 293 239
f 239 293 294
f 239 294 240
f 240 243 242
f 240 242 241
f 240 294 293
f 240 293 295
f 240 295 292
f 240 292 296
f 240 296 243
f 243 296 244
f 244 296 297
f 244 297 248
f 245 248 246
f 246 248 298
f 246 298 299
f 246 299 249
f 248 297 300
f 248 300 348
f 248 348 298
f 249 301 302
f 249 302 250
f 249 299 303
f 249 303 304
f 249 304 301
f 250 302 305
f 251 253 267
f 251 267 252
f 253 255 306
f 253 306 267
f 254 265 307
f 254 307 255
f 255 307 308
f 255 308 306
f 256 309 260
f 257 264 310
f 257 310 258
f 258 310 311
f 258 311 259
f 259 312 265
f 259 311 312
f 260 309 313
f 260 313 314
f 260 314 261
f 261 314 315
f 261 315 316
f 261 316 263
f 261 263 262
f 263 317 318
f 263 318 264
f 263 316 317
f 264 318 310
f 265 312 307
f 266 268 269
f 267 319 268
f 267 306 320
f 267 320 321
f 267 321 319
f 268 319 269
f 269 319 322
f 269 322 323
f 269 323 324
f 269 324 325
f 269 325 270
f 270 325 272
f 270 272 271
f 272 325 324
f 272 324 323
f 272 323 326
f 272 326 327
f 272 327 276
f 272 276 273
f 274 276 327
f 274 327 328
f 274 328 329
f 274 329 330
f 274 330 331
f 274 331 275
f 275 331 277
f 277 331 278
f 278 331 332
f 278 332 279
f 279 333 383
f 279 383 334
f 279 334 281
f 279 332 333
f 280 282 335
f 280 335 283
f 281 336 337
f 281 337 282
f 281 334 336
f 282 337 338
f 282 338 335
f 283 335 339
f 283 339 340
f 283 340 284
f 284 340 341
f 284 341 342
f 284 342 285
f 285 342 343
f 285 343 287
f 285 287 286
f 287 343 288
f 288 343 344
f 288 344 345
f 288 345 289
f 289 345 346
f 289 346 290
f 290 346 347
f 290 347 291
f 291 347 292
f 292 347 297
f 292 297 296
f 292 295 293
f 297 347 300
f 298 348 349
f 298 349 350
f 298 350 351
f 298 351 352
f 298 352 299
f 299 352 304
f 299 304 303
f 300 347 348
f 301 353 354
f 301 354 302
f 301 304 355
f 301 355 353
f 302 354 313
f 302 313 305
f 304 352 351
f 304 351 355
f 305 313 309
f 306 356 320
f 306 308 357
f 306 357 358
f 306 358 356
f 307 312 359
f 307 359 308
f 308 359 357
f 310 318 360
f 310 360 311
f 311 361 312
f 311 360 361
f 312 361 359
f 313 362 314
f 313 354 363
f 313 363 364
f 313 364 362
f 314 362 315
f 315 365 316
f 315 362 366
f 315 366 365
f 316 365 367
f 316 367 317
f 317 367 368
f 317 368 369
f 317 369 370
f 317 370 318
f 318 370 360
f 319 321 322
f 320 322 321
f 320 356 322
f 322 356 358
f 322 358 371
f 322 371 372
f 322 372 373
f 322 373 323
f 323 373 326
f 326 373 372
f 326 372 371
f 326 371 374
f 326 374 375
f 326 375 329
f 326 329 328
f 326 328 327
f 329 375 376
f 329 376 330
f 330 376 331
f 331 376 377
f 331 377 378
f 331 378 332
f 332 378 379
f 332 379 380
f 332 380 333
f 333 380 381
f 333 381 382
f 333 382 383
f 334 383 336
f 335 338 384
f 335 384 339
f 336 385 386
f 336 386 387
f 336 387 388
f 336 388 389
f 336 389 337
f 336 383 385
f 337 389 390
f 337 390 338
f 338 390 391
f 338 391 392
f 338 392 393
f 338 393 394
f 338 394 384
f 339 384 341
f 339 341 340
f 341 395 396
f 341 396 397
f 341 397 398
f 341 398 399
f 341 399 342
f 341 384 395
f 342 399 400
f 342 400 344
f 342 344 343
f 344 400 401
f 344 401 345
f 345 401 402
f 345 402 403
f 345 403 346
f 346 403 347
f 347 404 348
f 347 403 404
f 348 404 349
f 349 404 405
f 349 405 406
f 349 406 350
f 350 406 407
f 350 407 408
f 350 408 351
f 351 408 355
f 353 355 354
f 354 355 409
f 354 409 363
f 355 408 410
f 355 410 409
f 357 359 411
f 357 411 358
f 358 411 371
f 359 412 411
f 359 361 412
f 360 370 413
f 360 413 361
f 361 414 412
f 361 413 414
f 362 415 366
f 362 364 416
f 362 416 415
f 363 409 417
f 363 417 418
f 363 418 419
f 363 419 364
f 364 419 416
f 365 420 421
f 365 421 368
f 365 368 367
f 365 366 422
f 365 422 420
f 366 415 422
f 368 421 369
f 369 421 423
f 369 423 424
f 369 424 370
f 370 424 425
f 370 425 413
f 371 411 426
f 371 426 374
f 374 427 428
f 374 428 429
f 374 429 379
f 374 379 378
f 374 378 377
f 374 377 376
f 374 376 375
f 374 426 427
f 379 429 380
f 380 429 430
f 380 430 381
f 381 430 382
f 382 430 431
f 382 431 432
f 382 432 383
f 383 432 385
f 384 394 433
f 384 433 434
f 384 434 435
f 384 435 436
f 384 436 396
f 384 396 395
f 385 432 437
f 385 437 386
f 386 437 387
f 387 437 438
f 387 438 389
f 387 389 388
f 389 438 439
f 389 439 390
f 390 439 440
f 390 440 391
f 391 440 392
f 392 440 441
f 392 441 442
f 392 442 394
f 392 394 393
f 394 442 443
f 394 443 444
f 394 444 434
f 394 434 433
f 396 436 445
f 396 445 397
f 397 445 446
f 397 446 398
f 398 446 447
f 398 447 399
f 399 447 448
f 399 448 449
f 399 449 450
f 399 450 400
f 400 450 401
f 401 450 451
f 401 451 402
f 402 451 404
f 402 404 403
f 404 451 405
f 405 452 453
f 405 453 454
f 405 454 406
f 405 451 449
f 405 449 452
f 406 454 407
f 407 454 455
f 407 455 408
f 408 456 410
f 408 455 456
f 409 410 417
f 410 457 417
f 410 456 458
f 410 458 457
f 411 412 428
f 411 428 427
f 411 427 426
f 412 414 429
f 412 429 428
f 413 425 430
f 413 430 414
f 414 430 429
f 415 416 459
f 415 459 460
f 415 460 422
f 416 419 461
f 416 461 459
f 417 457 418
f 418 457 462
f 418 462 463
f 418 463 419
f 419 463 461
f 420 422 460
f 420 460 464
f 420 464 465
f 420 465 466
f 420 466 421
f 421 466 423
f 423 467 424
f 423 466 467
f 424 431 425
f 424 467 468
f 424 468 431
f 425 431 430
f 431 468 437
f 431 437 432
f 434 436 435
f 434 444 436
f 436 444 469
f 436 469 445
f 437 468 470
f 437 470 471
f 437 471 439
f 437 439 438
f 439 472 473
f 439 473 440
f 439 471 472
f 440 473 441
f 441 473 474
f 441 474 442
f 442 474 475
f 442 475 476
f 442 476 443
f 443 476 444
f 444 476 477
f 444 477 478
f 444 478 479
f 444 479 469
f 445 480 481
f 445 481 449
f 445 449 446
f 445 469 482
f 445 482 480
f 446 449 447
f 447 449 448
f 449 451 450
f 449 481 452
f 452 481 483
f 452 483 454
f 452 454 453
f 454 483 481
f 454 481 484
f 454 484 485
f 454 485 455
f 455 485 456
f 456 485 458
f 457 458 462
f 458 485 484
f 458 484 486
f 458 486 462
f 459 474 487
f 459 487 460
f 459 461 475
f 459 475 474
f 460 488 464
f 460 487 489
f 460 489 488
f 461 463 477
f 461 477 476
f 461 476 475
f 462 486 490
f 462 490 479
f 462 479 491
f 462 491 463
f 463 491 478
f 463 478 477
f 464 488 465
f 465 471 467
f 465 467 466
f 465 488 489
f 465 489 492
f 465 492 471
f 467 471 493
f 467 493 470
f 467 470 468
f 469 479 482
f 470 493 471
f 471 492 494
f 471 494 472
f 472 494 492
f 472 492 495
f 472 495 473
f 473 495 489
f 473 489 474
f 474 489 487
f 478 491 479
f 479 490 496
f 479 496 482
f 480 482 497
f 480 497 496
f 480 496 481
f 481 496 484
f 482 496 497
f 484 496 490
f 484 490 486
f 489 495 492

