# https://github.com/mikedh/trimesh
v 0.03356886 0.02065754 -0.00974107
v 0.02975662 0.02065754 -0.00974107
v 0.03407177 0.02064896 -0.00974107
v 0.03356886 0.02056038 -0.00991679
v 0.02975662 0.02056038 -0.00991679
v 0.02975662 0.01083614 -0.00974107
v 0.03439911 0.02050037 -0.00974107
v 0.03433280 0.02015461 -0.01059401
v 0.03407177 0.02016032 -0.01060684
v 0.03407177 0.01815432 -0.01414684
v 0.03356886 0.01507674 -0.01958383
v 0.02975662 0.01507674 -0.01958383
v 0.02975662 -0.00000255 -0.01463167
v 0.02992006 -0.00852948 -0.01189329
v 0.03356886 0.01098759 -0.00974107
v 0.03443413 0.02040321 -0.00974107
v 0.03442386 0.02040321 -0.00980520
v 0.03438697 0.01971740 -0.01122377
v 0.03438090 0.02022319 -0.01032851
v 0.03437576 0.01919447 -0.01219342
v 0.03435942 0.01866868 -0.01316180
v 0.03433934 0.01814575 -0.01412888
v 0.03407177 0.01614547 -0.01768300
v 0.03407177 0.01521105 -0.01932602
v 0.03407177 0.01486814 -0.01989550
v 0.03356886 0.01488528 -0.01989550
v 0.02975662 0.01488528 -0.01989550
v 0.02975662 -0.00000255 -0.02277624
v 0.02992006 -0.00852948 -0.02284422
v 0.03356886 -0.00852948 -0.01195358
v 0.03407177 0.01100759 -0.00974107
v 0.03452706 0.01989457 -0.00974107
v 0.03452706 0.01989457 -0.00982444
v 0.03448316 0.01989457 -0.01032851
v 0.03441639 0.01728277 -0.01536660
v 0.03441312 0.01928877 -0.01184071
v 0.03441872 0.01527963 -0.01888865
v 0.03438137 0.01517390 -0.01925804
v 0.03437950 0.01718276 -0.01572702
v 0.03436409 0.01665982 -0.01669282
v 0.03434354 0.01613403 -0.01766119
v 0.03435895 0.01464239 -0.02019691
v 0.03407177 0.01466240 -0.02022770
v 0.03356886 0.01467097 -0.02023283
v 0.02975662 0.01479384 -0.02004172
v 0.02975662 0.00003746 -0.02277624
v 0.03356886 -0.00852948 -0.02284422
v 0.02975662 0.00154910 -0.02276470
v 0.02992006 -0.00012828 -0.02277881
v 0.03407271 -0.00852948 -0.01196640
v 0.03443974 0.01132478 -0.00974107
v 0.03452706 0.01233921 -0.00974107
v 0.03452706 0.01788000 -0.01335034
v 0.03452612 0.01536250 -0.01788180
v 0.03452285 0.01939164 -0.01083129
v 0.03451538 0.01888585 -0.01184071
v 0.03450278 0.01838293 -0.01284756
v 0.03448737 0.01788000 -0.01385441
v 0.03449017 0.01586543 -0.01737774
v 0.03450278 0.01435378 -0.01989550
v 0.03444020 0.01488243 -0.01941324
v 0.03440191 0.01472526 -0.01989550
v 0.03442246 0.01435092 -0.02038033
v 0.03438464 0.01417947 -0.02075357
v 0.03407177 0.01422233 -0.02081257
v 0.03356886 0.01422805 -0.02081898
v 0.02975662 0.01467097 -0.02023283
v 0.03356886 -0.00000255 -0.02277753
v 0.03407177 0.00780999 -0.02270955
v 0.03407271 -0.00075408 -0.02277624
v 0.03407271 -0.00780652 -0.02282883
v 0.03407271 -0.00852948 -0.02283396
v 0.02975662 0.00529249 -0.02273520
v 0.03356886 0.00982457 -0.02269929
v 0.02975662 0.00982457 -0.02269929
v 0.03432860 -0.00852948 -0.01201771
v 0.03452099 0.01183628 -0.00974107
v 0.03436549 -0.00852948 -0.01203182
v 0.03451678 -0.00852948 -0.01262695
v 0.03452706 -0.00852948 -0.01284627
v 0.03452706 0.01586543 -0.01687367
v 0.03452706 0.01435378 -0.01939143
v 0.03452145 0.01385085 -0.02040085
v 0.03451865 0.01485671 -0.01888865
v 0.03450558 0.01636835 -0.01636960
v 0.03443880 0.01386228 -0.02091389
v 0.03438650 0.01370226 -0.02123839
v 0.03407177 0.01401373 -0.02106396
v 0.03356886 0.01401945 -0.02107037
v 0.02975662 0.01422805 -0.02081898
v 0.03407177 0.00982457 -0.02269287
v 0.03433934 0.00982457 -0.02267748
v 0.03438323 -0.00075408 -0.02271853
v 0.03439024 -0.00276866 -0.02272622
v 0.03440098 -0.00629487 -0.02273905
v 0.03440518 -0.00780652 -0.02274418
v 0.03440705 -0.00852948 -0.02274546
v 0.03435802 0.00579542 -0.02269287
v 0.03356886 0.01026748 -0.02268133
v 0.03407177 0.01023605 -0.02267876
v 0.02975662 0.01026748 -0.02268133
v 0.03441499 -0.00852948 -0.01215110
v 0.03446075 -0.00852948 -0.01233836
v 0.03452706 -0.00852948 -0.02191176
v 0.03452706 0.01334792 -0.02040085
v 0.03452285 0.01334792 -0.02090363
v 0.03450931 0.01284214 -0.02140770
v 0.03442946 0.01333649 -0.02140770
v 0.03436876 0.01316218 -0.02170911
v 0.03407177 0.01376227 -0.02128713
v 0.03356886 0.01377084 -0.02129483
v 0.02975662 0.01401945 -0.02107037
v 0.03433280 0.01016176 -0.02267363
v 0.03444020 0.00982457 -0.02241455
v 0.03434681 0.00831292 -0.02268261
v 0.03438183 -0.00025116 -0.02271596
v 0.03445655 0.00629835 -0.02241455
v 0.03446729 0.00378085 -0.02241455
v 0.03447756 0.00126335 -0.02241455
v 0.03449951 -0.00528616 -0.02241455
v 0.03448130 0.00025463 -0.02241455
v 0.03448223 -0.00000255 -0.02241455
v 0.03448970 -0.00226573 -0.02241455
v 0.03450791 -0.00852948 -0.02241455
v 0.03450744 -0.00830945 -0.02241455
v 0.03435148 0.00730421 -0.02268646
v 0.03356886 0.01051609 -0.02266209
v 0.03407177 0.01048466 -0.02265311
v 0.02975662 0.01051609 -0.02266209
v 0.03452706 0.00608403 -0.02191176
v 0.03452706 0.01233921 -0.02140770
v 0.03451118 0.01183628 -0.02191048
v 0.03440798 0.01284214 -0.02179376
v 0.03407177 0.01319647 -0.02173861
v 0.03437203 0.01219919 -0.02220933
v 0.03407177 0.01251638 -0.02211955
v 0.03407177 0.01284214 -0.02194639
v 0.03356886 0.01345365 -0.02154622
v 0.02975662 0.01334792 -0.02163216
v 0.02975662 0.01377084 -0.02129483
v 0.03407177 0.01133335 -0.02251459
v 0.03440985 0.01183628 -0.02226705
v 0.03442479 0.01133335 -0.02232092
v 0.03440985 0.01032749 -0.02245559
v 0.03452706 0.01133335 -0.02191048
v 0.02975662 0.01069326 -0.02263900
v 0.03356886 0.01082757 -0.02262105
v 0.03356886 0.01133335 -0.02254922
v 0.03356886 0.01320219 -0.02174246
v 0.03356886 0.01284214 -0.02196563
v 0.03407177 0.01183628 -0.02239531
v 0.03407177 0.01226491 -0.02223626
v 0.03356886 0.01252495 -0.02213494
v 0.02975662 0.01320219 -0.02174246
v 0.02975662 0.01082757 -0.02262105
v 0.02975662 0.01111618 -0.02258129
v 0.02975662 0.01133335 -0.02254922
v 0.03356886 0.01183628 -0.02241583
v 0.02975662 0.01284214 -0.02196563
v 0.03356886 0.01227348 -0.02224139
v 0.02975662 0.01252495 -0.02213494
v 0.02975662 0.01183628 -0.02241583
v 0.02975662 0.01227348 -0.02224139
f 1 2 6
f 1 6 15
f 1 15 31
f 1 31 51
f 1 51 77
f 1 77 52
f 1 52 32
f 1 32 16
f 1 16 7
f 1 7 3
f 1 3 4
f 1 4 5
f 1 5 2
f 2 5 12
f 2 12 27
f 2 27 45
f 2 45 67
f 2 67 90
f 2 90 112
f 2 112 140
f 2 140 139
f 2 139 154
f 2 154 159
f 2 159 161
f 2 161 163
f 2 163 162
f 2 162 157
f 2 157 156
f 2 156 155
f 2 155 146
f 2 146 129
f 2 129 101
f 2 101 75
f 2 75 73
f 2 73 48
f 2 48 46
f 2 46 28
f 2 28 13
f 2 13 6
f 3 7 8
f 3 8 9
f 3 9 4
f 4 9 10
f 4 10 11
f 4 11 12
f 4 12 5
f 6 13 14
f 6 14 15
f 7 16 17
f 7 17 18
f 7 18 19
f 7 19 8
f 8 19 18
f 8 18 20
f 8 20 21
f 8 21 22
f 8 22 23
f 8 23 10
f 8 10 9
f 10 23 11
f 11 23 24
f 11 24 25
f 11 25 26
f 11 26 27
f 11 27 12
f 13 28 29
f 13 29 14
f 14 29 47
f 14 47 72
f 14 72 97
f 14 97 124
f 14 124 104
f 14 104 80
f 14 80 79
f 14 79 103
f 14 103 102
f 14 102 78
f 14 78 76
f 14 76 50
f 14 50 30
f 14 30 31
f 14 31 15
f 16 32 33
f 16 33 34
f 16 34 35
f 16 35 17
f 17 35 36
f 17 36 18
f 18 36 35
f 18 35 37
f 18 37 38
f 18 38 39
f 18 39 20
f 20 39 40
f 20 40 21
f 21 40 22
f 22 40 41
f 22 41 24
f 22 24 23
f 24 41 42
f 24 42 25
f 25 43 26
f 25 42 43
f 26 43 44
f 26 44 45
f 26 45 27
f 28 46 29
f 29 46 48
f 29 48 49
f 29 49 47
f 30 50 31
f 31 50 51
f 32 52 80
f 32 80 104
f 32 104 130
f 32 130 145
f 32 145 131
f 32 131 105
f 32 105 82
f 32 82 81
f 32 81 53
f 32 53 33
f 33 53 54
f 33 54 55
f 33 55 34
f 34 55 56
f 34 56 57
f 34 57 58
f 34 58 37
f 34 37 35
f 37 59 60
f 37 60 61
f 37 61 62
f 37 62 38
f 37 58 59
f 38 41 40
f 38 40 39
f 38 62 42
f 38 42 41
f 42 63 64
f 42 64 65
f 42 65 43
f 42 62 63
f 43 65 44
f 44 65 66
f 44 66 90
f 44 90 67
f 44 67 45
f 47 49 68
f 47 68 69
f 47 69 70
f 47 70 71
f 47 71 72
f 48 73 49
f 49 74 68
f 49 73 75
f 49 75 74
f 50 76 51
f 51 76 78
f 51 78 77
f 52 77 79
f 52 79 80
f 53 81 54
f 54 81 82
f 54 82 83
f 54 83 84
f 54 84 56
f 54 56 55
f 56 84 85
f 56 85 57
f 57 85 59
f 57 59 58
f 59 85 84
f 59 84 60
f 60 83 86
f 60 86 63
f 60 63 61
f 60 84 83
f 61 63 62
f 63 86 64
f 64 86 87
f 64 87 88
f 64 88 65
f 65 88 89
f 65 89 66
f 66 89 112
f 66 112 90
f 68 74 69
f 69 74 91
f 69 91 92
f 69 92 70
f 70 92 71
f 71 92 72
f 72 93 94
f 72 94 95
f 72 95 96
f 72 96 97
f 72 92 98
f 72 98 93
f 74 75 101
f 74 101 99
f 74 99 100
f 74 100 91
f 77 78 102
f 77 102 103
f 77 103 79
f 82 105 106
f 82 106 83
f 83 106 86
f 86 106 107
f 86 107 108
f 86 108 87
f 87 108 109
f 87 109 110
f 87 110 88
f 88 110 111
f 88 111 89
f 89 111 140
f 89 140 112
f 91 100 113
f 91 113 92
f 92 113 114
f 92 114 115
f 92 115 98
f 93 116 94
f 93 98 116
f 94 116 114
f 94 114 117
f 94 117 95
f 95 117 118
f 95 118 119
f 95 119 96
f 96 120 97
f 96 119 121
f 96 121 122
f 96 122 123
f 96 123 120
f 97 120 125
f 97 125 124
f 98 115 126
f 98 126 114
f 98 114 116
f 99 101 129
f 99 129 127
f 99 127 100
f 100 127 128
f 100 128 113
f 104 124 130
f 105 131 106
f 106 131 107
f 107 131 132
f 107 132 133
f 107 133 108
f 108 133 109
f 109 134 110
f 109 133 135
f 109 135 136
f 109 136 137
f 109 137 134
f 110 134 111
f 111 134 138
f 111 138 139
f 111 139 140
f 113 128 141
f 113 141 135
f 113 135 142
f 113 142 143
f 113 143 144
f 113 144 114
f 114 126 115
f 114 144 143
f 114 143 145
f 114 145 117
f 117 145 118
f 118 145 119
f 119 145 121
f 120 123 145
f 120 145 125
f 121 145 122
f 122 145 123
f 124 125 145
f 124 145 130
f 127 129 146
f 127 146 147
f 127 147 128
f 128 147 148
f 128 148 141
f 131 145 132
f 132 145 143
f 132 143 142
f 132 142 133
f 133 142 135
f 134 149 138
f 134 137 150
f 134 150 149
f 135 141 151
f 135 151 152
f 135 152 136
f 136 152 153
f 136 153 137
f 137 153 150
f 138 149 139
f 139 149 154
f 141 148 151
f 146 155 147
f 147 155 156
f 147 156 148
f 148 157 162
f 148 162 158
f 148 158 151
f 148 156 157
f 149 150 159
f 149 159 154
f 150 153 161
f 150 161 159
f 151 158 152
f 152 160 153
f 152 158 160
f 153 160 163
f 153 163 161
f 158 162 163
f 158 163 160

