mtllib material.mtl
usemtl black
v 0.02925000 0.01491800 -0.00156800
v 0.02925000 0.01491800 -0.00156800
v 0.02925000 0.01491800 -0.00156800
v 0.02925000 0.01491800 0.00156800
v 0.02925000 0.01491800 0.00156800
v 0.02925000 0.01491800 0.00156800
v 0.02925000 0.00000000 -0.01500000
v 0.02925000 0.00000000 -0.01500000
v 0.02925000 0.00000000 -0.01500000
v 0.02925000 -0.01426600 0.00463500
v 0.02925000 -0.01426600 0.00463500
v 0.02925000 -0.01426600 0.00463500
v 0.02925000 -0.01491800 0.00156800
v 0.02925000 -0.01491800 0.00156800
v 0.02925000 -0.01491800 0.00156800
v 0.02925000 0.01114700 0.01003700
v 0.02925000 0.01114700 0.01003700
v 0.02925000 0.01114700 0.01003700
v 0.02925000 -0.01491800 -0.00156800
v 0.02925000 -0.01491800 -0.00156800
v 0.02925000 -0.01491800 -0.00156800
v 0.02925000 -0.01426600 -0.00463500
v 0.02925000 -0.01426600 -0.00463500
v 0.02925000 -0.01426600 -0.00463500
v 0.02925000 -0.01299000 -0.00750000
v 0.02925000 -0.01299000 -0.00750000
v 0.02925000 -0.01299000 -0.00750000
v 0.02925000 -0.01114700 -0.01003700
v 0.02925000 -0.01114700 -0.01003700
v 0.02925000 -0.01114700 -0.01003700
v 0.02925000 0.01299100 0.00750000
v 0.02925000 0.01299100 0.00750000
v 0.02925000 0.01299100 0.00750000
v 0.02925000 -0.00881700 -0.01213500
v 0.02925000 -0.00881700 -0.01213500
v 0.02925000 -0.00881700 -0.01213500
v 0.02925000 -0.00610100 -0.01370300
v 0.02925000 -0.00610100 -0.01370300
v 0.02925000 -0.00610100 -0.01370300
v 0.02925000 -0.00311900 -0.01467200
v 0.02925000 -0.00311900 -0.01467200
v 0.02925000 -0.00311900 -0.01467200
v 0.02925000 0.01426600 0.00463500
v 0.02925000 0.01426600 0.00463500
v 0.02925000 0.01426600 0.00463500
v 0.02925000 0.00311900 -0.01467200
v 0.02925000 0.00311900 -0.01467200
v 0.02925000 0.00311900 -0.01467200
v 0.02925000 0.00610100 -0.01370300
v 0.02925000 0.00610100 -0.01370300
v 0.02925000 0.00610100 -0.01370300
v 0.02925000 0.01299100 -0.00750000
v 0.02925000 0.01299100 -0.00750000
v 0.02925000 0.01299100 -0.00750000
v 0.02925000 0.00881700 -0.01213500
v 0.02925000 0.00881700 -0.01213500
v 0.02925000 0.00881700 -0.01213500
v 0.02925000 0.01114700 -0.01003700
v 0.02925000 0.01114700 -0.01003700
v 0.02925000 0.01114700 -0.01003700
v 0.02925000 0.01426600 -0.00463500
v 0.02925000 0.01426600 -0.00463500
v 0.02925000 0.01426600 -0.00463500
v 0.02925000 -0.01299000 0.00750000
v 0.02925000 -0.01299000 0.00750000
v 0.02925000 -0.01299000 0.00750000
v 0.02925000 0.00881700 0.01213500
v 0.02925000 0.00881700 0.01213500
v 0.02925000 0.00881700 0.01213500
v 0.02925000 0.00610100 0.01370300
v 0.02925000 0.00610100 0.01370300
v 0.02925000 0.00610100 0.01370300
v 0.02925000 0.00311900 0.01467200
v 0.02925000 0.00311900 0.01467200
v 0.02925000 0.00311900 0.01467200
v 0.02925000 0.00000000 0.01500000
v 0.02925000 0.00000000 0.01500000
v 0.02925000 0.00000000 0.01500000
v 0.02925000 -0.00311900 0.01467200
v 0.02925000 -0.00311900 0.01467200
v 0.02925000 -0.00311900 0.01467200
v 0.02925000 -0.00610100 0.01370300
v 0.02925000 -0.00610100 0.01370300
v 0.02925000 -0.00610100 0.01370300
v 0.02925000 -0.00881700 0.01213500
v 0.02925000 -0.00881700 0.01213500
v 0.02925000 -0.00881700 0.01213500
v 0.02925000 -0.01114700 0.01003700
v 0.02925000 -0.01114700 0.01003700
v 0.02925000 -0.01114700 0.01003700
v 0.03425000 -0.01299000 -0.00750000
v 0.03425000 -0.01299000 -0.00750000
v 0.03425000 -0.01299000 -0.00750000
v 0.03425000 -0.01114700 -0.01003700
v 0.03425000 -0.01114700 -0.01003700
v 0.03425000 -0.01114700 -0.01003700
v 0.03425000 -0.00881700 -0.01213500
v 0.03425000 -0.00881700 -0.01213500
v 0.03425000 -0.00881700 -0.01213500
v 0.03425000 -0.00610100 -0.01370300
v 0.03425000 -0.00610100 -0.01370300
v 0.03425000 -0.00610100 -0.01370300
v 0.03425000 -0.00311900 -0.01467200
v 0.03425000 -0.00311900 -0.01467200
v 0.03425000 -0.00311900 -0.01467200
v 0.03425000 0.00000000 -0.01500000
v 0.03425000 0.00000000 -0.01500000
v 0.03425000 0.00000000 -0.01500000
v 0.03425000 0.00311900 -0.01467200
v 0.03425000 0.00311900 -0.01467200
v 0.03425000 0.00311900 -0.01467200
v 0.03425000 0.00610100 -0.01370300
v 0.03425000 0.00610100 -0.01370300
v 0.03425000 0.00610100 -0.01370300
v 0.03425000 0.00881700 -0.01213500
v 0.03425000 0.00881700 -0.01213500
v 0.03425000 0.00881700 -0.01213500
v 0.03425000 0.01114700 -0.01003700
v 0.03425000 0.01114700 -0.01003700
v 0.03425000 0.01114700 -0.01003700
v 0.03425000 0.01299100 -0.00750000
v 0.03425000 0.01299100 -0.00750000
v 0.03425000 0.01299100 -0.00750000
v 0.03425000 0.01426600 -0.00463500
v 0.03425000 0.01426600 -0.00463500
v 0.03425000 0.01426600 -0.00463500
v 0.03425000 0.01491800 -0.00156800
v 0.03425000 0.01491800 -0.00156800
v 0.03425000 0.01491800 -0.00156800
v 0.03425000 0.01491800 0.00156800
v 0.03425000 0.01491800 0.00156800
v 0.03425000 0.01491800 0.00156800
v 0.03425000 0.01426600 0.00463500
v 0.03425000 0.01426600 0.00463500
v 0.03425000 0.01426600 0.00463500
v 0.03425000 0.01299100 0.00750000
v 0.03425000 0.01299100 0.00750000
v 0.03425000 0.01299100 0.00750000
v 0.03425000 0.01114700 0.01003700
v 0.03425000 0.01114700 0.01003700
v 0.03425000 0.01114700 0.01003700
v 0.03425000 0.00881700 0.01213500
v 0.03425000 0.00881700 0.01213500
v 0.03425000 0.00881700 0.01213500
v 0.03425000 0.00610100 0.01370300
v 0.03425000 0.00610100 0.01370300
v 0.03425000 0.00610100 0.01370300
v 0.03425000 0.00311900 0.01467200
v 0.03425000 0.00311900 0.01467200
v 0.03425000 0.00311900 0.01467200
v 0.03425000 0.00000000 0.01500000
v 0.03425000 0.00000000 0.01500000
v 0.03425000 0.00000000 0.01500000
v 0.03425000 -0.00311900 0.01467200
v 0.03425000 -0.00311900 0.01467200
v 0.03425000 -0.00311900 0.01467200
v 0.03425000 -0.00610100 0.01370300
v 0.03425000 -0.00610100 0.01370300
v 0.03425000 -0.00610100 0.01370300
v 0.03425000 -0.00881700 0.01213500
v 0.03425000 -0.00881700 0.01213500
v 0.03425000 -0.00881700 0.01213500
v 0.03425000 -0.01114700 0.01003700
v 0.03425000 -0.01114700 0.01003700
v 0.03425000 -0.01114700 0.01003700
v 0.03425000 -0.01299000 0.00750000
v 0.03425000 -0.01299000 0.00750000
v 0.03425000 -0.01299000 0.00750000
v 0.03425000 -0.01426600 0.00463500
v 0.03425000 -0.01426600 0.00463500
v 0.03425000 -0.01426600 0.00463500
v 0.03425000 -0.01491800 0.00156800
v 0.03425000 -0.01491800 0.00156800
v 0.03425000 -0.01491800 0.00156800
v 0.03425000 -0.01491800 -0.00156800
v 0.03425000 -0.01491800 -0.00156800
v 0.03425000 -0.01491800 -0.00156800
v 0.03425000 -0.01426600 -0.00463500
v 0.03425000 -0.01426600 -0.00463500
v 0.03425000 -0.01426600 -0.00463500
v 0.03425000 0.02451700 0.00269100
v 0.03425000 0.02451700 0.00269100
v 0.03425000 0.02451700 0.00269100
v 0.03425000 -0.02451700 -0.00269100
v 0.03425000 -0.02451700 -0.00269100
v 0.03425000 -0.02451700 -0.00269100
v 0.03425000 -0.01427800 -0.02011200
v 0.03425000 -0.01427800 -0.02011200
v 0.03425000 -0.01427800 -0.02011200
v 0.03425000 -0.01332700 -0.02128100
v 0.03425000 -0.01332700 -0.02128100
v 0.03425000 -0.01332700 -0.02128100
v 0.03425000 -0.00992800 -0.02257800
v 0.03425000 -0.00992800 -0.02257800
v 0.03425000 -0.00992800 -0.02257800
v 0.03425000 0.01027900 -0.02242100
v 0.03425000 0.01027900 -0.02242100
v 0.03425000 0.01027900 -0.02242100
v 0.03425000 0.01157100 -0.02223900
v 0.03425000 0.01157100 -0.02223900
v 0.03425000 0.01157100 -0.02223900
v 0.03425000 -0.01062100 -0.02253500
v 0.03425000 -0.01062100 -0.02253500
v 0.03425000 -0.01062100 -0.02253500
v 0.03425000 -0.01207100 -0.02211400
v 0.03425000 -0.01207100 -0.02211400
v 0.03425000 -0.01207100 -0.02211400
v 0.03425000 0.02482700 0.00206900
v 0.03425000 0.02482700 0.00206900
v 0.03425000 0.02482700 0.00206900
v 0.03425000 0.02518700 0.00060300
v 0.03425000 0.02518700 0.00060300
v 0.03425000 0.02518700 0.00060300
v 0.03425000 0.01458900 -0.01988700
v 0.03425000 0.01458900 -0.01988700
v 0.03425000 0.01458900 -0.01988700
v 0.03425000 0.01380200 -0.02092800
v 0.03425000 0.01380200 -0.02092800
v 0.03425000 0.01380200 -0.02092800
v 0.03425000 0.01277300 -0.02173100
v 0.03425000 0.01277300 -0.02173100
v 0.03425000 0.01277300 -0.02173100
v 0.03425000 0.02455600 -0.00230900
v 0.03425000 0.02455600 -0.00230900
v 0.03425000 0.02455600 -0.00230900
v 0.03425000 0.02509300 -0.00090100
v 0.03425000 0.02509300 -0.00090100
v 0.03425000 0.02509300 -0.00090100
v 0.03425000 -0.01277300 0.02173100
v 0.03425000 -0.01277300 0.02173100
v 0.03425000 -0.01277300 0.02173100
v 0.03425000 -0.01380200 0.02092800
v 0.03425000 -0.01380200 0.02092800
v 0.03425000 -0.01380200 0.02092800
v 0.03425000 -0.01458900 0.01988700
v 0.03425000 -0.01458900 0.01988700
v 0.03425000 -0.01458900 0.01988700
v 0.03425000 0.00992800 0.02257800
v 0.03425000 0.00992800 0.02257800
v 0.03425000 0.00992800 0.02257800
v 0.03425000 -0.01027800 0.02242100
v 0.03425000 -0.01027800 0.02242100
v 0.03425000 -0.01027800 0.02242100
v 0.03425000 -0.01157100 0.02223900
v 0.03425000 -0.01157100 0.02223900
v 0.03425000 -0.01157100 0.02223900
v 0.03425000 0.01332700 0.02128100
v 0.03425000 0.01332700 0.02128100
v 0.03425000 0.01332700 0.02128100
v 0.03425000 0.01427800 0.02011200
v 0.03425000 0.01427800 0.02011200
v 0.03425000 0.01427800 0.02011200
v 0.03425000 0.01062200 0.02253500
v 0.03425000 0.01062200 0.02253500
v 0.03425000 0.01062200 0.02253500
v 0.03425000 0.01207100 0.02211400
v 0.03425000 0.01207100 0.02211400
v 0.03425000 0.01207100 0.02211400
v 0.03425000 -0.02509300 0.00090100
v 0.03425000 -0.02509300 0.00090100
v 0.03425000 -0.02509300 0.00090100
v 0.03425000 -0.02455600 0.00230900
v 0.03425000 -0.02455600 0.00230900
v 0.03425000 -0.02455600 0.00230900
v 0.03425000 -0.02482700 -0.00206900
v 0.03425000 -0.02482700 -0.00206900
v 0.03425000 -0.02482700 -0.00206900
v 0.03425000 -0.02518700 -0.00060300
v 0.03425000 -0.02518700 -0.00060300
v 0.03425000 -0.02518700 -0.00060300
v 0.02625000 0.02455600 -0.00230900
v 0.02625000 0.02455600 -0.00230900
v 0.02625000 0.02455600 -0.00230900
v 0.02625000 0.01458900 -0.01988700
v 0.02625000 0.01458900 -0.01988700
v 0.02625000 0.01458900 -0.01988700
v 0.02625000 0.02509300 -0.00090100
v 0.02625000 0.02509300 -0.00090100
v 0.02625000 0.02509300 -0.00090100
v 0.02625000 0.02518700 0.00060300
v 0.02625000 0.02518700 0.00060300
v 0.02625000 0.02518700 0.00060300
v 0.02625000 0.02482700 0.00206900
v 0.02625000 0.02482700 0.00206900
v 0.02625000 0.02482700 0.00206900
v 0.02625000 0.02451700 0.00269100
v 0.02625000 0.02451700 0.00269100
v 0.02625000 0.02451700 0.00269100
v 0.02625000 0.01427800 0.02011200
v 0.02625000 0.01427800 0.02011200
v 0.02625000 0.01427800 0.02011200
v 0.02625000 0.01332700 0.02128100
v 0.02625000 0.01332700 0.02128100
v 0.02625000 0.01332700 0.02128100
v 0.02625000 0.01207100 0.02211400
v 0.02625000 0.01207100 0.02211400
v 0.02625000 0.01207100 0.02211400
v 0.02625000 0.01062200 0.02253500
v 0.02625000 0.01062200 0.02253500
v 0.02625000 0.01062200 0.02253500
v 0.02625000 0.00992800 0.02257800
v 0.02625000 0.00992800 0.02257800
v 0.02625000 0.00992800 0.02257800
v 0.02625000 -0.01027800 0.02242100
v 0.02625000 -0.01027800 0.02242100
v 0.02625000 -0.01027800 0.02242100
v 0.02625000 -0.01157100 0.02223900
v 0.02625000 -0.01157100 0.02223900
v 0.02625000 -0.01157100 0.02223900
v 0.02625000 -0.01277300 0.02173100
v 0.02625000 -0.01277300 0.02173100
v 0.02625000 -0.01277300 0.02173100
v 0.02625000 -0.01380200 0.02092800
v 0.02625000 -0.01380200 0.02092800
v 0.02625000 -0.01380200 0.02092800
v 0.02625000 -0.01458900 0.01988700
v 0.02625000 -0.01458900 0.01988700
v 0.02625000 -0.01458900 0.01988700
v 0.02625000 -0.02455600 0.00230900
v 0.02625000 -0.02455600 0.00230900
v 0.02625000 -0.02455600 0.00230900
v 0.02625000 -0.02509300 0.00090100
v 0.02625000 -0.02509300 0.00090100
v 0.02625000 -0.02509300 0.00090100
v 0.02625000 -0.02518700 -0.00060300
v 0.02625000 -0.02518700 -0.00060300
v 0.02625000 -0.02518700 -0.00060300
v 0.02625000 -0.02482700 -0.00206900
v 0.02625000 -0.02482700 -0.00206900
v 0.02625000 -0.02482700 -0.00206900
v 0.02625000 -0.02451700 -0.00269100
v 0.02625000 -0.02451700 -0.00269100
v 0.02625000 -0.02451700 -0.00269100
v 0.02625000 -0.01427800 -0.02011200
v 0.02625000 -0.01427800 -0.02011200
v 0.02625000 -0.01427800 -0.02011200
v 0.02625000 -0.01332700 -0.02128100
v 0.02625000 -0.01332700 -0.02128100
v 0.02625000 -0.01332700 -0.02128100
v 0.02625000 -0.01207100 -0.02211400
v 0.02625000 -0.01207100 -0.02211400
v 0.02625000 -0.01207100 -0.02211400
v 0.02625000 -0.01062100 -0.02253500
v 0.02625000 -0.01062100 -0.02253500
v 0.02625000 -0.01062100 -0.02253500
v 0.02625000 -0.00992800 -0.02257800
v 0.02625000 -0.00992800 -0.02257800
v 0.02625000 -0.00992800 -0.02257800
v 0.02625000 0.01027900 -0.02242100
v 0.02625000 0.01027900 -0.02242100
v 0.02625000 0.01027900 -0.02242100
v 0.02625000 0.01157100 -0.02223900
v 0.02625000 0.01157100 -0.02223900
v 0.02625000 0.01157100 -0.02223900
v 0.02625000 0.01277300 -0.02173100
v 0.02625000 0.01277300 -0.02173100
v 0.02625000 0.01277300 -0.02173100
v 0.02625000 0.01380200 -0.02092800
v 0.02625000 0.01380200 -0.02092800
v 0.02625000 0.01380200 -0.02092800
v 0.02625000 -0.00141900 -0.00736400
v 0.02625000 -0.00141900 -0.00736400
v 0.02625000 -0.00141900 -0.00736400
v 0.02625000 -0.00343700 -0.00666600
v 0.02625000 -0.00343700 -0.00666600
v 0.02625000 -0.00343700 -0.00666600
v 0.02625000 0.00071300 -0.00746600
v 0.02625000 0.00071300 -0.00746600
v 0.02625000 0.00071300 -0.00746600
v 0.02625000 0.00278800 -0.00696300
v 0.02625000 0.00278800 -0.00696300
v 0.02625000 0.00278800 -0.00696300
v 0.02625000 0.00463600 -0.00589500
v 0.02625000 0.00463600 -0.00589500
v 0.02625000 0.00463600 -0.00589500
v 0.02625000 0.00142000 0.00736500
v 0.02625000 0.00142000 0.00736500
v 0.02625000 0.00142000 0.00736500
v 0.02625000 0.00343700 0.00666600
v 0.02625000 0.00343700 0.00666600
v 0.02625000 0.00343700 0.00666600
v 0.02625000 -0.00649500 -0.00375000
v 0.02625000 -0.00649500 -0.00375000
v 0.02625000 -0.00649500 -0.00375000
v 0.02625000 -0.00517500 -0.00542800
v 0.02625000 -0.00517500 -0.00542800
v 0.02625000 -0.00517500 -0.00542800
v 0.02625000 0.00749200 -0.00035700
v 0.02625000 0.00749200 -0.00035700
v 0.02625000 0.00749200 -0.00035700
v 0.02625000 0.00708800 -0.00245300
v 0.02625000 0.00708800 -0.00245300
v 0.02625000 0.00708800 -0.00245300
v 0.02625000 0.00610900 -0.00435000
v 0.02625000 0.00610900 -0.00435000
v 0.02625000 0.00610900 -0.00435000
v 0.02625000 0.00517600 0.00542800
v 0.02625000 0.00517600 0.00542800
v 0.02625000 0.00517600 0.00542800
v 0.02625000 0.00649500 0.00375000
v 0.02625000 0.00649500 0.00375000
v 0.02625000 0.00649500 0.00375000
v 0.02625000 0.00728900 0.00176800
v 0.02625000 0.00728900 0.00176800
v 0.02625000 0.00728900 0.00176800
v 0.02625000 -0.00071300 0.00746600
v 0.02625000 -0.00071300 0.00746600
v 0.02625000 -0.00071300 0.00746600
v 0.02625000 -0.00278700 0.00696300
v 0.02625000 -0.00278700 0.00696300
v 0.02625000 -0.00278700 0.00696300
v 0.02625000 -0.00463600 0.00589500
v 0.02625000 -0.00463600 0.00589500
v 0.02625000 -0.00463600 0.00589500
v 0.02625000 -0.00749100 0.00035700
v 0.02625000 -0.00749100 0.00035700
v 0.02625000 -0.00749100 0.00035700
v 0.02625000 -0.00728800 -0.00176800
v 0.02625000 -0.00728800 -0.00176800
v 0.02625000 -0.00728800 -0.00176800
v 0.02625000 -0.00708700 0.00245300
v 0.02625000 -0.00708700 0.00245300
v 0.02625000 -0.00708700 0.00245300
v 0.02625000 -0.00610900 0.00435000
v 0.02625000 -0.00610900 0.00435000
v 0.02625000 -0.00610900 0.00435000
v 0.01425000 0.00649500 0.00375000
v 0.01425000 0.00649500 0.00375000
v 0.01425000 0.00649500 0.00375000
v 0.01425000 0.00728900 0.00176800
v 0.01425000 0.00728900 0.00176800
v 0.01425000 0.00728900 0.00176800
v 0.01425000 0.00749200 -0.00035700
v 0.01425000 0.00749200 -0.00035700
v 0.01425000 0.00749200 -0.00035700
v 0.01425000 0.00708800 -0.00245300
v 0.01425000 0.00708800 -0.00245300
v 0.01425000 0.00708800 -0.00245300
v 0.01425000 0.00610900 -0.00435000
v 0.01425000 0.00610900 -0.00435000
v 0.01425000 0.00610900 -0.00435000
v 0.01425000 0.00463600 -0.00589500
v 0.01425000 0.00463600 -0.00589500
v 0.01425000 0.00463600 -0.00589500
v 0.01425000 0.00278800 -0.00696300
v 0.01425000 0.00278800 -0.00696300
v 0.01425000 0.00278800 -0.00696300
v 0.01425000 0.00071300 -0.00746600
v 0.01425000 0.00071300 -0.00746600
v 0.01425000 0.00071300 -0.00746600
v 0.01425000 -0.00141900 -0.00736400
v 0.01425000 -0.00141900 -0.00736400
v 0.01425000 -0.00141900 -0.00736400
v 0.01425000 -0.00343700 -0.00666600
v 0.01425000 -0.00343700 -0.00666600
v 0.01425000 -0.00343700 -0.00666600
v 0.01425000 -0.00517600 -0.00542800
v 0.01425000 -0.00517600 -0.00542800
v 0.01425000 -0.00517600 -0.00542800
v 0.01425000 -0.00649500 -0.00375000
v 0.01425000 -0.00649500 -0.00375000
v 0.01425000 -0.00649500 -0.00375000
v 0.01425000 -0.00728900 -0.00176800
v 0.01425000 -0.00728900 -0.00176800
v 0.01425000 -0.00728900 -0.00176800
v 0.01425000 -0.00749100 0.00035700
v 0.01425000 -0.00749100 0.00035700
v 0.01425000 -0.00749100 0.00035700
v 0.01425000 -0.00708700 0.00245300
v 0.01425000 -0.00708700 0.00245300
v 0.01425000 -0.00708700 0.00245300
v 0.01425000 -0.00610900 0.00435000
v 0.01425000 -0.00610900 0.00435000
v 0.01425000 -0.00610900 0.00435000
v 0.01425000 -0.00463600 0.00589500
v 0.01425000 -0.00463600 0.00589500
v 0.01425000 -0.00463600 0.00589500
v 0.01425000 -0.00278700 0.00696300
v 0.01425000 -0.00278700 0.00696300
v 0.01425000 -0.00278700 0.00696300
v 0.01425000 -0.00071300 0.00746600
v 0.01425000 -0.00071300 0.00746600
v 0.01425000 -0.00071300 0.00746600
v 0.01425000 0.00141900 0.00736400
v 0.01425000 0.00141900 0.00736400
v 0.01425000 0.00141900 0.00736400
v 0.01425000 0.00343700 0.00666600
v 0.01425000 0.00343700 0.00666600
v 0.01425000 0.00343700 0.00666600
v 0.01425000 0.00517600 0.00542800
v 0.01425000 0.00517600 0.00542800
v 0.01425000 0.00517600 0.00542800
vn 1.00000000 -0.00000000 -0.00000000
vn -0.00000000 -0.97810000 0.20790000
vn -0.00000000 -1.00000000 -0.00000000
vn 1.00000000 -0.00000000 -0.00000000
vn -0.00000000 -0.97810000 -0.20790000
vn -0.00000000 -1.00000000 -0.00000000
vn 1.00000000 -0.00000000 -0.00000000
vn -0.00000000 -0.10450000 0.99450000
vn -0.00000000 0.10450000 0.99450000
vn -0.00000000 0.91350000 -0.40670000
vn -0.00000000 0.97810000 -0.20790000
vn 1.00000000 -0.00000000 -0.00000000
vn 1.00000000 -0.00000000 -0.00000000
vn -0.00000000 1.00000000 -0.00000000
vn -0.00000000 0.97810000 -0.20790000
vn 1.00000000 -0.00000000 -0.00000000
vn -0.00000000 -0.66910000 -0.74310000
vn -0.00000000 -0.80900000 -0.58780000
vn -0.00000000 1.00000000 -0.00000000
vn -0.00000000 0.97810000 0.20790000
vn 1.00000000 -0.00000000 -0.00000000
vn -0.00000000 0.97810000 0.20790000
vn 1.00000000 -0.00000000 -0.00000000
vn -0.00000000 0.91350000 0.40670000
vn -0.00000000 0.80900000 0.58780000
vn 1.00000000 -0.00000000 -0.00000000
vn -0.00000000 0.91350000 0.40670000
vn -0.00000000 0.80900000 0.58780000
vn -0.00000000 0.66910000 0.74310000
vn 1.00000000 -0.00000000 -0.00000000
vn 1.00000000 -0.00000000 -0.00000000
vn -0.00000000 -0.91350000 -0.40670000
vn -0.00000000 -0.80900000 -0.58780000
vn -0.00000000 0.50000000 0.86600000
vn -0.00000000 0.66910000 0.74310000
vn 1.00000000 -0.00000000 -0.00000000
vn -0.00000000 0.50000000 0.86600000
vn 1.00000000 -0.00000000 -0.00000000
vn -0.00000000 0.30900000 0.95110000
vn -0.00000000 0.10450000 0.99450000
vn -0.00000000 0.30900000 0.95110000
vn 1.00000000 -0.00000000 -0.00000000
vn -0.00000000 -0.91350000 -0.40670000
vn 1.00000000 -0.00000000 -0.00000000
vn -0.00000000 -0.97810000 -0.20790000
vn 1.00000000 -0.00000000 -0.00000000
vn -0.00000000 -0.10450000 0.99450000
vn -0.00000000 -0.30900000 0.95110000
vn 1.00000000 -0.00000000 -0.00000000
vn -0.00000000 -0.50000000 0.86600000
vn -0.00000000 -0.30900000 0.95110000
vn 1.00000000 -0.00000000 -0.00000000
vn -0.00000000 -0.80900000 0.58780000
vn -0.00000000 -0.91350000 0.40670000
vn -0.00000000 -0.50000000 0.86600000
vn -0.00000000 -0.66910000 0.74310000
vn 1.00000000 -0.00000000 -0.00000000
vn 1.00000000 -0.00000000 -0.00000000
vn -0.00000000 -0.80900000 0.58780000
vn -0.00000000 -0.66910000 0.74310000
vn 1.00000000 -0.00000000 -0.00000000
vn -0.00000000 -0.97810000 0.20790000
vn -0.00000000 -0.91350000 0.40670000
vn -0.00000000 0.91350000 -0.40670000
vn -0.00000000 0.80900000 -0.58780000
vn 1.00000000 -0.00000000 -0.00000000
vn 1.00000000 -0.00000000 -0.00000000
vn -0.00000000 -0.50000000 -0.86600000
vn -0.00000000 -0.66910000 -0.74310000
vn -0.00000000 -0.30900000 -0.95110000
vn -0.00000000 -0.50000000 -0.86600000
vn 1.00000000 -0.00000000 -0.00000000
vn -0.00000000 -0.30900000 -0.95110000
vn -0.00000000 -0.10450000 -0.99450000
vn 1.00000000 -0.00000000 -0.00000000
vn -0.00000000 0.10450000 -0.99450000
vn -0.00000000 -0.10450000 -0.99450000
vn 1.00000000 -0.00000000 -0.00000000
vn 1.00000000 -0.00000000 -0.00000000
vn -0.00000000 0.30900000 -0.95110000
vn -0.00000000 0.10450000 -0.99450000
vn -0.00000000 0.50000000 -0.86600000
vn -0.00000000 0.30900000 -0.95110000
vn 1.00000000 -0.00000000 -0.00000000
vn 1.00000000 -0.00000000 -0.00000000
vn -0.00000000 0.66910000 -0.74310000
vn -0.00000000 0.50000000 -0.86600000
vn 1.00000000 -0.00000000 -0.00000000
vn -0.00000000 0.66910000 -0.74310000
vn -0.00000000 0.80900000 -0.58780000
vn -0.00000000 0.91350000 0.40670000
vn 1.00000000 -0.00000000 -0.00000000
vn -0.00000000 0.80900000 0.58780000
vn 1.00000000 -0.00000000 -0.00000000
vn -0.00000000 0.66910000 0.74310000
vn -0.00000000 0.80900000 0.58780000
vn -0.00000000 0.50000000 0.86600000
vn -0.00000000 0.66910000 0.74310000
vn 1.00000000 -0.00000000 -0.00000000
vn -0.00000000 0.30900000 0.95110000
vn 1.00000000 -0.00000000 -0.00000000
vn -0.00000000 0.50000000 0.86600000
vn -0.00000000 0.30900000 0.95110000
vn -0.00000000 0.10450000 0.99450000
vn 1.00000000 -0.00000000 -0.00000000
vn 1.00000000 -0.00000000 -0.00000000
vn -0.00000000 0.10450000 0.99450000
vn -0.00000000 -0.10450000 0.99450000
vn -0.00000000 -0.30900000 0.95110000
vn -0.00000000 -0.10450000 0.99450000
vn 1.00000000 -0.00000000 -0.00000000
vn -0.00000000 -0.30900000 0.95110000
vn 1.00000000 -0.00000000 -0.00000000
vn -0.00000000 -0.50000000 0.86600000
vn -0.00000000 -0.66910000 0.74310000
vn 1.00000000 -0.00000000 -0.00000000
vn -0.00000000 -0.50000000 0.86600000
vn 1.00000000 -0.00000000 -0.00000000
vn -0.00000000 -0.80900000 0.58780000
vn -0.00000000 -0.66910000 0.74310000
vn -0.00000000 -0.80900000 0.58780000
vn -0.00000000 -0.91350000 0.40670000
vn 1.00000000 -0.00000000 -0.00000000
vn -0.00000000 -0.97810000 0.20790000
vn 1.00000000 -0.00000000 -0.00000000
vn -0.00000000 -0.91350000 0.40670000
vn -0.00000000 -0.97810000 0.20790000
vn -0.00000000 -1.00000000 -0.00000000
vn 1.00000000 -0.00000000 -0.00000000
vn -0.00000000 -1.00000000 -0.00000000
vn -0.00000000 -0.97810000 -0.20790000
vn 1.00000000 -0.00000000 -0.00000000
vn -0.00000000 -0.97810000 -0.20790000
vn 1.00000000 -0.00000000 -0.00000000
vn -0.00000000 -0.91350000 -0.40670000
vn 1.00000000 -0.00000000 -0.00000000
vn -0.00000000 -0.91350000 -0.40670000
vn -0.00000000 -0.80900000 -0.58780000
vn -0.00000000 -0.66910000 -0.74310000
vn 1.00000000 -0.00000000 -0.00000000
vn -0.00000000 -0.80900000 -0.58780000
vn -0.00000000 -0.50000000 -0.86600000
vn 1.00000000 -0.00000000 -0.00000000
vn -0.00000000 -0.66910000 -0.74310000
vn -0.00000000 -0.50000000 -0.86600000
vn 1.00000000 -0.00000000 -0.00000000
vn -0.00000000 -0.30900000 -0.95110000
vn 1.00000000 -0.00000000 -0.00000000
vn -0.00000000 -0.10450000 -0.99450000
vn -0.00000000 -0.30900000 -0.95110000
vn -0.00000000 -0.10450000 -0.99450000
vn -0.00000000 0.10450000 -0.99450000
vn 1.00000000 -0.00000000 -0.00000000
vn -0.00000000 0.10450000 -0.99450000
vn 1.00000000 -0.00000000 -0.00000000
vn -0.00000000 0.30900000 -0.95110000
vn -0.00000000 0.50000000 -0.86600000
vn 1.00000000 -0.00000000 -0.00000000
vn -0.00000000 0.30900000 -0.95110000
vn -0.00000000 0.66910000 -0.74310000
vn -0.00000000 0.50000000 -0.86600000
vn 1.00000000 -0.00000000 -0.00000000
vn -0.00000000 0.80900000 -0.58780000
vn -0.00000000 0.66910000 -0.74310000
vn 1.00000000 -0.00000000 -0.00000000
vn -0.00000000 0.91350000 -0.40670000
vn -0.00000000 0.80900000 -0.58780000
vn 1.00000000 -0.00000000 -0.00000000
vn 1.00000000 -0.00000000 -0.00000000
vn -0.00000000 0.97810000 -0.20790000
vn -0.00000000 0.91350000 -0.40670000
vn 1.00000000 -0.00000000 -0.00000000
vn -0.00000000 0.97810000 -0.20790000
vn -0.00000000 1.00000000 -0.00000000
vn -0.00000000 0.97810000 0.20790000
vn 1.00000000 -0.00000000 -0.00000000
vn -0.00000000 1.00000000 -0.00000000
vn -0.00000000 0.97810000 0.20790000
vn 1.00000000 -0.00000000 -0.00000000
vn -0.00000000 0.91350000 0.40670000
vn 1.00000000 -0.00000000 -0.00000000
vn -0.00000000 0.89530000 0.44550000
vn -0.00000000 0.86210000 0.50670000
vn 1.00000000 -0.00000000 -0.00000000
vn -0.00000000 -0.89530000 -0.44550000
vn -0.00000000 -0.86210000 -0.50670000
vn -0.00000000 -0.77590000 -0.63090000
vn 1.00000000 -0.00000000 -0.00000000
vn -0.00000000 -0.86210000 -0.50670000
vn -0.00000000 -0.55280000 -0.83330000
vn -0.00000000 -0.77590000 -0.63090000
vn 1.00000000 -0.00000000 -0.00000000
vn -0.00000000 0.00780000 -1.00000000
vn -0.00000000 -0.06180000 -0.99810000
vn 1.00000000 -0.00000000 -0.00000000
vn -0.00000000 0.00780000 -1.00000000
vn -0.00000000 0.13900000 -0.99030000
vn 1.00000000 -0.00000000 -0.00000000
vn -0.00000000 0.13900000 -0.99030000
vn -0.00000000 0.38920000 -0.92120000
vn 1.00000000 -0.00000000 -0.00000000
vn 1.00000000 -0.00000000 -0.00000000
vn -0.00000000 -0.27900000 -0.96030000
vn -0.00000000 -0.06180000 -0.99810000
vn -0.00000000 -0.55280000 -0.83330000
vn -0.00000000 -0.27900000 -0.96030000
vn 1.00000000 -0.00000000 -0.00000000
vn -0.00000000 0.89530000 0.44550000
vn -0.00000000 0.97110000 0.23850000
vn 1.00000000 -0.00000000 -0.00000000
vn 1.00000000 -0.00000000 -0.00000000
vn -0.00000000 0.97110000 0.23850000
vn -0.00000000 0.99810000 -0.06200000
vn -0.00000000 0.86990000 -0.49320000
vn -0.00000000 0.79760000 -0.60320000
vn 1.00000000 -0.00000000 -0.00000000
vn -0.00000000 0.61550000 -0.78810000
vn -0.00000000 0.79760000 -0.60320000
vn 1.00000000 -0.00000000 -0.00000000
vn 1.00000000 -0.00000000 -0.00000000
vn -0.00000000 0.38920000 -0.92120000
vn -0.00000000 0.61550000 -0.78810000
vn -0.00000000 0.86990000 -0.49320000
vn -0.00000000 0.93430000 -0.35650000
vn 1.00000000 -0.00000000 -0.00000000
vn -0.00000000 0.99810000 -0.06200000
vn -0.00000000 0.93430000 -0.35650000
vn 1.00000000 -0.00000000 -0.00000000
vn 1.00000000 -0.00000000 -0.00000000
vn -0.00000000 -0.61550000 0.78810000
vn -0.00000000 -0.38920000 0.92120000
vn -0.00000000 -0.61550000 0.78810000
vn -0.00000000 -0.79760000 0.60320000
vn 1.00000000 -0.00000000 -0.00000000
vn 1.00000000 -0.00000000 -0.00000000
vn -0.00000000 -0.86990000 0.49320000
vn -0.00000000 -0.79760000 0.60320000
vn -0.00000000 -0.00780000 1.00000000
vn -0.00000000 0.06180000 0.99810000
vn 1.00000000 -0.00000000 -0.00000000
vn -0.00000000 -0.13900000 0.99030000
vn -0.00000000 -0.00780000 1.00000000
vn 1.00000000 -0.00000000 -0.00000000
vn 1.00000000 -0.00000000 -0.00000000
vn -0.00000000 -0.38920000 0.92120000
vn -0.00000000 -0.13900000 0.99030000
vn -0.00000000 0.55270000 0.83340000
vn -0.00000000 0.77590000 0.63090000
vn 1.00000000 -0.00000000 -0.00000000
vn -0.00000000 0.86210000 0.50670000
vn -0.00000000 0.77590000 0.63090000
vn 1.00000000 -0.00000000 -0.00000000
vn -0.00000000 0.27900000 0.96030000
vn -0.00000000 0.06180000 0.99810000
vn 1.00000000 -0.00000000 -0.00000000
vn 1.00000000 -0.00000000 -0.00000000
vn -0.00000000 0.27900000 0.96030000
vn -0.00000000 0.55270000 0.83340000
vn 1.00000000 -0.00000000 -0.00000000
vn -0.00000000 -0.93430000 0.35650000
vn -0.00000000 -0.99810000 0.06200000
vn -0.00000000 -0.93430000 0.35650000
vn -0.00000000 -0.86990000 0.49320000
vn 1.00000000 -0.00000000 -0.00000000
vn -0.00000000 -0.89530000 -0.44550000
vn -0.00000000 -0.97110000 -0.23850000
vn 1.00000000 -0.00000000 -0.00000000
vn 1.00000000 -0.00000000 -0.00000000
vn -0.00000000 -0.99810000 0.06200000
vn -0.00000000 -0.97110000 -0.23850000
vn -1.00000000 -0.00000000 -0.00000000
vn -0.00000000 0.93430000 -0.35650000
vn -0.00000000 0.86990000 -0.49320000
vn -0.00000000 0.79760000 -0.60320000
vn -0.00000000 0.86990000 -0.49320000
vn -1.00000000 -0.00000000 -0.00000000
vn -1.00000000 -0.00000000 -0.00000000
vn -0.00000000 0.99810000 -0.06200000
vn -0.00000000 0.93430000 -0.35650000
vn -0.00000000 0.97110000 0.23850000
vn -0.00000000 0.99810000 -0.06200000
vn -1.00000000 -0.00000000 -0.00000000
vn -1.00000000 -0.00000000 -0.00000000
vn -0.00000000 0.89530000 0.44550000
vn -0.00000000 0.97110000 0.23850000
vn -0.00000000 0.89530000 0.44550000
vn -0.00000000 0.86210000 0.50670000
vn -1.00000000 -0.00000000 -0.00000000
vn -1.00000000 -0.00000000 -0.00000000
vn -0.00000000 0.77590000 0.63090000
vn -0.00000000 0.86210000 0.50670000
vn -0.00000000 0.55270000 0.83340000
vn -1.00000000 -0.00000000 -0.00000000
vn -0.00000000 0.77590000 0.63090000
vn -1.00000000 -0.00000000 -0.00000000
vn -0.00000000 0.27900000 0.96030000
vn -0.00000000 0.55270000 0.83340000
vn -0.00000000 0.27900000 0.96030000
vn -0.00000000 0.06180000 0.99810000
vn -1.00000000 -0.00000000 -0.00000000
vn -0.00000000 -0.00780000 1.00000000
vn -1.00000000 -0.00000000 -0.00000000
vn -0.00000000 0.06180000 0.99810000
vn -0.00000000 -0.13900000 0.99030000
vn -0.00000000 -0.00780000 1.00000000
vn -1.00000000 -0.00000000 -0.00000000
vn -1.00000000 -0.00000000 -0.00000000
vn -0.00000000 -0.13900000 0.99030000
vn -0.00000000 -0.38920000 0.92120000
vn -0.00000000 -0.61550000 0.78810000
vn -0.00000000 -0.38920000 0.92120000
vn -1.00000000 -0.00000000 -0.00000000
vn -1.00000000 -0.00000000 -0.00000000
vn -0.00000000 -0.61550000 0.78810000
vn -0.00000000 -0.79760000 0.60320000
vn -0.00000000 -0.86990000 0.49320000
vn -0.00000000 -0.79760000 0.60320000
vn -1.00000000 -0.00000000 -0.00000000
vn -0.00000000 -0.93430000 0.35650000
vn -0.00000000 -0.86990000 0.49320000
vn -1.00000000 -0.00000000 -0.00000000
vn -1.00000000 -0.00000000 -0.00000000
vn -0.00000000 -0.93430000 0.35650000
vn -0.00000000 -0.99810000 0.06200000
vn -0.00000000 -0.99810000 0.06200000
vn -0.00000000 -0.97110000 -0.23850000
vn -1.00000000 -0.00000000 -0.00000000
vn -1.00000000 -0.00000000 -0.00000000
vn -0.00000000 -0.97110000 -0.23850000
vn -0.00000000 -0.89530000 -0.44550000
vn -0.00000000 -0.86210000 -0.50670000
vn -0.00000000 -0.89530000 -0.44550000
vn -1.00000000 -0.00000000 -0.00000000
vn -1.00000000 -0.00000000 -0.00000000
vn -0.00000000 -0.86210000 -0.50670000
vn -0.00000000 -0.77590000 -0.63090000
vn -0.00000000 -0.77590000 -0.63090000
vn -0.00000000 -0.55280000 -0.83330000
vn -1.00000000 -0.00000000 -0.00000000
vn -1.00000000 -0.00000000 -0.00000000
vn -0.00000000 -0.27900000 -0.96030000
vn -0.00000000 -0.55280000 -0.83330000
vn -0.00000000 -0.27900000 -0.96030000
vn -1.00000000 -0.00000000 -0.00000000
vn -0.00000000 -0.06180000 -0.99810000
vn -0.00000000 -0.06180000 -0.99810000
vn -0.00000000 0.00780000 -1.00000000
vn -1.00000000 -0.00000000 -0.00000000
vn -0.00000000 0.13900000 -0.99030000
vn -1.00000000 -0.00000000 -0.00000000
vn -0.00000000 0.00780000 -1.00000000
vn -1.00000000 -0.00000000 -0.00000000
vn -0.00000000 0.38920000 -0.92120000
vn -0.00000000 0.13900000 -0.99030000
vn -0.00000000 0.38920000 -0.92120000
vn -0.00000000 0.61550000 -0.78810000
vn -1.00000000 -0.00000000 -0.00000000
vn -1.00000000 -0.00000000 -0.00000000
vn -0.00000000 0.61550000 -0.78810000
vn -0.00000000 0.79760000 -0.60320000
vn -0.00000000 -0.32710000 -0.94500000
vn -1.00000000 -0.00000000 -0.00000000
vn -0.00000000 -0.04760000 -0.99890000
vn -0.00000000 -0.32710000 -0.94500000
vn -0.00000000 -0.58010000 -0.81460000
vn -1.00000000 -0.00000000 -0.00000000
vn -1.00000000 -0.00000000 -0.00000000
vn -0.00000000 0.23580000 -0.97180000
vn -0.00000000 -0.04760000 -0.99890000
vn -0.00000000 0.50000000 -0.86600000
vn -1.00000000 -0.00000000 -0.00000000
vn -0.00000000 0.23580000 -0.97180000
vn -1.00000000 -0.00000000 -0.00000000
vn -0.00000000 0.72370000 -0.69010000
vn -0.00000000 0.50000000 -0.86600000
vn -0.00000000 0.04760000 0.99890000
vn -1.00000000 -0.00000000 -0.00000000
vn -0.00000000 0.32710000 0.94500000
vn -1.00000000 -0.00000000 -0.00000000
vn -0.00000000 0.32710000 0.94500000
vn -0.00000000 0.58010000 0.81460000
vn -0.00000000 -0.92840000 -0.37170000
vn -1.00000000 -0.00000000 -0.00000000
vn -0.00000000 -0.78610000 -0.61820000
vn -0.00000000 -0.78610000 -0.61820000
vn -1.00000000 -0.00000000 -0.00000000
vn -0.00000000 -0.58010000 -0.81460000
vn -0.00000000 0.99550000 0.09500000
vn -1.00000000 -0.00000000 -0.00000000
vn -0.00000000 0.98190000 -0.18930000
vn -0.00000000 0.98190000 -0.18930000
vn -0.00000000 0.88880000 -0.45820000
vn -1.00000000 -0.00000000 -0.00000000
vn -0.00000000 0.72370000 -0.69010000
vn -0.00000000 0.88880000 -0.45820000
vn -1.00000000 -0.00000000 -0.00000000
vn -0.00000000 0.78600000 0.61820000
vn -0.00000000 0.58010000 0.81460000
vn -1.00000000 -0.00000000 -0.00000000
vn -0.00000000 0.78600000 0.61820000
vn -0.00000000 0.92840000 0.37170000
vn -1.00000000 -0.00000000 -0.00000000
vn -0.00000000 0.99550000 0.09500000
vn -0.00000000 0.92840000 0.37170000
vn -1.00000000 -0.00000000 -0.00000000
vn -1.00000000 -0.00000000 -0.00000000
vn -0.00000000 0.04760000 0.99890000
vn -0.00000000 -0.23580000 0.97180000
vn -0.00000000 -0.23580000 0.97180000
vn -0.00000000 -0.50000000 0.86600000
vn -1.00000000 -0.00000000 -0.00000000
vn -1.00000000 -0.00000000 -0.00000000
vn -0.00000000 -0.72370000 0.69010000
vn -0.00000000 -0.50000000 0.86600000
vn -0.00000000 -0.99550000 -0.09510000
vn -0.00000000 -0.98190000 0.18930000
vn -1.00000000 -0.00000000 -0.00000000
vn -0.00000000 -0.99550000 -0.09510000
vn -1.00000000 -0.00000000 -0.00000000
vn -0.00000000 -0.92840000 -0.37170000
vn -0.00000000 -0.88880000 0.45820000
vn -0.00000000 -0.98190000 0.18930000
vn -1.00000000 -0.00000000 -0.00000000
vn -1.00000000 -0.00000000 -0.00000000
vn -0.00000000 -0.72370000 0.69010000
vn -0.00000000 -0.88880000 0.45820000
vn -1.00000000 -0.00000000 -0.00000000
vn -0.00000000 0.78600000 0.61820000
vn -0.00000000 0.92840000 0.37170000
vn -1.00000000 -0.00000000 -0.00000000
vn -0.00000000 0.92840000 0.37170000
vn -0.00000000 0.99550000 0.09500000
vn -1.00000000 -0.00000000 -0.00000000
vn -0.00000000 0.99550000 0.09500000
vn -0.00000000 0.98190000 -0.18930000
vn -0.00000000 0.88880000 -0.45820000
vn -0.00000000 0.98190000 -0.18930000
vn -1.00000000 -0.00000000 -0.00000000
vn -1.00000000 -0.00000000 -0.00000000
vn -0.00000000 0.88880000 -0.45820000
vn -0.00000000 0.72370000 -0.69010000
vn -0.00000000 0.72370000 -0.69010000
vn -0.00000000 0.50000000 -0.86600000
vn -1.00000000 -0.00000000 -0.00000000
vn -1.00000000 -0.00000000 -0.00000000
vn -0.00000000 0.50000000 -0.86600000
vn -0.00000000 0.23580000 -0.97180000
vn -1.00000000 -0.00000000 -0.00000000
vn -0.00000000 0.23580000 -0.97180000
vn -0.00000000 -0.04760000 -0.99890000
vn -1.00000000 -0.00000000 -0.00000000
vn -0.00000000 -0.32710000 -0.94500000
vn -0.00000000 -0.04760000 -0.99890000
vn -0.00000000 -0.58010000 -0.81460000
vn -0.00000000 -0.32710000 -0.94500000
vn -1.00000000 -0.00000000 -0.00000000
vn -0.00000000 -0.58010000 -0.81460000
vn -1.00000000 -0.00000000 -0.00000000
vn -0.00000000 -0.78610000 -0.61820000
vn -1.00000000 -0.00000000 -0.00000000
vn -0.00000000 -0.92840000 -0.37170000
vn -0.00000000 -0.78610000 -0.61820000
vn -1.00000000 -0.00000000 -0.00000000
vn -0.00000000 -0.99550000 -0.09510000
vn -0.00000000 -0.92840000 -0.37170000
vn -0.00000000 -0.99550000 -0.09510000
vn -0.00000000 -0.98190000 0.18930000
vn -1.00000000 -0.00000000 -0.00000000
vn -0.00000000 -0.98190000 0.18930000
vn -0.00000000 -0.88880000 0.45820000
vn -1.00000000 -0.00000000 -0.00000000
vn -0.00000000 -0.72370000 0.69010000
vn -0.00000000 -0.88880000 0.45820000
vn -1.00000000 -0.00000000 -0.00000000
vn -1.00000000 -0.00000000 -0.00000000
vn -0.00000000 -0.50000000 0.86600000
vn -0.00000000 -0.72370000 0.69010000
vn -0.00000000 -0.50000000 0.86600000
vn -0.00000000 -0.23580000 0.97180000
vn -1.00000000 -0.00000000 -0.00000000
vn -0.00000000 0.04760000 0.99890000
vn -1.00000000 -0.00000000 -0.00000000
vn -0.00000000 -0.23580000 0.97180000
vn -0.00000000 0.04760000 0.99890000
vn -1.00000000 -0.00000000 -0.00000000
vn -0.00000000 0.32710000 0.94500000
vn -0.00000000 0.32710000 0.94500000
vn -0.00000000 0.58010000 0.81460000
vn -1.00000000 -0.00000000 -0.00000000
vn -0.00000000 0.78600000 0.61820000
vn -0.00000000 0.58010000 0.81460000
vn -1.00000000 -0.00000000 -0.00000000
f 1//1 4//4 7//7
f 12//12 13//13 16//16
f 16//16 13//13 21//21
f 16//16 21//21 23//23
f 23//23 26//26 16//16
f 16//16 26//26 30//30
f 16//16 30//30 31//31
f 31//31 30//30 36//36
f 31//31 36//36 38//38
f 38//38 42//42 31//31
f 31//31 42//42 7//7
f 31//31 7//7 44//44
f 44//44 7//7 4//4
f 46//46 49//49 52//52
f 52//52 49//49 57//57
f 52//52 57//57 58//58
f 46//46 52//52 7//7
f 7//7 52//52 61//61
f 7//7 61//61 1//1
f 12//12 16//16 66//66
f 66//66 16//16 67//67
f 66//66 67//67 72//72
f 72//72 75//75 66//66
f 66//66 75//75 78//78
f 66//66 78//78 79//79
f 79//79 84//84 66//66
f 66//66 84//84 85//85
f 66//66 85//85 88//88
f 25//25 93//93 28//28
f 28//28 93//93 96//96
f 29//29 95//95 35//35
f 35//35 95//95 98//98
f 34//34 97//97 37//37
f 37//37 97//97 102//102
f 39//39 100//100 41//41
f 41//41 100//100 103//103
f 40//40 104//104 9//9
f 9//9 104//104 107//107
f 8//8 108//108 47//47
f 47//47 108//108 110//110
f 48//48 109//109 51//51
f 51//51 109//109 112//112
f 50//50 114//114 55//55
f 55//55 114//114 117//117
f 56//56 115//115 60//60
f 60//60 115//115 120//120
f 59//59 119//119 53//53
f 53//53 119//119 121//121
f 54//54 122//122 63//63
f 63//63 122//122 126//126
f 62//62 124//124 2//2
f 2//2 124//124 127//127
f 3//3 128//128 6//6
f 6//6 128//128 130//130
f 5//5 131//131 45//45
f 45//45 131//131 133//133
f 43//43 135//135 32//32
f 32//32 135//135 137//137
f 33//33 138//138 18//18
f 18//18 138//138 141//141
f 17//17 139//139 69//69
f 69//69 139//139 144//144
f 68//68 142//142 71//71
f 71//71 142//142 145//145
f 70//70 147//147 73//73
f 73//73 147//147 150//150
f 74//74 149//149 77//77
f 77//77 149//149 151//151
f 76//76 152//152 81//81
f 81//81 152//152 154//154
f 80//80 156//156 83//83
f 83//83 156//156 159//159
f 82//82 157//157 87//87
f 87//87 157//157 161//161
f 86//86 160//160 89//89
f 89//89 160//160 164//164
f 90//90 163//163 65//65
f 65//65 163//163 167//167
f 64//64 166//166 10//10
f 10//10 166//166 171//171
f 11//11 170//170 15//15
f 15//15 170//170 173//173
f 14//14 174//174 19//19
f 19//19 174//174 177//177
f 20//20 175//175 22//22
f 22//22 175//175 178//178
f 24//24 180//180 27//27
f 27//27 180//180 91//91
f 181//181 134//134 132//132
f 92//92 184//184 94//94
f 94//94 184//184 188//188
f 94//94 188//188 99//99
f 99//99 188//188 192//192
f 106//106 195//195 111//111
f 111//111 195//195 198//198
f 111//111 198//198 113//113
f 113//113 198//198 201//201
f 106//106 105//105 195//195
f 195//195 105//105 101//101
f 195//195 101//101 202//202
f 202//202 101//101 99//99
f 202//202 99//99 207//207
f 207//207 99//99 192//192
f 181//181 132//132 210//210
f 210//210 132//132 129//129
f 210//210 129//129 211//211
f 123//123 118//118 216//216
f 216//216 118//118 116//116
f 216//216 116//116 219//219
f 219//219 116//116 113//113
f 219//219 113//113 220//220
f 220//220 113//113 201//201
f 123//123 216//216 125//125
f 125//125 216//216 225//225
f 125//125 225//225 129//129
f 129//129 225//225 228//228
f 129//129 228//228 211//211
f 229//229 234//234 162//162
f 162//162 234//234 235//235
f 162//162 235//235 165//165
f 153//153 240//240 155//155
f 155//155 240//240 243//243
f 155//155 243//243 158//158
f 158//158 243//243 162//162
f 162//162 243//243 244//244
f 162//162 244//244 229//229
f 249//249 143//143 252//252
f 252//252 143//143 140//140
f 252//252 140//140 181//181
f 181//181 140//140 136//136
f 181//181 136//136 134//134
f 153//153 148//148 240//240
f 240//240 148//148 146//146
f 240//240 146//146 255//255
f 255//255 146//146 143//143
f 255//255 143//143 256//256
f 256//256 143//143 249//249
f 259//259 172//172 264//264
f 264//264 172//172 169//169
f 264//264 169//169 235//235
f 235//235 169//169 168//168
f 235//235 168//168 165//165
f 92//92 179//179 184//184
f 184//184 179//179 176//176
f 184//184 176//176 267//267
f 267//267 176//176 172//172
f 267//267 172//172 268//268
f 268//268 172//172 259//259
f 223//223 214//214 273//273
f 273//273 214//214 275//275
f 224//224 272//272 279//279
f 224//224 279//279 227//227
f 226//226 278//278 281//281
f 226//226 281//281 213//213
f 212//212 280//280 285//285
f 212//212 285//285 209//209
f 208//208 284//284 286//286
f 208//208 286//286 182//182
f 250//250 183//183 291//291
f 291//291 183//183 287//287
f 251//251 290//290 294//294
f 251//251 294//294 248//248
f 247//247 292//292 297//297
f 247//247 297//297 258//258
f 257//257 296//296 298//298
f 257//257 298//298 253//253
f 254//254 299//299 303//303
f 254//254 303//303 239//239
f 242//242 238//238 305//305
f 305//305 238//238 301//301
f 241//241 304//304 308//308
f 241//241 308//308 246//246
f 245//245 309//309 311//311
f 245//245 311//311 231//231
f 230//230 310//310 314//314
f 230//230 314//314 232//232
f 233//233 315//315 317//317
f 233//233 317//317 237//237
f 263//263 236//236 320//320
f 320//320 236//236 316//316
f 262//262 319//319 323//323
f 262//262 323//323 260//260
f 261//261 324//324 325//325
f 261//261 325//325 269//269
f 270//270 326//326 329//329
f 270//270 329//329 266//266
f 265//265 330//330 332//332
f 265//265 332//332 185//185
f 189//189 186//186 335//335
f 335//335 186//186 331//331
f 187//187 336//336 337//337
f 187//187 337//337 191//191
f 190//190 338//338 342//342
f 190//190 342//342 205//205
f 206//206 341//341 343//343
f 206//206 343//343 203//203
f 204//204 345//345 346//346
f 204//204 346//346 194//194
f 196//196 193//193 351//351
f 351//351 193//193 347//347
f 197//197 349//349 354//354
f 197//197 354//354 199//199
f 200//200 353//353 355//355
f 200//200 355//355 221//221
f 222//222 356//356 359//359
f 222//222 359//359 217//217
f 218//218 360//360 274//274
f 218//218 274//274 215//215
f 350//350 348//348 362//362
f 362//362 348//348 344//344
f 362//362 344//344 366//366
f 362//362 367//367 350//350
f 350//350 367//367 371//371
f 350//350 371//371 352//352
f 352//352 371//371 373//373
f 352//352 373//373 357//357
f 306//306 302//302 377//377
f 377//377 302//302 300//300
f 377//377 300//300 379//379
f 333//333 383//383 334//334
f 334//334 383//383 386//386
f 334//334 386//386 339//339
f 339//339 386//386 366//366
f 339//339 366//366 340//340
f 340//340 366//366 344//344
f 288//288 283//283 389//389
f 283//283 282//282 389//389
f 389//389 282//282 277//277
f 389//389 277//277 393//393
f 393//393 277//277 271//271
f 393//393 271//271 396//396
f 396//396 271//271 276//276
f 396//396 276//276 373//373
f 373//373 276//276 358//358
f 373//373 358//358 357//357
f 300//300 295//295 379//379
f 379//379 295//295 293//293
f 379//379 293//293 399//399
f 399//399 293//293 289//289
f 399//399 289//289 402//402
f 402//402 289//289 288//288
f 402//402 288//288 405//405
f 405//405 288//288 389//389
f 377//377 406//406 306//306
f 306//306 406//406 411//411
f 306//306 411//411 307//307
f 307//307 411//411 412//412
f 307//307 412//412 312//312
f 328//328 417//417 333//333
f 333//333 417//417 419//419
f 333//333 419//419 383//383
f 328//328 327//327 417//417
f 417//417 327//327 322//322
f 417//417 322//322 423//423
f 423//423 322//322 321//321
f 423//423 321//321 424//424
f 424//424 321//321 318//318
f 424//424 318//318 412//412
f 412//412 318//318 313//313
f 412//412 313//313 312//312
f 429//429 401//401 404//404
f 429//429 404//404 431//431
f 432//432 403//403 388//388
f 432//432 388//388 434//434
f 435//435 390//390 391//391
f 435//435 391//391 437//437
f 436//436 392//392 395//395
f 436//436 395//395 440//440
f 441//441 394//394 374//374
f 441//441 374//374 442//442
f 443//443 375//375 370//370
f 443//443 370//370 446//446
f 447//447 372//372 368//368
f 447//447 368//368 449//449
f 450//450 369//369 363//363
f 450//450 363//363 453//453
f 452//452 361//361 364//364
f 452//452 364//364 455//455
f 454//454 365//365 387//387
f 454//454 387//387 457//457
f 459//459 385//385 384//384
f 459//459 384//384 462//462
f 461//461 382//382 420//420
f 461//461 420//420 465//465
f 464//464 418//418 415//415
f 464//464 415//415 466//466
f 467//467 416//416 422//422
f 467//467 422//422 469//469
f 470//470 421//421 426//426
f 470//470 426//426 473//473
f 472//472 425//425 413//413
f 472//472 413//413 477//477
f 476//476 414//414 410//410
f 476//476 410//410 478//478
f 479//479 409//409 408//408
f 479//479 408//408 483//483
f 481//481 407//407 376//376
f 481//481 376//376 484//484
f 486//486 378//378 380//380
f 486//486 380//380 487//487
f 488//488 381//381 398//398
f 488//488 398//398 491//491
f 490//490 397//397 400//400
f 490//490 400//400 428//428
f 460//460 492//492 458//458
f 458//458 492//492 427//427
f 458//458 427//427 456//456
f 460//460 463//463 492//492
f 492//492 463//463 468//468
f 492//492 468//468 489//489
f 456//456 427//427 451//451
f 451//451 427//427 430//430
f 451//451 430//430 433//433
f 448//448 451//451 445//445
f 445//445 451//451 444//444
f 468//468 471//471 489//489
f 489//489 471//471 474//474
f 489//489 474//474 475//475
f 475//475 480//480 489//489
f 489//489 480//480 482//482
f 489//489 482//482 485//485
f 433//433 438//438 451//451
f 451//451 438//438 439//439
f 451//451 439//439 444//444

