# https://github.com/mikedh/trimesh
v 0.02500541 -0.00025109 0.00772249
v 0.01493083 -0.00025109 0.00772097
v 0.01493083 -0.00075422 0.00770586
v 0.02500541 -0.00075573 0.00770586
v 0.02500541 0.00075517 0.00767411
v 0.01442759 -0.00025109 0.00771190
v 0.01493083 0.00075517 0.00767260
v 0.01442759 0.00075517 0.00766504
v 0.01442759 0.00025052 0.00768923
v 0.01442759 -0.00075422 0.00769679
v 0.01493083 -0.00125886 0.00761817
v 0.02500541 -0.00125886 0.00761817
v 0.02500541 0.00125829 0.00764387
v 0.01409713 -0.00025109 0.00762875
v 0.01410361 -0.00075422 0.00762271
v 0.01413169 0.00125829 0.00759247
v 0.01411657 0.00075517 0.00760608
v 0.01410577 0.00025052 0.00761817
v 0.01644272 0.00125829 0.00764236
v 0.01493083 0.00125829 0.00764085
v 0.01442759 0.00125829 0.00763480
v 0.01413493 -0.00116187 0.00759096
v 0.01446431 -0.00130129 0.00760154
v 0.01465653 -0.00151194 0.00755619
v 0.01493083 -0.00176502 0.00749571
v 0.02450109 -0.00176502 0.00749571
v 0.02500541 -0.00151346 0.00755619
v 0.02500541 0.00161139 0.00758945
v 0.01644272 0.00161139 0.00758945
v 0.01493083 0.00160988 0.00758945
v 0.01401506 0.00075517 0.00730371
v 0.01399562 -0.00025109 0.00730371
v 0.01400210 -0.00075422 0.00730371
v 0.01407554 -0.00226663 0.00718579
v 0.01410469 -0.00276976 0.00712834
v 0.01403018 0.00125829 0.00730371
v 0.01415329 0.00156593 0.00757433
v 0.01407878 0.00226607 0.00718428
v 0.01442759 0.00160230 0.00758642
v 0.01432068 -0.00149679 0.00754863
v 0.01414681 -0.00306830 0.00707845
v 0.01493083 -0.00226663 0.00737326
v 0.02450109 -0.00226663 0.00737326
v 0.02500541 -0.00226663 0.00737023
v 0.02450109 0.00186447 0.00750327
v 0.02500541 0.00276919 0.00719033
v 0.01493083 0.00186296 0.00750327
v 0.01397726 0.00226607 0.00680028
v 0.01397294 -0.00176199 0.00680028
v 0.01397402 -0.00226663 0.00680028
v 0.01397294 0.00176294 0.00680028
v 0.01400318 -0.00276976 0.00680028
v 0.01407770 -0.00325167 0.00680330
v 0.01401614 0.00276919 0.00680028
v 0.01415977 0.00305864 0.00706484
v 0.01411765 0.00276919 0.00711171
v 0.01442759 0.00308592 0.00707392
v 0.01442759 -0.00276976 0.00721603
v 0.01442759 -0.00309710 0.00709508
v 0.01411657 -0.00462921 0.00611240
v 0.01417381 -0.00403213 0.00654931
v 0.01493083 -0.00276976 0.00722812
v 0.02500541 -0.00276976 0.00722812
v 0.02147839 0.00226607 0.00736418
v 0.02500541 0.00309501 0.00707694
v 0.02299028 0.00309501 0.00707694
v 0.01493083 0.00309350 0.00707694
v 0.01397294 0.00327384 0.00629533
v 0.01397294 -0.00377753 0.00579189
v 0.01397402 -0.00327289 0.00629533
v 0.01397942 -0.00428066 0.00579189
v 0.01402262 -0.00377753 0.00629533
v 0.01408525 0.00324504 0.00681237
v 0.01401830 0.00377697 0.00629533
v 0.01442759 0.00333749 0.00696960
v 0.01416733 0.00403914 0.00655536
v 0.01411873 0.00377697 0.00663095
v 0.01493083 0.00334658 0.00698472
v 0.01493083 -0.00377753 0.00670957
v 0.01493083 -0.00310316 0.00709810
v 0.01442759 -0.00403819 0.00655234
v 0.01406042 -0.00479288 0.00580247
v 0.01411117 -0.00513234 0.00564222
v 0.01442759 -0.00493685 0.00595214
v 0.01442759 -0.00468529 0.00615322
v 0.01442759 -0.00428975 0.00640418
v 0.02500541 -0.00310316 0.00709810
v 0.02500541 0.00334658 0.00698169
v 0.02450109 0.00334658 0.00698472
v 0.01398806 0.00428161 0.00579189
v 0.01397402 0.00478474 0.00528846
v 0.01397294 0.00428161 0.00528846
v 0.01397294 -0.00478530 0.00478502
v 0.01397618 -0.00478530 0.00528846
v 0.01410145 0.00423766 0.00627870
v 0.01406582 0.00478019 0.00579945
v 0.01442759 0.00377697 0.00673224
v 0.01442759 0.00404975 0.00656292
v 0.01442759 0.00465441 0.00612903
v 0.01442759 0.00490597 0.00594610
v 0.01412737 0.00460895 0.00609879
v 0.01493083 0.00377697 0.00675039
v 0.02500541 -0.00335624 0.00695297
v 0.01493083 -0.00429582 0.00641023
v 0.02500541 -0.00404274 0.00655687
v 0.01405934 -0.00529601 0.00529450
v 0.01406258 -0.00579611 0.00478653
v 0.01411333 -0.00562941 0.00513123
v 0.01442759 -0.00518841 0.00569967
v 0.01493083 -0.00519599 0.00570723
v 0.01493083 -0.00494291 0.00595970
v 0.01493083 -0.00469135 0.00615926
v 0.02500541 0.00377697 0.00674887
v 0.02450109 0.00377697 0.00675039
v 0.01405610 0.00530757 0.00530660
v 0.01397510 0.00528787 0.00478502
v 0.01397294 0.00629564 0.00327320
v 0.01397294 0.00579251 0.00377663
v 0.01397294 -0.00528843 0.00428158
v 0.01397294 -0.00579156 0.00377663
v 0.01397402 -0.00629620 0.00327320
v 0.01397726 -0.00528843 0.00478502
v 0.01410901 0.00515299 0.00563617
v 0.01493083 0.00405429 0.00656594
v 0.01493083 0.00491203 0.00595517
v 0.01493083 0.00523028 0.00570269
v 0.01442759 0.00522119 0.00569362
v 0.02500541 -0.00429582 0.00641023
v 0.01397942 -0.00579156 0.00428158
v 0.01401722 -0.00629620 0.00377663
v 0.01409389 -0.00629166 0.00424076
v 0.01411657 -0.00612041 0.00461872
v 0.01442759 -0.00543998 0.00543661
v 0.02500541 -0.00519599 0.00570723
v 0.01493083 -0.00568851 0.00519170
v 0.02500541 -0.00494291 0.00595970
v 0.02500541 -0.00469135 0.00615926
v 0.02500541 0.00405429 0.00656594
v 0.01411117 0.00562884 0.00515088
v 0.01406798 0.00579554 0.00477746
v 0.01398806 0.00579251 0.00428158
v 0.01400858 0.00629564 0.00377663
v 0.01397726 0.00680028 0.00226633
v 0.01397294 0.00680028 0.00176289
v 0.01397294 -0.00679933 0.00226633
v 0.01401290 -0.00679933 0.00276976
v 0.01442759 0.00547275 0.00546836
v 0.02500541 0.00491203 0.00595517
v 0.02500541 0.00523028 0.00570269
v 0.01493083 0.00548184 0.00547592
v 0.01408525 -0.00680085 0.00323843
v 0.01411765 -0.00661899 0.00377663
v 0.01416625 -0.00655686 0.00404574
v 0.01442759 -0.00616436 0.00466861
v 0.01442759 -0.00593250 0.00492108
v 0.02500541 -0.00568851 0.00519170
v 0.01493083 -0.00594007 0.00492713
v 0.01412737 0.00610014 0.00460511
v 0.01409389 0.00627897 0.00424681
v 0.01410901 0.00663358 0.00377663
v 0.01402154 0.00680028 0.00276976
v 0.01407770 0.00719733 0.00226633
v 0.01404422 0.00730341 0.00125794
v 0.01401938 0.00730341 0.00075450
v 0.01399994 0.00730341 0.00025107
v 0.01399022 0.00730341 -0.00025086
v 0.01397294 0.00680028 -0.00226611
v 0.01397294 -0.00679933 -0.00176268
v 0.01399022 -0.00730398 0.00025107
v 0.01400858 -0.00730398 0.00075450
v 0.01407446 -0.00719638 0.00226633
v 0.01411333 -0.00712515 0.00276976
v 0.01442759 0.00568037 0.00521589
v 0.01415437 0.00656842 0.00405632
v 0.02500541 0.00548184 0.00547592
v 0.01493083 0.00568794 0.00522345
v 0.01415977 -0.00706454 0.00304794
v 0.01442759 -0.00656292 0.00405935
v 0.01442759 -0.00641592 0.00431182
v 0.01442759 -0.00707514 0.00306759
v 0.01493083 -0.00617042 0.00467617
v 0.02500541 -0.00594007 0.00492713
v 0.01416733 0.00705791 0.00303887
v 0.01412197 0.00710943 0.00276976
v 0.01416517 0.00756406 0.00155275
v 0.01414573 0.00757922 0.00125794
v 0.01412089 0.00760195 0.00075450
v 0.01410145 0.00762468 0.00025107
v 0.01409065 0.00763832 -0.00025086
v 0.01400750 0.00730341 -0.00075429
v 0.01407446 0.00719733 -0.00226611
v 0.01401182 0.00680028 -0.00276955
v 0.01397402 0.00629564 -0.00327299
v 0.01397294 0.00579251 -0.00377793
v 0.01397726 -0.00679933 -0.00226611
v 0.01397294 -0.00629620 -0.00327299
v 0.01399994 -0.00730398 -0.00025086
v 0.01409173 -0.00763737 0.00025107
v 0.01411009 -0.00761767 0.00075450
v 0.01414465 -0.00758130 0.00114607
v 0.01442759 -0.00737066 0.00226633
v 0.01442759 0.00638505 0.00432694
v 0.01442759 0.00658206 0.00407446
v 0.01442759 0.00673512 0.00377663
v 0.02500541 0.00568794 0.00522345
v 0.01493083 0.00613803 0.00465198
v 0.01442759 -0.00721153 0.00276976
v 0.01493083 -0.00656595 0.00406539
v 0.01493083 -0.00642199 0.00431635
v 0.01493083 -0.00722517 0.00276976
v 0.01493083 -0.00707817 0.00307213
v 0.02450109 -0.00617042 0.00467617
v 0.02500541 -0.00617042 0.00467466
v 0.01442759 0.00695334 0.00330646
v 0.01442759 0.00706548 0.00305550
v 0.01442759 0.00717611 0.00276976
v 0.01442759 0.00736554 0.00226633
v 0.01442759 0.00750648 0.00183999
v 0.01442759 0.00757013 0.00158752
v 0.01442759 0.00760953 0.00125794
v 0.01442759 0.00770349 0.00025107
v 0.01442759 0.00773076 -0.00025086
v 0.01410901 0.00761711 -0.00075429
v 0.01411333 0.00712459 -0.00276955
v 0.01414465 0.00758225 -0.00114888
v 0.01408525 0.00680180 -0.00323973
v 0.01401722 0.00629564 -0.00377793
v 0.01397942 0.00579251 -0.00428137
v 0.01397726 0.00528787 -0.00478481
v 0.01397618 0.00478474 -0.00528824
v 0.01397294 0.00428161 -0.00528824
v 0.01402154 -0.00679933 -0.00276955
v 0.01407770 -0.00719789 -0.00226611
v 0.01404530 -0.00730398 -0.00125924
v 0.01402046 -0.00730398 -0.00075429
v 0.01400858 -0.00629620 -0.00377793
v 0.01397510 -0.00528843 -0.00478481
v 0.01398806 -0.00579156 -0.00428137
v 0.01397294 -0.00478530 -0.00478481
v 0.01397402 -0.00478530 -0.00528824
v 0.01410145 -0.00762525 -0.00025086
v 0.01442759 -0.00772982 0.00025107
v 0.01442759 -0.00768738 0.00075450
v 0.01442759 -0.00759797 0.00123073
v 0.01442759 -0.00754493 0.00148320
v 0.01493083 -0.00739945 0.00226633
v 0.01493083 0.00638959 0.00433147
v 0.01493083 0.00658660 0.00407900
v 0.01493083 0.00675330 0.00377663
v 0.02500541 0.00613803 0.00465198
v 0.02500541 -0.00656747 0.00406539
v 0.02500541 -0.00642199 0.00431635
v 0.02500541 -0.00722517 0.00276976
v 0.02500541 -0.00707817 0.00307213
v 0.02500541 -0.00671598 0.00377663
v 0.01493083 0.00696698 0.00331402
v 0.01493083 0.00706851 0.00306305
v 0.01493083 0.00738676 0.00226633
v 0.01493083 0.00752163 0.00185360
v 0.01493083 0.00757316 0.00160112
v 0.01493083 0.00761559 0.00125794
v 0.01493083 0.00771106 0.00025107
v 0.01493083 0.00773986 -0.00025086
v 0.01442759 0.00768833 -0.00075429
v 0.01415977 0.00706548 -0.00304773
v 0.01411765 0.00661843 -0.00377793
v 0.01442759 0.00759892 -0.00123354
v 0.01442759 0.00754588 -0.00148450
v 0.01442759 0.00737160 -0.00226611
v 0.01409389 0.00629109 -0.00424055
v 0.01406258 0.00579554 -0.00478632
v 0.01405934 0.00529544 -0.00529429
v 0.01406042 0.00479231 -0.00580226
v 0.01397942 0.00428161 -0.00579168
v 0.01397402 0.00327384 -0.00629663
v 0.01397294 0.00377697 -0.00579168
v 0.01410901 -0.00663263 -0.00377793
v 0.01412197 -0.00710848 -0.00276955
v 0.01416517 -0.00756312 -0.00155253
v 0.01414573 -0.00757979 -0.00125924
v 0.01412089 -0.00760252 -0.00075429
v 0.01409389 -0.00627953 -0.00424660
v 0.01406798 -0.00579459 -0.00477725
v 0.01405610 -0.00530813 -0.00530639
v 0.01397294 -0.00327289 -0.00629663
v 0.01398806 -0.00428066 -0.00579168
v 0.01442759 -0.00770254 -0.00025086
v 0.01493083 -0.00773891 0.00025107
v 0.01493083 -0.00769496 0.00075450
v 0.01493083 -0.00760100 0.00124433
v 0.01493083 -0.00755251 0.00149681
v 0.01493083 -0.00750098 0.00176289
v 0.02500541 -0.00739945 0.00226633
v 0.02500541 0.00638959 0.00433147
v 0.02500541 0.00658660 0.00407900
v 0.02450109 0.00675330 0.00377663
v 0.02450109 0.00696698 0.00331402
v 0.02500541 0.00706851 0.00306305
v 0.02450109 0.00738676 0.00226633
v 0.02450109 0.00752163 0.00185360
v 0.02500541 0.00757316 0.00160112
v 0.02500541 0.00761711 0.00125794
v 0.02500541 0.00771258 0.00025107
v 0.02500541 0.00774137 -0.00025086
v 0.01493083 0.00769591 -0.00075429
v 0.01442759 0.00721248 -0.00276955
v 0.01442759 0.00707458 -0.00306738
v 0.01416625 0.00655629 -0.00404553
v 0.01411657 0.00611985 -0.00462002
v 0.01493083 0.00760195 -0.00124715
v 0.01493083 0.00755346 -0.00149962
v 0.01493083 0.00750193 -0.00176268
v 0.01493083 0.00740040 -0.00226611
v 0.01411333 0.00563036 -0.00513101
v 0.01411117 0.00513329 -0.00564201
v 0.01411657 0.00463016 -0.00611219
v 0.01402262 0.00377697 -0.00629663
v 0.01400318 0.00276919 -0.00680006
v 0.01397402 0.00226607 -0.00680006
v 0.01397294 0.00176294 -0.00680006
v 0.01397294 0.00276919 -0.00629663
v 0.01415437 -0.00656898 -0.00405611
v 0.01416733 -0.00705847 -0.00303865
v 0.01442759 -0.00750553 -0.00183978
v 0.01442759 -0.00757069 -0.00158731
v 0.01442759 -0.00760858 -0.00125924
v 0.01442759 -0.00736459 -0.00226611
v 0.01412737 -0.00609920 -0.00460490
v 0.01411117 -0.00562789 -0.00515067
v 0.01406582 -0.00478076 -0.00579924
v 0.01410901 -0.00515356 -0.00563596
v 0.01401614 -0.00276976 -0.00680006
v 0.01401830 -0.00377753 -0.00629663
v 0.01397294 -0.00176199 -0.00680006
v 0.01397726 -0.00226663 -0.00680006
v 0.01493083 -0.00771011 -0.00025086
v 0.02500541 -0.00774042 0.00025107
v 0.02500541 -0.00769648 0.00075450
v 0.02500541 -0.00760252 0.00124433
v 0.02500541 -0.00750098 0.00176289
v 0.02500541 0.00675027 0.00377663
v 0.02500541 0.00696395 0.00331402
v 0.02500541 0.00718520 0.00276976
v 0.02500541 0.00738524 0.00226633
v 0.02500541 0.00752012 0.00185360
v 0.02500541 0.00769742 -0.00075429
v 0.01493083 0.00722612 -0.00276955
v 0.01493083 0.00707912 -0.00307343
v 0.01442759 0.00656387 -0.00405913
v 0.01442759 0.00641536 -0.00431161
v 0.01442759 0.00616379 -0.00466840
v 0.01442759 0.00593345 -0.00492087
v 0.01442759 0.00544093 -0.00543640
v 0.02500541 0.00755346 -0.00149962
v 0.02500541 0.00750193 -0.00176268
v 0.02500541 0.00740040 -0.00226611
v 0.01442759 0.00518785 -0.00569946
v 0.01442759 0.00493628 -0.00595193
v 0.01442759 0.00468472 -0.00615301
v 0.01417381 0.00403156 -0.00654910
v 0.01414681 0.00306925 -0.00707824
v 0.01407770 0.00325111 -0.00680309
v 0.01409821 0.00423160 -0.00628756
v 0.01410469 0.00276919 -0.00712813
v 0.01407554 0.00226607 -0.00718709
v 0.01400210 0.00075517 -0.00730350
v 0.01399562 0.00025052 -0.00730350
v 0.01442759 -0.00658262 -0.00407425
v 0.01442759 -0.00673568 -0.00377793
v 0.01442759 -0.00547332 -0.00546815
v 0.01442759 -0.00567942 -0.00521568
v 0.01442759 -0.00593250 -0.00489819
v 0.01442759 -0.00613254 -0.00464572
v 0.01442759 -0.00638410 -0.00432673
v 0.01442759 -0.00695239 -0.00330776
v 0.01442759 -0.00706454 -0.00305528
v 0.01442759 -0.00717516 -0.00276955
v 0.01493083 -0.00752220 -0.00185339
v 0.01493083 -0.00738733 -0.00226611
v 0.01493083 -0.00757373 -0.00160091
v 0.01493083 -0.00761464 -0.00125924
v 0.01493083 -0.00766314 -0.00075429
v 0.01410145 -0.00423671 -0.00627849
v 0.01412737 -0.00460951 -0.00609858
v 0.01442759 -0.00522175 -0.00569341
v 0.01411765 -0.00276976 -0.00711150
v 0.01408525 -0.00324561 -0.00681216
v 0.01403018 -0.00125886 -0.00730350
v 0.01407878 -0.00226663 -0.00718407
v 0.01411873 -0.00377753 -0.00663074
v 0.01401506 -0.00075422 -0.00730350
v 0.02500541 -0.00771163 -0.00025086
v 0.02500541 0.00722612 -0.00276955
v 0.01493083 0.00694879 -0.00332590
v 0.02500541 0.00707912 -0.00307343
v 0.01493083 0.00671542 -0.00377793
v 0.01493083 0.00656690 -0.00406518
v 0.01493083 0.00642142 -0.00431765
v 0.01493083 0.00616985 -0.00467596
v 0.01493083 0.00593951 -0.00492692
v 0.01493083 0.00544850 -0.00544396
v 0.01493083 0.00519542 -0.00570702
v 0.01493083 0.00494386 -0.00595949
v 0.01493083 0.00469078 -0.00615905
v 0.01442759 0.00429070 -0.00640548
v 0.01442759 0.00403914 -0.00655364
v 0.01442759 0.00309805 -0.00709487
v 0.01442759 0.00276919 -0.00721733
v 0.01431960 0.00149773 -0.00754842
v 0.01413493 0.00116131 -0.00759226
v 0.01410361 0.00075517 -0.00762250
v 0.01409713 0.00025052 -0.00762854
v 0.01493083 -0.00658565 -0.00407879
v 0.01493083 -0.00675387 -0.00377793
v 0.01493083 -0.00594007 -0.00490273
v 0.01493083 -0.00613708 -0.00465177
v 0.01493083 -0.00638865 -0.00433126
v 0.01493083 -0.00548241 -0.00547571
v 0.01493083 -0.00523085 -0.00570248
v 0.01493083 -0.00568699 -0.00522324
v 0.01493083 -0.00696755 -0.00331381
v 0.01493083 -0.00718577 -0.00276955
v 0.01694596 -0.00752220 -0.00185339
v 0.01745029 -0.00738733 -0.00226611
v 0.01996758 -0.00757373 -0.00160091
v 0.02500541 -0.00761616 -0.00125924
v 0.01442759 -0.00490502 -0.00594589
v 0.01416733 -0.00403971 -0.00655515
v 0.01415977 -0.00305921 -0.00706463
v 0.01415329 -0.00156650 -0.00757412
v 0.01411657 -0.00075422 -0.00760738
v 0.01413169 -0.00125886 -0.00759226
v 0.01410577 -0.00025109 -0.00761796
v 0.02500541 0.00694879 -0.00332590
v 0.02500541 0.00671542 -0.00377793
v 0.02500541 0.00656690 -0.00406518
v 0.02500541 0.00642142 -0.00431765
v 0.02500541 0.00616985 -0.00467596
v 0.02500541 0.00593951 -0.00492692
v 0.02500541 0.00544850 -0.00544396
v 0.02500541 0.00519542 -0.00570702
v 0.02500541 0.00494386 -0.00595949
v 0.02500541 0.00469078 -0.00615905
v 0.01493083 0.00429525 -0.00641001
v 0.01493083 0.00404368 -0.00655666
v 0.01493083 0.00335567 -0.00695427
v 0.01493083 0.00310411 -0.00709789
v 0.01493083 0.00276919 -0.00722942
v 0.01493083 0.00226607 -0.00737304
v 0.01465545 0.00151289 -0.00755597
v 0.01446323 0.00130073 -0.00760284
v 0.01442759 0.00075517 -0.00769809
v 0.01442759 0.00025052 -0.00771169
v 0.02500541 -0.00658565 -0.00407879
v 0.02450109 -0.00675387 -0.00377793
v 0.01996758 -0.00594007 -0.00490273
v 0.02500541 -0.00613708 -0.00465177
v 0.02500541 -0.00638865 -0.00433126
v 0.02399784 -0.00548241 -0.00547571
v 0.01493083 -0.00491109 -0.00595496
v 0.01694596 -0.00523085 -0.00570248
v 0.02500541 -0.00568699 -0.00522324
v 0.02450109 -0.00696755 -0.00331381
v 0.02500541 -0.00738581 -0.00226611
v 0.02500541 -0.00752068 -0.00185187
v 0.02500541 -0.00757373 -0.00159940
v 0.01442759 -0.00465346 -0.00613033
v 0.01442759 -0.00333805 -0.00696939
v 0.01442759 -0.00377753 -0.00673203
v 0.01442759 -0.00404880 -0.00656271
v 0.01442759 -0.00308649 -0.00707370
v 0.01442759 -0.00160135 -0.00758621
v 0.01442759 -0.00125886 -0.00763459
v 0.01442759 -0.00025109 -0.00768902
v 0.01442759 -0.00075422 -0.00766483
v 0.02500541 0.00429525 -0.00641001
v 0.02500541 0.00404368 -0.00655666
v 0.02500541 0.00377697 -0.00671087
v 0.02500541 0.00335567 -0.00695427
v 0.02500541 0.00310411 -0.00709789
v 0.02500541 0.00276919 -0.00722942
v 0.02450109 0.00226607 -0.00737304
v 0.01493083 0.00176597 -0.00749550
v 0.01493083 0.00125829 -0.00761796
v 0.01493083 0.00075517 -0.00770564
v 0.01493083 0.00025052 -0.00772076
v 0.02500541 -0.00675084 -0.00377793
v 0.02500541 -0.00548089 -0.00547571
v 0.02500541 -0.00522933 -0.00570248
v 0.01493083 -0.00465952 -0.00613486
v 0.02500541 -0.00491109 -0.00595496
v 0.02500541 -0.00696452 -0.00331381
v 0.02500541 -0.00706757 -0.00306133
v 0.01493083 -0.00334563 -0.00698451
v 0.01493083 -0.00377753 -0.00675017
v 0.01493083 -0.00405334 -0.00656573
v 0.01493083 -0.00309407 -0.00707673
v 0.01493083 -0.00186201 -0.00750306
v 0.01493083 -0.00125886 -0.00764215
v 0.01493083 -0.00161045 -0.00758923
v 0.01493083 -0.00075422 -0.00767239
v 0.02500541 0.00226607 -0.00737002
v 0.02500541 0.00151289 -0.00755597
v 0.02450109 0.00176597 -0.00749550
v 0.02500541 0.00125829 -0.00761796
v 0.02500541 0.00075517 -0.00770716
v 0.02500541 0.00025052 -0.00772228
v 0.02500541 -0.00465952 -0.00613486
v 0.02450109 -0.00334563 -0.00698451
v 0.02450109 -0.00377753 -0.00675017
v 0.02500541 -0.00405334 -0.00656573
v 0.02500541 -0.00276976 -0.00719011
v 0.02500541 -0.00309407 -0.00707673
v 0.02450109 -0.00186201 -0.00750306
v 0.02500541 -0.00075422 -0.00767390
v 0.02500541 -0.00125886 -0.00764215
v 0.02500541 -0.00161045 -0.00758923
v 0.02500541 -0.00334563 -0.00698299
v 0.02500541 -0.00377753 -0.00674866
f 1 2 3
f 1 3 4
f 1 4 12
f 1 12 27
f 1 27 44
f 1 44 63
f 1 63 87
f 1 87 103
f 1 103 105
f 1 105 128
f 1 128 137
f 1 137 136
f 1 136 134
f 1 134 156
f 1 156 182
f 1 182 213
f 1 213 252
f 1 252 251
f 1 251 255
f 1 255 254
f 1 254 253
f 1 253 293
f 1 293 340
f 1 340 339
f 1 339 338
f 1 338 337
f 1 337 392
f 1 392 426
f 1 426 466
f 1 466 465
f 1 465 464
f 1 464 493
f 1 493 492
f 1 492 487
f 1 487 454
f 1 454 458
f 1 458 457
f 1 457 462
f 1 462 488
f 1 488 489
f 1 489 491
f 1 491 508
f 1 508 511
f 1 511 519
f 1 519 518
f 1 518 513
f 1 513 512
f 1 512 517
f 1 517 516
f 1 516 515
f 1 515 507
f 1 507 506
f 1 506 505
f 1 505 503
f 1 503 502
f 1 502 481
f 1 481 480
f 1 480 479
f 1 479 478
f 1 478 477
f 1 477 476
f 1 476 443
f 1 443 442
f 1 442 441
f 1 441 440
f 1 440 439
f 1 439 438
f 1 438 437
f 1 437 436
f 1 436 435
f 1 435 434
f 1 434 395
f 1 395 393
f 1 393 356
f 1 356 355
f 1 355 354
f 1 354 346
f 1 346 304
f 1 304 303
f 1 303 302
f 1 302 301
f 1 301 345
f 1 345 344
f 1 344 343
f 1 343 298
f 1 298 342
f 1 342 341
f 1 341 295
f 1 295 294
f 1 294 250
f 1 250 205
f 1 205 175
f 1 175 149
f 1 149 148
f 1 148 138
f 1 138 113
f 1 113 88
f 1 88 65
f 1 65 46
f 1 46 28
f 1 28 13
f 1 13 5
f 1 5 7
f 1 7 2
f 2 6 10
f 2 10 3
f 2 7 8
f 2 8 9
f 2 9 6
f 3 10 11
f 3 11 4
f 4 11 12
f 5 13 7
f 6 14 15
f 6 15 10
f 6 9 16
f 6 16 17
f 6 17 18
f 6 18 14
f 7 13 19
f 7 19 20
f 7 20 21
f 7 21 8
f 8 21 16
f 8 16 9
f 10 15 22
f 10 22 23
f 10 23 11
f 11 23 24
f 11 24 25
f 11 25 26
f 11 26 12
f 12 26 27
f 13 28 29
f 13 29 30
f 13 30 19
f 14 18 31
f 14 31 32
f 14 32 33
f 14 33 15
f 15 33 34
f 15 34 35
f 15 35 22
f 16 36 17
f 16 21 37
f 16 37 38
f 16 38 36
f 17 36 31
f 17 31 18
f 19 30 20
f 20 30 39
f 20 39 21
f 21 39 37
f 22 40 23
f 22 35 41
f 22 41 40
f 23 40 24
f 24 40 42
f 24 42 25
f 25 42 43
f 25 43 26
f 26 43 27
f 27 43 44
f 28 45 29
f 28 46 45
f 29 45 47
f 29 47 30
f 30 47 39
f 31 36 48
f 31 48 32
f 32 49 50
f 32 50 33
f 32 48 51
f 32 51 49
f 33 50 52
f 33 52 34
f 34 52 35
f 35 52 53
f 35 53 41
f 36 38 54
f 36 54 48
f 37 39 55
f 37 55 56
f 37 56 38
f 38 56 54
f 39 47 57
f 39 57 55
f 40 41 58
f 40 58 42
f 41 59 58
f 41 53 60
f 41 60 61
f 41 61 59
f 42 58 62
f 42 62 63
f 42 63 43
f 43 63 44
f 45 64 47
f 45 46 64
f 46 65 66
f 46 66 67
f 46 67 47
f 46 47 64
f 47 67 57
f 48 54 68
f 48 68 51
f 49 69 50
f 49 51 68
f 49 68 92
f 49 92 118
f 49 118 117
f 49 117 144
f 49 144 167
f 49 167 194
f 49 194 231
f 49 231 276
f 49 276 321
f 49 321 320
f 49 320 334
f 49 334 285
f 49 285 239
f 49 239 196
f 49 196 168
f 49 168 145
f 49 145 120
f 49 120 119
f 49 119 93
f 49 93 69
f 50 69 70
f 50 70 52
f 52 70 71
f 52 71 72
f 52 72 53
f 53 72 60
f 54 56 73
f 54 73 74
f 54 74 68
f 55 57 75
f 55 75 76
f 55 76 77
f 55 77 56
f 56 77 73
f 57 67 78
f 57 78 75
f 58 59 62
f 59 79 80
f 59 80 62
f 59 61 81
f 59 81 79
f 60 82 83
f 60 83 84
f 60 84 85
f 60 85 61
f 60 72 82
f 61 85 86
f 61 86 81
f 62 80 87
f 62 87 63
f 65 88 89
f 65 89 78
f 65 78 66
f 66 78 67
f 68 74 90
f 68 90 91
f 68 91 92
f 69 93 94
f 69 94 70
f 70 94 71
f 71 94 82
f 71 82 72
f 73 77 74
f 74 77 95
f 74 95 96
f 74 96 90
f 75 78 97
f 75 97 76
f 76 97 98
f 76 98 99
f 76 99 100
f 76 100 101
f 76 101 77
f 77 101 95
f 78 89 114
f 78 114 102
f 78 102 97
f 79 103 80
f 79 81 104
f 79 104 105
f 79 105 103
f 80 103 87
f 81 86 104
f 82 94 106
f 82 106 83
f 83 106 107
f 83 107 108
f 83 108 109
f 83 109 84
f 84 109 110
f 84 110 111
f 84 111 85
f 85 112 104
f 85 104 86
f 85 111 112
f 88 113 89
f 89 113 114
f 90 96 115
f 90 115 91
f 91 115 116
f 91 116 117
f 91 117 118
f 91 118 92
f 93 119 94
f 94 119 120
f 94 120 121
f 94 121 122
f 94 122 106
f 95 101 96
f 96 101 123
f 96 123 115
f 97 102 98
f 98 102 124
f 98 124 125
f 98 125 99
f 99 125 100
f 100 125 126
f 100 126 127
f 100 127 101
f 101 127 123
f 102 114 138
f 102 138 124
f 104 112 137
f 104 137 128
f 104 128 105
f 106 122 129
f 106 129 107
f 107 129 130
f 107 130 131
f 107 131 132
f 107 132 108
f 108 133 109
f 108 132 133
f 109 133 110
f 110 134 136
f 110 136 111
f 110 133 155
f 110 155 135
f 110 135 156
f 110 156 134
f 111 136 137
f 111 137 112
f 113 138 114
f 115 123 139
f 115 139 140
f 115 140 141
f 115 141 116
f 116 141 117
f 117 141 142
f 117 142 143
f 117 143 144
f 120 145 121
f 121 130 129
f 121 129 122
f 121 145 146
f 121 146 130
f 123 127 147
f 123 147 139
f 124 138 148
f 124 148 125
f 125 148 149
f 125 149 126
f 126 149 175
f 126 175 150
f 126 150 147
f 126 147 127
f 130 146 151
f 130 151 152
f 130 152 131
f 131 152 132
f 132 152 153
f 132 153 154
f 132 154 155
f 132 155 133
f 135 155 157
f 135 157 182
f 135 182 156
f 139 147 158
f 139 158 140
f 140 158 159
f 140 159 142
f 140 142 141
f 142 159 160
f 142 160 161
f 142 161 143
f 143 161 162
f 143 162 163
f 143 163 164
f 143 164 165
f 143 165 166
f 143 166 144
f 144 166 167
f 145 168 169
f 145 169 170
f 145 170 171
f 145 171 146
f 146 171 172
f 146 172 151
f 147 150 173
f 147 173 174
f 147 174 158
f 150 175 205
f 150 205 176
f 150 176 173
f 151 172 152
f 152 172 177
f 152 177 153
f 153 178 179
f 153 179 154
f 153 177 180
f 153 180 178
f 154 181 157
f 154 157 155
f 154 179 181
f 157 181 212
f 157 212 182
f 158 174 159
f 159 174 160
f 160 174 183
f 160 183 184
f 160 184 162
f 160 162 161
f 162 184 185
f 162 185 186
f 162 186 163
f 163 186 187
f 163 187 188
f 163 188 164
f 164 188 165
f 165 188 189
f 165 189 166
f 166 190 167
f 166 189 190
f 167 190 191
f 167 191 192
f 167 192 193
f 167 193 194
f 168 195 169
f 168 196 195
f 169 195 197
f 169 197 198
f 169 198 170
f 170 198 199
f 170 199 171
f 171 199 200
f 171 200 172
f 172 201 177
f 172 200 201
f 173 176 202
f 173 202 174
f 174 202 203
f 174 203 204
f 174 204 183
f 176 205 250
f 176 250 206
f 176 206 202
f 177 201 207
f 177 207 180
f 178 208 209
f 178 209 179
f 178 180 208
f 179 209 181
f 180 207 210
f 180 210 211
f 180 211 208
f 181 209 252
f 181 252 212
f 182 212 213
f 183 214 215
f 183 215 216
f 183 216 217
f 183 217 185
f 183 185 184
f 183 204 214
f 185 218 219
f 185 219 220
f 185 220 221
f 185 221 186
f 185 217 218
f 186 221 187
f 187 221 188
f 188 221 222
f 188 222 189
f 189 223 190
f 189 222 223
f 190 223 191
f 191 224 192
f 191 223 225
f 191 225 224
f 192 224 226
f 192 226 227
f 192 227 228
f 192 228 193
f 193 228 229
f 193 229 194
f 194 229 230
f 194 230 231
f 195 232 233
f 195 233 234
f 195 234 235
f 195 235 197
f 195 196 236
f 195 236 232
f 196 237 238
f 196 238 236
f 196 239 240
f 196 240 237
f 197 235 241
f 197 241 198
f 198 241 242
f 198 242 199
f 199 242 243
f 199 243 200
f 200 243 244
f 200 244 245
f 200 245 201
f 201 246 207
f 201 245 246
f 202 206 247
f 202 247 248
f 202 248 203
f 203 248 249
f 203 249 204
f 204 249 214
f 206 250 294
f 206 294 247
f 207 246 210
f 208 251 209
f 208 211 251
f 209 251 252
f 210 253 254
f 210 254 211
f 210 246 293
f 210 293 253
f 211 254 255
f 211 255 251
f 212 252 213
f 214 256 215
f 214 249 256
f 215 256 257
f 215 257 258
f 215 258 216
f 216 258 217
f 217 258 218
f 218 259 219
f 218 258 259
f 219 260 261
f 219 261 220
f 219 259 260
f 220 261 262
f 220 262 221
f 221 262 263
f 221 263 222
f 222 263 264
f 222 264 223
f 223 264 225
f 224 265 266
f 224 266 226
f 224 225 265
f 225 264 267
f 225 267 268
f 225 268 269
f 225 269 265
f 226 266 227
f 227 266 270
f 227 270 271
f 227 271 228
f 228 271 272
f 228 272 229
f 229 272 230
f 230 273 274
f 230 274 275
f 230 275 276
f 230 276 231
f 230 272 273
f 232 236 277
f 232 277 233
f 233 278 279
f 233 279 280
f 233 280 234
f 233 277 278
f 234 280 281
f 234 281 241
f 234 241 235
f 236 282 277
f 236 238 283
f 236 283 282
f 237 284 238
f 237 240 284
f 238 284 283
f 239 285 240
f 240 285 286
f 240 286 284
f 241 281 242
f 242 287 288
f 242 288 243
f 242 281 287
f 243 288 289
f 243 289 244
f 244 290 291
f 244 291 292
f 244 292 246
f 244 246 245
f 244 289 290
f 246 292 340
f 246 340 293
f 247 294 295
f 247 295 248
f 248 295 296
f 248 296 249
f 249 296 297
f 249 297 256
f 256 297 298
f 256 298 257
f 257 298 299
f 257 299 258
f 258 299 300
f 258 300 259
f 259 300 301
f 259 301 260
f 260 301 302
f 260 302 261
f 261 302 303
f 261 303 262
f 262 303 304
f 262 304 263
f 263 304 346
f 263 346 305
f 263 305 264
f 264 305 267
f 265 269 306
f 265 306 307
f 265 307 308
f 265 308 266
f 266 308 309
f 266 309 270
f 267 310 311
f 267 311 312
f 267 312 313
f 267 313 268
f 267 305 310
f 268 313 269
f 269 313 306
f 270 309 271
f 271 314 315
f 271 315 272
f 271 309 314
f 272 315 273
f 273 316 317
f 273 317 274
f 273 315 316
f 274 317 318
f 274 318 275
f 275 318 319
f 275 319 320
f 275 320 321
f 275 321 276
f 277 282 322
f 277 322 323
f 277 323 278
f 278 323 279
f 279 324 325
f 279 325 326
f 279 326 287
f 279 287 280
f 279 323 327
f 279 327 324
f 280 287 281
f 282 283 328
f 282 328 322
f 283 284 329
f 283 329 328
f 284 286 330
f 284 330 331
f 284 331 329
f 285 332 333
f 285 333 286
f 285 334 335
f 285 335 332
f 286 333 330
f 287 336 288
f 287 326 336
f 288 337 338
f 288 338 289
f 288 336 392
f 288 392 337
f 289 338 339
f 289 339 290
f 290 339 291
f 291 339 292
f 292 339 340
f 295 341 296
f 296 341 342
f 296 342 297
f 297 342 298
f 298 343 299
f 299 343 344
f 299 344 345
f 299 345 300
f 300 345 301
f 305 346 310
f 306 313 347
f 306 347 307
f 307 347 348
f 307 348 349
f 307 349 308
f 308 349 350
f 308 350 351
f 308 351 309
f 309 351 352
f 309 352 353
f 309 353 314
f 310 346 311
f 311 346 354
f 311 354 355
f 311 355 312
f 312 355 356
f 312 356 313
f 313 356 393
f 313 393 347
f 314 353 357
f 314 357 315
f 315 357 358
f 315 358 316
f 316 358 359
f 316 359 360
f 316 360 361
f 316 361 362
f 316 362 363
f 316 363 317
f 317 362 318
f 317 363 362
f 318 362 364
f 318 364 365
f 318 365 366
f 318 366 319
f 319 366 367
f 319 367 320
f 320 367 334
f 322 368 369
f 322 369 323
f 322 328 370
f 322 370 371
f 322 371 372
f 322 372 373
f 322 373 374
f 322 374 368
f 323 375 376
f 323 376 377
f 323 377 327
f 323 369 375
f 324 378 325
f 324 327 379
f 324 379 378
f 325 380 381
f 325 381 326
f 325 378 380
f 326 381 382
f 326 382 336
f 327 377 379
f 328 329 370
f 329 331 370
f 330 333 383
f 330 383 384
f 330 384 331
f 331 385 370
f 331 384 385
f 332 386 387
f 332 387 333
f 332 335 388
f 332 388 389
f 332 389 386
f 333 387 390
f 333 390 383
f 334 367 335
f 335 391 388
f 335 367 391
f 336 382 392
f 347 393 395
f 347 395 348
f 348 394 349
f 348 395 434
f 348 434 394
f 349 396 397
f 349 397 398
f 349 398 350
f 349 394 396
f 350 398 399
f 350 399 351
f 351 399 352
f 352 400 401
f 352 401 353
f 352 399 400
f 353 401 402
f 353 402 357
f 357 402 403
f 357 403 358
f 358 403 359
f 359 404 405
f 359 405 360
f 359 403 404
f 360 405 406
f 360 406 407
f 360 407 361
f 361 407 408
f 361 408 409
f 361 409 410
f 361 410 364
f 361 364 362
f 364 410 411
f 364 411 365
f 365 411 366
f 366 411 412
f 366 412 367
f 367 412 391
f 368 413 414
f 368 414 369
f 368 374 415
f 368 415 416
f 368 416 417
f 368 417 413
f 369 414 375
f 370 418 371
f 370 385 419
f 370 419 418
f 371 418 420
f 371 420 372
f 372 420 373
f 373 415 374
f 373 420 415
f 375 414 421
f 375 421 376
f 376 421 422
f 376 422 379
f 376 379 377
f 378 423 425
f 378 425 380
f 378 379 424
f 378 424 423
f 379 422 424
f 380 425 426
f 380 426 381
f 381 426 382
f 382 426 392
f 383 390 384
f 384 427 385
f 384 390 428
f 384 428 427
f 385 427 419
f 386 429 390
f 386 390 387
f 386 389 430
f 386 430 429
f 388 391 431
f 388 431 432
f 388 432 389
f 389 432 430
f 390 429 428
f 391 433 431
f 391 412 433
f 394 434 435
f 394 435 396
f 396 435 436
f 396 436 397
f 397 436 437
f 397 437 398
f 398 437 438
f 398 438 399
f 399 438 439
f 399 439 400
f 400 439 440
f 400 440 401
f 401 440 441
f 401 441 402
f 402 441 442
f 402 442 403
f 403 442 443
f 403 443 404
f 404 443 476
f 404 476 444
f 404 444 405
f 405 444 406
f 406 445 446
f 406 446 407
f 406 444 445
f 407 446 447
f 407 447 448
f 407 448 408
f 408 448 449
f 408 449 409
f 409 449 450
f 409 450 451
f 409 451 410
f 410 451 452
f 410 452 411
f 411 452 453
f 411 453 412
f 412 453 433
f 413 417 458
f 413 458 454
f 413 454 455
f 413 455 414
f 414 455 463
f 414 463 421
f 415 456 457
f 415 457 416
f 415 420 462
f 415 462 456
f 416 457 458
f 416 458 417
f 418 459 462
f 418 462 420
f 418 419 461
f 418 461 459
f 419 427 460
f 419 460 491
f 419 491 461
f 421 463 422
f 422 463 424
f 423 424 464
f 423 464 465
f 423 465 466
f 423 466 425
f 424 463 464
f 425 466 426
f 427 428 467
f 427 467 460
f 428 429 468
f 428 468 469
f 428 469 470
f 428 470 467
f 429 471 468
f 429 430 472
f 429 472 471
f 430 432 473
f 430 473 472
f 431 433 453
f 431 453 432
f 432 453 474
f 432 474 475
f 432 475 473
f 444 476 477
f 444 477 445
f 445 477 478
f 445 478 446
f 446 478 479
f 446 479 480
f 446 480 447
f 447 480 481
f 447 481 448
f 448 481 482
f 448 482 449
f 449 482 504
f 449 504 483
f 449 483 450
f 450 483 484
f 450 484 451
f 451 484 452
f 452 484 485
f 452 485 486
f 452 486 453
f 453 486 474
f 454 487 455
f 455 487 492
f 455 492 463
f 456 462 457
f 459 488 462
f 459 461 489
f 459 489 488
f 460 467 490
f 460 490 508
f 460 508 491
f 461 491 489
f 463 492 493
f 463 493 464
f 467 470 490
f 468 471 494
f 468 494 469
f 469 495 470
f 469 494 495
f 470 495 496
f 470 496 490
f 471 497 494
f 471 472 498
f 471 498 497
f 472 473 499
f 472 499 500
f 472 500 498
f 473 475 501
f 473 501 499
f 474 486 475
f 475 486 501
f 481 502 482
f 482 502 503
f 482 503 504
f 483 504 505
f 483 505 484
f 484 505 506
f 484 506 485
f 485 506 507
f 485 507 486
f 486 507 515
f 486 515 501
f 490 496 511
f 490 511 508
f 494 497 513
f 494 513 509
f 494 509 510
f 494 510 495
f 495 510 511
f 495 511 496
f 497 512 513
f 497 498 512
f 498 500 517
f 498 517 514
f 498 514 512
f 499 501 515
f 499 515 516
f 499 516 517
f 499 517 500
f 503 505 504
f 509 513 518
f 509 518 519
f 509 519 510
f 510 519 511
f 512 514 517

