# https://github.com/mikedh/trimesh
v 0.03356804 0.00931436 0.02285033
v 0.02972732 0.00931436 0.02285033
v 0.02972732 0.00930938 0.02285033
v 0.02651849 0.00075212 0.02278323
v 0.03356804 -0.00830323 0.02271166
v 0.03407132 -0.00981744 0.02269376
v 0.03407132 0.00830821 0.02283244
v 0.03407132 0.00931436 0.02283691
v 0.03407132 0.00981744 0.02283691
v 0.03356804 0.00981744 0.02284586
v 0.02651849 0.00930938 0.02285033
v 0.02972732 0.00981744 0.02284586
v 0.02623516 -0.00931436 0.02268482
v 0.02651756 -0.00830821 0.02271166
v 0.02974503 -0.00830821 0.02271166
v 0.03356804 -0.00931436 0.02270271
v 0.03356804 -0.00981744 0.02269824
v 0.03356804 -0.01026074 0.02268034
v 0.03407132 -0.01023086 0.02267587
v 0.03433320 -0.01015614 0.02267140
v 0.03433880 -0.00981744 0.02267587
v 0.03440683 0.00881129 0.02274745
v 0.03434532 -0.00830323 0.02268482
v 0.03435744 -0.00578786 0.02269376
v 0.03438073 0.00024905 0.02271613
v 0.03440124 0.01032051 0.02273850
v 0.03407132 0.01032051 0.02281902
v 0.03440683 0.00981744 0.02274745
v 0.03356804 0.01032051 0.02282797
v 0.02972732 0.01000671 0.02284139
v 0.02651849 0.00981246 0.02284586
v 0.02615315 0.00981246 0.02275639
v 0.02615222 0.00930938 0.02275639
v 0.02616247 0.00629093 0.02274745
v 0.02617924 0.00175827 0.02272955
v 0.02621000 -0.00478170 0.02270271
v 0.02609257 -0.00981246 0.02241194
v 0.02623889 -0.00981246 0.02268034
v 0.02651756 -0.00981246 0.02269824
v 0.02974503 -0.00981744 0.02269824
v 0.02974503 -0.01007645 0.02268929
v 0.02651756 -0.01026074 0.02268034
v 0.03356804 -0.01051477 0.02265798
v 0.03407132 -0.01048488 0.02265350
v 0.03407132 -0.01133164 0.02251483
v 0.03437142 -0.01219833 0.02220616
v 0.03440963 -0.01182974 0.02226879
v 0.03442454 -0.01133164 0.02232247
v 0.03440963 -0.01032051 0.02245667
v 0.03443945 -0.00981744 0.02241194
v 0.03450935 0.00931436 0.02241194
v 0.03439751 0.00528478 0.02273402
v 0.03447300 -0.00226633 0.02241194
v 0.03448605 0.00125520 0.02241194
v 0.03450003 0.00578786 0.02241194
v 0.03437794 -0.00075212 0.02271166
v 0.03444504 -0.00881627 0.02241194
v 0.03438633 0.00176325 0.02272060
v 0.03450283 0.01032051 0.02241194
v 0.03446368 0.01082359 0.02241194
v 0.03442081 0.01183472 0.02229116
v 0.03436303 0.01082359 0.02270271
v 0.03407132 0.01082359 0.02274297
v 0.03450842 0.00981744 0.02241194
v 0.02651849 0.01032051 0.02282797
v 0.03356804 0.01082359 0.02275192
v 0.02972732 0.01050979 0.02280113
v 0.02616154 0.01032051 0.02274745
v 0.02600683 0.00981246 0.02241194
v 0.02601521 0.01032051 0.02241194
v 0.02600589 0.00930938 0.02241194
v 0.02601987 0.00527980 0.02241194
v 0.02602919 0.00276442 0.02241194
v 0.02604131 0.00000498 0.02241194
v 0.02605622 -0.00326750 0.02241194
v 0.02606927 -0.00578786 0.02241194
v 0.02608045 -0.00780514 0.02241194
v 0.02613917 -0.01034542 0.02246114
v 0.02624821 -0.01019599 0.02267587
v 0.02597421 -0.01132666 0.02190644
v 0.02612053 -0.01132666 0.02234484
v 0.02651756 -0.01051477 0.02265798
v 0.03356804 -0.01082359 0.02261772
v 0.03356804 -0.01133164 0.02254614
v 0.03407132 -0.01182974 0.02239404
v 0.03407132 -0.01226308 0.02223747
v 0.03407132 -0.01251213 0.02211669
v 0.03407132 -0.01284087 0.02194670
v 0.03436862 -0.01315467 0.02170513
v 0.03440683 -0.01284087 0.02179013
v 0.03443293 -0.01235274 0.02193775
v 0.03451121 -0.01182974 0.02191091
v 0.03452706 -0.01133164 0.02191091
v 0.03452706 0.01132666 0.02191091
v 0.03444970 -0.00780514 0.02241194
v 0.03446275 -0.00478170 0.02241194
v 0.03452240 0.01183472 0.02191091
v 0.03438726 0.01220829 0.02222853
v 0.03432854 0.01108758 0.02266692
v 0.03407132 0.01110252 0.02267140
v 0.02651849 0.01082359 0.02275192
v 0.02620814 0.01082359 0.02270719
v 0.03356804 0.01111746 0.02267587
v 0.02612892 0.01183472 0.02230905
v 0.02606181 0.01082359 0.02241194
v 0.02597421 0.01133164 0.02191091
v 0.02598353 0.01183472 0.02191091
v 0.02500680 -0.00024407 0.00772563
v 0.02614476 -0.01183472 0.02228221
v 0.02651756 -0.01132666 0.02253719
v 0.02500680 -0.00074714 0.00770774
v 0.02500680 -0.00124524 0.00762274
v 0.02500680 -0.00150424 0.00756011
v 0.02500680 -0.00226135 0.00737223
v 0.02500680 -0.00276442 0.00722908
v 0.02500680 -0.00309815 0.00709935
v 0.02597421 -0.01233779 0.02140541
v 0.02599937 -0.01183472 0.02190644
v 0.02702176 -0.01082359 0.02261772
v 0.02702176 -0.01132666 0.02254614
v 0.02974503 -0.01112244 0.02257746
v 0.02974503 -0.01133164 0.02254614
v 0.02974503 -0.01183472 0.02241641
v 0.03356804 -0.01182974 0.02241194
v 0.03356804 -0.01226806 0.02223747
v 0.03356804 -0.01251711 0.02213458
v 0.03356804 -0.01284087 0.02196459
v 0.03407132 -0.01319452 0.02173645
v 0.03407132 -0.01344854 0.02153962
v 0.03407132 -0.01376234 0.02128463
v 0.03438726 -0.01369759 0.02123542
v 0.03442920 -0.01332900 0.02140541
v 0.03450935 -0.01284087 0.02140541
v 0.03452706 -0.01233779 0.02140541
v 0.03452706 0.01233779 0.02140541
v 0.03451028 0.01334394 0.02089991
v 0.03449817 0.01284087 0.02140541
v 0.03444225 0.01236270 0.02193775
v 0.03407132 0.01183472 0.02244325
v 0.03439658 0.01284087 0.02177671
v 0.03435371 0.01313973 0.02168724
v 0.03407132 0.01227802 0.02226879
v 0.03356804 0.01183472 0.02246562
v 0.03356804 0.01136651 0.02260430
v 0.02972732 0.01111746 0.02267587
v 0.02651849 0.01111248 0.02267587
v 0.02625474 0.01110252 0.02267140
v 0.02972732 0.01183472 0.02247009
v 0.02618018 0.01221327 0.02223747
v 0.02609816 0.01236768 0.02194223
v 0.02500587 0.00160386 0.00759143
v 0.02500587 0.00125022 0.00764511
v 0.02500587 0.00075212 0.00767642
v 0.02500587 0.00000498 0.00770774
v 0.02500587 0.00376559 0.00674595
v 0.02500587 0.00333225 0.00698304
v 0.02500587 0.00308818 0.00707698
v 0.02601428 0.01284087 0.02140541
v 0.02599937 0.01334394 0.02090439
v 0.02597421 0.01233779 0.02140541
v 0.02614756 -0.01283589 0.02180802
v 0.02620161 -0.01220331 0.02221511
v 0.02651756 -0.01183472 0.02241194
v 0.02500680 -0.00428361 0.00641044
v 0.02598353 -0.01333896 0.02089991
v 0.02600123 -0.01283589 0.02140541
v 0.02500680 -0.00468209 0.00615993
v 0.02702176 -0.01183472 0.02241641
v 0.02974503 -0.01252209 0.02213458
v 0.02974503 -0.01284087 0.02196459
v 0.02974503 -0.01305505 0.02183486
v 0.03356804 -0.01319950 0.02174092
v 0.03356804 -0.01376732 0.02129358
v 0.03407132 -0.01401139 0.02106096
v 0.03438353 -0.01417576 0.02075229
v 0.03443852 -0.01385698 0.02091333
v 0.03452333 -0.01334394 0.02089991
v 0.03452706 -0.01435010 0.01939237
v 0.03452706 0.01384702 0.01989339
v 0.03452333 0.01435010 0.01939237
v 0.03449351 0.01384702 0.02039889
v 0.03440683 0.01382710 0.02086860
v 0.03441056 0.01331904 0.02139199
v 0.03407132 0.01316463 0.02170513
v 0.03407132 0.01253205 0.02211669
v 0.03437048 0.01365276 0.02121753
v 0.03407132 0.01341866 0.02150830
v 0.03356804 0.01254201 0.02213011
v 0.03356804 0.01228798 0.02227773
v 0.02702176 0.01183472 0.02247009
v 0.02651849 0.01183472 0.02246114
v 0.02651849 0.01228798 0.02227773
v 0.02651849 0.01254201 0.02212564
v 0.02622212 0.01313973 0.02169171
v 0.02615967 0.01284087 0.02179013
v 0.02500587 0.00000498 0.00000000
v 0.02500680 -0.00773042 0.00024604
v 0.02500680 -0.00768559 0.00075601
v 0.02500680 -0.00739670 0.00226803
v 0.02500680 -0.00722237 0.00277353
v 0.02500680 -0.00694343 0.00332377
v 0.02500680 -0.00655990 0.00406188
v 0.02500680 -0.00641545 0.00430792
v 0.02500680 -0.00616641 0.00467475
v 0.02500680 -0.00593728 0.00492973
v 0.02500680 -0.00544417 0.00544418
v 0.02500680 -0.00519014 0.00570811
v 0.02500680 -0.00493113 0.00595862
v 0.02500587 0.00404453 0.00656701
v 0.02614290 0.01332402 0.02140094
v 0.02614756 0.01383208 0.02087307
v 0.02601987 0.01384702 0.02039889
v 0.02598260 0.01434511 0.01939237
v 0.02597421 0.01384702 0.01989339
v 0.02597421 0.01284087 0.02090439
v 0.02500587 0.00547406 0.00547549
v 0.02500587 0.00522501 0.00570364
v 0.02500587 0.00490125 0.00595415
v 0.02612053 -0.01332900 0.02140989
v 0.02620534 -0.01315467 0.02171408
v 0.02651756 -0.01283589 0.02196012
v 0.02651756 -0.01252209 0.02212564
v 0.02651756 -0.01226806 0.02223747
v 0.02598632 -0.01384702 0.02039889
v 0.02610841 -0.01386196 0.02091781
v 0.02702176 -0.01252209 0.02213458
v 0.02702176 -0.01283589 0.02196459
v 0.02651756 -0.01319950 0.02174092
v 0.02974503 -0.01334893 0.02162461
v 0.02651756 -0.01376732 0.02129358
v 0.03356804 -0.01401637 0.02106991
v 0.02974503 -0.01363782 0.02139647
v 0.03407132 -0.01422059 0.02081045
v 0.03435930 -0.01464397 0.02019758
v 0.03442081 -0.01434511 0.02037652
v 0.03452053 -0.01384702 0.02039889
v 0.03450189 -0.01435010 0.01989339
v 0.03452519 -0.01536123 0.01788034
v 0.03452706 -0.01585932 0.01687382
v 0.03452706 0.01485317 0.01838137
v 0.03452706 0.01636240 0.01586282
v 0.03452519 0.01787660 0.01334875
v 0.03452333 0.01939081 0.01082573
v 0.03452053 0.01586430 0.01687382
v 0.03450655 0.01536123 0.01788034
v 0.03448698 0.01485317 0.01888687
v 0.03444318 0.01438496 0.01992918
v 0.03439192 0.01422557 0.02039889
v 0.03434812 0.01412595 0.02068072
v 0.03356804 0.01317459 0.02170961
v 0.03407132 0.01368763 0.02125779
v 0.03356804 0.01342364 0.02151278
v 0.02972732 0.01254201 0.02213011
v 0.02702176 0.01284087 0.02192881
v 0.02651849 0.01316961 0.02170961
v 0.02651849 0.01342364 0.02151278
v 0.02620161 0.01365774 0.02122648
v 0.02500680 0.00024407 -0.00772116
v 0.02500680 -0.00075212 -0.00766748
v 0.02500680 -0.00125022 -0.00763616
v 0.02500680 -0.00159888 -0.00758248
v 0.02500680 -0.00308818 -0.00707698
v 0.02500680 -0.00333225 -0.00698304
v 0.02500680 -0.00377057 -0.00674595
v 0.02500680 -0.00404453 -0.00656701
v 0.02500680 -0.00490125 -0.00595415
v 0.02500680 -0.00522501 -0.00570364
v 0.02500680 -0.00547406 -0.00547549
v 0.02500680 -0.00613154 -0.00465238
v 0.02500680 -0.00657982 -0.00407978
v 0.02500680 -0.00674420 -0.00377558
v 0.02500680 -0.00695838 -0.00331482
v 0.02500680 -0.00737678 -0.00226803
v 0.02500680 -0.00750628 -0.00184753
v 0.02500680 -0.00756605 -0.00159702
v 0.02500680 -0.00761088 -0.00125704
v 0.02500680 -0.00770054 -0.00024604
v 0.02500587 0.00771548 0.00000000
v 0.02598353 -0.02492962 -0.00024604
v 0.02597700 -0.02442654 0.00176254
v 0.02597887 -0.02391849 0.00277353
v 0.02597700 -0.02190619 0.00629413
v 0.02597421 -0.01787660 0.01334427
v 0.02597421 -0.01585932 0.01687382
v 0.02597887 -0.01535625 0.01788034
v 0.02597421 -0.01435010 0.01939237
v 0.02616620 0.01423055 0.02039889
v 0.02609723 0.01438496 0.01993365
v 0.02602733 0.01485317 0.01888687
v 0.02600310 0.01535625 0.01788034
v 0.02599098 0.01737353 0.01435080
v 0.02598725 0.02090003 0.00831165
v 0.02597887 0.02291234 0.00478658
v 0.02597514 0.01636738 0.01585835
v 0.02597421 0.01485317 0.01838137
v 0.02500587 0.00657982 0.00407978
v 0.02500587 0.00613154 0.00465238
v 0.02500587 0.00567827 0.00522498
v 0.02618111 -0.01370755 0.02124437
v 0.02598912 -0.01484819 0.01888687
v 0.02600962 -0.01435010 0.01989339
v 0.02618577 -0.01417576 0.02076124
v 0.02612892 -0.01435010 0.02038100
v 0.02651756 -0.01401139 0.02106991
v 0.02974503 -0.01401637 0.02106991
v 0.03356804 -0.01422557 0.02081939
v 0.03356804 -0.01447960 0.02048388
v 0.03407132 -0.01466389 0.02022442
v 0.03407132 -0.01486811 0.01989339
v 0.03407132 -0.01520682 0.01932526
v 0.03434346 -0.01613327 0.01766114
v 0.03438167 -0.01517195 0.01925816
v 0.03440124 -0.01472865 0.01989339
v 0.03451867 -0.01485815 0.01888687
v 0.03441801 -0.01527655 0.01888687
v 0.03449071 -0.01585932 0.01737037
v 0.03452333 -0.01939081 0.01082573
v 0.03452519 -0.02392347 0.00276906
v 0.03452706 -0.01989388 0.00981920
v 0.03452706 -0.01787660 0.01334875
v 0.03452706 0.01989388 0.00981920
v 0.03452519 0.02291732 0.00478211
v 0.03451587 0.02241424 0.00578863
v 0.03451121 0.02392347 0.00327008
v 0.03450655 0.02039696 0.00931370
v 0.03450003 0.02191116 0.00679963
v 0.03449444 0.01837968 0.01284325
v 0.03448698 0.01989388 0.01032470
v 0.03447953 0.01636240 0.01637279
v 0.03442547 0.01687543 0.01584940
v 0.03443013 0.01536621 0.01837689
v 0.03441149 0.01484819 0.01935658
v 0.03438819 0.01467884 0.01978155
v 0.03433973 0.01512214 0.01916422
v 0.03407132 0.01457424 0.02011259
v 0.03407132 0.01436504 0.02039889
v 0.03407132 0.01414090 0.02070308
v 0.02972732 0.01317459 0.02170961
v 0.03356804 0.01394166 0.02095807
v 0.03356804 0.01368763 0.02126226
v 0.02972732 0.01368763 0.02126226
v 0.02651849 0.01368265 0.02125779
v 0.02622957 0.01412097 0.02068966
v 0.02600683 -0.00931436 -0.02241194
v 0.02600683 -0.00981246 -0.02241194
v 0.02597421 -0.01133164 -0.02190644
v 0.02500680 0.00074714 -0.00770774
v 0.02597421 0.01132666 -0.02190644
v 0.02598353 -0.01183472 -0.02190644
v 0.02597421 -0.01233779 -0.02140541
v 0.02597421 -0.01384702 -0.01989339
v 0.02598260 -0.01435010 -0.01938789
v 0.02597421 -0.01484819 -0.01838137
v 0.02597607 -0.01636738 -0.01585835
v 0.02597421 -0.01988890 -0.00982368
v 0.02597607 -0.02140311 -0.00730066
v 0.02597421 -0.02342039 -0.00377558
v 0.02598632 -0.02442654 -0.00225909
v 0.02597421 -0.02442654 -0.00176254
v 0.02500587 0.00770054 0.00024604
v 0.02598260 0.02492962 0.00024604
v 0.02500680 0.00773042 -0.00024604
v 0.02500680 0.00768559 -0.00075601
v 0.02500680 0.00755111 -0.00149860
v 0.02500680 0.00739670 -0.00226803
v 0.02500680 0.00722237 -0.00277353
v 0.02500680 0.00694343 -0.00332377
v 0.02500680 0.00655990 -0.00406188
v 0.02500680 0.00641545 -0.00430792
v 0.02500680 0.00616641 -0.00467475
v 0.02500680 0.00567827 -0.00519366
v 0.02500680 0.00519014 -0.00570811
v 0.02500680 0.00493113 -0.00595862
v 0.02500680 0.00468707 -0.00615993
v 0.02500680 0.00428361 -0.00641044
v 0.02500680 0.00403954 -0.00655806
v 0.02500680 0.00309815 -0.00709935
v 0.02500680 0.00276442 -0.00722908
v 0.02500680 0.00226135 -0.00737223
v 0.02500680 0.00125022 -0.00761380
v 0.02599285 -0.02492962 -0.00075601
v 0.02612892 -0.02530319 -0.00024604
v 0.02605995 -0.02511889 0.00000000
v 0.02599191 -0.02492962 0.00024604
v 0.02600776 -0.02492962 0.00075601
v 0.02602640 -0.02442654 0.00226803
v 0.02598819 -0.02341541 0.00378006
v 0.02599098 -0.01687045 0.01535732
v 0.02617924 0.01468880 0.01979498
v 0.02611401 0.01537617 0.01838137
v 0.02612146 0.01688539 0.01585387
v 0.02602826 0.01989388 0.01032470
v 0.02602081 0.02342039 0.00427661
v 0.02599844 0.02392347 0.00327456
v 0.02598632 0.02442156 0.00225909
v 0.02597421 0.02342039 0.00377558
v 0.02597607 0.02140311 0.00730066
v 0.02500587 0.00674420 0.00377558
v 0.02600589 -0.01636738 0.01636385
v 0.02602360 -0.01585932 0.01737037
v 0.02613451 -0.01528651 0.01888687
v 0.02610282 -0.01488804 0.01941473
v 0.02615594 -0.01473861 0.01989339
v 0.02621559 -0.01464397 0.02020206
v 0.02651756 -0.01422557 0.02081492
v 0.02974503 -0.01422557 0.02081939
v 0.02974503 -0.01447960 0.02048388
v 0.02974503 -0.01459416 0.02033179
v 0.03356804 -0.01466389 0.02023337
v 0.03356804 -0.01488306 0.01989339
v 0.03356804 -0.01507233 0.01958472
v 0.03356804 -0.01547081 0.01888687
v 0.03407132 -0.01614323 0.01767904
v 0.03432668 -0.02216519 0.00705462
v 0.03434532 -0.02470049 0.00255433
v 0.03436396 -0.01665627 0.01669488
v 0.03437608 -0.01919157 0.01219013
v 0.03438260 -0.02373917 0.00415135
v 0.03438726 -0.01971955 0.01121939
v 0.03450562 -0.01636738 0.01636385
v 0.03451494 -0.01888275 0.01183672
v 0.03451960 -0.02342039 0.00377558
v 0.03441801 -0.02384377 0.00377558
v 0.03448232 -0.01989388 0.01032470
v 0.03448698 -0.01787660 0.01384977
v 0.03449164 -0.02442654 0.00225909
v 0.03452519 -0.02442654 0.00176254
v 0.03452706 -0.02241424 0.00528761
v 0.03452706 0.02342039 0.00377558
v 0.03452053 0.02442654 0.00226356
v 0.03449351 0.02342039 0.00428108
v 0.03444131 0.02446141 0.00280037
v 0.03441895 0.01838466 0.01332191
v 0.03441522 0.01779193 0.01435080
v 0.03438819 0.01972453 0.01121044
v 0.03438353 0.01618806 0.01724064
v 0.03436582 0.01565510 0.01820243
v 0.03436489 0.02069084 0.00964026
v 0.03434718 0.02369434 0.00456738
v 0.03432948 0.01662140 0.01663225
v 0.03407132 0.01513210 0.01918211
v 0.03356804 0.01458420 0.02012154
v 0.03356804 0.01437998 0.02039889
v 0.03356804 0.01414588 0.02070756
v 0.02972732 0.01394166 0.02095807
v 0.02651849 0.01393668 0.02095807
v 0.02651849 0.01414090 0.02070308
v 0.02651849 0.01437500 0.02039889
v 0.02651849 0.01457922 0.02012154
v 0.02623982 0.01512712 0.01917317
v 0.02600776 -0.00880133 -0.02241194
v 0.02615222 -0.00931436 -0.02275639
v 0.02615315 -0.00981246 -0.02275639
v 0.02601521 -0.01032051 -0.02241194
v 0.02599937 0.01182974 -0.02190644
v 0.02612053 0.01132666 -0.02234036
v 0.02609257 0.00981246 -0.02241194
v 0.02607486 0.00679401 -0.02241194
v 0.02606368 0.00477672 -0.02241194
v 0.02605343 0.00276442 -0.02241194
v 0.02603758 -0.00075212 -0.02241194
v 0.02601801 -0.00577789 -0.02241194
v 0.02601615 -0.00629093 -0.02241194
v 0.02597421 0.01233779 -0.02140541
v 0.02606275 -0.01082359 -0.02241194
v 0.02612892 -0.01183472 -0.02230905
v 0.02609816 -0.01236768 -0.02194223
v 0.02601428 -0.01284087 -0.02140541
v 0.02599937 -0.01333896 -0.02089991
v 0.02602733 -0.01484819 -0.01888239
v 0.02600310 -0.01535625 -0.01788034
v 0.02598725 -0.02090003 -0.00831165
v 0.02597980 -0.02291732 -0.00478211
v 0.02601987 -0.01384702 -0.02039889
v 0.02610096 -0.02446639 -0.00280485
v 0.02613265 -0.02483498 -0.00225909
v 0.02603945 -0.02492962 -0.00125704
v 0.02599844 -0.02392347 -0.00327456
v 0.02500587 0.00761088 0.00125704
v 0.02599191 0.02492962 -0.00024604
v 0.02597700 0.02442156 -0.00176254
v 0.02500587 0.00756605 0.00160149
v 0.02597421 0.02442156 0.00176254
v 0.02599285 0.02492962 0.00075601
v 0.02612892 0.02530817 0.00024604
v 0.02606088 0.02512387 0.00000000
v 0.02597887 0.02391849 -0.00277353
v 0.02597700 0.02191116 -0.00629413
v 0.02597421 0.01787660 -0.01334427
v 0.02597421 0.01585434 -0.01687382
v 0.02597887 0.01535625 -0.01787140
v 0.02597421 0.01434511 -0.01938789
v 0.02598725 0.01384702 -0.02039889
v 0.02598353 0.01334394 -0.02089991
v 0.02613917 -0.02529821 -0.00075601
v 0.02651756 -0.02543767 -0.00024604
v 0.02613358 -0.02530319 0.00000000
v 0.02612332 -0.02485490 0.00176254
v 0.02613824 -0.02529323 0.00024604
v 0.02615408 -0.02527330 0.00075601
v 0.02617179 -0.02476525 0.00226803
v 0.02613358 -0.02442654 0.00274669
v 0.02614662 -0.02331081 0.00478658
v 0.02612798 -0.02241922 0.00628071
v 0.02604224 -0.02190619 0.00679963
v 0.02601801 -0.02240926 0.00579311
v 0.02600030 -0.02291234 0.00478658
v 0.02620814 0.01566008 0.01821585
v 0.02618484 0.01619304 0.01725853
v 0.02614942 0.01575472 0.01788034
v 0.02613824 0.02283762 0.00579311
v 0.02612239 0.02192113 0.00729171
v 0.02611494 0.02041688 0.00981920
v 0.02611028 0.02394339 0.00378453
v 0.02614383 0.02432692 0.00327456
v 0.02610096 0.02446639 0.00280932
v 0.02613171 0.02483996 0.00225909
v 0.02603945 0.02492962 0.00125704
v 0.02500587 0.00695838 0.00331482
v 0.02603572 -0.01988890 0.01032470
v 0.02611960 -0.01839960 0.01333533
v 0.02618390 -0.02173185 0.00769879
v 0.02618856 -0.01517693 0.01926711
v 0.02651756 -0.01466389 0.02023337
v 0.02623516 -0.01613327 0.01766114
v 0.02651756 -0.01521678 0.01932974
v 0.02651756 -0.01487807 0.01989339
v 0.02974503 -0.01479838 0.02003207
v 0.02702176 -0.01507233 0.01958472
v 0.02974503 -0.01983411 0.01119255
v 0.03356804 -0.01983411 0.01119255
v 0.03407132 -0.02270812 0.00611519
v 0.03407132 -0.01815055 0.01414502
v 0.03422603 -0.02417251 0.00352060
v 0.03407132 -0.02471046 0.00257670
v 0.03407132 -0.02484494 0.00225909
v 0.03407132 -0.02525836 0.00121230
v 0.03437328 -0.02522847 0.00113625
v 0.03439099 -0.02475528 0.00225909
v 0.03439099 -0.02426217 0.00318509
v 0.03436862 -0.02321617 0.00511762
v 0.03449910 -0.02039696 0.00931818
v 0.03450935 -0.02291732 0.00478211
v 0.03451214 -0.02090003 0.00831165
v 0.03441615 -0.02442654 0.00273775
v 0.03442547 -0.02484494 0.00176254
v 0.03450748 -0.02492962 0.00075601
v 0.03452706 -0.02442654 0.00125704
v 0.03451960 -0.02492962 0.00024604
v 0.03452519 -0.02492962 -0.00024604
v 0.03452706 0.02442654 0.00176254
v 0.03452426 0.02492962 0.00025051
v 0.03451680 0.02492962 0.00075154
v 0.03448232 0.02492962 0.00125704
v 0.03441988 0.02482502 0.00226356
v 0.03440963 0.02431696 0.00327008
v 0.03443293 0.02393841 0.00377558
v 0.03441801 0.02342039 0.00475527
v 0.03438353 0.02474532 0.00265275
v 0.03439005 0.02325104 0.00518919
v 0.03438353 0.02122380 0.00867847
v 0.03437142 0.02422730 0.00361007
v 0.03407132 0.02479015 0.00272433
v 0.03407132 0.02425719 0.00365927
v 0.03432761 0.02165714 0.00806114
v 0.03407132 0.02166710 0.00807009
v 0.03356804 0.01982913 0.01121044
v 0.03356804 0.01663137 0.01664567
v 0.02972732 0.01458420 0.02012154
v 0.02972732 0.01498766 0.01943710
v 0.02972732 0.01437998 0.02039889
v 0.02972732 0.01414588 0.02070756
v 0.02651849 0.01498766 0.01943710
v 0.02625380 0.01662639 0.01663673
v 0.02625567 0.02166212 0.00807456
v 0.02623050 0.02369932 0.00458080
v 0.02617831 -0.00225637 -0.02272955
v 0.02651756 -0.00931436 -0.02285033
v 0.02651756 -0.00981246 -0.02284586
v 0.02616154 -0.01032051 -0.02274297
v 0.02614476 0.01182974 -0.02228221
v 0.02600123 0.01283589 -0.02140541
v 0.02614756 0.01283589 -0.02180355
v 0.02611028 0.01235772 -0.02194223
v 0.02624821 0.01019599 -0.02267140
v 0.02613917 0.01034542 -0.02246114
v 0.02623889 0.00981246 -0.02268034
v 0.02623237 0.00880631 -0.02268482
v 0.02621746 0.00629093 -0.02269376
v 0.02619043 0.00074714 -0.02271613
v 0.02618763 -0.00000498 -0.02272060
v 0.02618204 -0.00125022 -0.02272508
v 0.02625474 -0.01110252 -0.02267140
v 0.02618111 -0.01221825 -0.02223747
v 0.02620907 -0.01082359 -0.02270719
v 0.02616060 -0.01284087 -0.02179013
v 0.02614290 -0.01331904 -0.02139647
v 0.02614756 -0.01383208 -0.02087307
v 0.02614010 -0.01485815 -0.01935658
v 0.02611401 -0.01537119 -0.01838137
v 0.02612146 -0.01688041 -0.01585387
v 0.02611494 -0.02041688 -0.00981920
v 0.02602919 -0.01988890 -0.01032470
v 0.02602081 -0.02342039 -0.00427661
v 0.02601149 -0.01687045 -0.01535732
v 0.02609723 -0.01438994 -0.01992918
v 0.02600403 -0.02039696 -0.00931818
v 0.02616620 -0.01423553 -0.02039889
v 0.02614476 -0.02432692 -0.00327456
v 0.02618484 -0.02475528 -0.00266170
v 0.02623423 -0.02519859 -0.00159254
v 0.02618577 -0.02523844 -0.00125704
v 0.02600776 0.02492962 -0.00075601
v 0.02602640 0.02442156 -0.00226803
v 0.02500587 0.00750628 0.00184753
v 0.02500587 0.00737678 0.00225909
v 0.02500587 0.00717754 0.00277353
v 0.02613917 0.02529821 0.00075601
v 0.02651849 0.02544265 0.00024604
v 0.02613358 0.02530319 0.00000000
v 0.02598819 0.02341541 -0.00377558
v 0.02598539 0.02140311 -0.00730066
v 0.02598912 0.01485317 -0.01888687
v 0.02610841 0.01386196 -0.02091781
v 0.02600962 0.01434511 -0.01989339
v 0.02651756 -0.02541277 -0.00075601
v 0.02991931 -0.02544265 -0.00024604
v 0.02651756 -0.02542273 0.00000000
v 0.02619882 -0.02523346 0.00114967
v 0.02651756 -0.02536296 0.00075601
v 0.02623330 -0.02470049 0.00256328
v 0.02618670 -0.02374415 0.00415583
v 0.02620068 0.02423228 0.00362349
v 0.02618577 0.02122878 0.00869190
v 0.02615035 0.02079045 0.00931818
v 0.02618390 0.02475528 0.00266170
v 0.02623423 0.02520357 0.00159254
v 0.02618484 0.02524342 0.00125704
v 0.02620441 -0.02321617 0.00512656
v 0.02622212 -0.02068087 0.00963132
v 0.02702176 -0.01488306 0.01989339
v 0.02625660 -0.02216519 0.00705909
v 0.02626312 -0.02417251 0.00352954
v 0.02651756 -0.02432194 0.00327456
v 0.02702176 -0.02346522 0.00478658
v 0.02974503 -0.02471544 0.00258118
v 0.03356804 -0.02471544 0.00258118
v 0.03389051 -0.02417749 0.00352507
v 0.03356804 -0.02485490 0.00225909
v 0.03356804 -0.02505912 0.00176254
v 0.03356804 -0.02526334 0.00121678
v 0.03356804 -0.02536794 0.00075601
v 0.03407132 -0.02535798 0.00075601
v 0.03356804 -0.02516870 0.00147176
v 0.03440683 -0.02526334 0.00075601
v 0.03441895 -0.02528326 0.00024604
v 0.03452706 -0.02442654 -0.00176254
v 0.03442361 -0.02529323 -0.00024604
v 0.03451774 -0.02492962 -0.00075601
v 0.03452146 -0.02442654 -0.00226803
v 0.03452706 0.02442654 -0.00125704
v 0.03452612 0.02442654 -0.00176254
v 0.03452240 0.02492962 0.00000447
v 0.03442267 0.02529323 0.00025051
v 0.03441615 0.02528326 0.00075154
v 0.03438167 0.02523844 0.00125704
v 0.03434439 0.02519859 0.00157912
v 0.03407132 0.02498939 0.00226356
v 0.03356804 0.02501429 0.00226356
v 0.03356804 0.02479513 0.00273327
v 0.03356804 0.02466065 0.00298378
v 0.02972732 0.02126862 0.00876347
v 0.02972639 0.01982913 0.01121044
v 0.02972732 0.01663137 0.01664567
v 0.02651849 0.02126862 0.00876347
v 0.02651849 0.02465566 0.00298378
v 0.02651849 0.02479513 0.00273775
v 0.02991651 -0.00931436 -0.02285033
v 0.02991931 -0.00931934 -0.02285033
v 0.02991931 -0.00982242 -0.02284586
v 0.02651756 0.00830821 -0.02270719
v 0.02975808 0.00858714 -0.02270719
v 0.02651756 -0.01032051 -0.02282797
v 0.02620161 0.01220331 -0.02221063
v 0.02651756 0.01132666 -0.02253272
v 0.02612053 0.01333398 -0.02140989
v 0.02620441 0.01315965 -0.02171408
v 0.02651756 0.01051477 -0.02265350
v 0.02651756 0.01026074 -0.02267587
v 0.02651756 0.00981246 -0.02269376
v 0.02651756 -0.01111248 -0.02267140
v 0.02651756 -0.01183472 -0.02246114
v 0.02651756 -0.01082359 -0.02274745
v 0.02651756 -0.01228798 -0.02227773
v 0.02651756 -0.01254201 -0.02212564
v 0.02622305 -0.01314471 -0.02169171
v 0.02620161 -0.01365774 -0.02122648
v 0.02618018 -0.01468880 -0.01979050
v 0.02614942 -0.01575472 -0.01788034
v 0.02613824 -0.02283762 -0.00579311
v 0.02611028 -0.02394339 -0.00378453
v 0.02623050 -0.01412595 -0.02068519
v 0.02616713 -0.02378400 -0.00427661
v 0.02620161 -0.02423228 -0.00361901
v 0.02651756 -0.02479513 -0.00273327
v 0.02651756 -0.02500931 -0.00225909
v 0.02651756 -0.02514380 -0.00188779
v 0.02651756 -0.02521353 -0.00163728
v 0.02651756 -0.02530319 -0.00125704
v 0.02612332 0.02485988 -0.00176254
v 0.02613824 0.02528825 -0.00024604
v 0.02615408 0.02526832 -0.00075601
v 0.02617179 0.02476525 -0.00226803
v 0.02613358 0.02443152 -0.00274669
v 0.02604970 0.02391849 -0.00327456
v 0.02601801 0.02241424 -0.00579311
v 0.02600123 0.02291234 -0.00478658
v 0.02651849 0.02540779 0.00075601
v 0.02972639 0.02541277 0.00075154
v 0.02972639 0.02544265 0.00025051
v 0.02972732 0.02544265 0.00024604
v 0.02975714 0.02540779 -0.00025051
v 0.02651756 0.02536296 -0.00075601
v 0.02599378 0.01888275 -0.01183672
v 0.02600496 0.01636738 -0.01636385
v 0.02602360 0.01585434 -0.01737037
v 0.02618111 0.01370257 -0.02124437
v 0.02612892 0.01434511 -0.02038100
v 0.02618577 0.01418074 -0.02076124
v 0.02610282 0.01488804 -0.01941473
v 0.02615594 0.01473861 -0.01989339
v 0.02991931 -0.02530817 -0.00125704
v 0.03356897 -0.02541277 -0.00075601
v 0.03356897 -0.02544265 -0.00024604
v 0.02974503 -0.02540779 0.00024604
v 0.02974503 -0.02536794 0.00075601
v 0.02651756 -0.02525836 0.00122125
v 0.02651756 -0.02485490 0.00226803
v 0.02651756 -0.02471046 0.00258118
v 0.02651849 0.02500931 0.00225909
v 0.02651849 0.02514380 0.00188779
v 0.02651849 0.02521353 0.00163728
v 0.02651849 0.02530817 0.00125704
v 0.02651756 -0.02457099 0.00283169
v 0.02974503 -0.02480011 0.00239329
v 0.02974503 -0.02485490 0.00226803
v 0.02974503 -0.02505912 0.00176254
v 0.02974503 -0.02526334 0.00121678
v 0.03356804 -0.02540779 0.00024604
v 0.03382434 -0.02541775 0.00000000
v 0.03407132 -0.02539284 0.00024604
v 0.03407132 -0.02542273 -0.00024604
v 0.03424839 -0.02535300 0.00000000
v 0.03452706 -0.02342039 -0.00377558
v 0.03441615 -0.02528326 -0.00075601
v 0.03448232 -0.02492962 -0.00125704
v 0.03441988 -0.02482502 -0.00226803
v 0.03444131 -0.02446141 -0.00280037
v 0.03451214 -0.02392347 -0.00327456
v 0.03451587 -0.02241424 -0.00579311
v 0.03452333 -0.01939081 -0.01083020
v 0.03452519 -0.02291732 -0.00478211
v 0.03452706 0.02291732 -0.00428108
v 0.03449164 0.02442654 -0.00226356
v 0.03450748 0.02492962 -0.00075154
v 0.03451960 0.02492962 -0.00025051
v 0.03452706 0.02240926 -0.00528313
v 0.03452612 0.02191116 -0.00629413
v 0.03452519 0.02392347 -0.00276906
v 0.03442174 0.02528825 0.00000447
v 0.03407132 0.02542273 0.00025051
v 0.03407132 0.02539783 0.00075154
v 0.03407132 0.02529821 0.00125704
v 0.03407132 0.02521353 0.00162386
v 0.03407132 0.02513882 0.00187437
v 0.03356804 0.02514878 0.00188779
v 0.02972639 0.02501429 0.00226356
v 0.02972732 0.02479513 0.00273775
v 0.02972732 0.02471046 0.00289432
v 0.02702176 0.02466065 0.00298378
v 0.02702176 0.02501429 0.00225909
v 0.03356897 -0.00931934 -0.02285033
v 0.03356897 -0.00982242 -0.02284586
v 0.02991651 -0.01020097 -0.02283244
v 0.02975808 0.00959828 -0.02269824
v 0.02991651 -0.01032051 -0.02282797
v 0.02991931 -0.01082857 -0.02274745
v 0.02651756 0.01182974 -0.02240746
v 0.02651756 0.01252209 -0.02212564
v 0.02651756 0.01226806 -0.02223747
v 0.02702176 0.01132666 -0.02254614
v 0.02651756 0.01376234 -0.02128910
v 0.02651756 0.01344854 -0.02154409
v 0.02651756 0.01319950 -0.02174092
v 0.02651756 0.01283589 -0.02195565
v 0.02702176 0.01082359 -0.02261772
v 0.02702176 0.01051477 -0.02265798
v 0.02975808 0.01040519 -0.02266692
v 0.02975808 0.01026074 -0.02267587
v 0.02975808 0.01006648 -0.02268482
v 0.02975808 0.00981246 -0.02269376
v 0.02702176 -0.01183472 -0.02246562
v 0.02991931 -0.01104773 -0.02269376
v 0.02991931 -0.01229297 -0.02227773
v 0.02702176 -0.01254201 -0.02213011
v 0.02651756 -0.01316463 -0.02170961
v 0.02651756 -0.01342364 -0.02151278
v 0.02651756 -0.01368763 -0.02126226
v 0.02623982 -0.01512712 -0.01916869
v 0.02618577 -0.01619304 -0.01725406
v 0.02615035 -0.02079045 -0.00931818
v 0.02617645 -0.02326100 -0.00519814
v 0.02651756 -0.01393170 -0.02095807
v 0.02651756 -0.01413591 -0.02070308
v 0.02651756 -0.01437002 -0.02039889
v 0.02651756 -0.01458420 -0.02011706
v 0.02623050 -0.02369932 -0.00457633
v 0.02651756 -0.02465566 -0.00298378
v 0.02702176 -0.02466065 -0.00298378
v 0.03356897 -0.02479513 -0.00273327
v 0.02991931 -0.02501429 -0.00226803
v 0.02702176 -0.02501429 -0.00225909
v 0.02702176 -0.02514878 -0.00188779
v 0.02991931 -0.02515376 -0.00188779
v 0.02619975 0.02523346 -0.00114967
v 0.02623330 0.02470049 -0.00256328
v 0.02618670 0.02374415 -0.00415583
v 0.02614662 0.02331081 -0.00478658
v 0.02612332 0.02041190 -0.00981026
v 0.02604317 0.02191116 -0.00679963
v 0.02603572 0.01989388 -0.01032917
v 0.02602919 0.01787660 -0.01384977
v 0.03356804 0.02541277 0.00075154
v 0.03356804 0.02544265 0.00025051
v 0.03356804 0.02540779 -0.00025051
v 0.02975714 0.02536794 -0.00075154
v 0.02651756 0.02525836 -0.00122125
v 0.02613451 0.01528153 -0.01888687
v 0.02651756 0.01401637 -0.02106991
v 0.02621559 0.01463899 -0.02020206
v 0.02618856 0.01517195 -0.01926264
v 0.03356897 -0.02530817 -0.00125704
v 0.03407132 -0.02529821 -0.00125704
v 0.03407132 -0.02539783 -0.00075601
v 0.02702176 0.02514878 0.00188779
v 0.02972639 0.02517866 0.00179385
v 0.03356804 0.02530817 0.00125704
v 0.03452706 -0.01989388 -0.00982368
v 0.03438167 -0.02523844 -0.00125704
v 0.03438539 -0.02475030 -0.00265275
v 0.03434439 -0.02519859 -0.00157912
v 0.03441056 -0.02431696 -0.00327456
v 0.03443386 -0.02393841 -0.00378006
v 0.03449351 -0.02342039 -0.00427661
v 0.03450003 -0.02191116 -0.00679963
v 0.03450748 -0.01536123 -0.01788034
v 0.03451680 -0.01737353 -0.01435080
v 0.03452426 -0.01435508 -0.01938789
v 0.03452706 -0.01636738 -0.01585835
v 0.03441708 0.02442654 -0.00273775
v 0.03439005 0.02475528 -0.00226356
v 0.03442454 0.02484494 -0.00176254
v 0.03451960 0.02342039 -0.00377558
v 0.03450935 0.02291732 -0.00478211
v 0.03449910 0.02039696 -0.00931370
v 0.03447766 0.02191116 -0.00679963
v 0.03441895 0.02384377 -0.00377558
v 0.03440683 0.02526334 -0.00075154
v 0.03441895 0.02528326 -0.00025051
v 0.03452706 0.01989388 -0.00973868
v 0.03452146 0.02140311 -0.00730066
v 0.03407225 0.02539284 -0.00025051
v 0.03356804 0.02521353 0.00163728
v 0.03378799 -0.00853235 -0.02283691
v 0.03407132 -0.00881627 -0.02283244
v 0.03407132 -0.00931934 -0.02283691
v 0.03407132 -0.00982242 -0.02283244
v 0.03407132 -0.01032549 -0.02281455
v 0.03356897 -0.01032549 -0.02282349
v 0.03407132 -0.00853235 -0.02282797
v 0.03356897 -0.01082857 -0.02274745
v 0.02702176 0.01182974 -0.02241194
v 0.02702176 0.01252209 -0.02213011
v 0.02702176 0.01283589 -0.02196459
v 0.02975808 0.01226806 -0.02223747
v 0.02975808 0.01111248 -0.02257746
v 0.02975808 0.01161556 -0.02247009
v 0.02975808 0.01132666 -0.02254614
v 0.02975808 0.01376234 -0.02128910
v 0.02975808 0.01344854 -0.02154409
v 0.02975808 0.01319950 -0.02174092
v 0.02975808 0.01082359 -0.02261772
v 0.02975808 0.01068910 -0.02263561
v 0.02975808 0.01051477 -0.02265798
v 0.03440590 -0.00853235 -0.02274297
v 0.03356897 -0.01183472 -0.02246562
v 0.03356897 -0.01111746 -0.02267140
v 0.03356897 -0.01137149 -0.02259982
v 0.02991931 -0.01248224 -0.02216590
v 0.03356897 -0.01229297 -0.02227773
v 0.02991651 -0.01254201 -0.02213011
v 0.03356897 -0.01284585 -0.02192881
v 0.02991931 -0.01309490 -0.02176329
v 0.02991931 -0.01317459 -0.02170961
v 0.02991931 -0.01336885 -0.02156198
v 0.02991931 -0.01342862 -0.02151278
v 0.02991931 -0.01369261 -0.02126226
v 0.02991931 -0.01388189 -0.02102964
v 0.02991931 -0.01409607 -0.02076571
v 0.02651756 -0.01473363 -0.01986655
v 0.02625380 -0.01662639 -0.01663673
v 0.02702176 -0.01437998 -0.02039889
v 0.02991931 -0.01438496 -0.02039889
v 0.02991931 -0.01458918 -0.02011706
v 0.02991931 -0.01470374 -0.01992918
v 0.02625567 -0.02166212 -0.00806561
v 0.02651756 -0.02425719 -0.00366375
v 0.03356897 -0.02466065 -0.00298378
v 0.02651756 -0.02126862 -0.00875452
v 0.02991931 -0.02462080 -0.00305536
v 0.03407132 -0.02479015 -0.00272880
v 0.03356897 -0.02501429 -0.00226803
v 0.03356897 -0.02515376 -0.00188779
v 0.02651756 0.02484992 -0.00226803
v 0.02651756 0.02471046 -0.00258118
v 0.02626312 0.02417251 -0.00352954
v 0.02625660 0.02217017 -0.00705909
v 0.02622118 0.02068585 -0.00963132
v 0.02619602 0.01920153 -0.01219460
v 0.02615874 0.02077053 -0.00931818
v 0.03407225 0.02535798 -0.00075154
v 0.03356804 0.02536794 -0.00075154
v 0.02975714 0.02526334 -0.00121678
v 0.02975714 0.02505912 -0.00176254
v 0.02702176 0.02505414 -0.00176254
v 0.02617831 0.01771223 -0.01476235
v 0.02975808 0.01401637 -0.02106991
v 0.02651756 0.01422059 -0.02081492
v 0.02623516 0.01613825 -0.01766114
v 0.02651756 0.01506735 -0.01958025
v 0.02651756 0.01487807 -0.01989339
v 0.02651756 0.01465891 -0.02022890
v 0.02621093 0.01666125 -0.01669935
v 0.03407132 -0.02521353 -0.00162833
v 0.03407132 -0.02498939 -0.00226803
v 0.03437235 -0.02422730 -0.00360112
v 0.03439005 -0.02325602 -0.00518919
v 0.03407132 -0.02513384 -0.00187885
v 0.03441522 -0.02282268 -0.00579311
v 0.03441335 -0.01485815 -0.01935658
v 0.03448698 -0.01989388 -0.01032917
v 0.03448698 -0.01485815 -0.01888687
v 0.03452706 -0.01485815 -0.01838137
v 0.03449444 -0.01385200 -0.02039889
v 0.03451121 -0.01334893 -0.02089991
v 0.03452706 -0.01385200 -0.01989339
v 0.03439005 0.02426217 -0.00318062
v 0.03434532 0.02470049 -0.00254986
v 0.03437328 0.02522847 -0.00113625
v 0.03451214 0.02090003 -0.00830718
v 0.03443386 0.02040194 -0.00973868
v 0.03441056 0.02129353 -0.00830718
v 0.03438446 0.02172687 -0.00768537
v 0.03438260 0.02373917 -0.00415135
v 0.03452706 -0.00853235 -0.02190644
v 0.03450748 -0.00853235 -0.02241194
v 0.03440869 -0.00931934 -0.02274297
v 0.03440869 -0.00982242 -0.02274297
v 0.03440124 -0.01032549 -0.02273402
v 0.03436303 -0.01082857 -0.02269824
v 0.03432854 -0.01109256 -0.02266692
v 0.03407132 -0.01082857 -0.02274297
v 0.03407132 -0.01110750 -0.02267140
v 0.02975808 0.01182974 -0.02241194
v 0.02975808 0.01252209 -0.02213011
v 0.02975808 0.01283589 -0.02196459
v 0.03439937 0.02050156 -0.00973868
v 0.03407132 -0.01183472 -0.02244325
v 0.03407132 -0.01228798 -0.02226879
v 0.03356897 -0.01254201 -0.02212564
v 0.03407132 -0.01316961 -0.02170513
v 0.03356897 -0.01317459 -0.02170961
v 0.03356897 -0.01342862 -0.02151278
v 0.03356897 -0.01369261 -0.02126226
v 0.03356897 -0.01394664 -0.02095360
v 0.02991931 -0.01414588 -0.02070308
v 0.02651756 -0.01648194 -0.01689618
v 0.03356897 -0.01438496 -0.02039889
v 0.03356897 -0.01458918 -0.02011706
v 0.03356897 -0.01473861 -0.01986655
v 0.03356897 -0.01499264 -0.01943710
v 0.03356897 -0.02426217 -0.00366375
v 0.03407132 -0.02425719 -0.00366375
v 0.03434812 -0.02369434 -0.00457186
v 0.02975714 0.02485490 -0.00226356
v 0.02975714 0.02471544 -0.00258118
v 0.02651756 0.02457099 -0.00283169
v 0.02651756 0.02256865 -0.00637465
v 0.02651756 0.01521180 -0.01932974
v 0.03407225 0.02525836 -0.00120783
v 0.03356804 0.02526334 -0.00121678
v 0.03356804 0.02505912 -0.00176254
v 0.02975808 0.01422059 -0.02081492
v 0.03435464 0.02068087 -0.00961790
v 0.02975808 0.01506735 -0.01958025
v 0.02702176 0.01488306 -0.01989339
v 0.02975808 0.01465891 -0.02022890
v 0.03436489 -0.02069084 -0.00964474
v 0.03436676 -0.01565510 -0.01820690
v 0.03438353 -0.01618806 -0.01724064
v 0.03438819 -0.01468382 -0.01978155
v 0.03444318 -0.01438994 -0.01992918
v 0.03440683 -0.01383706 -0.02086860
v 0.03441056 -0.01332402 -0.02139199
v 0.03449817 -0.01284585 -0.02140541
v 0.03452333 -0.01183472 -0.02190644
v 0.03452706 -0.01234277 -0.02140541
v 0.03436955 0.02321617 -0.00511762
v 0.03432668 0.02216519 -0.00705462
v 0.03422603 0.02417251 -0.00351612
v 0.03407225 0.02471046 -0.00257670
v 0.03407225 0.02484494 -0.00226356
v 0.03439751 0.02075559 -0.00931370
v 0.03437235 0.02120387 -0.00865163
v 0.03452706 -0.01133164 -0.02190644
v 0.03451028 -0.00931934 -0.02241194
v 0.03450283 -0.01032549 -0.02241194
v 0.03450935 -0.00982242 -0.02241194
v 0.03446368 -0.01082857 -0.02241194
v 0.03442267 -0.01183472 -0.02228668
v 0.03438726 -0.01221327 -0.02222853
v 0.03435464 -0.01313973 -0.02168724
v 0.03407132 -0.01253703 -0.02211222
v 0.03407132 -0.01342364 -0.02150383
v 0.03407132 -0.01368763 -0.02125332
v 0.03407132 -0.01394166 -0.02094912
v 0.03407132 -0.01414588 -0.02069861
v 0.03356897 -0.01414588 -0.02070308
v 0.03407132 -0.01437002 -0.02039889
v 0.03407132 -0.01457922 -0.02011259
v 0.03407132 -0.01473363 -0.01985760
v 0.03407132 -0.01513708 -0.01918211
v 0.03432948 -0.01662639 -0.01662778
v 0.03432854 -0.02165714 -0.00806561
v 0.03434066 -0.01512712 -0.01916422
v 0.03356804 0.02485490 -0.00226356
v 0.03356804 0.02471544 -0.00258118
v 0.02975714 0.02403803 -0.00378006
v 0.02975808 0.02256865 -0.00637465
v 0.02975808 0.01521180 -0.01932974
v 0.03407225 0.02064601 -0.00973868
v 0.03407225 0.02069582 -0.00965368
v 0.02975808 0.01488306 -0.01989339
v 0.03439285 -0.01423055 -0.02039889
v 0.03434812 -0.01413093 -0.02068072
v 0.03437142 -0.01365276 -0.02121753
v 0.03439751 -0.01284585 -0.02177224
v 0.03444318 -0.01236270 -0.02193328
v 0.03388958 0.02417749 -0.00352507
v 0.03356804 0.02403803 -0.00378006
v 0.03356804 0.02065597 -0.00973868
f 1 2 11
f 1 11 3
f 1 3 4
f 1 4 5
f 1 5 6
f 1 6 7
f 1 7 8
f 1 8 9
f 1 9 10
f 1 10 12
f 1 12 2
f 2 12 31
f 2 31 11
f 3 11 4
f 4 13 14
f 4 14 15
f 4 15 5
f 4 11 13
f 5 15 16
f 5 16 6
f 6 16 17
f 6 17 18
f 6 18 19
f 6 19 20
f 6 20 21
f 6 21 7
f 7 22 8
f 7 21 23
f 7 23 24
f 7 24 25
f 7 25 22
f 8 22 28
f 8 28 9
f 9 26 27
f 9 27 29
f 9 29 10
f 9 28 26
f 10 29 30
f 10 30 12
f 11 31 32
f 11 32 33
f 11 33 34
f 11 34 35
f 11 35 36
f 11 36 13
f 12 30 31
f 13 36 37
f 13 37 38
f 13 38 39
f 13 39 14
f 14 39 40
f 14 40 17
f 14 17 16
f 14 16 15
f 17 40 41
f 17 41 18
f 18 41 42
f 18 42 82
f 18 82 43
f 18 43 44
f 18 44 19
f 19 44 20
f 20 44 45
f 20 45 46
f 20 46 47
f 20 47 48
f 20 48 49
f 20 49 50
f 20 50 21
f 21 50 23
f 22 51 28
f 22 25 52
f 22 52 53
f 22 53 54
f 22 54 55
f 22 55 51
f 23 50 24
f 24 56 25
f 24 50 57
f 24 57 56
f 25 56 58
f 25 58 52
f 26 28 59
f 26 59 60
f 26 60 61
f 26 61 62
f 26 62 27
f 27 62 63
f 27 63 66
f 27 66 29
f 28 51 64
f 28 64 59
f 29 65 30
f 29 66 67
f 29 67 65
f 30 65 31
f 31 65 68
f 31 68 32
f 32 69 71
f 32 71 33
f 32 68 70
f 32 70 69
f 33 71 72
f 33 72 73
f 33 73 74
f 33 74 75
f 33 75 34
f 34 75 76
f 34 76 77
f 34 77 35
f 35 77 37
f 35 37 36
f 37 78 79
f 37 79 38
f 37 77 80
f 37 80 81
f 37 81 78
f 38 79 39
f 39 79 42
f 39 42 41
f 39 41 40
f 42 79 82
f 43 82 119
f 43 119 83
f 43 83 44
f 44 83 84
f 44 84 45
f 45 84 85
f 45 85 46
f 46 85 86
f 46 86 87
f 46 87 88
f 46 88 89
f 46 89 90
f 46 90 47
f 47 90 91
f 47 91 92
f 47 92 48
f 48 92 93
f 48 93 50
f 48 50 49
f 50 93 57
f 51 55 93
f 51 93 94
f 51 94 64
f 52 58 95
f 52 95 96
f 52 96 53
f 53 96 93
f 53 93 54
f 54 93 55
f 56 57 95
f 56 95 58
f 57 93 95
f 59 97 61
f 59 61 60
f 59 64 97
f 61 97 98
f 61 98 62
f 62 98 99
f 62 99 63
f 63 99 100
f 63 100 66
f 64 94 97
f 65 67 101
f 65 101 102
f 65 102 68
f 66 101 67
f 66 100 103
f 66 103 145
f 66 145 101
f 68 102 104
f 68 104 105
f 68 105 70
f 69 70 106
f 69 106 71
f 70 105 107
f 70 107 106
f 71 106 108
f 71 108 80
f 71 80 72
f 72 80 73
f 73 80 74
f 74 80 75
f 75 80 76
f 76 80 77
f 78 81 79
f 79 81 109
f 79 109 110
f 79 110 82
f 80 108 111
f 80 111 112
f 80 112 113
f 80 113 114
f 80 114 115
f 80 115 116
f 80 116 117
f 80 117 118
f 80 118 81
f 81 118 109
f 82 110 120
f 82 120 119
f 83 119 121
f 83 121 84
f 84 121 122
f 84 122 168
f 84 168 123
f 84 123 124
f 84 124 85
f 85 124 86
f 86 125 126
f 86 126 87
f 86 124 125
f 87 126 88
f 88 126 127
f 88 127 128
f 88 128 89
f 89 128 129
f 89 129 130
f 89 130 131
f 89 131 132
f 89 132 90
f 90 92 91
f 90 132 133
f 90 133 92
f 92 133 134
f 92 134 93
f 93 96 95
f 93 134 178
f 93 178 239
f 93 239 320
f 93 320 319
f 93 319 428
f 93 428 548
f 93 548 657
f 93 657 754
f 93 754 848
f 93 848 859
f 93 859 953
f 93 953 956
f 93 956 1017
f 93 1017 1025
f 93 1025 965
f 93 965 870
f 93 870 767
f 93 767 763
f 93 763 661
f 93 661 551
f 93 551 429
f 93 429 321
f 93 321 241
f 93 241 240
f 93 240 179
f 93 179 135
f 93 135 94
f 94 135 97
f 97 135 136
f 97 136 137
f 97 137 138
f 97 138 98
f 98 139 99
f 98 138 140
f 98 140 141
f 98 141 142
f 98 142 139
f 99 139 143
f 99 143 100
f 100 143 144
f 100 144 103
f 101 145 146
f 101 146 147
f 101 147 102
f 102 147 104
f 103 144 148
f 103 148 190
f 103 190 145
f 104 147 149
f 104 149 150
f 104 150 107
f 104 107 105
f 106 107 151
f 106 151 152
f 106 152 153
f 106 153 154
f 106 154 108
f 107 155 156
f 107 156 157
f 107 157 151
f 107 150 158
f 107 158 159
f 107 159 160
f 107 160 155
f 108 154 111
f 109 118 161
f 109 161 162
f 109 162 110
f 110 162 163
f 110 163 120
f 111 154 112
f 112 154 113
f 113 154 114
f 114 154 115
f 115 154 116
f 116 154 164
f 116 164 117
f 117 165 166
f 117 166 118
f 117 164 167
f 117 167 165
f 118 166 161
f 119 120 121
f 120 163 168
f 120 168 122
f 120 122 121
f 123 168 226
f 123 226 169
f 123 169 125
f 123 125 124
f 125 169 126
f 126 169 127
f 127 170 171
f 127 171 172
f 127 172 128
f 127 169 226
f 127 226 170
f 128 172 129
f 129 172 173
f 129 173 130
f 130 173 231
f 130 231 174
f 130 174 131
f 131 174 175
f 131 175 176
f 131 176 132
f 132 176 133
f 133 176 177
f 133 177 134
f 134 177 178
f 135 179 136
f 136 179 180
f 136 180 181
f 136 181 182
f 136 182 183
f 136 183 137
f 137 183 140
f 137 140 138
f 139 142 143
f 140 183 141
f 141 184 185
f 141 185 142
f 141 183 186
f 141 186 187
f 141 187 184
f 142 185 188
f 142 188 189
f 142 189 143
f 143 148 144
f 143 189 148
f 145 190 146
f 146 190 191
f 146 191 147
f 147 191 149
f 148 189 192
f 148 192 190
f 149 191 192
f 149 192 193
f 149 193 194
f 149 194 195
f 149 195 150
f 150 195 158
f 151 157 156
f 151 156 155
f 151 155 209
f 151 209 218
f 151 218 217
f 151 217 216
f 151 216 298
f 151 298 297
f 151 297 296
f 151 296 398
f 151 398 519
f 151 519 617
f 151 617 616
f 151 616 615
f 151 615 482
f 151 482 479
f 151 479 360
f 151 360 278
f 151 278 196
f 151 196 154
f 151 154 153
f 151 153 152
f 154 196 197
f 154 197 198
f 154 198 199
f 154 199 200
f 154 200 201
f 154 201 202
f 154 202 203
f 154 203 204
f 154 204 205
f 154 205 206
f 154 206 207
f 154 207 208
f 154 208 167
f 154 167 164
f 155 160 209
f 158 195 210
f 158 210 159
f 159 210 211
f 159 211 212
f 159 212 213
f 159 213 214
f 159 214 215
f 159 215 160
f 160 215 216
f 160 216 217
f 160 217 218
f 160 218 209
f 161 166 219
f 161 219 220
f 161 220 162
f 162 220 221
f 162 221 222
f 162 222 223
f 162 223 163
f 163 223 168
f 165 224 225
f 165 225 166
f 165 167 208
f 165 208 207
f 165 207 206
f 165 206 205
f 165 205 204
f 165 204 224
f 166 225 219
f 168 223 226
f 170 226 227
f 170 227 171
f 171 228 172
f 171 227 228
f 172 228 229
f 172 229 173
f 173 230 305
f 173 305 231
f 173 229 232
f 173 232 230
f 174 231 306
f 174 306 233
f 174 233 175
f 175 233 234
f 175 234 235
f 175 235 176
f 176 236 177
f 176 235 237
f 176 237 236
f 177 236 178
f 178 238 239
f 178 236 314
f 178 314 238
f 179 240 180
f 180 240 241
f 180 241 242
f 180 242 322
f 180 322 243
f 180 243 244
f 180 244 245
f 180 245 246
f 180 246 181
f 181 246 247
f 181 247 182
f 182 186 183
f 182 247 248
f 182 248 249
f 182 249 186
f 184 188 185
f 184 187 250
f 184 250 188
f 186 251 187
f 186 249 251
f 187 251 252
f 187 252 250
f 188 253 192
f 188 192 189
f 188 250 338
f 188 338 253
f 190 192 191
f 192 253 193
f 193 253 254
f 193 254 255
f 193 255 194
f 194 255 256
f 194 256 257
f 194 257 210
f 194 210 195
f 196 258 259
f 196 259 260
f 196 260 261
f 196 261 262
f 196 262 263
f 196 263 264
f 196 264 265
f 196 265 266
f 196 266 267
f 196 267 268
f 196 268 269
f 196 269 270
f 196 270 271
f 196 271 272
f 196 272 273
f 196 273 274
f 196 274 275
f 196 275 276
f 196 276 277
f 196 277 197
f 196 278 258
f 197 277 279
f 197 279 198
f 198 279 199
f 199 279 280
f 199 280 200
f 200 280 201
f 201 280 202
f 202 280 281
f 202 281 282
f 202 282 283
f 202 283 284
f 202 284 285
f 202 285 203
f 203 285 286
f 203 286 204
f 204 286 224
f 210 257 211
f 211 257 287
f 211 287 212
f 212 287 288
f 212 288 289
f 212 289 213
f 213 289 290
f 213 290 291
f 213 291 292
f 213 292 293
f 213 293 294
f 213 294 295
f 213 295 296
f 213 296 214
f 214 296 297
f 214 297 298
f 214 298 216
f 214 216 215
f 219 225 299
f 219 299 220
f 220 299 230
f 220 230 228
f 220 228 221
f 221 227 226
f 221 226 222
f 221 228 227
f 222 226 223
f 224 286 300
f 224 300 301
f 224 301 225
f 225 302 299
f 225 301 303
f 225 303 302
f 228 230 229
f 229 230 232
f 230 299 304
f 230 304 305
f 231 305 406
f 231 406 306
f 233 306 307
f 233 307 308
f 233 308 234
f 234 308 309
f 234 309 310
f 234 310 311
f 234 311 312
f 234 312 313
f 234 313 235
f 235 313 237
f 236 237 314
f 237 313 315
f 237 315 316
f 237 316 314
f 238 314 317
f 238 317 318
f 238 318 319
f 238 319 320
f 238 320 239
f 241 321 322
f 241 322 242
f 243 322 323
f 243 323 244
f 244 323 245
f 245 323 324
f 245 324 325
f 245 325 326
f 245 326 327
f 245 327 246
f 246 327 328
f 246 328 329
f 246 329 330
f 246 330 331
f 246 331 332
f 246 332 333
f 246 333 247
f 247 333 248
f 248 333 249
f 249 333 334
f 249 334 335
f 249 335 336
f 249 336 337
f 249 337 251
f 250 252 256
f 250 256 338
f 251 337 339
f 251 339 340
f 251 340 252
f 252 340 341
f 252 341 256
f 253 338 254
f 254 338 255
f 255 338 256
f 256 341 342
f 256 342 257
f 257 342 343
f 257 343 287
f 258 344 345
f 258 345 346
f 258 346 259
f 258 278 347
f 258 347 348
f 258 348 344
f 259 346 260
f 260 346 261
f 261 346 349
f 261 349 262
f 262 349 263
f 263 349 264
f 264 349 350
f 264 350 265
f 265 350 266
f 266 350 267
f 267 350 268
f 268 350 351
f 268 351 269
f 269 351 270
f 270 351 352
f 270 352 353
f 270 353 354
f 270 354 355
f 270 355 356
f 270 356 357
f 270 357 271
f 271 357 358
f 271 358 272
f 272 358 359
f 272 359 273
f 273 359 274
f 274 359 275
f 275 359 279
f 275 279 276
f 276 279 277
f 278 360 361
f 278 361 362
f 278 362 363
f 278 363 364
f 278 364 365
f 278 365 366
f 278 366 367
f 278 367 368
f 278 368 369
f 278 369 370
f 278 370 371
f 278 371 372
f 278 372 373
f 278 373 374
f 278 374 375
f 278 375 376
f 278 376 377
f 278 377 378
f 278 378 379
f 278 379 380
f 278 380 347
f 279 381 382
f 279 382 383
f 279 383 384
f 279 384 280
f 279 359 381
f 280 384 385
f 280 385 386
f 280 386 281
f 281 386 387
f 281 387 285
f 281 285 282
f 282 285 283
f 283 285 284
f 285 300 286
f 285 387 388
f 285 388 300
f 287 343 389
f 287 389 288
f 288 389 289
f 289 390 391
f 289 391 392
f 289 392 290
f 289 389 390
f 290 392 393
f 290 393 394
f 290 394 291
f 291 394 292
f 292 394 293
f 293 394 395
f 293 395 396
f 293 396 397
f 293 397 294
f 294 397 296
f 294 296 295
f 296 397 396
f 296 396 398
f 299 302 304
f 300 388 399
f 300 399 400
f 300 400 301
f 301 400 401
f 301 401 402
f 301 402 403
f 301 403 303
f 302 303 404
f 302 404 405
f 302 405 304
f 303 403 404
f 304 405 305
f 305 405 406
f 306 406 407
f 306 407 307
f 307 407 408
f 307 408 409
f 307 409 308
f 308 409 410
f 308 410 309
f 309 410 411
f 309 411 310
f 310 411 412
f 310 412 413
f 310 413 311
f 311 413 414
f 311 414 415
f 311 415 416
f 311 416 312
f 312 315 313
f 312 416 417
f 312 417 418
f 312 418 419
f 312 419 315
f 314 316 420
f 314 420 421
f 314 421 422
f 314 422 317
f 315 419 423
f 315 423 424
f 315 424 425
f 315 425 316
f 316 425 420
f 317 422 318
f 318 422 426
f 318 426 427
f 318 427 428
f 318 428 319
f 321 429 322
f 322 429 430
f 322 430 324
f 322 324 323
f 324 431 326
f 324 326 325
f 324 430 432
f 324 432 431
f 326 431 328
f 326 328 327
f 328 433 330
f 328 330 329
f 328 431 433
f 330 433 434
f 330 434 333
f 330 333 331
f 331 333 332
f 333 434 435
f 333 435 436
f 333 436 437
f 333 437 334
f 334 437 438
f 334 438 439
f 334 439 440
f 334 440 441
f 334 441 335
f 335 442 336
f 335 441 442
f 336 442 443
f 336 443 337
f 337 443 444
f 337 444 339
f 339 445 341
f 339 341 340
f 339 444 572
f 339 572 445
f 341 445 446
f 341 446 342
f 342 446 343
f 343 447 448
f 343 448 449
f 343 449 450
f 343 450 389
f 343 446 447
f 344 451 452
f 344 452 345
f 344 348 451
f 345 452 453
f 345 453 454
f 345 454 346
f 346 454 349
f 347 380 348
f 348 455 456
f 348 456 457
f 348 457 458
f 348 458 459
f 348 459 460
f 348 460 461
f 348 461 462
f 348 462 463
f 348 463 451
f 348 380 379
f 348 379 378
f 348 378 377
f 348 377 464
f 348 464 455
f 349 454 465
f 349 465 466
f 349 466 467
f 349 467 468
f 349 468 469
f 349 469 350
f 350 469 351
f 351 469 352
f 352 470 471
f 352 471 472
f 352 472 473
f 352 473 356
f 352 356 354
f 352 354 353
f 352 469 474
f 352 474 470
f 354 356 355
f 356 473 357
f 357 473 358
f 358 475 476
f 358 476 477
f 358 477 381
f 358 381 359
f 358 473 478
f 358 478 475
f 360 479 361
f 361 480 481
f 361 481 365
f 361 365 364
f 361 364 363
f 361 363 362
f 361 479 482
f 361 482 483
f 361 483 484
f 361 484 485
f 361 485 486
f 361 486 480
f 365 481 366
f 366 481 367
f 367 481 368
f 368 481 487
f 368 487 488
f 368 488 489
f 368 489 490
f 368 490 491
f 368 491 369
f 369 491 492
f 369 492 370
f 370 492 493
f 370 493 494
f 370 494 371
f 371 494 372
f 372 494 373
f 373 494 374
f 374 494 464
f 374 464 375
f 375 464 376
f 376 464 377
f 381 477 495
f 381 495 382
f 382 495 496
f 382 496 497
f 382 497 383
f 383 497 384
f 384 497 385
f 385 498 386
f 385 497 499
f 385 499 500
f 385 500 498
f 386 498 501
f 386 501 502
f 386 502 503
f 386 503 504
f 386 504 505
f 386 505 506
f 386 506 507
f 386 507 387
f 387 507 388
f 388 507 399
f 389 450 508
f 389 508 509
f 389 509 510
f 389 510 390
f 390 510 391
f 391 511 512
f 391 512 513
f 391 513 392
f 391 510 511
f 392 513 512
f 392 512 393
f 393 512 514
f 393 514 515
f 393 515 394
f 394 515 516
f 394 516 395
f 395 516 517
f 395 517 518
f 395 518 484
f 395 484 483
f 395 483 519
f 395 519 398
f 395 398 396
f 399 507 506
f 399 506 400
f 400 506 520
f 400 520 505
f 400 505 521
f 400 521 401
f 401 522 523
f 401 523 403
f 401 403 402
f 401 521 503
f 401 503 522
f 403 523 404
f 404 524 405
f 404 523 525
f 404 525 526
f 404 526 527
f 404 527 524
f 405 524 407
f 405 407 406
f 407 524 408
f 408 524 409
f 409 524 528
f 409 528 410
f 410 528 411
f 411 528 529
f 411 529 412
f 412 530 531
f 412 531 532
f 412 532 533
f 412 533 413
f 412 529 530
f 413 533 414
f 414 533 532
f 414 532 534
f 414 534 415
f 415 535 536
f 415 536 537
f 415 537 538
f 415 538 539
f 415 539 540
f 415 540 418
f 415 418 541
f 415 541 416
f 415 534 535
f 416 541 417
f 417 541 418
f 418 540 419
f 419 540 423
f 420 425 542
f 420 542 543
f 420 543 544
f 420 544 421
f 421 544 422
f 422 544 543
f 422 543 426
f 423 540 545
f 423 545 426
f 423 426 424
f 424 542 425
f 424 426 542
f 426 545 539
f 426 539 546
f 426 546 547
f 426 547 427
f 426 543 542
f 427 548 428
f 427 547 549
f 427 549 550
f 427 550 548
f 429 551 430
f 430 551 552
f 430 552 553
f 430 553 554
f 430 554 555
f 430 555 432
f 431 432 556
f 431 556 557
f 431 557 558
f 431 558 433
f 432 555 559
f 432 559 556
f 433 435 434
f 433 558 435
f 435 558 560
f 435 560 561
f 435 561 436
f 436 561 562
f 436 562 437
f 437 562 438
f 438 562 439
f 439 562 563
f 439 563 564
f 439 564 565
f 439 565 440
f 440 565 566
f 440 566 441
f 441 566 567
f 441 567 568
f 441 568 442
f 442 569 571
f 442 571 443
f 442 568 570
f 442 570 573
f 442 573 569
f 443 571 572
f 443 572 444
f 445 572 446
f 446 572 447
f 447 572 448
f 448 571 569
f 448 569 449
f 448 572 571
f 449 569 573
f 449 573 450
f 450 573 574
f 450 574 575
f 450 575 576
f 450 576 508
f 451 463 452
f 452 463 462
f 452 462 461
f 452 461 460
f 452 460 459
f 452 459 577
f 452 577 578
f 452 578 453
f 453 578 579
f 453 579 580
f 453 580 454
f 454 580 465
f 455 581 456
f 455 464 582
f 455 582 583
f 455 583 584
f 455 584 581
f 456 581 585
f 456 585 586
f 456 586 457
f 457 587 588
f 457 588 589
f 457 589 590
f 457 590 591
f 457 591 592
f 457 592 577
f 457 577 458
f 457 586 585
f 457 585 587
f 458 577 459
f 464 494 582
f 465 580 466
f 466 593 594
f 466 594 467
f 466 580 595
f 466 595 593
f 467 594 596
f 467 596 468
f 468 596 597
f 468 597 469
f 469 597 598
f 469 598 474
f 470 599 600
f 470 600 601
f 470 601 602
f 470 602 603
f 470 603 604
f 470 604 605
f 470 605 471
f 470 474 606
f 470 606 599
f 471 605 607
f 471 607 478
f 471 478 472
f 472 478 473
f 474 598 608
f 474 608 606
f 475 478 609
f 475 609 610
f 475 610 476
f 476 610 611
f 476 611 612
f 476 612 495
f 476 495 477
f 478 607 604
f 478 604 609
f 480 613 481
f 480 486 613
f 481 613 614
f 481 614 487
f 482 615 483
f 483 615 616
f 483 616 617
f 483 617 519
f 484 518 618
f 484 618 485
f 485 618 619
f 485 619 620
f 485 620 486
f 486 620 613
f 487 621 622
f 487 622 488
f 487 614 621
f 488 622 491
f 488 491 489
f 489 491 490
f 491 623 492
f 491 622 623
f 492 623 493
f 493 624 494
f 493 623 625
f 493 625 624
f 494 624 582
f 495 612 626
f 495 626 496
f 496 627 628
f 496 628 500
f 496 500 499
f 496 499 497
f 496 626 627
f 498 500 629
f 498 629 501
f 500 628 630
f 500 630 629
f 501 631 632
f 501 632 502
f 501 629 631
f 502 632 503
f 503 632 522
f 503 521 504
f 504 521 505
f 505 520 506
f 508 576 633
f 508 633 509
f 509 633 634
f 509 634 635
f 509 635 510
f 510 635 511
f 511 635 634
f 511 634 515
f 511 515 512
f 512 515 514
f 515 636 517
f 515 517 516
f 515 634 633
f 515 633 636
f 517 636 637
f 517 637 638
f 517 638 618
f 517 618 518
f 522 632 639
f 522 639 523
f 523 639 640
f 523 640 525
f 524 527 641
f 524 641 528
f 525 640 631
f 525 631 642
f 525 642 526
f 526 529 527
f 526 642 643
f 526 643 644
f 526 644 645
f 526 645 530
f 526 530 529
f 527 529 641
f 528 641 529
f 530 645 646
f 530 646 647
f 530 647 531
f 531 647 532
f 532 647 648
f 532 648 535
f 532 535 534
f 535 648 647
f 535 647 649
f 535 649 536
f 536 649 650
f 536 650 537
f 537 651 652
f 537 652 653
f 537 653 538
f 537 650 654
f 537 654 651
f 538 653 655
f 538 655 546
f 538 546 539
f 539 545 540
f 546 655 547
f 547 655 656
f 547 656 549
f 548 550 657
f 549 656 658
f 549 658 550
f 550 658 659
f 550 659 660
f 550 660 657
f 551 661 552
f 552 661 662
f 552 662 663
f 552 663 664
f 552 664 553
f 553 664 665
f 553 665 554
f 554 665 555
f 555 665 666
f 555 666 667
f 555 667 559
f 556 559 562
f 556 562 560
f 556 560 558
f 556 558 557
f 559 667 668
f 559 668 563
f 559 563 562
f 560 562 561
f 563 668 669
f 563 669 670
f 563 670 671
f 563 671 564
f 564 566 565
f 564 671 566
f 566 671 567
f 567 672 675
f 567 675 673
f 567 673 674
f 567 674 568
f 567 671 672
f 568 674 573
f 568 573 570
f 573 674 675
f 573 675 574
f 574 675 575
f 575 675 676
f 575 676 576
f 576 676 677
f 576 677 633
f 577 592 591
f 577 591 578
f 578 678 782
f 578 782 679
f 578 679 680
f 578 680 579
f 578 591 588
f 578 588 587
f 578 587 681
f 578 681 682
f 578 682 678
f 579 680 683
f 579 683 580
f 580 683 595
f 581 584 583
f 581 583 684
f 581 684 685
f 581 685 585
f 582 624 686
f 582 686 583
f 583 686 687
f 583 687 684
f 585 685 688
f 585 688 689
f 585 689 690
f 585 690 587
f 587 690 681
f 588 591 589
f 589 591 590
f 593 691 692
f 593 692 594
f 593 595 683
f 593 683 693
f 593 693 691
f 594 694 695
f 594 695 696
f 594 696 596
f 594 692 694
f 596 696 597
f 597 696 697
f 597 697 598
f 598 697 608
f 599 606 698
f 599 698 699
f 599 699 600
f 600 699 601
f 601 699 602
f 602 700 701
f 602 701 604
f 602 604 603
f 602 699 700
f 604 701 609
f 604 607 605
f 606 608 698
f 608 697 702
f 608 702 698
f 609 703 704
f 609 704 610
f 609 701 700
f 609 700 703
f 610 705 706
f 610 706 611
f 610 704 705
f 611 706 707
f 611 707 708
f 611 708 709
f 611 709 626
f 611 626 612
f 613 710 614
f 613 620 711
f 613 711 712
f 613 712 710
f 614 710 713
f 614 713 714
f 614 714 715
f 614 715 716
f 614 716 717
f 614 717 621
f 618 638 718
f 618 718 619
f 619 718 719
f 619 719 720
f 619 720 834
f 619 834 721
f 619 721 835
f 619 835 722
f 619 722 723
f 619 723 712
f 619 712 620
f 620 712 711
f 621 717 724
f 621 724 622
f 622 724 623
f 623 724 725
f 623 725 726
f 623 726 625
f 624 727 686
f 624 625 728
f 624 728 729
f 624 729 727
f 625 726 730
f 625 730 731
f 625 731 728
f 626 732 842
f 626 842 733
f 626 733 734
f 626 734 627
f 626 709 732
f 627 734 749
f 627 749 735
f 627 735 628
f 628 735 736
f 628 736 630
f 629 630 737
f 629 737 631
f 630 736 737
f 631 737 738
f 631 738 739
f 631 739 643
f 631 643 642
f 631 640 639
f 631 639 632
f 633 677 636
f 636 677 740
f 636 740 637
f 637 741 742
f 637 742 743
f 637 743 718
f 637 718 638
f 637 740 741
f 643 739 744
f 643 744 644
f 644 744 646
f 644 646 645
f 646 744 739
f 646 739 738
f 646 738 745
f 646 745 647
f 647 745 746
f 647 746 649
f 649 746 650
f 650 747 654
f 650 746 738
f 650 738 747
f 651 748 736
f 651 736 652
f 651 654 748
f 652 736 735
f 652 735 749
f 652 749 653
f 653 749 734
f 653 734 750
f 653 750 751
f 653 751 655
f 654 747 748
f 655 751 752
f 655 752 753
f 655 753 656
f 656 753 658
f 657 660 754
f 658 755 659
f 658 753 752
f 658 752 755
f 659 755 756
f 659 756 660
f 660 756 757
f 660 757 758
f 660 758 759
f 660 759 760
f 660 760 761
f 660 761 762
f 660 762 754
f 661 763 662
f 662 764 765
f 662 765 766
f 662 766 663
f 662 763 767
f 662 767 768
f 662 768 769
f 662 769 764
f 663 766 770
f 663 770 664
f 664 770 771
f 664 771 665
f 665 771 772
f 665 772 666
f 666 772 667
f 667 772 773
f 667 773 774
f 667 774 775
f 667 775 668
f 668 775 669
f 669 775 776
f 669 776 845
f 669 845 777
f 669 777 677
f 669 677 778
f 669 778 670
f 670 778 671
f 671 778 779
f 671 779 780
f 671 780 675
f 671 675 672
f 673 675 674
f 675 780 676
f 676 780 677
f 677 777 781
f 677 781 740
f 677 780 779
f 677 779 778
f 678 682 782
f 679 782 783
f 679 783 680
f 680 783 784
f 680 784 683
f 681 690 785
f 681 785 682
f 682 785 782
f 683 784 786
f 683 786 881
f 683 881 787
f 683 787 693
f 684 788 685
f 684 687 789
f 684 789 790
f 684 790 788
f 685 788 791
f 685 791 688
f 686 727 687
f 687 727 792
f 687 792 793
f 687 793 794
f 687 794 795
f 687 795 789
f 688 796 797
f 688 797 689
f 688 791 796
f 689 798 799
f 689 799 800
f 689 800 690
f 689 797 798
f 690 801 785
f 690 800 801
f 691 802 692
f 691 693 803
f 691 803 802
f 692 802 694
f 693 787 803
f 694 804 805
f 694 805 695
f 694 802 804
f 695 805 806
f 695 806 696
f 696 806 807
f 696 807 697
f 697 808 702
f 697 807 808
f 698 809 810
f 698 810 699
f 698 702 809
f 699 810 811
f 699 811 700
f 700 811 812
f 700 812 703
f 702 808 813
f 702 813 814
f 702 814 815
f 702 815 816
f 702 816 809
f 703 812 704
f 704 812 810
f 704 810 809
f 704 809 817
f 704 817 818
f 704 818 705
f 705 818 819
f 705 819 918
f 705 918 820
f 705 820 922
f 705 922 821
f 705 821 822
f 705 822 706
f 706 822 823
f 706 823 707
f 707 823 708
f 708 823 824
f 708 824 732
f 708 732 709
f 710 712 825
f 710 825 713
f 712 723 825
f 713 826 827
f 713 827 714
f 713 825 826
f 714 827 828
f 714 828 829
f 714 829 830
f 714 830 715
f 715 830 716
f 716 830 831
f 716 831 832
f 716 832 725
f 716 725 717
f 717 725 724
f 718 743 719
f 719 743 847
f 719 847 833
f 719 833 834
f 719 834 720
f 721 834 835
f 722 835 932
f 722 932 836
f 722 836 723
f 723 836 933
f 723 933 837
f 723 837 825
f 725 832 726
f 726 832 838
f 726 838 730
f 727 729 839
f 727 839 792
f 728 731 840
f 728 840 729
f 729 840 839
f 730 838 731
f 731 838 841
f 731 841 840
f 732 824 923
f 732 923 842
f 733 842 843
f 733 843 844
f 733 844 734
f 734 844 752
f 734 752 750
f 736 748 737
f 737 748 747
f 737 747 738
f 738 746 745
f 740 781 845
f 740 845 741
f 741 845 742
f 742 845 846
f 742 846 743
f 743 846 847
f 750 752 751
f 752 844 755
f 754 762 848
f 755 844 849
f 755 849 757
f 755 757 756
f 757 850 758
f 757 849 851
f 757 851 850
f 758 850 852
f 758 852 759
f 759 852 853
f 759 853 854
f 759 854 855
f 759 855 856
f 759 856 857
f 759 857 858
f 759 858 760
f 760 858 761
f 761 858 762
f 762 858 859
f 762 859 848
f 764 860 861
f 764 861 862
f 764 862 765
f 764 769 863
f 764 863 864
f 764 864 865
f 764 865 866
f 764 866 867
f 764 867 860
f 765 862 868
f 765 868 869
f 765 869 766
f 766 869 770
f 767 870 768
f 768 871 769
f 768 870 871
f 769 871 863
f 770 869 771
f 771 834 772
f 771 869 868
f 771 868 872
f 771 872 834
f 772 834 833
f 772 833 773
f 773 833 847
f 773 847 774
f 774 873 776
f 774 776 775
f 774 847 873
f 776 846 845
f 776 873 846
f 777 845 781
f 782 874 875
f 782 875 876
f 782 876 877
f 782 877 783
f 782 785 874
f 783 786 784
f 783 877 878
f 783 878 879
f 783 879 786
f 785 801 880
f 785 880 875
f 785 875 874
f 786 879 881
f 787 881 803
f 788 790 882
f 788 882 791
f 789 883 790
f 789 795 884
f 789 884 883
f 790 883 975
f 790 975 885
f 790 885 974
f 790 974 882
f 791 886 796
f 791 882 887
f 791 887 888
f 791 888 886
f 792 889 890
f 792 890 793
f 792 839 937
f 792 937 889
f 793 890 891
f 793 891 794
f 794 891 976
f 794 976 884
f 794 884 795
f 796 892 893
f 796 893 797
f 796 886 892
f 797 893 894
f 797 894 798
f 798 894 895
f 798 895 880
f 798 880 799
f 799 880 800
f 800 880 801
f 802 896 900
f 802 900 804
f 802 803 896
f 803 881 897
f 803 897 898
f 803 898 896
f 804 899 805
f 804 900 899
f 805 899 901
f 805 901 902
f 805 902 903
f 805 903 904
f 805 904 806
f 806 904 905
f 806 905 807
f 807 905 906
f 807 906 907
f 807 907 808
f 808 907 908
f 808 908 909
f 808 909 813
f 809 816 910
f 809 910 911
f 809 911 817
f 810 812 811
f 813 909 814
f 814 909 912
f 814 912 815
f 815 912 816
f 816 912 913
f 816 913 914
f 816 914 915
f 816 915 910
f 817 911 916
f 817 916 818
f 818 916 917
f 818 917 819
f 819 917 919
f 819 919 915
f 819 915 920
f 819 920 918
f 820 918 921
f 820 921 922
f 821 922 923
f 821 923 824
f 821 824 822
f 822 824 823
f 825 837 826
f 826 837 924
f 826 924 925
f 826 925 926
f 826 926 927
f 826 927 928
f 826 928 827
f 827 928 929
f 827 929 930
f 827 930 828
f 828 930 829
f 829 832 831
f 829 831 830
f 829 930 838
f 829 838 832
f 834 872 931
f 834 931 835
f 835 931 932
f 836 932 1001
f 836 1001 933
f 837 933 934
f 837 934 935
f 837 935 924
f 838 930 936
f 838 936 841
f 839 840 938
f 839 938 1003
f 839 1003 937
f 840 841 939
f 840 939 940
f 840 940 941
f 840 941 942
f 840 942 938
f 841 936 929
f 841 929 943
f 841 943 939
f 842 923 944
f 842 944 843
f 843 944 851
f 843 851 844
f 844 851 849
f 846 873 847
f 850 851 945
f 850 945 921
f 850 921 946
f 850 946 947
f 850 947 852
f 851 944 948
f 851 948 945
f 852 947 949
f 852 949 853
f 853 949 950
f 853 950 951
f 853 951 854
f 854 951 855
f 855 951 856
f 856 951 952
f 856 952 858
f 856 858 857
f 858 953 859
f 858 952 954
f 858 954 955
f 858 955 956
f 858 956 953
f 860 867 957
f 860 957 861
f 861 957 958
f 861 958 959
f 861 959 862
f 862 959 868
f 863 871 960
f 863 960 864
f 864 960 865
f 865 960 870
f 865 870 961
f 865 961 866
f 866 961 867
f 867 961 962
f 867 962 963
f 867 963 964
f 867 964 957
f 868 959 931
f 868 931 872
f 870 960 871
f 870 965 966
f 870 966 895
f 870 895 961
f 875 880 895
f 875 895 876
f 876 895 967
f 876 967 968
f 876 968 877
f 877 968 969
f 877 969 878
f 878 970 971
f 878 971 972
f 878 972 879
f 878 969 970
f 879 972 881
f 881 972 973
f 881 973 897
f 882 974 887
f 883 884 976
f 883 976 975
f 885 975 895
f 885 895 974
f 886 888 895
f 886 895 892
f 887 974 895
f 887 895 888
f 889 937 977
f 889 977 890
f 890 977 891
f 891 977 976
f 892 895 893
f 893 895 894
f 895 966 1026
f 895 1026 967
f 895 975 961
f 896 898 973
f 896 973 971
f 896 971 978
f 896 978 979
f 896 979 900
f 897 973 898
f 899 900 901
f 900 979 980
f 900 980 901
f 901 980 902
f 902 980 981
f 902 981 982
f 902 982 903
f 903 982 904
f 904 982 905
f 905 982 983
f 905 983 906
f 906 983 984
f 906 984 907
f 907 984 985
f 907 985 908
f 908 985 909
f 909 986 912
f 909 985 1038
f 909 1038 986
f 910 915 987
f 910 987 911
f 911 987 919
f 911 919 916
f 912 986 913
f 913 986 1038
f 913 1038 988
f 913 988 989
f 913 989 914
f 914 989 915
f 915 989 990
f 915 990 991
f 915 991 920
f 915 919 987
f 916 919 917
f 918 920 992
f 918 992 993
f 918 993 921
f 920 991 992
f 921 993 994
f 921 994 946
f 921 945 922
f 922 945 948
f 922 948 923
f 923 948 944
f 924 995 996
f 924 996 925
f 924 935 934
f 924 934 995
f 925 996 997
f 925 997 926
f 926 998 927
f 926 997 998
f 927 998 999
f 927 999 939
f 927 939 928
f 928 939 943
f 928 943 929
f 929 936 930
f 931 959 1000
f 931 1000 932
f 932 1000 1001
f 933 1001 1002
f 933 1002 934
f 934 1002 1046
f 934 1046 995
f 937 1003 1004
f 937 1004 977
f 938 942 1007
f 938 1007 1003
f 939 999 940
f 940 999 1050
f 940 1050 1005
f 940 1005 1053
f 940 1053 1006
f 940 1006 941
f 941 1006 942
f 942 1006 1053
f 942 1053 1007
f 946 994 1008
f 946 1008 1009
f 946 1009 1010
f 946 1010 947
f 947 1010 1011
f 947 1011 950
f 947 950 949
f 950 1011 1012
f 950 1012 952
f 950 952 951
f 952 1012 954
f 954 1013 955
f 954 1012 1013
f 955 1014 1015
f 955 1015 1016
f 955 1016 1017
f 955 1017 956
f 955 1013 1014
f 957 964 958
f 958 964 1018
f 958 1018 1004
f 958 1004 1019
f 958 1019 1020
f 958 1020 1021
f 958 1021 1022
f 958 1022 1000
f 958 1000 959
f 961 975 976
f 961 976 977
f 961 977 1023
f 961 1023 962
f 962 1023 963
f 963 1023 1024
f 963 1024 964
f 964 1024 1018
f 965 1025 1026
f 965 1026 966
f 967 1026 968
f 968 1027 969
f 968 1026 1028
f 968 1028 1027
f 969 1027 1029
f 969 1029 1030
f 969 1030 970
f 970 1030 1031
f 970 1031 971
f 971 1031 978
f 971 973 972
f 977 1004 1023
f 978 1031 979
f 979 1031 1032
f 979 1032 1033
f 979 1033 980
f 980 1033 981
f 981 1033 1032
f 981 1032 1034
f 981 1034 983
f 981 983 982
f 983 1034 1035
f 983 1035 984
f 984 1035 1036
f 984 1036 985
f 985 1036 1037
f 985 1037 1038
f 988 1039 1040
f 988 1040 989
f 988 1038 1037
f 988 1037 1039
f 989 1040 1041
f 989 1041 1042
f 989 1042 990
f 990 1042 991
f 991 1042 993
f 991 993 992
f 993 1042 1043
f 993 1043 1044
f 993 1044 994
f 994 1044 1043
f 994 1043 1045
f 994 1045 1008
f 995 1046 1047
f 995 1047 996
f 996 1047 1060
f 996 1060 1048
f 996 1048 997
f 997 1048 998
f 998 1048 1060
f 998 1060 1049
f 998 1049 1050
f 998 1050 999
f 1000 1022 1002
f 1000 1002 1001
f 1002 1022 1046
f 1003 1007 1004
f 1004 1051 1052
f 1004 1052 1019
f 1004 1018 1024
f 1004 1024 1023
f 1004 1007 1053
f 1004 1053 1051
f 1005 1050 1052
f 1005 1052 1051
f 1005 1051 1053
f 1008 1045 1009
f 1009 1045 1011
f 1009 1011 1010
f 1011 1054 1012
f 1011 1045 1055
f 1011 1055 1054
f 1012 1054 1013
f 1013 1054 1055
f 1013 1055 1056
f 1013 1056 1014
f 1014 1056 1032
f 1014 1032 1057
f 1014 1057 1015
f 1015 1057 1058
f 1015 1058 1016
f 1016 1030 1027
f 1016 1027 1028
f 1016 1028 1025
f 1016 1025 1017
f 1016 1058 1031
f 1016 1031 1030
f 1019 1052 1059
f 1019 1059 1021
f 1019 1021 1020
f 1021 1047 1046
f 1021 1046 1022
f 1021 1059 1047
f 1025 1028 1026
f 1027 1030 1029
f 1031 1058 1057
f 1031 1057 1032
f 1032 1056 1034
f 1034 1056 1035
f 1035 1055 1036
f 1035 1056 1055
f 1036 1055 1037
f 1037 1055 1039
f 1039 1055 1040
f 1040 1045 1041
f 1040 1055 1045
f 1041 1045 1042
f 1042 1045 1043
f 1047 1059 1060
f 1049 1060 1061
f 1049 1061 1050
f 1050 1061 1052
f 1052 1061 1059
f 1059 1061 1060

