# https://github.com/mikedh/trimesh
v -0.00723273 0.03189600 -0.01806375
v -0.00807095 0.03189600 -0.01804598
v -0.00723273 0.03311325 -0.01806375
v 0.00609296 0.03189600 -0.01806375
v -0.00826235 0.03189600 -0.01804175
v -0.00826235 0.03311325 -0.01804175
v -0.00723273 0.03413788 -0.01806037
v 0.00917522 0.03311325 -0.01806375
v 0.00711598 0.03208861 -0.01806375
v 0.04924469 0.03413909 -0.01805952
v 0.00711598 0.03189600 -0.01806206
v -0.00928537 0.03189600 -0.01790464
v -0.00826235 0.03413788 -0.01803836
v -0.00928537 0.03311325 -0.01790295
v -0.00826235 0.03516192 -0.01780647
v -0.00723273 0.03516192 -0.01782763
v 0.03237472 0.03413788 -0.01806037
v 0.04924469 0.03516192 -0.01782763
v 0.04924469 0.03402316 -0.01805529
v 0.04924469 0.03311325 -0.01801974
v 0.04924469 0.03302449 -0.01798420
v 0.04924469 0.03231866 -0.01769984
v 0.00814560 0.03189600 -0.01804682
v -0.01021600 0.03189600 -0.01760759
v -0.00928537 0.03413788 -0.01789618
v -0.01021600 0.03311325 -0.01760420
v -0.01020940 0.03413788 -0.01760082
v -0.00826235 0.03576329 -0.01750265
v -0.00930517 0.03522532 -0.01763890
v -0.00897517 0.03572707 -0.01747049
v -0.00723273 0.03577295 -0.01751111
v 0.04924469 0.03570473 -0.01754666
v 0.04924469 0.03198717 -0.01691193
v 0.04924469 0.03193646 -0.01588536
v 0.00917522 0.03189600 -0.01797150
v -0.01073081 0.03189600 -0.01737740
v -0.01072421 0.03413788 -0.01737570
v -0.01007079 0.03492704 -0.01753989
v -0.00826235 0.03627591 -0.01699910
v -0.00723273 0.03628558 -0.01701010
v -0.00965499 0.03560933 -0.01738586
v -0.00929858 0.03618655 -0.01691785
v -0.00893557 0.03674929 -0.01644900
v 0.00056864 0.03577295 -0.01751111
v 0.04924469 0.03577235 -0.01751111
v 0.04924469 0.03193646 -0.01178838
v 0.01918764 0.03189600 -0.00973778
v 0.01911504 0.03189600 -0.01075673
v 0.01810522 0.03189600 -0.01178584
v 0.01708879 0.03189600 -0.01281157
v 0.01402633 0.03189600 -0.01588451
v 0.01267330 0.03189600 -0.01690262
v 0.01121467 0.03189600 -0.01744002
v 0.01027085 0.03189600 -0.01773454
v -0.01133142 0.03189600 -0.01694239
v -0.01133142 0.03413788 -0.01694155
v -0.01190563 0.03475919 -0.01645238
v -0.01133142 0.03512448 -0.01669273
v -0.01037440 0.03522532 -0.01725299
v -0.00826235 0.03678612 -0.01648623
v -0.00723273 0.03679759 -0.01649808
v 0.04924469 0.03628558 -0.01701010
v -0.01099481 0.03579530 -0.01652686
v -0.01030840 0.03598126 -0.01672235
v -0.00962198 0.03664604 -0.01633898
v -0.00883657 0.03774071 -0.01539619
v -0.00826235 0.03729874 -0.01593698
v 0.04924469 0.03193766 -0.01167329
v 0.01918104 0.03189600 -0.00941788
v -0.01181983 0.03189600 -0.01656409
v -0.01193203 0.03413788 -0.01647777
v -0.01167463 0.03544087 -0.01623996
v -0.01244684 0.03413788 -0.01596999
v -0.01292206 0.03475496 -0.01542920
v -0.01230824 0.03509731 -0.01583373
v -0.00723273 0.03731021 -0.01595306
v -0.00313404 0.03679759 -0.01649808
v 0.00301729 0.03731021 -0.01595898
v 0.04924469 0.03674084 -0.01655478
v -0.01086941 0.03673540 -0.01542158
v -0.01030840 0.03691231 -0.01562046
v -0.01030840 0.03649388 -0.01613417
v -0.01203104 0.03581039 -0.01555530
v -0.01127202 0.03614429 -0.01583119
v -0.00951638 0.03763082 -0.01522439
v -0.01001799 0.03781075 -0.01454227
v -0.00921937 0.03785423 -0.01487487
v -0.00826235 0.03793030 -0.01486217
v -0.00826235 0.03776124 -0.01542412
v -0.00723273 0.03777332 -0.01544020
v 0.04924469 0.03195578 -0.01076266
v -0.01816917 0.03189600 -0.00941788
v 0.04924469 0.03199261 -0.01065687
v 0.04924469 0.03228726 -0.00987658
v 0.02043507 0.03194551 -0.00941788
v -0.01193203 0.03189600 -0.01647608
v -0.01244684 0.03189600 -0.01597168
v -0.01244684 0.03311325 -0.01597168
v -0.01271085 0.03543725 -0.01521085
v -0.01295506 0.03413788 -0.01545628
v -0.01496150 0.03473020 -0.01336590
v -0.01475029 0.03541249 -0.01314840
v 0.00301729 0.03777755 -0.01544697
v 0.00814560 0.03731021 -0.01595898
v 0.03237472 0.03679699 -0.01649808
v 0.04924469 0.03679699 -0.01649639
v -0.01070441 0.03765980 -0.01422829
v -0.01034140 0.03744606 -0.01487487
v -0.01155583 0.03649388 -0.01508052
v -0.01126542 0.03690748 -0.01478770
v -0.01304746 0.03580556 -0.01452703
v -0.01257885 0.03648905 -0.01404802
v -0.01103441 0.03780894 -0.01354616
v -0.01034140 0.03789468 -0.01386607
v -0.00928537 0.03804382 -0.01383729
v -0.00826235 0.03806374 -0.01383729
v -0.00723273 0.03794238 -0.01486217
v -0.01817577 0.03311325 -0.00941788
v -0.01813617 0.03189600 -0.00954144
v 0.04924469 0.03238085 -0.00982749
v 0.02145809 0.03202763 -0.00941788
v 0.04924469 0.03311325 -0.00945935
v -0.01295506 0.03189600 -0.01545797
v -0.01295506 0.03311325 -0.01545797
v -0.01609672 0.03579107 -0.01143209
v -0.01406388 0.03580073 -0.01349708
v -0.01651253 0.03413788 -0.01182901
v -0.01699434 0.03470182 -0.01130176
v -0.01597792 0.03471753 -0.01233425
v -0.01576672 0.03539981 -0.01211590
v 0.00404691 0.03794721 -0.01486217
v 0.00506993 0.03777755 -0.01544697
v 0.01531996 0.03777634 -0.01544697
v 0.03375415 0.03731021 -0.01595560
v 0.04924469 0.03731021 -0.01595306
v -0.01307386 0.03780411 -0.01148033
v -0.01135782 0.03745935 -0.01386607
v -0.01340387 0.03744184 -0.01180785
v -0.01477010 0.03764049 -0.01010000
v -0.01409028 0.03780170 -0.01044699
v -0.01291545 0.03672815 -0.01336675
v -0.01432789 0.03688272 -0.01170291
v -0.01359527 0.03648422 -0.01301807
v -0.01442029 0.03788442 -0.00975047
v -0.01236104 0.03803838 -0.01076266
v -0.01133142 0.03806374 -0.01076266
v -0.00928537 0.03806374 -0.01281326
v 0.03237472 0.03806374 -0.01383729
v -0.01816917 0.03413788 -0.00941788
v -0.01813617 0.03311325 -0.00954144
v -0.01789856 0.03189600 -0.01005345
v 0.02243491 0.03231020 -0.00941788
v 0.04924469 0.03413909 -0.00942465
v -0.01337086 0.03189600 -0.01503482
v -0.01599772 0.03311325 -0.01235541
v -0.01596472 0.03671306 -0.01027011
v -0.01562811 0.03647456 -0.01095392
v -0.01678314 0.03538351 -0.01106987
v -0.01707354 0.03576994 -0.01038690
v -0.01637393 0.03612195 -0.01066956
v -0.01461169 0.03647939 -0.01198642
v -0.01651253 0.03189600 -0.01182901
v -0.01691514 0.03189600 -0.01141347
v -0.01700754 0.03311325 -0.01131784
v -0.01700754 0.03413788 -0.01131530
v -0.01742335 0.03413788 -0.01076266
v -0.01789856 0.03413788 -0.01005091
v -0.01808337 0.03487089 -0.00943311
v -0.01721215 0.03509006 -0.01074319
v 0.00711598 0.03794721 -0.01486217
v 0.04924469 0.03794298 -0.01486048
v 0.04924469 0.03777271 -0.01544020
v 0.04924469 0.03772139 -0.01549859
v -0.01442029 0.03743338 -0.01077958
v -0.01534431 0.03687367 -0.01067210
v -0.01543011 0.03740621 -0.00975047
v -0.01508690 0.03779928 -0.00941788
v -0.01494830 0.03671849 -0.01130260
v -0.01470409 0.03787898 -0.00941788
v -0.01442029 0.03792246 -0.00941788
v -0.01338407 0.03802148 -0.00973778
v -0.01370087 0.03801544 -0.00941788
v -0.00928537 0.03806374 -0.00973778
v 0.03237472 0.03806374 -0.01178838
v 0.04924469 0.03806314 -0.01383729
v -0.01808997 0.03487632 -0.00941788
v -0.01812957 0.03413788 -0.00953805
v -0.01789856 0.03311325 -0.01005345
v -0.01742335 0.03189600 -0.01076266
v 0.02341173 0.03311325 -0.00941788
v 0.04924469 0.03618655 -0.00943734
v 0.02216430 0.03789408 -0.00941788
v 0.02228971 0.03784457 -0.00941788
v 0.02430275 0.03618655 -0.00941788
v 0.02430275 0.03516192 -0.00941788
v 0.02429615 0.03413788 -0.00941788
v -0.01599772 0.03189600 -0.01235541
v -0.01614952 0.03687669 -0.00973778
v -0.01777316 0.03519150 -0.00976063
v -0.01783916 0.03534970 -0.00941788
v -0.01725175 0.03594201 -0.00973778
v -0.01665774 0.03645464 -0.00973778
v -0.01700754 0.03189600 -0.01131784
v -0.01554891 0.03747927 -0.00941788
v -0.00826235 0.03806374 -0.00941788
v 0.02043507 0.03806374 -0.00941788
v 0.04924469 0.03806314 -0.01178838
v 0.04924469 0.03721119 -0.00962945
v 0.02113468 0.03803718 -0.00941788
v -0.01675014 0.03652226 -0.00941788
v -0.01625513 0.03692861 -0.00941788
v -0.01731115 0.03600481 -0.00941788
v 0.04924469 0.03787476 -0.01003483
v 0.04924469 0.03804382 -0.01076266
v 0.04924469 0.03728546 -0.00967431
f 1 2 3
f 1 3 8
f 1 8 9
f 1 9 4
f 1 4 11
f 1 11 23
f 1 23 35
f 1 35 54
f 1 54 53
f 1 53 52
f 1 52 51
f 1 51 50
f 1 50 49
f 1 49 48
f 1 48 47
f 1 47 69
f 1 69 92
f 1 92 119
f 1 119 151
f 1 151 189
f 1 189 203
f 1 203 163
f 1 163 162
f 1 162 197
f 1 197 154
f 1 154 123
f 1 123 97
f 1 97 96
f 1 96 70
f 1 70 55
f 1 55 36
f 1 36 24
f 1 24 12
f 1 12 5
f 1 5 2
f 2 5 6
f 2 6 3
f 3 6 13
f 3 13 7
f 3 7 17
f 3 17 8
f 4 9 10
f 4 10 11
f 5 12 6
f 6 12 14
f 6 14 13
f 7 15 16
f 7 16 18
f 7 18 17
f 7 13 15
f 8 17 10
f 8 10 9
f 10 17 18
f 10 18 32
f 10 32 45
f 10 45 62
f 10 62 79
f 10 79 106
f 10 106 135
f 10 135 173
f 10 173 172
f 10 172 171
f 10 171 185
f 10 185 207
f 10 207 214
f 10 214 213
f 10 213 215
f 10 215 208
f 10 208 191
f 10 191 153
f 10 153 122
f 10 122 120
f 10 120 94
f 10 94 93
f 10 93 91
f 10 91 68
f 10 68 46
f 10 46 34
f 10 34 33
f 10 33 22
f 10 22 21
f 10 21 20
f 10 20 19
f 10 19 11
f 11 19 20
f 11 20 21
f 11 21 22
f 11 22 23
f 12 24 14
f 13 14 25
f 13 25 15
f 14 24 26
f 14 26 27
f 14 27 25
f 15 28 16
f 15 25 29
f 15 29 30
f 15 30 28
f 16 28 31
f 16 31 32
f 16 32 18
f 22 33 23
f 23 33 34
f 23 34 35
f 24 36 37
f 24 37 26
f 25 27 38
f 25 38 29
f 26 37 27
f 27 37 38
f 28 30 39
f 28 39 40
f 28 40 31
f 29 38 41
f 29 41 30
f 30 41 42
f 30 42 43
f 30 43 39
f 31 40 62
f 31 62 44
f 31 44 32
f 32 44 45
f 34 46 47
f 34 47 48
f 34 48 49
f 34 49 50
f 34 50 51
f 34 51 52
f 34 52 53
f 34 53 54
f 34 54 35
f 36 55 56
f 36 56 37
f 37 56 57
f 37 57 38
f 38 57 58
f 38 58 59
f 38 59 41
f 39 60 61
f 39 61 40
f 39 43 60
f 40 61 77
f 40 77 62
f 41 59 63
f 41 63 64
f 41 64 65
f 41 65 42
f 42 65 43
f 43 66 67
f 43 67 60
f 43 65 66
f 44 62 45
f 46 68 69
f 46 69 47
f 55 70 71
f 55 71 56
f 56 71 57
f 57 72 58
f 57 71 73
f 57 73 74
f 57 74 75
f 57 75 72
f 58 72 63
f 58 63 59
f 60 67 76
f 60 76 61
f 61 76 78
f 61 78 104
f 61 104 77
f 62 77 79
f 63 80 81
f 63 81 82
f 63 82 64
f 63 72 83
f 63 83 84
f 63 84 80
f 64 82 65
f 65 85 66
f 65 82 85
f 66 85 86
f 66 86 87
f 66 87 88
f 66 88 89
f 66 89 67
f 67 89 90
f 67 90 76
f 68 91 69
f 69 91 93
f 69 93 94
f 69 94 95
f 69 95 121
f 69 121 152
f 69 152 190
f 69 190 196
f 69 196 195
f 69 195 194
f 69 194 193
f 69 193 192
f 69 192 209
f 69 209 206
f 69 206 205
f 69 205 182
f 69 182 180
f 69 180 179
f 69 179 177
f 69 177 204
f 69 204 211
f 69 211 210
f 69 210 212
f 69 212 200
f 69 200 186
f 69 186 149
f 69 149 118
f 69 118 92
f 70 96 71
f 71 96 97
f 71 97 98
f 71 98 73
f 72 75 99
f 72 99 83
f 73 98 124
f 73 124 100
f 73 100 74
f 74 99 75
f 74 100 101
f 74 101 102
f 74 102 99
f 76 90 103
f 76 103 78
f 77 104 105
f 77 105 79
f 78 103 132
f 78 132 104
f 79 105 106
f 80 107 108
f 80 108 81
f 80 84 83
f 80 83 109
f 80 109 110
f 80 110 107
f 81 108 85
f 81 85 82
f 83 99 111
f 83 111 112
f 83 112 109
f 85 108 86
f 86 108 107
f 86 107 113
f 86 113 114
f 86 114 115
f 86 115 87
f 87 115 88
f 88 115 116
f 88 116 117
f 88 117 90
f 88 90 89
f 90 117 103
f 92 118 119
f 94 120 95
f 95 120 122
f 95 122 121
f 97 123 124
f 97 124 98
f 99 102 125
f 99 125 126
f 99 126 111
f 100 124 127
f 100 127 128
f 100 128 129
f 100 129 101
f 101 129 102
f 102 129 130
f 102 130 125
f 103 131 170
f 103 170 132
f 103 117 131
f 104 133 134
f 104 134 106
f 104 106 105
f 104 132 133
f 106 134 135
f 107 136 113
f 107 110 137
f 107 137 138
f 107 138 139
f 107 139 140
f 107 140 136
f 109 112 141
f 109 141 110
f 110 141 142
f 110 142 138
f 110 138 137
f 111 126 143
f 111 143 112
f 112 143 141
f 113 136 144
f 113 144 114
f 114 145 115
f 114 144 145
f 115 145 146
f 115 146 147
f 115 147 116
f 116 148 170
f 116 170 131
f 116 131 117
f 116 147 146
f 116 146 183
f 116 183 205
f 116 205 206
f 116 206 184
f 116 184 148
f 118 149 150
f 118 150 119
f 119 150 188
f 119 188 151
f 121 122 153
f 121 153 152
f 123 154 124
f 124 154 155
f 124 155 127
f 125 156 157
f 125 157 161
f 125 161 126
f 125 130 158
f 125 158 159
f 125 159 160
f 125 160 156
f 126 161 143
f 127 155 197
f 127 197 162
f 127 162 163
f 127 163 164
f 127 164 165
f 127 165 128
f 128 165 166
f 128 166 167
f 128 167 168
f 128 168 169
f 128 169 158
f 128 158 130
f 128 130 129
f 132 170 171
f 132 171 133
f 133 171 172
f 133 172 173
f 133 173 135
f 133 135 134
f 136 140 144
f 138 142 174
f 138 174 139
f 139 174 175
f 139 175 156
f 139 156 176
f 139 176 177
f 139 177 140
f 140 177 144
f 141 143 161
f 141 161 178
f 141 178 142
f 142 178 156
f 142 156 175
f 142 175 174
f 144 177 179
f 144 179 180
f 144 180 145
f 145 180 181
f 145 181 146
f 146 181 182
f 146 182 183
f 148 184 207
f 148 207 185
f 148 185 170
f 149 186 187
f 149 187 150
f 150 187 167
f 150 167 188
f 151 188 166
f 151 166 189
f 152 153 190
f 153 191 192
f 153 192 193
f 153 193 194
f 153 194 195
f 153 195 196
f 153 196 190
f 154 197 155
f 156 160 159
f 156 159 198
f 156 198 176
f 156 178 157
f 157 178 161
f 158 169 159
f 159 169 199
f 159 199 200
f 159 200 201
f 159 201 202
f 159 202 198
f 163 203 164
f 164 203 189
f 164 189 166
f 164 166 165
f 166 188 167
f 167 187 186
f 167 186 168
f 168 186 199
f 168 199 169
f 170 185 171
f 176 198 204
f 176 204 177
f 180 182 181
f 182 205 183
f 184 206 207
f 186 200 199
f 191 208 209
f 191 209 192
f 198 202 210
f 198 210 211
f 198 211 204
f 200 212 201
f 201 210 202
f 201 212 210
f 206 209 213
f 206 213 214
f 206 214 207
f 208 215 209
f 209 215 213

