# https://github.com/mikedh/trimesh
v -0.00723087 0.02901215 -0.01806198
v -0.00723087 0.02798870 -0.01789225
v -0.00825975 0.02901215 -0.01803723
v -0.00723087 0.03189462 -0.01806198
v -0.00667311 0.02901215 -0.01806198
v -0.00667311 0.02845469 -0.01797004
v -0.00723087 0.02730392 -0.01757045
v -0.00825975 0.02731752 -0.01755984
v -0.00825975 0.02798870 -0.01786749
v -0.00667311 0.02798870 -0.01789225
v -0.00825975 0.03189462 -0.01803723
v -0.00928321 0.02901215 -0.01790285
v -0.01370196 0.03801430 -0.00941599
v -0.00825434 0.03806374 -0.00941599
v -0.00667311 0.03189462 -0.01806198
v 0.00710840 0.02901215 -0.01805491
v 0.00710840 0.02798870 -0.01788517
v -0.00723087 0.02679096 -0.01708599
v -0.00667311 0.02730392 -0.01757045
v 0.00031241 0.02711604 -0.01739364
v -0.00825975 0.02680456 -0.01707185
v -0.00928321 0.02739786 -0.01748912
v -0.00928321 0.02798870 -0.01773312
v 0.00710840 0.02730392 -0.01756692
v -0.00928321 0.03189462 -0.01790285
v -0.01001967 0.02798870 -0.01752094
v -0.01022003 0.02901215 -0.01760935
v -0.01441676 0.03792160 -0.00941599
v -0.01440593 0.03800194 -0.00870876
v -0.01440593 0.03806374 -0.00358481
v 0.02042422 0.03806374 -0.00941599
v 0.00609035 0.03189462 -0.01805491
v 0.00710840 0.03189462 -0.01805137
v 0.00813728 0.03189462 -0.01803723
v 0.00813728 0.02901215 -0.01801955
v 0.00813728 0.02798870 -0.01785335
v 0.00813728 0.02731999 -0.01754923
v -0.00723087 0.02627800 -0.01657325
v -0.00667311 0.02679096 -0.01708599
v 0.00710840 0.02679220 -0.01707892
v -0.00825975 0.02629283 -0.01655910
v -0.00910993 0.02635340 -0.01649545
v -0.00981389 0.02746708 -0.01742900
v -0.01022003 0.03106276 -0.01760935
v -0.01022003 0.03189462 -0.01760581
v -0.01508282 0.03779923 -0.00941599
v -0.01470376 0.03787834 -0.00941599
v -0.01053411 0.02798870 -0.01727341
v -0.01073447 0.02901215 -0.01737950
v -0.01529943 0.03786598 -0.00870876
v -0.01553228 0.03786968 -0.00778227
v -0.01549437 0.03789070 -0.00731196
v -0.01542397 0.03791913 -0.00665776
v -0.01542397 0.03792160 -0.00358481
v -0.01542397 0.03792407 0.00153913
v -0.01440593 0.03806374 -0.00356360
v 0.02042422 0.03806374 -0.00356360
v 0.03237000 0.03806251 0.01177640
v 0.03675626 0.03806127 0.01177640
v 0.03675626 0.03804150 0.01076152
v 0.02113360 0.03803655 -0.00941599
v 0.00914991 0.03189462 -0.01796650
v 0.00914991 0.02901215 -0.01787103
v 0.00924738 0.02789228 -0.01764825
v 0.00897121 0.02738550 -0.01749619
v 0.00813728 0.02680703 -0.01705770
v -0.00723087 0.02577122 -0.01588722
v -0.00825975 0.02578605 -0.01588722
v -0.00667311 0.02627800 -0.01657325
v 0.00710840 0.02627800 -0.01656617
v 0.00031241 0.02627800 -0.01656971
v -0.00938610 0.02601472 -0.01598624
v -0.00978682 0.02645352 -0.01639644
v -0.01021461 0.02716549 -0.01691272
v -0.01105396 0.02730640 -0.01656971
v -0.01073447 0.03003807 -0.01737950
v -0.01063699 0.03189462 -0.01742193
v -0.01554852 0.03747909 -0.00941599
v -0.01580845 0.03763483 -0.00870876
v -0.01508282 0.03780047 -0.00941246
v -0.01073447 0.03189462 -0.01737596
v -0.01137345 0.02800600 -0.01672177
v -0.01190414 0.02836075 -0.01645301
v -0.01133555 0.02901215 -0.01694808
v -0.01594383 0.03772259 -0.00818894
v -0.01596549 0.03774114 -0.00750645
v -0.01598173 0.03774979 -0.00665776
v -0.01544022 0.03791789 -0.00356360
v -0.01598173 0.03775350 -0.00050479
v -0.01542397 0.03792407 0.00665953
v -0.01440593 0.03806251 0.00359012
v -0.01132472 0.03806251 0.01075444
v -0.00825434 0.03806251 0.01383447
v 0.01222029 0.03806251 0.01383447
v 0.03237000 0.03806251 0.01383093
v 0.03675626 0.03806127 0.01383093
v 0.03675626 0.03787339 0.01002952
v 0.02216247 0.03789317 -0.00941599
v 0.01025459 0.03189462 -0.01772958
v 0.01120224 0.03189462 -0.01743254
v 0.01004882 0.02901215 -0.01758813
v 0.00991886 0.02817163 -0.01753155
v 0.00964810 0.02748809 -0.01741486
v 0.00929611 0.02692322 -0.01694454
v 0.00894955 0.02637070 -0.01647777
v 0.00813728 0.02630272 -0.01654496
v -0.00825975 0.02543872 -0.01486173
v -0.00667311 0.02577122 -0.01588722
v -0.00928321 0.02547333 -0.01486173
v 0.00710840 0.02577122 -0.01588015
v 0.00813728 0.02579718 -0.01588015
v 0.00031241 0.02577122 -0.01588369
v -0.01031209 0.02568223 -0.01486173
v -0.01031209 0.02616923 -0.01571041
v -0.01031209 0.02658207 -0.01622316
v -0.01094024 0.02636576 -0.01548410
v -0.01134096 0.02695783 -0.01589076
v -0.01208825 0.02729033 -0.01561140
v -0.01174168 0.02767721 -0.01629742
v -0.01133555 0.03106276 -0.01694454
v -0.01625249 0.03692782 -0.00941599
v -0.01675068 0.03652115 -0.00941599
v -0.01687523 0.03661756 -0.00895982
v -0.01133555 0.03189462 -0.01694101
v -0.01730844 0.03600448 -0.00941599
v -0.01233735 0.02801836 -0.01586247
v -0.01292760 0.02836198 -0.01542752
v -0.01244565 0.02901215 -0.01596856
v -0.01193121 0.02901215 -0.01647777
v -0.01193121 0.03106276 -0.01647777
v -0.01182291 0.03189462 -0.01656264
v -0.01699436 0.03672263 -0.00827380
v -0.01637162 0.03735178 -0.00778227
v -0.01649076 0.03727267 -0.00665776
v -0.01598173 0.03775102 -0.00461031
v -0.01650700 0.03726031 -0.00356360
v -0.01598173 0.03775350 0.00665953
v -0.01596549 0.03774361 0.00750468
v -0.01553228 0.03787092 0.00778404
v -0.01440593 0.03800318 0.00870699
v -0.01337706 0.03802419 0.00973248
v -0.01235359 0.03804026 0.01075444
v -0.00927780 0.03804273 0.01383447
v -0.00825434 0.03793149 0.01484935
v -0.00722546 0.03794632 0.01484935
v -0.00620200 0.03795126 0.01484935
v -0.00415508 0.03795745 0.01484935
v 0.03675626 0.03793272 0.01485643
v 0.03675626 0.03720963 0.00962640
v 0.02430145 0.03618618 -0.00941599
v 0.02228702 0.03784496 -0.00941599
v 0.01266433 0.03189462 -0.01689858
v 0.01022752 0.02789228 -0.01728048
v 0.01091524 0.02731999 -0.01655910
v 0.01017878 0.02710986 -0.01676774
v 0.00962644 0.02646217 -0.01638229
v 0.00923113 0.02603574 -0.01597563
v -0.00928321 0.02543625 -0.01383623
v -0.01031209 0.02545726 -0.01383623
v -0.00667311 0.02543872 -0.01486173
v 0.00031241 0.02565009 -0.01551239
v 0.00813728 0.02543996 -0.01485819
v 0.00914991 0.02548569 -0.01485819
v -0.01133555 0.02567110 -0.01383623
v -0.01130306 0.02616305 -0.01482990
v -0.01196912 0.02636700 -0.01446568
v -0.01162255 0.02660803 -0.01515170
v -0.01236984 0.02695165 -0.01486880
v -0.01310630 0.02729527 -0.01458591
v -0.01277056 0.02767845 -0.01526839
v -0.01746006 0.03615899 -0.00862389
v -0.01783371 0.03534938 -0.00941599
v -0.01792576 0.03555209 -0.00897751
v -0.01394564 0.02837682 -0.01439849
v -0.01295467 0.02901215 -0.01545581
v -0.01244565 0.03189462 -0.01596856
v -0.01285720 0.03189462 -0.01555482
v -0.01193121 0.03189462 -0.01647423
v -0.01801783 0.03570042 -0.00829502
v -0.01753046 0.03623686 -0.00768326
v -0.01701602 0.03674735 -0.00768326
v -0.01703227 0.03675971 -0.00665776
v -0.01649076 0.03727267 0.00665953
v -0.01703227 0.03675971 -0.00356360
v -0.01701602 0.03674611 0.00768503
v -0.01594383 0.03772383 0.00819070
v -0.01529943 0.03786845 0.00870699
v -0.01442217 0.03788823 0.00974309
v -0.01033375 0.03789564 0.01386629
v -0.00921823 0.03785361 0.01487057
v -0.00825434 0.03776215 0.01541868
v -0.00722546 0.03777698 0.01544343
v -0.00883376 0.03774114 0.01538685
v -0.00620200 0.03778193 0.01544697
v -0.00415508 0.03778811 0.01545050
v -0.00313162 0.03778934 0.01545404
v 0.03675626 0.03776462 0.01541868
v 0.03675626 0.03618495 0.00943191
v 0.03675626 0.03319618 0.00930814
v 0.02429604 0.03413805 -0.00941599
v 0.01177083 0.02836940 -0.01644241
v 0.01123473 0.02801095 -0.01670055
v 0.01080694 0.02636823 -0.01547703
v 0.01017878 0.02659938 -0.01620902
v 0.01159755 0.02768586 -0.01628681
v 0.01194953 0.02729156 -0.01560433
v 0.01120224 0.02696277 -0.01588015
v 0.01017878 0.02618283 -0.01569273
v 0.01017878 0.02569829 -0.01485819
v -0.00667311 0.02543625 -0.01383623
v -0.01440593 0.02543625 -0.00871229
v -0.01338247 0.02546468 -0.01075975
v 0.00914991 0.02543625 -0.01383270
v 0.01017878 0.02545850 -0.01383270
v 0.01120224 0.02566863 -0.01383270
v -0.01232652 0.02616923 -0.01380087
v -0.01440593 0.02546839 -0.00973425
v -0.01440593 0.02569706 -0.01075975
v -0.01539148 0.02619148 -0.01071378
v -0.01501784 0.02638183 -0.01137151
v -0.01570015 0.02662533 -0.01102142
v -0.01366405 0.02661544 -0.01308656
v -0.01615502 0.02731010 -0.01148820
v -0.01582469 0.02772665 -0.01217069
v -0.01808281 0.03487597 -0.00941599
v -0.01815320 0.03519116 -0.00866632
v -0.01598173 0.02841019 -0.01233335
v -0.01651241 0.02901215 -0.01182768
v -0.01651241 0.03189462 -0.01182768
v -0.01829941 0.03516150 -0.00768326
v -0.01803948 0.03572390 -0.00768326
v -0.01735176 0.03642598 -0.00731196
v -0.01754129 0.03624675 -0.00665776
v -0.01753588 0.03625787 -0.00356360
v -0.01702685 0.03675971 0.00665953
v -0.01753046 0.03623686 0.00768503
v -0.01698895 0.03672139 0.00826850
v -0.01580845 0.03763483 0.00870699
v -0.01508282 0.03780294 0.00941069
v -0.01687523 0.03661756 0.00895452
v -0.01408644 0.03780541 0.01044679
v -0.01103230 0.03781035 0.01353743
v -0.01000884 0.03781035 0.01454170
v -0.00825434 0.03729739 0.01593496
v -0.00722546 0.03730975 0.01595264
v -0.00951606 0.03763236 0.01521712
v -0.00961895 0.03664476 0.01633455
v -0.00892581 0.03674859 0.01644418
v -0.00517854 0.03730975 0.01596325
v -0.00313162 0.03730975 0.01597032
v 0.03675626 0.03730852 0.01593850
v 0.03675626 0.03233094 0.00968651
v 0.02340796 0.03311336 -0.00941599
v 0.01149466 0.02660803 -0.01514816
v 0.01117517 0.02616552 -0.01482637
v 0.01605420 0.02729156 -0.01150588
v 0.01223653 0.02695041 -0.01486526
v -0.01440593 0.02543625 0.00870699
v -0.01543481 0.02543872 -0.00666130
v -0.01543481 0.02543996 -0.00768680
v 0.01427804 0.02543625 -0.00871229
v 0.01427804 0.02545850 -0.00973425
v 0.01219863 0.02616305 -0.01380087
v 0.01527442 0.02616305 -0.01072792
v 0.01427804 0.02566863 -0.01075621
v -0.01543481 0.02548817 -0.00871229
v -0.01543481 0.02572301 -0.00973425
v -0.01624166 0.02620013 -0.00973425
v -0.01603047 0.02638801 -0.01033894
v -0.01643119 0.02698132 -0.01073499
v -0.01711891 0.02733359 -0.01044503
v -0.01683733 0.02774643 -0.01112751
v -0.01640953 0.02807769 -0.01173574
v -0.01701061 0.03189462 -0.01131493
v -0.01742757 0.03189462 -0.01075975
v -0.01816403 0.03413805 -0.00941599
v -0.01838064 0.03413805 -0.00870876
v -0.01699436 0.02842997 -0.01130078
v -0.01701061 0.02901215 -0.01131493
v -0.01852143 0.03413805 -0.00768326
v -0.01853767 0.03413805 -0.00731196
v -0.01832649 0.03516150 -0.00665776
v -0.01804490 0.03573503 -0.00665776
v -0.01804490 0.03573503 -0.00356360
v -0.01804490 0.03573379 0.00665953
v -0.01754129 0.03624675 0.00665953
v -0.01803948 0.03572514 0.00768503
v -0.01801783 0.03570042 0.00829325
v -0.01745465 0.03615899 0.00862919
v -0.01542397 0.03740493 0.00974309
v -0.01665321 0.03645441 0.00973248
v -0.01614419 0.03687590 0.00973248
v -0.01476874 0.03764101 0.01010025
v -0.01724346 0.03594145 0.00973248
v -0.01069656 0.03765956 0.01422345
v -0.01033375 0.03744696 0.01487057
v -0.00825434 0.03678567 0.01647954
v -0.00722546 0.03679803 0.01649014
v -0.01030126 0.03691422 0.01561317
v -0.01030126 0.03649272 0.01612592
v -0.00965144 0.03561018 0.01737773
v -0.00928321 0.03618618 0.01691449
v -0.01030126 0.03598100 0.01671646
v -0.00895830 0.03572637 0.01746613
v 0.03237000 0.03661633 0.01667403
v 0.03675626 0.03679556 0.01649014
v 0.01666070 0.02658949 -0.00973425
v 0.01701268 0.02731505 -0.01046978
v 0.03675626 0.03195765 0.01069433
v 0.01614626 0.02618035 -0.00973425
v 0.01457046 0.02660803 -0.01207167
v 0.01491161 0.02636576 -0.01138919
v 0.01285927 0.02636576 -0.01344018
v 0.01183581 0.02636576 -0.01446214
v 0.01633037 0.02696154 -0.01075975
v 0.01592424 0.02636576 -0.01036369
v 0.01558850 0.02660803 -0.01104618
v -0.01440593 0.02546715 0.00973248
v -0.01543481 0.02543996 0.00768149
v -0.01543481 0.02543872 0.00665953
v -0.01133555 0.02543625 0.01178347
v -0.01031209 0.02545726 0.01383093
v -0.01645827 0.02580830 -0.00666130
v -0.01645827 0.02582314 -0.00768680
v 0.01530691 0.02543996 -0.00768680
v 0.01427804 0.02543625 0.00870699
v 0.01530691 0.02569335 -0.00973425
v 0.01530691 0.02548446 -0.00871229
v -0.01653949 0.02604439 -0.00875473
v -0.01694021 0.02648195 -0.00912249
v -0.01675068 0.02662286 -0.00973425
v -0.01731386 0.02713582 -0.00973425
v -0.01796909 0.02754001 -0.00912249
v -0.01782288 0.02792319 -0.00975900
v -0.01723804 0.02804803 -0.01077389
v -0.01742757 0.02901215 -0.01075975
v -0.01789869 0.03189462 -0.01004897
v -0.01813696 0.03189462 -0.00953622
v -0.01816945 0.03326416 -0.00941599
v -0.01838606 0.03311336 -0.00870876
v -0.01789869 0.02901215 -0.01004897
v -0.01853226 0.03189462 -0.00768680
v -0.01854309 0.03348418 -0.00731196
v -0.01856475 0.03311336 -0.00665776
v -0.01854851 0.03413805 -0.00665776
v -0.01854851 0.03417018 0.00468987
v -0.01832649 0.03516150 -0.00356360
v -0.01832107 0.03516026 0.00665953
v -0.01830482 0.03516026 0.00768503
v -0.01816403 0.03519116 0.00866455
v -0.01792035 0.03555209 0.00897574
v -0.01596007 0.03671150 0.01026291
v -0.01706476 0.03576964 0.01038314
v -0.01534275 0.03687219 0.01066604
v -0.01442217 0.03743336 0.01077566
v -0.01135721 0.03745932 0.01386629
v -0.01125974 0.03690680 0.01477863
v -0.01086985 0.03673623 0.01541514
v -0.00825434 0.03627394 0.01699228
v -0.00722546 0.03628383 0.01700643
v -0.01099440 0.03579559 0.01652197
v -0.00929946 0.03522577 0.01763234
v -0.01036083 0.03522577 0.01724335
v -0.01006299 0.03492912 0.01754393
v -0.00825434 0.03516026 0.01779854
v -0.00825434 0.03576222 0.01749796
v 0.03675626 0.03628383 0.01700643
v 0.03675626 0.03194282 0.01076152
v 0.01643326 0.02602708 -0.00880423
v -0.01440593 0.02569706 0.01075798
v -0.01543481 0.02549064 0.00870699
v -0.01133555 0.02567110 0.01383093
v -0.01645827 0.02582314 0.00768149
v -0.01645827 0.02580830 0.00665953
v -0.00928321 0.02543625 0.01383093
v -0.01031209 0.02568223 0.01485643
v -0.00825975 0.02543872 0.01485643
v -0.00928321 0.02547333 0.01485643
v -0.01710808 0.02631508 -0.00666130
v -0.01709184 0.02632868 -0.00768680
v -0.01704310 0.02637936 -0.00844000
v 0.01632496 0.02577493 -0.00768680
v 0.01632496 0.02574526 -0.00666130
v 0.01602713 0.02565380 0.00019891
v 0.01530691 0.02543996 0.00768149
v 0.01427804 0.02545850 0.00972541
v 0.01325458 0.02545850 0.01075444
v 0.01017878 0.02545850 0.01382739
v 0.00914991 0.02543625 0.01382739
v -0.01750880 0.02694547 -0.00878302
v -0.01805032 0.02740775 -0.00844354
v -0.01818569 0.02792319 -0.00875473
v -0.01808822 0.02822231 -0.00943367
v -0.01813696 0.02901215 -0.00953622
v -0.01838606 0.03189462 -0.00871229
v -0.01850518 0.03189585 -0.00787775
v -0.01853226 0.02901215 -0.00768680
v -0.01856475 0.03189462 -0.00666130
v -0.01856475 0.03311336 -0.00356360
v -0.01854851 0.03417018 0.00669490
v -0.01853226 0.03413805 0.00768503
v -0.01808281 0.03487103 0.00943191
v -0.01838064 0.03417018 0.00870699
v -0.01776873 0.03519116 0.00975724
v -0.01535358 0.03613427 0.01170568
v -0.01359366 0.03648283 0.01301407
v -0.01637162 0.03612191 0.01066604
v -0.01721097 0.03508981 0.01073323
v -0.01677776 0.03538399 0.01106563
v -0.01609004 0.03579065 0.01142278
v -0.01432470 0.03688208 0.01169153
v -0.01155215 0.03649272 0.01507567
v -0.01201786 0.03580919 0.01554952
v -0.01127057 0.03614292 0.01582534
v -0.00722546 0.03577211 0.01750150
v 0.00071313 0.03577087 0.01750857
v -0.01167670 0.03544826 0.01623908
v -0.01132472 0.03512812 0.01668817
v -0.00928321 0.03413805 0.01789401
v -0.01019296 0.03417018 0.01760405
v -0.01189872 0.03476720 0.01645125
v -0.01069115 0.03417018 0.01737773
v -0.00825975 0.03417018 0.01801778
v -0.00723629 0.03417018 0.01804961
v -0.00722546 0.03516026 0.01782329
v 0.03675626 0.03577087 0.01750857
v 0.03675626 0.03193664 0.01170921
v -0.01334998 0.02617541 0.01276654
v -0.01539148 0.02619148 0.01070847
v -0.01543481 0.02572301 0.00973248
v -0.01653949 0.02604439 0.00874942
v -0.01130306 0.02616305 0.01482460
v -0.01704851 0.02637812 0.00843470
v -0.01709184 0.02632868 0.00768149
v -0.01710808 0.02631508 0.00665953
v -0.00590958 0.02543625 0.01383093
v -0.01031209 0.02616923 0.01570865
v -0.00938068 0.02601349 0.01598093
v -0.00723087 0.02577122 0.01588192
v -0.00825975 0.02578358 0.01588192
v -0.00590958 0.02543872 0.01485643
v -0.01761710 0.02682805 -0.00666130
v -0.01760627 0.02684411 -0.00768680
v 0.01633037 0.02574526 0.00020245
v 0.01602713 0.02565380 0.00020245
v 0.01633037 0.02574526 0.00665600
v 0.03675626 0.03193664 0.01588192
v 0.01530691 0.02548446 0.00870699
v 0.01427804 0.02566863 0.01075444
v 0.03675626 0.03198732 0.01690742
v 0.01120224 0.02566863 0.01382739
v 0.00914991 0.02548569 0.01485289
v 0.00813728 0.02543996 0.01485289
v -0.01809905 0.02735584 -0.00768680
v -0.01836439 0.02798870 -0.00768680
v -0.01838606 0.02901215 -0.00871229
v -0.01856475 0.02901215 -0.00666130
v -0.01856475 0.03311213 0.00666307
v -0.01853767 0.03311213 0.00768503
v -0.01838606 0.03413805 0.00870699
v -0.01813154 0.03417018 0.00953092
v -0.01789869 0.03413805 0.01005074
v -0.01789869 0.03417018 0.01004013
v -0.01698895 0.03470292 0.01129194
v -0.01406477 0.03580053 0.01349499
v -0.01576513 0.03540006 0.01211234
v -0.01229944 0.03614787 0.01479985
v -0.01271099 0.03543961 0.01520651
v 0.00071313 0.03561389 0.01758990
v -0.00928321 0.02901215 0.01789755
v -0.00825975 0.03003807 0.01802839
v -0.00825975 0.03413805 0.01802132
v -0.01020378 0.03413805 0.01760405
v -0.01020920 0.03311213 0.01760758
v -0.01242399 0.03417018 0.01599508
v -0.01193663 0.03417018 0.01647954
v -0.01133555 0.03413805 0.01693924
v -0.01394023 0.03474619 0.01439318
v -0.01071822 0.03413805 0.01736358
v -0.01071822 0.03311213 0.01736712
v -0.00723629 0.03413805 0.01805668
v -0.00210274 0.03417142 0.01804961
v 0.00071313 0.03489945 0.01788340
v 0.03675626 0.03516026 0.01782329
v -0.01196370 0.02636700 0.01446391
v -0.01603047 0.02638801 0.01033717
v -0.01624166 0.02620137 0.00973248
v -0.01501784 0.02638183 0.01136974
v -0.01693480 0.02648319 0.00911719
v -0.01094566 0.02636576 0.01548233
v -0.01750880 0.02694423 0.00878125
v -0.01805573 0.02740528 0.00844177
v -0.01760627 0.02684164 0.00768149
v -0.01761710 0.02682805 0.00665953
v -0.01031209 0.02658083 0.01622140
v -0.00978682 0.02645476 0.01639113
v -0.00910451 0.02635217 0.01649368
v -0.00723087 0.02627800 0.01656794
v -0.00590958 0.02577122 0.01588192
v -0.00825975 0.02629036 0.01655733
v 0.00711382 0.02577122 0.01587838
v -0.01786620 0.02708638 -0.00000265
v -0.01810988 0.02734224 -0.00666130
v 0.03675626 0.03231858 0.01769599
v 0.01017878 0.02569829 0.01485289
v 0.00923113 0.02603574 0.01597386
v 0.00813728 0.02579718 0.01587838
v -0.01839147 0.02798870 -0.00666130
v -0.01856475 0.02901215 -0.00000265
v -0.01856475 0.03189462 0.00666307
v -0.01853767 0.03189462 0.00768503
v -0.01839147 0.03311213 0.00870699
v -0.01813154 0.03413805 0.00953799
v -0.01790411 0.03208744 0.01005781
v -0.01740050 0.03417018 0.01078980
v -0.01787703 0.03417018 0.01007549
v -0.01701061 0.03417018 0.01130962
v -0.01597632 0.03471899 0.01232805
v -0.01474708 0.03541365 0.01314491
v -0.01020378 0.02901215 0.01760405
v -0.01000342 0.02798870 0.01751210
v -0.00928321 0.02798870 0.01772428
v -0.00825975 0.02798870 0.01785865
v -0.00825975 0.02901215 0.01802839
v -0.00723629 0.03311213 0.01806021
v -0.01030126 0.03189462 0.01756515
v -0.01549979 0.03189462 0.01286201
v -0.01295467 0.02901215 0.01545404
v -0.01245107 0.02901215 0.01596679
v -0.01203951 0.03189462 0.01638406
v -0.01599798 0.03413805 0.01234927
v -0.01549979 0.03311213 0.01286201
v -0.01194204 0.03189462 0.01647954
v -0.01133555 0.03311213 0.01694278
v -0.01071822 0.02901215 0.01736712
v 0.00302539 0.03311336 0.01806375
v 0.03237000 0.03414052 0.01805668
v 0.03675626 0.03414052 0.01805668
v -0.01162796 0.02660803 0.01514639
v -0.01366405 0.02661544 0.01308479
v -0.01570015 0.02662533 0.01101966
v -0.01616043 0.02731010 0.01148643
v -0.01643119 0.02697761 0.01073323
v -0.01711891 0.02733235 0.01044326
v -0.01675068 0.02662286 0.00973248
v -0.01731386 0.02713582 0.00973248
v -0.01796909 0.02754001 0.00912072
v -0.01105396 0.02730516 0.01656794
v -0.01134096 0.02695536 0.01588546
v -0.01819111 0.02792442 0.00875296
v -0.01836980 0.02798870 0.00768149
v -0.01809905 0.02735584 0.00768149
v -0.01810988 0.02734224 0.00665953
v -0.00980307 0.02747326 0.01742016
v -0.01020920 0.02716796 0.01690742
v -0.00928321 0.02739910 0.01748381
v -0.00825975 0.02679961 0.01707008
v -0.00723087 0.02679096 0.01708069
v 0.00711382 0.02627800 0.01656794
v -0.01825067 0.02766361 -0.00000265
v 0.03675626 0.03311336 0.01801424
v 0.00813728 0.02798870 0.01785511
v 0.00813728 0.02731999 0.01755100
v 0.00897121 0.02738550 0.01749442
v 0.00894955 0.02637070 0.01647954
v 0.00813728 0.02630272 0.01654672
v -0.01839147 0.02798870 0.00665953
v -0.01855933 0.02901215 0.00665953
v -0.01853767 0.02901215 0.00768149
v -0.01839147 0.02901215 0.00870699
v -0.01813154 0.03208744 0.00954153
v -0.01790411 0.02901215 0.01005781
v -0.01742757 0.03208744 0.01075798
v -0.01701061 0.03311213 0.01131316
v -0.01051786 0.02798870 0.01726457
v -0.00825975 0.02731258 0.01755454
v -0.00723087 0.02798870 0.01788340
v -0.00723087 0.02901215 0.01806021
v -0.00723629 0.03189462 0.01806021
v -0.01701061 0.03189462 0.01131316
v -0.01599798 0.02901215 0.01234927
v -0.01598173 0.02840895 0.01233158
v -0.01292760 0.02836198 0.01542575
v -0.01190955 0.02835457 0.01645125
v -0.01194204 0.02901215 0.01647954
v -0.01133555 0.03189462 0.01694278
v -0.01133555 0.02901215 0.01693924
v 0.00916074 0.03311336 0.01806375
v 0.00711382 0.02901215 0.01805668
v -0.01208825 0.02729033 0.01560610
v -0.01236984 0.02695165 0.01486350
v -0.01542397 0.02696648 0.01176933
v -0.01684274 0.02775137 0.01112928
v -0.01412434 0.02729898 0.01354803
v -0.01310630 0.02729527 0.01458060
v -0.01277056 0.02767845 0.01526309
v -0.01480665 0.02770935 0.01320149
v -0.01582469 0.02772542 0.01216892
v -0.01724346 0.02805173 0.01077566
v -0.01782829 0.02792442 0.00976077
v -0.01808822 0.02822231 0.00943544
v -0.01137345 0.02800229 0.01671646
v -0.01174168 0.02767227 0.01628858
v -0.00723087 0.02730392 0.01756515
v -0.00590958 0.02679096 0.01708069
v 0.00031241 0.02697513 0.01725750
v -0.00590958 0.02693929 0.01722214
v 0.00711382 0.02679220 0.01708069
v 0.00813728 0.02680703 0.01705594
v 0.00711382 0.02798870 0.01788694
v 0.00711382 0.02730392 0.01756868
v -0.01813154 0.02901215 0.00954153
v -0.01699436 0.02843491 0.01129548
v -0.01742757 0.02901215 0.01075798
v -0.00107928 0.02798870 0.01788694
v -0.00590958 0.02901215 0.01806021
v -0.01700519 0.02901215 0.01130962
v -0.01651241 0.03003807 0.01182237
v -0.01640953 0.02808140 0.01173397
v 0.00506689 0.02730392 0.01756868
f 1 2 9
f 1 9 3
f 1 3 11
f 1 11 4
f 1 4 15
f 1 15 5
f 1 5 6
f 1 6 2
f 2 7 8
f 2 8 9
f 2 6 10
f 2 10 19
f 2 19 7
f 3 9 23
f 3 23 12
f 3 12 25
f 3 25 11
f 4 11 13
f 4 13 14
f 4 14 31
f 4 31 15
f 5 15 16
f 5 16 6
f 6 16 17
f 6 17 10
f 7 18 8
f 7 19 20
f 7 20 18
f 8 18 21
f 8 21 22
f 8 22 9
f 9 22 23
f 10 17 24
f 10 24 19
f 11 25 13
f 12 23 26
f 12 26 27
f 12 27 44
f 12 44 25
f 13 28 29
f 13 29 30
f 13 30 14
f 13 25 28
f 14 30 56
f 14 56 57
f 14 57 31
f 15 32 16
f 15 31 32
f 16 32 33
f 16 33 34
f 16 34 35
f 16 35 36
f 16 36 17
f 17 36 37
f 17 37 24
f 18 38 21
f 18 20 39
f 18 39 69
f 18 69 38
f 19 24 20
f 20 24 40
f 20 40 39
f 21 38 41
f 21 41 42
f 21 42 22
f 22 43 23
f 22 42 43
f 23 43 26
f 24 37 40
f 25 44 45
f 25 45 46
f 25 46 47
f 25 47 28
f 26 43 48
f 26 48 49
f 26 49 27
f 27 49 76
f 27 76 44
f 28 47 29
f 29 47 50
f 29 50 51
f 29 51 52
f 29 52 53
f 29 53 30
f 30 53 54
f 30 54 55
f 30 55 90
f 30 90 56
f 31 57 95
f 31 95 58
f 31 58 59
f 31 59 60
f 31 60 61
f 31 61 34
f 31 34 33
f 31 33 32
f 34 62 35
f 34 61 62
f 35 62 63
f 35 63 36
f 36 63 64
f 36 64 65
f 36 65 37
f 37 65 66
f 37 66 40
f 38 67 68
f 38 68 41
f 38 69 108
f 38 108 67
f 39 40 70
f 39 70 71
f 39 71 69
f 40 66 70
f 41 68 42
f 42 68 72
f 42 72 73
f 42 73 43
f 43 73 74
f 43 74 75
f 43 75 48
f 44 76 77
f 44 77 45
f 45 77 46
f 46 78 79
f 46 79 80
f 46 80 47
f 46 77 81
f 46 81 78
f 47 80 50
f 48 75 82
f 48 82 49
f 49 82 83
f 49 83 84
f 49 84 76
f 50 85 51
f 50 80 85
f 51 85 86
f 51 86 52
f 52 86 87
f 52 87 53
f 53 87 88
f 53 88 54
f 54 88 55
f 55 88 89
f 55 89 137
f 55 137 90
f 56 90 91
f 56 91 92
f 56 92 93
f 56 93 94
f 56 94 57
f 57 94 95
f 58 95 96
f 58 96 59
f 59 96 148
f 59 148 197
f 59 197 251
f 59 251 306
f 59 306 367
f 59 367 426
f 59 426 484
f 59 484 538
f 59 538 561
f 59 561 504
f 59 504 450
f 59 450 447
f 59 447 427
f 59 427 368
f 59 368 309
f 59 309 252
f 59 252 199
f 59 199 198
f 59 198 149
f 59 149 97
f 59 97 60
f 60 97 98
f 60 98 61
f 61 98 62
f 62 98 99
f 62 99 63
f 63 99 100
f 63 100 101
f 63 101 102
f 63 102 64
f 64 102 103
f 64 103 65
f 65 103 104
f 65 104 105
f 65 105 66
f 66 105 106
f 66 106 70
f 67 107 68
f 67 108 160
f 67 160 107
f 68 107 109
f 68 109 72
f 69 71 112
f 69 112 108
f 70 110 112
f 70 112 71
f 70 106 111
f 70 111 110
f 72 109 113
f 72 113 114
f 72 114 73
f 73 114 115
f 73 115 75
f 73 75 74
f 75 115 114
f 75 114 116
f 75 116 117
f 75 117 118
f 75 118 119
f 75 119 82
f 76 81 77
f 76 84 120
f 76 120 81
f 78 81 121
f 78 121 79
f 79 85 80
f 79 121 122
f 79 122 123
f 79 123 85
f 81 120 124
f 81 124 125
f 81 125 122
f 81 122 121
f 82 119 83
f 83 119 126
f 83 126 127
f 83 127 128
f 83 128 129
f 83 129 84
f 84 129 130
f 84 130 131
f 84 131 120
f 85 123 132
f 85 132 133
f 85 133 86
f 86 133 134
f 86 134 87
f 87 135 88
f 87 134 136
f 87 136 135
f 88 135 89
f 89 135 136
f 89 136 137
f 90 137 138
f 90 138 139
f 90 139 140
f 90 140 91
f 91 140 141
f 91 141 142
f 91 142 92
f 92 142 143
f 92 143 93
f 93 143 144
f 93 144 145
f 93 145 146
f 93 146 147
f 93 147 94
f 94 147 95
f 95 147 96
f 96 147 148
f 97 149 150
f 97 150 151
f 97 151 98
f 98 151 99
f 99 151 100
f 100 152 101
f 100 151 152
f 101 152 102
f 102 152 153
f 102 153 103
f 103 153 154
f 103 154 155
f 103 155 156
f 103 156 104
f 104 156 105
f 105 156 157
f 105 157 111
f 105 111 106
f 107 158 159
f 107 159 109
f 107 160 210
f 107 210 158
f 108 112 161
f 108 161 160
f 109 159 113
f 110 161 112
f 110 111 162
f 110 162 161
f 111 157 163
f 111 163 162
f 113 159 164
f 113 164 165
f 113 165 114
f 114 165 116
f 116 165 166
f 116 166 167
f 116 167 117
f 117 167 118
f 118 167 168
f 118 168 169
f 118 169 170
f 118 170 119
f 119 170 126
f 120 131 124
f 122 125 123
f 123 125 171
f 123 171 132
f 124 131 125
f 125 172 173
f 125 173 171
f 125 131 172
f 126 170 127
f 127 170 174
f 127 174 175
f 127 175 128
f 128 176 130
f 128 130 129
f 128 175 177
f 128 177 176
f 130 176 178
f 130 178 131
f 131 178 172
f 132 171 179
f 132 179 180
f 132 180 181
f 132 181 133
f 133 181 134
f 134 181 182
f 134 182 136
f 136 183 137
f 136 182 184
f 136 184 183
f 137 183 185
f 137 185 138
f 138 186 139
f 138 185 186
f 139 186 187
f 139 187 140
f 140 187 188
f 140 188 141
f 141 188 142
f 142 189 143
f 142 188 189
f 143 190 144
f 143 189 190
f 144 191 192
f 144 192 145
f 144 190 193
f 144 193 191
f 145 192 194
f 145 194 146
f 146 194 195
f 146 195 147
f 147 195 196
f 147 196 148
f 148 196 197
f 149 198 150
f 150 198 199
f 150 199 200
f 150 200 152
f 150 152 151
f 152 201 202
f 152 202 153
f 152 200 201
f 153 202 154
f 154 203 204
f 154 204 155
f 154 202 205
f 154 205 206
f 154 206 207
f 154 207 203
f 155 204 156
f 156 204 208
f 156 208 157
f 157 208 209
f 157 209 163
f 158 210 213
f 158 213 261
f 158 261 326
f 158 326 389
f 158 389 436
f 158 436 375
f 158 375 321
f 158 321 258
f 158 258 211
f 158 211 159
f 159 211 212
f 159 212 164
f 160 161 162
f 160 162 213
f 160 213 210
f 162 163 214
f 162 214 213
f 163 209 215
f 163 215 214
f 164 216 165
f 164 212 217
f 164 217 218
f 164 218 216
f 165 216 166
f 166 216 219
f 166 219 220
f 166 220 221
f 166 221 222
f 166 222 168
f 166 168 167
f 168 222 221
f 168 221 169
f 169 221 223
f 169 223 170
f 170 223 224
f 170 224 174
f 171 173 179
f 172 225 173
f 172 178 225
f 173 225 226
f 173 226 179
f 174 224 227
f 174 227 175
f 175 227 228
f 175 228 229
f 175 229 177
f 176 177 225
f 176 225 178
f 177 229 225
f 179 226 230
f 179 230 231
f 179 231 180
f 180 232 181
f 180 231 232
f 181 232 182
f 182 232 233
f 182 233 234
f 182 234 184
f 183 184 235
f 183 235 185
f 184 234 235
f 185 235 236
f 185 236 237
f 185 237 186
f 186 238 239
f 186 239 187
f 186 237 240
f 186 240 238
f 187 239 188
f 188 239 241
f 188 241 242
f 188 242 189
f 189 242 243
f 189 243 190
f 190 243 193
f 191 244 192
f 191 193 244
f 192 245 194
f 192 244 245
f 193 243 246
f 193 246 247
f 193 247 248
f 193 248 244
f 194 249 195
f 194 245 249
f 195 249 196
f 196 249 250
f 196 250 251
f 196 251 197
f 199 252 200
f 200 252 253
f 200 253 205
f 200 205 202
f 200 202 201
f 203 208 204
f 203 207 254
f 203 254 255
f 203 255 208
f 205 253 206
f 206 256 257
f 206 257 254
f 206 254 207
f 206 253 256
f 208 255 209
f 209 255 215
f 211 258 320
f 211 320 259
f 211 259 260
f 211 260 212
f 212 260 217
f 213 214 261
f 214 215 262
f 214 262 261
f 215 255 263
f 215 263 264
f 215 264 265
f 215 265 262
f 216 218 219
f 217 260 266
f 217 266 218
f 218 266 267
f 218 267 219
f 219 267 268
f 219 268 269
f 219 269 221
f 219 221 220
f 221 269 223
f 223 269 270
f 223 270 271
f 223 271 272
f 223 272 224
f 224 272 273
f 224 273 227
f 225 229 274
f 225 274 275
f 225 275 276
f 225 276 277
f 225 277 226
f 226 277 230
f 227 273 278
f 227 278 228
f 228 278 279
f 228 279 274
f 228 274 229
f 230 277 280
f 230 280 281
f 230 281 282
f 230 282 231
f 231 283 233
f 231 233 232
f 231 282 283
f 233 283 234
f 234 283 284
f 234 284 285
f 234 285 286
f 234 286 235
f 235 286 236
f 236 286 287
f 236 287 288
f 236 288 237
f 237 288 289
f 237 289 240
f 238 290 239
f 238 240 291
f 238 291 292
f 238 292 290
f 239 293 241
f 239 290 293
f 240 289 294
f 240 294 291
f 241 293 295
f 241 295 242
f 242 295 243
f 243 295 296
f 243 296 246
f 244 297 245
f 244 248 297
f 245 298 249
f 245 297 298
f 246 296 299
f 246 299 300
f 246 300 247
f 247 301 302
f 247 302 248
f 247 300 303
f 247 303 301
f 248 304 297
f 248 302 304
f 249 298 250
f 250 298 305
f 250 305 306
f 250 306 251
f 252 307 308
f 252 308 253
f 252 309 310
f 252 310 307
f 253 308 256
f 254 257 256
f 254 256 311
f 254 311 312
f 254 312 313
f 254 313 314
f 254 314 255
f 255 314 263
f 256 315 316
f 256 316 317
f 256 317 311
f 256 308 315
f 258 318 319
f 258 319 320
f 258 321 322
f 258 322 318
f 259 320 374
f 259 374 323
f 259 323 260
f 260 323 324
f 260 324 266
f 261 262 325
f 261 325 385
f 261 385 326
f 262 265 327
f 262 327 328
f 262 328 325
f 263 314 313
f 263 313 264
f 264 313 312
f 264 312 316
f 264 316 310
f 264 310 327
f 264 327 265
f 266 324 329
f 266 329 267
f 267 329 268
f 268 329 330
f 268 330 331
f 268 331 271
f 268 271 269
f 269 271 270
f 271 332 333
f 271 333 334
f 271 334 335
f 271 335 272
f 271 331 332
f 272 278 273
f 272 335 278
f 274 279 336
f 274 336 275
f 275 336 341
f 275 341 337
f 275 337 276
f 276 337 338
f 276 338 339
f 276 339 277
f 277 340 280
f 277 339 340
f 278 336 279
f 278 335 341
f 278 341 336
f 280 340 342
f 280 342 343
f 280 343 281
f 281 343 344
f 281 344 345
f 281 345 282
f 282 345 346
f 282 346 400
f 282 400 347
f 282 347 284
f 282 284 283
f 284 347 285
f 285 347 348
f 285 348 287
f 285 287 286
f 287 348 349
f 287 349 288
f 288 349 350
f 288 350 351
f 288 351 289
f 289 351 294
f 290 292 352
f 290 352 293
f 291 294 353
f 291 353 292
f 292 353 352
f 293 352 354
f 293 354 355
f 293 355 356
f 293 356 295
f 294 351 353
f 295 356 357
f 295 357 358
f 295 358 296
f 296 358 299
f 297 359 360
f 297 360 298
f 297 304 359
f 298 360 305
f 299 358 361
f 299 361 300
f 300 361 303
f 301 362 304
f 301 304 302
f 301 303 361
f 301 361 363
f 301 363 364
f 301 364 362
f 304 362 365
f 304 365 366
f 304 366 359
f 305 367 306
f 305 360 367
f 307 310 316
f 307 316 308
f 308 316 315
f 309 368 369
f 309 369 310
f 310 369 327
f 311 317 312
f 312 317 316
f 318 370 371
f 318 371 319
f 318 322 372
f 318 372 370
f 319 371 373
f 319 373 374
f 319 374 320
f 321 375 322
f 322 376 372
f 322 375 377
f 322 377 378
f 322 378 376
f 323 374 435
f 323 435 379
f 323 379 324
f 324 379 380
f 324 380 381
f 324 381 329
f 325 328 382
f 325 382 368
f 325 368 383
f 325 383 384
f 325 384 445
f 325 445 385
f 326 386 387
f 326 387 388
f 326 388 389
f 326 385 386
f 327 369 328
f 328 369 368
f 328 368 382
f 329 381 330
f 330 381 390
f 330 390 333
f 330 333 332
f 330 332 331
f 333 391 392
f 333 392 393
f 333 393 334
f 333 390 391
f 334 393 341
f 334 341 335
f 337 341 394
f 337 394 338
f 338 394 456
f 338 456 395
f 338 395 340
f 338 340 339
f 340 395 396
f 340 396 342
f 341 393 394
f 342 396 397
f 342 397 457
f 342 457 398
f 342 398 344
f 342 344 343
f 344 398 457
f 344 457 509
f 344 509 510
f 344 510 458
f 344 458 399
f 344 399 400
f 344 400 346
f 344 346 345
f 347 400 348
f 348 400 349
f 349 400 401
f 349 401 350
f 350 402 351
f 350 401 403
f 350 403 402
f 351 402 404
f 351 404 353
f 352 405 406
f 352 406 354
f 352 353 407
f 352 407 405
f 353 404 408
f 353 408 409
f 353 409 410
f 353 410 407
f 354 406 411
f 354 411 355
f 355 411 356
f 356 411 357
f 357 412 358
f 357 411 406
f 357 406 412
f 358 412 413
f 358 413 414
f 358 414 361
f 359 366 360
f 360 366 415
f 360 415 416
f 360 416 426
f 360 426 367
f 361 414 413
f 361 413 417
f 361 417 418
f 361 418 363
f 362 364 419
f 362 419 365
f 363 418 364
f 364 420 419
f 364 418 421
f 364 421 422
f 364 422 420
f 365 419 423
f 365 423 424
f 365 424 425
f 365 425 366
f 366 425 415
f 368 427 383
f 370 372 428
f 370 428 429
f 370 429 430
f 370 430 371
f 371 430 431
f 371 431 373
f 372 376 432
f 372 432 428
f 373 431 433
f 373 433 434
f 373 434 435
f 373 435 374
f 375 436 441
f 375 441 377
f 376 437 432
f 376 378 438
f 376 438 437
f 377 439 440
f 377 440 378
f 377 441 499
f 377 499 439
f 378 440 438
f 379 435 494
f 379 494 442
f 379 442 443
f 379 443 380
f 380 443 381
f 381 443 391
f 381 391 390
f 383 444 384
f 383 427 444
f 384 444 446
f 384 446 445
f 385 445 446
f 385 446 447
f 385 447 448
f 385 448 386
f 386 449 387
f 386 448 450
f 386 450 449
f 387 449 451
f 387 451 388
f 388 451 452
f 388 452 453
f 388 453 389
f 389 453 441
f 389 441 436
f 391 454 455
f 391 455 392
f 391 443 454
f 392 455 456
f 392 456 393
f 393 456 394
f 395 456 396
f 396 456 397
f 397 456 455
f 397 455 457
f 399 458 400
f 400 458 401
f 401 458 459
f 401 459 512
f 401 512 460
f 401 460 403
f 402 403 460
f 402 460 461
f 402 461 462
f 402 462 463
f 402 463 464
f 402 464 408
f 402 408 404
f 405 465 406
f 405 407 410
f 405 410 465
f 406 465 412
f 408 464 409
f 409 464 466
f 409 466 410
f 410 466 465
f 412 467 413
f 412 465 467
f 413 467 465
f 413 465 468
f 413 468 417
f 415 425 416
f 416 425 469
f 416 469 426
f 417 468 421
f 417 421 418
f 419 470 471
f 419 471 472
f 419 472 423
f 419 420 473
f 419 473 474
f 419 474 470
f 420 422 473
f 421 475 476
f 421 476 477
f 421 477 422
f 421 468 478
f 421 478 475
f 422 477 479
f 422 479 480
f 422 480 474
f 422 474 473
f 423 472 481
f 423 481 424
f 424 481 482
f 424 482 483
f 424 483 425
f 425 483 484
f 425 484 469
f 426 469 484
f 427 447 446
f 427 446 444
f 428 432 485
f 428 485 429
f 429 486 487
f 429 487 430
f 429 485 488
f 429 488 486
f 430 487 431
f 431 489 433
f 431 487 489
f 432 437 490
f 432 490 485
f 433 491 492
f 433 492 493
f 433 493 434
f 433 489 491
f 434 493 435
f 435 493 494
f 437 495 490
f 437 438 496
f 437 496 495
f 438 440 497
f 438 497 496
f 439 498 440
f 439 499 559
f 439 559 498
f 440 500 497
f 440 498 500
f 441 453 501
f 441 501 499
f 442 494 502
f 442 502 503
f 442 503 454
f 442 454 443
f 447 450 448
f 449 450 451
f 450 504 452
f 450 452 505
f 450 505 451
f 451 505 452
f 452 506 507
f 452 507 453
f 452 504 506
f 453 507 501
f 454 503 508
f 454 508 455
f 455 508 457
f 457 508 567
f 457 567 509
f 458 510 511
f 458 511 459
f 459 511 570
f 459 570 512
f 460 512 513
f 460 513 461
f 461 513 462
f 462 514 515
f 462 515 464
f 462 464 516
f 462 516 463
f 462 513 514
f 463 516 464
f 464 515 517
f 464 517 518
f 464 518 466
f 465 519 468
f 465 466 519
f 466 518 478
f 466 478 519
f 468 519 478
f 470 474 520
f 470 520 521
f 470 521 522
f 470 522 523
f 470 523 524
f 470 524 471
f 471 524 579
f 471 579 525
f 471 525 472
f 472 525 481
f 474 480 526
f 474 526 520
f 475 527 528
f 475 528 529
f 475 529 530
f 475 530 476
f 475 478 518
f 475 518 531
f 475 531 532
f 475 532 527
f 476 530 533
f 476 533 534
f 476 534 477
f 477 534 480
f 477 480 479
f 480 535 526
f 480 534 586
f 480 586 535
f 481 525 536
f 481 536 537
f 481 537 482
f 482 537 483
f 483 537 538
f 483 538 484
f 485 490 539
f 485 539 540
f 485 540 488
f 486 488 541
f 486 541 542
f 486 542 543
f 486 543 544
f 486 544 487
f 487 544 545
f 487 545 489
f 488 540 541
f 489 545 546
f 489 546 547
f 489 547 491
f 490 548 549
f 490 549 539
f 490 495 548
f 491 547 492
f 492 547 550
f 492 550 551
f 492 551 552
f 492 552 493
f 493 552 553
f 493 553 494
f 494 553 502
f 495 496 548
f 496 497 554
f 496 554 555
f 496 555 548
f 497 556 554
f 497 500 557
f 497 557 556
f 498 558 557
f 498 557 500
f 498 559 605
f 498 605 558
f 499 501 559
f 501 507 559
f 502 553 503
f 503 553 560
f 503 560 508
f 504 561 562
f 504 562 563
f 504 563 564
f 504 564 565
f 504 565 506
f 506 565 507
f 507 566 559
f 507 565 566
f 508 560 567
f 509 567 568
f 509 568 510
f 510 568 569
f 510 569 511
f 511 569 570
f 512 570 612
f 512 612 571
f 512 571 513
f 513 571 514
f 514 571 612
f 514 612 572
f 514 572 614
f 514 614 573
f 514 573 515
f 515 573 574
f 515 574 517
f 517 574 531
f 517 531 518
f 520 526 535
f 520 535 521
f 521 554 522
f 521 535 575
f 521 575 554
f 522 554 556
f 522 556 523
f 523 556 576
f 523 576 577
f 523 577 578
f 523 578 524
f 524 578 579
f 525 579 536
f 527 532 574
f 527 574 580
f 527 580 581
f 527 581 528
f 528 581 582
f 528 582 529
f 529 582 583
f 529 583 584
f 529 584 585
f 529 585 530
f 530 585 533
f 531 574 532
f 533 585 586
f 533 586 534
f 535 586 587
f 535 587 584
f 535 584 575
f 536 579 578
f 536 578 616
f 536 616 588
f 536 588 538
f 536 538 537
f 538 588 589
f 538 589 561
f 539 549 590
f 539 590 591
f 539 591 540
f 540 592 541
f 540 591 592
f 541 592 542
f 542 593 544
f 542 544 543
f 542 592 594
f 542 594 595
f 542 595 596
f 542 596 597
f 542 597 598
f 542 598 593
f 544 599 600
f 544 600 547
f 544 547 546
f 544 546 545
f 544 593 599
f 547 601 550
f 547 600 601
f 548 555 554
f 548 554 575
f 548 575 602
f 548 602 603
f 548 603 590
f 548 590 549
f 550 601 570
f 550 570 551
f 551 570 569
f 551 569 568
f 551 568 567
f 551 567 552
f 552 567 553
f 553 567 560
f 556 557 576
f 557 558 604
f 557 604 576
f 558 605 606
f 558 606 607
f 558 607 604
f 559 608 605
f 559 566 609
f 559 609 608
f 561 589 610
f 561 610 562
f 562 610 563
f 563 609 564
f 563 610 611
f 563 611 608
f 563 608 609
f 564 609 565
f 565 609 566
f 570 601 612
f 572 612 601
f 572 601 600
f 572 600 599
f 572 599 613
f 572 613 614
f 573 614 580
f 573 580 574
f 575 584 602
f 576 604 577
f 577 604 615
f 577 615 578
f 578 615 610
f 578 610 616
f 580 614 617
f 580 617 618
f 580 618 581
f 581 618 617
f 581 617 613
f 581 613 582
f 582 598 597
f 582 597 583
f 582 613 619
f 582 619 598
f 583 597 596
f 583 596 584
f 584 603 602
f 584 587 585
f 584 596 603
f 585 587 586
f 588 616 589
f 589 616 610
f 590 603 596
f 590 596 595
f 590 595 591
f 591 595 594
f 591 594 592
f 593 598 619
f 593 619 613
f 593 613 599
f 604 607 620
f 604 620 615
f 605 608 606
f 606 620 607
f 606 608 611
f 606 611 620
f 610 615 620
f 610 620 611
f 613 617 614

