mtllib material.mtl
usemtl black
v -0.01765100 -0.08700000 -0.01165100
v -0.01426900 -0.08700000 -0.01561100
v -0.01002200 -0.08700000 -0.01862500
v -0.01363700 -0.08700000 -0.01393800
v -0.01363700 -0.08700000 -0.01393800
v -0.01363700 -0.08700000 -0.01393800
v -0.00962700 -0.08700000 -0.01695800
v -0.00962700 -0.08700000 -0.01695800
v -0.00962700 -0.08700000 -0.01695800
v -0.01996300 -0.08700000 -0.00698500
v -0.01874100 -0.08700000 -0.00538800
v -0.01874100 -0.08700000 -0.00538800
v -0.01874100 -0.08700000 -0.00538800
v -0.01674400 -0.08700000 -0.00999400
v -0.01674400 -0.08700000 -0.00999400
v -0.01674400 -0.08700000 -0.00999400
v -0.02106500 -0.08700000 -0.00189600
v -0.01949500 -0.08700000 -0.00042500
v -0.01949500 -0.08700000 -0.00042500
v -0.01949500 -0.08700000 -0.00042500
v -0.02115000 -0.08700000 0.00000000
v -0.02106500 -0.08700000 0.00189600
v -0.01996300 -0.08700000 0.00698500
v -0.01765100 -0.08700000 0.01165100
v -0.01895800 -0.08700000 0.00456600
v -0.01895800 -0.08700000 0.00456600
v -0.01895800 -0.08700000 0.00456600
v -0.01426900 -0.08700000 0.01561100
v -0.01002200 -0.08700000 0.01862500
v -0.01035700 -0.08700000 0.01652200
v -0.01035700 -0.08700000 0.01652200
v -0.01035700 -0.08700000 0.01652200
v -0.01423200 -0.08700000 0.01333000
v -0.01423200 -0.08700000 0.01333000
v -0.01423200 -0.08700000 0.01333000
v -0.00516800 -0.08700000 0.02050900
v 0.00000000 -0.08700000 0.02115000
v -0.00075000 -0.08700000 0.02047300
v -0.00075000 -0.08700000 0.02047300
v -0.00075000 -0.08700000 0.02047300
v -0.00082300 -0.08700000 0.02040000
v -0.00082300 -0.08700000 0.02040000
v -0.00082300 -0.08700000 0.02040000
v -0.00085000 -0.08700000 0.02030000
v -0.00085000 -0.08700000 0.02030000
v -0.00085000 -0.08700000 0.02030000
v -0.00579600 -0.08700000 0.01861900
v -0.00579600 -0.08700000 0.01861900
v -0.00579600 -0.08700000 0.01861900
v -0.00085000 -0.08700000 0.01948100
v -0.00085000 -0.08700000 0.01948100
v -0.00085000 -0.08700000 0.01948100
v -0.00579600 -0.08400000 0.01861900
v -0.00579600 -0.08400000 0.01861900
v -0.01035700 -0.08400000 0.01652200
v -0.01035700 -0.08400000 0.01652200
v -0.01423200 -0.08400000 0.01333000
v -0.01423200 -0.08400000 0.01333000
v -0.01558700 -0.08100000 0.01954600
v -0.01954600 -0.08100000 0.01558700
v -0.02252400 -0.08100000 0.01084700
v -0.01558700 -0.08100000 -0.01954600
v -0.01954600 -0.08100000 -0.01558700
v -0.01084700 -0.08100000 -0.02252400
v -0.01084700 -0.08100000 0.02252400
v -0.02437300 -0.08100000 0.00556300
v -0.01949500 -0.08400000 -0.00042500
v -0.01949500 -0.08400000 -0.00042500
v -0.01874100 -0.08400000 -0.00538800
v -0.01874100 -0.08400000 -0.00538800
v -0.01674400 -0.08400000 -0.00999400
v -0.01674400 -0.08400000 -0.00999400
v -0.01363700 -0.08400000 -0.01393800
v -0.01363700 -0.08400000 -0.01393800
v -0.00962700 -0.08400000 -0.01695800
v -0.00962700 -0.08400000 -0.01695800
v -0.00556300 -0.08100000 -0.02437300
v -0.00497800 -0.08400000 -0.01885400
v -0.00497800 -0.08400000 -0.01885400
v 0.00000000 -0.08100000 -0.02500000
v 0.00556300 -0.08100000 -0.02437300
v 0.00000000 -0.08100000 0.02500000
v -0.00556300 -0.08100000 0.02437300
v -0.00065000 -0.08400000 0.02050000
v -0.00065000 -0.08400000 0.02050000
v 0.00065000 -0.08400000 0.02050000
v 0.00065000 -0.08400000 0.02050000
v 0.00072700 -0.08400000 0.02048500
v 0.00072700 -0.08400000 0.02048500
v 0.00072700 -0.08700000 0.02048500
v 0.00072700 -0.08700000 0.02048500
v 0.00072700 -0.08700000 0.02048500
v 0.00079100 -0.08700000 0.02044100
v 0.00079100 -0.08700000 0.02044100
v 0.00079100 -0.08700000 0.02044100
v 0.00079100 -0.08400000 0.02044100
v 0.00079100 -0.08400000 0.02044100
v 0.00083500 -0.08700000 0.02037600
v 0.00083500 -0.08700000 0.02037600
v 0.00083500 -0.08400000 0.02037600
v 0.00083500 -0.08400000 0.02037600
v 0.00085000 -0.08400000 0.02030000
v 0.00085000 -0.08400000 0.02030000
v 0.00085000 -0.08700000 0.02030000
v 0.00085000 -0.08700000 0.02030000
v 0.00085000 -0.08700000 0.02030000
v 0.00085000 -0.08700000 0.01948100
v 0.00085000 -0.08700000 0.01948100
v 0.00085000 -0.08700000 0.01948100
v 0.00579600 -0.08700000 0.01861900
v 0.00579600 -0.08700000 0.01861900
v 0.00579600 -0.08700000 0.01861900
v 0.00085000 -0.08400000 0.01948100
v 0.00085000 -0.08400000 0.01948100
v 0.00516800 -0.08700000 0.02050900
v 0.01002200 -0.08700000 0.01862500
v 0.01426900 -0.08700000 -0.01561100
v 0.01765100 -0.08700000 -0.01165100
v 0.02106500 -0.08700000 -0.00189600
v 0.02115000 -0.08700000 0.00000000
v 0.02106500 -0.08700000 0.00189600
v 0.01949500 -0.08700000 -0.00042500
v 0.01949500 -0.08700000 -0.00042500
v 0.01949500 -0.08700000 -0.00042500
v 0.01895800 -0.08700000 0.00456600
v 0.01895800 -0.08700000 0.00456600
v 0.01895800 -0.08700000 0.00456600
v 0.01874100 -0.08700000 -0.00538800
v 0.01874100 -0.08700000 -0.00538800
v 0.01874100 -0.08700000 -0.00538800
v 0.01949500 -0.08400000 -0.00042500
v 0.01949500 -0.08400000 -0.00042500
v 0.01895800 -0.08400000 0.00456600
v 0.01895800 -0.08400000 0.00456600
v 0.01996300 -0.08700000 -0.00698500
v 0.01716400 -0.08400000 0.00925500
v 0.01716400 -0.08400000 0.00925500
v 0.02500000 -0.08100000 0.00000000
v 0.01558700 -0.08100000 0.01954600
v 0.01084700 -0.08100000 0.02252400
v 0.00556300 -0.08100000 0.02437300
v 0.01423200 -0.08400000 0.01333000
v 0.01423200 -0.08400000 0.01333000
v 0.01035700 -0.08400000 0.01652200
v 0.01035700 -0.08400000 0.01652200
v 0.00579600 -0.08400000 0.01861900
v 0.00579600 -0.08400000 0.01861900
v 0.01035700 -0.08700000 0.01652200
v 0.01035700 -0.08700000 0.01652200
v 0.01035700 -0.08700000 0.01652200
v 0.01423200 -0.08700000 0.01333000
v 0.01423200 -0.08700000 0.01333000
v 0.01423200 -0.08700000 0.01333000
v 0.01765100 -0.08700000 0.01165100
v 0.01426900 -0.08700000 0.01561100
v 0.01716400 -0.08700000 0.00925500
v 0.01716400 -0.08700000 0.00925500
v 0.01716400 -0.08700000 0.00925500
v 0.01996300 -0.08700000 0.00698500
v 0.02437300 -0.08100000 -0.00556300
v 0.02252400 -0.08100000 -0.01084700
v 0.01954600 -0.08100000 -0.01558700
v 0.01558700 -0.08100000 -0.01954600
v 0.01084700 -0.08100000 -0.02252400
v 0.00497800 -0.08400000 -0.01885400
v 0.00497800 -0.08400000 -0.01885400
v 0.00962700 -0.08400000 -0.01695800
v 0.00962700 -0.08400000 -0.01695800
v 0.00000000 -0.08400000 -0.01950000
v 0.00000000 -0.08400000 -0.01950000
v 0.00000000 -0.08700000 -0.01950000
v 0.00000000 -0.08700000 -0.01950000
v 0.00000000 -0.08700000 -0.01950000
v -0.00497800 -0.08700000 -0.01885400
v -0.00497800 -0.08700000 -0.01885400
v -0.00497800 -0.08700000 -0.01885400
v -0.00516800 -0.08700000 -0.02050900
v 0.00000000 -0.08700000 -0.02115000
v 0.00516800 -0.08700000 -0.02050900
v 0.01002200 -0.08700000 -0.01862500
v 0.00962700 -0.08700000 -0.01695800
v 0.00962700 -0.08700000 -0.01695800
v 0.00962700 -0.08700000 -0.01695800
v 0.01363700 -0.08700000 -0.01393800
v 0.01363700 -0.08700000 -0.01393800
v 0.01363700 -0.08700000 -0.01393800
v 0.01674400 -0.08700000 -0.00999400
v 0.01674400 -0.08700000 -0.00999400
v 0.01674400 -0.08700000 -0.00999400
v 0.01363700 -0.08400000 -0.01393800
v 0.01363700 -0.08400000 -0.01393800
v 0.01674400 -0.08400000 -0.00999400
v 0.01674400 -0.08400000 -0.00999400
v 0.01874100 -0.08400000 -0.00538800
v 0.01874100 -0.08400000 -0.00538800
v 0.00497800 -0.08700000 -0.01885400
v 0.00497800 -0.08700000 -0.01885400
v 0.00497800 -0.08700000 -0.01885400
v 0.00065000 -0.08700000 0.02050000
v 0.00065000 -0.08700000 0.02050000
v 0.00065000 -0.08700000 0.02050000
v -0.00065000 -0.08700000 0.02050000
v -0.00065000 -0.08700000 0.02050000
v -0.00065000 -0.08700000 0.02050000
v -0.00075000 -0.08400000 0.02047300
v -0.00075000 -0.08400000 0.02047300
v -0.00082300 -0.08400000 0.02040000
v -0.00082300 -0.08400000 0.02040000
v -0.00085000 -0.08400000 0.02030000
v -0.00085000 -0.08400000 0.02030000
v -0.00085000 -0.08400000 0.01948100
v -0.00085000 -0.08400000 0.01948100
v -0.01895800 -0.08400000 0.00456600
v -0.01895800 -0.08400000 0.00456600
v -0.01716400 -0.08700000 0.00925500
v -0.01716400 -0.08700000 0.00925500
v -0.01716400 -0.08700000 0.00925500
v -0.01716400 -0.08400000 0.00925500
v -0.01716400 -0.08400000 0.00925500
vn -0.00000000 -1.00000000 -0.00000000
vn -0.00000000 -1.00000000 -0.00000000
vn -0.00000000 -1.00000000 -0.00000000
vn -0.00000000 -1.00000000 -0.00000000
vn 0.78550000 -0.00000000 0.61880000
vn 0.60120000 -0.00000000 0.79910000
vn -0.00000000 -1.00000000 -0.00000000
vn 0.60160000 -0.00000000 0.79880000
vn 0.37760000 -0.00000000 0.92600000
vn -0.00000000 -1.00000000 -0.00000000
vn 0.98870000 -0.00000000 0.15020000
vn 0.91750000 -0.00000000 0.39780000
vn -0.00000000 -1.00000000 -0.00000000
vn 0.91750000 -0.00000000 0.39780000
vn -0.00000000 -1.00000000 -0.00000000
vn 0.78550000 -0.00000000 0.61880000
vn -0.00000000 -1.00000000 -0.00000000
vn 0.98870000 -0.00000000 0.15020000
vn -0.00000000 -1.00000000 -0.00000000
vn 0.99430000 -0.00000000 -0.10700000
vn -0.00000000 -1.00000000 -0.00000000
vn -0.00000000 -1.00000000 -0.00000000
vn -0.00000000 -1.00000000 -0.00000000
vn -0.00000000 -1.00000000 -0.00000000
vn 0.93400000 -0.00000000 -0.35730000
vn 0.99430000 -0.00000000 -0.10700000
vn -0.00000000 -1.00000000 -0.00000000
vn -0.00000000 -1.00000000 -0.00000000
vn -0.00000000 -1.00000000 -0.00000000
vn 0.63580000 -0.00000000 -0.77190000
vn 0.41770000 -0.00000000 -0.90860000
vn -0.00000000 -1.00000000 -0.00000000
vn 0.81170000 -0.00000000 -0.58400000
vn 0.63580000 -0.00000000 -0.77190000
vn -0.00000000 -1.00000000 -0.00000000
vn -0.00000000 -1.00000000 -0.00000000
vn -0.00000000 -1.00000000 -0.00000000
vn 0.25900000 -0.00000000 -0.96590000
vn 0.70710000 -0.00000000 -0.70710000
vn -0.00000000 -1.00000000 -0.00000000
vn -0.00000000 -1.00000000 -0.00000000
vn 0.70710000 -0.00000000 -0.70710000
vn 0.96590000 -0.00000000 -0.25900000
vn 1.00000000 -0.00000000 -0.00000000
vn 0.96590000 -0.00000000 -0.25900000
vn -0.00000000 -1.00000000 0.00010000
vn 0.41770000 -0.00000000 -0.90860000
vn 0.17170000 -0.00000000 -0.98520000
vn -0.00000000 -1.00000000 -0.00000000
vn 0.17170000 -0.00000000 -0.98520000
vn 1.00000000 -0.00000000 -0.00000000
vn -0.00000000 -1.00000000 -0.00000000
vn 0.17170000 -0.00000000 -0.98520000
vn 0.41770000 -0.00000000 -0.90860000
vn 0.41770000 -0.00000000 -0.90860000
vn 0.63580000 -0.00000000 -0.77180000
vn 0.81170000 -0.00000000 -0.58400000
vn 0.63580000 -0.00000000 -0.77190000
vn -0.00000000 -1.00000000 -0.00000000
vn -0.00000000 -1.00000000 -0.00000000
vn -0.00000000 -1.00000000 -0.00000000
vn -0.00000000 -1.00000000 -0.00000000
vn -0.00000000 -1.00000000 -0.00000000
vn -0.00000000 -1.00000000 -0.00000000
vn -0.00000000 -1.00000000 -0.00000000
vn -0.00000000 -1.00000000 -0.00000000
vn 0.98870000 -0.00000000 0.15020000
vn 0.99430000 -0.00000000 -0.10700000
vn 0.98870000 -0.00000000 0.15020000
vn 0.91750000 -0.00000000 0.39780000
vn 0.78550000 -0.00000000 0.61880000
vn 0.91750000 -0.00000000 0.39780000
vn 0.78550000 -0.00000000 0.61880000
vn 0.60160000 -0.00000000 0.79880000
vn 0.60160000 -0.00000000 0.79880000
vn 0.37760000 -0.00000000 0.92600000
vn -0.00000000 -1.00000000 -0.00000000
vn 0.12870000 -0.00000000 0.99170000
vn 0.37760000 -0.00000000 0.92600000
vn -0.00000000 -1.00000000 -0.00000000
vn -0.00000000 -1.00000000 -0.00000000
vn -0.00000000 -1.00000000 -0.00000000
vn -0.00000000 -1.00000000 -0.00000000
vn -0.00000000 -0.00000000 -1.00000000
vn 0.25900000 -0.00000000 -0.96590000
vn -0.19550000 -0.00000000 -0.98070000
vn -0.00000000 -0.00000000 -1.00000000
vn -0.19550000 -0.00000000 -0.98070000
vn -0.55540000 -0.00000000 -0.83160000
vn -0.19550000 -0.00000000 -0.98070000
vn -0.00000000 -1.00000000 -0.00000000
vn -0.55540000 -0.00000000 -0.83160000
vn -0.83160000 -0.00000000 -0.55540000
vn -0.55540000 -0.00000000 -0.83160000
vn -0.00000000 -1.00000000 0.00010000
vn -0.55540000 -0.00000000 -0.83160000
vn -0.83160000 -0.00000000 -0.55540000
vn -0.83160000 -0.00000000 -0.55540000
vn -0.00000000 -1.00000000 0.00010000
vn -0.98080000 -0.00000000 -0.19510000
vn -0.83160000 -0.00000000 -0.55540000
vn -1.00000000 -0.00000000 -0.00000000
vn -0.98080000 -0.00000000 -0.19510000
vn -0.98080000 -0.00000000 -0.19510000
vn -1.00000000 -0.00000000 -0.00000000
vn -0.00000000 -1.00000000 -0.00000000
vn -1.00000000 -0.00000000 -0.00000000
vn -0.17170000 -0.00000000 -0.98520000
vn -0.00000000 -1.00000000 -0.00000000
vn -0.17170000 -0.00000000 -0.98520000
vn -0.41770000 -0.00000000 -0.90860000
vn -0.00000000 -1.00000000 -0.00000000
vn -1.00000000 -0.00000000 -0.00000000
vn -0.17170000 -0.00000000 -0.98520000
vn -0.00000000 -1.00000000 -0.00000000
vn -0.00000000 -1.00000000 -0.00000000
vn -0.00000000 -1.00000000 -0.00000000
vn -0.00000000 -1.00000000 -0.00000000
vn -0.00000000 -1.00000000 -0.00000000
vn -0.00000000 -1.00000000 -0.00000000
vn -0.00000000 -1.00000000 -0.00000000
vn -0.98870000 -0.00000000 0.15020000
vn -0.99430000 -0.00000000 -0.10700000
vn -0.00000000 -1.00000000 -0.00000000
vn -0.00000000 -1.00000000 -0.00000000
vn -0.99430000 -0.00000000 -0.10700000
vn -0.93400000 -0.00000000 -0.35730000
vn -0.91750000 -0.00000000 0.39780000
vn -0.98870000 -0.00000000 0.15020000
vn -0.00000000 -1.00000000 -0.00000000
vn -0.98870000 -0.00000000 0.15020000
vn -0.99430000 -0.00000000 -0.10700000
vn -0.99430000 -0.00000000 -0.10700000
vn -0.93400000 -0.00000000 -0.35730000
vn -0.00000000 -1.00000000 -0.00000000
vn -0.81170000 -0.00000000 -0.58400000
vn -0.93400000 -0.00000000 -0.35730000
vn -0.00000000 -1.00000000 -0.00000000
vn -0.00000000 -1.00000000 -0.00000000
vn -0.00000000 -1.00000000 -0.00000000
vn -0.00000000 -1.00000000 -0.00000000
vn -0.81170000 -0.00000000 -0.58400000
vn -0.63580000 -0.00000000 -0.77190000
vn -0.63580000 -0.00000000 -0.77190000
vn -0.41770000 -0.00000000 -0.90860000
vn -0.17170000 -0.00000000 -0.98520000
vn -0.41770000 -0.00000000 -0.90860000
vn -0.41770000 -0.00000000 -0.90860000
vn -0.00000000 -1.00000000 -0.00000000
vn -0.63580000 -0.00000000 -0.77180000
vn -0.81170000 -0.00000000 -0.58400000
vn -0.63580000 -0.00000000 -0.77190000
vn -0.00000000 -1.00000000 -0.00000000
vn -0.00000000 -1.00000000 -0.00000000
vn -0.00000000 -1.00000000 -0.00000000
vn -0.93400000 -0.00000000 -0.35730000
vn -0.81170000 -0.00000000 -0.58400000
vn -0.00000000 -1.00000000 -0.00000000
vn -0.00000000 -1.00000000 -0.00000000
vn -0.00000000 -1.00000000 -0.00000000
vn -0.00000000 -1.00000000 -0.00000000
vn -0.00000000 -1.00000000 -0.00000000
vn -0.00000000 -1.00000000 -0.00000000
vn -0.00000000 -1.00000000 -0.00000000
vn -0.37760000 -0.00000000 0.92600000
vn -0.12870000 -0.00000000 0.99170000
vn -0.60160000 -0.00000000 0.79880000
vn -0.37760000 -0.00000000 0.92600000
vn -0.12870000 -0.00000000 0.99170000
vn 0.12870000 -0.00000000 0.99170000
vn 0.12870000 -0.00000000 0.99170000
vn -0.12870000 -0.00000000 0.99170000
vn -0.00000000 -1.00000000 -0.00000000
vn -0.00000000 -1.00000000 -0.00000000
vn 0.37760000 -0.00000000 0.92600000
vn 0.12870000 -0.00000000 0.99170000
vn -0.00000000 -1.00000000 -0.00000000
vn -0.00000000 -1.00000000 -0.00000000
vn -0.00000000 -1.00000000 -0.00000000
vn -0.00000000 -1.00000000 -0.00000000
vn -0.37760000 -0.00000000 0.92600000
vn -0.00000000 -1.00000000 -0.00000000
vn -0.60160000 -0.00000000 0.79880000
vn -0.78550000 -0.00000000 0.61880000
vn -0.00000000 -1.00000000 -0.00000000
vn -0.60160000 -0.00000000 0.79880000
vn -0.00000000 -1.00000000 -0.00000000
vn -0.91750000 -0.00000000 0.39780000
vn -0.78550000 -0.00000000 0.61880000
vn -0.78550000 -0.00000000 0.61880000
vn -0.60120000 -0.00000000 0.79910000
vn -0.78550000 -0.00000000 0.61880000
vn -0.91750000 -0.00000000 0.39780000
vn -0.91750000 -0.00000000 0.39780000
vn -0.98870000 -0.00000000 0.15020000
vn -0.37760000 -0.00000000 0.92600000
vn -0.12870000 -0.00000000 0.99170000
vn -0.00000000 -1.00000000 -0.00000000
vn -0.00000000 -1.00000000 -0.00000000
vn -0.19550000 -0.00000000 -0.98070000
vn -0.00000000 -0.00000000 -1.00000000
vn -0.00000000 -0.00000000 -1.00000000
vn 0.25900000 -0.00000000 -0.96590000
vn -0.00000000 -1.00000000 0.00010000
vn 0.25900000 -0.00000000 -0.96590000
vn 0.70710000 -0.00000000 -0.70710000
vn 0.96590000 -0.00000000 -0.25900000
vn 0.70710000 -0.00000000 -0.70710000
vn 0.96590000 -0.00000000 -0.25900000
vn 1.00000000 -0.00000000 -0.00000000
vn 0.17170000 -0.00000000 -0.98520000
vn 1.00000000 -0.00000000 -0.00000000
vn 0.99430000 -0.00000000 -0.10700000
vn 0.93400000 -0.00000000 -0.35730000
vn -0.00000000 -1.00000000 -0.00000000
vn 0.81170000 -0.00000000 -0.58400000
vn 0.93400000 -0.00000000 -0.35730000
vn 0.93400000 -0.00000000 -0.35730000
vn 0.81170000 -0.00000000 -0.58400000
f 7//7 2//2 3//3
f 4//4 2//2 7//7
f 4//4 1//1 2//2
f 13//13 10//10 15//15
f 13//13 17//17 10//10
f 15//15 10//10 1//1
f 19//19 17//17 13//13
f 19//19 21//21 17//17
f 19//19 22//22 21//21
f 19//19 23//23 22//22
f 27//27 24//24 23//23
f 27//27 23//23 19//19
f 35//35 29//29 28//28
f 32//32 29//29 35//35
f 32//32 36//36 29//29
f 40//40 37//37 36//36
f 40//40 36//36 41//41
f 41//41 36//36 46//46
f 49//49 46//46 36//36
f 49//49 36//36 32//32
f 52//52 46//46 49//49
f 53//53 50//50 48//48
f 55//55 47//47 31//31
f 54//54 47//47 55//55
f 56//56 30//30 58//58
f 62//62 59//59 60//60
f 60//60 61//61 62//62
f 62//62 66//66 63//63
f 64//64 65//65 62//62
f 62//62 65//65 59//59
f 62//62 61//61 66//66
f 70//70 12//12 72//72
f 72//72 12//12 14//14
f 71//71 16//16 73//73
f 73//73 16//16 5//5
f 74//74 6//6 75//75
f 80//80 65//65 77//77
f 81//81 82//82 80//80
f 82//82 83//83 80//80
f 80//80 83//83 65//65
f 92//92 89//89 94//94
f 90//90 86//86 88//88
f 94//94 89//89 96//96
f 93//93 97//97 98//98
f 98//98 97//97 101//101
f 104//104 100//100 103//103
f 107//107 105//105 113//113
f 106//106 109//109 112//112
f 115//115 106//106 112//112
f 99//99 106//106 115//115
f 113//113 105//105 102//102
f 115//115 112//112 116//116
f 115//115 91//91 95//95
f 37//37 91//91 115//115
f 115//115 95//95 99//99
f 124//124 119//119 120//120
f 121//121 124//124 120//120
f 121//121 125//125 124//124
f 133//133 123//123 126//126
f 131//131 129//129 122//122
f 130//130 135//135 124//124
f 132//132 123//123 133//133
f 124//124 135//135 119//119
f 130//130 118//118 135//135
f 134//134 127//127 137//137
f 138//138 139//139 140//140
f 141//141 138//138 140//140
f 82//82 138//138 141//141
f 143//143 152//152 144//144
f 145//145 148//148 147//147
f 144//144 152//152 150//150
f 154//154 153//153 158//158
f 155//155 153//153 154//154
f 155//155 149//149 153//153
f 142//142 157//157 151//151
f 137//137 127//127 156//156
f 159//159 158//158 125//125
f 136//136 157//157 142//142
f 154//154 158//158 159//159
f 159//159 125//125 121//121
f 116//116 149//149 155//155
f 116//116 112//112 149//149
f 147//147 148//148 111//111
f 146//146 110//110 114//114
f 82//82 160//160 138//138
f 161//161 160//160 82//82
f 82//82 162//162 161//161
f 82//82 163//163 162//162
f 164//164 163//163 82//82
f 169//169 172//172 166//166
f 170//170 176//176 171//171
f 78//78 176//176 170//170
f 174//174 3//3 177//177
f 7//7 3//3 174//174
f 174//174 177//177 173//173
f 79//79 9//9 175//175
f 173//173 177//177 178//178
f 185//185 180//180 117//117
f 182//182 180//180 185//185
f 182//182 179//179 180//180
f 191//191 183//183 186//186
f 192//192 184//184 189//189
f 185//185 117//117 187//187
f 190//190 184//184 192//192
f 193//193 188//188 194//194
f 194//194 188//188 128//128
f 195//195 129//129 131//131
f 167//167 183//183 191//191
f 187//187 118//118 130//130
f 187//187 117//117 118//118
f 168//168 196//196 181//181
f 198//198 179//179 182//182
f 166//166 172//172 197//197
f 173//173 178//178 198//198
f 165//165 196//196 168//168
f 198//198 178//178 179//179
f 164//164 82//82 81//81
f 114//114 110//110 108//108
f 37//37 199//199 91//91
f 200//200 86//86 90//90
f 204//204 199//199 37//37
f 202//202 87//87 201//201
f 204//204 37//37 40//40
f 38//38 205//205 203//203
f 203//203 205//205 85//85
f 84//84 87//87 202//202
f 39//39 208//208 206//206
f 42//42 208//208 39//39
f 43//43 209//209 207//207
f 45//45 209//209 43//43
f 51//51 210//210 44//44
f 212//212 210//210 51//51
f 211//211 50//50 53//53
f 76//76 9//9 79//79
f 77//77 65//65 64//64
f 75//75 6//6 8//8
f 67//67 18//18 69//69
f 69//69 18//18 11//11
f 213//213 26//26 68//68
f 68//68 26//26 20//20
f 214//214 217//217 25//25
f 218//218 217//217 214//214
f 219//219 33//33 216//216
f 57//57 33//33 219//219
f 215//215 24//24 27//27
f 215//215 28//28 24//24
f 35//35 28//28 215//215
f 58//58 30//30 34//34
f 15//15 1//1 4//4

