mtllib material.mtl
usemtl blue
v 0.04004900 0.05850000 -0.00877900
v 0.04004900 0.05850000 -0.00877900
v 0.04057700 0.05850000 -0.00587700
v 0.04057700 0.05850000 -0.00587700
v 0.04057700 0.05850000 -0.00587700
v 0.03837100 0.05850000 -0.01444500
v 0.03837100 0.05850000 -0.01444500
v 0.03910900 0.05850000 -0.01230900
v 0.03910900 0.05850000 -0.01230900
v 0.03931400 0.05850000 -0.01163600
v 0.03931400 0.05850000 -0.01163600
v 0.02500900 0.05850000 -0.03248900
v 0.02500900 0.05850000 -0.03248900
v 0.02705400 0.05850000 -0.03080700
v 0.02705400 0.05850000 -0.03080700
v 0.02705400 0.05850000 -0.03080700
v 0.03105300 0.05850000 -0.02677100
v 0.03105300 0.05850000 -0.02677100
v 0.02246400 0.05850000 -0.03429800
v 0.02246400 0.05850000 -0.03429800
v 0.02246400 0.05850000 -0.03429800
v 0.01793500 0.05850000 -0.03686900
v 0.01793500 0.05850000 -0.03686900
v 0.01736600 0.05850000 -0.03714000
v 0.01736600 0.05850000 -0.03714000
v 0.01464800 0.05850000 -0.03829400
v 0.01464800 0.05850000 -0.03829400
v 0.01185300 0.05850000 -0.03924900
v 0.01185300 0.05850000 -0.03924900
v 0.01185300 0.05850000 -0.03924900
v 0.00608800 0.05850000 -0.04054500
v 0.00608800 0.05850000 -0.04054500
v 0.00899400 0.05850000 -0.04000100
v 0.00899400 0.05850000 -0.04000100
v 0.01012300 0.05850000 -0.03973100
v 0.01012300 0.05850000 -0.03973100
v 0.00000000 0.05850000 -0.04100000
v 0.00000000 0.05850000 -0.04100000
v 0.00189400 0.05850000 -0.04095600
v 0.00189400 0.05850000 -0.04095600
v 0.00305300 0.05850000 -0.04088600
v 0.00305300 0.05850000 -0.04088600
v 0.00305300 0.05850000 -0.04088600
v 0.03722800 0.05850000 -0.01717700
v 0.03722800 0.05850000 -0.01717700
v 0.03589400 0.05850000 -0.01981500
v 0.03589400 0.05850000 -0.01981500
v 0.03581800 0.05850000 -0.01995100
v 0.03581800 0.05850000 -0.01995100
v 0.03267400 0.05850000 -0.02476700
v 0.03267400 0.05850000 -0.02476700
v 0.03267400 0.05850000 -0.02476700
v 0.04078800 0.05850000 -0.00416000
v 0.04078800 0.05850000 -0.00416000
v 0.04100000 0.05850000 -0.00000000
v 0.04100000 0.05850000 -0.00000000
v 0.04100000 0.05850000 -0.00000000
v 0.00000000 0.06650000 -0.04100000
v 0.00000000 0.06650000 -0.04100000
v 0.00000000 0.06650000 -0.04100000
v 0.00189400 0.06650000 -0.04095600
v 0.00189400 0.06650000 -0.04095600
v 0.00189400 0.06650000 -0.04095600
v 0.00189400 0.06650000 -0.04095600
v 0.01012300 0.05850000 0.03973100
v 0.01012300 0.05850000 0.03973100
v 0.01012300 0.06650000 0.03973100
v 0.01012300 0.06650000 0.03973100
v 0.01012300 0.06650000 0.03973100
v 0.01012300 0.06650000 0.03973100
v 0.01012300 0.06650000 0.03973100
v 0.01012300 0.06650000 0.03973100
v 0.00594500 0.05850000 0.04056700
v 0.00594500 0.05850000 0.04056700
v 0.00594500 0.05850000 0.04056700
v 0.00189400 0.06650000 0.04095600
v 0.00189400 0.06650000 0.04095600
v 0.00189400 0.06650000 0.04095600
v 0.00189400 0.06650000 0.04095600
v 0.00189400 0.05850000 0.04095600
v 0.00189400 0.05850000 0.04095600
v 0.00000000 0.06650000 0.04100000
v 0.00000000 0.06650000 0.04100000
v 0.00000000 0.06650000 0.04100000
v 0.00000000 0.05850000 0.04100000
v 0.00000000 0.05850000 0.04100000
v 0.01171200 0.05850000 0.03929200
v 0.01171200 0.05850000 0.03929200
v 0.01451300 0.05850000 0.03834500
v 0.01451300 0.05850000 0.03834500
v 0.01451300 0.05850000 0.03834500
v 0.01793500 0.06650000 0.03686900
v 0.01793500 0.06650000 0.03686900
v 0.01793500 0.06650000 0.03686900
v 0.01793500 0.06650000 0.03686900
v 0.01793500 0.06650000 0.03686900
v 0.01723800 0.05850000 0.03720000
v 0.01723800 0.05850000 0.03720000
v 0.01793500 0.05850000 0.03686900
v 0.01793500 0.05850000 0.03686900
v 0.01793500 0.05850000 0.03686900
v 0.02500900 0.06650000 0.03248900
v 0.02500900 0.06650000 0.03248900
v 0.02500900 0.06650000 0.03248900
v 0.02500900 0.06650000 0.03248900
v 0.02500900 0.06650000 0.03248900
v 0.02236600 0.05850000 0.03436200
v 0.02236600 0.05850000 0.03436200
v 0.02500900 0.05850000 0.03248900
v 0.02500900 0.05850000 0.03248900
v 0.02500900 0.05850000 0.03248900
v 0.03105300 0.06650000 0.02677100
v 0.03105300 0.06650000 0.02677100
v 0.03105300 0.06650000 0.02677100
v 0.03105300 0.06650000 0.02677100
v 0.03105300 0.06650000 0.02677100
v 0.03105300 0.06650000 0.02677100
v 0.02910700 0.05850000 0.02887500
v 0.02910700 0.05850000 0.02887500
v 0.03105300 0.05850000 0.02677100
v 0.03105300 0.05850000 0.02677100
v 0.03292200 0.05850000 0.02443700
v 0.03292200 0.05850000 0.02443700
v 0.03581800 0.06650000 0.01995100
v 0.03581800 0.06650000 0.01995100
v 0.03581800 0.06650000 0.01995100
v 0.03581800 0.06650000 0.01995100
v 0.03581800 0.06650000 0.01995100
v 0.03581800 0.06650000 0.01995100
v 0.03459700 0.05850000 0.02200000
v 0.03459700 0.05850000 0.02200000
v 0.03581800 0.05850000 0.01995100
v 0.03581800 0.05850000 0.01995100
v 0.03609200 0.05850000 0.01945100
v 0.03609200 0.05850000 0.01945100
v 0.03739900 0.05850000 0.01680100
v 0.03739900 0.05850000 0.01680100
v 0.03739900 0.05850000 0.01680100
v 0.03910900 0.06650000 0.01230900
v 0.03910900 0.06650000 0.01230900
v 0.03910900 0.06650000 0.01230900
v 0.03910900 0.06650000 0.01230900
v 0.03910900 0.06650000 0.01230900
v 0.03910900 0.06650000 0.01230900
v 0.03910900 0.06650000 0.01230900
v 0.03851400 0.05850000 0.01405800
v 0.03851400 0.05850000 0.01405800
v 0.03910900 0.05850000 0.01230900
v 0.03910900 0.05850000 0.01230900
v 0.04063200 0.05850000 0.00548100
v 0.04063200 0.05850000 0.00548100
v 0.04078800 0.06650000 0.00416000
v 0.04078800 0.06650000 0.00416000
v 0.04078800 0.06650000 0.00416000
v 0.04078800 0.06650000 0.00416000
v 0.04078800 0.06650000 0.00416000
v 0.04078800 0.06650000 0.00416000
v 0.04013400 0.05850000 0.00838300
v 0.04013400 0.05850000 0.00838300
v 0.04013400 0.05850000 0.00838300
v 0.03942900 0.05850000 0.01124200
v 0.03942900 0.05850000 0.01124200
v 0.04078800 0.05850000 0.00416000
v 0.04078800 0.05850000 0.00416000
v 0.04078800 0.06650000 -0.00416000
v 0.04078800 0.06650000 -0.00416000
v 0.04078800 0.06650000 -0.00416000
v 0.04078800 0.06650000 -0.00416000
v 0.04078800 0.06650000 -0.00416000
v 0.03910900 0.06650000 -0.01230900
v 0.03910900 0.06650000 -0.01230900
v 0.03910900 0.06650000 -0.01230900
v 0.03910900 0.06650000 -0.01230900
v 0.03910900 0.06650000 -0.01230900
v 0.03910900 0.06650000 -0.01230900
v 0.03910900 0.06650000 -0.01230900
v 0.03581800 0.06650000 -0.01995100
v 0.03581800 0.06650000 -0.01995100
v 0.03581800 0.06650000 -0.01995100
v 0.03581800 0.06650000 -0.01995100
v 0.03581800 0.06650000 -0.01995100
v 0.03581800 0.06650000 -0.01995100
v 0.03105300 0.06650000 -0.02677100
v 0.03105300 0.06650000 -0.02677100
v 0.03105300 0.06650000 -0.02677100
v 0.03105300 0.06650000 -0.02677100
v 0.03105300 0.06650000 -0.02677100
v 0.02500900 0.06650000 -0.03248900
v 0.02500900 0.06650000 -0.03248900
v 0.02500900 0.06650000 -0.03248900
v 0.02500900 0.06650000 -0.03248900
v 0.02500900 0.06650000 -0.03248900
v 0.01793500 0.06650000 -0.03686900
v 0.01793500 0.06650000 -0.03686900
v 0.01793500 0.06650000 -0.03686900
v 0.01793500 0.06650000 -0.03686900
v 0.01793500 0.06650000 -0.03686900
v 0.01793500 0.06650000 -0.03686900
v 0.01793500 0.06650000 -0.03686900
v 0.01012300 0.06650000 -0.03973100
v 0.01012300 0.06650000 -0.03973100
v 0.01012300 0.06650000 -0.03973100
v 0.01012300 0.06650000 -0.03973100
v 0.01012300 0.06650000 -0.03973100
v 0.01012300 0.06650000 -0.03973100
v 0.01012300 0.06650000 -0.03973100
v -0.04005200 0.05850000 0.00876600
v -0.04005200 0.05850000 0.00876600
v -0.04057800 0.05850000 0.00586700
v -0.04057800 0.05850000 0.00586700
v -0.04057800 0.05850000 0.00586700
v -0.04078800 0.05850000 0.00416000
v -0.04078800 0.05850000 0.00416000
v -0.03837800 0.05850000 0.01442700
v -0.03837800 0.05850000 0.01442700
v -0.03910900 0.05850000 0.01230900
v -0.03910900 0.05850000 0.01230900
v -0.03931900 0.05850000 0.01161900
v -0.03931900 0.05850000 0.01161900
v -0.03723600 0.05850000 0.01716000
v -0.03723600 0.05850000 0.01716000
v -0.03590400 0.05850000 0.01979700
v -0.03590400 0.05850000 0.01979700
v -0.03581800 0.05850000 0.01995100
v -0.03581800 0.05850000 0.01995100
v -0.03268600 0.05850000 0.02475200
v -0.03268600 0.05850000 0.02475200
v -0.03268600 0.05850000 0.02475200
v -0.03105300 0.05850000 0.02677100
v -0.03105300 0.05850000 0.02677100
v -0.02704100 0.05850000 0.03081800
v -0.02704100 0.05850000 0.03081800
v -0.02704100 0.05850000 0.03081800
v -0.02500900 0.05850000 0.03248900
v -0.02500900 0.05850000 0.03248900
v -0.02241900 0.05850000 0.03432700
v -0.02241900 0.05850000 0.03432700
v -0.02241900 0.05850000 0.03432700
v -0.01793500 0.05850000 0.03686900
v -0.01793500 0.05850000 0.03686900
v -0.01729700 0.05850000 0.03717300
v -0.01729700 0.05850000 0.03717300
v -0.01457400 0.05850000 0.03832200
v -0.01457400 0.05850000 0.03832200
v -0.01177500 0.05850000 0.03927300
v -0.01177500 0.05850000 0.03927300
v -0.01177500 0.05850000 0.03927300
v -0.01012300 0.05850000 0.03973100
v -0.01012300 0.05850000 0.03973100
v -0.00891500 0.05850000 0.04001900
v -0.00891500 0.05850000 0.04001900
v -0.00891500 0.05850000 0.04001900
v -0.00601000 0.05850000 0.04055700
v -0.00601000 0.05850000 0.04055700
v -0.00301300 0.05850000 0.04088900
v -0.00301300 0.05850000 0.04088900
v -0.00189400 0.05850000 0.04095600
v -0.00189400 0.05850000 0.04095600
v -0.04100000 0.05850000 -0.00000000
v -0.04100000 0.05850000 -0.00000000
v -0.04100000 0.05850000 -0.00000000
v -0.00189400 0.06650000 0.04095600
v -0.00189400 0.06650000 0.04095600
v -0.00189400 0.06650000 0.04095600
v -0.00189400 0.06650000 0.04095600
v -0.00189400 0.06650000 0.04095600
v -0.00189400 0.06650000 0.04095600
v -0.00302100 0.05850000 -0.04088800
v -0.00302100 0.05850000 -0.04088800
v -0.00189400 0.06650000 -0.04095600
v -0.00189400 0.06650000 -0.04095600
v -0.00189400 0.06650000 -0.04095600
v -0.00189400 0.06650000 -0.04095600
v -0.00189400 0.06650000 -0.04095600
v -0.00189400 0.06650000 -0.04095600
v -0.00189400 0.05850000 -0.04095600
v -0.00189400 0.05850000 -0.04095600
v -0.00602500 0.05850000 -0.04055500
v -0.00602500 0.05850000 -0.04055500
v -0.00893200 0.05850000 -0.04001500
v -0.00893200 0.05850000 -0.04001500
v -0.00893200 0.05850000 -0.04001500
v -0.01012300 0.06650000 -0.03973100
v -0.01012300 0.06650000 -0.03973100
v -0.01012300 0.06650000 -0.03973100
v -0.01012300 0.06650000 -0.03973100
v -0.01012300 0.06650000 -0.03973100
v -0.01012300 0.05850000 -0.03973100
v -0.01012300 0.05850000 -0.03973100
v -0.01179200 0.05850000 -0.03926700
v -0.01179200 0.05850000 -0.03926700
v -0.01179200 0.05850000 -0.03926700
v -0.01793500 0.06650000 -0.03686900
v -0.01793500 0.06650000 -0.03686900
v -0.01793500 0.06650000 -0.03686900
v -0.01793500 0.06650000 -0.03686900
v -0.01793500 0.06650000 -0.03686900
v -0.01793500 0.06650000 -0.03686900
v -0.01793500 0.06650000 -0.03686900
v -0.01458900 0.05850000 -0.03831700
v -0.01458900 0.05850000 -0.03831700
v -0.01730900 0.05850000 -0.03716700
v -0.01730900 0.05850000 -0.03716700
v -0.01793500 0.05850000 -0.03686900
v -0.01793500 0.05850000 -0.03686900
v -0.02241200 0.05850000 -0.03433200
v -0.02241200 0.05850000 -0.03433200
v -0.02241200 0.05850000 -0.03433200
v -0.02500900 0.06650000 -0.03248900
v -0.02500900 0.06650000 -0.03248900
v -0.02500900 0.06650000 -0.03248900
v -0.02500900 0.06650000 -0.03248900
v -0.02500900 0.06650000 -0.03248900
v -0.02500900 0.05850000 -0.03248900
v -0.02500900 0.05850000 -0.03248900
v -0.02700800 0.05850000 -0.03084700
v -0.02700800 0.05850000 -0.03084700
v -0.02700800 0.05850000 -0.03084700
v -0.03105300 0.06650000 -0.02677100
v -0.03105300 0.06650000 -0.02677100
v -0.03105300 0.06650000 -0.02677100
v -0.03105300 0.06650000 -0.02677100
v -0.03105300 0.05850000 -0.02677100
v -0.03105300 0.05850000 -0.02677100
v -0.03105300 0.05850000 -0.02677100
v -0.03581800 0.06650000 -0.01995100
v -0.03581800 0.06650000 -0.01995100
v -0.03581800 0.06650000 -0.01995100
v -0.03581800 0.06650000 -0.01995100
v -0.03581800 0.06650000 -0.01995100
v -0.03581800 0.06650000 -0.01995100
v -0.03581800 0.06650000 -0.01995100
v -0.03581800 0.06650000 -0.01995100
v -0.03581800 0.06650000 -0.01995100
v -0.03581800 0.06650000 -0.01995100
v -0.03106200 0.05850000 -0.02676100
v -0.03106200 0.05850000 -0.02676100
v -0.03290900 0.05850000 -0.02445400
v -0.03290900 0.05850000 -0.02445400
v -0.03458500 0.05850000 -0.02202000
v -0.03458500 0.05850000 -0.02202000
v -0.03581800 0.05850000 -0.01995100
v -0.03581800 0.05850000 -0.01995100
v -0.03608200 0.05850000 -0.01947100
v -0.03608200 0.05850000 -0.01947100
v -0.03739100 0.05850000 -0.01682000
v -0.03739100 0.05850000 -0.01682000
v -0.03850800 0.05850000 -0.01407700
v -0.03850800 0.05850000 -0.01407700
v -0.03850800 0.05850000 -0.01407700
v -0.03910900 0.06650000 -0.01230900
v -0.03910900 0.06650000 -0.01230900
v -0.03910900 0.06650000 -0.01230900
v -0.03910900 0.06650000 -0.01230900
v -0.03910900 0.06650000 -0.01230900
v -0.03910900 0.06650000 -0.01230900
v -0.03910900 0.06650000 -0.01230900
v -0.03910900 0.05850000 -0.01230900
v -0.03910900 0.05850000 -0.01230900
v -0.03942400 0.05850000 -0.01126000
v -0.03942400 0.05850000 -0.01126000
v -0.04013100 0.05850000 -0.00839700
v -0.04013100 0.05850000 -0.00839700
v -0.04063100 0.05850000 -0.00549100
v -0.04063100 0.05850000 -0.00549100
v -0.04063100 0.05850000 -0.00549100
v -0.04078800 0.06650000 -0.00416000
v -0.04078800 0.06650000 -0.00416000
v -0.04078800 0.06650000 -0.00416000
v -0.04078800 0.06650000 -0.00416000
v -0.04078800 0.06650000 -0.00416000
v -0.04078800 0.05850000 -0.00416000
v -0.04078800 0.05850000 -0.00416000
v -0.04078800 0.06650000 0.00416000
v -0.04078800 0.06650000 0.00416000
v -0.04078800 0.06650000 0.00416000
v -0.04078800 0.06650000 0.00416000
v -0.04078800 0.06650000 0.00416000
v -0.03910900 0.06650000 0.01230900
v -0.03910900 0.06650000 0.01230900
v -0.03910900 0.06650000 0.01230900
v -0.03910900 0.06650000 0.01230900
v -0.03910900 0.06650000 0.01230900
v -0.03910900 0.06650000 0.01230900
v -0.03910900 0.06650000 0.01230900
v -0.03581800 0.06650000 0.01995100
v -0.03581800 0.06650000 0.01995100
v -0.03581800 0.06650000 0.01995100
v -0.03581800 0.06650000 0.01995100
v -0.03581800 0.06650000 0.01995100
v -0.03581800 0.06650000 0.01995100
v -0.03105300 0.06650000 0.02677100
v -0.03105300 0.06650000 0.02677100
v -0.03105300 0.06650000 0.02677100
v -0.03105300 0.06650000 0.02677100
v -0.03105300 0.06650000 0.02677100
v -0.02500900 0.06650000 0.03248900
v -0.02500900 0.06650000 0.03248900
v -0.02500900 0.06650000 0.03248900
v -0.02500900 0.06650000 0.03248900
v -0.02500900 0.06650000 0.03248900
v -0.01793500 0.06650000 0.03686900
v -0.01793500 0.06650000 0.03686900
v -0.01793500 0.06650000 0.03686900
v -0.01793500 0.06650000 0.03686900
v -0.01793500 0.06650000 0.03686900
v -0.01793500 0.06650000 0.03686900
v -0.01793500 0.06650000 0.03686900
v -0.01012300 0.06650000 0.03973100
v -0.01012300 0.06650000 0.03973100
v -0.01012300 0.06650000 0.03973100
v -0.01012300 0.06650000 0.03973100
v -0.01012300 0.06650000 0.03973100
v 0.00000000 0.06650000 0.03600000
v 0.00000000 0.06650000 0.03600000
v 0.00000000 0.06650000 0.03600000
v -0.00748500 0.06650000 0.03521300
v -0.00748500 0.06650000 0.03521300
v -0.00748500 0.06650000 0.03521300
v 0.00000000 0.06650000 -0.03600000
v 0.00000000 0.06650000 -0.03600000
v 0.00000000 0.06650000 -0.03600000
v 0.00748500 0.06650000 -0.03521300
v 0.00748500 0.06650000 -0.03521300
v 0.00748500 0.06650000 -0.03521300
v -0.00748500 0.06650000 -0.03521300
v -0.00748500 0.06650000 -0.03521300
v -0.00748500 0.06650000 -0.03521300
v -0.01464200 0.06650000 -0.03288800
v -0.01464200 0.06650000 -0.03288800
v -0.01464200 0.06650000 -0.03288800
v -0.02116000 0.06650000 -0.02912500
v -0.02116000 0.06650000 -0.02912500
v -0.02116000 0.06650000 -0.02912500
v -0.02675300 0.06650000 -0.02408900
v -0.02675300 0.06650000 -0.02408900
v -0.02675300 0.06650000 -0.02408900
v -0.03117700 0.06650000 -0.01800000
v -0.03117700 0.06650000 -0.01800000
v -0.03117700 0.06650000 -0.01800000
v -0.03423800 0.06650000 -0.01112500
v -0.03423800 0.06650000 -0.01112500
v -0.03423800 0.06650000 -0.01112500
v -0.03580300 0.06650000 -0.00376300
v -0.03580300 0.06650000 -0.00376300
v -0.03580300 0.06650000 -0.00376300
v -0.03580300 0.06650000 0.00376300
v -0.03580300 0.06650000 0.00376300
v -0.03580300 0.06650000 0.00376300
v -0.03423800 0.06650000 0.01112500
v -0.03423800 0.06650000 0.01112500
v -0.03423800 0.06650000 0.01112500
v -0.03117700 0.06650000 0.01800000
v -0.03117700 0.06650000 0.01800000
v -0.03117700 0.06650000 0.01800000
v -0.02675300 0.06650000 0.02408900
v -0.02675300 0.06650000 0.02408900
v -0.02675300 0.06650000 0.02408900
v -0.02116000 0.06650000 0.02912500
v -0.02116000 0.06650000 0.02912500
v -0.02116000 0.06650000 0.02912500
v -0.01464200 0.06650000 0.03288800
v -0.01464200 0.06650000 0.03288800
v -0.01464200 0.06650000 0.03288800
v 0.00748500 0.06650000 0.03521300
v 0.00748500 0.06650000 0.03521300
v 0.00748500 0.06650000 0.03521300
v 0.01464200 0.06650000 0.03288800
v 0.01464200 0.06650000 0.03288800
v 0.01464200 0.06650000 0.03288800
v 0.02116000 0.06650000 0.02912500
v 0.02116000 0.06650000 0.02912500
v 0.02116000 0.06650000 0.02912500
v 0.02675300 0.06650000 0.02408900
v 0.02675300 0.06650000 0.02408900
v 0.02675300 0.06650000 0.02408900
v 0.03117700 0.06650000 0.01800000
v 0.03117700 0.06650000 0.01800000
v 0.03117700 0.06650000 0.01800000
v 0.03423800 0.06650000 0.01112500
v 0.03423800 0.06650000 0.01112500
v 0.03423800 0.06650000 0.01112500
v 0.03580300 0.06650000 0.00376300
v 0.03580300 0.06650000 0.00376300
v 0.03580300 0.06650000 0.00376300
v 0.03580300 0.06650000 -0.00376300
v 0.03580300 0.06650000 -0.00376300
v 0.03580300 0.06650000 -0.00376300
v 0.03423800 0.06650000 -0.01112500
v 0.03423800 0.06650000 -0.01112500
v 0.03423800 0.06650000 -0.01112500
v 0.03117700 0.06650000 -0.01800000
v 0.03117700 0.06650000 -0.01800000
v 0.03117700 0.06650000 -0.01800000
v 0.02675300 0.06650000 -0.02408900
v 0.02675300 0.06650000 -0.02408900
v 0.02675300 0.06650000 -0.02408900
v 0.02116000 0.06650000 -0.02912500
v 0.02116000 0.06650000 -0.02912500
v 0.02116000 0.06650000 -0.02912500
v 0.01464200 0.06650000 -0.03288800
v 0.01464200 0.06650000 -0.03288800
v 0.01464200 0.06650000 -0.03288800
v 0.00000000 0.07080000 -0.03600000
v 0.00000000 0.07080000 -0.03600000
v -0.00748500 0.07080000 -0.03521300
v -0.00748500 0.07080000 -0.03521300
v -0.01464200 0.07080000 -0.03288800
v -0.01464200 0.07080000 -0.03288800
v -0.02116000 0.07080000 -0.02912500
v -0.02116000 0.07080000 -0.02912500
v -0.02675300 0.07080000 -0.02408900
v -0.02675300 0.07080000 -0.02408900
v -0.03117700 0.07080000 -0.01800000
v -0.03117700 0.07080000 -0.01800000
v -0.03423800 0.07080000 -0.01112500
v -0.03423800 0.07080000 -0.01112500
v -0.03580300 0.07080000 -0.00376300
v -0.03580300 0.07080000 -0.00376300
v -0.03580300 0.07080000 0.00376300
v -0.03580300 0.07080000 0.00376300
v -0.03423800 0.07080000 0.01112500
v -0.03423800 0.07080000 0.01112500
v -0.03117700 0.07080000 0.01800000
v -0.03117700 0.07080000 0.01800000
v -0.02675300 0.07080000 0.02408900
v -0.02675300 0.07080000 0.02408900
v -0.02116000 0.07080000 0.02912500
v -0.02116000 0.07080000 0.02912500
v -0.01464200 0.07080000 0.03288800
v -0.01464200 0.07080000 0.03288800
v -0.00748500 0.07080000 0.03521300
v -0.00748500 0.07080000 0.03521300
v 0.00000000 0.07080000 0.03600000
v 0.00000000 0.07080000 0.03600000
v 0.00748500 0.07080000 0.03521300
v 0.00748500 0.07080000 0.03521300
v 0.01464200 0.07080000 0.03288800
v 0.01464200 0.07080000 0.03288800
v 0.02116000 0.07080000 0.02912500
v 0.02116000 0.07080000 0.02912500
v 0.02675300 0.07080000 0.02408900
v 0.02675300 0.07080000 0.02408900
v 0.03117700 0.07080000 0.01800000
v 0.03117700 0.07080000 0.01800000
v 0.03423800 0.07080000 0.01112500
v 0.03423800 0.07080000 0.01112500
v 0.03580300 0.07080000 0.00376300
v 0.03580300 0.07080000 0.00376300
v 0.03580300 0.07080000 -0.00376300
v 0.03580300 0.07080000 -0.00376300
v 0.03423800 0.07080000 -0.01112500
v 0.03423800 0.07080000 -0.01112500
v 0.03117700 0.07080000 -0.01800000
v 0.03117700 0.07080000 -0.01800000
v 0.02675300 0.07080000 -0.02408900
v 0.02675300 0.07080000 -0.02408900
v 0.02116000 0.07080000 -0.02912500
v 0.02116000 0.07080000 -0.02912500
v 0.01464200 0.07080000 -0.03288800
v 0.01464200 0.07080000 -0.03288800
v 0.00748500 0.07080000 -0.03521300
v 0.00748500 0.07080000 -0.03521300
vn 0.98310000 0.04330000 -0.17770000
vn 0.96850000 0.00390000 -0.24910000
vn 0.98270000 0.04460000 -0.17990000
vn 0.99250000 -0.00000000 -0.12200000
vn 0.97920000 0.01730000 -0.20200000
vn 0.92020000 0.02480000 -0.39060000
vn 0.94520000 -0.00000000 -0.32660000
vn 0.94520000 -0.00000000 -0.32660000
vn 0.95660000 -0.00000000 -0.29140000
vn 0.95660000 -0.00000000 -0.29140000
vn 0.96850000 0.00390000 -0.24910000
vn 0.63520000 -0.00000000 -0.77230000
vn 0.57940000 -0.00000000 -0.81510000
vn 0.63520000 -0.00000000 -0.77230000
vn 0.71040000 -0.00000000 -0.70380000
vn 0.68710000 0.02290000 -0.72620000
vn 0.71040000 -0.00000000 -0.70380000
vn 0.77750000 -0.00000000 -0.62890000
vn 0.49370000 -0.00000000 -0.86960000
vn 0.52630000 0.02480000 -0.85000000
vn 0.57940000 -0.00000000 -0.81510000
vn 0.49370000 -0.00000000 -0.86960000
vn 0.43000000 -0.00000000 -0.90280000
vn 0.39080000 0.00340000 -0.92050000
vn 0.43000000 -0.00000000 -0.90280000
vn 0.39080000 0.00340000 -0.92050000
vn 0.32310000 0.03570000 -0.94570000
vn 0.34390000 0.01780000 -0.93880000
vn 0.26840000 -0.00000000 -0.96330000
vn 0.32310000 0.03570000 -0.94570000
vn 0.11920000 0.04690000 -0.99180000
vn 0.18400000 0.00720000 -0.98290000
vn 0.23260000 -0.00000000 -0.97260000
vn 0.18400000 0.00720000 -0.98290000
vn 0.23260000 -0.00000000 -0.97260000
vn 0.26840000 -0.00000000 -0.96330000
vn -0.02320000 -0.00000000 -0.99970000
vn 0.02320000 -0.00000000 -0.99970000
vn 0.02320000 -0.00000000 -0.99970000
vn 0.06030000 -0.00000000 -0.99820000
vn 0.06030000 -0.00000000 -0.99820000
vn 0.11110000 0.04540000 -0.99280000
vn 0.14720000 0.01270000 -0.98900000
vn 0.89240000 0.00080000 -0.45130000
vn 0.92210000 0.02880000 -0.38580000
vn 0.89240000 0.00080000 -0.45130000
vn 0.87450000 -0.00000000 -0.48500000
vn 0.83740000 -0.00000000 -0.54660000
vn 0.87450000 -0.00000000 -0.48500000
vn 0.83740000 -0.00000000 -0.54660000
vn 0.77750000 -0.00000000 -0.62890000
vn 0.81950000 0.02260000 -0.57260000
vn 0.99250000 -0.00000000 -0.12200000
vn 0.99870000 -0.00000000 -0.05090000
vn 0.99870000 -0.00000000 -0.05090000
vn 0.99960000 0.02650000 -0.00000000
vn 0.99870000 -0.00000000 0.05090000
vn 0.02320000 -0.00000000 -0.99970000
vn -0.02320000 -0.00000000 -0.99970000
vn -0.00000000 1.00000000 -0.00000000
vn -0.00000000 1.00000000 -0.00000000
vn 0.06030000 -0.00000000 -0.99820000
vn 0.02320000 -0.00000000 -0.99970000
vn 0.14720000 0.01270000 -0.98900000
vn 0.19620000 -0.00000000 0.98060000
vn 0.26630000 -0.00000000 0.96390000
vn 0.19620000 -0.00000000 0.98060000
vn 0.14720000 0.02650000 0.98880000
vn 0.26630000 -0.00000000 0.96390000
vn 0.32030000 0.01160000 0.94730000
vn -0.00000000 1.00000000 -0.00000000
vn 0.34390000 0.02610000 0.93860000
vn 0.09560000 -0.00000000 0.99540000
vn 0.14720000 0.02650000 0.98880000
vn 0.19620000 -0.00000000 0.98060000
vn 0.09560000 -0.00000000 0.99540000
vn 0.02320000 -0.00000000 0.99970000
vn 0.14720000 0.02650000 0.98880000
vn -0.00000000 1.00000000 -0.00000000
vn 0.02320000 -0.00000000 0.99970000
vn 0.09560000 -0.00000000 0.99540000
vn -0.00000000 1.00000000 -0.00000000
vn 0.02320000 -0.00000000 0.99970000
vn -0.02320000 -0.00000000 0.99970000
vn -0.02320000 -0.00000000 0.99970000
vn 0.02320000 -0.00000000 0.99970000
vn 0.32030000 0.01160000 0.94730000
vn 0.26630000 -0.00000000 0.96390000
vn 0.34390000 0.02610000 0.93860000
vn 0.32030000 0.01160000 0.94730000
vn 0.38740000 0.00440000 0.92190000
vn -0.00000000 1.00000000 -0.00000000
vn 0.38740000 0.00440000 0.92190000
vn 0.42900000 -0.00000000 0.90330000
vn 0.34390000 0.02610000 0.93860000
vn 0.52640000 -0.00000000 0.85020000
vn 0.38740000 0.00440000 0.92190000
vn 0.42900000 -0.00000000 0.90330000
vn 0.49200000 0.04020000 0.86970000
vn 0.42900000 -0.00000000 0.90330000
vn 0.52640000 -0.00000000 0.85020000
vn -0.00000000 1.00000000 -0.00000000
vn 0.68720000 -0.00000000 0.72640000
vn 0.52640000 -0.00000000 0.85020000
vn 0.57820000 -0.00000000 0.81590000
vn 0.49200000 0.04100000 0.86960000
vn 0.57820000 -0.00000000 0.81590000
vn 0.48690000 0.03800000 0.87260000
vn 0.57820000 -0.00000000 0.81590000
vn 0.68720000 -0.00000000 0.72640000
vn 0.66090000 0.03660000 0.74960000
vn 0.68720000 -0.00000000 0.72640000
vn 0.78090000 -0.00000000 0.62460000
vn 0.66100000 0.03630000 0.74950000
vn 0.73410000 -0.00000000 0.67900000
vn 0.81950000 0.02440000 0.57260000
vn -0.00000000 1.00000000 -0.00000000
vn 0.73410000 -0.00000000 0.67900000
vn 0.66100000 0.03730000 0.74950000
vn 0.78090000 -0.00000000 0.62460000
vn 0.73410000 -0.00000000 0.67900000
vn 0.78090000 -0.00000000 0.62460000
vn 0.81930000 0.02270000 0.57290000
vn 0.91810000 0.02580000 0.39540000
vn 0.82290000 0.02030000 0.56780000
vn -0.00000000 1.00000000 -0.00000000
vn 0.87700000 -0.00000000 0.48060000
vn 0.85900000 -0.00000000 0.51190000
vn 0.89680000 0.00310000 0.44230000
vn 0.85900000 -0.00000000 0.51190000
vn 0.82380000 0.01940000 0.56660000
vn 0.87700000 -0.00000000 0.48060000
vn 0.85900000 -0.00000000 0.51190000
vn 0.89680000 0.00310000 0.44230000
vn 0.87700000 -0.00000000 0.48060000
vn 0.89680000 0.00310000 0.44230000
vn 0.91810000 0.02580000 0.39540000
vn 0.92630000 0.01340000 0.37650000
vn 0.97090000 0.00690000 0.23940000
vn 0.97910000 0.02640000 0.20170000
vn 0.91810000 0.02580000 0.39540000
vn 0.94670000 -0.00000000 0.32210000
vn 0.95790000 -0.00000000 0.28730000
vn 0.92630000 0.01340000 0.37650000
vn -0.00000000 1.00000000 -0.00000000
vn 0.92630000 0.01340000 0.37650000
vn 0.94670000 -0.00000000 0.32210000
vn 0.94670000 -0.00000000 0.32210000
vn 0.95790000 -0.00000000 0.28730000
vn 0.99310000 -0.00000000 0.11760000
vn 0.98560000 0.00870000 0.16910000
vn 0.99870000 -0.00000000 0.05090000
vn 0.99310000 -0.00000000 0.11760000
vn 0.99960000 0.02650000 -0.00000000
vn 0.98560000 0.00870000 0.16910000
vn -0.00000000 1.00000000 -0.00000000
vn 0.97910000 0.02640000 0.20170000
vn 0.98560000 0.00870000 0.16910000
vn 0.97090000 0.00690000 0.23940000
vn 0.97910000 0.02640000 0.20170000
vn 0.97090000 0.00690000 0.23940000
vn 0.95790000 -0.00000000 0.28730000
vn 0.99310000 -0.00000000 0.11760000
vn 0.99870000 -0.00000000 0.05090000
vn -0.00000000 1.00000000 -0.00000000
vn 0.99870000 -0.00000000 -0.05090000
vn 0.99960000 0.02650000 -0.00000000
vn 0.97920000 0.01730000 -0.20200000
vn 0.99250000 -0.00000000 -0.12200000
vn 0.97920000 0.01730000 -0.20200000
vn 0.96850000 0.00390000 -0.24910000
vn 0.98320000 0.03660000 -0.17890000
vn 0.94520000 -0.00000000 -0.32660000
vn 0.95660000 -0.00000000 -0.29140000
vn 0.91830000 0.02090000 -0.39540000
vn -0.00000000 1.00000000 -0.00000000
vn 0.81950000 0.02260000 -0.57260000
vn 0.89240000 0.00080000 -0.45130000
vn 0.83740000 -0.00000000 -0.54660000
vn 0.87450000 -0.00000000 -0.48500000
vn 0.92140000 0.02720000 -0.38770000
vn -0.00000000 1.00000000 -0.00000000
vn -0.00000000 1.00000000 -0.00000000
vn 0.81950000 0.02260000 -0.57260000
vn 0.77750000 -0.00000000 -0.62890000
vn 0.71040000 -0.00000000 -0.70380000
vn 0.68710000 0.02290000 -0.72620000
vn 0.57940000 -0.00000000 -0.81510000
vn 0.68710000 0.02290000 -0.72620000
vn 0.63520000 -0.00000000 -0.77230000
vn 0.52630000 0.02480000 -0.85000000
vn -0.00000000 1.00000000 -0.00000000
vn 0.52630000 0.02480000 -0.85000000
vn 0.49370000 -0.00000000 -0.86960000
vn 0.32310000 0.03570000 -0.94570000
vn -0.00000000 1.00000000 -0.00000000
vn 0.43000000 -0.00000000 -0.90280000
vn 0.34390000 0.01780000 -0.93880000
vn 0.39080000 0.00340000 -0.92050000
vn 0.14720000 0.01270000 -0.98900000
vn -0.00000000 1.00000000 -0.00000000
vn 0.34390000 0.01780000 -0.93880000
vn 0.26840000 -0.00000000 -0.96330000
vn 0.11150000 0.04480000 -0.99280000
vn 0.23260000 -0.00000000 -0.97260000
vn 0.18400000 0.00720000 -0.98290000
vn -0.98320000 0.03950000 0.17840000
vn -0.96850000 0.00400000 0.24880000
vn -0.99250000 -0.00000000 0.12210000
vn -0.98290000 0.03930000 0.17980000
vn -0.97930000 0.01730000 0.20180000
vn -0.99870000 -0.00000000 0.05090000
vn -0.99250000 -0.00000000 0.12210000
vn -0.92030000 0.02490000 0.39040000
vn -0.94530000 -0.00000000 0.32630000
vn -0.95650000 -0.00000000 0.29180000
vn -0.94530000 -0.00000000 0.32630000
vn -0.96850000 0.00400000 0.24880000
vn -0.95650000 -0.00000000 0.29180000
vn -0.92230000 0.02900000 0.38540000
vn -0.89260000 0.00090000 0.45090000
vn -0.87440000 -0.00000000 0.48510000
vn -0.89260000 0.00090000 0.45090000
vn -0.83750000 -0.00000000 0.54640000
vn -0.87440000 -0.00000000 0.48510000
vn -0.77750000 -0.00000000 0.62890000
vn -0.81950000 0.02280000 0.57260000
vn -0.83750000 -0.00000000 0.54640000
vn -0.71020000 -0.00000000 0.70400000
vn -0.77750000 -0.00000000 0.62890000
vn -0.68710000 0.02280000 0.72620000
vn -0.63520000 -0.00000000 0.77240000
vn -0.71020000 -0.00000000 0.70400000
vn -0.63520000 -0.00000000 0.77240000
vn -0.57870000 -0.00000000 0.81550000
vn -0.52630000 0.02490000 0.85000000
vn -0.57870000 -0.00000000 0.81550000
vn -0.49320000 -0.00000000 0.86990000
vn -0.49320000 -0.00000000 0.86990000
vn -0.42970000 -0.00000000 0.90300000
vn -0.38880000 0.00400000 0.92130000
vn -0.42970000 -0.00000000 0.90300000
vn -0.38880000 0.00400000 0.92130000
vn -0.32150000 0.03920000 0.94610000
vn -0.26720000 -0.00000000 0.96370000
vn -0.34390000 0.01730000 0.93880000
vn -0.32080000 0.03730000 0.94640000
vn -0.23190000 -0.00000000 0.97270000
vn -0.26720000 -0.00000000 0.96370000
vn -0.18410000 0.04070000 0.98210000
vn -0.14720000 0.01340000 0.98900000
vn -0.23190000 -0.00000000 0.97270000
vn -0.11010000 0.00710000 0.99390000
vn -0.18200000 0.04020000 0.98250000
vn -0.11010000 0.00710000 0.99390000
vn -0.05980000 -0.00000000 0.99820000
vn -0.05980000 -0.00000000 0.99820000
vn -0.02320000 -0.00000000 0.99970000
vn -0.99870000 -0.00000000 0.05090000
vn -0.99960000 0.02650000 -0.00000000
vn -0.99870000 -0.00000000 -0.05090000
vn -0.14720000 0.01340000 0.98900000
vn -0.18190000 0.04460000 0.98230000
vn -0.02320000 -0.00000000 0.99970000
vn -0.05980000 -0.00000000 0.99820000
vn -0.11010000 0.00710000 0.99390000
vn -0.00000000 1.00000000 -0.00000000
vn -0.06020000 -0.00000000 -0.99820000
vn -0.11020000 0.00710000 -0.99390000
vn -0.02320000 -0.00000000 -0.99970000
vn -0.11020000 0.00710000 -0.99390000
vn -0.18240000 0.04500000 -0.98220000
vn -0.14720000 0.01320000 -0.98900000
vn -0.00000000 1.00000000 -0.00000000
vn -0.06020000 -0.00000000 -0.99820000
vn -0.02320000 -0.00000000 -0.99970000
vn -0.06020000 -0.00000000 -0.99820000
vn -0.18270000 0.04420000 -0.98220000
vn -0.11020000 0.00710000 -0.99390000
vn -0.14720000 0.01320000 -0.98900000
vn -0.18240000 0.04450000 -0.98220000
vn -0.23230000 -0.00000000 -0.97260000
vn -0.34390000 0.01730000 -0.93880000
vn -0.26740000 -0.00000000 -0.96360000
vn -0.00000000 1.00000000 -0.00000000
vn -0.23230000 -0.00000000 -0.97260000
vn -0.14720000 0.01320000 -0.98900000
vn -0.26740000 -0.00000000 -0.96360000
vn -0.23230000 -0.00000000 -0.97260000
vn -0.26740000 -0.00000000 -0.96360000
vn -0.32140000 0.03680000 -0.94620000
vn -0.34390000 0.01730000 -0.93880000
vn -0.42980000 -0.00000000 -0.90290000
vn -0.00000000 1.00000000 -0.00000000
vn -0.38940000 0.00380000 -0.92110000
vn -0.32140000 0.03680000 -0.94620000
vn -0.34390000 0.01730000 -0.93880000
vn -0.49300000 -0.00000000 -0.87000000
vn -0.52630000 0.02500000 -0.85000000
vn -0.38940000 0.00380000 -0.92110000
vn -0.32140000 0.03680000 -0.94620000
vn -0.42980000 -0.00000000 -0.90290000
vn -0.38940000 0.00380000 -0.92110000
vn -0.42980000 -0.00000000 -0.90290000
vn -0.49300000 -0.00000000 -0.87000000
vn -0.52630000 0.02500000 -0.85000000
vn -0.49300000 -0.00000000 -0.87000000
vn -0.57870000 -0.00000000 -0.81550000
vn -0.52630000 0.02500000 -0.85000000
vn -0.68710000 0.02260000 -0.72620000
vn -0.57870000 -0.00000000 -0.81550000
vn -0.00000000 1.00000000 -0.00000000
vn -0.63470000 -0.00000000 -0.77270000
vn -0.57870000 -0.00000000 -0.81550000
vn -0.63470000 -0.00000000 -0.77270000
vn -0.63470000 -0.00000000 -0.77270000
vn -0.68710000 0.02260000 -0.72620000
vn -0.70980000 -0.00000000 -0.70440000
vn -0.70980000 -0.00000000 -0.70440000
vn -0.81970000 -0.00000000 -0.57270000
vn -0.68710000 0.02260000 -0.72620000
vn -0.00000000 1.00000000 -0.00000000
vn -0.75080000 0.10850000 -0.65150000
vn -0.81970000 -0.00000000 -0.57270000
vn -0.70980000 -0.00000000 -0.70440000
vn -0.81970000 -0.00000000 -0.57270000
vn -0.77880000 0.06780000 -0.62350000
vn -0.00000000 1.00000000 -0.00000000
vn -0.89660000 0.00300000 -0.44270000
vn -0.75080000 0.10850000 -0.65150000
vn -0.82350000 0.01970000 -0.56700000
vn -0.85900000 -0.00000000 -0.51190000
vn -0.87690000 -0.00000000 -0.48060000
vn -0.91830000 0.01840000 -0.39550000
vn -0.92560000 0.03450000 -0.37690000
vn -0.77880000 0.06780000 -0.62350000
vn -0.75080000 0.10850000 -0.65150000
vn -0.77880000 0.06780000 -0.62350000
vn -0.82350000 0.01970000 -0.56700000
vn -0.82350000 0.01970000 -0.56700000
vn -0.85900000 -0.00000000 -0.51190000
vn -0.85900000 -0.00000000 -0.51190000
vn -0.87690000 -0.00000000 -0.48060000
vn -0.87690000 -0.00000000 -0.48060000
vn -0.89660000 0.00300000 -0.44270000
vn -0.92700000 0.04490000 -0.37230000
vn -0.89660000 0.00300000 -0.44270000
vn -0.92570000 0.03560000 -0.37650000
vn -0.94680000 -0.00000000 -0.32180000
vn -0.91830000 0.01840000 -0.39550000
vn -0.97930000 0.01440000 -0.20180000
vn -0.98460000 0.04290000 -0.16940000
vn -0.95780000 -0.00000000 -0.28760000
vn -0.94680000 -0.00000000 -0.32180000
vn -0.91830000 0.01840000 -0.39550000
vn -0.97070000 0.00680000 -0.24020000
vn -0.00000000 1.00000000 -0.00000000
vn -0.95780000 -0.00000000 -0.28760000
vn -0.94680000 -0.00000000 -0.32180000
vn -0.97070000 0.00680000 -0.24020000
vn -0.95780000 -0.00000000 -0.28760000
vn -0.97070000 0.00680000 -0.24020000
vn -0.98450000 0.04390000 -0.16970000
vn -0.98470000 0.04340000 -0.16900000
vn -0.97930000 0.01440000 -0.20180000
vn -0.99300000 -0.00000000 -0.11800000
vn -0.99300000 -0.00000000 -0.11800000
vn -0.99960000 0.02650000 -0.00000000
vn -0.00000000 1.00000000 -0.00000000
vn -0.99870000 -0.00000000 -0.05090000
vn -0.97930000 0.01440000 -0.20180000
vn -0.99870000 -0.00000000 -0.05090000
vn -0.99300000 -0.00000000 -0.11800000
vn -0.99250000 -0.00000000 0.12210000
vn -0.99870000 -0.00000000 0.05090000
vn -0.99960000 0.02650000 -0.00000000
vn -0.97930000 0.01730000 0.20180000
vn -0.00000000 1.00000000 -0.00000000
vn -0.98330000 0.03690000 0.17840000
vn -0.91830000 0.02080000 0.39540000
vn -0.94530000 -0.00000000 0.32630000
vn -0.96850000 0.00400000 0.24880000
vn -0.00000000 1.00000000 -0.00000000
vn -0.95650000 -0.00000000 0.29180000
vn -0.97930000 0.01730000 0.20180000
vn -0.92150000 0.02730000 0.38740000
vn -0.81950000 0.02280000 0.57260000
vn -0.83750000 -0.00000000 0.54640000
vn -0.87440000 -0.00000000 0.48510000
vn -0.89260000 0.00090000 0.45090000
vn -0.00000000 1.00000000 -0.00000000
vn -0.81950000 0.02280000 0.57260000
vn -0.77750000 -0.00000000 0.62890000
vn -0.00000000 1.00000000 -0.00000000
vn -0.71020000 -0.00000000 0.70400000
vn -0.68710000 0.02280000 0.72620000
vn -0.68710000 0.02280000 0.72620000
vn -0.63520000 -0.00000000 0.77240000
vn -0.57870000 -0.00000000 0.81550000
vn -0.52630000 0.02490000 0.85000000
vn -0.00000000 1.00000000 -0.00000000
vn -0.52630000 0.02490000 0.85000000
vn -0.49320000 -0.00000000 0.86990000
vn -0.34390000 0.01730000 0.93880000
vn -0.42970000 -0.00000000 0.90300000
vn -0.32150000 0.03680000 0.94620000
vn -0.00000000 1.00000000 -0.00000000
vn -0.38880000 0.00400000 0.92130000
vn -0.26720000 -0.00000000 0.96370000
vn -0.00000000 1.00000000 -0.00000000
vn -0.34390000 0.01730000 0.93880000
vn -0.14720000 0.01340000 0.98900000
vn -0.23190000 -0.00000000 0.97270000
vn -0.10460000 -0.00000000 0.99450000
vn 0.10460000 -0.00000000 0.99450000
vn -0.00000000 1.00000000 -0.00000000
vn -0.10460000 -0.00000000 0.99450000
vn -0.00000000 1.00000000 -0.00000000
vn -0.30900000 -0.00000000 0.95110000
vn 0.10460000 -0.00000000 -0.99450000
vn -0.00000000 1.00000000 -0.00000000
vn -0.10460000 -0.00000000 -0.99450000
vn 0.10460000 -0.00000000 -0.99450000
vn 0.30900000 -0.00000000 -0.95110000
vn -0.00000000 1.00000000 -0.00000000
vn -0.30900000 -0.00000000 -0.95110000
vn -0.00000000 1.00000000 -0.00000000
vn -0.10460000 -0.00000000 -0.99450000
vn -0.50000000 -0.00000000 -0.86600000
vn -0.00000000 1.00000000 -0.00000000
vn -0.30900000 -0.00000000 -0.95110000
vn -0.66910000 -0.00000000 -0.74310000
vn -0.50000000 -0.00000000 -0.86600000
vn -0.00000000 1.00000000 -0.00000000
vn -0.80900000 -0.00000000 -0.58780000
vn -0.66910000 -0.00000000 -0.74310000
vn -0.00000000 1.00000000 -0.00000000
vn -0.80900000 -0.00000000 -0.58780000
vn -0.00000000 1.00000000 -0.00000000
vn -0.91350000 -0.00000000 -0.40670000
vn -0.97810000 -0.00000000 -0.20790000
vn -0.00000000 1.00000000 -0.00000000
vn -0.91350000 -0.00000000 -0.40670000
vn -0.00000000 1.00000000 -0.00000000
vn -1.00000000 -0.00000000 -0.00000000
vn -0.97810000 -0.00000000 -0.20790000
vn -0.97810000 -0.00000000 0.20790000
vn -1.00000000 -0.00000000 -0.00000000
vn -0.00000000 1.00000000 -0.00000000
vn -0.97810000 -0.00000000 0.20790000
vn -0.91350000 -0.00000000 0.40670000
vn -0.00000000 1.00000000 -0.00000000
vn -0.91350000 -0.00000000 0.40670000
vn -0.80900000 -0.00000000 0.58780000
vn -0.00000000 1.00000000 -0.00000000
vn -0.66910000 -0.00000000 0.74310000
vn -0.00000000 1.00000000 -0.00000000
vn -0.80900000 -0.00000000 0.58780000
vn -0.00000000 1.00000000 -0.00000000
vn -0.50000000 -0.00000000 0.86600000
vn -0.66910000 -0.00000000 0.74310000
vn -0.50000000 -0.00000000 0.86600000
vn -0.00000000 1.00000000 -0.00000000
vn -0.30900000 -0.00000000 0.95110000
vn -0.00000000 1.00000000 -0.00000000
vn 0.30900000 -0.00000000 0.95110000
vn 0.10460000 -0.00000000 0.99450000
vn 0.50000000 -0.00000000 0.86600000
vn 0.30900000 -0.00000000 0.95110000
vn -0.00000000 1.00000000 -0.00000000
vn 0.50000000 -0.00000000 0.86600000
vn 0.66910000 -0.00000000 0.74310000
vn -0.00000000 1.00000000 -0.00000000
vn 0.80900000 -0.00000000 0.58780000
vn 0.66910000 -0.00000000 0.74310000
vn -0.00000000 1.00000000 -0.00000000
vn -0.00000000 1.00000000 -0.00000000
vn 0.80900000 -0.00000000 0.58780000
vn 0.91350000 -0.00000000 0.40670000
vn 0.97810000 -0.00000000 0.20790000
vn 0.91350000 -0.00000000 0.40670000
vn -0.00000000 1.00000000 -0.00000000
vn 1.00000000 -0.00000000 -0.00000000
vn 0.97810000 -0.00000000 0.20790000
vn -0.00000000 1.00000000 -0.00000000
vn -0.00000000 1.00000000 -0.00000000
vn 1.00000000 -0.00000000 -0.00000000
vn 0.97810000 -0.00000000 -0.20790000
vn 0.91350000 -0.00000000 -0.40670000
vn 0.97810000 -0.00000000 -0.20790000
vn -0.00000000 1.00000000 -0.00000000
vn 0.91350000 -0.00000000 -0.40670000
vn -0.00000000 1.00000000 -0.00000000
vn 0.80900000 -0.00000000 -0.58780000
vn -0.00000000 1.00000000 -0.00000000
vn 0.66910000 -0.00000000 -0.74310000
vn 0.80900000 -0.00000000 -0.58780000
vn 0.50000000 -0.00000000 -0.86600000
vn -0.00000000 1.00000000 -0.00000000
vn 0.66910000 -0.00000000 -0.74310000
vn 0.30900000 -0.00000000 -0.95110000
vn 0.50000000 -0.00000000 -0.86600000
vn -0.00000000 1.00000000 -0.00000000
vn 0.10460000 -0.00000000 -0.99450000
vn -0.10460000 -0.00000000 -0.99450000
vn -0.30900000 -0.00000000 -0.95110000
vn -0.10460000 -0.00000000 -0.99450000
vn -0.30900000 -0.00000000 -0.95110000
vn -0.50000000 -0.00000000 -0.86600000
vn -0.50000000 -0.00000000 -0.86600000
vn -0.66910000 -0.00000000 -0.74310000
vn -0.66910000 -0.00000000 -0.74310000
vn -0.80900000 -0.00000000 -0.58780000
vn -0.91350000 -0.00000000 -0.40670000
vn -0.80900000 -0.00000000 -0.58780000
vn -0.91350000 -0.00000000 -0.40670000
vn -0.97810000 -0.00000000 -0.20790000
vn -1.00000000 -0.00000000 -0.00000000
vn -0.97810000 -0.00000000 -0.20790000
vn -1.00000000 -0.00000000 -0.00000000
vn -0.97810000 -0.00000000 0.20790000
vn -0.91350000 -0.00000000 0.40670000
vn -0.97810000 -0.00000000 0.20790000
vn -0.80900000 -0.00000000 0.58780000
vn -0.91350000 -0.00000000 0.40670000
vn -0.80900000 -0.00000000 0.58780000
vn -0.66910000 -0.00000000 0.74310000
vn -0.66910000 -0.00000000 0.74310000
vn -0.50000000 -0.00000000 0.86600000
vn -0.30900000 -0.00000000 0.95110000
vn -0.50000000 -0.00000000 0.86600000
vn -0.30900000 -0.00000000 0.95110000
vn -0.10460000 -0.00000000 0.99450000
vn -0.10460000 -0.00000000 0.99450000
vn 0.10460000 -0.00000000 0.99450000
vn 0.10460000 -0.00000000 0.99450000
vn 0.30900000 -0.00000000 0.95110000
vn 0.50000000 -0.00000000 0.86600000
vn 0.30900000 -0.00000000 0.95110000
vn 0.66910000 -0.00000000 0.74310000
vn 0.50000000 -0.00000000 0.86600000
vn 0.66910000 -0.00000000 0.74310000
vn 0.80900000 -0.00000000 0.58780000
vn 0.91350000 -0.00000000 0.40670000
vn 0.80900000 -0.00000000 0.58780000
vn 0.91350000 -0.00000000 0.40670000
vn 0.97810000 -0.00000000 0.20790000
vn 0.97810000 -0.00000000 0.20790000
vn 1.00000000 -0.00000000 -0.00000000
vn 0.97810000 -0.00000000 -0.20790000
vn 1.00000000 -0.00000000 -0.00000000
vn 0.91350000 -0.00000000 -0.40670000
vn 0.97810000 -0.00000000 -0.20790000
vn 0.91350000 -0.00000000 -0.40670000
vn 0.80900000 -0.00000000 -0.58780000
vn 0.66910000 -0.00000000 -0.74310000
vn 0.80900000 -0.00000000 -0.58780000
vn 0.50000000 -0.00000000 -0.86600000
vn 0.66910000 -0.00000000 -0.74310000
vn 0.50000000 -0.00000000 -0.86600000
vn 0.30900000 -0.00000000 -0.95110000
vn 0.30900000 -0.00000000 -0.95110000
vn 0.10460000 -0.00000000 -0.99450000
f 10//10 9//9 174//174
f 38//38 58//58 63//63
f 65//65 67//67 75//75
f 74//74 68//68 78//78
f 73//73 76//76 81//81
f 80//80 77//77 83//83
f 80//80 83//83 86//86
f 66//66 88//88 69//69
f 70//70 87//87 90//90
f 72//72 89//89 95//95
f 91//91 97//97 93//93
f 94//94 98//98 100//100
f 96//96 101//101 104//104
f 99//99 108//108 106//106
f 105//105 107//107 109//109
f 103//103 110//110 112//112
f 114//114 111//111 119//119
f 118//118 121//121 115//115
f 113//113 120//120 122//122
f 116//116 123//123 125//125
f 125//125 123//123 131//131
f 128//128 130//130 133//133
f 132//132 135//135 127//127
f 129//129 134//134 136//136
f 124//124 137//137 141//141
f 144//144 138//138 146//146
f 142//142 147//147 148//148
f 151//151 155//155 158//158
f 160//160 157//157 140//140
f 159//159 139//139 161//161
f 162//162 143//143 149//149
f 150//150 163//163 153//153
f 152//152 164//164 57//57
f 154//154 56//56 167//167
f 55//55 54//54 166//166
f 169//169 53//53 4//4
f 168//168 5//5 170//170
f 172//172 3//3 1//1
f 171//171 2//2 11//11
f 173//173 8//8 7//7
f 175//175 6//6 181//181
f 181//181 6//6 45//45
f 178//178 44//44 46//46
f 47//47 49//49 180//180
f 179//179 48//48 50//50
f 177//177 52//52 184//184
f 51//51 18//18 185//185
f 186//186 17//17 15//15
f 187//187 16//16 189//189
f 14//14 12//12 190//190
f 188//188 13//13 21//21
f 191//191 20//20 193//193
f 194//194 19//19 22//22
f 197//197 23//23 25//25
f 24//24 26//26 199//199
f 195//195 27//27 30//30
f 198//198 28//28 202//202
f 203//203 29//29 36//36
f 205//205 35//35 33//33
f 34//34 32//32 206//206
f 204//204 31//31 42//42
f 200//200 43//43 64//64
f 62//62 41//41 40//40
f 63//63 39//39 38//38
f 256//256 257//257 265//265
f 264//264 258//258 85//85
f 264//264 85//85 84//84
f 268//268 275//275 277//277
f 276//276 270//270 59//59
f 276//276 59//59 37//37
f 269//269 279//279 271//271
f 272//272 278//278 281//281
f 273//273 280//280 287//287
f 282//282 289//289 286//286
f 284//284 288//288 290//290
f 283//283 292//292 297//297
f 296//296 291//291 301//301
f 295//295 300//300 303//303
f 302//302 304//304 293//293
f 298//298 305//305 307//307
f 299//299 306//306 309//309
f 308//308 314//314 311//311
f 313//313 315//315 316//316
f 310//310 317//317 321//321
f 319//319 318//318 325//325
f 320//320 324//324 326//326
f 330//330 323//323 337//337
f 327//327 336//336 338//338
f 339//339 340//340 331//331
f 332//332 341//341 342//342
f 333//333 343//343 344//344
f 345//345 347//347 329//329
f 335//335 346//346 348//348
f 334//334 350//350 355//355
f 354//354 349//349 359//359
f 353//353 358//358 361//361
f 360//360 362//362 356//356
f 352//352 363//363 364//364
f 351//351 365//365 371//371
f 366//366 373//373 367//367
f 370//370 372//372 261//261
f 368//368 260//260 376//376
f 259//259 212//212 375//375
f 374//374 213//213 209//209
f 377//377 211//211 385//385
f 379//379 210//210 207//207
f 382//382 208//208 218//218
f 219//219 216//216 384//384
f 381//381 217//217 215//215
f 380//380 214//214 386//386
f 386//386 214//214 220//220
f 390//390 221//221 223//223
f 222//222 225//225 389//389
f 388//388 224//224 228//228
f 387//387 227//227 392//392
f 226//226 230//230 393//393
f 395//395 229//229 233//233
f 396//396 231//231 397//397
f 232//232 234//234 398//398
f 399//399 235//235 237//237
f 400//400 236//236 402//402
f 403//403 238//238 239//239
f 405//405 240//240 242//242
f 241//241 243//243 408//408
f 406//406 244//244 247//247
f 404//404 246//246 411//411
f 245//245 249//249 409//409
f 413//413 248//248 252//252
f 412//412 251//251 262//262
f 263//263 250//250 254//254
f 266//266 253//253 255//255
f 267//267 416//416 418//418
f 61//61 421//421 425//425
f 61//61 60//60 421//421
f 421//421 60//60 274//274
f 421//421 274//274 427//427
f 427//427 274//274 285//285
f 427//427 285//285 430//430
f 430//430 285//285 294//294
f 430//430 294//294 434//434
f 434//434 294//294 312//312
f 434//434 312//312 437//437
f 437//437 312//312 322//322
f 437//437 322//322 439//439
f 439//439 322//322 328//328
f 439//439 328//328 442//442
f 442//442 328//328 357//357
f 442//442 357//357 444//444
f 444//444 357//357 369//369
f 444//444 369//369 449//449
f 449//449 369//369 378//378
f 449//449 378//378 452//452
f 452//452 378//378 383//383
f 452//452 383//383 455//455
f 455//455 383//383 391//391
f 455//455 391//391 457//457
f 457//457 391//391 394//394
f 457//457 394//394 459//459
f 459//459 394//394 401//401
f 459//459 401//401 463//463
f 463//463 401//401 407//407
f 463//463 407//407 418//418
f 418//418 407//407 410//410
f 418//418 410//410 267//267
f 267//267 82//82 416//416
f 416//416 82//82 79//79
f 416//416 79//79 465//465
f 465//465 79//79 71//71
f 465//465 71//71 470//470
f 470//470 71//71 92//92
f 470//470 92//92 473//473
f 473//473 92//92 102//102
f 473//473 102//102 476//476
f 476//476 102//102 117//117
f 476//476 117//117 477//477
f 477//477 117//117 126//126
f 477//477 126//126 482//482
f 482//482 126//126 145//145
f 482//482 145//145 485//485
f 485//485 145//145 156//156
f 485//485 156//156 486//486
f 486//486 156//156 165//165
f 486//486 165//165 491//491
f 491//491 165//165 176//176
f 491//491 176//176 493//493
f 493//493 176//176 182//182
f 493//493 182//182 495//495
f 495//495 182//182 183//183
f 495//495 183//183 499//499
f 499//499 183//183 192//192
f 499//499 192//192 503//503
f 503//503 192//192 196//196
f 503//503 196//196 425//425
f 425//425 196//196 201//201
f 425//425 201//201 61//61
f 505//505 422//422 428//428
f 505//505 428//428 507//507
f 506//506 426//426 431//431
f 506//506 431//431 508//508
f 509//509 429//429 433//433
f 509//509 433//433 510//510
f 511//511 432//432 436//436
f 511//511 436//436 512//512
f 513//513 435//435 438//438
f 513//513 438//438 515//515
f 514//514 440//440 443//443
f 514//514 443//443 516//516
f 517//517 441//441 446//446
f 517//517 446//446 519//519
f 518//518 445//445 448//448
f 518//518 448//448 520//520
f 521//521 447//447 450//450
f 521//521 450//450 523//523
f 522//522 451//451 453//453
f 522//522 453//453 525//525
f 524//524 454//454 458//458
f 524//524 458//458 526//526
f 527//527 456//456 461//461
f 527//527 461//461 528//528
f 529//529 460//460 462//462
f 529//529 462//462 531//531
f 530//530 464//464 419//419
f 530//530 419//419 532//532
f 533//533 417//417 414//414
f 533//533 414//414 534//534
f 535//535 415//415 467//467
f 535//535 467//467 536//536
f 537//537 466//466 469//469
f 537//537 469//469 539//539
f 538//538 468//468 471//471
f 538//538 471//471 541//541
f 540//540 472//472 475//475
f 540//540 475//475 542//542
f 543//543 474//474 478//478
f 543//543 478//478 545//545
f 544//544 479//479 481//481
f 544//544 481//481 546//546
f 547//547 480//480 484//484
f 547//547 484//484 548//548
f 549//549 483//483 487//487
f 549//549 487//487 551//551
f 550//550 488//488 490//490
f 550//550 490//490 553//553
f 552//552 489//489 492//492
f 552//552 492//492 554//554
f 555//555 494//494 497//497
f 555//555 497//497 557//557
f 556//556 496//496 500//500
f 556//556 500//500 559//559
f 558//558 498//498 502//502
f 558//558 502//502 560//560
f 561//561 501//501 424//424
f 561//561 424//424 562//562
f 563//563 423//423 420//420
f 563//563 420//420 504//504

