mtllib material.mtl
usemtl green
v -0.02221500 -0.08600000 -0.01729100
v -0.02280700 -0.08600000 -0.01742700
v -0.02352500 -0.08600000 -0.01896700
v -0.02324900 -0.08600000 -0.01950900
v -0.02164500 -0.08600000 -0.01741700
v -0.02118100 -0.08600000 -0.01777300
v -0.01777300 -0.08600000 -0.02118100
v -0.01731100 -0.08600000 -0.02245000
v -0.01737200 -0.08600000 -0.02175300
v -0.01817900 -0.08600000 -0.02348400
v -0.01887500 -0.08600000 -0.02354500
v -0.01950900 -0.08600000 -0.02324900
v -0.02353600 -0.08600000 -0.01836000
v -0.01752200 -0.08600000 0.02297000
v -0.01800700 -0.08600000 0.02340700
v -0.01864100 -0.08600000 0.02356500
v -0.01738900 -0.08600000 0.02171000
v -0.01777300 -0.08600000 0.02118100
v -0.01729800 -0.08600000 0.02235600
v -0.02118100 -0.08600000 0.01777300
v -0.02175300 -0.08600000 0.01737200
v -0.02354500 -0.08600000 0.01887500
v -0.02348400 -0.08600000 0.01817900
v -0.02245000 -0.08600000 0.01731100
v -0.02324900 -0.08600000 0.01950900
v -0.01950900 -0.08600000 0.02324900
v -0.01910300 -0.08600000 0.02348400
v 0.01752200 -0.08600000 0.02297000
v 0.01729800 -0.08600000 0.02235600
v 0.01738900 -0.08600000 0.02171000
v 0.01777300 -0.08600000 0.02118100
v 0.02118100 -0.08600000 0.01777300
v 0.02324900 -0.08600000 0.01950900
v 0.02166000 -0.08600000 0.01741000
v 0.02224900 -0.08600000 0.01729100
v 0.02352300 -0.08600000 0.01897400
v 0.02353800 -0.08600000 0.01837300
v 0.01950900 -0.08600000 0.02324900
v 0.01782600 -0.08600000 -0.02329100
v 0.01837300 -0.08600000 -0.02353800
v 0.01897400 -0.08600000 -0.02352300
v 0.01950900 -0.08600000 -0.02324900
v 0.01741000 -0.08600000 -0.02166000
v 0.01777300 -0.08600000 -0.02118100
v 0.01729100 -0.08600000 -0.02224900
v 0.01743900 -0.08600000 -0.02283100
v 0.02164500 -0.08600000 -0.01741700
v 0.02118100 -0.08600000 -0.01777300
v 0.02324900 -0.08600000 -0.01950900
v 0.02221500 -0.08600000 -0.01729100
v 0.02352500 -0.08600000 -0.01896700
v 0.02353600 -0.08600000 -0.01836000
v 0.02327900 -0.08600000 -0.01781000
v 0.02280700 -0.08600000 -0.01742700
v 0.02283100 -0.08600000 0.01743900
v 0.02329100 -0.08600000 0.01782600
v 0.01800700 -0.08600000 0.02340700
v 0.01864100 -0.08600000 0.02356500
v 0.01910300 -0.08600000 0.02348400
v -0.02327900 -0.08600000 -0.01781000
v -0.01760700 -0.08600000 -0.02308300
vn -0.00000000 -1.00000000 -0.00000000
vn -0.00000000 -1.00000000 -0.00000000
vn -0.00000000 -1.00000000 -0.00000000
vn -0.00000000 -1.00000000 -0.00000000
vn -0.00000000 -1.00000000 -0.00000000
vn -0.00000000 -1.00000000 -0.00000000
vn -0.00000000 -1.00000000 -0.00000000
vn -0.00000000 -1.00000000 -0.00000000
vn -0.00000000 -1.00000000 -0.00000000
vn -0.00000000 -1.00000000 -0.00000000
vn -0.00000000 -1.00000000 -0.00000000
vn -0.00000000 -1.00000000 -0.00000000
vn -0.00000000 -1.00000000 -0.00000000
vn -0.00000000 -1.00000000 -0.00000000
vn -0.00000000 -1.00000000 -0.00000000
vn -0.00000000 -1.00000000 -0.00000000
vn -0.00000000 -1.00000000 -0.00000000
vn -0.00000000 -1.00000000 -0.00000000
vn -0.00000000 -1.00000000 -0.00000000
vn -0.00000000 -1.00000000 -0.00000000
vn -0.00000000 -1.00000000 -0.00000000
vn -0.00000000 -1.00000000 -0.00000000
vn -0.00000000 -1.00000000 -0.00000000
vn -0.00000000 -1.00000000 -0.00000000
vn -0.00000000 -1.00000000 -0.00000000
vn -0.00000000 -1.00000000 -0.00000000
vn -0.00000000 -1.00000000 -0.00000000
vn -0.00000000 -1.00000000 -0.00000000
vn -0.00000000 -1.00000000 -0.00000000
vn -0.00000000 -1.00000000 -0.00000000
vn -0.00000000 -1.00000000 -0.00000000
vn -0.00000000 -1.00000000 -0.00000000
vn -0.00000000 -1.00000000 -0.00000000
vn -0.00000000 -1.00000000 -0.00000000
vn -0.00000000 -1.00000000 -0.00000000
vn -0.00000000 -1.00000000 -0.00000000
vn -0.00000000 -1.00000000 -0.00000000
vn -0.00000000 -1.00000000 -0.00000000
vn -0.00000000 -1.00000000 -0.00000000
vn -0.00000000 -1.00000000 -0.00000000
vn -0.00000000 -1.00000000 -0.00000000
vn -0.00000000 -1.00000000 -0.00000000
vn -0.00000000 -1.00000000 -0.00000000
vn -0.00000000 -1.00000000 -0.00000000
vn -0.00000000 -1.00000000 -0.00000000
vn -0.00000000 -1.00000000 -0.00000000
vn -0.00000000 -1.00000000 -0.00000000
vn -0.00000000 -1.00000000 -0.00000000
vn -0.00000000 -1.00000000 -0.00000000
vn -0.00000000 -1.00000000 -0.00000000
vn -0.00000000 -1.00000000 -0.00000000
vn -0.00000000 -1.00000000 -0.00000000
vn -0.00000000 -1.00000000 -0.00000000
vn -0.00000000 -1.00000000 -0.00000000
vn -0.00000000 -1.00000000 -0.00000000
vn -0.00000000 -1.00000000 -0.00000000
vn -0.00000000 -1.00000000 -0.00000000
vn -0.00000000 -1.00000000 -0.00000000
vn -0.00000000 -1.00000000 -0.00000000
vn -0.00000000 -1.00000000 -0.00000000
vn -0.00000000 -1.00000000 -0.00000000
f 2//2 3//3 1//1
f 1//1 3//3 4//4
f 1//1 4//4 5//5
f 5//5 4//4 6//6
f 7//7 6//6 4//4
f 10//10 9//9 11//11
f 10//10 8//8 9//9
f 11//11 9//9 7//7
f 11//11 7//7 12//12
f 17//17 15//15 16//16
f 14//14 15//15 17//17
f 17//17 16//16 18//18
f 17//17 19//19 14//14
f 22//22 21//21 20//20
f 23//23 21//21 22//22
f 23//23 24//24 21//21
f 25//25 20//20 26//26
f 22//22 20//20 25//25
f 18//18 27//27 26//26
f 20//20 18//18 26//26
f 18//18 16//16 27//27
f 31//31 32//32 33//33
f 33//33 32//32 34//34
f 33//33 34//34 36//36
f 36//36 34//34 35//35
f 36//36 35//35 37//37
f 41//41 39//39 40//40
f 41//41 43//43 39//39
f 42//42 43//43 41//41
f 42//42 44//44 43//43
f 45//45 46//46 43//43
f 43//43 46//46 39//39
f 49//49 47//47 48//48
f 42//42 49//49 48//48
f 48//48 44//44 42//42
f 49//49 50//50 47//47
f 51//51 50//50 49//49
f 51//51 54//54 50//50
f 51//51 52//52 53//53
f 53//53 54//54 51//51
f 35//35 55//55 56//56
f 37//37 35//35 56//56
f 57//57 30//30 58//58
f 58//58 30//30 31//31
f 58//58 31//31 59//59
f 59//59 31//31 38//38
f 28//28 29//29 57//57
f 57//57 29//29 30//30
f 33//33 38//38 31//31
f 60//60 13//13 2//2
f 2//2 13//13 3//3
f 12//12 7//7 4//4
f 61//61 8//8 10//10

