# https://github.com/mikedh/trimesh
v -0.01718124 -0.00053588 0.03055077
v -0.01718124 -0.00161834 0.03046704
v -0.01611803 -0.00161834 0.03046105
v -0.01625550 -0.00054659 0.03053880
v -0.01625550 0.00053588 0.03053283
v -0.01718124 0.00054659 0.03053283
v -0.01718124 -0.00262579 0.03037134
v -0.01553857 -0.00244359 0.03035340
v -0.01611803 -0.00054659 0.03053283
v -0.00204053 -0.04927909 0.02565236
v -0.00204053 0.04819662 0.02647175
v -0.01625550 0.00249718 0.03037732
v -0.01718124 0.00322597 0.03032349
v -0.01611803 0.00051444 0.03052684
v -0.01718124 -0.00485503 0.03014406
v -0.01387851 -0.04927909 0.02565236
v -0.01544113 -0.00054659 0.03043115
v -0.00204053 -0.04819662 0.02571815
v -0.00095818 -0.04819662 0.02553872
v -0.00204053 -0.05035084 0.02547891
v -0.00095818 -0.05035084 0.02530546
v -0.00095818 -0.04927909 0.02547293
v -0.00095818 0.04819662 0.02629232
v -0.00204053 0.04927909 0.02637605
v -0.01387851 0.04819662 0.02647175
v -0.01718124 0.00485503 0.03016201
v -0.01503742 0.04927909 0.02637605
v -0.01582569 0.04927909 0.02618466
v -0.01544635 0.00051444 0.03041321
v -0.01718124 -0.00591606 0.02996463
v -0.01588311 -0.05034012 0.02518584
v -0.01503742 -0.04925765 0.02564040
v -0.01503742 -0.05034012 0.02547293
v -0.01387851 -0.05035084 0.02547891
v -0.00095818 -0.04711415 0.02555068
v -0.00071805 0.00270081 0.02588562
v -0.00120354 0.00703068 0.02607103
v -0.00112697 0.01352549 0.02609495
v -0.00050401 0.02111349 0.02595739
v -0.00018209 -0.04819662 0.02513799
v -0.00021341 -0.04927909 0.02510211
v -0.00204053 -0.05137972 0.02513799
v -0.00095818 -0.05120824 0.02504828
v -0.00030216 -0.05035084 0.02501240
v -0.00037698 -0.05098317 0.02494062
v -0.00041005 0.03194888 0.02599925
v -0.00034740 0.04819662 0.02605308
v -0.00036828 0.04901115 0.02603514
v -0.00087118 0.04933268 0.02617270
v -0.00117570 0.05035084 0.02608299
v -0.00139147 0.05095102 0.02601720
v -0.00204053 0.05035084 0.02617868
v -0.01387851 0.04935411 0.02636409
v -0.01718124 0.00594822 0.02993473
v -0.01615979 0.04927909 0.02544302
v -0.01388025 0.04935411 0.02636409
v -0.01387851 0.05035084 0.02617868
v -0.01503742 0.05034012 0.02617270
v -0.01562210 0.05095102 0.02601720
v -0.01571606 0.05034012 0.02608299
v -0.01605017 0.05034012 0.02544302
v -0.01718124 -0.00862759 0.02924094
v -0.01621722 -0.05034012 0.02435449
v -0.01595446 -0.05151905 0.02445617
v -0.01576131 -0.05120824 0.02506024
v -0.01503742 -0.05137972 0.02513799
v -0.00063452 0.00920634 0.02590954
v -0.00042223 0.02978395 0.02598729
v 0.00028948 -0.04927909 0.02436645
v 0.00032428 -0.04819662 0.02436645
v -0.00017339 -0.04603169 0.02514996
v 0.00019551 -0.05035084 0.02436645
v -0.00204053 -0.05192631 0.02487483
v -0.00095818 -0.05174412 0.02476718
v -0.00054578 -0.05298735 0.02373247
v -0.00024474 -0.05226927 0.02402554
v -0.00009509 -0.05137972 0.02437841
v -0.00011423 -0.03086642 0.02520977
v -0.00004114 -0.01137127 0.02528752
v -0.00000286 0.00053588 0.02533537
v 0.00015201 0.04819662 0.02544900
v 0.00003020 0.01244302 0.02538321
v 0.00005282 0.02326770 0.02542508
v 0.00006500 0.02978395 0.02544900
v 0.00011721 0.04060863 0.02544900
v -0.00000112 0.04933268 0.02554470
v -0.00001330 0.05035084 0.02535929
v -0.00045181 0.04972923 0.02597533
v -0.00063452 0.05035084 0.02590356
v -0.00204053 0.05097245 0.02602916
v -0.00100169 0.05136900 0.02560451
v -0.00095818 0.05217282 0.02504230
v -0.00204053 0.05230142 0.02514996
v -0.00204053 0.05151905 0.02568824
v -0.01387851 0.05040443 0.02616672
v -0.01718124 0.00830607 0.02933663
v -0.01718124 0.01028881 0.02875648
v -0.01718124 0.00909916 0.02912730
v -0.01718124 0.00901342 0.02915122
v -0.01620678 0.05142259 0.02435449
v -0.01388025 0.05040443 0.02616672
v -0.01503742 0.05097245 0.02602318
v -0.01503742 0.05151905 0.02568824
v -0.01503742 0.05229071 0.02514398
v -0.01575087 0.05218353 0.02506622
v -0.01584135 0.05135829 0.02543704
v -0.01718124 -0.00917418 0.02908543
v -0.01718124 -0.01026737 0.02876246
v -0.01718124 -0.01129625 0.02837968
v -0.01718124 -0.01351477 0.02732703
v -0.01718124 -0.01460796 0.02680668
v -0.01718124 -0.01558325 0.02628036
v -0.01624332 -0.05142259 0.02327792
v -0.01615109 -0.05250506 0.02327792
v -0.01581873 -0.05250506 0.02412721
v -0.01567604 -0.05313739 0.02389994
v -0.01503742 -0.05191560 0.02486287
v -0.01387851 -0.05192631 0.02487483
v 0.00058704 -0.05035084 0.02328390
v -0.00008813 -0.02435017 0.02523369
v 0.00059400 -0.04927909 0.02328390
v 0.00038867 -0.03194888 0.02436645
v 0.00046001 -0.05143331 0.02328390
v -0.01387851 -0.05248362 0.02448009
v -0.00204053 -0.05251578 0.02445018
v -0.00126792 -0.05314811 0.02390592
v -0.00092686 -0.05259080 0.02419300
v -0.00092686 -0.05339461 0.02333773
v -0.00086770 -0.05400551 0.02224321
v -0.00026388 -0.05324457 0.02301475
v -0.00002200 -0.05259080 0.02333773
v 0.00058704 0.04711415 0.02436645
v 0.00058704 0.04819662 0.02436645
v 0.00057312 0.04927909 0.02436645
v 0.00049133 0.05035084 0.02436645
v 0.00042869 -0.02111349 0.02436645
v 0.00044435 -0.01678361 0.02436645
v 0.00046697 -0.01028881 0.02436645
v 0.00050525 0.00161834 0.02436645
v 0.00052439 0.00811315 0.02436645
v 0.00054875 0.01786608 0.02436645
v 0.00056093 0.02435017 0.02436645
v 0.00056615 0.02760829 0.02436645
v 0.00058182 0.03952616 0.02436645
v 0.00058530 0.04278428 0.02436645
v 0.00023728 0.05143331 0.02436645
v -0.00023255 0.05143331 0.02511407
v -0.00039439 0.05202277 0.02492866
v -0.01387851 0.05097245 0.02602916
v -0.00095818 0.05271941 0.02451598
v -0.00204053 0.05283730 0.02466550
v -0.01387851 0.05288017 0.02462961
v -0.01387851 0.05230142 0.02514996
v -0.01387851 0.05157264 0.02565236
v -0.01718124 0.01126410 0.02834977
v -0.01624506 0.05034012 0.02435449
v -0.01590748 0.05254793 0.02437841
v -0.01619459 0.05250506 0.02327792
v -0.01624506 0.05250506 0.02219536
v -0.01388025 0.05157264 0.02565236
v -0.01503742 0.05283730 0.02466550
v -0.01573347 0.05320170 0.02402554
v -0.01718124 -0.01614056 0.02592748
v -0.01624332 -0.05250506 0.02219536
v -0.01718124 -0.01678361 0.02550283
v -0.01718124 -0.01748025 0.02503034
v -0.01718124 -0.01879850 0.02409731
v -0.01718124 -0.01932366 0.02372051
v -0.01718124 -0.02009532 0.02311045
v -0.01718124 -0.02112420 0.02217144
v -0.01616501 -0.05359824 0.02110682
v -0.01593010 -0.05368398 0.02223125
v -0.01581873 -0.05335174 0.02327792
v -0.01571954 -0.05425201 0.02190229
v -0.01503742 -0.05406982 0.02258412
v -0.01503742 -0.05364112 0.02327792
v -0.01503742 -0.05315883 0.02393582
v -0.01503742 -0.05250506 0.02444420
v 0.00059400 -0.05143331 0.02220134
v 0.00059400 0.05035084 0.02328390
v 0.00043913 -0.05251578 0.02220134
v 0.00057486 -0.05251578 0.02111280
v -0.01387851 -0.05316954 0.02394778
v -0.00204053 -0.05316954 0.02394778
v -0.00204053 -0.05365183 0.02328390
v -0.00204053 -0.05408053 0.02258412
v -0.00116874 -0.05425201 0.02191426
v -0.00044485 -0.05413412 0.02159128
v -0.00006550 -0.05345892 0.02220134
v 0.00055919 0.05143331 0.02328390
v 0.00021117 0.05251578 0.02328390
v -0.00022907 0.05244075 0.02425879
v -0.00041527 0.05306237 0.02382816
v -0.00095818 0.05315883 0.02397769
v -0.00204053 0.05326600 0.02412721
v -0.01388025 0.05288017 0.02462961
v -0.01718124 0.01181069 0.02811054
v -0.01718124 0.02272111 0.02056854
v -0.01718124 0.02108133 0.02218340
v -0.01718124 0.02053474 0.02270972
v -0.01718124 0.02008461 0.02312839
v -0.01718124 0.01939868 0.02373845
v -0.01718124 0.01749097 0.02505426
v -0.01718124 0.01679433 0.02550283
v -0.01718124 0.01558325 0.02627438
v -0.01718124 0.01462939 0.02680070
v -0.01718124 0.01407208 0.02707583
v -0.01586049 0.05338389 0.02327792
v -0.01588834 0.05369470 0.02221330
v -0.01606757 0.05359824 0.02110682
v -0.01611629 0.05359824 0.02003025
v -0.01613369 0.05359824 0.01570003
v -0.01614587 0.05359824 0.01244639
v -0.01618415 0.05359824 0.00052632
v -0.01619459 0.05359824 -0.00377399
v -0.01621548 0.05359824 -0.01244639
v -0.01622244 0.05359824 -0.01569405
v -0.01622766 0.05359824 -0.01894172
v -0.01718124 0.03073781 0.00053829
v -0.01718124 0.03063063 0.00276919
v -0.01718124 0.03050202 0.00370820
v -0.01718124 0.03049130 0.00378595
v -0.01718124 0.03026624 0.00491037
v -0.01718124 0.02955888 0.00820588
v -0.01718124 0.02846569 0.01144159
v -0.01718124 0.02695453 0.01458757
v -0.01718124 0.02600067 0.01625028
v -0.01718124 0.02565771 0.01671680
v -0.01718124 0.02371784 0.01931852
v -0.01718124 0.02310694 0.02009604
v -0.01503742 0.05326600 0.02411525
v -0.01503742 0.05375901 0.02327792
v -0.01503742 0.05409125 0.02252431
v -0.01565168 0.05417699 0.02187239
v -0.01622766 -0.05359824 0.01894172
v -0.01621722 -0.05359824 0.02003025
v -0.01718124 -0.02220667 0.02106496
v -0.01718124 -0.02314981 0.02006614
v -0.01718124 -0.02372856 0.01940823
v -0.01718124 -0.02564699 0.01671082
v -0.01718124 -0.02624717 0.01575386
v -0.01718124 -0.02716888 0.01418685
v -0.01718124 -0.02842283 0.01150140
v -0.01718124 -0.02935525 0.00880398
v -0.01718124 -0.02955888 0.00814607
v -0.01718124 -0.03051274 0.00378595
v -0.01588311 -0.05440205 0.02003025
v -0.01583091 -0.05434847 0.02110682
v -0.01503742 -0.05455210 0.02110682
v -0.01503742 -0.05429488 0.02203387
v -0.01395333 -0.05408053 0.02258412
v -0.01387851 -0.05365183 0.02328390
v -0.01387851 -0.05430560 0.02204584
v 0.00059052 -0.05251578 0.02003025
v 0.00059226 -0.05251578 0.01894770
v 0.00059400 -0.05143331 -0.01245237
v 0.00059400 0.05143331 0.01245237
v 0.00058704 0.05143331 0.02220134
v 0.00000758 -0.05370542 0.02118458
v 0.00019029 -0.05359824 0.02003025
v 0.00021117 -0.05359824 0.01894770
v -0.00204053 -0.05430560 0.02204584
v -0.00204053 -0.05456282 0.02111280
v -0.00086770 -0.05434847 0.02118458
v -0.00035958 -0.05419842 0.02087357
v 0.00053309 0.05251578 0.02111280
v 0.00045479 0.05251578 0.02220134
v -0.00004985 0.05344820 0.02220134
v -0.00026040 0.05323385 0.02328390
v -0.00095818 0.05357681 0.02328390
v -0.01387851 0.05326600 0.02412721
v -0.00204053 0.05376972 0.02328390
v -0.01573521 0.05425201 0.02110682
v -0.01578219 0.05429488 0.02003025
v -0.01580481 0.05431632 0.01461748
v -0.01584657 0.05435919 0.00161486
v -0.01589355 0.05444493 -0.01894172
v -0.01621722 0.05359824 -0.02003025
v -0.01624506 0.05250506 -0.02219536
v -0.01718124 0.03051274 -0.00378595
v -0.01718124 0.03061991 -0.00294263
v -0.01718124 0.03073781 -0.00056819
v -0.01387851 0.05376972 0.02328390
v -0.01395333 0.05410197 0.02252431
v -0.01387851 0.05411268 0.02248843
v -0.01387851 0.05423058 0.02192622
v -0.01503742 0.05419842 0.02197406
v -0.01503742 0.05435919 0.02110682
v -0.01718124 -0.03061991 0.00294263
v -0.01718124 -0.03073781 0.00056819
v -0.01718124 -0.03073781 -0.00053829
v -0.01624332 -0.05250506 -0.02220134
v -0.01622592 -0.05359824 0.01785318
v -0.01589355 -0.05444493 0.01894172
v -0.01503742 -0.05470215 0.02003025
v -0.01387851 -0.05456282 0.02111280
v 0.00059226 -0.05251578 0.01786514
v 0.00059052 -0.05251578 0.01136981
v 0.00058704 -0.05251578 0.00162084
v 0.00058704 -0.05143331 -0.02220134
v 0.00059400 -0.05035084 -0.02328390
v 0.00059400 0.05143331 -0.02220134
v 0.00059226 0.05251578 -0.01786514
v 0.00059052 0.05251578 -0.01136981
v 0.00058704 0.05251578 -0.00162084
v 0.00058356 0.05251578 0.00270340
v 0.00057834 0.05251578 0.00811617
v 0.00057312 0.05251578 0.01136981
v 0.00056790 0.05251578 0.01461748
v 0.00054354 0.05251578 0.02003025
v -0.00031086 -0.05425201 0.02003025
v -0.00029172 -0.05427345 0.01894770
v 0.00020247 -0.05359824 0.01678259
v 0.00056615 -0.05251578 -0.01461748
v 0.00057138 -0.05251578 -0.01245237
v 0.00057834 -0.05251578 -0.00811617
v 0.00058356 -0.05251578 -0.00270340
v -0.00204053 -0.05470215 0.02003025
v -0.00095818 -0.05453067 0.02003025
v 0.00005282 0.05358753 0.02003025
v 0.00003020 0.05354466 0.02111280
v -0.00059276 0.05409125 0.02111280
v -0.00096166 0.05400551 0.02221928
v -0.00204053 0.05410197 0.02252431
v -0.01503742 0.05441277 0.02003025
v -0.01503742 0.05474502 -0.01894172
v -0.01503742 0.05470215 -0.02003025
v -0.01588311 0.05440205 -0.02003025
v -0.01616501 0.05359824 -0.02110682
v -0.01615283 0.05250506 -0.02327792
v -0.01624506 0.05142259 -0.02327792
v -0.01718124 0.02112420 -0.02217144
v -0.01718124 0.02220667 -0.02106496
v -0.01718124 0.02314981 -0.02006614
v -0.01718124 0.02372856 -0.01940823
v -0.01718124 0.02565771 -0.01669885
v -0.01718124 0.02624717 -0.01575386
v -0.01718124 0.02716888 -0.01418685
v -0.01718124 0.02842283 -0.01150140
v -0.01718124 0.02935525 -0.00880398
v -0.01718124 0.02955888 -0.00814607
v -0.00204053 0.05420914 0.02198603
v -0.00204053 0.05435919 0.02111280
v -0.01387851 0.05435919 0.02111280
v -0.01387851 0.05442349 0.02003025
v -0.01718124 -0.03063063 -0.00276919
v -0.01620678 -0.05142259 -0.02436645
v -0.01619459 -0.05250506 -0.02327792
v -0.01611629 -0.05359824 -0.02003025
v -0.01613369 -0.05359824 -0.01570003
v -0.01614587 -0.05359824 -0.01244639
v -0.01616327 -0.05359824 -0.00702763
v -0.01617719 -0.05359824 -0.00269143
v -0.01618589 -0.05359824 0.00052632
v -0.01619459 -0.05359824 0.00377399
v -0.01621548 -0.05359824 0.01244639
v -0.01622244 -0.05359824 0.01568209
v -0.01718124 -0.03050202 -0.00370820
v -0.01718124 -0.03049130 -0.00378595
v -0.01718124 -0.03026624 -0.00491037
v -0.01718124 -0.02955888 -0.00820588
v -0.01718124 -0.02846569 -0.01144159
v -0.01718124 -0.02695453 -0.01458757
v -0.01718124 -0.02600067 -0.01625028
v -0.01718124 -0.02565771 -0.01671680
v -0.01718124 -0.02371784 -0.01931852
v -0.01718124 -0.02310694 -0.02009604
v -0.01718124 -0.02272111 -0.02056854
v -0.01624332 -0.05034012 -0.02436645
v -0.01583439 -0.05434847 -0.00594508
v -0.01503742 -0.05474502 0.01894172
v -0.01387851 -0.05474502 0.01894770
v 0.00054354 -0.05251578 -0.02003025
v 0.00053309 -0.05251578 -0.02111280
v 0.00055919 -0.05143331 -0.02328390
v 0.00057312 -0.04927909 -0.02436645
v 0.00058704 -0.04819662 -0.02436645
v 0.00059400 0.04927909 -0.02328390
v 0.00046001 0.05143331 -0.02328390
v 0.00057486 0.05251578 -0.02111280
v 0.00059052 0.05251578 -0.02003025
v 0.00059226 0.05251578 -0.01894770
v 0.00058704 0.05035084 -0.02328390
v 0.00021117 0.05359824 -0.01894770
v 0.00020247 0.05359824 -0.01678259
v 0.00017115 0.05359824 -0.00919872
v -0.00095818 -0.05456282 0.01894770
v 0.00017115 -0.05359824 0.00919872
v -0.00042049 -0.05414484 -0.01353492
v -0.00040483 -0.05415555 -0.01028128
v 0.00005282 -0.05358753 -0.02003025
v -0.00204053 -0.05474502 0.01894770
v -0.00029172 0.05427345 -0.01894770
v -0.00040483 0.05415555 0.01028128
v -0.00042049 0.05414484 0.01353492
v -0.00047095 0.05413412 0.01894770
v -0.00048139 0.05412340 0.02003025
v -0.00102257 0.05429488 0.02003025
v -0.00113393 0.05425201 0.02111280
v -0.00132709 0.05418770 0.02187837
v -0.01388025 0.05444493 0.01886994
v -0.01387851 0.05446636 0.01678259
v -0.01387851 0.05450923 0.01129206
v -0.01388025 0.05474502 -0.01894172
v -0.01387851 0.05474502 -0.01894770
v -0.01387851 0.05456282 -0.02111280
v -0.01503742 0.05456282 -0.02110682
v -0.01583091 0.05435919 -0.02110682
v -0.00204053 0.05470215 -0.02003025
v -0.01593010 0.05368398 -0.02224321
v -0.01581873 0.05250506 -0.02412721
v -0.01595446 0.05152976 -0.02444420
v -0.01621722 0.05034012 -0.02436645
v -0.01581873 0.05335174 -0.02327792
v -0.01567604 0.05314811 -0.02390592
v -0.01718124 0.01558325 -0.02628036
v -0.01718124 0.01614056 -0.02592748
v -0.01718124 0.01678361 -0.02550283
v -0.01718124 0.01748025 -0.02503034
v -0.01718124 0.01879850 -0.02409731
v -0.01718124 0.01932366 -0.02372051
v -0.01718124 0.02009532 -0.02311045
v -0.00204053 0.05442349 0.02003025
v -0.01584135 -0.05135829 -0.02543704
v -0.01590748 -0.05254793 -0.02436645
v -0.01718124 -0.01028881 -0.02875648
v -0.01615979 -0.04925765 -0.02544900
v -0.01605017 -0.05034012 -0.02544900
v -0.01586049 -0.05338389 -0.02327792
v -0.01588834 -0.05368398 -0.02221330
v -0.01606757 -0.05359824 -0.02110682
v -0.01578219 -0.05429488 -0.02003025
v -0.01718124 -0.02108133 -0.02218340
v -0.01718124 -0.02053474 -0.02270972
v -0.01718124 -0.02008461 -0.02312839
v -0.01718124 -0.01939868 -0.02373845
v -0.01718124 -0.01749097 -0.02505426
v -0.01718124 -0.01679433 -0.02550283
v -0.01718124 -0.01558325 -0.02627438
v -0.01718124 -0.01462939 -0.02680070
v -0.01718124 -0.01407208 -0.02707583
v -0.01718124 -0.01181069 -0.02811054
v -0.01718124 -0.01126410 -0.02834977
v -0.01388025 -0.05474502 0.01894172
v -0.01503742 -0.05441277 -0.02003025
v -0.01387851 -0.05446636 -0.01678259
v -0.01387851 -0.05450923 -0.01129206
v 0.00045479 -0.05251578 -0.02220134
v 0.00003020 -0.05354466 -0.02111280
v 0.00021117 -0.05251578 -0.02328390
v 0.00023728 -0.05143331 -0.02436645
v 0.00049133 -0.05035084 -0.02436645
v 0.00015201 -0.04819662 -0.02544900
v 0.00058704 -0.04711415 -0.02436645
v 0.00046697 0.01028881 -0.02436645
v 0.00044435 0.01678361 -0.02436645
v 0.00042869 0.02111349 -0.02436645
v 0.00038867 0.03194888 -0.02436645
v 0.00032428 0.04819662 -0.02436645
v 0.00058530 -0.04278428 -0.02436645
v 0.00058182 -0.03952616 -0.02436645
v 0.00056615 -0.02760829 -0.02436645
v 0.00056093 -0.02435017 -0.02436645
v 0.00054875 -0.01786608 -0.02436645
v 0.00051917 -0.00594822 -0.02436645
v 0.00019551 0.05035084 -0.02436645
v -0.00009509 0.05137972 -0.02437841
v -0.00024474 0.05226927 -0.02402554
v -0.00002200 0.05259080 -0.02333773
v 0.00043913 0.05251578 -0.02220134
v 0.00000758 0.05370542 -0.02118458
v 0.00019029 0.05359824 -0.02003025
v 0.00028948 0.04927909 -0.02436645
v -0.00095818 -0.05454138 0.01570003
v -0.00047095 -0.05413412 -0.01894770
v -0.00048139 -0.05412340 -0.02003025
v -0.00204053 -0.05446636 -0.01678259
v -0.00102257 -0.05429488 -0.02003025
v -0.00031086 0.05425201 -0.02003025
v -0.00095818 0.05456282 -0.01894770
v -0.00095818 0.05454138 -0.01570003
v -0.00098254 0.05431632 0.01570003
v -0.00100169 0.05430560 0.01786514
v -0.00204053 0.05474502 -0.01894770
v -0.00204053 0.05446636 0.01678259
v -0.00204053 0.05456282 -0.02111280
v -0.01387851 0.05430560 -0.02204584
v -0.01503742 0.05430560 -0.02203387
v -0.01571954 0.05425201 -0.02191426
v -0.00095818 0.05453067 -0.02003025
v -0.01576305 0.05120824 -0.02506024
v -0.01588311 0.05034012 -0.02519182
v -0.01718124 0.00591606 -0.02996463
v -0.01718124 0.00862759 -0.02924094
v -0.01718124 0.00917418 -0.02908543
v -0.01718124 0.01026737 -0.02876246
v -0.01718124 0.01129625 -0.02837968
v -0.01718124 0.01351477 -0.02732703
v -0.01718124 0.01460796 -0.02680668
v -0.01503742 0.05406982 -0.02257216
v -0.01503742 0.05364112 -0.02327792
v -0.01503742 0.05315883 -0.02393582
v -0.01503742 0.05250506 -0.02444420
v -0.01503742 0.05191560 -0.02486287
v -0.01574913 -0.05218353 -0.02506622
v -0.01571606 -0.05034012 -0.02608299
v -0.01562210 -0.05094030 -0.02601720
v -0.01573347 -0.05320170 -0.02402554
v -0.01718124 -0.00909916 -0.02912730
v -0.01718124 -0.00901342 -0.02915122
v -0.01718124 -0.00830607 -0.02933663
v -0.01718124 -0.00594822 -0.02993473
v -0.01718124 -0.00485503 -0.03016201
v -0.01582569 -0.04925765 -0.02617868
v -0.01564994 -0.05416627 -0.02186043
v -0.01573347 -0.05425201 -0.02110682
v -0.01387851 -0.05442349 -0.02003025
v -0.01503742 -0.05435919 -0.02110682
v -0.00004985 -0.05344820 -0.02220134
v -0.00059276 -0.05409125 -0.02111280
v -0.00026040 -0.05323385 -0.02328390
v -0.00041527 -0.05306237 -0.02382816
v -0.00022907 -0.05244075 -0.02425879
v -0.00039439 -0.05202277 -0.02492866
v -0.00023255 -0.05143331 -0.02511407
v -0.00001330 -0.05035084 -0.02535929
v -0.00000112 -0.04933268 -0.02554470
v -0.00036828 -0.04901115 -0.02603514
v -0.00034740 -0.04819662 -0.02605308
v 0.00011721 -0.04060863 -0.02544900
v 0.00003020 -0.01244302 -0.02538321
v -0.00004114 0.01137127 -0.02528752
v -0.00006376 0.01786608 -0.02526360
v -0.00017339 0.04603169 -0.02514996
v -0.00018209 0.04819662 -0.02513799
v -0.00000286 -0.00053588 -0.02533537
v -0.00021341 0.04927909 -0.02510211
v -0.00030216 0.05035084 -0.02501240
v -0.00037698 0.05098317 -0.02494062
v -0.00054578 0.05298735 -0.02373247
v -0.00026388 0.05324457 -0.02301475
v -0.00006550 0.05345892 -0.02220134
v -0.00044485 0.05413412 -0.02159128
v -0.00035958 0.05419842 -0.02087357
v -0.00100169 -0.05430560 -0.01786514
v -0.00098254 -0.05431632 -0.01570003
v -0.00204053 -0.05442349 -0.02003025
v -0.00113393 -0.05425201 -0.02111280
v -0.00086770 0.05434847 -0.02118458
v -0.00116874 0.05425201 -0.02191426
v -0.00204053 0.05430560 -0.02204584
v -0.01387851 0.05408053 -0.02258412
v -0.01503742 0.05034012 -0.02547293
v -0.01503742 0.05137972 -0.02513799
v -0.01503742 0.04927909 -0.02564040
v -0.01718124 0.00485503 -0.03014406
v -0.01387851 0.05365183 -0.02328390
v -0.01387851 0.05316954 -0.02394778
v -0.01388025 0.05313739 -0.02397769
v -0.01387851 0.05248362 -0.02448009
v -0.01387851 0.05192631 -0.02487483
v -0.01503742 -0.05229071 -0.02514398
v -0.01503742 -0.05283730 -0.02466550
v -0.01503742 -0.04925765 -0.02637605
v -0.01503742 -0.05034012 -0.02617270
v -0.01503742 -0.05097245 -0.02602318
v -0.01503742 -0.05151905 -0.02568824
v -0.01503742 -0.05326600 -0.02411525
v -0.01503742 -0.05375901 -0.02327792
v -0.01503742 -0.05409125 -0.02252431
v -0.01718124 -0.00322597 -0.03032349
v -0.01387851 -0.05435919 -0.02111280
v -0.01387851 -0.05423058 -0.02192622
v -0.00096166 -0.05400551 -0.02221928
v -0.00132709 -0.05418770 -0.02187837
v -0.00095818 -0.05357681 -0.02328390
v -0.00095818 -0.05315883 -0.02397769
v -0.00095818 -0.05271941 -0.02451598
v -0.00095818 -0.05217282 -0.02504230
v -0.00100169 -0.05136900 -0.02560451
v -0.00063452 -0.05035084 -0.02590356
v -0.00045181 -0.04972923 -0.02597533
v -0.00095818 -0.04819662 -0.02629232
v -0.00087118 -0.04933268 -0.02617270
v -0.00041005 -0.03194888 -0.02599925
v 0.00005282 -0.02326770 -0.02542508
v 0.00006500 -0.02978395 -0.02544900
v -0.00042223 -0.02978395 -0.02598729
v -0.00050401 -0.02111349 -0.02595739
v -0.00095818 0.04711415 -0.02555068
v -0.00095818 0.04819662 -0.02553872
v -0.00095818 0.04927909 -0.02547293
v -0.00095818 0.05035084 -0.02530546
v -0.00095818 0.05120824 -0.02504828
v -0.00095818 0.05174412 -0.02476718
v -0.00092686 0.05259080 -0.02419300
v -0.00126792 0.05314811 -0.02390592
v -0.00092686 0.05339461 -0.02333773
v -0.00086770 0.05400551 -0.02224321
v -0.00204053 -0.05435919 -0.02111280
v -0.00204053 0.05408053 -0.02258412
v -0.01387851 0.05035084 -0.02547891
v -0.01388025 0.05028654 -0.02549087
v -0.01387851 0.04927909 -0.02565236
v -0.00204053 0.05137972 -0.02513799
v -0.01718124 0.00262579 -0.03037134
v -0.00204053 0.05365183 -0.02328390
v -0.00204053 0.05316954 -0.02394778
v -0.00204053 0.05251578 -0.02445018
v -0.00204053 0.05192631 -0.02487483
v -0.01387851 -0.05230142 -0.02514996
v -0.01388025 -0.05234430 -0.02511407
v -0.01387851 -0.05288017 -0.02462961
v -0.01387851 -0.04819662 -0.02647175
v -0.01387851 -0.04927909 -0.02637605
v -0.01387851 -0.04935411 -0.02636409
v -0.01387851 -0.05035084 -0.02617868
v -0.01387851 -0.05040443 -0.02616672
v -0.01387851 -0.05097245 -0.02602916
v -0.00204053 -0.05151905 -0.02568824
v -0.01387851 -0.05157264 -0.02565236
v -0.01387851 -0.05326600 -0.02412721
v -0.01387851 -0.05376972 -0.02328390
v -0.01395333 -0.05410197 -0.02252431
v -0.01387851 -0.05411268 -0.02248843
v -0.01718124 -0.00054659 -0.03053283
v -0.01625550 -0.00053588 -0.03053283
v -0.01625550 -0.00311879 -0.03032349
v -0.00204053 -0.04819662 -0.02647175
v -0.00204053 -0.05410197 -0.02252431
v -0.00204053 -0.05420914 -0.02198603
v -0.00204053 -0.05326600 -0.02412721
v -0.00204053 -0.05376972 -0.02328390
v -0.00204053 -0.05283730 -0.02466550
v -0.00204053 -0.05230142 -0.02514996
v -0.00139147 -0.05095102 -0.02601720
v -0.00117570 -0.05035084 -0.02608299
v -0.00204053 -0.04927909 -0.02637605
v -0.01611803 -0.00054659 -0.03052684
v -0.01544635 -0.00054659 -0.03041321
v -0.01544113 0.00051444 -0.03043115
v -0.00112697 -0.01352549 -0.02609495
v -0.00120354 -0.00703068 -0.02607103
v -0.00070239 -0.00378328 -0.02589160
v -0.01553857 0.00242216 -0.03035340
v -0.00204053 0.04819662 -0.02571815
v -0.00204053 0.04927909 -0.02565236
v -0.00204053 0.05035084 -0.02547891
v -0.01625550 0.00161834 -0.03046105
v -0.01718124 0.00161834 -0.03046704
v -0.00204053 -0.05035084 -0.02617868
v -0.00204053 -0.05097245 -0.02602916
v -0.01718124 0.00053588 -0.03055077
v -0.01611803 -0.00317238 -0.03031751
v -0.01625550 0.00051444 -0.03053880
v -0.01611803 0.00051444 -0.03053283
v -0.01611803 0.00159691 -0.03046105
f 1 2 3
f 1 3 4
f 1 4 5
f 1 5 6
f 1 6 13
f 1 13 26
f 1 26 54
f 1 54 96
f 1 96 99
f 1 99 98
f 1 98 97
f 1 97 155
f 1 155 197
f 1 197 207
f 1 207 206
f 1 206 205
f 1 205 204
f 1 204 203
f 1 203 202
f 1 202 201
f 1 201 200
f 1 200 199
f 1 199 198
f 1 198 230
f 1 230 229
f 1 229 228
f 1 228 227
f 1 227 226
f 1 226 225
f 1 225 224
f 1 224 223
f 1 223 222
f 1 222 221
f 1 221 220
f 1 220 219
f 1 219 282
f 1 282 281
f 1 281 280
f 1 280 341
f 1 341 340
f 1 340 339
f 1 339 338
f 1 338 337
f 1 337 336
f 1 336 335
f 1 335 334
f 1 334 333
f 1 333 332
f 1 332 422
f 1 422 421
f 1 421 420
f 1 420 419
f 1 419 418
f 1 418 417
f 1 417 416
f 1 416 499
f 1 499 498
f 1 498 497
f 1 497 496
f 1 496 495
f 1 495 494
f 1 494 493
f 1 493 556
f 1 556 606
f 1 606 650
f 1 650 653
f 1 653 626
f 1 626 571
f 1 571 513
f 1 513 512
f 1 512 511
f 1 511 510
f 1 510 509
f 1 509 426
f 1 426 443
f 1 443 442
f 1 442 441
f 1 441 440
f 1 440 439
f 1 439 438
f 1 438 437
f 1 437 436
f 1 436 435
f 1 435 434
f 1 434 433
f 1 433 368
f 1 368 367
f 1 367 366
f 1 366 365
f 1 365 364
f 1 364 363
f 1 363 362
f 1 362 361
f 1 361 360
f 1 360 359
f 1 359 358
f 1 358 346
f 1 346 291
f 1 291 290
f 1 290 289
f 1 289 246
f 1 246 245
f 1 245 244
f 1 244 243
f 1 243 242
f 1 242 241
f 1 241 240
f 1 240 239
f 1 239 238
f 1 238 237
f 1 237 170
f 1 170 169
f 1 169 168
f 1 168 167
f 1 167 166
f 1 166 165
f 1 165 163
f 1 163 112
f 1 112 111
f 1 111 110
f 1 110 109
f 1 109 108
f 1 108 107
f 1 107 62
f 1 62 30
f 1 30 15
f 1 15 7
f 1 7 2
f 2 7 3
f 3 8 9
f 3 9 4
f 3 7 10
f 3 10 8
f 4 9 5
f 5 11 12
f 5 12 13
f 5 13 6
f 5 9 14
f 5 14 11
f 7 15 16
f 7 16 10
f 8 17 9
f 8 10 18
f 8 18 19
f 8 19 17
f 9 17 14
f 10 16 34
f 10 34 20
f 10 20 21
f 10 21 22
f 10 22 19
f 10 19 18
f 11 23 24
f 11 24 27
f 11 27 25
f 11 25 13
f 11 13 12
f 11 14 23
f 13 25 27
f 13 27 28
f 13 28 26
f 14 17 29
f 14 29 23
f 15 30 31
f 15 31 32
f 15 32 16
f 16 32 33
f 16 33 34
f 17 19 35
f 17 35 36
f 17 36 37
f 17 37 38
f 17 38 39
f 17 39 23
f 17 23 29
f 19 40 35
f 19 22 41
f 19 41 40
f 20 34 66
f 20 66 42
f 20 42 43
f 20 43 21
f 21 44 22
f 21 43 45
f 21 45 44
f 22 44 41
f 23 39 46
f 23 46 47
f 23 47 48
f 23 48 49
f 23 49 24
f 24 49 50
f 24 50 51
f 24 51 52
f 24 52 53
f 24 53 56
f 24 56 27
f 26 28 55
f 26 55 54
f 27 56 57
f 27 57 58
f 27 58 59
f 27 59 60
f 27 60 28
f 28 60 61
f 28 61 55
f 30 62 63
f 30 63 31
f 31 33 32
f 31 63 64
f 31 64 65
f 31 65 33
f 33 65 66
f 33 66 34
f 35 40 39
f 35 39 67
f 35 67 36
f 36 67 37
f 37 67 39
f 37 39 38
f 39 68 46
f 39 40 68
f 40 41 69
f 40 69 70
f 40 70 71
f 40 71 46
f 40 46 68
f 41 44 72
f 41 72 69
f 42 66 118
f 42 118 73
f 42 73 43
f 43 73 74
f 43 74 45
f 44 45 72
f 45 74 75
f 45 75 76
f 45 76 77
f 45 77 72
f 46 71 78
f 46 78 79
f 46 79 80
f 46 80 47
f 47 81 48
f 47 80 82
f 47 82 83
f 47 83 84
f 47 84 85
f 47 85 81
f 48 81 86
f 48 86 87
f 48 87 88
f 48 88 49
f 49 88 50
f 50 89 51
f 50 88 89
f 51 90 52
f 51 89 91
f 51 91 92
f 51 92 93
f 51 93 94
f 51 94 90
f 52 90 95
f 52 95 101
f 52 101 57
f 52 57 56
f 52 56 53
f 54 55 96
f 55 97 98
f 55 98 99
f 55 99 96
f 55 61 100
f 55 100 97
f 57 101 58
f 58 101 102
f 58 102 59
f 59 102 103
f 59 103 104
f 59 104 105
f 59 105 106
f 59 106 60
f 60 106 61
f 61 106 100
f 62 107 63
f 63 107 108
f 63 108 109
f 63 109 110
f 63 110 111
f 63 111 112
f 63 112 113
f 63 113 114
f 63 114 64
f 64 114 115
f 64 115 65
f 65 115 116
f 65 116 117
f 65 117 66
f 66 117 118
f 69 72 119
f 69 119 70
f 70 79 120
f 70 120 78
f 70 78 71
f 70 119 121
f 70 121 122
f 70 122 81
f 70 81 82
f 70 82 80
f 70 80 79
f 72 77 123
f 72 123 119
f 73 118 124
f 73 124 125
f 73 125 126
f 73 126 74
f 74 126 127
f 74 127 75
f 75 126 128
f 75 128 129
f 75 129 130
f 75 130 131
f 75 131 76
f 75 127 126
f 76 123 77
f 76 131 123
f 78 120 79
f 81 132 133
f 81 133 134
f 81 134 135
f 81 135 86
f 81 85 82
f 81 122 136
f 81 136 137
f 81 137 138
f 81 138 139
f 81 139 140
f 81 140 141
f 81 141 142
f 81 142 143
f 81 143 144
f 81 144 145
f 81 145 132
f 82 85 83
f 83 85 84
f 86 135 87
f 87 89 88
f 87 135 146
f 87 146 147
f 87 147 89
f 89 147 148
f 89 148 91
f 90 149 101
f 90 101 95
f 90 94 103
f 90 103 149
f 91 148 92
f 92 148 150
f 92 150 151
f 92 151 93
f 93 151 152
f 93 152 196
f 93 196 153
f 93 153 160
f 93 160 154
f 93 154 94
f 94 154 160
f 94 160 103
f 97 100 156
f 97 156 155
f 100 157 158
f 100 158 159
f 100 159 156
f 100 106 157
f 101 149 102
f 102 149 103
f 103 160 153
f 103 153 104
f 104 153 161
f 104 161 105
f 105 161 162
f 105 162 157
f 105 157 106
f 112 163 113
f 113 164 114
f 113 163 165
f 113 165 166
f 113 166 167
f 113 167 168
f 113 168 169
f 113 169 170
f 113 170 164
f 114 164 171
f 114 171 172
f 114 172 173
f 114 173 116
f 114 116 115
f 116 173 174
f 116 174 175
f 116 175 176
f 116 176 177
f 116 177 178
f 116 178 117
f 117 178 124
f 117 124 118
f 119 123 179
f 119 179 121
f 121 138 137
f 121 137 136
f 121 136 122
f 121 179 256
f 121 256 301
f 121 301 378
f 121 378 302
f 121 302 257
f 121 257 180
f 121 180 133
f 121 133 132
f 121 132 145
f 121 145 144
f 121 144 143
f 121 143 142
f 121 142 141
f 121 141 140
f 121 140 139
f 121 139 138
f 123 131 181
f 123 181 182
f 123 182 179
f 124 178 183
f 124 183 184
f 124 184 125
f 125 184 126
f 126 184 185
f 126 185 186
f 126 186 128
f 128 186 129
f 129 186 187
f 129 187 188
f 129 188 130
f 130 189 131
f 130 188 189
f 131 189 181
f 133 180 134
f 134 180 190
f 134 190 135
f 135 190 146
f 146 190 191
f 146 191 192
f 146 192 148
f 146 148 147
f 148 192 193
f 148 193 150
f 150 193 194
f 150 194 151
f 151 194 195
f 151 195 152
f 152 195 271
f 152 271 196
f 153 196 161
f 155 156 197
f 156 198 199
f 156 199 200
f 156 200 201
f 156 201 202
f 156 202 203
f 156 203 204
f 156 204 205
f 156 205 206
f 156 206 207
f 156 207 197
f 156 159 198
f 157 162 208
f 157 208 158
f 158 208 209
f 158 209 210
f 158 210 159
f 159 210 211
f 159 211 212
f 159 212 213
f 159 213 214
f 159 214 215
f 159 215 216
f 159 216 217
f 159 217 218
f 159 218 219
f 159 219 220
f 159 220 221
f 159 221 222
f 159 222 223
f 159 223 224
f 159 224 225
f 159 225 226
f 159 226 227
f 159 227 228
f 159 228 229
f 159 229 230
f 159 230 198
f 161 196 231
f 161 231 162
f 162 231 232
f 162 232 233
f 162 233 234
f 162 234 208
f 164 235 236
f 164 236 171
f 164 170 237
f 164 237 238
f 164 238 239
f 164 239 240
f 164 240 241
f 164 241 242
f 164 242 243
f 164 243 244
f 164 244 245
f 164 245 246
f 164 246 235
f 171 236 247
f 171 247 248
f 171 248 172
f 172 248 174
f 172 174 173
f 174 248 249
f 174 249 250
f 174 250 175
f 175 251 252
f 175 252 176
f 175 250 253
f 175 253 251
f 176 252 183
f 176 183 177
f 177 183 178
f 179 182 254
f 179 254 255
f 179 255 297
f 179 297 256
f 180 257 258
f 180 258 190
f 181 189 259
f 181 259 182
f 182 259 260
f 182 260 261
f 182 261 254
f 183 252 185
f 183 185 184
f 185 252 251
f 185 251 186
f 186 251 253
f 186 253 262
f 186 262 187
f 187 262 263
f 187 263 264
f 187 264 188
f 188 259 189
f 188 264 265
f 188 265 259
f 190 258 266
f 190 266 267
f 190 267 191
f 191 267 268
f 191 268 269
f 191 269 193
f 191 193 192
f 193 269 270
f 193 270 194
f 194 270 195
f 195 270 272
f 195 272 283
f 195 283 271
f 196 271 231
f 208 234 209
f 209 234 273
f 209 273 210
f 210 273 274
f 210 274 211
f 211 274 275
f 211 275 276
f 211 276 277
f 211 277 212
f 212 277 213
f 213 277 214
f 214 277 215
f 215 277 216
f 216 277 217
f 217 277 218
f 218 277 278
f 218 278 279
f 218 279 280
f 218 280 281
f 218 281 282
f 218 282 219
f 231 271 283
f 231 283 232
f 232 283 233
f 233 283 284
f 233 284 285
f 233 285 286
f 233 286 287
f 233 287 234
f 234 287 288
f 234 288 273
f 235 246 289
f 235 289 290
f 235 290 291
f 235 291 292
f 235 292 293
f 235 293 294
f 235 294 236
f 236 294 247
f 247 294 295
f 247 295 248
f 248 295 249
f 249 295 296
f 249 296 253
f 249 253 250
f 253 296 263
f 253 263 262
f 254 261 255
f 255 261 297
f 256 297 298
f 256 298 299
f 256 299 300
f 256 300 301
f 257 302 382
f 257 382 303
f 257 303 304
f 257 304 305
f 257 305 258
f 258 305 306
f 258 306 307
f 258 307 308
f 258 308 309
f 258 309 310
f 258 310 266
f 259 265 311
f 259 311 260
f 260 311 312
f 260 312 261
f 261 312 313
f 261 313 314
f 261 314 315
f 261 315 316
f 261 316 317
f 261 317 299
f 261 299 298
f 261 298 297
f 263 296 295
f 263 295 318
f 263 318 319
f 263 319 264
f 264 319 265
f 265 319 311
f 266 310 320
f 266 320 321
f 266 321 267
f 267 321 268
f 268 321 322
f 268 322 323
f 268 323 269
f 269 323 270
f 270 323 324
f 270 324 272
f 272 324 284
f 272 284 283
f 273 288 325
f 273 325 274
f 274 325 326
f 274 326 275
f 275 326 277
f 275 277 276
f 277 326 327
f 277 327 328
f 277 328 278
f 278 328 329
f 278 329 279
f 279 329 330
f 279 330 331
f 279 331 332
f 279 332 333
f 279 333 334
f 279 334 335
f 279 335 336
f 279 336 337
f 279 337 338
f 279 338 339
f 279 339 340
f 279 340 341
f 279 341 280
f 284 324 285
f 285 324 286
f 286 342 343
f 286 343 344
f 286 344 288
f 286 288 287
f 286 324 342
f 288 344 345
f 288 345 325
f 291 346 292
f 292 347 348
f 292 348 431
f 292 431 349
f 292 349 350
f 292 350 351
f 292 351 352
f 292 352 353
f 292 353 354
f 292 354 355
f 292 355 356
f 292 356 357
f 292 357 293
f 292 346 358
f 292 358 359
f 292 359 360
f 292 360 361
f 292 361 362
f 292 362 363
f 292 363 364
f 292 364 365
f 292 365 366
f 292 366 367
f 292 367 368
f 292 368 369
f 292 369 347
f 293 357 294
f 294 370 371
f 294 371 295
f 294 357 356
f 294 356 355
f 294 355 354
f 294 354 353
f 294 353 352
f 294 352 351
f 294 351 350
f 294 350 349
f 294 349 370
f 295 371 372
f 295 372 392
f 295 392 318
f 299 317 300
f 300 317 316
f 300 316 315
f 300 315 314
f 300 314 373
f 300 373 374
f 300 374 375
f 300 375 301
f 301 375 376
f 301 376 377
f 301 377 454
f 301 454 378
f 302 379 380
f 302 380 381
f 302 381 382
f 302 378 383
f 302 383 379
f 303 382 384
f 303 384 304
f 304 384 305
f 305 384 306
f 306 384 307
f 307 384 308
f 308 384 309
f 309 384 385
f 309 385 386
f 309 386 320
f 309 320 310
f 311 319 387
f 311 387 312
f 312 388 313
f 312 387 389
f 312 389 390
f 312 390 391
f 312 391 388
f 313 388 314
f 314 388 373
f 318 392 319
f 319 392 387
f 320 386 393
f 320 393 394
f 320 394 395
f 320 395 396
f 320 396 397
f 320 397 321
f 321 397 322
f 322 397 398
f 322 398 399
f 322 399 400
f 322 400 323
f 323 400 324
f 324 400 342
f 325 345 401
f 325 401 402
f 325 402 326
f 326 402 403
f 326 403 404
f 326 404 484
f 326 484 405
f 326 405 327
f 327 406 407
f 327 407 408
f 327 408 328
f 327 405 484
f 327 484 409
f 327 409 486
f 327 486 406
f 328 408 329
f 329 408 410
f 329 410 330
f 330 411 412
f 330 412 413
f 330 413 331
f 330 410 414
f 330 414 415
f 330 415 411
f 331 413 416
f 331 416 417
f 331 417 418
f 331 418 419
f 331 419 420
f 331 420 421
f 331 421 422
f 331 422 332
f 342 400 343
f 343 400 399
f 343 399 423
f 343 423 345
f 343 345 344
f 345 423 401
f 347 424 425
f 347 425 348
f 347 369 426
f 347 426 427
f 347 427 428
f 347 428 424
f 348 425 429
f 348 429 430
f 348 430 431
f 349 431 432
f 349 432 370
f 368 433 369
f 369 433 434
f 369 434 435
f 369 435 436
f 369 436 437
f 369 437 438
f 369 438 439
f 369 439 440
f 369 440 441
f 369 441 442
f 369 442 443
f 369 443 426
f 370 432 371
f 371 444 392
f 371 392 372
f 371 432 445
f 371 445 446
f 371 446 447
f 371 447 444
f 373 388 391
f 373 391 374
f 374 448 375
f 374 391 449
f 374 449 448
f 375 448 450
f 375 450 451
f 375 451 452
f 375 452 376
f 376 452 453
f 376 453 377
f 377 453 454
f 378 455 456
f 378 456 457
f 378 457 458
f 378 458 459
f 378 459 383
f 378 454 460
f 378 460 461
f 378 461 462
f 378 462 463
f 378 463 464
f 378 464 465
f 378 465 455
f 379 383 466
f 379 466 467
f 379 467 468
f 379 468 469
f 379 469 470
f 379 470 380
f 380 470 471
f 380 471 472
f 380 472 384
f 380 384 381
f 381 384 382
f 383 459 473
f 383 473 466
f 384 472 393
f 384 393 385
f 385 393 386
f 387 392 474
f 387 474 475
f 387 475 389
f 389 475 391
f 389 391 390
f 391 475 476
f 391 476 449
f 392 444 447
f 392 447 477
f 392 477 478
f 392 478 474
f 393 472 479
f 393 479 480
f 393 480 395
f 393 395 394
f 395 480 396
f 396 480 481
f 396 481 482
f 396 482 483
f 396 483 398
f 396 398 397
f 398 483 481
f 398 481 484
f 398 484 485
f 398 485 423
f 398 423 399
f 401 485 402
f 401 423 485
f 402 485 403
f 403 485 484
f 403 484 404
f 406 486 551
f 406 551 487
f 406 487 407
f 407 487 488
f 407 488 489
f 407 489 408
f 408 489 410
f 409 484 490
f 409 490 486
f 410 489 414
f 411 415 491
f 411 491 412
f 412 491 492
f 412 492 413
f 413 492 493
f 413 493 494
f 413 494 495
f 413 495 496
f 413 496 497
f 413 497 498
f 413 498 499
f 413 499 416
f 414 489 415
f 415 489 500
f 415 500 501
f 415 501 502
f 415 502 503
f 415 503 504
f 415 504 491
f 424 505 425
f 424 428 506
f 424 506 507
f 424 507 505
f 425 508 429
f 425 505 508
f 426 509 427
f 427 509 510
f 427 510 511
f 427 511 512
f 427 512 513
f 427 513 514
f 427 514 428
f 428 514 506
f 429 508 515
f 429 515 430
f 430 515 516
f 430 516 431
f 431 516 432
f 432 516 445
f 445 517 446
f 445 516 518
f 445 518 517
f 446 517 547
f 446 547 477
f 446 477 447
f 448 449 519
f 448 519 450
f 449 476 520
f 449 520 519
f 450 519 521
f 450 521 522
f 450 522 523
f 450 523 451
f 451 523 524
f 451 524 525
f 451 525 526
f 451 526 452
f 452 526 527
f 452 527 453
f 453 465 464
f 453 464 463
f 453 463 462
f 453 462 461
f 453 461 460
f 453 460 454
f 453 527 528
f 453 528 529
f 453 529 530
f 453 530 531
f 453 531 459
f 453 459 458
f 453 458 457
f 453 457 456
f 453 456 455
f 453 455 465
f 459 532 533
f 459 533 534
f 459 534 535
f 459 535 473
f 459 531 536
f 459 536 532
f 466 473 537
f 466 537 538
f 466 538 539
f 466 539 467
f 467 539 468
f 468 540 469
f 468 539 540
f 469 540 541
f 469 541 542
f 469 542 470
f 470 542 471
f 471 543 544
f 471 544 479
f 471 479 472
f 471 542 543
f 473 535 537
f 474 478 545
f 474 545 546
f 474 546 475
f 475 546 545
f 475 545 478
f 475 478 476
f 476 478 520
f 477 547 478
f 478 547 548
f 478 548 520
f 479 490 480
f 479 544 490
f 480 484 481
f 480 490 484
f 481 483 482
f 486 490 549
f 486 549 550
f 486 550 551
f 487 551 601
f 487 601 552
f 487 552 488
f 488 552 500
f 488 500 489
f 490 544 549
f 491 553 492
f 491 504 554
f 491 554 553
f 492 553 555
f 492 555 556
f 492 556 493
f 500 552 501
f 501 552 557
f 501 557 558
f 501 558 502
f 502 558 559
f 502 559 503
f 503 560 504
f 503 559 560
f 504 560 561
f 504 561 554
f 505 562 563
f 505 563 508
f 505 507 562
f 506 514 564
f 506 564 507
f 507 564 565
f 507 565 566
f 507 566 567
f 507 567 562
f 508 568 569
f 508 569 570
f 508 570 515
f 508 563 568
f 513 571 514
f 514 571 564
f 515 570 518
f 515 518 516
f 517 518 572
f 517 572 600
f 517 600 547
f 518 573 572
f 518 570 573
f 519 520 574
f 519 574 521
f 520 548 575
f 520 575 574
f 521 574 576
f 521 576 522
f 522 576 577
f 522 577 578
f 522 578 524
f 522 524 523
f 524 578 579
f 524 579 580
f 524 580 581
f 524 581 525
f 525 581 526
f 526 581 582
f 526 582 528
f 526 528 527
f 528 583 529
f 528 582 584
f 528 584 583
f 529 583 585
f 529 585 536
f 529 536 531
f 529 531 586
f 529 586 587
f 529 587 530
f 530 587 586
f 530 586 531
f 532 536 533
f 533 536 585
f 533 585 534
f 534 585 535
f 535 585 588
f 535 588 589
f 535 589 590
f 535 590 591
f 535 591 537
f 537 591 592
f 537 592 538
f 538 592 593
f 538 593 539
f 539 593 594
f 539 594 595
f 539 595 540
f 540 595 596
f 540 596 597
f 540 597 598
f 540 598 599
f 540 599 541
f 541 599 543
f 541 543 542
f 543 599 550
f 543 550 549
f 543 549 544
f 547 600 548
f 548 600 575
f 550 599 601
f 550 601 551
f 552 601 607
f 552 607 557
f 553 554 602
f 553 602 603
f 553 603 604
f 553 604 555
f 554 561 610
f 554 610 605
f 554 605 648
f 554 648 602
f 555 604 606
f 555 606 556
f 557 607 608
f 557 608 558
f 558 608 559
f 559 608 560
f 560 608 609
f 560 609 610
f 560 610 561
f 562 567 611
f 562 611 612
f 562 612 563
f 563 613 568
f 563 612 613
f 564 614 615
f 564 615 616
f 564 616 617
f 564 617 565
f 564 571 614
f 565 617 618
f 565 618 566
f 566 619 567
f 566 618 619
f 567 619 652
f 567 652 620
f 567 620 621
f 567 621 611
f 568 613 622
f 568 622 623
f 568 623 569
f 569 623 570
f 570 624 625
f 570 625 573
f 570 623 624
f 571 626 627
f 571 627 628
f 571 628 629
f 571 629 614
f 572 573 600
f 573 625 630
f 573 630 631
f 573 631 600
f 574 575 630
f 574 630 576
f 575 600 631
f 575 631 630
f 576 632 577
f 576 630 633
f 576 633 632
f 577 632 634
f 577 634 578
f 578 634 579
f 579 635 636
f 579 636 580
f 579 634 635
f 580 636 581
f 581 636 637
f 581 637 582
f 582 637 584
f 583 584 638
f 583 638 629
f 583 629 639
f 583 639 640
f 583 640 641
f 583 641 589
f 583 589 585
f 584 637 638
f 585 589 588
f 589 641 642
f 589 642 643
f 589 643 644
f 589 644 590
f 590 644 641
f 590 641 591
f 591 645 646
f 591 646 647
f 591 647 592
f 591 641 645
f 592 647 593
f 593 647 648
f 593 648 594
f 594 648 605
f 594 605 610
f 594 610 595
f 595 610 597
f 595 597 596
f 597 610 609
f 597 609 608
f 597 608 607
f 597 607 601
f 597 601 598
f 598 601 599
f 602 648 603
f 603 648 647
f 603 647 604
f 604 647 606
f 606 647 649
f 606 649 650
f 611 621 635
f 611 635 612
f 612 635 613
f 613 634 632
f 613 632 622
f 613 635 634
f 614 629 638
f 614 638 615
f 615 638 616
f 616 638 651
f 616 651 617
f 617 651 618
f 618 651 652
f 618 652 619
f 620 635 621
f 620 652 636
f 620 636 635
f 622 632 633
f 622 633 623
f 623 633 630
f 623 630 624
f 624 630 625
f 626 653 627
f 627 654 628
f 627 653 655
f 627 655 639
f 627 639 629
f 627 629 654
f 628 654 629
f 636 651 638
f 636 638 637
f 636 652 651
f 639 655 656
f 639 656 641
f 639 641 640
f 641 644 643
f 641 643 642
f 641 656 645
f 645 657 647
f 645 647 646
f 645 656 657
f 647 657 649
f 649 657 653
f 649 653 650
f 653 657 655
f 655 657 656

