# https://github.com/mikedh/trimesh
v -0.06484603 -0.00053584 0.03056835
v -0.02804085 -0.00053584 0.03056237
v -0.03887663 0.00053584 0.03056237
v -0.06593961 0.00053584 0.03056237
v -0.07038445 -0.00053584 0.03052047
v -0.07136043 -0.00162559 0.03049653
v -0.06701554 -0.00161957 0.03052047
v -0.04968888 -0.00161957 0.03052047
v -0.01718744 -0.00053584 0.03054441
v -0.02045640 0.00053584 0.03053843
v -0.04428570 -0.00161957 0.03051448
v -0.04968888 0.00161957 0.03051448
v -0.05509795 0.00161957 0.03052047
v -0.06919093 0.00161957 0.03052047
v -0.07038445 0.00161957 0.03051448
v -0.07352406 0.00161957 0.03049653
v -0.07352406 0.00053584 0.03049054
v -0.07352406 -0.00162559 0.03047258
v -0.07136043 -0.00270330 0.03044864
v -0.07038445 -0.00270330 0.03044864
v -0.05726746 -0.00270330 0.03044266
v -0.01718744 0.00055391 0.03052047
v -0.03021624 -0.00161957 0.03049054
v -0.01718744 -0.00161957 0.03046660
v -0.01718156 0.00737538 0.02957474
v -0.01721684 0.00320904 0.03032294
v -0.02262590 0.00270330 0.03037681
v -0.03671300 0.00161957 0.03049054
v -0.05943697 0.00270330 0.03044266
v -0.06375834 0.00270330 0.03044266
v -0.07352406 0.00270330 0.03042470
v -0.07444125 0.00161957 0.03040076
v -0.07440010 -0.00162559 0.03039477
v -0.07430602 0.00270330 0.03037681
v -0.07433542 -0.00270330 0.03037681
v -0.07352406 -0.00270330 0.03042470
v -0.07244225 -0.00349202 0.03037083
v -0.07038445 -0.00352814 0.03037083
v -0.03779481 -0.00396163 0.03028104
v -0.01718744 0.00320302 0.03032294
v -0.01718744 -0.00487076 0.03014337
v -0.01718156 0.00907323 0.02912581
v -0.01829277 0.00921170 0.02910187
v -0.01721684 0.00595449 0.02994585
v -0.01718744 0.00597256 0.02992789
v -0.01718744 0.00486474 0.03015535
v -0.01718744 0.00378101 0.03027506
v -0.01718744 -0.00595449 0.02995183
v -0.01718744 -0.00703822 0.02967051
v -0.01718744 -0.00919364 0.02907793
v -0.01718744 -0.01028339 0.02876069
v -0.01718744 -0.01129487 0.02836563
v -0.01718744 -0.01182470 0.02812022
v -0.01718744 -0.01349244 0.02732413
v -0.01718744 -0.01460627 0.02679141
v -0.01718744 -0.01560571 0.02625868
v -0.01718744 -0.01614757 0.02591750
v -0.01718744 -0.01678577 0.02549252
v -0.01718744 -0.01749020 0.02501965
v -0.01718744 -0.01879669 0.02409188
v -0.01718744 -0.01932049 0.02371478
v -0.01718156 -0.03074783 0.00026298
v -0.04752526 0.00351610 0.03035287
v -0.05185251 0.00353416 0.03035287
v -0.06375834 0.00353416 0.03035287
v -0.07352406 0.00335956 0.03034689
v -0.07413552 0.00331742 0.03032893
v -0.07498804 0.00161957 0.03027506
v -0.07497040 0.00053584 0.03027506
v -0.07494100 -0.00162559 0.03026309
v -0.07485281 0.00270330 0.03023914
v -0.07454120 0.00372081 0.03016732
v -0.07487045 -0.00270330 0.03023914
v -0.07420607 -0.00338967 0.03035287
v -0.07352406 -0.00347396 0.03035287
v -0.07352406 -0.00401582 0.03026309
v -0.07038445 -0.00487076 0.03014337
v -0.06484603 -0.00487076 0.03017929
v -0.03563119 -0.00487076 0.03017929
v -0.02480129 -0.00595449 0.02996979
v -0.01718156 0.01028339 0.02876069
v -0.02154409 0.01028339 0.02877266
v -0.04858943 0.00878423 0.02928144
v -0.04968888 0.00812195 0.02945502
v -0.05509795 0.00703220 0.02973036
v -0.04104025 0.00595449 0.02996979
v -0.02912854 0.00486474 0.03017929
v -0.03021624 0.00393755 0.03028104
v -0.03346168 -0.00703822 0.02971241
v -0.02587722 -0.00703822 0.02969445
v -0.01829277 -0.00920568 0.02907793
v -0.03671300 -0.00926589 0.02910187
v -0.05835515 -0.00879627 0.02928742
v -0.02045640 -0.01028339 0.02876667
v -0.02045640 -0.01130691 0.02836563
v -0.03346168 -0.01187286 0.02814417
v -0.04428570 -0.01412461 0.02710266
v -0.02696492 -0.01462433 0.02680338
v -0.05185251 -0.01413665 0.02710865
v -0.02587722 -0.01561173 0.02626467
v -0.02804085 -0.01615360 0.02591750
v -0.07038445 -0.01751428 0.02503162
v -0.07038445 -0.01806216 0.02466051
v -0.06809735 -0.01878465 0.02411582
v -0.01718744 -0.02010319 0.02309826
v -0.01718744 -0.02110865 0.02217647
v -0.01718744 -0.02221044 0.02105116
v -0.01718744 -0.02313161 0.02008149
v -0.01718744 -0.02373971 0.01940511
v -0.01718744 -0.02565429 0.01668762
v -0.01718744 -0.02626239 0.01574189
v -0.01718744 -0.02717754 0.01417963
v -0.01718744 -0.02842985 0.01149806
v -0.01718744 -0.02936306 0.00878656
v -0.01718744 -0.02958582 0.00811616
v -0.01718744 -0.03051904 0.00378255
v -0.01718744 -0.03062741 0.00291463
v -0.01718744 -0.03074181 0.00056227
v -0.01718744 -0.03074783 0.00027495
v -0.01718156 -0.03075385 -0.00053910
v -0.06375834 0.00486474 0.03017929
v -0.07352406 0.00703822 0.02970642
v -0.07460588 0.00703822 0.02955079
v -0.07564065 0.00161957 0.02973635
v -0.07562302 -0.00162559 0.02971839
v -0.07560538 0.00270330 0.02970642
v -0.07560538 -0.00270330 0.02970642
v -0.07517618 0.00769448 0.02926947
v -0.07524673 0.00703822 0.02932933
v -0.07552895 0.00378703 0.02962262
v -0.07553482 -0.00378703 0.02963459
v -0.07517030 -0.00767642 0.02926348
v -0.07458236 -0.00376295 0.03018527
v -0.07458236 -0.00806777 0.02933531
v -0.07420607 -0.00873607 0.02926947
v -0.07352406 -0.00703822 0.02968846
v -0.07244225 -0.00487076 0.03011943
v -0.07136043 -0.00703822 0.02971241
v -0.06593961 -0.00595449 0.02996979
v -0.07038445 -0.00715864 0.02969445
v -0.07038445 -0.00812195 0.02947298
v -0.01718156 0.01127079 0.02834169
v -0.01937458 0.01127681 0.02835965
v -0.06484603 0.01028339 0.02877266
v -0.05077070 0.00933212 0.02910187
v -0.02262590 0.01128885 0.02835965
v -0.04752526 0.01187888 0.02814417
v -0.04212795 0.01133702 0.02835965
v -0.06375834 0.00878423 0.02928144
v -0.06375834 0.00812195 0.02945502
v -0.05585052 0.00737538 0.02964656
v -0.06919093 0.00703220 0.02973036
v -0.06484603 0.00595449 0.02996979
v -0.05185251 -0.00812195 0.02945502
v -0.05943697 -0.00880229 0.02928742
v -0.03671300 -0.01028339 0.02877266
v -0.03671300 -0.01134304 0.02836563
v -0.03563119 -0.01187888 0.02814417
v -0.05293433 -0.01353458 0.02739596
v -0.07038445 -0.01354060 0.02739596
v -0.07038445 -0.01414267 0.02710865
v -0.05077070 -0.01467852 0.02680338
v -0.06593961 -0.01561173 0.02626467
v -0.06593961 -0.01615360 0.02591750
v -0.07136043 -0.01751428 0.02503162
v -0.07038445 -0.01877261 0.02411582
v -0.07352406 -0.01804410 0.02466051
v -0.06809735 -0.01932652 0.02367887
v -0.06484603 -0.01994665 0.02314614
v -0.06593961 -0.02048851 0.02264933
v -0.07136043 -0.02159633 0.02159586
v -0.07352406 -0.02268006 0.02050647
v -0.07352406 -0.02314365 0.01996177
v -0.07136043 -0.02368552 0.01931532
v -0.07038445 -0.02411299 0.01878260
v -0.06919093 -0.02504620 0.01751364
v -0.06809735 -0.02595533 0.01617884
v -0.06809735 -0.02628045 0.01563415
v -0.06809735 -0.02681629 0.01467644
v -0.06809735 -0.02711131 0.01414372
v -0.06809735 -0.02791808 0.01243780
v -0.06919093 -0.02816494 0.01190508
v -0.06919093 -0.02838770 0.01134243
v -0.06484603 -0.02877905 0.01025903
v -0.07413552 -0.02924867 0.00869078
v -0.07352406 -0.02970022 0.00703874
v -0.07136043 -0.02997717 0.00594337
v -0.06919093 -0.03018790 0.00484201
v -0.07244225 -0.03017586 0.00485997
v -0.07352406 -0.03036852 0.00354911
v -0.07352406 -0.03044077 0.00269914
v -0.07352406 -0.03050098 0.00162771
v -0.07352406 -0.03055516 0.00053234
v -0.07352406 -0.03056720 -0.00053910
v -0.01718156 -0.03063343 -0.00277174
v -0.07352406 -0.03053108 -0.00161651
v -0.07352406 0.00812195 0.02944904
v -0.07413552 0.00869994 0.02924552
v -0.07454708 0.00807981 0.02933531
v -0.07618744 0.00161957 0.02919764
v -0.07616980 -0.00162559 0.02917370
v -0.07615216 0.00270330 0.02916173
v -0.07615216 -0.00270330 0.02916173
v -0.07486457 0.00841697 0.02916173
v -0.07515854 0.01087342 0.02816811
v -0.07545251 0.00920568 0.02847936
v -0.07565829 0.00804368 0.02867689
v -0.07625799 0.00767040 0.02818008
v -0.07628739 0.00736936 0.02821599
v -0.07632267 0.00703822 0.02825191
v -0.07548191 0.00736936 0.02903004
v -0.07578764 0.00703822 0.02879062
v -0.07606985 0.00378703 0.02907793
v -0.07661076 -0.00378703 0.02855119
v -0.07598166 -0.00487076 0.02898216
v -0.07630503 -0.00703822 0.02823994
v -0.07625211 -0.00764030 0.02817409
v -0.07565829 -0.00801960 0.02867689
v -0.07547015 -0.00920568 0.02848535
v -0.07515854 -0.01086740 0.02817409
v -0.07492336 -0.00839891 0.02917370
v -0.07352406 -0.00877821 0.02928742
v -0.07352406 -0.00812195 0.02945502
v -0.07458236 -0.00913945 0.02900610
v -0.07460588 -0.01161397 0.02803642
v -0.07460588 -0.01245085 0.02770721
v -0.07352406 -0.01245085 0.02786284
v -0.07038445 -0.00879627 0.02928742
v -0.06919093 -0.00880229 0.02928742
v -0.01718156 0.01409451 0.02706675
v -0.03997020 0.01413665 0.02710266
v -0.06375834 0.00933212 0.02910187
v -0.06593961 0.01133702 0.02835965
v -0.07043737 0.01186684 0.02814417
v -0.07352406 0.00872403 0.02926348
v -0.05402790 0.01245085 0.02789277
v -0.07043737 0.01245687 0.02789277
v -0.06701554 0.01187888 0.02814417
v -0.06452267 0.00737538 0.02964656
v -0.05943697 -0.00934416 0.02910187
v -0.06593961 -0.01028339 0.02877266
v -0.06593961 -0.01134304 0.02836563
v -0.06701554 -0.01187888 0.02814417
v -0.05726746 -0.01245085 0.02789277
v -0.07244225 -0.01354060 0.02739596
v -0.07244225 -0.01413665 0.02710865
v -0.06701554 -0.01467852 0.02680338
v -0.06809735 -0.01559969 0.02625868
v -0.07244225 -0.01751428 0.02502564
v -0.07352406 -0.01875455 0.02411582
v -0.07352406 -0.01750224 0.02501965
v -0.07434130 -0.01744203 0.02497177
v -0.07460588 -0.01865220 0.02403202
v -0.07038445 -0.01931447 0.02366689
v -0.07038445 -0.01998277 0.02307431
v -0.06701554 -0.01994665 0.02313417
v -0.06701554 -0.02048249 0.02264933
v -0.07244225 -0.02158429 0.02159586
v -0.07038445 -0.02053066 0.02257751
v -0.07352406 -0.02213819 0.02103919
v -0.07460588 -0.02204788 0.02094342
v -0.07460588 -0.02258975 0.02039274
v -0.07460588 -0.02305936 0.01986002
v -0.07352406 -0.02368552 0.01924350
v -0.06919093 -0.02552786 0.01677142
v -0.06919093 -0.02626841 0.01561020
v -0.06919093 -0.02592523 0.01615490
v -0.06919093 -0.02681027 0.01466447
v -0.06919093 -0.02710529 0.01413175
v -0.06977887 -0.02816494 0.01189910
v -0.07352406 -0.02874894 0.01027698
v -0.07460588 -0.02861047 0.01027698
v -0.07454120 -0.02903794 0.00912175
v -0.07485281 -0.02918244 0.00843939
v -0.07460588 -0.02957980 0.00703874
v -0.07352406 -0.02997115 0.00594337
v -0.07352406 -0.03016983 0.00485997
v -0.07421783 -0.03035046 0.00344735
v -0.07435894 -0.03038658 0.00269914
v -0.07456472 -0.03044077 0.00053234
v -0.07458236 -0.03044679 -0.00053910
v -0.07452944 -0.03042872 -0.00161651
v -0.01718156 -0.03050098 -0.00378931
v -0.07244225 -0.03044679 -0.00269992
v -0.07244225 -0.03035648 -0.00344214
v -0.07434130 -0.03038056 -0.00269992
v -0.07415316 -0.03034444 -0.00335834
v -0.07352406 -0.03044077 -0.00269992
v -0.07352406 0.01180663 0.02812022
v -0.07352406 0.01245687 0.02786882
v -0.07460588 0.01245687 0.02773115
v -0.07666367 0.00270330 0.02861703
v -0.07669307 0.00161957 0.02865294
v -0.07668131 -0.00162559 0.02864098
v -0.07659900 0.00378703 0.02853323
v -0.07666367 -0.00270330 0.02861703
v -0.07612865 0.01137314 0.02695900
v -0.07599930 0.00920568 0.02791072
v -0.07524673 0.01319140 0.02717449
v -0.07539372 0.01245687 0.02732413
v -0.07613453 0.00839289 0.02806037
v -0.07650493 0.00920568 0.02736603
v -0.07659312 0.00806777 0.02765933
v -0.07674599 0.00736936 0.02763538
v -0.07682242 0.00703822 0.02761144
v -0.07651081 0.00487076 0.02843746
v -0.07711051 -0.00378703 0.02761144
v -0.07691649 -0.00595449 0.02761144
v -0.07680478 -0.00703822 0.02761144
v -0.07658136 -0.00804970 0.02767130
v -0.07614629 -0.00836278 0.02806037
v -0.07601106 -0.00920568 0.02791671
v -0.07589347 -0.01037972 0.02758750
v -0.07538196 -0.01245687 0.02731814
v -0.07524085 -0.01319140 0.02716252
v -0.07136043 -0.01028941 0.02873675
v -0.07038445 -0.01028941 0.02874872
v -0.07038445 -0.00933814 0.02910187
v -0.07486457 -0.01391389 0.02698295
v -0.07454120 -0.01354662 0.02725230
v -0.07413552 -0.01410655 0.02709069
v -0.07136043 -0.01245085 0.02788678
v -0.07136043 -0.01183674 0.02813219
v -0.07352406 -0.01354060 0.02738997
v -0.06919093 -0.00934416 0.02910187
v -0.01718156 0.01464842 0.02679141
v -0.04212795 0.01414267 0.02710266
v -0.06919093 0.01187286 0.02814417
v -0.05836103 0.01353458 0.02739596
v -0.07043737 0.01354060 0.02739596
v -0.07244225 0.01354060 0.02739596
v -0.06919093 -0.01186684 0.02814417
v -0.07038445 -0.01245085 0.02789277
v -0.07352406 -0.01412461 0.02710266
v -0.07038445 -0.01558163 0.02624671
v -0.07352406 -0.01929641 0.02364295
v -0.07466467 -0.01783338 0.02461861
v -0.07505859 -0.01727947 0.02487600
v -0.07521146 -0.01850168 0.02388836
v -0.07460588 -0.02147591 0.02148812
v -0.07244225 -0.02104844 0.02208070
v -0.07352406 -0.02157827 0.02158389
v -0.07529377 -0.02186124 0.02075787
v -0.07526437 -0.02289680 0.01966848
v -0.07469995 -0.02363735 0.01895618
v -0.07460588 -0.02827331 0.01092343
v -0.07352406 -0.02835760 0.01101921
v -0.06973771 -0.02708723 0.01409583
v -0.07517618 -0.02818300 0.01083963
v -0.07517618 -0.02927275 0.00770315
v -0.07460588 -0.02982665 0.00594337
v -0.07460588 -0.03002534 0.00485997
v -0.07459412 -0.03020596 0.00380050
v -0.07490573 -0.03025412 0.00269914
v -0.07501744 -0.03028423 0.00162771
v -0.07510563 -0.03030831 0.00053234
v -0.07511151 -0.03031433 0.00027495
v -0.07512914 -0.03031433 -0.00053910
v -0.07507035 -0.03030229 -0.00161651
v -0.07488809 -0.03025412 -0.00269992
v -0.01718156 -0.03027219 -0.00489665
v -0.07028450 -0.03015779 -0.00486672
v -0.07352406 -0.02997717 -0.00595013
v -0.06701554 -0.02999523 -0.00593217
v -0.07352406 -0.02976043 -0.00703952
v -0.07352406 -0.03035046 -0.00342418
v -0.07352406 -0.03027219 -0.00396888
v -0.07352406 -0.03013973 -0.00486672
v -0.07460588 -0.02983267 -0.00595013
v -0.07352406 0.01354060 0.02737201
v -0.07408261 0.01408849 0.02707872
v -0.07451180 0.01354662 0.02725829
v -0.07692237 0.00595449 0.02761144
v -0.07710463 0.00378703 0.02761144
v -0.07717518 0.00270330 0.02761144
v -0.07719870 0.00161957 0.02761144
v -0.07719870 0.00053584 0.02761144
v -0.07719282 -0.00162559 0.02761144
v -0.07717518 -0.00270330 0.02761144
v -0.07661664 0.01137314 0.02641431
v -0.07635206 0.01009073 0.02720442
v -0.07594051 0.01245687 0.02674352
v -0.07567593 0.01350448 0.02651008
v -0.07628151 0.01309507 0.02604918
v -0.07642850 0.01245687 0.02619883
v -0.07479990 0.01391389 0.02697098
v -0.07519382 0.01523845 0.02602524
v -0.07701056 0.00920568 0.02653402
v -0.07716342 0.00812195 0.02653402
v -0.07716342 -0.00812195 0.02653402
v -0.07701056 -0.00920568 0.02653402
v -0.07651081 -0.00920568 0.02737201
v -0.07642850 -0.01245687 0.02620481
v -0.07592287 -0.01245687 0.02674352
v -0.07628739 -0.01311915 0.02606116
v -0.07567005 -0.01351652 0.02652205
v -0.07535844 -0.01462433 0.02622875
v -0.07519382 -0.01524447 0.02603721
v -0.01718156 0.01558765 0.02626467
v -0.03346168 0.01466648 0.02680338
v -0.06484603 0.01414267 0.02710266
v -0.04104025 0.01467852 0.02680338
v -0.07043737 0.01413063 0.02710266
v -0.07352406 0.01409451 0.02708470
v -0.07531141 -0.01655698 0.02509148
v -0.07541136 -0.01786950 0.02412779
v -0.07644613 -0.01765275 0.02300249
v -0.07620508 -0.01837524 0.02270919
v -0.07624035 -0.01950714 0.02166769
v -0.07524085 -0.01962755 0.02285285
v -0.07526437 -0.02074741 0.02181134
v -0.07564065 -0.02213819 0.01996177
v -0.07626975 -0.02062699 0.02062618
v -0.07601694 -0.02134948 0.02026106
v -0.07549955 -0.02311957 0.01894421
v -0.07625799 -0.02169868 0.01953679
v -0.07603457 -0.02248739 0.01894421
v -0.07645789 -0.02738826 0.00919358
v -0.07603457 -0.02793013 0.00919358
v -0.07529965 -0.02830943 0.01027698
v -0.07526437 -0.02935102 0.00703874
v -0.07549955 -0.02851414 0.00919358
v -0.07567005 -0.02868272 0.00806229
v -0.07537608 -0.02946541 0.00594337
v -0.07555246 -0.02965205 0.00378853
v -0.07561714 -0.02971226 0.00269914
v -0.07565241 -0.02974236 0.00162771
v -0.07578764 -0.02966410 0.00043058
v -0.07623448 -0.02924265 -0.00000637
v -0.07579352 -0.02967012 -0.00043734
v -0.07565829 -0.02976043 -0.00161651
v -0.07561714 -0.02971226 -0.00269992
v -0.07546427 -0.02954970 -0.00486672
v -0.07537608 -0.02946541 -0.00595013
v -0.07526437 -0.02935704 -0.00703952
v -0.07518794 -0.02927877 -0.00770991
v -0.01718156 -0.02957980 -0.00819475
v -0.07460588 -0.02961593 -0.00703952
v -0.07415316 -0.02926071 -0.00870951
v -0.07352406 -0.02946541 -0.00812292
v -0.07352406 0.01678577 0.02548055
v -0.07352406 0.01752030 0.02503761
v -0.07437070 0.01745407 0.02498374
v -0.07509387 0.01729151 0.02488797
v -0.07722810 0.00703822 0.02653402
v -0.07724574 0.00487076 0.02653402
v -0.07724574 -0.00487076 0.02653402
v -0.07722810 -0.00703822 0.02653402
v -0.07692237 0.01245687 0.02544463
v -0.07641086 0.01442565 0.02511542
v -0.07531728 0.01656903 0.02509747
v -0.07656372 0.01348642 0.02545661
v -0.07712227 0.01137314 0.02544463
v -0.07721046 0.01028941 0.02544463
v -0.07721046 -0.01028941 0.02544463
v -0.07711051 -0.01136712 0.02544463
v -0.07692237 -0.01245687 0.02544463
v -0.07661076 -0.01136712 0.02641431
v -0.07657548 -0.01350448 0.02546858
v -0.07641086 -0.01442565 0.02512141
v -0.07596402 -0.01472066 0.02546858
v -0.03454349 0.01560571 0.02626467
v -0.01718156 0.01680985 0.02549252
v -0.06593961 0.01467852 0.02680338
v -0.06593961 0.01560571 0.02626467
v -0.07043737 0.01543713 0.02633051
v -0.07615216 -0.01717712 0.02372675
v -0.07671071 -0.01795981 0.02228421
v -0.07642262 -0.01895323 0.02190113
v -0.07662840 -0.01680383 0.02332571
v -0.07642262 -0.01993461 0.02103919
v -0.07644026 -0.02104242 0.01994980
v -0.07639322 -0.02194553 0.01894421
v -0.07682242 -0.02761705 0.00703874
v -0.07658136 -0.02767726 0.00807426
v -0.07680478 -0.02112069 0.01894421
v -0.07615216 -0.02808064 0.00839150
v -0.07580528 -0.02880313 0.00703874
v -0.07625799 -0.02818300 0.00767921
v -0.07591111 -0.02890548 0.00594337
v -0.07652845 -0.02845995 0.00485997
v -0.07661664 -0.02855628 0.00378853
v -0.07667543 -0.02862853 0.00269914
v -0.07618744 -0.02920050 0.00162771
v -0.07669307 -0.02865863 0.00162771
v -0.07661664 -0.02879711 0.00027495
v -0.07661664 -0.02880313 -0.00043734
v -0.07669895 -0.02867670 -0.00161651
v -0.07620508 -0.02921856 -0.00161651
v -0.07615216 -0.02917039 -0.00269992
v -0.07608161 -0.02909213 -0.00378931
v -0.07599930 -0.02900182 -0.00486672
v -0.07591111 -0.02891150 -0.00595013
v -0.07581116 -0.02880313 -0.00703952
v -0.07625799 -0.02818902 -0.00766801
v -0.07567005 -0.02867670 -0.00805708
v -0.07518794 -0.02819504 -0.01094216
v -0.07488221 -0.02917039 -0.00844016
v -0.01718156 -0.02847199 -0.01142102
v -0.07244225 -0.02927275 -0.00875141
v -0.06809735 -0.02877905 -0.01026579
v -0.07454708 -0.02935102 -0.00809299
v -0.07352406 -0.02927275 -0.00873944
v -0.07481753 -0.02806860 -0.01167241
v -0.07409437 -0.02816494 -0.01191783
v -0.07352406 -0.02874894 -0.01028374
v -0.07244225 0.01752632 0.02503761
v -0.07136043 0.01806216 0.02466051
v -0.07352406 0.01806216 0.02464854
v -0.07460588 0.01862811 0.02400808
v -0.07468231 0.01783940 0.02461263
v -0.07520558 0.01848964 0.02386442
v -0.07541136 0.01786950 0.02412779
v -0.07616392 0.01719518 0.02372675
v -0.07722810 0.01245687 0.02434327
v -0.07724574 0.01137314 0.02434327
v -0.07724574 -0.01136712 0.02434926
v -0.07723986 -0.00920568 0.02544463
v -0.07722810 -0.01245687 0.02435524
v -0.07654021 0.01570204 0.02418765
v -0.07703996 0.01570204 0.02327783
v -0.07711051 0.01354060 0.02434327
v -0.07721046 0.01462433 0.02327783
v -0.07711051 -0.01354060 0.02435524
v -0.07703408 -0.01570204 0.02327783
v -0.07652845 -0.01570204 0.02417568
v -0.07634030 -0.01645463 0.02394223
v -0.07043737 0.01752632 0.02503761
v -0.01718156 0.01750224 0.02504359
v -0.07686945 -0.01895323 0.02111102
v -0.07714579 -0.01678577 0.02220041
v -0.07692237 -0.02003696 0.02003360
v -0.07699292 -0.02653332 0.00812215
v -0.07719870 -0.02653332 0.00703874
v -0.07693413 -0.02761705 0.00594337
v -0.07642850 -0.02836362 0.00594337
v -0.07632267 -0.02826127 0.00703874
v -0.07712227 -0.02003696 0.01894421
v -0.07712227 -0.02761705 0.00378853
v -0.07718106 -0.02761705 0.00269914
v -0.07719870 -0.02761705 0.00162771
v -0.07721046 -0.02761705 0.00027495
v -0.07721046 -0.02761705 -0.00161651
v -0.07717518 -0.02761705 -0.00269992
v -0.07666367 -0.02862853 -0.00269992
v -0.07659900 -0.02855026 -0.00378931
v -0.07642850 -0.02836964 -0.00595013
v -0.07632267 -0.02826127 -0.00703952
v -0.07659312 -0.02766521 -0.00806905
v -0.07651081 -0.02738224 -0.00920034
v -0.07601106 -0.02792411 -0.00920034
v -0.07584055 -0.02772542 -0.01028374
v -0.07611689 -0.02695477 -0.01157664
v -0.07539960 -0.02735214 -0.01245055
v -0.07524673 -0.02717152 -0.01319277
v -0.07136043 -0.02837566 -0.01136715
v -0.07352406 -0.02816494 -0.01192381
v -0.07352406 -0.02792411 -0.01246851
v -0.01718156 -0.02743643 -0.01362374
v -0.07028450 -0.02876701 -0.01028374
v -0.07451180 -0.02785186 -0.01235478
v -0.07482929 -0.02698487 -0.01390506
v -0.07452356 -0.02726183 -0.01353994
v -0.07410025 -0.02708120 -0.01408463
v -0.07352406 -0.02739428 -0.01353994
v -0.07352406 -0.02836964 -0.01136715
v -0.01718156 0.01941081 0.02372675
v -0.07043737 0.01797787 0.02472037
v -0.06593961 0.01879067 0.02410385
v -0.07043737 0.01876057 0.02411582
v -0.07136043 0.01875455 0.02411582
v -0.07352406 0.01873649 0.02410385
v -0.07460588 0.02149398 0.02151206
v -0.07527613 0.02075945 0.02181134
v -0.07624035 0.01950714 0.02166769
v -0.07598166 0.01795379 0.02333768
v -0.07662840 0.01681587 0.02333768
v -0.07644026 0.01764071 0.02300249
v -0.07723986 0.01570204 0.02220041
v -0.07724574 0.01354060 0.02327783
v -0.07724574 -0.01354060 0.02327783
v -0.07723986 -0.01570204 0.02220041
v -0.07719870 -0.01462433 0.02327783
v -0.07688121 0.01895323 0.02111102
v -0.07713991 0.01678577 0.02220041
v -0.07717518 0.01786950 0.02111102
v -0.07717518 -0.01786950 0.02111102
v -0.07719282 -0.01895323 0.02003360
v -0.07723986 -0.02653332 0.00594337
v -0.07724574 -0.02653332 0.00027495
v -0.07724574 -0.02653332 -0.00486672
v -0.07722810 -0.02653332 -0.00703952
v -0.07716342 -0.02653332 -0.00812292
v -0.07710463 -0.02761705 -0.00378931
v -0.07702232 -0.02761705 -0.00486672
v -0.07693413 -0.02761705 -0.00595013
v -0.07682242 -0.02761705 -0.00703952
v -0.07681654 -0.02653332 -0.01028374
v -0.07654608 -0.02656944 -0.01127138
v -0.07642850 -0.02621422 -0.01245055
v -0.07594638 -0.02675609 -0.01245055
v -0.07628151 -0.02605166 -0.01310299
v -0.07567593 -0.02651526 -0.01350402
v -0.07521146 -0.02605166 -0.01526979
v -0.01718156 -0.02696079 -0.01458144
v -0.07460588 -0.02585900 -0.01601201
v -0.07352406 -0.02708723 -0.01409660
v -0.07352406 -0.02594329 -0.01615567
v -0.07028450 -0.02709927 -0.01412055
v -0.01718156 0.02006706 0.02314614
v -0.06484603 0.01994063 0.02314614
v -0.06484603 0.01933254 0.02367887
v -0.07043737 0.01930243 0.02365492
v -0.07043737 0.02037412 0.02272116
v -0.07352406 0.02105446 0.02208070
v -0.07352406 0.02159633 0.02159586
v -0.07460588 0.02204788 0.02096736
v -0.07529965 0.02186124 0.02076984
v -0.07565241 0.02106048 0.02106313
v -0.07627563 0.02063903 0.02062618
v -0.07642850 0.01993461 0.02103919
v -0.07669895 0.01795379 0.02228421
v -0.07719870 0.01895323 0.02003360
v -0.07724574 0.01678577 0.02111102
v -0.07724574 -0.01678577 0.02111102
v -0.07692237 0.02003094 0.02003360
v -0.07724574 -0.01786950 0.02003360
v -0.07724574 -0.02436586 -0.01136715
v -0.07722810 -0.02436586 -0.01245055
v -0.07721634 -0.02544959 -0.01028374
v -0.07701056 -0.02653332 -0.00920034
v -0.07712815 -0.02544959 -0.01136715
v -0.07692237 -0.02544959 -0.01245055
v -0.07656372 -0.02546765 -0.01348607
v -0.07636970 -0.02507630 -0.01461736
v -0.07591111 -0.02561817 -0.01461736
v -0.07563478 -0.02538336 -0.01558703
v -0.07533492 -0.02513049 -0.01659262
v -0.07512914 -0.02490170 -0.01731689
v -0.01718156 -0.02600952 -0.01625144
v -0.06809735 -0.02626841 -0.01563492
v -0.07469995 -0.02529907 -0.01688592
v -0.07440598 -0.02500406 -0.01745456
v -0.07244225 -0.02625035 -0.01562295
v -0.07027862 -0.02679823 -0.01466524
v -0.07352406 -0.02554592 -0.01678416
v -0.07028450 -0.02594931 -0.01617961
v -0.01718156 0.02109661 0.02217647
v -0.07136043 0.02160837 0.02160783
v -0.06809735 0.02047647 0.02264933
v -0.07244225 0.02160235 0.02160783
v -0.07352406 0.02213217 0.02106313
v -0.07352406 0.02267404 0.02049450
v -0.07460588 0.02258975 0.02038077
v -0.07526437 0.02289078 0.01966848
v -0.07564065 0.02214421 0.01997375
v -0.07626975 0.02170470 0.01954876
v -0.07601694 0.02136152 0.02026106
v -0.07644613 0.02104844 0.01996177
v -0.07724574 0.01786950 0.02003360
v -0.07709287 0.02653332 0.00811616
v -0.07721046 0.02653332 0.00703874
v -0.07723986 0.02653332 0.00593140
v -0.07652257 0.02740030 0.00918161
v -0.07724574 -0.02328213 -0.01353994
v -0.07711051 -0.02436586 -0.01353994
v -0.07723986 -0.02220442 -0.01569477
v -0.07721046 -0.02328213 -0.01461736
v -0.07705172 -0.02328213 -0.01569477
v -0.07683418 -0.02436586 -0.01461736
v -0.07648729 -0.02435382 -0.01559900
v -0.07606397 -0.02470302 -0.01589230
v -0.07635794 -0.02398053 -0.01647291
v -0.07574060 -0.02444413 -0.01689789
v -0.07469995 -0.02462475 -0.01783764
v -0.07615216 -0.02372766 -0.01719717
v -0.07520558 -0.02389022 -0.01849606
v -0.07460588 -0.02257771 -0.02037556
v -0.07460588 -0.02401666 -0.01863972
v -0.01718156 -0.02567236 -0.01672431
v -0.07352406 -0.02505222 -0.01752639
v -0.07352406 -0.02410697 -0.01874746
v -0.07352406 -0.02464883 -0.01807108
v -0.01718156 0.02218636 0.02109905
v -0.01718156 0.02273424 0.02055435
v -0.07352406 0.02315569 0.01996177
v -0.07460588 0.02305936 0.01986002
v -0.07519382 0.02820708 0.01086358
v -0.07635794 0.02723774 0.00998967
v -0.07724574 0.02653332 0.00484799
v -0.07683418 0.02761705 0.00703874
v -0.07694001 0.02761705 0.00593140
v -0.07703996 0.02761705 0.00484799
v -0.07712815 0.02761705 0.00378853
v -0.07717518 0.02761705 0.00268119
v -0.07719870 0.02761705 0.00162173
v -0.07721634 0.02761705 0.00028094
v -0.07531141 0.02832147 0.01026501
v -0.07601694 0.02794217 0.00918161
v -0.07615216 0.02807462 0.00837354
v -0.07625799 0.02818902 0.00767322
v -0.07659900 0.02767123 0.00807426
v -0.07724574 -0.02003696 -0.01786158
v -0.07713991 -0.02220442 -0.01678416
v -0.07719870 -0.01895323 -0.02003438
v -0.07719282 -0.02003696 -0.01894499
v -0.07686945 -0.02112069 -0.01894499
v -0.07669895 -0.02228871 -0.01795137
v -0.07662840 -0.02333632 -0.01680811
v -0.07642850 -0.02301120 -0.01764610
v -0.07599342 -0.02333632 -0.01795137
v -0.07524673 -0.02287272 -0.01964531
v -0.07352406 -0.02266802 -0.02048330
v -0.07352406 -0.02366144 -0.01929215
v -0.07529377 -0.02184920 -0.02078258
v -0.07460588 -0.02203584 -0.02098011
v -0.01718156 -0.02372164 -0.01931610
v -0.07028450 -0.02366746 -0.01931610
v -0.06809735 -0.02368552 -0.01930412
v -0.01718156 -0.02311355 -0.02009423
v -0.01718156 0.02310753 0.02009346
v -0.07026686 0.02368552 0.01931532
v -0.06919093 0.02464883 0.01804636
v -0.06919093 0.02504018 0.01750167
v -0.06919093 0.02593125 0.01615490
v -0.06919093 0.02626841 0.01561020
v -0.07460588 0.02830341 0.01102519
v -0.07460588 0.02862251 0.01026501
v -0.07483517 0.02917039 0.00843939
v -0.07518794 0.02927877 0.00769717
v -0.07724574 0.02653332 -0.00487271
v -0.07633443 0.02826729 0.00703874
v -0.07644026 0.02837566 0.00593140
v -0.07654021 0.02848403 0.00484799
v -0.07662840 0.02856832 0.00378853
v -0.07666367 0.02862251 0.00268119
v -0.07669307 0.02865863 0.00162173
v -0.07721634 0.02761705 -0.00053910
v -0.07669895 0.02866466 -0.00162250
v -0.07567005 0.02868272 0.00806229
v -0.07581116 0.02880313 0.00703874
v -0.07724574 -0.01786950 -0.02003438
v -0.07693413 -0.02003696 -0.02003438
v -0.07723986 -0.01570204 -0.02220118
v -0.07721046 -0.01461831 -0.02327860
v -0.07712815 -0.01678577 -0.02220118
v -0.07642850 -0.02104844 -0.01993860
v -0.07642262 -0.02191543 -0.01894499
v -0.07620508 -0.02271016 -0.01837036
v -0.07563478 -0.02212615 -0.01993860
v -0.07352406 -0.02212615 -0.02107588
v -0.07136043 -0.02268006 -0.02049527
v -0.07027862 -0.02268006 -0.02050724
v -0.07601694 -0.02136754 -0.02022592
v -0.07628151 -0.02064505 -0.02063893
v -0.07565829 -0.02107855 -0.02107588
v -0.07529965 -0.02078955 -0.02184803
v -0.07460588 -0.02153010 -0.02152480
v -0.07352406 -0.02162643 -0.02162057
v -0.06809735 -0.02314365 -0.01996255
v -0.01718156 -0.02273424 -0.02056710
v -0.01718156 0.02371562 0.01931532
v -0.01718156 0.02567236 0.01671156
v -0.01718156 0.02600952 0.01623870
v -0.06809735 0.02554592 0.01677142
v -0.06809735 0.02595533 0.01616687
v -0.06809735 0.02628045 0.01563415
v -0.06919093 0.02681027 0.01466447
v -0.06973771 0.02708723 0.01409583
v -0.07352406 0.02836964 0.01113892
v -0.07352406 0.02874894 0.01026501
v -0.07411788 0.02924867 0.00868480
v -0.07452944 0.02902590 0.00911577
v -0.07452944 0.02933295 0.00809821
v -0.07460588 0.02959786 0.00703874
v -0.07526437 0.02935704 0.00703874
v -0.07460588 0.02984472 0.00593140
v -0.07460588 0.03003738 0.00484799
v -0.07723398 0.02653332 -0.00703952
v -0.07724574 0.02436586 -0.01137313
v -0.07592875 0.02891752 0.00593140
v -0.07548191 0.02956776 0.00484799
v -0.07609925 0.02911019 0.00378853
v -0.07615216 0.02916437 0.00268119
v -0.07618744 0.02920050 0.00162173
v -0.07621684 0.02922458 0.00071789
v -0.07623448 0.02924265 0.00000560
v -0.07661664 0.02879711 0.00043657
v -0.07720458 0.02761705 -0.00162250
v -0.07661664 0.02879711 -0.00043734
v -0.07623448 0.02924265 -0.00000637
v -0.07619920 0.02920652 -0.00162250
v -0.07666955 0.02862251 -0.00270590
v -0.07717518 0.02761705 -0.00270590
v -0.07724574 -0.01353458 -0.02327860
v -0.07688709 -0.01895323 -0.02111179
v -0.07644613 -0.01994665 -0.02105194
v -0.07721634 -0.01247493 -0.02436200
v -0.07711051 -0.01353458 -0.02436200
v -0.07705759 -0.01570204 -0.02327860
v -0.07460588 -0.02037412 -0.02256631
v -0.07460588 -0.02098824 -0.02202161
v -0.07601694 -0.02024769 -0.02136319
v -0.07625211 -0.01952520 -0.02168043
v -0.07563478 -0.01995267 -0.02212935
v -0.07520558 -0.01850168 -0.02388914
v -0.07352406 -0.02108457 -0.02211738
v -0.07136043 -0.02108457 -0.02212935
v -0.01718156 -0.02054270 -0.02270996
v -0.01718156 -0.02106650 -0.02221315
v -0.01718156 -0.02217432 -0.02112376
v -0.01718156 0.02696079 0.01458067
v -0.06809735 0.02681629 0.01467644
v -0.06919093 0.02710529 0.01413175
v -0.07084892 0.02816494 0.01189910
v -0.07043737 0.02816494 0.01190508
v -0.06593961 0.02838770 0.01134842
v -0.06375834 0.02877303 0.01025903
v -0.01718156 0.02957378 0.00818200
v -0.07352406 0.02972430 0.00703874
v -0.07352406 0.02998319 0.00593140
v -0.07486457 0.03024810 0.00268119
v -0.07538196 0.02947143 0.00593140
v -0.07418256 0.03034444 0.00344137
v -0.07456472 0.03021198 0.00380050
v -0.07711639 0.02761705 -0.00378931
v -0.07716930 0.02653332 -0.00812292
v -0.07722222 0.02544959 -0.01028973
v -0.07723398 0.02436586 -0.01245653
v -0.07724574 0.02328213 -0.01353994
v -0.07555246 0.02965205 0.00378853
v -0.07560538 0.02970624 0.00268119
v -0.07564065 0.02974236 0.00162173
v -0.07514678 0.03032638 -0.00000039
v -0.07581704 0.02964603 0.00028094
v -0.07514678 0.03032638 -0.00000637
v -0.07565829 0.02974838 -0.00162250
v -0.07615804 0.02916437 -0.00270590
v -0.07561714 0.02971226 -0.00270590
v -0.07661076 0.02855026 -0.00378931
v -0.07692825 0.02761705 -0.00595611
v -0.07724574 0.01353458 -0.02328458
v -0.07723986 0.01145141 -0.02436799
v -0.07642850 -0.01895323 -0.02191387
v -0.07662840 -0.01681587 -0.02332649
v -0.07689885 -0.01247493 -0.02544541
v -0.07714579 0.01145141 -0.02536759
v -0.07712227 0.01145141 -0.02545139
v -0.07685182 -0.01461831 -0.02436200
v -0.07352406 -0.02048249 -0.02266208
v -0.07460588 -0.01864618 -0.02402082
v -0.07620508 -0.01836320 -0.02269799
v -0.07601694 -0.01895323 -0.02245856
v -0.07598166 -0.01794777 -0.02332649
v -0.07615216 -0.01718916 -0.02371555
v -0.07539960 -0.01786950 -0.02414053
v -0.07512914 -0.01732162 -0.02490071
v -0.07028450 -0.02049454 -0.02267405
v -0.01718156 -0.02007308 -0.02314692
v -0.01718156 0.02743643 0.01361099
v -0.06809735 0.02741234 0.01350924
v -0.06919093 0.02791808 0.01244379
v -0.01718156 0.02847199 0.01141426
v -0.01718156 0.03027219 0.00488989
v -0.06701554 0.02999523 0.00592541
v -0.07043737 0.02998921 0.00593140
v -0.01718156 0.03050098 0.00378853
v -0.07352406 0.03017586 0.00484799
v -0.07500568 0.03028423 0.00162173
v -0.07432366 0.03037454 0.00268119
v -0.07447065 0.03041066 0.00162173
v -0.07352406 0.03035648 0.00354911
v -0.07352406 0.03042270 0.00268119
v -0.07352406 0.03050098 0.00162173
v -0.07352406 0.03029627 0.00408782
v -0.07682242 0.02761705 -0.00703952
v -0.07702232 0.02653332 -0.00920632
v -0.07712815 0.02544959 -0.01137313
v -0.07711639 0.02436586 -0.01353994
v -0.07721046 0.02328213 -0.01461736
v -0.07723986 0.02219840 -0.01570076
v -0.07724574 0.02003696 -0.01786757
v -0.07509387 0.03030831 0.00071789
v -0.07485281 0.03038658 0.00028094
v -0.07468819 0.03041668 -0.00043734
v -0.07449417 0.03041668 -0.00162250
v -0.07503507 0.03029025 -0.00162250
v -0.07509975 0.03030831 -0.00072465
v -0.07554070 0.02964603 -0.00378931
v -0.07537020 0.02946541 -0.00595611
v -0.07591111 0.02889946 -0.00595611
v -0.07632855 0.02826127 -0.00703952
v -0.07724574 0.01786950 -0.02003438
v -0.07723986 0.01570204 -0.02220118
v -0.07722810 0.01245687 -0.02436799
v -0.07642262 -0.01764071 -0.02298530
v -0.07649317 -0.01561173 -0.02435602
v -0.07636970 -0.01646667 -0.02397892
v -0.07641086 -0.01247493 -0.02619960
v -0.07654608 -0.01348040 -0.02546935
v -0.07661076 0.01145141 -0.02639713
v -0.07654021 0.01145141 -0.02651085
v -0.07721046 0.01461831 -0.02328458
v -0.07711051 0.01353458 -0.02436799
v -0.07692825 0.01245687 -0.02545139
v -0.07028450 -0.01930845 -0.02367964
v -0.06919093 -0.01932049 -0.02367964
v -0.07352406 -0.01875455 -0.02410462
v -0.07244225 -0.01876057 -0.02411659
v -0.07469995 -0.01784542 -0.02462537
v -0.07440598 -0.01746611 -0.02499648
v -0.07352406 -0.01808023 -0.02465530
v -0.07533492 -0.01659913 -0.02512817
v -0.07520558 -0.01527457 -0.02604996
v -0.07483517 -0.01391991 -0.02698372
v -0.07460588 -0.01600910 -0.02584645
v -0.07469995 -0.01688812 -0.02528978
v -0.06592197 -0.01933254 -0.02369161
v -0.01718156 -0.01941081 -0.02373950
v -0.01718156 0.03063343 0.00276499
v -0.07352406 0.03055516 0.00053234
v -0.07468231 0.03041668 0.00043657
v -0.01718156 0.03075385 0.00053234
v -0.07659312 0.02767123 -0.00806905
v -0.07682242 0.02653332 -0.01028973
v -0.07692825 0.02544959 -0.01245653
v -0.07705759 0.02328213 -0.01570076
v -0.07713991 0.02219840 -0.01678416
v -0.07716930 0.02112069 -0.01786757
v -0.07719282 0.02003696 -0.01895097
v -0.07719870 0.01895323 -0.02003438
v -0.07468819 0.03041668 0.00028094
v -0.07450004 0.03044077 0.00028094
v -0.07352406 0.03056118 0.00028094
v -0.07352406 0.03055516 -0.00053910
v -0.07352406 0.03051302 -0.00162250
v -0.07436482 0.03038658 -0.00270590
v -0.07490573 0.03025412 -0.00270590
v -0.07527025 0.02935102 -0.00703952
v -0.07581116 0.02880313 -0.00703952
v -0.07626387 0.02818902 -0.00767400
v -0.07624035 -0.01518426 -0.02492465
v -0.07606397 -0.01590675 -0.02470917
v -0.07637558 -0.01461831 -0.02508028
v -0.07592875 -0.01247493 -0.02676225
v -0.07627563 -0.01308303 -0.02603799
v -0.07643437 0.01245687 -0.02621157
v -0.07629327 0.01145141 -0.02679816
v -0.07716930 0.01786950 -0.02111778
v -0.07713403 0.01678577 -0.02220118
v -0.07705759 0.01570204 -0.02328458
v -0.07685182 0.01461831 -0.02436799
v -0.07656372 0.01349244 -0.02546935
v -0.07352406 -0.01614757 -0.02593025
v -0.07352406 -0.01678577 -0.02554118
v -0.07352406 -0.01753836 -0.02505634
v -0.07136043 -0.01808023 -0.02466129
v -0.07563478 -0.01559367 -0.02538555
v -0.07536432 -0.01461831 -0.02624150
v -0.07524673 -0.01319742 -0.02717526
v -0.07452944 -0.01354662 -0.02726505
v -0.07411788 -0.01409451 -0.02707949
v -0.07451180 -0.01247493 -0.02779178
v -0.06592197 -0.01879067 -0.02411659
v -0.07244225 -0.01753836 -0.02505634
v -0.01718156 -0.01750224 -0.02505035
v -0.01718156 0.03074181 -0.00053910
v -0.07651669 0.02739428 -0.00920632
v -0.07655196 0.02656944 -0.01128335
v -0.07643437 0.02621422 -0.01245653
v -0.07656960 0.02547367 -0.01349804
v -0.07685182 0.02436586 -0.01461736
v -0.07663428 0.02333632 -0.01681409
v -0.07688121 0.02112069 -0.01895097
v -0.07694001 0.02003696 -0.02003438
v -0.01718156 0.03062741 -0.00292139
v -0.07352406 0.03044679 -0.00270590
v -0.07420607 0.03035046 -0.00343017
v -0.07458236 0.03019994 -0.00378931
v -0.07460588 0.03001932 -0.00487271
v -0.07460588 0.02983870 -0.00595611
v -0.07518794 0.02927275 -0.00771590
v -0.07567005 0.02868272 -0.00805708
v -0.07615216 0.02807462 -0.00839826
v -0.07539960 -0.01247493 -0.02734286
v -0.07628151 0.01309507 -0.02604996
v -0.07524673 0.01320946 -0.02717526
v -0.07594638 0.01245687 -0.02675627
v -0.07611689 0.01157183 -0.02694781
v -0.07594638 0.01145141 -0.02716928
v -0.07688709 0.01895323 -0.02111778
v -0.07662840 0.01681587 -0.02333247
v -0.07649905 0.01560571 -0.02435602
v -0.07637558 0.01461831 -0.02507430
v -0.07244225 -0.01615360 -0.02594222
v -0.07352406 -0.01560571 -0.02624749
v -0.07136043 -0.01616564 -0.02594222
v -0.07136043 -0.01678577 -0.02554716
v -0.07350642 -0.01247493 -0.02790551
v -0.07352406 -0.01353458 -0.02739074
v -0.07352406 -0.01411257 -0.02709146
v -0.07352406 -0.01465444 -0.02678619
v -0.07027862 -0.00376295 -0.03028780
v -0.07027862 -0.00487076 -0.03015612
v -0.07027862 -0.00702618 -0.02972515
v -0.07027862 -0.00812195 -0.02944382
v -0.07026686 -0.01678577 -0.02554716
v -0.01718156 -0.01680985 -0.02550526
v -0.07585231 0.02773746 -0.01028973
v -0.07634030 0.02719560 -0.01028973
v -0.07624623 0.02708723 -0.01086435
v -0.07611689 0.02694875 -0.01158263
v -0.07595226 0.02675609 -0.01245653
v -0.07524673 0.02717754 -0.01319876
v -0.07628739 0.02605166 -0.01310897
v -0.07637558 0.02508233 -0.01461736
v -0.07649317 0.02435382 -0.01560499
v -0.07643437 0.02300518 -0.01765208
v -0.07669895 0.02228871 -0.01795137
v -0.07636382 0.02398655 -0.01647291
v -0.07642262 0.02192747 -0.01895097
v -0.07643437 0.02104844 -0.01994459
v -0.07644026 0.01994665 -0.02104595
v -0.07628151 0.02064505 -0.02064491
v -0.01718156 0.03051904 -0.00378931
v -0.07352406 0.03036852 -0.00352594
v -0.07352406 0.03016983 -0.00487271
v -0.07352406 0.02998319 -0.00595611
v -0.07460588 0.02960991 -0.00703952
v -0.07491160 0.02917641 -0.00844016
v -0.07519970 0.02820106 -0.01096012
v -0.07548191 0.02850209 -0.00920632
v -0.07560538 0.01145141 -0.02752841
v -0.07460588 0.01145141 -0.02815691
v -0.07611101 0.01381756 -0.02584645
v -0.07567593 0.01351050 -0.02652282
v -0.07460588 0.01245687 -0.02776186
v -0.07460588 0.01168622 -0.02807311
v -0.07540548 0.01245687 -0.02734286
v -0.07537020 0.01461831 -0.02624150
v -0.07520558 0.01526855 -0.02604996
v -0.07487633 0.01392593 -0.02698971
v -0.07642850 0.01895323 -0.02191986
v -0.07642850 0.01764673 -0.02300326
v -0.07669307 0.01795379 -0.02228498
v -0.07636970 0.01647871 -0.02398491
v -0.07605809 0.01590073 -0.02470319
v -0.07624035 0.01517824 -0.02491867
v -0.07028450 -0.01467250 -0.02680415
v -0.07027862 -0.01562377 -0.02625946
v -0.06592197 -0.01561173 -0.02627143
v -0.03237986 -0.01560571 -0.02627143
v -0.06592197 -0.01467852 -0.02681612
v -0.07027862 -0.00874209 -0.02927024
v -0.07027862 -0.01028941 -0.02873752
v -0.07027862 -0.01133702 -0.02835444
v -0.06809735 -0.01133702 -0.02837239
v -0.04212207 -0.01133702 -0.02837239
v -0.04212207 -0.01187888 -0.02814494
v -0.05401614 -0.01245085 -0.02789953
v -0.05726746 -0.01353458 -0.02740870
v -0.07028450 -0.01352856 -0.02740870
v -0.07244225 -0.01353458 -0.02740272
v -0.07244225 -0.01411859 -0.02709745
v -0.06987294 0.00053584 -0.03043744
v -0.06987294 -0.00053584 -0.03043744
v -0.06996113 -0.00270330 -0.03038357
v -0.06995525 -0.00341977 -0.03034167
v -0.06919093 -0.00347998 -0.03035963
v -0.06592197 -0.00407603 -0.03029379
v -0.06377010 -0.00487076 -0.03017408
v -0.06377010 -0.00595449 -0.02996458
v -0.06268829 -0.00703822 -0.02973114
v -0.06377010 -0.00812195 -0.02946777
v -0.01718156 -0.01558765 -0.02627143
v -0.07541136 0.02735214 -0.01245653
v -0.07485281 0.02699089 -0.01392302
v -0.07521733 0.02605768 -0.01529374
v -0.07538196 0.02625035 -0.01461736
v -0.07568181 0.02652128 -0.01351600
v -0.07479402 0.02806258 -0.01168439
v -0.07611101 0.02585298 -0.01383324
v -0.07624035 0.02491977 -0.01518001
v -0.07606397 0.02470904 -0.01589829
v -0.07621096 0.02271016 -0.01837635
v -0.07615804 0.02372766 -0.01719717
v -0.07599342 0.02333632 -0.01795137
v -0.07534080 0.02514253 -0.01659262
v -0.07575236 0.02444413 -0.01689789
v -0.07602281 0.02136754 -0.02024387
v -0.07625211 0.01952520 -0.02168641
v -0.07529965 0.02186124 -0.02078857
v -0.07565829 0.02107253 -0.02107588
v -0.07529377 0.02078955 -0.02184204
v -0.07601694 0.02024769 -0.02136319
v -0.01718156 0.02957378 -0.00815285
v -0.07352406 0.02975441 -0.00703952
v -0.07028450 0.02998921 -0.00595611
v -0.07419431 0.02926673 -0.00873944
v -0.07457648 0.02935102 -0.00809299
v -0.07457648 0.02902590 -0.00914048
v -0.07460588 0.02862251 -0.01028973
v -0.07450593 0.02827331 -0.01134320
v -0.07352406 0.01145141 -0.02830057
v -0.07027862 0.00703822 -0.02970719
v -0.07027862 0.00596051 -0.02994063
v -0.07027862 0.00486474 -0.03015612
v -0.07027862 0.00385928 -0.03020400
v -0.07591111 0.01461831 -0.02561899
v -0.07455296 0.01355867 -0.02727103
v -0.07415316 0.01411257 -0.02709146
v -0.07352406 0.01245687 -0.02791150
v -0.07352406 0.01187888 -0.02814494
v -0.07562889 0.01558765 -0.02537956
v -0.07533492 0.01659913 -0.02511620
v -0.07514090 0.01732162 -0.02490670
v -0.07460588 0.01599706 -0.02584645
v -0.07599342 0.01795379 -0.02333247
v -0.07615804 0.01720120 -0.02372752
v -0.07028450 -0.01413063 -0.02710343
v -0.03995844 -0.01467852 -0.02681612
v -0.06919093 -0.01413665 -0.02710343
v -0.06377010 -0.00879025 -0.02927623
v -0.06484603 -0.00932008 -0.02910863
v -0.06592197 -0.01028941 -0.02877343
v -0.06377010 -0.01028941 -0.02877942
v -0.02480129 -0.01028941 -0.02877942
v -0.03454349 -0.01131896 -0.02837239
v -0.02804085 -0.01130089 -0.02837239
v -0.02587722 -0.01129487 -0.02837239
v -0.01718156 -0.01408247 -0.02707949
v -0.04104025 -0.01353458 -0.02738476
v -0.03887663 -0.01413665 -0.02710343
v -0.06983766 0.00269728 -0.03038357
v -0.06919093 0.00053584 -0.03055716
v -0.06919093 -0.00053584 -0.03055716
v -0.06919093 -0.00161957 -0.03050927
v -0.06919093 -0.00270330 -0.03043744
v -0.06809735 -0.00270330 -0.03045540
v -0.06701554 -0.00349804 -0.03036562
v -0.06484603 -0.00408205 -0.03029379
v -0.02804085 -0.00487076 -0.03017408
v -0.03779481 -0.00595449 -0.02996458
v -0.05510971 -0.00703822 -0.02973114
v -0.05510971 -0.00812195 -0.02946777
v -0.03671300 -0.01467250 -0.02681612
v -0.02587722 -0.01464842 -0.02681612
v -0.01718156 -0.01464842 -0.02680415
v -0.07450593 0.02785186 -0.01234879
v -0.07453532 0.02726183 -0.01355191
v -0.07412964 0.02708723 -0.01410259
v -0.07460588 0.02587706 -0.01604194
v -0.07513502 0.02490170 -0.01731689
v -0.07564065 0.02538938 -0.01559900
v -0.07407085 0.02815891 -0.01191783
v -0.07545251 0.02325805 -0.01889710
v -0.07525849 0.02287874 -0.01966326
v -0.07564065 0.02213217 -0.01995058
v -0.07540548 0.02414309 -0.01786757
v -0.07520558 0.02389624 -0.01849606
v -0.07525261 0.01965163 -0.02287756
v -0.07521733 0.01850770 -0.02390709
v -0.07460588 0.02204788 -0.02099208
v -0.07460588 0.02153010 -0.02153079
v -0.07460588 0.02258975 -0.02039950
v -0.07460588 0.02098824 -0.02202161
v -0.07352406 0.02947143 -0.00812292
v -0.01718156 0.02935704 -0.00878733
v -0.07028450 0.02878507 -0.01027776
v -0.07352406 0.02927877 -0.00878134
v -0.07352406 0.02877303 -0.01028973
v -0.06919093 0.01028339 -0.02877343
v -0.07027862 0.01028339 -0.02876146
v -0.07027862 0.00934416 -0.02909067
v -0.07027862 0.00879025 -0.02928221
v -0.07027862 0.00811593 -0.02946178
v -0.06377010 0.00594847 -0.02998253
v -0.06377010 0.00486474 -0.03018006
v -0.06592197 0.00408807 -0.03029379
v -0.06919093 0.00351008 -0.03036562
v -0.06981415 0.00344385 -0.03034167
v -0.07352406 0.01413063 -0.02710343
v -0.07352406 0.01353458 -0.02741469
v -0.07441774 0.01747213 -0.02500845
v -0.07352406 0.01678577 -0.02552921
v -0.07352406 0.01612951 -0.02592426
v -0.07352406 0.01559367 -0.02624150
v -0.07136043 0.01245687 -0.02791748
v -0.07136043 0.01190297 -0.02815691
v -0.07541136 0.01786950 -0.02415251
v -0.07460588 0.01865822 -0.02403279
v -0.07471171 0.01784542 -0.02463734
v -0.05077070 -0.00879025 -0.02927623
v -0.06377010 -0.00932610 -0.02910863
v -0.04860707 -0.00932610 -0.02910863
v -0.04212207 -0.00930804 -0.02910863
v -0.03346168 -0.00927793 -0.02910863
v -0.02480129 -0.00924181 -0.02910863
v -0.01718156 -0.01028941 -0.02876146
v -0.01718156 -0.01127079 -0.02835444
v -0.06919093 0.00269728 -0.03045540
v -0.06919093 0.00161957 -0.03050927
v -0.06809735 -0.00053584 -0.03058110
v -0.06809735 0.00161957 -0.03053321
v -0.06809735 -0.00161957 -0.03053321
v -0.04860707 -0.00270330 -0.03043744
v -0.04752526 -0.00352212 -0.03035963
v -0.05077070 -0.00353416 -0.03035963
v -0.04968888 -0.00407603 -0.03029379
v -0.03887663 -0.00401582 -0.03029379
v -0.02046228 -0.00487076 -0.03016809
v -0.01718156 -0.00595449 -0.02994063
v -0.04212207 -0.00703822 -0.02971917
v -0.02912854 -0.00703822 -0.02969522
v -0.02154409 -0.00812195 -0.02939594
v -0.04860707 -0.00878423 -0.02927623
v -0.07352406 0.02740030 -0.01353994
v -0.07352406 0.02709927 -0.01411456
v -0.07352406 0.02679823 -0.01465926
v -0.07352406 0.02595533 -0.01617961
v -0.07441185 0.02500406 -0.01746054
v -0.07470582 0.02530509 -0.01688592
v -0.07470582 0.02462475 -0.01783764
v -0.07460588 0.02401666 -0.01864570
v -0.07460588 0.02357714 -0.01919040
v -0.07460588 0.02303528 -0.01985480
v -0.07352406 0.02837566 -0.01137313
v -0.07028450 0.02838770 -0.01136116
v -0.01718156 0.02842383 -0.01150482
v -0.07352406 0.02792411 -0.01245653
v -0.07460588 0.02037412 -0.02256631
v -0.07460588 0.01920008 -0.02357190
v -0.07352406 0.02268006 -0.02050724
v -0.07352406 0.02214421 -0.02108785
v -0.07352406 0.02162643 -0.02162656
v -0.07352406 0.02108457 -0.02211738
v -0.06701554 0.01028339 -0.02878540
v -0.06809735 0.00933814 -0.02910863
v -0.06919093 0.00879627 -0.02928221
v -0.06377010 0.00811593 -0.02946777
v -0.06377010 0.00703220 -0.02973114
v -0.02912854 0.00594847 -0.02998253
v -0.03779481 0.00486474 -0.03018006
v -0.06051878 0.00408807 -0.03029379
v -0.06051878 0.00354620 -0.03036562
v -0.06809735 0.00269728 -0.03046139
v -0.07244225 0.01413665 -0.02710942
v -0.07244225 0.01614155 -0.02593025
v -0.07136043 0.01468454 -0.02679816
v -0.07136043 0.01414267 -0.02710942
v -0.07028450 0.01353458 -0.02741469
v -0.07352406 0.01876659 -0.02412258
v -0.07352406 0.01808023 -0.02466129
v -0.07352406 0.01753836 -0.02505634
v -0.06919093 0.01615962 -0.02594222
v -0.07028450 0.01245687 -0.02791748
v -0.07028450 0.01190899 -0.02815691
v -0.01718156 -0.00910333 -0.02912659
v -0.02912854 0.00053584 -0.03055716
v -0.02046228 0.00053584 -0.03055117
v -0.03671300 -0.00053584 -0.03055716
v -0.04644932 0.00161957 -0.03050927
v -0.01718156 -0.00055993 -0.03053321
v -0.03237986 -0.00161957 -0.03048533
v -0.01937458 -0.00161957 -0.03045540
v -0.03563119 -0.00270330 -0.03040752
v -0.02804085 -0.00391347 -0.03029379
v -0.03346168 -0.00397368 -0.03029379
v -0.03563119 -0.00399174 -0.03029379
v -0.01718156 -0.00489485 -0.03015612
v -0.02154409 -0.00703822 -0.02967727
v -0.01718156 0.02717754 -0.01418040
v -0.07028450 0.02710529 -0.01413252
v -0.07136043 0.02680425 -0.01467123
v -0.01718156 0.02625637 -0.01575463
v -0.01718156 0.02565429 -0.01668839
v -0.07352406 0.02555796 -0.01678416
v -0.07027862 0.02680425 -0.01467721
v -0.07352406 0.02505222 -0.01752639
v -0.07352406 0.02464883 -0.01807108
v -0.07352406 0.02410697 -0.01875344
v -0.07352406 0.02366746 -0.01929814
v -0.07352406 0.02312559 -0.01996255
v -0.07352406 0.02047647 -0.02265609
v -0.07352406 0.01994063 -0.02312297
v -0.07352406 0.01930845 -0.02366168
v -0.07244225 0.02268608 -0.02050724
v -0.07028450 0.02367950 -0.01931011
v -0.07028450 0.02268608 -0.02051323
v -0.01718156 0.02221044 -0.02106391
v -0.01718156 0.02110263 -0.02218921
v -0.06919093 0.02049454 -0.02267405
v -0.07028450 0.02049454 -0.02266806
v -0.07244225 0.02048249 -0.02266208
v -0.06592197 0.01134304 -0.02837838
v -0.03671300 0.01028339 -0.02878540
v -0.05943697 0.00933814 -0.02910863
v -0.05943697 0.00879627 -0.02928221
v -0.05726746 0.00811593 -0.02946777
v -0.04536751 0.00703220 -0.02973114
v -0.02804085 0.00703220 -0.02970719
v -0.01718156 0.00594847 -0.02996458
v -0.01721684 0.00486474 -0.03015612
v -0.02696492 0.00486474 -0.03016809
v -0.03995844 0.00397970 -0.03029379
v -0.05619153 0.00352814 -0.03036562
v -0.05077070 0.00269728 -0.03043744
v -0.02804085 0.00161957 -0.03048533
v -0.07028450 0.01469056 -0.02679816
v -0.07028450 0.01561173 -0.02625946
v -0.06701554 0.01561775 -0.02627143
v -0.07028450 0.01414267 -0.02710942
v -0.06592197 0.01467852 -0.02681612
v -0.05077070 0.01413665 -0.02710343
v -0.05294021 0.01353458 -0.02740272
v -0.07244225 0.01877261 -0.02412258
v -0.07244225 0.01994665 -0.02312896
v -0.07028450 0.01932049 -0.02367964
v -0.06701554 0.01932652 -0.02369161
v -0.07028450 0.01877863 -0.02412258
v -0.07244225 0.01807421 -0.02466727
v -0.07244225 0.01753836 -0.02505634
v -0.06809735 0.01615962 -0.02594222
v -0.03563119 0.01187888 -0.02814494
v -0.03563119 0.01133702 -0.02837838
v -0.01718156 0.00053584 -0.03053321
v -0.01718156 0.00159549 -0.03046139
v -0.01718156 -0.00378703 -0.03027583
v -0.01718156 0.02373368 -0.01938792
v -0.07028450 0.02411299 -0.01877140
v -0.07136043 0.02411299 -0.01876542
v -0.06809735 0.02368552 -0.01931610
v -0.06592197 0.02369154 -0.01931610
v -0.01718156 0.02313161 -0.02008226
v -0.01718156 0.02009717 -0.02311100
v -0.07028450 0.01995267 -0.02314093
v -0.02804085 0.01131896 -0.02837838
v -0.02046228 0.01130089 -0.02837838
v -0.03021624 0.01028339 -0.02877942
v -0.03887663 0.00927191 -0.02910863
v -0.03563119 0.00925385 -0.02910863
v -0.05836103 0.00879025 -0.02928221
v -0.05077070 0.00876617 -0.02927623
v -0.01937458 0.00919966 -0.02908469
v -0.01718156 0.00807379 -0.02938995
v -0.01718156 0.00703220 -0.02967727
v -0.01718156 0.00484668 -0.03015612
v -0.01721684 0.00262503 -0.03036562
v -0.03346168 0.00390745 -0.03028780
v -0.03887663 0.00396766 -0.03029379
v -0.04752526 0.00269728 -0.03043146
v -0.06592197 0.01561775 -0.02627143
v -0.05185251 0.01467852 -0.02681612
v -0.04536751 0.01412461 -0.02710343
v -0.04536751 0.01466648 -0.02681612
v -0.03995844 0.01465444 -0.02681612
v -0.04212207 0.01353458 -0.02737877
v -0.03346168 0.01187286 -0.02814494
v -0.01718156 0.01932049 -0.02371555
v -0.07028450 0.01807421 -0.02466727
v -0.01718156 0.01879067 -0.02409265
v -0.01718156 0.01748418 -0.02502043
v -0.02804085 0.01615360 -0.02593025
v -0.02696492 0.01561173 -0.02627143
v -0.01718156 0.01127079 -0.02837838
v -0.01718156 0.01028339 -0.02876146
v -0.01718156 0.01243881 -0.02783368
v -0.02154409 0.01560571 -0.02627143
v -0.03237986 0.01463637 -0.02681612
v -0.03021624 0.01463035 -0.02681612
v -0.01718156 0.01460627 -0.02680415
v -0.01718156 0.01677975 -0.02549329
v -0.01718156 0.01614155 -0.02591827
v -0.01718156 0.01559969 -0.02626544
f 1 2 3
f 1 3 4
f 1 4 5
f 1 5 6
f 1 6 7
f 1 7 8
f 1 8 2
f 2 9 10
f 2 10 3
f 2 8 11
f 2 11 9
f 3 10 12
f 3 12 13
f 3 13 14
f 3 14 4
f 4 14 15
f 4 15 16
f 4 16 5
f 5 16 17
f 5 17 18
f 5 18 6
f 6 18 36
f 6 36 19
f 6 19 7
f 7 19 20
f 7 20 8
f 8 20 21
f 8 21 11
f 9 22 10
f 9 11 23
f 9 23 24
f 9 24 25
f 9 25 22
f 10 22 26
f 10 26 27
f 10 27 28
f 10 28 12
f 11 21 23
f 12 28 27
f 12 27 29
f 12 29 13
f 13 29 30
f 13 30 14
f 14 30 31
f 14 31 15
f 15 31 16
f 16 32 33
f 16 33 17
f 16 31 34
f 16 34 32
f 17 33 18
f 18 33 35
f 18 35 36
f 19 36 37
f 19 37 38
f 19 38 20
f 20 38 21
f 21 38 39
f 21 39 24
f 21 24 23
f 22 40 26
f 22 25 40
f 24 39 41
f 24 41 25
f 25 42 43
f 25 43 44
f 25 44 45
f 25 45 46
f 25 46 47
f 25 47 40
f 25 41 48
f 25 48 49
f 25 49 50
f 25 50 51
f 25 51 52
f 25 52 53
f 25 53 54
f 25 54 55
f 25 55 56
f 25 56 57
f 25 57 58
f 25 58 59
f 25 59 60
f 25 60 61
f 25 61 62
f 25 62 120
f 25 120 195
f 25 195 283
f 25 283 361
f 25 361 437
f 25 437 499
f 25 499 559
f 25 559 605
f 25 605 640
f 25 640 680
f 25 680 717
f 25 717 720
f 25 720 761
f 25 761 811
f 25 811 810
f 25 810 809
f 25 809 859
f 25 859 919
f 25 919 966
f 25 966 1008
f 25 1008 1075
f 25 1075 1148
f 25 1148 1131
f 25 1131 1200
f 25 1200 1199
f 25 1199 1258
f 25 1258 1212
f 25 1212 1270
f 25 1270 1328
f 25 1328 1263
f 25 1263 1326
f 25 1326 1327
f 25 1327 1347
f 25 1347 1302
f 25 1302 1346
f 25 1346 1345
f 25 1345 1366
f 25 1366 1365
f 25 1365 1367
f 25 1367 1371
f 25 1371 1374
f 25 1374 1373
f 25 1373 1372
f 25 1372 1362
f 25 1362 1361
f 25 1361 1359
f 25 1359 1335
f 25 1335 1291
f 25 1291 1290
f 25 1290 1334
f 25 1334 1329
f 25 1329 1276
f 25 1276 1275
f 25 1275 1272
f 25 1272 1229
f 25 1229 1168
f 25 1168 1096
f 25 1096 1025
f 25 1025 976
f 25 976 967
f 25 967 923
f 25 923 920
f 25 920 867
f 25 867 864
f 25 864 819
f 25 819 863
f 25 863 860
f 25 860 812
f 25 812 764
f 25 764 763
f 25 763 762
f 25 762 721
f 25 721 685
f 25 685 684
f 25 684 648
f 25 648 610
f 25 610 567
f 25 567 529
f 25 529 463
f 25 463 399
f 25 399 326
f 25 326 230
f 25 230 142
f 25 142 81
f 25 81 42
f 26 40 47
f 26 47 27
f 27 47 63
f 27 63 29
f 29 63 64
f 29 64 65
f 29 65 30
f 30 65 31
f 31 65 66
f 31 66 67
f 31 67 34
f 32 34 68
f 32 68 69
f 32 69 33
f 33 70 35
f 33 69 70
f 34 71 68
f 34 67 72
f 34 72 71
f 35 73 74
f 35 74 36
f 35 70 73
f 36 74 37
f 37 75 76
f 37 76 77
f 37 77 78
f 37 78 38
f 37 74 75
f 38 78 79
f 38 79 39
f 39 79 41
f 41 79 80
f 41 80 48
f 42 81 43
f 43 81 82
f 43 82 83
f 43 83 44
f 44 83 84
f 44 84 85
f 44 85 86
f 44 86 87
f 44 87 46
f 44 46 45
f 46 87 47
f 47 87 88
f 47 88 63
f 48 80 89
f 48 89 90
f 48 90 49
f 49 90 91
f 49 91 50
f 50 91 51
f 51 91 92
f 51 92 93
f 51 93 94
f 51 94 52
f 52 94 95
f 52 95 96
f 52 96 53
f 53 96 97
f 53 97 54
f 54 97 55
f 55 97 98
f 55 98 56
f 56 98 97
f 56 97 99
f 56 99 100
f 56 100 57
f 57 100 101
f 57 101 102
f 57 102 58
f 58 102 59
f 59 102 103
f 59 103 60
f 60 103 61
f 61 103 104
f 61 104 105
f 61 105 62
f 62 105 106
f 62 106 107
f 62 107 108
f 62 108 109
f 62 109 110
f 62 110 111
f 62 111 112
f 62 112 113
f 62 113 114
f 62 114 115
f 62 115 116
f 62 116 117
f 62 117 118
f 62 118 119
f 62 119 120
f 63 88 87
f 63 87 64
f 64 87 121
f 64 121 65
f 65 121 66
f 66 121 122
f 66 122 67
f 67 122 123
f 67 123 72
f 68 124 125
f 68 125 69
f 68 71 126
f 68 126 124
f 69 125 70
f 70 125 127
f 70 127 73
f 71 72 128
f 71 128 129
f 71 129 130
f 71 130 126
f 72 123 128
f 73 127 131
f 73 131 132
f 73 132 133
f 73 133 74
f 74 133 134
f 74 134 135
f 74 135 136
f 74 136 76
f 74 76 75
f 76 136 137
f 76 137 77
f 77 137 136
f 77 136 138
f 77 138 139
f 77 139 78
f 78 139 80
f 78 80 79
f 80 139 140
f 80 140 141
f 80 141 89
f 81 142 143
f 81 143 82
f 82 144 232
f 82 232 145
f 82 145 83
f 82 143 146
f 82 146 147
f 82 147 148
f 82 148 233
f 82 233 144
f 83 149 150
f 83 150 84
f 83 145 232
f 83 232 149
f 84 150 239
f 84 239 151
f 84 151 85
f 85 152 153
f 85 153 86
f 85 151 239
f 85 239 152
f 86 153 121
f 86 121 87
f 89 141 154
f 89 154 93
f 89 93 90
f 90 93 91
f 91 93 92
f 93 155 94
f 93 154 155
f 94 155 156
f 94 156 157
f 94 157 95
f 95 157 158
f 95 158 96
f 96 158 159
f 96 159 97
f 97 159 99
f 99 159 160
f 99 160 161
f 99 161 162
f 99 162 100
f 100 163 164
f 100 164 101
f 100 162 247
f 100 247 163
f 101 164 165
f 101 165 102
f 102 165 103
f 103 166 104
f 103 165 167
f 103 167 250
f 103 250 166
f 104 166 168
f 104 168 105
f 105 168 169
f 105 169 170
f 105 170 106
f 106 170 171
f 106 171 172
f 106 172 107
f 107 172 108
f 108 172 109
f 109 172 173
f 109 173 174
f 109 174 175
f 109 175 176
f 109 176 110
f 110 176 177
f 110 177 111
f 111 177 178
f 111 178 112
f 112 178 179
f 112 179 180
f 112 180 181
f 112 181 113
f 113 181 182
f 113 182 183
f 113 183 184
f 113 184 114
f 114 184 115
f 115 184 185
f 115 185 186
f 115 186 187
f 115 187 116
f 116 187 188
f 116 188 189
f 116 189 190
f 116 190 117
f 117 190 191
f 117 191 192
f 117 192 193
f 117 193 118
f 118 193 119
f 119 193 194
f 119 194 120
f 120 194 196
f 120 196 195
f 121 153 122
f 122 153 152
f 122 152 197
f 122 197 198
f 122 198 199
f 122 199 123
f 123 199 128
f 124 126 200
f 124 200 125
f 125 201 203
f 125 203 127
f 125 200 201
f 126 202 200
f 126 130 202
f 127 203 131
f 128 199 204
f 128 204 205
f 128 205 206
f 128 206 207
f 128 207 208
f 128 208 209
f 128 209 210
f 128 210 211
f 128 211 129
f 129 211 212
f 129 212 130
f 130 213 202
f 130 212 210
f 130 210 213
f 131 203 214
f 131 214 215
f 131 215 132
f 132 215 216
f 132 216 217
f 132 217 218
f 132 218 219
f 132 219 220
f 132 220 221
f 132 221 134
f 132 134 133
f 134 221 135
f 135 222 223
f 135 223 136
f 135 221 224
f 135 224 220
f 135 220 225
f 135 225 226
f 135 226 227
f 135 227 222
f 136 223 138
f 138 223 140
f 138 140 139
f 140 223 141
f 141 223 222
f 141 222 228
f 141 228 229
f 141 229 155
f 141 155 154
f 142 230 143
f 143 230 231
f 143 231 147
f 143 147 146
f 144 233 234
f 144 234 235
f 144 235 232
f 147 231 236
f 147 236 237
f 147 237 238
f 147 238 233
f 147 233 148
f 149 235 197
f 149 197 150
f 149 232 235
f 150 197 239
f 152 239 197
f 155 229 325
f 155 325 240
f 155 240 156
f 156 240 325
f 156 325 241
f 156 241 242
f 156 242 157
f 157 242 243
f 157 243 158
f 158 243 333
f 158 333 244
f 158 244 159
f 159 244 160
f 160 244 333
f 160 333 245
f 160 245 161
f 161 245 246
f 161 246 163
f 161 163 247
f 161 247 162
f 163 246 248
f 163 248 249
f 163 249 165
f 163 165 164
f 165 249 167
f 166 250 168
f 167 249 251
f 167 251 252
f 167 252 253
f 167 253 250
f 168 254 255
f 168 255 256
f 168 256 169
f 168 250 254
f 169 256 257
f 169 257 170
f 170 257 171
f 171 258 172
f 171 257 259
f 171 259 258
f 172 258 260
f 172 260 261
f 172 261 262
f 172 262 263
f 172 263 173
f 173 263 264
f 173 264 175
f 173 175 174
f 175 264 176
f 176 265 177
f 176 264 265
f 177 266 178
f 177 265 267
f 177 267 266
f 178 266 268
f 178 268 179
f 179 268 269
f 179 269 180
f 180 269 270
f 180 270 182
f 180 182 181
f 182 270 183
f 183 270 271
f 183 271 184
f 184 271 185
f 185 271 272
f 185 272 273
f 185 273 274
f 185 274 275
f 185 275 276
f 185 276 186
f 186 276 187
f 187 276 189
f 187 189 188
f 189 276 277
f 189 277 190
f 190 278 191
f 190 277 278
f 191 278 279
f 191 279 192
f 192 279 193
f 193 279 280
f 193 280 194
f 194 280 281
f 194 281 282
f 194 282 196
f 195 196 284
f 195 284 285
f 195 285 283
f 196 282 286
f 196 286 287
f 196 287 288
f 196 288 284
f 197 235 198
f 198 204 199
f 198 235 289
f 198 289 290
f 198 290 291
f 198 291 204
f 200 202 292
f 200 292 293
f 200 293 294
f 200 294 201
f 201 294 203
f 202 213 295
f 202 295 292
f 203 296 214
f 203 294 296
f 204 291 205
f 205 297 298
f 205 298 206
f 205 291 299
f 205 299 300
f 205 300 297
f 206 298 301
f 206 301 207
f 207 301 208
f 208 301 302
f 208 302 303
f 208 303 210
f 208 210 209
f 210 212 211
f 210 303 304
f 210 304 305
f 210 305 306
f 210 306 213
f 213 306 295
f 214 296 307
f 214 307 308
f 214 308 309
f 214 309 216
f 214 216 215
f 216 309 310
f 216 310 217
f 217 310 311
f 217 311 218
f 218 311 219
f 219 311 312
f 219 312 220
f 220 224 221
f 220 312 313
f 220 313 314
f 220 314 315
f 220 315 226
f 220 226 225
f 222 227 316
f 222 316 317
f 222 317 318
f 222 318 228
f 226 315 319
f 226 319 320
f 226 320 321
f 226 321 227
f 227 322 323
f 227 323 316
f 227 321 324
f 227 324 322
f 228 318 325
f 228 325 229
f 230 326 231
f 231 326 327
f 231 327 236
f 233 238 328
f 233 328 234
f 234 328 237
f 234 237 290
f 234 290 289
f 234 289 235
f 236 327 329
f 236 329 330
f 236 330 237
f 237 328 238
f 237 330 331
f 237 331 290
f 241 325 318
f 241 318 317
f 241 317 242
f 242 332 243
f 242 317 332
f 243 332 333
f 245 324 246
f 245 333 324
f 246 324 334
f 246 334 335
f 246 335 248
f 248 335 249
f 249 335 251
f 250 253 336
f 250 336 254
f 251 335 334
f 251 334 321
f 251 321 252
f 252 337 253
f 252 321 338
f 252 338 337
f 253 337 338
f 253 338 339
f 253 339 340
f 253 340 336
f 254 336 255
f 255 336 341
f 255 341 258
f 255 258 259
f 255 259 257
f 255 257 256
f 258 342 260
f 258 341 342
f 260 342 261
f 261 342 340
f 261 340 343
f 261 343 262
f 262 344 263
f 262 343 344
f 263 344 345
f 263 345 264
f 264 345 346
f 264 346 347
f 264 347 348
f 264 348 266
f 264 266 267
f 264 267 265
f 266 348 268
f 268 348 269
f 269 348 271
f 269 271 270
f 271 348 347
f 271 347 346
f 271 346 272
f 272 346 349
f 272 349 274
f 272 274 273
f 274 350 275
f 274 349 350
f 275 350 351
f 275 351 276
f 276 351 278
f 276 278 277
f 278 351 352
f 278 352 353
f 278 353 354
f 278 354 279
f 279 354 355
f 279 355 280
f 280 355 356
f 280 356 357
f 280 357 281
f 281 357 358
f 281 358 359
f 281 359 282
f 282 359 360
f 282 360 286
f 283 285 362
f 283 362 363
f 283 363 364
f 283 364 365
f 283 365 361
f 284 288 285
f 285 288 366
f 285 366 367
f 285 367 368
f 285 368 362
f 286 360 287
f 287 366 288
f 287 360 369
f 287 369 363
f 287 363 368
f 287 368 367
f 287 367 366
f 290 331 370
f 290 370 371
f 290 371 291
f 291 371 372
f 291 372 299
f 292 295 305
f 292 305 373
f 292 373 374
f 292 374 375
f 292 375 293
f 293 375 376
f 293 376 377
f 293 377 378
f 293 378 294
f 294 378 379
f 294 379 296
f 295 306 305
f 296 379 307
f 297 380 381
f 297 381 298
f 297 300 382
f 297 382 385
f 297 385 380
f 298 381 302
f 298 302 301
f 299 383 384
f 299 384 385
f 299 385 382
f 299 382 300
f 299 372 386
f 299 386 387
f 299 387 383
f 302 381 380
f 302 380 303
f 303 380 388
f 303 388 304
f 304 388 305
f 305 388 389
f 305 389 373
f 307 379 448
f 307 448 390
f 307 390 308
f 308 390 309
f 309 390 391
f 309 391 310
f 310 391 392
f 310 392 311
f 311 392 312
f 312 392 393
f 312 393 313
f 313 393 394
f 313 394 314
f 314 394 315
f 315 394 393
f 315 393 395
f 315 395 396
f 315 396 397
f 315 397 398
f 315 398 319
f 316 323 317
f 317 323 332
f 319 398 338
f 319 338 321
f 319 321 320
f 321 334 324
f 322 333 332
f 322 332 323
f 322 324 333
f 326 399 400
f 326 400 327
f 327 401 331
f 327 331 330
f 327 330 329
f 327 400 402
f 327 402 464
f 327 464 401
f 331 401 403
f 331 403 404
f 331 404 371
f 331 371 370
f 336 340 342
f 336 342 341
f 338 398 405
f 338 405 406
f 338 406 339
f 339 406 407
f 339 407 408
f 339 408 409
f 339 409 410
f 339 410 340
f 340 410 411
f 340 411 343
f 343 412 344
f 343 411 413
f 343 413 414
f 343 414 412
f 344 415 349
f 344 349 345
f 344 412 416
f 344 416 417
f 344 417 415
f 345 349 346
f 349 418 419
f 349 419 420
f 349 420 350
f 349 415 417
f 349 417 418
f 350 421 352
f 350 352 351
f 350 420 422
f 350 422 423
f 350 423 421
f 352 421 354
f 352 354 353
f 354 421 424
f 354 424 425
f 354 425 355
f 355 425 426
f 355 426 356
f 356 426 427
f 356 427 357
f 357 427 428
f 357 428 358
f 358 428 429
f 358 429 430
f 358 430 431
f 358 431 359
f 359 431 432
f 359 432 433
f 359 433 434
f 359 434 360
f 360 434 435
f 360 435 436
f 360 436 369
f 361 365 437
f 362 368 363
f 363 369 438
f 363 438 365
f 363 365 364
f 365 438 439
f 365 439 440
f 365 440 437
f 369 436 438
f 371 386 372
f 371 404 441
f 371 441 442
f 371 442 443
f 371 443 444
f 371 444 386
f 373 389 374
f 374 389 375
f 375 389 445
f 375 445 376
f 376 445 446
f 376 446 447
f 376 447 377
f 377 447 378
f 378 447 448
f 378 448 379
f 380 385 449
f 380 449 388
f 383 450 384
f 383 387 451
f 383 451 450
f 384 450 452
f 384 452 385
f 385 452 449
f 386 444 387
f 387 444 451
f 388 449 453
f 388 453 389
f 389 453 454
f 389 454 445
f 390 448 455
f 390 455 456
f 390 456 391
f 391 456 457
f 391 457 458
f 391 458 392
f 392 458 393
f 393 457 459
f 393 459 395
f 393 458 457
f 395 459 460
f 395 460 461
f 395 461 397
f 395 397 396
f 397 461 398
f 398 461 405
f 399 462 402
f 399 402 400
f 399 463 462
f 401 464 403
f 402 462 465
f 402 465 464
f 403 464 465
f 403 465 466
f 403 466 404
f 404 466 441
f 405 467 406
f 405 461 467
f 406 467 407
f 407 468 469
f 407 469 408
f 407 467 470
f 407 470 468
f 408 469 409
f 409 471 413
f 409 413 410
f 409 469 471
f 410 413 411
f 412 414 416
f 413 472 414
f 413 471 472
f 414 472 416
f 416 473 417
f 416 472 473
f 417 473 418
f 418 474 475
f 418 475 419
f 418 473 476
f 418 476 474
f 419 477 422
f 419 422 420
f 419 475 477
f 421 423 478
f 421 478 424
f 422 477 423
f 423 477 479
f 423 479 478
f 424 478 480
f 424 480 481
f 424 481 482
f 424 482 425
f 425 482 483
f 425 483 426
f 426 483 484
f 426 484 427
f 427 484 429
f 427 429 428
f 429 484 483
f 429 483 485
f 429 485 486
f 429 486 487
f 429 487 488
f 429 488 489
f 429 489 430
f 430 489 431
f 431 489 432
f 432 489 490
f 432 490 491
f 432 491 433
f 433 491 434
f 434 491 492
f 434 492 493
f 434 493 494
f 434 494 435
f 435 494 436
f 436 494 495
f 436 495 496
f 436 496 497
f 436 497 498
f 436 498 438
f 437 440 500
f 437 500 501
f 437 501 499
f 438 498 502
f 438 502 439
f 439 503 440
f 439 502 498
f 439 498 504
f 439 504 505
f 439 505 506
f 439 506 503
f 440 503 500
f 441 466 442
f 442 466 465
f 442 465 507
f 442 507 508
f 442 508 509
f 442 509 443
f 443 509 510
f 443 510 511
f 443 511 444
f 444 511 510
f 444 510 512
f 444 512 513
f 444 513 514
f 444 514 451
f 445 454 515
f 445 515 516
f 445 516 446
f 446 516 580
f 446 580 624
f 446 624 660
f 446 660 690
f 446 690 731
f 446 731 780
f 446 780 830
f 446 830 882
f 446 882 893
f 446 893 842
f 446 842 795
f 446 795 742
f 446 742 703
f 446 703 665
f 446 665 628
f 446 628 591
f 446 591 590
f 446 590 627
f 446 627 625
f 446 625 581
f 446 581 517
f 446 517 447
f 447 517 518
f 447 518 448
f 448 518 519
f 448 519 455
f 449 452 520
f 449 520 521
f 449 521 522
f 449 522 453
f 450 451 514
f 450 514 520
f 450 520 452
f 453 522 523
f 453 523 515
f 453 515 454
f 455 519 456
f 456 519 524
f 456 524 457
f 457 524 525
f 457 525 459
f 459 525 470
f 459 470 526
f 459 526 460
f 460 526 527
f 460 527 467
f 460 467 461
f 462 463 528
f 462 528 507
f 462 507 465
f 463 529 528
f 467 527 470
f 468 530 471
f 468 471 469
f 468 470 525
f 468 525 531
f 468 531 530
f 470 527 526
f 471 530 532
f 471 532 472
f 472 532 473
f 473 532 476
f 474 476 533
f 474 533 534
f 474 534 535
f 474 535 482
f 474 482 481
f 474 481 536
f 474 536 537
f 474 537 475
f 475 537 479
f 475 479 477
f 476 532 538
f 476 538 534
f 476 534 533
f 478 479 537
f 478 537 536
f 478 536 480
f 480 536 481
f 482 535 483
f 483 535 539
f 483 539 540
f 483 540 485
f 485 540 541
f 485 541 542
f 485 542 488
f 485 488 486
f 486 488 487
f 488 542 543
f 488 543 544
f 488 544 545
f 488 545 489
f 489 545 490
f 490 545 546
f 490 546 491
f 491 546 492
f 492 546 547
f 492 547 493
f 493 547 494
f 494 547 548
f 494 548 495
f 495 548 549
f 495 549 550
f 495 550 551
f 495 551 496
f 496 551 497
f 497 551 552
f 497 552 553
f 497 553 554
f 497 554 555
f 497 555 504
f 497 504 498
f 499 556 557
f 499 557 558
f 499 558 559
f 499 501 556
f 500 503 560
f 500 560 501
f 501 560 556
f 503 506 560
f 504 561 505
f 504 555 562
f 504 562 561
f 505 561 563
f 505 563 564
f 505 564 565
f 505 565 558
f 505 558 557
f 505 557 566
f 505 566 506
f 506 566 560
f 507 528 567
f 507 567 568
f 507 568 508
f 508 568 567
f 508 567 569
f 508 569 570
f 508 570 571
f 508 571 509
f 509 571 572
f 509 572 510
f 510 572 573
f 510 573 512
f 512 573 574
f 512 574 575
f 512 575 576
f 512 576 513
f 513 576 514
f 514 577 520
f 514 576 578
f 514 578 577
f 515 523 579
f 515 579 580
f 515 580 516
f 517 581 519
f 517 519 518
f 519 581 582
f 519 582 583
f 519 583 524
f 520 577 521
f 521 577 584
f 521 584 585
f 521 585 523
f 521 523 522
f 523 585 586
f 523 586 579
f 524 583 531
f 524 531 525
f 528 529 567
f 530 531 532
f 531 583 582
f 531 582 587
f 531 587 532
f 532 587 588
f 532 588 538
f 534 589 540
f 534 540 539
f 534 539 535
f 534 538 588
f 534 588 589
f 540 589 541
f 541 589 542
f 542 589 590
f 542 590 591
f 542 591 543
f 543 591 592
f 543 592 544
f 544 592 593
f 544 593 594
f 544 594 545
f 545 594 595
f 545 595 596
f 545 596 546
f 546 596 597
f 546 597 547
f 547 597 548
f 548 597 549
f 549 597 598
f 549 598 550
f 550 598 599
f 550 599 553
f 550 553 552
f 550 552 551
f 553 599 600
f 553 600 601
f 553 601 554
f 554 601 555
f 555 601 600
f 555 600 602
f 555 602 603
f 555 603 604
f 555 604 562
f 556 566 557
f 556 560 566
f 558 565 559
f 559 565 605
f 561 562 563
f 562 564 563
f 562 604 606
f 562 606 564
f 564 607 565
f 564 606 608
f 564 608 607
f 565 607 609
f 565 609 605
f 567 610 611
f 567 611 612
f 567 612 569
f 569 612 570
f 570 612 571
f 571 612 613
f 571 613 572
f 572 613 614
f 572 614 615
f 572 615 573
f 573 616 617
f 573 617 618
f 573 618 574
f 573 615 616
f 574 618 619
f 574 619 575
f 575 619 620
f 575 620 621
f 575 621 578
f 575 578 576
f 577 578 622
f 577 622 584
f 578 621 584
f 578 584 622
f 579 586 623
f 579 623 624
f 579 624 580
f 581 625 582
f 582 625 588
f 582 588 587
f 584 621 626
f 584 626 585
f 585 626 586
f 586 626 623
f 588 625 627
f 588 627 589
f 589 627 590
f 591 628 592
f 592 628 629
f 592 629 630
f 592 630 593
f 593 631 597
f 593 597 596
f 593 596 595
f 593 595 594
f 593 630 632
f 593 632 631
f 597 631 598
f 598 631 632
f 598 632 633
f 598 633 599
f 599 633 600
f 600 633 634
f 600 634 602
f 602 604 603
f 602 634 635
f 602 635 636
f 602 636 604
f 604 636 637
f 604 637 638
f 604 638 639
f 604 639 606
f 605 609 641
f 605 641 640
f 606 639 642
f 606 642 643
f 606 643 608
f 607 608 644
f 607 644 645
f 607 645 609
f 608 643 646
f 608 646 647
f 608 647 644
f 609 645 641
f 610 648 649
f 610 649 650
f 610 650 611
f 611 650 614
f 611 614 612
f 612 614 613
f 614 650 651
f 614 651 615
f 615 651 616
f 616 651 652
f 616 652 617
f 617 652 653
f 617 653 654
f 617 654 618
f 618 654 655
f 618 655 656
f 618 656 657
f 618 657 658
f 618 658 620
f 618 620 619
f 620 658 657
f 620 657 659
f 620 659 621
f 621 659 626
f 623 660 624
f 623 626 661
f 623 661 662
f 623 662 663
f 623 663 660
f 626 659 657
f 626 657 664
f 626 664 661
f 628 665 629
f 629 666 632
f 629 632 630
f 629 665 667
f 629 667 668
f 629 668 666
f 632 666 633
f 633 666 669
f 633 669 670
f 633 670 634
f 634 670 671
f 634 671 635
f 635 672 636
f 635 671 672
f 636 672 637
f 637 672 638
f 638 672 673
f 638 673 674
f 638 674 639
f 639 675 643
f 639 643 642
f 639 674 676
f 639 676 677
f 639 677 678
f 639 678 679
f 639 679 675
f 640 641 647
f 640 647 646
f 640 646 681
f 640 681 680
f 641 644 647
f 641 645 644
f 643 675 679
f 643 679 682
f 643 682 683
f 643 683 681
f 643 681 646
f 648 684 649
f 649 651 650
f 649 684 685
f 649 685 652
f 649 652 651
f 652 685 653
f 653 685 686
f 653 686 654
f 654 686 687
f 654 687 655
f 655 687 688
f 655 688 657
f 655 657 656
f 657 688 689
f 657 689 664
f 660 663 690
f 661 664 691
f 661 691 662
f 662 691 692
f 662 692 693
f 662 693 694
f 662 694 695
f 662 695 663
f 663 695 696
f 663 696 697
f 663 697 690
f 664 689 688
f 664 688 698
f 664 698 699
f 664 699 700
f 664 700 701
f 664 701 702
f 664 702 691
f 665 703 667
f 666 668 669
f 667 704 668
f 667 703 705
f 667 705 706
f 667 706 704
f 668 704 669
f 669 704 707
f 669 707 708
f 669 708 709
f 669 709 670
f 670 709 671
f 671 709 673
f 671 673 672
f 673 709 710
f 673 710 676
f 673 676 674
f 676 711 677
f 676 710 711
f 677 711 712
f 677 712 678
f 678 713 714
f 678 714 679
f 678 712 715
f 678 715 716
f 678 716 713
f 679 714 682
f 680 681 683
f 680 683 717
f 682 714 718
f 682 718 683
f 683 718 719
f 683 719 720
f 683 720 717
f 685 721 722
f 685 722 686
f 686 722 723
f 686 723 724
f 686 724 725
f 686 725 726
f 686 726 727
f 686 727 687
f 687 727 688
f 688 727 728
f 688 728 729
f 688 729 730
f 688 730 698
f 690 697 738
f 690 738 731
f 691 702 732
f 691 732 733
f 691 733 734
f 691 734 735
f 691 735 692
f 692 735 693
f 693 735 694
f 694 735 736
f 694 736 737
f 694 737 695
f 695 737 696
f 696 737 697
f 697 737 739
f 697 739 738
f 698 740 700
f 698 700 699
f 698 730 740
f 700 740 701
f 701 732 702
f 701 740 730
f 701 730 741
f 701 741 732
f 703 742 705
f 704 706 743
f 704 743 707
f 705 743 706
f 705 742 744
f 705 744 745
f 705 745 746
f 705 746 743
f 707 743 747
f 707 747 708
f 708 710 709
f 708 747 748
f 708 748 710
f 710 748 749
f 710 749 711
f 711 749 750
f 711 750 712
f 712 750 715
f 713 716 751
f 713 751 752
f 713 752 714
f 714 752 753
f 714 753 718
f 715 750 754
f 715 754 755
f 715 755 756
f 715 756 757
f 715 757 758
f 715 758 716
f 716 758 759
f 716 759 751
f 718 753 760
f 718 760 719
f 719 760 761
f 719 761 720
f 721 762 722
f 722 762 723
f 723 762 763
f 723 763 724
f 724 763 764
f 724 764 765
f 724 765 766
f 724 766 725
f 725 766 726
f 726 766 767
f 726 767 768
f 726 768 769
f 726 769 770
f 726 770 727
f 727 770 771
f 727 771 728
f 728 771 772
f 728 772 773
f 728 773 729
f 729 773 772
f 729 772 774
f 729 774 775
f 729 775 730
f 730 776 741
f 730 775 777
f 730 777 778
f 730 778 776
f 731 738 779
f 731 779 780
f 732 741 781
f 732 781 733
f 733 781 734
f 734 781 782
f 734 782 783
f 734 783 735
f 735 783 784
f 735 784 736
f 736 784 785
f 736 785 737
f 737 785 786
f 737 786 787
f 737 787 788
f 737 788 739
f 738 789 779
f 738 739 789
f 739 788 790
f 739 790 791
f 739 791 792
f 739 792 793
f 739 793 794
f 739 794 789
f 741 776 823
f 741 823 781
f 742 795 744
f 743 796 797
f 743 797 755
f 743 755 747
f 743 746 796
f 744 795 798
f 744 798 745
f 745 799 800
f 745 800 746
f 745 798 799
f 746 800 796
f 747 755 754
f 747 754 748
f 748 754 749
f 749 754 750
f 751 759 753
f 751 753 752
f 753 761 760
f 753 759 761
f 755 757 756
f 755 797 757
f 757 801 802
f 757 802 758
f 757 797 803
f 757 803 804
f 757 804 805
f 757 805 806
f 757 806 801
f 758 802 807
f 758 807 759
f 759 807 808
f 759 808 809
f 759 809 810
f 759 810 811
f 759 811 761
f 764 767 766
f 764 766 765
f 764 812 767
f 767 813 768
f 767 812 813
f 768 813 814
f 768 814 769
f 769 814 815
f 769 815 770
f 770 815 771
f 771 815 816
f 771 816 817
f 771 817 818
f 771 818 819
f 771 819 772
f 772 819 820
f 772 820 775
f 772 775 774
f 775 820 821
f 775 821 777
f 776 778 822
f 776 822 823
f 777 821 824
f 777 824 778
f 778 824 825
f 778 825 822
f 779 789 794
f 779 794 826
f 779 826 827
f 779 827 828
f 779 828 829
f 779 829 780
f 780 829 830
f 781 823 782
f 782 823 822
f 782 822 831
f 782 831 783
f 783 831 832
f 783 832 784
f 784 832 833
f 784 833 785
f 785 833 786
f 786 833 834
f 786 834 835
f 786 835 787
f 787 791 790
f 787 790 788
f 787 835 834
f 787 834 836
f 787 836 791
f 791 836 837
f 791 837 792
f 792 838 793
f 792 837 839
f 792 839 838
f 793 838 840
f 793 840 841
f 793 841 826
f 793 826 794
f 795 842 843
f 795 843 798
f 796 844 797
f 796 800 845
f 796 845 844
f 797 844 804
f 797 804 803
f 798 846 799
f 798 843 847
f 798 847 848
f 798 848 846
f 799 849 800
f 799 846 849
f 800 849 845
f 801 850 802
f 801 806 851
f 801 851 850
f 802 850 807
f 804 844 852
f 804 852 853
f 804 853 806
f 804 806 805
f 806 853 852
f 806 852 854
f 806 854 855
f 806 855 856
f 806 856 857
f 806 857 851
f 807 850 858
f 807 858 808
f 808 858 859
f 808 859 809
f 812 860 861
f 812 861 814
f 812 814 813
f 814 861 862
f 814 862 815
f 815 862 816
f 816 862 863
f 816 863 817
f 817 863 818
f 818 863 819
f 819 864 865
f 819 865 866
f 819 866 821
f 819 821 820
f 821 866 867
f 821 867 868
f 821 868 824
f 822 869 831
f 822 825 824
f 822 824 870
f 822 870 871
f 822 871 869
f 824 872 873
f 824 873 874
f 824 874 870
f 824 868 875
f 824 875 872
f 826 841 827
f 827 841 876
f 827 876 877
f 827 877 878
f 827 878 828
f 828 878 829
f 829 878 879
f 829 879 880
f 829 880 881
f 829 881 830
f 830 881 882
f 831 869 883
f 831 883 832
f 832 883 834
f 832 834 833
f 834 883 884
f 834 884 836
f 836 884 885
f 836 885 886
f 836 886 887
f 836 887 888
f 836 888 839
f 836 839 837
f 838 839 889
f 838 889 840
f 839 888 887
f 839 887 889
f 840 889 890
f 840 890 891
f 840 891 892
f 840 892 876
f 840 876 841
f 842 893 894
f 842 894 895
f 842 895 843
f 843 895 847
f 844 845 896
f 844 896 852
f 845 849 897
f 845 897 898
f 845 898 896
f 846 899 900
f 846 900 849
f 846 848 901
f 846 901 902
f 846 902 899
f 847 895 903
f 847 903 904
f 847 904 848
f 848 904 905
f 848 905 901
f 849 900 897
f 850 906 907
f 850 907 858
f 850 851 908
f 850 908 909
f 850 909 906
f 851 857 910
f 851 910 911
f 851 911 912
f 851 912 908
f 852 896 855
f 852 855 854
f 855 898 857
f 855 857 856
f 855 896 898
f 857 911 910
f 857 898 913
f 857 913 914
f 857 914 915
f 857 915 916
f 857 916 917
f 857 917 911
f 858 907 918
f 858 918 919
f 858 919 859
f 860 863 862
f 860 862 861
f 864 867 865
f 865 867 866
f 867 920 875
f 867 875 868
f 869 871 883
f 870 874 921
f 870 921 871
f 871 922 884
f 871 884 883
f 871 921 922
f 872 920 873
f 872 875 920
f 873 920 874
f 874 920 923
f 874 923 921
f 876 892 924
f 876 924 925
f 876 925 877
f 877 925 926
f 877 926 878
f 878 926 879
f 879 926 927
f 879 927 880
f 880 927 928
f 880 928 929
f 880 929 881
f 881 929 930
f 881 930 931
f 881 931 882
f 882 931 893
f 884 922 932
f 884 932 885
f 885 932 933
f 885 933 934
f 885 934 935
f 885 935 886
f 886 935 936
f 886 936 937
f 886 937 887
f 887 938 889
f 887 937 938
f 889 938 890
f 890 938 939
f 890 939 940
f 890 940 891
f 891 940 892
f 892 941 924
f 892 940 941
f 893 931 894
f 894 931 949
f 894 949 903
f 894 903 895
f 897 942 943
f 897 943 898
f 897 900 944
f 897 944 942
f 898 943 913
f 899 945 946
f 899 946 944
f 899 944 900
f 899 902 945
f 901 905 902
f 902 905 947
f 902 947 948
f 902 948 945
f 903 949 950
f 903 950 951
f 903 951 904
f 904 951 905
f 905 951 952
f 905 952 953
f 905 953 947
f 906 909 907
f 907 909 918
f 908 912 909
f 909 912 918
f 911 917 916
f 911 916 954
f 911 954 955
f 911 955 956
f 911 956 912
f 912 956 957
f 912 957 918
f 913 943 958
f 913 958 914
f 914 958 959
f 914 959 960
f 914 960 915
f 915 961 962
f 915 962 916
f 915 960 963
f 915 963 961
f 916 962 954
f 918 957 964
f 918 964 919
f 919 965 966
f 919 964 957
f 919 957 956
f 919 956 965
f 921 923 934
f 921 934 922
f 922 934 933
f 922 933 932
f 923 967 935
f 923 935 934
f 924 968 925
f 924 941 968
f 925 968 969
f 925 969 926
f 926 969 970
f 926 970 971
f 926 971 972
f 926 972 927
f 927 972 973
f 927 973 974
f 927 974 928
f 928 974 975
f 928 975 929
f 929 975 930
f 930 975 931
f 931 975 949
f 935 967 936
f 936 967 976
f 936 976 977
f 936 977 937
f 937 977 978
f 937 978 938
f 938 979 980
f 938 980 981
f 938 981 939
f 938 978 979
f 939 982 940
f 939 981 982
f 940 982 941
f 941 982 983
f 941 983 984
f 941 984 968
f 942 958 943
f 942 944 960
f 942 960 958
f 944 946 960
f 945 985 960
f 945 960 946
f 945 948 985
f 947 953 986
f 947 986 987
f 947 987 988
f 947 988 989
f 947 989 948
f 948 989 990
f 948 990 985
f 949 975 950
f 950 975 991
f 950 991 951
f 951 991 992
f 951 992 952
f 952 992 993
f 952 993 953
f 953 993 994
f 953 994 986
f 954 995 955
f 954 962 996
f 954 996 995
f 955 995 997
f 955 997 998
f 955 998 956
f 956 998 1007
f 956 1007 965
f 958 960 959
f 960 985 963
f 961 963 962
f 962 963 999
f 962 999 1000
f 962 1000 1001
f 962 1001 1002
f 962 1002 996
f 963 985 1003
f 963 1003 1004
f 963 1004 1005
f 963 1005 1006
f 963 1006 999
f 965 1007 1008
f 965 1008 966
f 968 984 1009
f 968 1009 1010
f 968 1010 969
f 969 1010 1011
f 969 1011 1012
f 969 1012 970
f 970 1012 1013
f 970 1013 1014
f 970 1014 1015
f 970 1015 971
f 971 1016 1017
f 971 1017 972
f 971 1015 1016
f 972 1017 973
f 973 1018 1019
f 973 1019 974
f 973 1017 1020
f 973 1020 1018
f 974 1021 1022
f 974 1022 975
f 974 1019 1021
f 975 1023 991
f 975 1022 1024
f 975 1024 1023
f 976 1025 1026
f 976 1026 977
f 977 1026 978
f 978 1026 1027
f 978 1027 1028
f 978 1028 981
f 978 981 980
f 978 980 979
f 981 1028 1097
f 981 1097 1029
f 981 1029 982
f 982 1030 1031
f 982 1031 1032
f 982 1032 983
f 982 1029 1030
f 983 1032 984
f 984 1032 1031
f 984 1031 1009
f 985 990 1033
f 985 1033 1034
f 985 1034 1003
f 986 994 1035
f 986 1035 1036
f 986 1036 987
f 987 1037 1038
f 987 1038 1034
f 987 1034 1039
f 987 1039 988
f 987 1036 1040
f 987 1040 1041
f 987 1041 1042
f 987 1042 1037
f 988 1039 989
f 989 1039 1033
f 989 1033 990
f 991 1023 1043
f 991 1043 1044
f 991 1044 1045
f 991 1045 992
f 992 1045 1044
f 992 1044 1046
f 992 1046 993
f 993 1046 1047
f 993 1047 1048
f 993 1048 994
f 994 1048 1035
f 995 996 1049
f 995 1049 1050
f 995 1050 997
f 996 1002 1049
f 997 1051 1052
f 997 1052 1008
f 997 1008 1007
f 997 1007 998
f 997 1050 1053
f 997 1053 1051
f 999 1006 1054
f 999 1054 1055
f 999 1055 1056
f 999 1056 1057
f 999 1057 1058
f 999 1058 1059
f 999 1059 1060
f 999 1060 1061
f 999 1061 1062
f 999 1062 1063
f 999 1063 1000
f 1000 1063 1001
f 1001 1063 1064
f 1001 1064 1049
f 1001 1049 1002
f 1003 1065 1066
f 1003 1066 1067
f 1003 1067 1068
f 1003 1068 1004
f 1003 1034 1065
f 1004 1068 1069
f 1004 1069 1070
f 1004 1070 1071
f 1004 1071 1072
f 1004 1072 1005
f 1005 1072 1073
f 1005 1073 1074
f 1005 1074 1006
f 1006 1074 1054
f 1008 1052 1075
f 1009 1011 1010
f 1009 1031 1011
f 1011 1031 1012
f 1012 1076 1013
f 1012 1031 1076
f 1013 1076 1014
f 1014 1077 1078
f 1014 1078 1079
f 1014 1079 1080
f 1014 1080 1015
f 1014 1076 1031
f 1014 1031 1081
f 1014 1081 1077
f 1015 1080 1082
f 1015 1082 1016
f 1016 1083 1017
f 1016 1082 1083
f 1017 1083 1084
f 1017 1084 1020
f 1018 1085 1021
f 1018 1021 1019
f 1018 1020 1086
f 1018 1086 1087
f 1018 1087 1085
f 1020 1084 1088
f 1020 1088 1089
f 1020 1089 1086
f 1021 1090 1022
f 1021 1085 1090
f 1022 1090 1024
f 1023 1091 1043
f 1023 1024 1091
f 1024 1090 1092
f 1024 1092 1093
f 1024 1093 1094
f 1024 1094 1095
f 1024 1095 1091
f 1025 1096 1097
f 1025 1097 1098
f 1025 1098 1028
f 1025 1028 1027
f 1025 1027 1026
f 1028 1098 1097
f 1029 1097 1099
f 1029 1099 1100
f 1029 1100 1030
f 1030 1100 1099
f 1030 1099 1101
f 1030 1101 1102
f 1030 1102 1031
f 1031 1102 1103
f 1031 1103 1081
f 1033 1039 1034
f 1034 1038 1104
f 1034 1104 1105
f 1034 1105 1106
f 1034 1106 1107
f 1034 1107 1108
f 1034 1108 1065
f 1035 1048 1109
f 1035 1109 1036
f 1036 1109 1040
f 1037 1042 1110
f 1037 1110 1111
f 1037 1111 1112
f 1037 1112 1113
f 1037 1113 1038
f 1038 1113 1104
f 1040 1109 1048
f 1040 1048 1114
f 1040 1114 1041
f 1041 1114 1115
f 1041 1115 1116
f 1041 1116 1042
f 1042 1111 1110
f 1042 1116 1117
f 1042 1117 1111
f 1043 1091 1044
f 1044 1091 1118
f 1044 1118 1119
f 1044 1119 1046
f 1046 1119 1116
f 1046 1116 1047
f 1047 1116 1115
f 1047 1115 1114
f 1047 1114 1048
f 1049 1064 1120
f 1049 1120 1053
f 1049 1053 1050
f 1051 1121 1052
f 1051 1053 1121
f 1052 1121 1075
f 1053 1120 1122
f 1053 1122 1133
f 1053 1133 1121
f 1054 1074 1123
f 1054 1123 1124
f 1054 1124 1125
f 1054 1125 1055
f 1055 1125 1056
f 1056 1125 1057
f 1057 1125 1126
f 1057 1126 1127
f 1057 1127 1058
f 1058 1127 1128
f 1058 1128 1059
f 1059 1128 1129
f 1059 1129 1130
f 1059 1130 1131
f 1059 1131 1132
f 1059 1132 1061
f 1059 1061 1060
f 1061 1132 1133
f 1061 1133 1122
f 1061 1122 1062
f 1062 1122 1063
f 1063 1122 1120
f 1063 1120 1064
f 1065 1134 1135
f 1065 1135 1136
f 1065 1136 1066
f 1065 1108 1134
f 1066 1136 1067
f 1067 1137 1068
f 1067 1136 1137
f 1068 1138 1069
f 1068 1137 1138
f 1069 1138 1139
f 1069 1139 1140
f 1069 1140 1070
f 1070 1141 1071
f 1070 1140 1141
f 1071 1142 1143
f 1071 1143 1072
f 1071 1141 1142
f 1072 1143 1144
f 1072 1144 1073
f 1073 1144 1145
f 1073 1145 1074
f 1074 1145 1193
f 1074 1193 1123
f 1075 1121 1146
f 1075 1146 1147
f 1075 1147 1148
f 1077 1081 1149
f 1077 1149 1150
f 1077 1150 1151
f 1077 1151 1152
f 1077 1152 1078
f 1078 1152 1153
f 1078 1153 1088
f 1078 1088 1154
f 1078 1154 1082
f 1078 1082 1079
f 1079 1082 1080
f 1081 1103 1155
f 1081 1155 1149
f 1082 1154 1083
f 1083 1154 1084
f 1084 1154 1088
f 1085 1087 1156
f 1085 1156 1157
f 1085 1157 1158
f 1085 1158 1090
f 1086 1089 1153
f 1086 1153 1159
f 1086 1159 1160
f 1086 1160 1087
f 1087 1160 1156
f 1088 1153 1089
f 1090 1158 1092
f 1091 1095 1094
f 1091 1094 1161
f 1091 1161 1162
f 1091 1162 1118
f 1092 1163 1164
f 1092 1164 1094
f 1092 1094 1093
f 1092 1158 1157
f 1092 1157 1165
f 1092 1165 1163
f 1094 1164 1166
f 1094 1166 1161
f 1096 1167 1097
f 1096 1168 1169
f 1096 1169 1170
f 1096 1170 1167
f 1097 1167 1099
f 1099 1170 1171
f 1099 1171 1155
f 1099 1155 1103
f 1099 1103 1102
f 1099 1102 1101
f 1099 1167 1170
f 1104 1172 1173
f 1104 1173 1174
f 1104 1174 1175
f 1104 1175 1176
f 1104 1176 1105
f 1104 1113 1172
f 1105 1176 1177
f 1105 1177 1106
f 1106 1177 1107
f 1107 1177 1178
f 1107 1178 1179
f 1107 1179 1180
f 1107 1180 1181
f 1107 1181 1134
f 1107 1134 1108
f 1111 1182 1183
f 1111 1183 1112
f 1111 1117 1184
f 1111 1184 1185
f 1111 1185 1186
f 1111 1186 1187
f 1111 1187 1182
f 1112 1188 1189
f 1112 1189 1113
f 1112 1183 1188
f 1113 1189 1172
f 1116 1119 1190
f 1116 1190 1162
f 1116 1162 1191
f 1116 1191 1192
f 1116 1192 1184
f 1116 1184 1117
f 1118 1162 1119
f 1119 1162 1190
f 1121 1133 1146
f 1123 1193 1195
f 1123 1195 1194
f 1123 1194 1124
f 1124 1194 1126
f 1124 1126 1125
f 1126 1194 1195
f 1126 1195 1127
f 1127 1195 1196
f 1127 1196 1197
f 1127 1197 1198
f 1127 1198 1199
f 1127 1199 1130
f 1127 1130 1129
f 1127 1129 1128
f 1130 1199 1200
f 1130 1200 1131
f 1131 1148 1133
f 1131 1133 1132
f 1133 1148 1147
f 1133 1147 1146
f 1134 1201 1202
f 1134 1202 1135
f 1134 1181 1201
f 1135 1203 1136
f 1135 1202 1204
f 1135 1204 1203
f 1136 1203 1205
f 1136 1205 1137
f 1137 1205 1138
f 1138 1205 1139
f 1139 1205 1206
f 1139 1206 1207
f 1139 1207 1208
f 1139 1208 1140
f 1140 1208 1209
f 1140 1209 1141
f 1141 1209 1142
f 1142 1209 1210
f 1142 1210 1211
f 1142 1211 1143
f 1143 1211 1212
f 1143 1212 1213
f 1143 1213 1144
f 1144 1213 1145
f 1145 1213 1214
f 1145 1214 1215
f 1145 1215 1198
f 1145 1198 1216
f 1145 1216 1193
f 1149 1151 1150
f 1149 1155 1151
f 1151 1155 1217
f 1151 1217 1218
f 1151 1218 1219
f 1151 1219 1220
f 1151 1220 1152
f 1152 1220 1221
f 1152 1221 1222
f 1152 1222 1153
f 1153 1222 1221
f 1153 1221 1223
f 1153 1223 1224
f 1153 1224 1225
f 1153 1225 1226
f 1153 1226 1165
f 1153 1165 1160
f 1153 1160 1159
f 1155 1171 1227
f 1155 1227 1228
f 1155 1228 1229
f 1155 1229 1230
f 1155 1230 1217
f 1156 1160 1157
f 1157 1160 1165
f 1161 1166 1231
f 1161 1231 1162
f 1162 1231 1232
f 1162 1232 1191
f 1163 1165 1233
f 1163 1233 1234
f 1163 1234 1235
f 1163 1235 1164
f 1164 1235 1236
f 1164 1236 1166
f 1165 1226 1283
f 1165 1283 1233
f 1166 1236 1231
f 1168 1229 1169
f 1169 1229 1228
f 1169 1228 1227
f 1169 1227 1171
f 1169 1171 1170
f 1172 1237 1238
f 1172 1238 1174
f 1172 1174 1173
f 1172 1189 1237
f 1174 1238 1175
f 1175 1239 1176
f 1175 1238 1239
f 1176 1239 1240
f 1176 1240 1241
f 1176 1241 1177
f 1177 1242 1243
f 1177 1243 1178
f 1177 1241 1300
f 1177 1300 1242
f 1178 1243 1244
f 1178 1244 1179
f 1179 1244 1245
f 1179 1245 1180
f 1180 1245 1246
f 1180 1246 1201
f 1180 1201 1181
f 1182 1247 1183
f 1182 1187 1248
f 1182 1248 1249
f 1182 1249 1247
f 1183 1247 1250
f 1183 1250 1312
f 1183 1312 1251
f 1183 1251 1256
f 1183 1256 1188
f 1184 1192 1191
f 1184 1191 1252
f 1184 1252 1253
f 1184 1253 1254
f 1184 1254 1185
f 1185 1254 1255
f 1185 1255 1248
f 1185 1248 1186
f 1186 1248 1187
f 1188 1256 1257
f 1188 1257 1189
f 1189 1257 1237
f 1191 1232 1286
f 1191 1286 1252
f 1193 1216 1195
f 1195 1216 1196
f 1196 1216 1197
f 1197 1216 1198
f 1198 1215 1258
f 1198 1258 1199
f 1201 1246 1204
f 1201 1204 1202
f 1203 1204 1259
f 1203 1259 1260
f 1203 1260 1261
f 1203 1261 1205
f 1204 1246 1262
f 1204 1262 1260
f 1204 1260 1259
f 1205 1261 1263
f 1205 1263 1206
f 1206 1263 1264
f 1206 1264 1265
f 1206 1265 1266
f 1206 1266 1267
f 1206 1267 1207
f 1207 1267 1268
f 1207 1268 1269
f 1207 1269 1210
f 1207 1210 1209
f 1207 1209 1208
f 1210 1269 1211
f 1211 1270 1212
f 1211 1269 1268
f 1211 1268 1267
f 1211 1267 1270
f 1212 1271 1214
f 1212 1214 1213
f 1212 1258 1271
f 1214 1271 1215
f 1215 1271 1258
f 1217 1272 1273
f 1217 1273 1218
f 1217 1230 1272
f 1218 1273 1274
f 1218 1274 1219
f 1219 1274 1220
f 1220 1275 1276
f 1220 1276 1277
f 1220 1277 1221
f 1220 1274 1278
f 1220 1278 1272
f 1220 1272 1275
f 1221 1277 1279
f 1221 1279 1280
f 1221 1280 1281
f 1221 1281 1224
f 1221 1224 1223
f 1224 1281 1282
f 1224 1282 1225
f 1225 1282 1283
f 1225 1283 1226
f 1229 1272 1230
f 1231 1236 1284
f 1231 1284 1285
f 1231 1285 1232
f 1232 1285 1286
f 1233 1287 1234
f 1233 1283 1288
f 1233 1288 1287
f 1234 1287 1289
f 1234 1289 1290
f 1234 1290 1235
f 1235 1291 1292
f 1235 1292 1236
f 1235 1290 1291
f 1236 1292 1293
f 1236 1293 1294
f 1236 1294 1284
f 1237 1295 1296
f 1237 1296 1297
f 1237 1297 1238
f 1237 1257 1295
f 1238 1297 1298
f 1238 1298 1239
f 1239 1298 1299
f 1239 1299 1240
f 1240 1299 1300
f 1240 1300 1241
f 1242 1300 1301
f 1242 1301 1302
f 1242 1302 1303
f 1242 1303 1304
f 1242 1304 1243
f 1243 1304 1305
f 1243 1305 1306
f 1243 1306 1245
f 1243 1245 1244
f 1245 1306 1246
f 1246 1306 1307
f 1246 1307 1308
f 1246 1308 1262
f 1247 1249 1309
f 1247 1309 1250
f 1248 1255 1310
f 1248 1310 1249
f 1249 1310 1311
f 1249 1311 1309
f 1250 1309 1313
f 1250 1313 1353
f 1250 1353 1312
f 1251 1312 1314
f 1251 1314 1315
f 1251 1315 1256
f 1252 1316 1253
f 1252 1286 1317
f 1252 1317 1318
f 1252 1318 1319
f 1252 1319 1316
f 1253 1316 1320
f 1253 1320 1321
f 1253 1321 1254
f 1254 1321 1360
f 1254 1360 1322
f 1254 1322 1323
f 1254 1323 1255
f 1255 1323 1352
f 1255 1352 1311
f 1255 1311 1310
f 1256 1315 1324
f 1256 1324 1257
f 1257 1324 1325
f 1257 1325 1295
f 1260 1326 1263
f 1260 1263 1261
f 1260 1262 1308
f 1260 1308 1327
f 1260 1327 1326
f 1263 1328 1265
f 1263 1265 1264
f 1265 1328 1267
f 1265 1267 1266
f 1267 1328 1270
f 1272 1278 1273
f 1273 1278 1274
f 1276 1329 1279
f 1276 1279 1277
f 1279 1329 1280
f 1280 1329 1330
f 1280 1330 1331
f 1280 1331 1281
f 1281 1331 1282
f 1282 1288 1283
f 1282 1331 1288
f 1284 1294 1317
f 1284 1317 1285
f 1285 1317 1286
f 1287 1288 1332
f 1287 1332 1333
f 1287 1333 1289
f 1288 1331 1332
f 1289 1333 1329
f 1289 1329 1334
f 1289 1334 1290
f 1291 1335 1292
f 1292 1335 1319
f 1292 1319 1336
f 1292 1336 1293
f 1293 1336 1294
f 1294 1336 1317
f 1295 1325 1296
f 1296 1325 1337
f 1296 1337 1338
f 1296 1338 1339
f 1296 1339 1298
f 1296 1298 1297
f 1298 1339 1340
f 1298 1340 1341
f 1298 1341 1342
f 1298 1342 1299
f 1299 1342 1343
f 1299 1343 1301
f 1299 1301 1300
f 1301 1343 1341
f 1301 1341 1344
f 1301 1344 1345
f 1301 1345 1346
f 1301 1346 1302
f 1302 1347 1303
f 1303 1347 1327
f 1303 1327 1348
f 1303 1348 1349
f 1303 1349 1350
f 1303 1350 1305
f 1303 1305 1304
f 1305 1350 1306
f 1306 1350 1307
f 1307 1351 1308
f 1307 1350 1351
f 1308 1351 1349
f 1308 1349 1327
f 1309 1311 1313
f 1311 1352 1353
f 1311 1353 1313
f 1312 1353 1314
f 1314 1354 1315
f 1314 1353 1355
f 1314 1355 1356
f 1314 1356 1354
f 1315 1354 1357
f 1315 1357 1358
f 1315 1358 1324
f 1316 1319 1320
f 1317 1336 1318
f 1318 1336 1319
f 1319 1335 1320
f 1320 1335 1359
f 1320 1359 1321
f 1321 1359 1360
f 1322 1360 1359
f 1322 1359 1361
f 1322 1361 1362
f 1322 1362 1363
f 1322 1363 1323
f 1323 1363 1364
f 1323 1364 1352
f 1324 1358 1338
f 1324 1338 1337
f 1324 1337 1325
f 1327 1349 1348
f 1329 1333 1330
f 1330 1333 1332
f 1330 1332 1331
f 1338 1365 1366
f 1338 1366 1339
f 1338 1358 1367
f 1338 1367 1365
f 1339 1366 1340
f 1340 1366 1341
f 1341 1366 1344
f 1341 1343 1342
f 1344 1366 1345
f 1349 1351 1350
f 1352 1364 1353
f 1353 1368 1355
f 1353 1364 1368
f 1354 1356 1369
f 1354 1369 1370
f 1354 1370 1371
f 1354 1371 1357
f 1355 1368 1356
f 1356 1368 1369
f 1357 1371 1367
f 1357 1367 1358
f 1362 1372 1363
f 1363 1373 1368
f 1363 1368 1364
f 1363 1372 1373
f 1368 1374 1371
f 1368 1371 1370
f 1368 1370 1369
f 1368 1373 1374

