# https://github.com/mikedh/trimesh
v -0.07028664 -0.01248088 -0.01910202
v -0.07569329 -0.01248088 -0.02103958
v -0.07028664 -0.01248088 -0.02789936
v -0.07028664 0.01145688 -0.02010531
v -0.07569329 0.01145688 -0.02155985
v -0.07652094 -0.01248088 -0.02136598
v -0.07351415 -0.01248088 -0.02791689
v -0.07028664 -0.01245510 -0.02791251
v -0.07028664 0.01145688 -0.02832981
v -0.07652912 0.01145688 -0.02189281
v -0.07702162 -0.01248088 -0.02220497
v -0.07666400 0.01145688 -0.02202753
v -0.07672530 0.01145688 -0.02212392
v -0.07352777 -0.01248088 -0.02791689
v -0.07352777 -0.01246448 -0.02792455
v -0.07352777 -0.01192320 -0.02816442
v -0.07286156 -0.01191618 -0.02816333
v -0.07028664 -0.01188337 -0.02815128
v -0.07046375 0.01145688 -0.02832981
v -0.07028664 0.01029702 -0.02876245
v -0.07724369 -0.01245510 -0.02328821
v -0.07724369 -0.01248088 -0.02328821
v -0.07721917 0.01145688 -0.02320497
v -0.07723688 0.01145688 -0.02328930
v -0.07440992 -0.01248088 -0.02780736
v -0.07409316 -0.01192320 -0.02816661
v -0.07028664 -0.01133741 -0.02836815
v -0.07136225 0.01145688 -0.02832433
v -0.07028664 0.00933866 -0.02910527
v -0.07352777 0.00878802 -0.02928819
v -0.07352777 0.00932929 -0.02909103
v -0.07136225 0.01028765 -0.02875697
v -0.07724506 0.01145688 -0.02428820
v -0.07724574 0.01137253 -0.02437144
v -0.07722666 -0.01248088 -0.02437144
v -0.07724574 -0.01137022 -0.02437144
v -0.07722939 -0.01245510 -0.02437144
v -0.07451755 -0.01248088 -0.02779312
v -0.07028664 -0.01028768 -0.02874711
v -0.07451687 -0.01235200 -0.02785555
v -0.07481523 -0.01166077 -0.02807023
v -0.07416605 -0.00871776 -0.02926409
v -0.07352777 -0.00874587 -0.02927176
v -0.07352777 0.01145688 -0.02830571
v -0.07028664 0.00879739 -0.02928928
v -0.07244535 0.00879271 -0.02928928
v -0.07421442 0.00874350 -0.02927395
v -0.07352777 0.00812256 -0.02946453
v -0.07724437 0.01145688 -0.02437144
v -0.07724506 0.00920510 -0.02545359
v -0.07724574 0.00812256 -0.02545359
v -0.07713402 -0.01137022 -0.02545359
v -0.07690923 -0.01245510 -0.02545359
v -0.07690037 -0.01248088 -0.02545359
v -0.07724574 -0.00812259 -0.02545359
v -0.07724506 -0.00920513 -0.02545359
v -0.07723211 -0.01028768 -0.02545359
v -0.07540651 -0.01248088 -0.02734953
v -0.07028664 -0.00874587 -0.02927176
v -0.07518784 -0.01093908 -0.02819399
v -0.07488812 -0.00843892 -0.02917318
v -0.07456115 -0.00809682 -0.02935171
v -0.07460951 -0.00703771 -0.02960472
v -0.07352777 -0.00703771 -0.02973068
v -0.07352777 -0.00812259 -0.02945795
v -0.07028664 -0.00811322 -0.02946124
v -0.07389561 0.01145688 -0.02825643
v -0.07028664 0.00812256 -0.02946453
v -0.07352777 0.00703768 -0.02971973
v -0.07352777 0.00595514 -0.02996617
v -0.07460951 0.00595514 -0.02983473
v -0.07460951 0.00703768 -0.02959596
v -0.07458907 0.00810382 -0.02935500
v -0.07493648 0.00845295 -0.02918194
v -0.07458907 0.00914653 -0.02902203
v -0.07460951 0.01145688 -0.02815894
v -0.07714764 0.01145688 -0.02536925
v -0.07722734 0.01028765 -0.02545359
v -0.07716808 0.00812256 -0.02653683
v -0.07718443 0.00703768 -0.02653683
v -0.07721781 -0.00703771 -0.02653683
v -0.07716467 -0.00812259 -0.02653683
v -0.07702435 -0.00920513 -0.02653683
v -0.07684042 -0.01028768 -0.02653683
v -0.07641876 -0.01245510 -0.02620715
v -0.07656045 -0.01129289 -0.02656969
v -0.07641331 -0.01248088 -0.02620167
v -0.07592967 -0.01248088 -0.02676246
v -0.07541196 -0.01245510 -0.02735610
v -0.07565651 -0.01126946 -0.02758282
v -0.07625255 -0.01087815 -0.02709652
v -0.07583770 -0.01028768 -0.02773945
v -0.07547258 -0.00920513 -0.02849520
v -0.07519329 -0.00771723 -0.02928161
v -0.07460951 -0.00595751 -0.02983583
v -0.07352777 -0.00595751 -0.02996179
v -0.07028664 -0.00703068 -0.02973068
v -0.07028664 0.00703768 -0.02971316
v -0.07028664 0.00595514 -0.02994864
v -0.07028664 0.00487259 -0.03016661
v -0.07136225 0.00487259 -0.03014799
v -0.07352777 0.00487259 -0.03002641
v -0.07538675 0.00595514 -0.02947000
v -0.07527231 0.00703768 -0.02935609
v -0.07519466 0.00773125 -0.02928161
v -0.07460951 0.00487259 -0.02986211
v -0.07518103 0.01091327 -0.02818742
v -0.07560678 0.01145688 -0.02753244
v -0.07712448 0.01145688 -0.02545359
v -0.07714015 0.01137253 -0.02545359
v -0.07681863 0.00703768 -0.02761897
v -0.07702162 0.00920510 -0.02653683
v -0.07687108 -0.00595751 -0.02761897
v -0.07682544 -0.00703771 -0.02761897
v -0.07658906 -0.00805933 -0.02766935
v -0.07651958 -0.00920513 -0.02738458
v -0.07640242 -0.01248088 -0.02621481
v -0.07612449 -0.01159985 -0.02695413
v -0.07634792 -0.01028768 -0.02719947
v -0.07595351 -0.01245510 -0.02674822
v -0.07601413 -0.00920513 -0.02792675
v -0.07566877 -0.00804761 -0.02868030
v -0.07625868 -0.00765630 -0.02818633
v -0.07633907 -0.00703771 -0.02826628
v -0.07581659 -0.00703771 -0.02880954
v -0.07527504 -0.00703771 -0.02935938
v -0.07460951 -0.00487262 -0.03003079
v -0.07352777 -0.00487262 -0.03017099
v -0.07244535 -0.00487262 -0.03017099
v -0.07136225 -0.00487262 -0.03016989
v -0.07028664 -0.00594814 -0.02995302
v -0.07028664 0.00386738 -0.03020604
v -0.07592762 0.00595514 -0.02893331
v -0.07547735 -0.00487262 -0.02956639
v -0.07581386 0.00703768 -0.02881502
v -0.07626481 0.00767502 -0.02819290
v -0.07567218 0.00806398 -0.02868687
v -0.07547531 0.00920510 -0.02850287
v -0.07634588 0.00703768 -0.02827286
v -0.07564970 0.01124366 -0.02757187
v -0.07594874 0.01145688 -0.02717538
v -0.07661631 0.01145688 -0.02639991
v -0.07682544 0.01028765 -0.02653683
v -0.07659519 0.00807101 -0.02767264
v -0.07643239 0.00595514 -0.02839115
v -0.07644669 -0.00595751 -0.02839005
v -0.07614492 -0.00837800 -0.02806585
v -0.07592830 -0.00595751 -0.02893222
v -0.07538743 -0.00595751 -0.02947438
v -0.07028664 -0.00376431 -0.03029147
v -0.07028664 -0.00487262 -0.03015894
v -0.07651686 0.00920510 -0.02738458
v -0.07614969 0.00839671 -0.02806913
v -0.07601686 0.00920510 -0.02792565
v -0.07624302 0.01085235 -0.02708666
v -0.07583157 0.01028765 -0.02772959
v -0.07629410 0.01145688 -0.02679860
v -0.07654070 0.01145688 -0.02651602
v -0.07655977 0.01127646 -0.02656859
v -0.07633770 0.01028765 -0.02718962
f 1 2 6
f 1 6 11
f 1 11 22
f 1 22 35
f 1 35 54
f 1 54 87
f 1 87 117
f 1 117 88
f 1 88 58
f 1 58 38
f 1 38 25
f 1 25 14
f 1 14 7
f 1 7 3
f 1 3 8
f 1 8 18
f 1 18 27
f 1 27 39
f 1 39 59
f 1 59 66
f 1 66 97
f 1 97 131
f 1 131 151
f 1 151 150
f 1 150 132
f 1 132 100
f 1 100 99
f 1 99 98
f 1 98 68
f 1 68 45
f 1 45 29
f 1 29 20
f 1 20 9
f 1 9 4
f 1 4 5
f 1 5 2
f 2 5 6
f 3 7 8
f 4 9 19
f 4 19 28
f 4 28 44
f 4 44 67
f 4 67 76
f 4 76 108
f 4 108 141
f 4 141 157
f 4 157 158
f 4 158 142
f 4 142 109
f 4 109 77
f 4 77 49
f 4 49 33
f 4 33 24
f 4 24 23
f 4 23 13
f 4 13 12
f 4 12 10
f 4 10 5
f 5 10 6
f 6 10 12
f 6 12 13
f 6 13 11
f 7 14 15
f 7 15 8
f 8 15 16
f 8 16 17
f 8 17 18
f 9 20 19
f 11 21 22
f 11 13 23
f 11 23 24
f 11 24 21
f 14 25 26
f 14 26 15
f 15 26 16
f 16 27 17
f 16 26 27
f 17 27 18
f 19 20 28
f 20 29 30
f 20 30 31
f 20 31 32
f 20 32 28
f 21 24 33
f 21 33 34
f 21 34 36
f 21 36 22
f 22 36 37
f 22 37 35
f 25 38 26
f 26 39 27
f 26 38 40
f 26 40 41
f 26 41 42
f 26 42 43
f 26 43 39
f 28 32 44
f 29 45 46
f 29 46 30
f 30 47 31
f 30 46 48
f 30 48 47
f 31 47 44
f 31 44 32
f 33 49 34
f 34 49 50
f 34 50 51
f 34 51 55
f 34 55 36
f 35 37 52
f 35 52 53
f 35 53 54
f 36 55 56
f 36 56 57
f 36 57 37
f 37 57 52
f 38 58 41
f 38 41 40
f 39 43 59
f 41 58 60
f 41 60 61
f 41 61 42
f 42 61 62
f 42 62 63
f 42 63 64
f 42 64 65
f 42 65 43
f 43 65 66
f 43 66 59
f 44 47 67
f 45 68 48
f 45 48 46
f 47 48 69
f 47 69 70
f 47 70 71
f 47 71 72
f 47 72 73
f 47 73 74
f 47 74 75
f 47 75 76
f 47 76 67
f 48 68 69
f 49 77 78
f 49 78 50
f 50 78 79
f 50 79 80
f 50 80 81
f 50 81 51
f 51 81 55
f 52 57 82
f 52 82 83
f 52 83 84
f 52 84 53
f 53 85 54
f 53 84 86
f 53 86 85
f 54 85 87
f 55 81 56
f 56 81 57
f 57 81 82
f 58 88 89
f 58 89 60
f 60 89 90
f 60 90 91
f 60 91 92
f 60 92 93
f 60 93 94
f 60 94 61
f 61 94 62
f 62 94 63
f 63 95 96
f 63 96 64
f 63 94 95
f 64 96 97
f 64 97 66
f 64 66 65
f 68 98 69
f 69 98 70
f 70 98 99
f 70 99 100
f 70 100 101
f 70 101 102
f 70 102 71
f 71 103 104
f 71 104 105
f 71 105 72
f 71 102 106
f 71 106 103
f 72 105 73
f 73 105 74
f 74 107 76
f 74 76 75
f 74 105 107
f 76 107 108
f 77 109 110
f 77 110 78
f 78 110 79
f 79 111 80
f 79 110 112
f 79 112 111
f 80 111 113
f 80 113 81
f 81 113 114
f 81 114 82
f 82 114 83
f 83 114 84
f 84 114 115
f 84 115 116
f 84 116 86
f 85 117 87
f 85 86 118
f 85 118 117
f 86 116 119
f 86 119 91
f 86 91 118
f 88 117 120
f 88 120 89
f 89 120 118
f 89 118 90
f 90 118 91
f 91 119 121
f 91 121 92
f 92 121 93
f 93 121 122
f 93 122 94
f 94 122 123
f 94 123 124
f 94 124 125
f 94 125 126
f 94 126 127
f 94 127 95
f 95 127 128
f 95 128 96
f 96 129 130
f 96 130 131
f 96 131 97
f 96 128 129
f 100 132 101
f 101 132 128
f 101 128 102
f 102 128 127
f 102 127 106
f 103 133 104
f 103 106 127
f 103 127 134
f 103 134 133
f 104 133 135
f 104 135 105
f 105 136 137
f 105 137 138
f 105 138 107
f 105 135 139
f 105 139 136
f 107 138 140
f 107 140 108
f 108 140 141
f 109 142 143
f 109 143 110
f 110 143 112
f 111 112 143
f 111 143 144
f 111 144 139
f 111 139 145
f 111 145 113
f 113 146 114
f 113 145 146
f 114 124 115
f 114 146 124
f 115 124 123
f 115 123 116
f 116 121 119
f 116 123 147
f 116 147 121
f 117 118 120
f 121 147 122
f 122 147 123
f 124 146 148
f 124 148 125
f 125 148 126
f 126 148 149
f 126 149 127
f 127 149 134
f 128 150 129
f 128 132 150
f 129 150 130
f 130 150 151
f 130 151 131
f 133 145 139
f 133 139 135
f 133 134 145
f 134 149 148
f 134 148 146
f 134 146 145
f 136 144 152
f 136 152 153
f 136 153 137
f 136 139 144
f 137 153 138
f 138 154 155
f 138 155 156
f 138 156 140
f 138 153 154
f 140 156 155
f 140 155 141
f 141 155 157
f 142 158 159
f 142 159 143
f 143 159 152
f 143 152 144
f 152 159 160
f 152 160 154
f 152 154 153
f 154 160 155
f 155 159 157
f 155 160 159
f 157 159 158

