mtllib material.mtl
usemtl black.005
v -0.01254600 0.07310000 0.01044600
v -0.01254600 0.07310000 0.01044600
v -0.01095000 0.07310000 0.00910600
v -0.01095000 0.07310000 0.00910600
v -0.00250000 0.07310000 0.00422800
v -0.00250000 0.07310000 0.00422800
v 0.01095000 0.07310000 0.03789400
v 0.01095000 0.07310000 0.03789400
v 0.01254600 0.07310000 0.03655400
v 0.01254600 0.07310000 0.03655400
v -0.01358800 0.07310000 0.01225000
v -0.01358800 0.07310000 0.01225000
v -0.01395000 0.07310000 0.01430200
v -0.01395000 0.07310000 0.01430200
v 0.01358800 0.07310000 0.03475000
v 0.01358800 0.07310000 0.03475000
v 0.01395000 0.07310000 0.03269800
v 0.01395000 0.07310000 0.03269800
v -0.01095000 0.07310000 0.03789400
v -0.01095000 0.07310000 0.03789400
v -0.01254600 0.07310000 0.03655400
v -0.01254600 0.07310000 0.03655400
v -0.01358800 0.07310000 0.03475000
v -0.01358800 0.07310000 0.03475000
v -0.00086800 0.07310000 0.00363400
v -0.00086800 0.07310000 0.00363400
v 0.00086800 0.07310000 0.00363400
v 0.00086800 0.07310000 0.00363400
v 0.00250000 0.07310000 0.00422800
v 0.00250000 0.07310000 0.00422800
v 0.01095000 0.07310000 0.00910600
v 0.01095000 0.07310000 0.00910600
v 0.01254600 0.07310000 0.01044600
v 0.01254600 0.07310000 0.01044600
v 0.01358800 0.07310000 0.01225000
v 0.01358800 0.07310000 0.01225000
v 0.01395000 0.07310000 0.01430200
v 0.01395000 0.07310000 0.01430200
v -0.00250000 0.07310000 0.04277200
v -0.00250000 0.07310000 0.04277200
v 0.00000000 0.07310000 0.04344200
v 0.00000000 0.07310000 0.04344200
v 0.00250000 0.07310000 0.04277200
v 0.00250000 0.07310000 0.04277200
v -0.01395000 0.07310000 0.03269800
v -0.01395000 0.07310000 0.03269800
v 0.00250000 0.07610000 0.04277200
v 0.00250000 0.07610000 0.04277200
v 0.00250000 0.07610000 0.04277200
v 0.00000000 0.07610000 0.04344200
v 0.00000000 0.07610000 0.04344200
v 0.00000000 0.07610000 0.04344200
v -0.00250000 0.07610000 0.04277200
v -0.00250000 0.07610000 0.04277200
v -0.00250000 0.07610000 0.04277200
v -0.01095000 0.07610000 0.03789400
v -0.01095000 0.07610000 0.03789400
v -0.01095000 0.07610000 0.03789400
v -0.01254600 0.07610000 0.03655400
v -0.01254600 0.07610000 0.03655400
v -0.01254600 0.07610000 0.03655400
v -0.01358800 0.07610000 0.03475000
v -0.01358800 0.07610000 0.03475000
v -0.01358800 0.07610000 0.03475000
v -0.01395000 0.07610000 0.03269800
v -0.01395000 0.07610000 0.03269800
v -0.01395000 0.07610000 0.03269800
v -0.01395000 0.07610000 0.01430200
v -0.01395000 0.07610000 0.01430200
v -0.01395000 0.07610000 0.01430200
v -0.01358800 0.07610000 0.01225000
v -0.01358800 0.07610000 0.01225000
v -0.01358800 0.07610000 0.01225000
v -0.01254600 0.07610000 0.01044600
v -0.01254600 0.07610000 0.01044600
v -0.01254600 0.07610000 0.01044600
v -0.01095000 0.07610000 0.00910600
v -0.01095000 0.07610000 0.00910600
v -0.01095000 0.07610000 0.00910600
v -0.00250000 0.07610000 0.00422800
v -0.00250000 0.07610000 0.00422800
v -0.00250000 0.07610000 0.00422800
v -0.00086800 0.07610000 0.00363400
v -0.00086800 0.07610000 0.00363400
v -0.00086800 0.07610000 0.00363400
v 0.00086800 0.07610000 0.00363400
v 0.00086800 0.07610000 0.00363400
v 0.00086800 0.07610000 0.00363400
v 0.00250000 0.07610000 0.00422800
v 0.00250000 0.07610000 0.00422800
v 0.00250000 0.07610000 0.00422800
v 0.01095000 0.07610000 0.00910600
v 0.01095000 0.07610000 0.00910600
v 0.01095000 0.07610000 0.00910600
v 0.01254600 0.07610000 0.01044600
v 0.01254600 0.07610000 0.01044600
v 0.01254600 0.07610000 0.01044600
v 0.01358800 0.07610000 0.01225000
v 0.01358800 0.07610000 0.01225000
v 0.01358800 0.07610000 0.01225000
v 0.01395000 0.07610000 0.01430200
v 0.01395000 0.07610000 0.01430200
v 0.01395000 0.07610000 0.01430200
v 0.01395000 0.07610000 0.03269800
v 0.01395000 0.07610000 0.03269800
v 0.01395000 0.07610000 0.03269800
v 0.01358800 0.07610000 0.03475000
v 0.01358800 0.07610000 0.03475000
v 0.01358800 0.07610000 0.03475000
v 0.01254600 0.07610000 0.03655400
v 0.01254600 0.07610000 0.03655400
v 0.01254600 0.07610000 0.03655400
v 0.01095000 0.07610000 0.03789400
v 0.01095000 0.07610000 0.03789400
v 0.01095000 0.07610000 0.03789400
vn -0.86620000 -0.00000000 -0.49980000
vn -0.64300000 -0.00000000 -0.76590000
vn -0.50000000 -0.00000000 -0.86610000
vn -0.64300000 -0.00000000 -0.76590000
vn -0.50000000 -0.00000000 -0.86610000
vn -0.34200000 -0.00000000 -0.93970000
vn 0.50000000 -0.00000000 0.86610000
vn 0.64300000 -0.00000000 0.76590000
vn 0.64300000 -0.00000000 0.76590000
vn 0.86590000 -0.00000000 0.50020000
vn -0.86590000 -0.00000000 -0.50020000
vn -0.98480000 -0.00000000 -0.17370000
vn -1.00000000 -0.00000000 -0.00000000
vn -0.98480000 -0.00000000 -0.17370000
vn 0.98480000 -0.00000000 0.17370000
vn 0.86590000 -0.00000000 0.50020000
vn 0.98480000 -0.00000000 0.17370000
vn 1.00000000 -0.00000000 -0.00000000
vn -0.64300000 -0.00000000 0.76590000
vn -0.50000000 -0.00000000 0.86610000
vn -0.86590000 -0.00000000 0.50020000
vn -0.64300000 -0.00000000 0.76590000
vn -0.98480000 -0.00000000 0.17370000
vn -0.86590000 -0.00000000 0.50020000
vn -0.34200000 -0.00000000 -0.93970000
vn -0.00000000 -0.00000000 -1.00000000
vn -0.00000000 -0.00000000 -1.00000000
vn 0.34200000 -0.00000000 -0.93970000
vn 0.34200000 -0.00000000 -0.93970000
vn 0.50000000 -0.00000000 -0.86610000
vn 0.50000000 -0.00000000 -0.86610000
vn 0.64300000 -0.00000000 -0.76590000
vn 0.86590000 -0.00000000 -0.50020000
vn 0.64300000 -0.00000000 -0.76590000
vn 0.98480000 -0.00000000 -0.17370000
vn 0.86620000 -0.00000000 -0.49980000
vn 1.00000000 -0.00000000 -0.00000000
vn 0.98480000 -0.00000000 -0.17370000
vn -0.25890000 -0.00000000 0.96590000
vn -0.50000000 -0.00000000 0.86610000
vn 0.25890000 -0.00000000 0.96590000
vn -0.25890000 -0.00000000 0.96590000
vn 0.25890000 -0.00000000 0.96590000
vn 0.50000000 -0.00000000 0.86610000
vn -1.00000000 -0.00000000 -0.00000000
vn -0.98480000 -0.00000000 0.17370000
vn 0.50000000 -0.00000000 0.86610000
vn 0.25890000 -0.00000000 0.96590000
vn -0.00000000 1.00000000 -0.00000000
vn -0.25890000 -0.00000000 0.96590000
vn 0.25890000 -0.00000000 0.96590000
vn -0.00000000 1.00000000 -0.00000000
vn -0.50000000 -0.00000000 0.86610000
vn -0.25890000 -0.00000000 0.96590000
vn -0.00000000 1.00000000 -0.00000000
vn -0.64250000 -0.00000000 0.76630000
vn -0.00000000 1.00000000 -0.00000000
vn -0.50000000 -0.00000000 0.86610000
vn -0.64300000 -0.00000000 0.76590000
vn -0.00000000 1.00000000 -0.00000000
vn -0.86590000 -0.00000000 0.50020000
vn -0.98480000 -0.00000000 0.17370000
vn -0.86590000 -0.00000000 0.50020000
vn -0.00000000 1.00000000 -0.00000000
vn -0.00000000 1.00000000 -0.00000000
vn -0.98480000 -0.00000000 0.17370000
vn -1.00000000 -0.00000000 -0.00000000
vn -0.98480000 -0.00000000 -0.17370000
vn -1.00000000 -0.00000000 -0.00000000
vn -0.00000000 1.00000000 -0.00000000
vn -0.00000000 1.00000000 -0.00000000
vn -0.98480000 -0.00000000 -0.17370000
vn -0.86620000 -0.00000000 -0.49980000
vn -0.86590000 -0.00000000 -0.50020000
vn -0.64300000 -0.00000000 -0.76590000
vn -0.00000000 1.00000000 -0.00000000
vn -0.50000000 -0.00000000 -0.86610000
vn -0.64300000 -0.00000000 -0.76590000
vn -0.00000000 1.00000000 -0.00000000
vn -0.50000000 -0.00000000 -0.86610000
vn -0.34200000 -0.00000000 -0.93970000
vn -0.00000000 1.00000000 -0.00000000
vn -0.34200000 -0.00000000 -0.93970000
vn -0.00000000 -0.00000000 -1.00000000
vn -0.00000000 1.00000000 -0.00000000
vn -0.00000000 -0.00000000 -1.00000000
vn 0.34200000 -0.00000000 -0.93970000
vn -0.00000000 1.00000000 -0.00000000
vn 0.34200000 -0.00000000 -0.93970000
vn 0.50000000 -0.00000000 -0.86610000
vn -0.00000000 1.00000000 -0.00000000
vn -0.00000000 1.00000000 -0.00000000
vn 0.50000000 -0.00000000 -0.86610000
vn 0.64280000 -0.00000000 -0.76610000
vn 0.64300000 -0.00000000 -0.76590000
vn 0.86620000 -0.00000000 -0.49980000
vn -0.00000000 1.00000000 -0.00000000
vn 0.86590000 -0.00000000 -0.50020000
vn 0.98480000 -0.00000000 -0.17370000
vn -0.00000000 1.00000000 -0.00000000
vn 0.98480000 -0.00000000 -0.17370000
vn -0.00000000 1.00000000 -0.00000000
vn 1.00000000 -0.00000000 -0.00000000
vn 1.00000000 -0.00000000 -0.00000000
vn -0.00000000 1.00000000 -0.00000000
vn 0.98480000 -0.00000000 0.17370000
vn 0.86590000 -0.00000000 0.50020000
vn 0.98480000 -0.00000000 0.17370000
vn -0.00000000 1.00000000 -0.00000000
vn 0.86590000 -0.00000000 0.50020000
vn -0.00000000 1.00000000 -0.00000000
vn 0.64300000 -0.00000000 0.76590000
vn -0.00000000 1.00000000 -0.00000000
vn 0.64300000 -0.00000000 0.76590000
vn 0.50000000 -0.00000000 0.86610000
f 43//43 48//48 51//51
f 43//43 51//51 41//41
f 42//42 50//50 54//54
f 42//42 54//54 39//39
f 58//58 20//20 53//53
f 53//53 20//20 40//40
f 19//19 56//56 59//59
f 19//19 59//59 22//22
f 21//21 61//61 63//63
f 21//21 63//63 24//24
f 23//23 62//62 66//66
f 23//23 66//66 46//46
f 69//69 13//13 67//67
f 67//67 13//13 45//45
f 14//14 68//68 72//72
f 14//14 72//72 12//12
f 11//11 73//73 74//74
f 11//11 74//74 1//1
f 2//2 75//75 78//78
f 2//2 78//78 4//4
f 80//80 5//5 77//77
f 77//77 5//5 3//3
f 6//6 81//81 83//83
f 6//6 83//83 25//25
f 26//26 84//84 86//86
f 26//26 86//86 27//27
f 28//28 87//87 89//89
f 28//28 89//89 29//29
f 93//93 31//31 90//90
f 90//90 31//31 30//30
f 32//32 94//94 95//95
f 32//32 95//95 34//34
f 33//33 96//96 98//98
f 33//33 98//98 36//36
f 35//35 99//99 101//101
f 35//35 101//101 38//38
f 104//104 18//18 103//103
f 103//103 18//18 37//37
f 17//17 106//106 108//108
f 17//17 108//108 15//15
f 16//16 107//107 110//110
f 16//16 110//110 10//10
f 9//9 112//112 114//114
f 9//9 114//114 8//8
f 47//47 44//44 115//115
f 115//115 44//44 7//7
f 82//82 79//79 113//113
f 79//79 76//76 113//113
f 113//113 76//76 71//71
f 113//113 71//71 70//70
f 102//102 100//100 97//97
f 85//85 82//82 88//88
f 88//88 82//82 113//113
f 88//88 113//113 91//91
f 91//91 113//113 111//111
f 91//91 111//111 109//109
f 109//109 105//105 91//91
f 91//91 105//105 102//102
f 91//91 102//102 92//92
f 92//92 102//102 97//97
f 70//70 65//65 113//113
f 113//113 65//65 64//64
f 113//113 64//64 60//60
f 60//60 57//57 113//113
f 113//113 57//57 55//55
f 113//113 55//55 49//49
f 49//49 55//55 52//52

